<svg xmlns="http://www.w3.org/2000/svg" xmlns:xlink="http://www.w3.org/1999/xlink" contentStyleType="text/css" data-diagram-type="STATE" height="620px" preserveAspectRatio="none" style="width:742px;height:620px;background:#FFFFFF;" version="1.1" viewBox="0 0 742 620" width="742px" zoomAndPan="magnify"><defs/><g><path d="M19.5,7 L716.5,7 A12.5,12.5 0 0 1 729,19.5 L729,33.2969 L7,33.2969 L7,19.5 A12.5,12.5 0 0 1 19.5,7" fill="#F1F1F1"/><rect fill="none" height="462.2969" rx="12.5" ry="12.5" style="stroke:#181818;stroke-width:0.5;" width="722" x="7" y="7"/><line style="stroke:#181818;stroke-width:0.5;" x1="7" x2="729" y1="33.2969" y2="33.2969"/><text fill="#000000" font-family="sans-serif" font-size="14" lengthAdjust="spacing" textLength="131.4209" x="302.2896" y="24.9951">editarPublicacion()</text><g id="editarPublicacion.EditandoPublicacion"><rect fill="#F1F1F1" height="50" rx="12.5" ry="12.5" style="stroke:#181818;stroke-width:0.5;" width="50" x="219" y="135.2969"/><line style="stroke:#181818;stroke-width:0.5;" x1="219" x2="269" y1="161.5938" y2="161.5938"/><text fill="#000000" font-family="sans-serif" font-size="14" lengthAdjust="spacing" textLength="4.4502" x="241.7749" y="153.292">&#160;</text></g><g id="editarPublicacion.ValidandoDatos"><rect fill="#F1F1F1" height="50" rx="12.5" ry="12.5" style="stroke:#181818;stroke-width:0.5;" width="50" x="219" y="301.2969"/><line style="stroke:#181818;stroke-width:0.5;" x1="219" x2="269" y1="327.5938" y2="327.5938"/><text fill="#000000" font-family="sans-serif" font-size="14" lengthAdjust="spacing" textLength="4.4502" x="241.7749" y="319.292">&#160;</text></g><ellipse cx="244" cy="54.2969" fill="#222222" rx="10" ry="10" style="stroke:#222222;stroke-width:1;"/><ellipse cx="244" cy="448.2969" fill="none" rx="11" ry="11" style="stroke:#222222;stroke-width:1;"/><ellipse cx="244" cy="448.2969" fill="#222222" rx="6" ry="6" style="stroke:#222222;stroke-width:1;"/><!--link *start*editarPublicacion to EditandoPublicacion--><g class="link" data-entity-1=".start.editarPublicacion" data-entity-2="EditandoPublicacion" data-source-line="8" data-uid="lnk3" id="link_.start.editarPublicacion_EditandoPublicacion"><path d="M244,64.5269 C244,80.2369 244,106.6569 244,129.1669" fill="none" id="*start*editarPublicacion-to-EditandoPublicacion" style="stroke:#008000;stroke-width:1;"/><polygon fill="#008000" points="244,135.1669,248,126.1669,244,130.1669,240,126.1669,244,135.1669" style="stroke:#008000;stroke-width:1;"/><path d="M249,87.2969 L249,112.2969 L552,112.2969 L552,97.2969 L542,87.2969 L249,87.2969" fill="#FEFFDD" style="stroke:#181818;stroke-width:0.5;"/><path d="M542,87.2969 L542,97.2969 L552,97.2969 L542,87.2969" fill="#FEFFDD" style="stroke:#181818;stroke-width:0.5;"/><text fill="#000000" font-family="sans-serif" font-size="13" font-weight="bold" lengthAdjust="spacing" textLength="92.5171" x="255" y="104.3638">Investigador</text><text fill="#000000" font-family="sans-serif" font-size="13" lengthAdjust="spacing" textLength="185.4849" x="351.6494" y="104.3638">solicita editar su publicacion</text></g><!--link EditandoPublicacion to ValidandoDatos--><g class="link" data-entity-1="EditandoPublicacion" data-entity-2="ValidandoDatos" data-source-line="13" data-uid="lnk4" id="link_EditandoPublicacion_ValidandoDatos"><path d="M218.95,165.9569 C160.11,176.8869 18,203.2969 18,203.2969 C18,203.2969 18,283.2969 18,283.2969 C18,283.2969 154.2109,308.6111 213.0509,319.5411" fill="none" id="EditandoPublicacion-to-ValidandoDatos" style="stroke:#008000;stroke-width:1;"/><polygon fill="#008000" points="218.95,320.6369,210.8319,315.0604,214.0341,319.7237,209.3708,322.9259,218.95,320.6369" style="stroke:#008000;stroke-width:1;"/><path d="M23,223.2969 L23,263.2969 L444,263.2969 L444,233.2969 L434,223.2969 L23,223.2969" fill="#FEFFDD" style="stroke:#181818;stroke-width:0.5;"/><path d="M434,223.2969 L434,233.2969 L444,233.2969 L434,223.2969" fill="#FEFFDD" style="stroke:#181818;stroke-width:0.5;"/><text fill="#000000" font-family="sans-serif" font-size="13" font-weight="bold" lengthAdjust="spacing" textLength="92.5171" x="29" y="240.3638">Investigador</text><text fill="#000000" font-family="sans-serif" font-size="13" lengthAdjust="spacing" textLength="303.5894" x="125.6494" y="240.3638">solicita guardar la publicacion con los cambios</text><text fill="#000000" font-family="sans-serif" font-size="13" font-weight="bold" lengthAdjust="spacing" textLength="58.9063" x="29" y="255.4966">Sistema</text><text fill="#000000" font-family="sans-serif" font-size="13" lengthAdjust="spacing" textLength="186.3545" x="92.0386" y="255.4966">valida los datos introducidos</text></g><!--link ValidandoDatos to EditandoPublicacion--><g class="link" data-entity-1="ValidandoDatos" data-entity-2="EditandoPublicacion" data-source-line="19" data-uid="lnk5" id="link_ValidandoDatos_EditandoPublicacion"><path d="M269.14,320.1469 C323.88,308.9269 449,283.2969 449,283.2969 C449,283.2969 449,203.2969 449,203.2969 C449,203.2969 329.7578,178.8716 275.0178,167.6516" fill="none" id="ValidandoDatos-to-EditandoPublicacion" style="stroke:#FF0000;stroke-width:1;"/><polygon fill="#FF0000" points="269.14,166.4469,277.1535,172.1726,274.0382,167.4508,278.7599,164.3355,269.14,166.4469" style="stroke:#FF0000;stroke-width:1;"/><path d="M454,208.2969 L454,278.2969 L720,278.2969 L720,218.2969 L710,208.2969 L454,208.2969" fill="#FEFFDD" style="stroke:#181818;stroke-width:0.5;"/><path d="M710,208.2969 L710,218.2969 L720,218.2969 L710,208.2969" fill="#FEFFDD" style="stroke:#181818;stroke-width:0.5;"/><text fill="#000000" font-family="sans-serif" font-size="13" lengthAdjust="spacing" textLength="206.667" x="460" y="225.3638">Datos de publicacion no v&#225;lidos</text><text fill="#000000" font-family="sans-serif" font-size="13" font-weight="bold" lengthAdjust="spacing" textLength="58.9063" x="460" y="240.4966">Sistema</text><text fill="#000000" font-family="sans-serif" font-size="13" lengthAdjust="spacing" textLength="176.7378" x="523.0386" y="240.4966">muestra mensajes de error</text><text fill="#000000" font-family="sans-serif" font-size="13" lengthAdjust="spacing" textLength="201.7666" x="460" y="255.6294">&#8226; Titulo de publicacion erroneo</text><text fill="#000000" font-family="sans-serif" font-size="13" lengthAdjust="spacing" textLength="245.1528" x="460" y="270.7622">&#8226; Formato incorrecto en alg&#250;n campo</text></g><!--link ValidandoDatos to *end*editarPublicacion--><g class="link" data-entity-1="ValidandoDatos" data-entity-2=".end.editarPublicacion" data-source-line="27" data-uid="lnk7" id="link_ValidandoDatos_.end.editarPublicacion"><path d="M244,351.5769 C244,377.8769 244,412.5669 244,431.2769" fill="none" id="ValidandoDatos-to-*end*editarPublicacion" style="stroke:#008000;stroke-width:1;"/><polygon fill="#008000" points="244,437.2769,248,428.2769,244,432.2769,240,428.2769,244,437.2769" style="stroke:#008000;stroke-width:1;"/><path d="M249,374.2969 L249,414.2969 L547,414.2969 L547,384.2969 L537,374.2969 L249,374.2969" fill="#FEFFDD" style="stroke:#181818;stroke-width:0.5;"/><path d="M537,374.2969 L537,384.2969 L547,384.2969 L537,374.2969" fill="#FEFFDD" style="stroke:#181818;stroke-width:0.5;"/><text fill="#000000" font-family="sans-serif" font-size="13" lengthAdjust="spacing" textLength="116.854" x="255" y="391.3638">Publicacion valida</text><text fill="#000000" font-family="sans-serif" font-size="13" font-weight="bold" lengthAdjust="spacing" textLength="58.9063" x="255" y="406.4966">Sistema</text><text fill="#000000" font-family="sans-serif" font-size="13" lengthAdjust="spacing" textLength="214.2271" x="318.0386" y="406.4966">gurarda la publicaion modificada</text></g><g id="MI_PUBLICACION_ABIERTA"><rect fill="#F1F1F1" height="50" rx="12.5" ry="12.5" style="stroke:#181818;stroke-width:0.5;" width="205.1924" x="67.5" y="564"/><line style="stroke:#181818;stroke-width:0.5;" x1="67.5" x2="272.6924" y1="590.2969" y2="590.2969"/><text fill="#000000" font-family="sans-serif" font-size="14" lengthAdjust="spacing" textLength="185.1924" x="77.5" y="581.9951">MI_PUBLICACION_ABIERTA</text></g><g id="MIS_PUBLICACIONES_ABIERTAS"><rect fill="#F1F1F1" height="50" rx="12.5" ry="12.5" style="stroke:#181818;stroke-width:0.5;" width="240.6982" x="380.5" y="564"/><line style="stroke:#181818;stroke-width:0.5;" x1="380.5" x2="621.1982" y1="590.2969" y2="590.2969"/><text fill="#000000" font-family="sans-serif" font-size="14" lengthAdjust="spacing" textLength="220.6982" x="390.5" y="581.9951">MIS_PUBLICACIONES_ABIERTAS</text></g><!--link editarPublicacion to MI_PUBLICACION_ABIERTA--><g class="link" data-entity-1="editarPublicacion" data-entity-2="MI_PUBLICACION_ABIERTA" data-source-line="34" data-uid="lnk9" id="link_editarPublicacion_MI_PUBLICACION_ABIERTA"><path d="M218.39,469.17 C206.52,487.43 199,499 199,499 C199,499 188.3697,531.6255 179.7797,557.9755" fill="none" id="editarPublicacion-to-MI_PUBLICACION_ABIERTA" style="stroke:#008000;stroke-width:1;"/><polygon fill="#008000" points="177.92,563.68,184.5125,556.363,179.4697,558.9262,176.9065,553.8834,177.92,563.68" style="stroke:#008000;stroke-width:1;"/><path d="M204,504 L204,529 L352,529 L352,514 L342,504 L204,504" fill="#FEFFDD" style="stroke:#181818;stroke-width:0.5;"/><path d="M342,504 L342,514 L352,514 L342,504" fill="#FEFFDD" style="stroke:#181818;stroke-width:0.5;"/><text fill="#000000" font-family="sans-serif" font-size="13" lengthAdjust="spacing" textLength="127.3086" x="210" y="521.0669">publicacion editada</text></g><!--link editarPublicacion to MIS_PUBLICACIONES_ABIERTAS--><g class="link" data-entity-1="editarPublicacion" data-entity-2="MIS_PUBLICACIONES_ABIERTAS" data-source-line="39" data-uid="lnk11" id="link_editarPublicacion_MIS_PUBLICACIONES_ABIERTAS"><path d="M365.34,469.17 C365.13,487.43 365,499 365,499 C365,499 365,534 365,534 C365,534 398.3731,547.2568 434.5831,561.6268" fill="none" id="editarPublicacion-to-MIS_PUBLICACIONES_ABIERTAS" style="stroke:#008000;stroke-width:1;"/><polygon fill="#008000" points="440.16,563.84,433.2701,556.8023,435.5126,561.9957,430.3192,564.2381,440.16,563.84" style="stroke:#008000;stroke-width:1;"/><path d="M370,504 L370,529 L527,529 L527,514 L517,504 L370,504" fill="#FEFFDD" style="stroke:#181818;stroke-width:0.5;"/><path d="M517,504 L517,514 L527,514 L517,504" fill="#FEFFDD" style="stroke:#181818;stroke-width:0.5;"/><text fill="#000000" font-family="sans-serif" font-size="13" lengthAdjust="spacing" textLength="136.811" x="376" y="521.0669">eliminarPublicacion()</text></g><!--link editarPublicacion to MIS_PUBLICACIONES_ABIERTAS--><g class="link" data-entity-1="editarPublicacion" data-entity-2="MIS_PUBLICACIONES_ABIERTAS" data-source-line="44" data-uid="lnk12" id="link_editarPublicacion_MIS_PUBLICACIONES_ABIERTAS"><path d="M516.73,469.17 C528.52,487.43 536,499 536,499 C536,499 536,534 536,534 C536,534 529.2449,544.4361 519.9249,558.8061" fill="none" id="editarPublicacion-to-MIS_PUBLICACIONES_ABIERTAS-1" style="stroke:#008000;stroke-width:1;"/><polygon fill="#008000" points="516.66,563.84,524.9133,558.4657,519.3807,559.645,518.2014,554.1125,516.66,563.84" style="stroke:#008000;stroke-width:1;"/><path d="M541,504 L541,529 L712,529 L712,514 L702,504 L541,504" fill="#FEFFDD" style="stroke:#181818;stroke-width:0.5;"/><path d="M702,504 L702,514 L712,514 L702,504" fill="#FEFFDD" style="stroke:#181818;stroke-width:0.5;"/><text fill="#000000" font-family="sans-serif" font-size="13" lengthAdjust="spacing" textLength="150.6553" x="547" y="521.0669">abrirMisPublicaciones()</text></g><!--SRC=[hLDTQjmm47xtAORDIri8lK1OsAHRC3G_TDE-X11aQsecaJLc92-4KkXLscFqDJVfIJgoDrlRkwK9n7wHn3VVpumKxiWtHamDZZp6-mQXONUVDbaMeea8Q2aQkMWBHwKfYJsO0BETqrUlP_0roq2_lcwcloAN2UWj3w2xeC_6aKseToPow5cktbp3uTL19OZ- -d3-JoBFogEkrFDTTt1Kp7E_nX2fCfRbw6qnXy1Qe_MRD11QQ2Oyw6t7rQllKHkvcJX-lf6gDMBLYJD39r0c0WvGchgW3R7oh2X4h4r7iUwaEvHDua0-2jks9Bif64SPMqqf1EspEjeNMXmvzGphXnzkApfnMRSQN0pKw8EvnQuSHLWwyE_lF-6IOkjuIfim7dcBUizIgxo6B5a4IrsYNa5NFVpogKiDFodoTd1whVQ774wwR_6-M5KhQMw3iILypPQ-w7fJipNpBSjsdy_GpMb-S_7f-4D-iZZ9pyzk5iVvykFb8XkP6tKdiQdAtxZ_uryD1PQhHudLM0CTrUGd3_h5LKmX9ASK1ZmO1Zf_0000]--></g></svg>