<svg xmlns="http://www.w3.org/2000/svg" xmlns:xlink="http://www.w3.org/1999/xlink" contentStyleType="text/css" data-diagram-type="STATE" height="681px" preserveAspectRatio="none" style="width:669px;height:681px;background:#FFFFFF;" version="1.1" viewBox="0 0 669 681" width="669px" zoomAndPan="magnify"><defs/><g><path d="M19.5,7 L643.5,7 A12.5,12.5 0 0 1 656,19.5 L656,33.2969 L7,33.2969 L7,19.5 A12.5,12.5 0 0 1 19.5,7" fill="#F1F1F1"/><rect fill="none" height="523.2969" rx="12.5" ry="12.5" style="stroke:#181818;stroke-width:0.5;" width="649" x="7" y="7"/><line style="stroke:#181818;stroke-width:0.5;" x1="7" x2="656" y1="33.2969" y2="33.2969"/><text fill="#000000" font-family="sans-serif" font-size="14" lengthAdjust="spacing" textLength="87.6572" x="287.6714" y="24.9951">editarPerfil()</text><g><rect fill="#F1F1F1" height="50" rx="12.5" ry="12.5" style="stroke:#181818;stroke-width:0.5;" width="50" x="171" y="135.2969"/><line style="stroke:#181818;stroke-width:0.5;" x1="171" x2="221" y1="161.5938" y2="161.5938"/><text fill="#000000" font-family="sans-serif" font-size="14" lengthAdjust="spacing" textLength="4.4502" x="193.7749" y="153.292">&#160;</text></g><g><rect fill="#F1F1F1" height="50" rx="12.5" ry="12.5" style="stroke:#181818;stroke-width:0.5;" width="50" x="171" y="377.2969"/><line style="stroke:#181818;stroke-width:0.5;" x1="171" x2="221" y1="403.5938" y2="403.5938"/><text fill="#000000" font-family="sans-serif" font-size="14" lengthAdjust="spacing" textLength="4.4502" x="193.7749" y="395.292">&#160;</text></g><ellipse cx="196" cy="54.2969" fill="#222222" rx="10" ry="10" style="stroke:#222222;stroke-width:1;"/><ellipse cx="196" cy="509.2969" fill="none" rx="11" ry="11" style="stroke:#222222;stroke-width:1;"/><ellipse cx="196" cy="509.2969" fill="#222222" rx="6" ry="6" style="stroke:#222222;stroke-width:1;"/><!--link *start*editarPerfil to EditandoDatos--><g class="link" data-entity-1="ent0002" data-entity-2="ent0003" data-link-type="dependency" data-source-line="8" id="lnk3"><path d="M196,64.5269 C196,80.2369 196,106.6569 196,129.1669" fill="none" id="*start*editarPerfil-to-EditandoDatos" style="stroke:#008000;stroke-width:1;"/><polygon fill="#008000" points="196,135.1669,200,126.1669,196,130.1669,192,126.1669,196,135.1669" style="stroke:#008000;stroke-width:1;"/><path d="M201,87.2969 L201,112.2969 L442,112.2969 L442,97.2969 L432,87.2969 L201,87.2969" fill="#FEFFDD" style="stroke:#181818;stroke-width:0.5;"/><path d="M432,87.2969 L432,97.2969 L442,97.2969 L432,87.2969" fill="#FEFFDD" style="stroke:#181818;stroke-width:0.5;"/><text fill="#000000" font-family="sans-serif" font-size="13" font-weight="bold" lengthAdjust="spacing" textLength="90.251" x="207" y="104.3638">Coordinador</text><text fill="#000000" font-family="sans-serif" font-size="13" lengthAdjust="spacing" textLength="125.7026" x="301.3833" y="104.3638">solicita editar perfil</text></g><!--link EditandoDatos to GuardandoDatos--><g class="link" data-entity-1="ent0003" data-entity-2="ent0004" data-link-type="dependency" data-source-line="13" id="lnk4"><path d="M170.87,167.2269 C121.81,178.8069 18,203.2969 18,203.2969 C18,203.2969 18,359.2969 18,359.2969 C18,359.2969 115.9705,382.4085 165.0305,393.9885" fill="none" id="EditandoDatos-to-GuardandoDatos" style="stroke:#008000;stroke-width:1;"/><polygon fill="#008000" points="170.87,395.3669,163.0296,389.4063,166.0037,394.2183,161.1918,397.1924,170.87,395.3669" style="stroke:#008000;stroke-width:1;"/><path d="M23,208.2969 L23,354.2969 L349,354.2969 L349,218.2969 L339,208.2969 L23,208.2969" fill="#FEFFDD" style="stroke:#181818;stroke-width:0.5;"/><path d="M339,208.2969 L339,218.2969 L349,218.2969 L339,208.2969" fill="#FEFFDD" style="stroke:#181818;stroke-width:0.5;"/><text fill="#000000" font-family="sans-serif" font-size="13" font-weight="bold" lengthAdjust="spacing" textLength="58.9063" x="29" y="225.3638">Sistema</text><text fill="#000000" font-family="sans-serif" font-size="13" lengthAdjust="spacing" textLength="155.7524" x="92.0386" y="225.3638">presenta datos de perfil</text><text fill="#000000" font-family="sans-serif" font-size="13" lengthAdjust="spacing" textLength="305.6143" x="29" y="240.4966">&#8226; ID, nombre, apellido, campo, carrera, master</text><text fill="#000000" font-family="sans-serif" font-size="13" lengthAdjust="spacing" textLength="263.834" x="29" y="255.6294">&#8226; Correo electr&#243;nico, tel&#233;fono, ubicaci&#243;n</text><text fill="#000000" font-family="sans-serif" font-size="13" lengthAdjust="spacing" textLength="4.1323" x="29" y="270.7622">&#160;</text><text fill="#000000" font-family="sans-serif" font-size="13" lengthAdjust="spacing" textLength="4.1323" x="29" y="285.895">&#160;</text><text fill="#000000" font-family="sans-serif" font-size="13" font-weight="bold" lengthAdjust="spacing" textLength="58.9063" x="29" y="301.0278">Sistema</text><text fill="#000000" font-family="sans-serif" font-size="13" lengthAdjust="spacing" textLength="110.5952" x="92.0386" y="301.0278">permite solicitar:</text><text fill="#000000" font-family="sans-serif" font-size="13" lengthAdjust="spacing" textLength="135.3955" x="29" y="316.1606">&#8226; modificar atributos</text><text fill="#000000" font-family="sans-serif" font-size="13" lengthAdjust="spacing" textLength="121.6655" x="29" y="331.2935">&#8226; guardar cambios</text><text fill="#000000" font-family="sans-serif" font-size="13" lengthAdjust="spacing" textLength="118.168" x="29" y="346.4263">&#8226; cancelar edici&#243;n</text></g><!--link GuardandoDatos to EditandoDatos--><g class="link" data-entity-1="ent0004" data-entity-2="ent0003" data-link-type="dependency" data-source-line="26" id="lnk5"><path d="M221.39,394.5469 C266.05,382.6769 354,359.2969 354,359.2969 C354,359.2969 354,203.2969 354,203.2969 C354,203.2969 271.8487,181.4581 227.1887,169.5881" fill="none" id="GuardandoDatos-to-EditandoDatos" style="stroke:#008000;stroke-width:1;"/><polygon fill="#008000" points="221.39,168.0469,229.0605,174.2245,226.2222,169.3312,231.1155,166.4929,221.39,168.0469" style="stroke:#008000;stroke-width:1;"/><path d="M359,268.7969 L359,293.7969 L647,293.7969 L647,278.7969 L637,268.7969 L359,268.7969" fill="#FEFFDD" style="stroke:#181818;stroke-width:0.5;"/><path d="M637,268.7969 L637,278.7969 L647,278.7969 L637,268.7969" fill="#FEFFDD" style="stroke:#181818;stroke-width:0.5;"/><text fill="#000000" font-family="sans-serif" font-size="13" font-weight="bold" lengthAdjust="spacing" textLength="90.251" x="365" y="285.8638">Coordinador</text><text fill="#000000" font-family="sans-serif" font-size="13" lengthAdjust="spacing" textLength="173.5005" x="459.3833" y="285.8638">solicita modificar atributos</text></g><!--link GuardandoDatos to *end*editarPerfil--><g class="link" data-entity-1="ent0004" data-entity-2="ent0006" data-link-type="dependency" data-source-line="31" id="lnk7"><path d="M170.74,410.6169 C129.2,422.6469 51,445.2969 51,445.2969 C51,445.2969 51,480.2969 51,480.2969 C51,480.2969 145.4891,498.5378 179.2091,505.0578" fill="none" id="GuardandoDatos-to-*end*editarPerfil" style="stroke:#008000;stroke-width:1;"/><polygon fill="#008000" points="185.1,506.1969,177.023,500.561,180.1909,505.2477,175.5043,508.4156,185.1,506.1969" style="stroke:#008000;stroke-width:1;"/><path d="M56,450.2969 L56,475.2969 L315,475.2969 L315,460.2969 L305,450.2969 L56,450.2969" fill="#FEFFDD" style="stroke:#181818;stroke-width:0.5;"/><path d="M305,450.2969 L305,460.2969 L315,460.2969 L305,450.2969" fill="#FEFFDD" style="stroke:#181818;stroke-width:0.5;"/><text fill="#000000" font-family="sans-serif" font-size="13" font-weight="bold" lengthAdjust="spacing" textLength="90.251" x="62" y="467.3638">Coordinador</text><text fill="#000000" font-family="sans-serif" font-size="13" lengthAdjust="spacing" textLength="144.5361" x="156.3833" y="467.3638">solicita guardar y salir</text></g><!--link GuardandoDatos to *end*editarPerfil--><g class="link" data-entity-1="ent0004" data-entity-2="ent0006" data-link-type="dependency" data-source-line="36" id="lnk8"><path d="M221.39,411.8969 C257.67,424.1869 320,445.2969 320,445.2969 C320,445.2969 320,480.2969 320,480.2969 C320,480.2969 242.4127,497.8157 212.4227,504.5857" fill="none" id="GuardandoDatos-to-*end*editarPerfil-1" style="stroke:#FF0000;stroke-width:1;"/><polygon fill="#FF0000" points="206.57,505.9069,216.2299,507.8269,211.4473,504.8059,214.4683,500.0232,206.57,505.9069" style="stroke:#FF0000;stroke-width:1;"/><path d="M325,450.2969 L325,475.2969 L596,475.2969 L596,460.2969 L586,450.2969 L325,450.2969" fill="#FEFFDD" style="stroke:#181818;stroke-width:0.5;"/><path d="M586,450.2969 L586,460.2969 L596,460.2969 L586,450.2969" fill="#FEFFDD" style="stroke:#181818;stroke-width:0.5;"/><text fill="#000000" font-family="sans-serif" font-size="13" font-weight="bold" lengthAdjust="spacing" textLength="90.251" x="331" y="467.3638">Coordinador</text><text fill="#000000" font-family="sans-serif" font-size="13" lengthAdjust="spacing" textLength="156.2729" x="425.3833" y="467.3638">solicita cancelar edici&#243;n</text></g><g><rect fill="#F1F1F1" height="50" rx="12.5" ry="12.5" style="stroke:#181818;stroke-width:0.5;" width="215.043" x="223.98" y="625.3"/><line style="stroke:#181818;stroke-width:0.5;" x1="223.98" x2="439.023" y1="651.5969" y2="651.5969"/><text fill="#000000" font-family="sans-serif" font-size="14" lengthAdjust="spacing" textLength="195.043" x="233.98" y="643.2951">OPCIONES_PERFIL_ABIERTO</text></g><!--link editarPerfil to OPCIONES_PERFIL_ABIERTO--><g class="link" data-entity-1="ent0002" data-entity-2="ent0009" data-link-type="dependency" data-source-line="43" id="lnk10"><path d="M331.5,530.74 C331.5,569.41 331.5,597.47 331.5,619.04" fill="none" id="editarPerfil-to-OPCIONES_PERFIL_ABIERTO" style="stroke:#008000;stroke-width:1;"/><polygon fill="#008000" points="331.5,625.04,335.5,616.04,331.5,620.04,327.5,616.04,331.5,625.04" style="stroke:#008000;stroke-width:1;"/><path d="M336.5,565.3 L336.5,590.3 L490.5,590.3 L490.5,575.3 L480.5,565.3 L336.5,565.3" fill="#FEFFDD" style="stroke:#181818;stroke-width:0.5;"/><path d="M480.5,565.3 L480.5,575.3 L490.5,575.3 L480.5,565.3" fill="#FEFFDD" style="stroke:#181818;stroke-width:0.5;"/><text fill="#000000" font-family="sans-serif" font-size="13" lengthAdjust="spacing" textLength="133.853" x="342.5" y="582.3669">abrirOpcionesPerfil()</text></g><!--SRC=[dLFDQXin4BxhAGRtaWQ7teinD8vR3AKsTcuXX5bf78PefMKa7qmez5bwwxcFu3V9atHsdNLs4qnmjR0_CwFl- -QRLNhWKA5W2Pu3vMr5K4M_hJ-CIHap0JdEA0kIDNl018DkuEpZ01wD0Ltxwe5UMZIjQuABLvXZUfl-ja5nXppi0MxER-7YviEz48NRYt4V0vgI41KZXbhiGnCO5UD9ZE8ue8io-bIC8KNFLdS-2uUg4TfKKt1x25tcSElpT1NqPHvLiEAKgSI6lH9A59JTDMYEklnFltx3x6ge86KXD0Iio7jsSGWMowfvY93W44fKI3bicaIDHo1FDilkRs2hnPdyxiyw1dtT56pHicPClxVNwaXArWPQZ-JpWQACZjUA8e1PkDYq3TUv-yO7gLKMt8bR39Qy9jJg5_RMvHSLhyPzTCYdp_YOwfCqw8ztEdFhoHOIUfO-wn568VVVVEzuRNuQqpkftGRdYybi_cEwkbjCbrzdt- - -NCwco-kvwGd0GbZcbUKOABMdsxG4_m00]--></g></svg>