<?xml version="1.0" encoding="us-ascii" standalone="no"?><svg xmlns="http://www.w3.org/2000/svg" xmlns:xlink="http://www.w3.org/1999/xlink" contentStyleType="text/css" height="555px" preserveAspectRatio="none" style="width:739px;height:555px;background:#FFFFFF;" version="1.1" viewBox="0 0 739 555" width="739px" zoomAndPan="magnify"><defs/><g><g id="in1"><rect fill="#F1F1F1" height="50" rx="12.5" ry="12.5" style="stroke:#181818;stroke-width:0.5;" width="234" x="213" y="7"/><line style="stroke:#181818;stroke-width:0.5;" x1="213" x2="447" y1="34.6094" y2="34.6094"/><text fill="#000000" font-family="sans-serif" font-size="14" lengthAdjust="spacing" textLength="214" x="223" y="26.5332">MIS_PUBLICACIONES_ABIERTAS</text></g><path d="M136,118 L524,118 A12.5,12.5 0 0 1 536.5,130.5 L536.5,145.6094 L123.5,145.6094 L123.5,130.5 A12.5,12.5 0 0 1 136,118 " fill="#F1F1F1" style="stroke:#F1F1F1;stroke-width:1.0;"/><rect fill="none" height="284.6094" rx="12.5" ry="12.5" style="stroke:#181818;stroke-width:0.5;" width="413" x="123.5" y="118"/><line style="stroke:#181818;stroke-width:0.5;" x1="123.5" x2="536.5" y1="145.6094" y2="145.6094"/><text fill="#000000" font-family="sans-serif" font-size="14" lengthAdjust="spacing" textLength="125" x="267.5" y="137.5332">abrirMiPublicacion()</text><g id="abrirMiPublicacion.SeleccionandoPublicacion"><rect fill="#F1F1F1" height="50" rx="12.5" ry="12.5" style="stroke:#181818;stroke-width:0.5;" width="50" x="135.5" y="248.6094"/><line style="stroke:#181818;stroke-width:0.5;" x1="135.5" x2="185.5" y1="276.2188" y2="276.2188"/><text fill="#000000" font-family="sans-serif" font-size="14" lengthAdjust="spacing" textLength="4" x="158.5" y="268.1426">&#160;</text></g><ellipse cx="160.5" cy="166.6094" fill="#222222" rx="10" ry="10" style="stroke:#222222;stroke-width:1.0;"/><ellipse cx="160.5" cy="381.6094" fill="none" rx="11" ry="11" style="stroke:#222222;stroke-width:1.0;"/><ellipse cx="160.5" cy="381.6094" fill="#222222" rx="6" ry="6" style="stroke:#222222;stroke-width:1.0;"/><!--link *start*abrirMiPublicacion to SeleccionandoPublicacion--><g id="link_*start*abrirMiPublicacion_SeleccionandoPublicacion"><path d="M160.5,176.9294 C160.5,192.7894 160.5,219.5194 160.5,242.2494 " fill="none" id="*start*abrirMiPublicacion-to-SeleccionandoPublicacion" style="stroke:#008000;stroke-width:1.0;"/><polygon fill="#008000" points="160.5,248.2494,164.5,239.2494,160.5,243.2494,156.5,239.2494,160.5,248.2494" style="stroke:#008000;stroke-width:1.0;"/><path d="M165.5,199.6094 L165.5,225.6094 L527.5,225.6094 L527.5,209.6094 L517.5,199.6094 L165.5,199.6094 " fill="#FEFFDD" style="stroke:#181818;stroke-width:0.5;"/><path d="M517.5,199.6094 L517.5,209.6094 L527.5,209.6094 L517.5,199.6094 " fill="#FEFFDD" style="stroke:#181818;stroke-width:0.5;"/><text fill="#000000" font-family="sans-serif" font-size="13" font-weight="bold" lengthAdjust="spacing" textLength="79" x="171.5" y="218.1045">Coordinador</text><text fill="#000000" font-family="sans-serif" font-size="13" lengthAdjust="spacing" textLength="258" x="254.5" y="218.1045">selecciona una publicaci&#243;n propia del listado</text></g><!--link SeleccionandoPublicacion to *end*abrirMiPublicacion--><g id="link_SeleccionandoPublicacion_*end*abrirMiPublicacion"><path d="M160.5,298.6594 C160.5,321.2594 160.5,347.9894 160.5,364.4094 " fill="none" id="SeleccionandoPublicacion-to-*end*abrirMiPublicacion" style="stroke:#008000;stroke-width:1.0;"/><polygon fill="#008000" points="160.5,370.4094,164.5,361.4094,160.5,365.4094,156.5,361.4094,160.5,370.4094" style="stroke:#008000;stroke-width:1.0;"/><path d="M165.5,321.6094 L165.5,347.6094 L429.5,347.6094 L429.5,331.6094 L419.5,321.6094 L165.5,321.6094 " fill="#FEFFDD" style="stroke:#181818;stroke-width:0.5;"/><path d="M419.5,321.6094 L419.5,331.6094 L429.5,331.6094 L419.5,321.6094 " fill="#FEFFDD" style="stroke:#181818;stroke-width:0.5;"/><text fill="#000000" font-family="sans-serif" font-size="13" font-weight="bold" lengthAdjust="spacing" textLength="51" x="171.5" y="340.1045">Sistema</text><text fill="#000000" font-family="sans-serif" font-size="13" lengthAdjust="spacing" textLength="188" x="226.5" y="340.1045">abre la publicaci&#243;n seleccionada</text></g><g id="MI_PUBLICACION_ABIERTA"><rect fill="#F1F1F1" height="50" rx="12.5" ry="12.5" style="stroke:#181818;stroke-width:0.5;" width="198" x="7" y="499"/><line style="stroke:#181818;stroke-width:0.5;" x1="7" x2="205" y1="526.6094" y2="526.6094"/><text fill="#000000" font-family="sans-serif" font-size="14" lengthAdjust="spacing" textLength="178" x="17" y="518.5332">MI_PUBLICACION_ABIERTA</text></g><g id="MIS_PUBLICACIONES_ABIERTAS"><rect fill="#F1F1F1" height="50" rx="12.5" ry="12.5" style="stroke:#181818;stroke-width:0.5;" width="234" x="397" y="499"/><line style="stroke:#181818;stroke-width:0.5;" x1="397" x2="631" y1="526.6094" y2="526.6094"/><text fill="#000000" font-family="sans-serif" font-size="14" lengthAdjust="spacing" textLength="214" x="407" y="518.5332">MIS_PUBLICACIONES_ABIERTAS</text></g><!--link in1 to abrirMiPublicacion--><g id="link_in1_abrirMiPublicacion"><path d="M330,57.24 C330,72.82 330,88.46 330,111.84 " fill="none" id="in1-to-abrirMiPublicacion" style="stroke:#008000;stroke-width:1.0;"/><polygon fill="#008000" points="330,117.84,334,108.84,330,112.84,326,108.84,330,117.84" style="stroke:#008000;stroke-width:1.0;"/></g><!--link abrirMiPublicacion to MI_PUBLICACION_ABIERTA--><g id="link_abrirMiPublicacion_MI_PUBLICACION_ABIERTA"><path d="M123.43,384.08 C76.92,411.69 41,433 41,433 C41,433 41,469 41,469 C41,469 55.0046,480.6362 72.3046,495.0062 " fill="none" id="abrirMiPublicacion-to-MI_PUBLICACION_ABIERTA" style="stroke:#008000;stroke-width:1.0;"/><polygon fill="#008000" points="76.92,498.84,72.5527,490.0124,73.0738,495.6452,67.441,496.1663,76.92,498.84" style="stroke:#008000;stroke-width:1.0;"/><path d="M46,438 L46,464 L193,464 L193,448 L183,438 L46,438 " fill="#FEFFDD" style="stroke:#181818;stroke-width:0.5;"/><path d="M183,438 L183,448 L193,448 L183,438 " fill="#FEFFDD" style="stroke:#181818;stroke-width:0.5;"/><text fill="#000000" font-family="sans-serif" font-size="13" lengthAdjust="spacing" textLength="126" x="52" y="456.4951">Mi publicaci&#243;n abierta</text></g><!--link abrirMiPublicacion to MI_PUBLICACION_ABIERTA--><g id="link_abrirMiPublicacion_MI_PUBLICACION_ABIERTA"><path d="M242.68,403.06 C220.09,439.67 202,469 202,469 C202,469 179.7401,481.5296 154.1801,495.8996 " fill="none" id="abrirMiPublicacion-to-MI_PUBLICACION_ABIERTA-1" style="stroke:#008000;stroke-width:1.0;"/><polygon fill="#008000" points="148.95,498.84,158.7554,497.9161,153.3084,496.3897,154.8349,490.9427,148.95,498.84" style="stroke:#008000;stroke-width:1.0;"/><path d="M229,438 L229,464 L357,464 L357,448 L347,438 L229,438 " fill="#FEFFDD" style="stroke:#181818;stroke-width:0.5;"/><path d="M347,438 L347,448 L357,448 L347,438 " fill="#FEFFDD" style="stroke:#181818;stroke-width:0.5;"/><text fill="#000000" font-family="sans-serif" font-size="13" lengthAdjust="spacing" textLength="107" x="235" y="456.4951">editarPublicacion()</text></g><!--link abrirMiPublicacion to MIS_PUBLICACIONES_ABIERTAS--><g id="link_abrirMiPublicacion_MIS_PUBLICACIONES_ABIERTAS"><path d="M388.67,403.06 C403.84,439.67 416,469 416,469 C416,469 438.8144,481.5753 464.9044,495.9453 " fill="none" id="abrirMiPublicacion-to-MIS_PUBLICACIONES_ABIERTAS" style="stroke:#008000;stroke-width:1.0;"/><polygon fill="#008000" points="470.16,498.84,464.2065,490.9943,465.7804,496.4278,460.3469,498.0017,470.16,498.84" style="stroke:#008000;stroke-width:1.0;"/><path d="M421,438 L421,464 L562,464 L562,448 L552,438 L421,438 " fill="#FEFFDD" style="stroke:#181818;stroke-width:0.5;"/><path d="M552,438 L552,448 L562,448 L552,438 " fill="#FEFFDD" style="stroke:#181818;stroke-width:0.5;"/><text fill="#000000" font-family="sans-serif" font-size="13" lengthAdjust="spacing" textLength="120" x="427" y="456.4951">eliminarPublicacion()</text></g><!--link abrirMiPublicacion to MIS_PUBLICACIONES_ABIERTAS--><g id="link_abrirMiPublicacion_MIS_PUBLICACIONES_ABIERTAS"><path d="M529.02,403.13 C554,420.9 571,433 571,433 C571,433 571,469 571,469 C571,469 559.0373,480.3452 543.8573,494.7152 " fill="none" id="abrirMiPublicacion-to-MIS_PUBLICACIONES_ABIERTAS-1" style="stroke:#008000;stroke-width:1.0;"/><polygon fill="#008000" points="539.5,498.84,548.7858,495.5577,543.1311,495.4027,543.2861,489.7479,539.5,498.84" style="stroke:#008000;stroke-width:1.0;"/><path d="M576,438 L576,464 L732,464 L732,448 L722,438 L576,438 " fill="#FEFFDD" style="stroke:#181818;stroke-width:0.5;"/><path d="M722,438 L722,448 L732,448 L722,438 " fill="#FEFFDD" style="stroke:#181818;stroke-width:0.5;"/><text fill="#000000" font-family="sans-serif" font-size="13" lengthAdjust="spacing" textLength="135" x="582" y="456.4951">abrirMisPublicaciones()</text></g><!--SRC=[jPB1IiD048Rl-nH3lAXGn7i9jAM7WD5Yz5HAcNG76RhP3PlqKCIdyX5yCIUfiTdM70HDo26RFz__RIRLbcs97WimRAdUbmIbC_lcHgcgnfg0xIrW1L6QPEl5y_GkcKrcoSFzF5jFfidyyMcIHQh9Z9ONBvx8haOnOExPfxpOvOOtk65dEzhvanP-ldnv5S6hKY37uSr8JebcP6ZJ1D1g5nGqqUNrAX0PJ3TXwmGh0hBRRRimpkEPSrwpHUty-2QFeVe6m4wkiaDyl5ielIiPGPCHX4XgrrB8wXPzC1eo23H5Uz0e4pGLsDh8Po8m9nf7HOsXm9jIFtplVd6Qz6VQJLG57Yc7VPWp-HhLSPz_K4AQQ_J1_7zJCFHhdfGOBcIs_rtpXQbw7AhwHPy0]--></g></svg>