<?xml version="1.0" encoding="us-ascii" standalone="no"?><svg xmlns="http://www.w3.org/2000/svg" xmlns:xlink="http://www.w3.org/1999/xlink" contentStyleType="text/css" height="590px" preserveAspectRatio="none" style="width:433px;height:590px;background:#FFFFFF;" version="1.1" viewBox="0 0 433 590" width="433px" zoomAndPan="magnify"><defs/><g><path d="M19.5,153 L407.5,153 A12.5,12.5 0 0 1 420,165.5 L420,180.6094 L7,180.6094 L7,165.5 A12.5,12.5 0 0 1 19.5,153 " fill="#F1F1F1" style="stroke:#F1F1F1;stroke-width:1.0;"/><rect fill="none" height="284.6094" rx="12.5" ry="12.5" style="stroke:#181818;stroke-width:0.5;" width="413" x="7" y="153"/><line style="stroke:#181818;stroke-width:0.5;" x1="7" x2="420" y1="180.6094" y2="180.6094"/><text fill="#000000" font-family="sans-serif" font-size="14" lengthAdjust="spacing" textLength="125" x="151" y="172.5332">abrirMiPublicacion()</text><g id="abrirMiPublicacion.SeleccionandoPublicacion"><rect fill="#F1F1F1" height="50" rx="12.5" ry="12.5" style="stroke:#181818;stroke-width:0.5;" width="50" x="19" y="283.6094"/><line style="stroke:#181818;stroke-width:0.5;" x1="19" x2="69" y1="311.2188" y2="311.2188"/><text fill="#000000" font-family="sans-serif" font-size="14" lengthAdjust="spacing" textLength="4" x="42" y="303.1426">&#160;</text></g><ellipse cx="44" cy="201.6094" fill="#222222" rx="10" ry="10" style="stroke:#222222;stroke-width:1.0;"/><ellipse cx="44" cy="416.6094" fill="none" rx="11" ry="11" style="stroke:#222222;stroke-width:1.0;"/><ellipse cx="44" cy="416.6094" fill="#222222" rx="6" ry="6" style="stroke:#222222;stroke-width:1.0;"/><!--link *start*abrirMiPublicacion to SeleccionandoPublicacion--><g id="link_*start*abrirMiPublicacion_SeleccionandoPublicacion"><path d="M44,211.9294 C44,227.7894 44,254.5194 44,277.2494 " fill="none" id="*start*abrirMiPublicacion-to-SeleccionandoPublicacion" style="stroke:#008000;stroke-width:1.0;"/><polygon fill="#008000" points="44,283.2494,48,274.2494,44,278.2494,40,274.2494,44,283.2494" style="stroke:#008000;stroke-width:1.0;"/><path d="M49,234.6094 L49,260.6094 L411,260.6094 L411,244.6094 L401,234.6094 L49,234.6094 " fill="#FEFFDD" style="stroke:#181818;stroke-width:0.5;"/><path d="M401,234.6094 L401,244.6094 L411,244.6094 L401,234.6094 " fill="#FEFFDD" style="stroke:#181818;stroke-width:0.5;"/><text fill="#000000" font-family="sans-serif" font-size="13" font-weight="bold" lengthAdjust="spacing" textLength="79" x="55" y="253.1045">Coordinador</text><text fill="#000000" font-family="sans-serif" font-size="13" lengthAdjust="spacing" textLength="258" x="138" y="253.1045">selecciona una publicaci&#243;n propia del listado</text></g><!--link SeleccionandoPublicacion to *end*abrirMiPublicacion--><g id="link_SeleccionandoPublicacion_*end*abrirMiPublicacion"><path d="M44,333.6594 C44,356.2594 44,382.9894 44,399.4094 " fill="none" id="SeleccionandoPublicacion-to-*end*abrirMiPublicacion" style="stroke:#008000;stroke-width:1.0;"/><polygon fill="#008000" points="44,405.4094,48,396.4094,44,400.4094,40,396.4094,44,405.4094" style="stroke:#008000;stroke-width:1.0;"/><path d="M49,356.6094 L49,382.6094 L313,382.6094 L313,366.6094 L303,356.6094 L49,356.6094 " fill="#FEFFDD" style="stroke:#181818;stroke-width:0.5;"/><path d="M303,356.6094 L303,366.6094 L313,366.6094 L303,356.6094 " fill="#FEFFDD" style="stroke:#181818;stroke-width:0.5;"/><text fill="#000000" font-family="sans-serif" font-size="13" font-weight="bold" lengthAdjust="spacing" textLength="51" x="55" y="375.1045">Sistema</text><text fill="#000000" font-family="sans-serif" font-size="13" lengthAdjust="spacing" textLength="188" x="110" y="375.1045">abre la publicaci&#243;n seleccionada</text></g><g id="MIS_PUBLICACIONES_ABIERTAS"><rect fill="#F1F1F1" height="50" rx="12.5" ry="12.5" style="stroke:#181818;stroke-width:0.5;" width="234" x="96.5" y="7"/><line style="stroke:#181818;stroke-width:0.5;" x1="96.5" x2="330.5" y1="34.6094" y2="34.6094"/><text fill="#000000" font-family="sans-serif" font-size="14" lengthAdjust="spacing" textLength="214" x="106.5" y="26.5332">MIS_PUBLICACIONES_ABIERTAS</text></g><g id="MI_PUBLICACION_ABIERTA"><rect fill="#F1F1F1" height="50" rx="12.5" ry="12.5" style="stroke:#181818;stroke-width:0.5;" width="198" x="114.5" y="534"/><line style="stroke:#181818;stroke-width:0.5;" x1="114.5" x2="312.5" y1="561.6094" y2="561.6094"/><text fill="#000000" font-family="sans-serif" font-size="14" lengthAdjust="spacing" textLength="178" x="124.5" y="553.5332">MI_PUBLICACION_ABIERTA</text></g><!--link MIS_PUBLICACIONES_ABIERTAS to abrirMiPublicacion--><g id="link_MIS_PUBLICACIONES_ABIERTAS_abrirMiPublicacion"><path d="M213.5,57.13 C213.5,79.83 213.5,109.79 213.5,146.92 " fill="none" id="MIS_PUBLICACIONES_ABIERTAS-to-abrirMiPublicacion" style="stroke:#008000;stroke-width:1.0;"/><polygon fill="#008000" points="213.5,152.92,217.5,143.92,213.5,147.92,209.5,143.92,213.5,152.92" style="stroke:#008000;stroke-width:1.0;"/><path d="M218.5,92 L218.5,118 L353.5,118 L353.5,102 L343.5,92 L218.5,92 " fill="#FEFFDD" style="stroke:#181818;stroke-width:0.5;"/><path d="M343.5,92 L343.5,102 L353.5,102 L343.5,92 " fill="#FEFFDD" style="stroke:#181818;stroke-width:0.5;"/><text fill="#000000" font-family="sans-serif" font-size="13" lengthAdjust="spacing" textLength="114" x="224.5" y="110.4951">abrirMiPublicacion()</text></g><!--link abrirMiPublicacion to MI_PUBLICACION_ABIERTA--><g id="link_abrirMiPublicacion_MI_PUBLICACION_ABIERTA"><path d="M213.5,438.35 C213.5,475.33 213.5,505.12 213.5,527.76 " fill="none" id="abrirMiPublicacion-to-MI_PUBLICACION_ABIERTA" style="stroke:#008000;stroke-width:1.0;"/><polygon fill="#008000" points="213.5,533.76,217.5,524.76,213.5,528.76,209.5,524.76,213.5,533.76" style="stroke:#008000;stroke-width:1.0;"/><path d="M218.5,473 L218.5,499 L365.5,499 L365.5,483 L355.5,473 L218.5,473 " fill="#FEFFDD" style="stroke:#181818;stroke-width:0.5;"/><path d="M355.5,473 L355.5,483 L365.5,483 L355.5,473 " fill="#FEFFDD" style="stroke:#181818;stroke-width:0.5;"/><text fill="#000000" font-family="sans-serif" font-size="13" lengthAdjust="spacing" textLength="126" x="224.5" y="491.4951">Mi publicaci&#243;n abierta</text></g><!--SRC=[TP51QiCm44NtEiNWRDf2o0M2mJ5P6EesrEqgX32sXY2YI49s5g7qL3r2BzQnJMghYIMqqF3rz3IgZyeuz7W2hGmr5qVWhBwq6o7g1Xi2BBtokTgSIwqgh9GrW3L4j-M7nmW-XG0U_Sc89qSBqbIr0JJIZl9zTFkqW_bsTl14PZUFfzDjs5Z6iW3x7Rl2ienJQxrK1gNroqKPG_q7W3ClTqNyV1jmtZg584apWYMbxIXaP8VkZQOC0atMdZGg64qdx6ouJGJwdyQWA34K-18YpuhzvcFrdAL9chs-h8jziihMR-z94GZSzby4BlV-HmmFlVEhOtgUZHsk1k4DkGfVXQKYt-1moIy0]--></g></svg>