<svg xmlns="http://www.w3.org/2000/svg" xmlns:xlink="http://www.w3.org/1999/xlink" contentStyleType="text/css" data-diagram-type="DESCRIPTION" height="1017px" preserveAspectRatio="none" style="width:519px;height:1017px;background:#FFFFFF;" version="1.1" viewBox="0 0 519 1017" width="519px" zoomAndPan="magnify"><title>Casos de uso del Coordinador</title><defs/><g><g class="title" data-source-line="1"><text fill="#000000" font-family="sans-serif" font-size="14" font-weight="bold" lengthAdjust="spacing" textLength="234.4453" x="135.2773" y="22.9951">Casos de uso del Coordinador</text></g><!--cluster Plataforma FUNIBER--><g class="cluster" data-entity="Plataforma FUNIBER" data-source-line="6" data-uid="ent0003" id="cluster_Plataforma FUNIBER"><rect fill="none" height="967" rx="2.5" ry="2.5" style="stroke:#181818;stroke-width:1;" width="367" x="146" y="44.2969"/><text fill="#000000" font-family="sans-serif" font-size="14" font-weight="bold" lengthAdjust="spacing" textLength="161.041" x="248.9795" y="59.292">Plataforma FUNIBER</text></g><!--cluster Gesti?n de Convocatorias--><g class="cluster" data-entity="Gesti.n de Convocatorias" data-source-line="8" data-uid="ent0004" id="cluster_Gesti.n de Convocatorias"><rect fill="none" height="192" rx="2.5" ry="2.5" style="stroke:#181818;stroke-width:1;" width="319" x="170" y="87.2969"/><text fill="#000000" font-family="sans-serif" font-size="14" font-weight="bold" lengthAdjust="spacing" textLength="201.8037" x="228.5981" y="102.292">Gesti&#243;n de Convocatorias</text></g><!--cluster Gesti?n de Propuestas--><g class="cluster" data-entity="Gesti.n de Propuestas" data-source-line="13" data-uid="ent0007" id="cluster_Gesti.n de Propuestas"><rect fill="none" height="263" rx="2.5" ry="2.5" style="stroke:#181818;stroke-width:1;" width="278" x="190.5" y="303.2969"/><text fill="#000000" font-family="sans-serif" font-size="14" font-weight="bold" lengthAdjust="spacing" textLength="178.7324" x="240.1338" y="318.292">Gesti&#243;n de Propuestas</text></g><!--cluster Gesti?n de Proyectos--><g class="cluster" data-entity="Gesti.n de Proyectos" data-source-line="19" data-uid="ent0011" id="cluster_Gesti.n de Proyectos"><rect fill="none" height="397" rx="2.5" ry="2.5" style="stroke:#181818;stroke-width:1;" width="234" x="212.5" y="590.2969"/><text fill="#000000" font-family="sans-serif" font-size="14" font-weight="bold" lengthAdjust="spacing" textLength="168.0068" x="245.4966" y="605.292">Gesti&#243;n de Proyectos</text></g><!--entity CU_RegConv--><g class="entity" data-entity="CU_RegConv" data-source-line="9" data-uid="ent0005" id="entity_CU_RegConv"><ellipse cx="329.6501" cy="144.4269" fill="#F1F1F1" rx="96.1501" ry="21.63" style="stroke:#181818;stroke-width:0.5;"/><text fill="#000000" font-family="sans-serif" font-size="14" lengthAdjust="spacing" textLength="167.5352" x="245.8825" y="149.0753">RegistrarConvocatoria()</text></g><!--entity CU_AsignarInv--><g class="entity" data-entity="CU_AsignarInv" data-source-line="10" data-uid="ent0006" id="entity_CU_AsignarInv"><ellipse cx="329.5979" cy="232.4165" fill="#F1F1F1" rx="143.5979" ry="31.1196" style="stroke:#181818;stroke-width:0.5;"/><text fill="#000000" font-family="sans-serif" font-size="14" lengthAdjust="spacing" textLength="269.1309" x="195.0325" y="237.0649">AsignarInvestigadoresAConvocatoria()</text></g><!--entity CU_CrearProp--><g class="entity" data-entity="CU_CrearProp" data-source-line="14" data-uid="ent0008" id="entity_CU_CrearProp"><ellipse cx="329.485" cy="356.2939" fill="#F1F1F1" rx="75.485" ry="17.497" style="stroke:#181818;stroke-width:0.5;"/><text fill="#000000" font-family="sans-serif" font-size="14" lengthAdjust="spacing" textLength="119.9023" x="269.5338" y="360.9423">CrearPropuesta()</text></g><!--entity CU_ArchivarProp--><g class="entity" data-entity="CU_ArchivarProp" data-source-line="15" data-uid="ent0009" id="entity_CU_ArchivarProp"><ellipse cx="329.2661" cy="435.4501" fill="#F1F1F1" rx="118.7661" ry="26.1532" style="stroke:#181818;stroke-width:0.5;"/><text fill="#000000" font-family="sans-serif" font-size="14" lengthAdjust="spacing" textLength="216.7197" x="220.9062" y="440.0985">ArchivarPropuestaRechazada()</text></g><!--entity CU_ConvertirProy--><g class="entity" data-entity="CU_ConvertirProy" data-source-line="16" data-uid="ent0010" id="entity_CU_ConvertirProy"><ellipse cx="329.4129" cy="523.2794" fill="#F1F1F1" rx="122.9129" ry="26.9826" style="stroke:#181818;stroke-width:0.5;"/><text fill="#000000" font-family="sans-serif" font-size="14" lengthAdjust="spacing" textLength="225.5586" x="216.6336" y="527.9279">ConvertirPropuestaEnProyecto()</text></g><!--entity CU_CrearProy--><g class="entity" data-entity="CU_CrearProy" data-source-line="20" data-uid="ent0012" id="entity_CU_CrearProy"><ellipse cx="329.2754" cy="642.0519" fill="#F1F1F1" rx="71.7754" ry="16.7551" style="stroke:#181818;stroke-width:0.5;"/><text fill="#000000" font-family="sans-serif" font-size="14" lengthAdjust="spacing" textLength="110.8174" x="273.8667" y="646.7004">CrearProyecto()</text></g><!--entity CU_AsignarResp--><g class="entity" data-entity="CU_AsignarResp" data-source-line="21" data-uid="ent0013" id="entity_CU_AsignarResp"><ellipse cx="329.409" cy="715.2787" fill="#F1F1F1" rx="92.909" ry="20.9818" style="stroke:#181818;stroke-width:0.5;"/><text fill="#000000" font-family="sans-serif" font-size="14" lengthAdjust="spacing" textLength="160.2959" x="249.261" y="719.9271">AsignarResponsables()</text></g><!--entity CU_AgregarColab--><g class="entity" data-entity="CU_AgregarColab" data-source-line="22" data-uid="ent0014" id="entity_CU_AgregarColab"><ellipse cx="329.5771" cy="792.1123" fill="#F1F1F1" rx="89.5771" ry="20.3154" style="stroke:#181818;stroke-width:0.5;"/><text fill="#000000" font-family="sans-serif" font-size="14" lengthAdjust="spacing" textLength="152.7832" x="253.1855" y="796.7607">AgregarColaborador()</text></g><!--entity CU_ConfigEntreg--><g class="entity" data-entity="CU_ConfigEntreg" data-source-line="23" data-uid="ent0015" id="entity_CU_ConfigEntreg"><ellipse cx="329.5991" cy="869.5167" fill="#F1F1F1" rx="96.5991" ry="21.7198" style="stroke:#181818;stroke-width:0.5;"/><text fill="#000000" font-family="sans-serif" font-size="14" lengthAdjust="spacing" textLength="168.5332" x="245.3325" y="874.1651">ConfigurarEntregables()</text></g><!--entity CU_RegComp--><g class="entity" data-entity="CU_RegComp" data-source-line="24" data-uid="ent0016" id="entity_CU_RegComp"><ellipse cx="329.4572" cy="948.3883" fill="#F1F1F1" rx="100.9572" ry="22.5914" style="stroke:#181818;stroke-width:0.5;"/><text fill="#000000" font-family="sans-serif" font-size="14" lengthAdjust="spacing" textLength="178.165" x="240.3747" y="953.0368">RegistrarCompensacion()</text></g><!--entity Coordinador--><g class="entity" data-entity="Coordinador" data-source-line="4" data-uid="ent0002" id="entity_Coordinador"><ellipse cx="65.9717" cy="545.2969" fill="#F1F1F1" rx="8" ry="8" style="stroke:#181818;stroke-width:0.5;"/><path d="M65.9717,553.2969 L65.9717,580.2969 M52.9717,561.2969 L78.9717,561.2969 M65.9717,580.2969 L52.9717,595.2969 M65.9717,580.2969 L78.9717,595.2969" fill="none" style="stroke:#181818;stroke-width:0.5;"/><text fill="#000000" font-family="sans-serif" font-size="14" lengthAdjust="spacing" textLength="95.2656" x="6" y="609.792">Coordinador /</text><text fill="#000000" font-family="sans-serif" font-size="14" lengthAdjust="spacing" textLength="119.9434" x="6" y="626.0889">Depto. Proyectos</text></g><!--link Coordinador to CU_RegConv--><g class="link" data-entity-1="Coordinador" data-entity-2="CU_RegConv" data-source-line="29" data-uid="lnk17" id="link_Coordinador_CU_RegConv"><path d="M68.89,536.5569 C73.69,442.0369 89.65,232.9369 138,183.2969 C162.73,157.9069 193.2758,147.5168 227.7158,143.2368" fill="none" id="Coordinador-to-CU_RegConv" style="stroke:#181818;stroke-width:1;"/><polygon fill="#181818" points="233.67,142.4969,224.2454,139.6373,228.7082,143.1135,225.232,147.5763,233.67,142.4969" style="stroke:#181818;stroke-width:1;"/></g><!--link Coordinador to CU_AsignarInv--><g class="link" data-entity-1="Coordinador" data-entity-2="CU_AsignarInv" data-source-line="30" data-uid="lnk18" id="link_Coordinador_CU_AsignarInv"><path d="M68.23,536.4369 C72.07,479.6169 86.42,383.8469 138,322.2969 C163.96,291.3169 197.4012,272.474 233.4012,258.604" fill="none" id="Coordinador-to-CU_AsignarInv" style="stroke:#181818;stroke-width:1;"/><polygon fill="#181818" points="239,256.4469,229.1637,255.95,234.3343,258.2445,232.0398,263.4151,239,256.4469" style="stroke:#181818;stroke-width:1;"/></g><!--link Coordinador to CU_CrearProp--><g class="link" data-entity-1="Coordinador" data-entity-2="CU_CrearProp" data-source-line="31" data-uid="lnk19" id="link_Coordinador_CU_CrearProp"><path d="M71.29,536.7369 C77.94,492.5069 94.89,427.5469 138,391.2969 C170.17,364.2469 210.3488,355.5923 249.1888,353.4823" fill="none" id="Coordinador-to-CU_CrearProp" style="stroke:#181818;stroke-width:1;"/><polygon fill="#181818" points="255.18,353.1569,245.9763,349.651,250.1874,353.4281,246.4102,357.6392,255.18,353.1569" style="stroke:#181818;stroke-width:1;"/></g><!--link Coordinador to CU_ArchivarProp--><g class="link" data-entity-1="Coordinador" data-entity-2="CU_ArchivarProp" data-source-line="32" data-uid="lnk20" id="link_Coordinador_CU_ArchivarProp"><path d="M88.41,536.6169 C100.22,515.7969 116.83,492.7569 138,478.2969 C161.94,461.9469 185.2868,453.0458 213.5568,446.6758" fill="none" id="Coordinador-to-CU_ArchivarProp" style="stroke:#181818;stroke-width:1;"/><polygon fill="#181818" points="219.41,445.3569,209.7509,443.4331,214.5323,446.456,211.5094,451.2374,219.41,445.3569" style="stroke:#181818;stroke-width:1;"/></g><!--link Coordinador to CU_ConvertirProy--><g class="link" data-entity-1="Coordinador" data-entity-2="CU_ConvertirProy" data-source-line="33" data-uid="lnk21" id="link_Coordinador_CU_ConvertirProy"><path d="M126.01,569.7569 C160.81,561.7769 199.5819,552.8785 238.0719,544.0485" fill="none" id="Coordinador-to-CU_ConvertirProy" style="stroke:#181818;stroke-width:1;"/><polygon fill="#181818" points="243.92,542.7069,234.2535,540.8206,239.0466,543.8249,236.0423,548.618,243.92,542.7069" style="stroke:#181818;stroke-width:1;"/></g><!--link Coordinador to CU_CrearProy--><g class="link" data-entity-1="Coordinador" data-entity-2="CU_CrearProy" data-source-line="34" data-uid="lnk22" id="link_Coordinador_CU_CrearProy"><path d="M126.01,596.6069 C171.35,606.8369 227.517,619.5169 270.927,629.3069" fill="none" id="Coordinador-to-CU_CrearProy" style="stroke:#181818;stroke-width:1;"/><polygon fill="#181818" points="276.78,630.6269,268.8805,624.7449,271.9025,629.5269,267.1205,632.5489,276.78,630.6269" style="stroke:#181818;stroke-width:1;"/></g><!--link Coordinador to CU_AsignarResp--><g class="link" data-entity-1="Coordinador" data-entity-2="CU_AsignarResp" data-source-line="35" data-uid="lnk23" id="link_Coordinador_CU_AsignarResp"><path d="M92.78,629.8769 C104.45,646.9369 119.76,664.8569 138,676.2969 C168.03,695.1369 199.5393,704.1776 233.2593,709.3476" fill="none" id="Coordinador-to-CU_AsignarResp" style="stroke:#181818;stroke-width:1;"/><polygon fill="#181818" points="239.19,710.2569,230.9002,704.9391,234.2478,709.4991,229.6878,712.8467,239.19,710.2569" style="stroke:#181818;stroke-width:1;"/></g><!--link Coordinador to CU_AgregarColab--><g class="link" data-entity-1="Coordinador" data-entity-2="CU_AgregarColab" data-source-line="36" data-uid="lnk24" id="link_Coordinador_CU_AgregarColab"><path d="M74.21,630.1469 C82.71,668.9769 100.71,722.6069 138,753.2969 C166.28,776.5669 198.8575,786.3737 233.8675,790.8037" fill="none" id="Coordinador-to-CU_AgregarColab" style="stroke:#181818;stroke-width:1;"/><polygon fill="#181818" points="239.82,791.5569,231.3933,786.4587,234.8596,790.9292,230.3891,794.3954,239.82,791.5569" style="stroke:#181818;stroke-width:1;"/></g><!--link Coordinador to CU_ConfigEntreg--><g class="link" data-entity-1="Coordinador" data-entity-2="CU_ConfigEntreg" data-source-line="37" data-uid="lnk25" id="link_Coordinador_CU_ConfigEntreg"><path d="M66.78,630.2669 C69.2,686.2269 82.15,778.6369 138,830.2969 C163.4,853.7969 193.057,863.9017 226.617,868.5617" fill="none" id="Coordinador-to-CU_ConfigEntreg" style="stroke:#181818;stroke-width:1;"/><polygon fill="#181818" points="232.56,869.3869,224.1957,864.1871,227.6075,868.6992,223.0954,872.111,232.56,869.3869" style="stroke:#181818;stroke-width:1;"/></g><!--link Coordinador to CU_RegComp--><g class="link" data-entity-1="Coordinador" data-entity-2="CU_RegComp" data-source-line="38" data-uid="lnk26" id="link_Coordinador_CU_RegComp"><path d="M71.02,629.8969 C78.91,710.1969 99.15,869.7569 138,908.2969 C161.75,931.8569 189.6898,942.2643 222.3098,947.2843" fill="none" id="Coordinador-to-CU_RegComp" style="stroke:#181818;stroke-width:1;"/><polygon fill="#181818" points="228.24,948.1969,219.9531,942.8745,223.2982,947.4364,218.7363,950.7814,228.24,948.1969" style="stroke:#181818;stroke-width:1;"/></g><!--SRC=[XLF1QeD04Btx5OEdzf3s3mgfJKik9GYv5Sf49sP1TsHs3QIbNzLFw8zrjvAucaqgWkXxR-Rjcz4gMnDaQDX0IT0PTeyQCcOfbSQI9Kbgsbgm3AAgdOLI2HLMiKwmi2oG1bouVzDFr5g-WvNmmV7Of81cNC_hKLUkRxggqUAMfK5uNhyk7nTv2fz90X1mNiXOzVEjlR-CzPuBT7qL6ay5TtM62ZIEcLEbZ1MKa7PpspjOlplO0sFDtAXAeoprthUfl4CoytY1WUjgV5snwGxVTkuzuZ4JGZdXG-tJzuazANPg7oXoAdRuWMLeA-1CchbZa5Wro1VwE9YWTS0w_7-ourWl76nQ_FWv6djEfcLjS5EJESlPWnDL9LJvyTQuOV6p2aG1TfR2LbMTsuk5jfuqxjR3FNHndvgMdCt2hVradvgsJypTuOymcps4AnU1WcMAeCCwnAJXm6FYqK2lL3zSCVQNVWmESuut7-Ay54dJ_W80]--></g></svg>