<?xml version="1.0" encoding="us-ascii" standalone="no"?><svg xmlns="http://www.w3.org/2000/svg" xmlns:xlink="http://www.w3.org/1999/xlink" contentStyleType="text/css" height="795px" preserveAspectRatio="none" style="width:951px;height:795px;background:#FFFFFF;" version="1.1" viewBox="0 0 951 795" width="951px" zoomAndPan="magnify"><defs/><g><line style="stroke:#AAAAAA;stroke-width:1.0;" x1="6" x2="944" y1="8.5" y2="8.5"/><line style="stroke:#AAAAAA;stroke-width:1.0;" x1="6" x2="944" y1="10.5" y2="10.5"/><text fill="#000000" font-family="sans-serif" font-size="12" font-weight="bold" lengthAdjust="spacing" textLength="174" x="6" y="26.457">FUNIBER - CARGA DE TRABAJO</text><line style="stroke:#AAAAAA;stroke-width:1.0;" x1="6" x2="944" y1="33.5938" y2="33.5938"/><line style="stroke:#AAAAAA;stroke-width:1.0;" x1="6" x2="944" y1="35.5938" y2="35.5938"/><text fill="#000000" font-family="sans-serif" font-size="12" font-weight="bold" lengthAdjust="spacing" textLength="35" x="7" y="52.5508">Filtros</text><line style="stroke:#AAAAAA;stroke-width:1.0;" x1="7" x2="943" y1="60.6875" y2="60.6875"/><text fill="#000000" font-family="sans-serif" font-size="12" font-weight="bold" lengthAdjust="spacing" textLength="32" x="10" y="80.6445">Sede:</text><text fill="#000000" font-family="sans-serif" font-size="12" lengthAdjust="spacing" textLength="35" x="49" y="81.6445">Todas</text><line style="stroke:#000000;stroke-width:1.0;" x1="47" x2="90" y1="84.2813" y2="84.2813"/><line style="stroke:#000000;stroke-width:1.0;" x1="47" x2="47" y1="81.2813" y2="83.2813"/><line style="stroke:#000000;stroke-width:1.0;" x1="90" x2="90" y1="81.2813" y2="83.2813"/><text fill="#000000" font-family="sans-serif" font-size="12" lengthAdjust="spacing" textLength="57" x="97" y="81.6445">Santander</text><line style="stroke:#000000;stroke-width:1.0;" x1="95" x2="170" y1="84.2813" y2="84.2813"/><line style="stroke:#000000;stroke-width:1.0;" x1="95" x2="95" y1="81.2813" y2="83.2813"/><line style="stroke:#000000;stroke-width:1.0;" x1="170" x2="170" y1="81.2813" y2="83.2813"/><text fill="#000000" font-family="sans-serif" font-size="12" lengthAdjust="spacing" textLength="56" x="177" y="81.6445">Barcelona</text><line style="stroke:#000000;stroke-width:1.0;" x1="175" x2="250" y1="84.2813" y2="84.2813"/><line style="stroke:#000000;stroke-width:1.0;" x1="175" x2="175" y1="81.2813" y2="83.2813"/><line style="stroke:#000000;stroke-width:1.0;" x1="250" x2="250" y1="81.2813" y2="83.2813"/><text fill="#000000" font-family="sans-serif" font-size="12" lengthAdjust="spacing" textLength="37" x="257" y="81.6445">Madrid</text><line style="stroke:#000000;stroke-width:1.0;" x1="255" x2="306" y1="84.2813" y2="84.2813"/><line style="stroke:#000000;stroke-width:1.0;" x1="255" x2="255" y1="81.2813" y2="83.2813"/><line style="stroke:#000000;stroke-width:1.0;" x1="306" x2="306" y1="81.2813" y2="83.2813"/><text fill="#000000" font-family="sans-serif" font-size="12" lengthAdjust="spacing" textLength="29" x="313" y="81.6445">Quito</text><line style="stroke:#000000;stroke-width:1.0;" x1="311" x2="354" y1="84.2813" y2="84.2813"/><line style="stroke:#000000;stroke-width:1.0;" x1="311" x2="311" y1="81.2813" y2="83.2813"/><line style="stroke:#000000;stroke-width:1.0;" x1="354" x2="354" y1="81.2813" y2="83.2813"/><text fill="#000000" font-family="sans-serif" font-size="12" lengthAdjust="spacing" textLength="55" x="361" y="81.6445">Guayaquil</text><line style="stroke:#000000;stroke-width:1.0;" x1="359" x2="434" y1="84.2813" y2="84.2813"/><line style="stroke:#000000;stroke-width:1.0;" x1="359" x2="359" y1="81.2813" y2="83.2813"/><line style="stroke:#000000;stroke-width:1.0;" x1="434" x2="434" y1="81.2813" y2="83.2813"/><text fill="#000000" font-family="sans-serif" font-size="12" lengthAdjust="spacing" textLength="47" x="441" y="81.6445">Panam&#225;</text><line style="stroke:#000000;stroke-width:1.0;" x1="439" x2="490" y1="84.2813" y2="84.2813"/><line style="stroke:#000000;stroke-width:1.0;" x1="439" x2="439" y1="81.2813" y2="83.2813"/><line style="stroke:#000000;stroke-width:1.0;" x1="490" x2="490" y1="81.2813" y2="83.2813"/><text fill="#000000" font-family="sans-serif" font-size="12" lengthAdjust="spacing" textLength="56" x="497" y="81.6445">M&#233;xico DF</text><line style="stroke:#000000;stroke-width:1.0;" x1="495" x2="570" y1="84.2813" y2="84.2813"/><line style="stroke:#000000;stroke-width:1.0;" x1="495" x2="495" y1="81.2813" y2="83.2813"/><line style="stroke:#000000;stroke-width:1.0;" x1="570" x2="570" y1="81.2813" y2="83.2813"/><text fill="#000000" font-family="sans-serif" font-size="12" lengthAdjust="spacing" textLength="28" x="577" y="81.6445">Lima</text><line style="stroke:#000000;stroke-width:1.0;" x1="575" x2="610" y1="84.2813" y2="84.2813"/><line style="stroke:#000000;stroke-width:1.0;" x1="575" x2="575" y1="81.2813" y2="83.2813"/><line style="stroke:#000000;stroke-width:1.0;" x1="610" x2="610" y1="81.2813" y2="83.2813"/><text fill="#000000" font-family="sans-serif" font-size="12" lengthAdjust="spacing" textLength="39" x="617" y="81.6445">Bogot&#225;</text><line style="stroke:#000000;stroke-width:1.0;" x1="615" x2="666" y1="84.2813" y2="84.2813"/><line style="stroke:#000000;stroke-width:1.0;" x1="615" x2="615" y1="81.2813" y2="83.2813"/><line style="stroke:#000000;stroke-width:1.0;" x1="666" x2="666" y1="81.2813" y2="83.2813"/><text fill="#000000" font-family="sans-serif" font-size="12" lengthAdjust="spacing" textLength="98" x="673" y="81.6445">Santiago de Chile</text><line style="stroke:#000000;stroke-width:1.0;" x1="671" x2="810" y1="84.2813" y2="84.2813"/><line style="stroke:#000000;stroke-width:1.0;" x1="671" x2="671" y1="81.2813" y2="83.2813"/><line style="stroke:#000000;stroke-width:1.0;" x1="810" x2="810" y1="81.2813" y2="83.2813"/><text fill="#000000" font-family="sans-serif" font-size="12" lengthAdjust="spacing" textLength="74" x="817" y="81.6445">Buenos Aires</text><line style="stroke:#000000;stroke-width:1.0;" x1="815" x2="914" y1="84.2813" y2="84.2813"/><line style="stroke:#000000;stroke-width:1.0;" x1="815" x2="815" y1="81.2813" y2="83.2813"/><line style="stroke:#000000;stroke-width:1.0;" x1="914" x2="914" y1="81.2813" y2="83.2813"/><text fill="#000000" font-family="sans-serif" font-size="12" font-weight="bold" lengthAdjust="spacing" textLength="33" x="10" y="101.7383">Perfil:</text><text fill="#000000" font-family="sans-serif" font-size="12" lengthAdjust="spacing" textLength="35" x="49" y="102.7383">Todos</text><line style="stroke:#000000;stroke-width:1.0;" x1="47" x2="90" y1="105.375" y2="105.375"/><line style="stroke:#000000;stroke-width:1.0;" x1="47" x2="47" y1="102.375" y2="104.375"/><line style="stroke:#000000;stroke-width:1.0;" x1="90" x2="90" y1="102.375" y2="104.375"/><text fill="#000000" font-family="sans-serif" font-size="12" lengthAdjust="spacing" textLength="115" x="97" y="102.7383">Investigador-docente</text><line style="stroke:#000000;stroke-width:1.0;" x1="95" x2="258" y1="105.375" y2="105.375"/><line style="stroke:#000000;stroke-width:1.0;" x1="95" x2="95" y1="102.375" y2="104.375"/><line style="stroke:#000000;stroke-width:1.0;" x1="258" x2="258" y1="102.375" y2="104.375"/><text fill="#000000" font-family="sans-serif" font-size="12" lengthAdjust="spacing" textLength="95" x="265" y="102.7383">Solo investigador</text><line style="stroke:#000000;stroke-width:1.0;" x1="263" x2="402" y1="105.375" y2="105.375"/><line style="stroke:#000000;stroke-width:1.0;" x1="263" x2="263" y1="102.375" y2="104.375"/><line style="stroke:#000000;stroke-width:1.0;" x1="402" x2="402" y1="102.375" y2="104.375"/><text fill="#000000" font-family="sans-serif" font-size="12" font-weight="bold" lengthAdjust="spacing" textLength="122" x="10" y="124.832">Investigador/docente:</text><rect fill="#EEEEEE" height="19.0938" rx="5" ry="5" style="stroke:#000000;stroke-width:2.5;" width="244" x="139.5" y="114.875"/><text fill="#000000" font-family="sans-serif" font-size="12" lengthAdjust="spacing" textLength="3" x="260" y="129.332">&#160;</text><text fill="#000000" font-family="sans-serif" font-size="12" font-weight="bold" lengthAdjust="spacing" textLength="125" x="10" y="150.9258">&#193;rea de investigaci&#243;n:</text><rect fill="#EEEEEE" height="19.0938" rx="5" ry="5" style="stroke:#000000;stroke-width:2.5;" width="164" x="139.5" y="140.9688"/><text fill="#000000" font-family="sans-serif" font-size="12" lengthAdjust="spacing" textLength="3" x="220" y="155.4258">&#160;</text><text fill="#000000" font-family="sans-serif" font-size="12" font-weight="bold" lengthAdjust="spacing" textLength="54" x="10" y="179.0195">Proyecto:</text><rect fill="#EEEEEE" height="19.0938" rx="5" ry="5" style="stroke:#000000;stroke-width:2.5;" width="244" x="129.5" y="169.0625"/><text fill="#000000" font-family="sans-serif" font-size="12" lengthAdjust="spacing" textLength="3" x="250" y="183.5195">&#160;</text><text fill="#000000" font-family="sans-serif" font-size="12" font-weight="bold" lengthAdjust="spacing" textLength="115" x="10" y="205.1133">Estado del proyecto:</text><text fill="#000000" font-family="sans-serif" font-size="12" lengthAdjust="spacing" textLength="35" x="131" y="206.1133">Todos</text><line style="stroke:#000000;stroke-width:1.0;" x1="129" x2="172" y1="208.75" y2="208.75"/><line style="stroke:#000000;stroke-width:1.0;" x1="129" x2="129" y1="205.75" y2="207.75"/><line style="stroke:#000000;stroke-width:1.0;" x1="172" x2="172" y1="205.75" y2="207.75"/><text fill="#000000" font-family="sans-serif" font-size="12" lengthAdjust="spacing" textLength="49" x="179" y="206.1133">En curso</text><line style="stroke:#000000;stroke-width:1.0;" x1="177" x2="244" y1="208.75" y2="208.75"/><line style="stroke:#000000;stroke-width:1.0;" x1="177" x2="177" y1="205.75" y2="207.75"/><line style="stroke:#000000;stroke-width:1.0;" x1="244" x2="244" y1="205.75" y2="207.75"/><text fill="#000000" font-family="sans-serif" font-size="12" lengthAdjust="spacing" textLength="56" x="251" y="206.1133">Finalizado</text><line style="stroke:#000000;stroke-width:1.0;" x1="249" x2="332" y1="208.75" y2="208.75"/><line style="stroke:#000000;stroke-width:1.0;" x1="249" x2="249" y1="205.75" y2="207.75"/><line style="stroke:#000000;stroke-width:1.0;" x1="332" x2="332" y1="205.75" y2="207.75"/><text fill="#000000" font-family="sans-serif" font-size="12" lengthAdjust="spacing" textLength="62" x="339" y="206.1133">Rechazado</text><line style="stroke:#000000;stroke-width:1.0;" x1="337" x2="412" y1="208.75" y2="208.75"/><line style="stroke:#000000;stroke-width:1.0;" x1="337" x2="337" y1="205.75" y2="207.75"/><line style="stroke:#000000;stroke-width:1.0;" x1="412" x2="412" y1="205.75" y2="207.75"/><line style="stroke:#AAAAAA;stroke-width:1.5;" x1="7" x2="943" y1="220.25" y2="220.25"/><text fill="#000000" font-family="sans-serif" font-size="12" font-weight="bold" lengthAdjust="spacing" textLength="91" x="7" y="237.207">Resumen global</text><line style="stroke:#AAAAAA;stroke-width:1.0;" x1="7" x2="943" y1="245.3438" y2="245.3438"/><text fill="#000000" font-family="sans-serif" font-size="12" font-weight="bold" lengthAdjust="spacing" textLength="85" x="9" y="264.3008">Total personas</text><text fill="#000000" font-family="sans-serif" font-size="12" font-weight="bold" lengthAdjust="spacing" textLength="171" x="96" y="264.3008">Con docencia al m&#225;ximo (16h)</text><text fill="#000000" font-family="sans-serif" font-size="12" font-weight="bold" lengthAdjust="spacing" textLength="157" x="269" y="264.3008">Con margen docente (&lt;16h)</text><text fill="#000000" font-family="sans-serif" font-size="12" lengthAdjust="spacing" textLength="14" x="12" y="283.3945">32</text><line style="stroke:#000000;stroke-width:1.0;" x1="10" x2="93" y1="286.0313" y2="286.0313"/><line style="stroke:#000000;stroke-width:1.0;" x1="10" x2="10" y1="283.0313" y2="285.0313"/><line style="stroke:#000000;stroke-width:1.0;" x1="93" x2="93" y1="283.0313" y2="285.0313"/><text fill="#000000" font-family="sans-serif" font-size="12" lengthAdjust="spacing" textLength="7" x="100" y="283.3945">9</text><line style="stroke:#000000;stroke-width:1.0;" x1="98" x2="269" y1="286.0313" y2="286.0313"/><line style="stroke:#000000;stroke-width:1.0;" x1="98" x2="98" y1="283.0313" y2="285.0313"/><line style="stroke:#000000;stroke-width:1.0;" x1="269" x2="269" y1="283.0313" y2="285.0313"/><text fill="#000000" font-family="sans-serif" font-size="12" lengthAdjust="spacing" textLength="14" x="276" y="283.3945">23</text><line style="stroke:#000000;stroke-width:1.0;" x1="274" x2="429" y1="286.0313" y2="286.0313"/><line style="stroke:#000000;stroke-width:1.0;" x1="274" x2="274" y1="283.0313" y2="285.0313"/><line style="stroke:#000000;stroke-width:1.0;" x1="429" x2="429" y1="283.0313" y2="285.0313"/><line style="stroke:#AAAAAA;stroke-width:1.5;" x1="7" x2="943" y1="295.5313" y2="295.5313"/><text fill="#000000" font-family="sans-serif" font-size="12" font-weight="bold" lengthAdjust="spacing" textLength="224" x="7" y="312.4883">Detalle de carga por persona (semanal)</text><line style="stroke:#AAAAAA;stroke-width:1.0;" x1="7" x2="943" y1="320.625" y2="320.625"/><text fill="#000000" font-family="sans-serif" font-size="12" font-weight="bold" lengthAdjust="spacing" textLength="39" x="9" y="339.582">C&#243;digo</text><text fill="#000000" font-family="sans-serif" font-size="12" font-weight="bold" lengthAdjust="spacing" textLength="45" x="80" y="339.582">Nombre</text><text fill="#000000" font-family="sans-serif" font-size="12" font-weight="bold" lengthAdjust="spacing" textLength="29" x="265" y="339.582">Sede</text><text fill="#000000" font-family="sans-serif" font-size="12" font-weight="bold" lengthAdjust="spacing" textLength="30" x="347" y="339.582">Perfil</text><text fill="#000000" font-family="sans-serif" font-size="12" font-weight="bold" lengthAdjust="spacing" textLength="99" x="451" y="339.582">Docencia (h/sem)</text><text fill="#000000" font-family="sans-serif" font-size="12" font-weight="bold" lengthAdjust="spacing" textLength="121" x="552" y="339.582">Investigaci&#243;n (h/sem)</text><text fill="#000000" font-family="sans-serif" font-size="12" font-weight="bold" lengthAdjust="spacing" textLength="89" x="675" y="339.582">Gesti&#243;n (h/sem)</text><text fill="#000000" font-family="sans-serif" font-size="12" font-weight="bold" lengthAdjust="spacing" textLength="74" x="766" y="339.582">Total (h/sem)</text><text fill="#000000" font-family="sans-serif" font-size="12" font-weight="bold" lengthAdjust="spacing" textLength="98" x="842" y="339.582">Margen docencia</text><text fill="#000000" font-family="sans-serif" font-size="12" lengthAdjust="spacing" textLength="56" x="12" y="358.6758">FNB-1023</text><line style="stroke:#000000;stroke-width:1.0;" x1="10" x2="77" y1="361.3125" y2="361.3125"/><line style="stroke:#000000;stroke-width:1.0;" x1="10" x2="10" y1="358.3125" y2="360.3125"/><line style="stroke:#000000;stroke-width:1.0;" x1="77" x2="77" y1="358.3125" y2="360.3125"/><text fill="#000000" font-family="sans-serif" font-size="12" lengthAdjust="spacing" textLength="134" x="84" y="358.6758">Carlos Fern&#225;ndez L&#243;pez</text><line style="stroke:#000000;stroke-width:1.0;" x1="82" x2="261" y1="361.3125" y2="361.3125"/><line style="stroke:#000000;stroke-width:1.0;" x1="82" x2="82" y1="358.3125" y2="360.3125"/><line style="stroke:#000000;stroke-width:1.0;" x1="261" x2="261" y1="358.3125" y2="360.3125"/><text fill="#000000" font-family="sans-serif" font-size="12" lengthAdjust="spacing" textLength="57" x="268" y="358.6758">Santander</text><line style="stroke:#000000;stroke-width:1.0;" x1="266" x2="341" y1="361.3125" y2="361.3125"/><line style="stroke:#000000;stroke-width:1.0;" x1="266" x2="266" y1="358.3125" y2="360.3125"/><line style="stroke:#000000;stroke-width:1.0;" x1="341" x2="341" y1="358.3125" y2="360.3125"/><text fill="#000000" font-family="sans-serif" font-size="12" lengthAdjust="spacing" textLength="115" x="348" y="358.6758">Investigador-docente</text><line style="stroke:#000000;stroke-width:1.0;" x1="346" x2="509" y1="361.3125" y2="361.3125"/><line style="stroke:#000000;stroke-width:1.0;" x1="346" x2="346" y1="358.3125" y2="360.3125"/><line style="stroke:#000000;stroke-width:1.0;" x1="509" x2="509" y1="358.3125" y2="360.3125"/><text fill="#000000" font-family="sans-serif" font-size="12" lengthAdjust="spacing" textLength="14" x="516" y="358.6758">16</text><line style="stroke:#000000;stroke-width:1.0;" x1="514" x2="533" y1="361.3125" y2="361.3125"/><line style="stroke:#000000;stroke-width:1.0;" x1="514" x2="514" y1="358.3125" y2="360.3125"/><line style="stroke:#000000;stroke-width:1.0;" x1="533" x2="533" y1="358.3125" y2="360.3125"/><text fill="#000000" font-family="sans-serif" font-size="12" lengthAdjust="spacing" textLength="14" x="540" y="358.6758">10</text><line style="stroke:#000000;stroke-width:1.0;" x1="538" x2="557" y1="361.3125" y2="361.3125"/><line style="stroke:#000000;stroke-width:1.0;" x1="538" x2="538" y1="358.3125" y2="360.3125"/><line style="stroke:#000000;stroke-width:1.0;" x1="557" x2="557" y1="358.3125" y2="360.3125"/><text fill="#000000" font-family="sans-serif" font-size="12" lengthAdjust="spacing" textLength="7" x="564" y="358.6758">2</text><line style="stroke:#000000;stroke-width:1.0;" x1="562" x2="573" y1="361.3125" y2="361.3125"/><line style="stroke:#000000;stroke-width:1.0;" x1="562" x2="562" y1="358.3125" y2="360.3125"/><line style="stroke:#000000;stroke-width:1.0;" x1="573" x2="573" y1="358.3125" y2="360.3125"/><text fill="#000000" font-family="sans-serif" font-size="12" lengthAdjust="spacing" textLength="14" x="580" y="358.6758">28</text><line style="stroke:#000000;stroke-width:1.0;" x1="578" x2="597" y1="361.3125" y2="361.3125"/><line style="stroke:#000000;stroke-width:1.0;" x1="578" x2="578" y1="358.3125" y2="360.3125"/><line style="stroke:#000000;stroke-width:1.0;" x1="597" x2="597" y1="358.3125" y2="360.3125"/><text fill="#000000" font-family="sans-serif" font-size="12" lengthAdjust="spacing" textLength="7" x="604" y="358.6758">0</text><line style="stroke:#000000;stroke-width:1.0;" x1="602" x2="613" y1="361.3125" y2="361.3125"/><line style="stroke:#000000;stroke-width:1.0;" x1="602" x2="602" y1="358.3125" y2="360.3125"/><line style="stroke:#000000;stroke-width:1.0;" x1="613" x2="613" y1="358.3125" y2="360.3125"/><text fill="#000000" font-family="sans-serif" font-size="12" lengthAdjust="spacing" textLength="56" x="12" y="379.7695">FNB-1188</text><line style="stroke:#000000;stroke-width:1.0;" x1="10" x2="77" y1="382.4063" y2="382.4063"/><line style="stroke:#000000;stroke-width:1.0;" x1="10" x2="10" y1="379.4063" y2="381.4063"/><line style="stroke:#000000;stroke-width:1.0;" x1="77" x2="77" y1="379.4063" y2="381.4063"/><text fill="#000000" font-family="sans-serif" font-size="12" lengthAdjust="spacing" textLength="107" x="84" y="379.7695">Marta S&#225;nchez Ruiz</text><line style="stroke:#000000;stroke-width:1.0;" x1="82" x2="229" y1="382.4063" y2="382.4063"/><line style="stroke:#000000;stroke-width:1.0;" x1="82" x2="82" y1="379.4063" y2="381.4063"/><line style="stroke:#000000;stroke-width:1.0;" x1="229" x2="229" y1="379.4063" y2="381.4063"/><text fill="#000000" font-family="sans-serif" font-size="12" lengthAdjust="spacing" textLength="57" x="236" y="379.7695">Santander</text><line style="stroke:#000000;stroke-width:1.0;" x1="234" x2="309" y1="382.4063" y2="382.4063"/><line style="stroke:#000000;stroke-width:1.0;" x1="234" x2="234" y1="379.4063" y2="381.4063"/><line style="stroke:#000000;stroke-width:1.0;" x1="309" x2="309" y1="379.4063" y2="381.4063"/><text fill="#000000" font-family="sans-serif" font-size="12" lengthAdjust="spacing" textLength="115" x="316" y="379.7695">Investigador-docente</text><line style="stroke:#000000;stroke-width:1.0;" x1="314" x2="477" y1="382.4063" y2="382.4063"/><line style="stroke:#000000;stroke-width:1.0;" x1="314" x2="314" y1="379.4063" y2="381.4063"/><line style="stroke:#000000;stroke-width:1.0;" x1="477" x2="477" y1="379.4063" y2="381.4063"/><text fill="#000000" font-family="sans-serif" font-size="12" lengthAdjust="spacing" textLength="14" x="484" y="379.7695">12</text><line style="stroke:#000000;stroke-width:1.0;" x1="482" x2="501" y1="382.4063" y2="382.4063"/><line style="stroke:#000000;stroke-width:1.0;" x1="482" x2="482" y1="379.4063" y2="381.4063"/><line style="stroke:#000000;stroke-width:1.0;" x1="501" x2="501" y1="379.4063" y2="381.4063"/><text fill="#000000" font-family="sans-serif" font-size="12" lengthAdjust="spacing" textLength="7" x="508" y="379.7695">8</text><line style="stroke:#000000;stroke-width:1.0;" x1="506" x2="517" y1="382.4063" y2="382.4063"/><line style="stroke:#000000;stroke-width:1.0;" x1="506" x2="506" y1="379.4063" y2="381.4063"/><line style="stroke:#000000;stroke-width:1.0;" x1="517" x2="517" y1="379.4063" y2="381.4063"/><text fill="#000000" font-family="sans-serif" font-size="12" lengthAdjust="spacing" textLength="7" x="524" y="379.7695">2</text><line style="stroke:#000000;stroke-width:1.0;" x1="522" x2="533" y1="382.4063" y2="382.4063"/><line style="stroke:#000000;stroke-width:1.0;" x1="522" x2="522" y1="379.4063" y2="381.4063"/><line style="stroke:#000000;stroke-width:1.0;" x1="533" x2="533" y1="379.4063" y2="381.4063"/><text fill="#000000" font-family="sans-serif" font-size="12" lengthAdjust="spacing" textLength="14" x="540" y="379.7695">22</text><line style="stroke:#000000;stroke-width:1.0;" x1="538" x2="557" y1="382.4063" y2="382.4063"/><line style="stroke:#000000;stroke-width:1.0;" x1="538" x2="538" y1="379.4063" y2="381.4063"/><line style="stroke:#000000;stroke-width:1.0;" x1="557" x2="557" y1="379.4063" y2="381.4063"/><text fill="#000000" font-family="sans-serif" font-size="12" lengthAdjust="spacing" textLength="7" x="564" y="379.7695">4</text><line style="stroke:#000000;stroke-width:1.0;" x1="562" x2="573" y1="382.4063" y2="382.4063"/><line style="stroke:#000000;stroke-width:1.0;" x1="562" x2="562" y1="379.4063" y2="381.4063"/><line style="stroke:#000000;stroke-width:1.0;" x1="573" x2="573" y1="379.4063" y2="381.4063"/><text fill="#000000" font-family="sans-serif" font-size="12" lengthAdjust="spacing" textLength="56" x="12" y="400.8633">FNB-0902</text><line style="stroke:#000000;stroke-width:1.0;" x1="10" x2="77" y1="403.5" y2="403.5"/><line style="stroke:#000000;stroke-width:1.0;" x1="10" x2="10" y1="400.5" y2="402.5"/><line style="stroke:#000000;stroke-width:1.0;" x1="77" x2="77" y1="400.5" y2="402.5"/><text fill="#000000" font-family="sans-serif" font-size="12" lengthAdjust="spacing" textLength="100" x="84" y="400.8633">Luis G&#243;mez P&#233;rez</text><line style="stroke:#000000;stroke-width:1.0;" x1="82" x2="213" y1="403.5" y2="403.5"/><line style="stroke:#000000;stroke-width:1.0;" x1="82" x2="82" y1="400.5" y2="402.5"/><line style="stroke:#000000;stroke-width:1.0;" x1="213" x2="213" y1="400.5" y2="402.5"/><text fill="#000000" font-family="sans-serif" font-size="12" lengthAdjust="spacing" textLength="56" x="220" y="400.8633">Barcelona</text><line style="stroke:#000000;stroke-width:1.0;" x1="218" x2="293" y1="403.5" y2="403.5"/><line style="stroke:#000000;stroke-width:1.0;" x1="218" x2="218" y1="400.5" y2="402.5"/><line style="stroke:#000000;stroke-width:1.0;" x1="293" x2="293" y1="400.5" y2="402.5"/><text fill="#000000" font-family="sans-serif" font-size="12" lengthAdjust="spacing" textLength="95" x="300" y="400.8633">Solo investigador</text><line style="stroke:#000000;stroke-width:1.0;" x1="298" x2="437" y1="403.5" y2="403.5"/><line style="stroke:#000000;stroke-width:1.0;" x1="298" x2="298" y1="400.5" y2="402.5"/><line style="stroke:#000000;stroke-width:1.0;" x1="437" x2="437" y1="400.5" y2="402.5"/><text fill="#000000" font-family="sans-serif" font-size="12" lengthAdjust="spacing" textLength="7" x="444" y="400.8633">0</text><line style="stroke:#000000;stroke-width:1.0;" x1="442" x2="453" y1="403.5" y2="403.5"/><line style="stroke:#000000;stroke-width:1.0;" x1="442" x2="442" y1="400.5" y2="402.5"/><line style="stroke:#000000;stroke-width:1.0;" x1="453" x2="453" y1="400.5" y2="402.5"/><text fill="#000000" font-family="sans-serif" font-size="12" lengthAdjust="spacing" textLength="14" x="460" y="400.8633">20</text><line style="stroke:#000000;stroke-width:1.0;" x1="458" x2="477" y1="403.5" y2="403.5"/><line style="stroke:#000000;stroke-width:1.0;" x1="458" x2="458" y1="400.5" y2="402.5"/><line style="stroke:#000000;stroke-width:1.0;" x1="477" x2="477" y1="400.5" y2="402.5"/><text fill="#000000" font-family="sans-serif" font-size="12" lengthAdjust="spacing" textLength="7" x="484" y="400.8633">4</text><line style="stroke:#000000;stroke-width:1.0;" x1="482" x2="493" y1="403.5" y2="403.5"/><line style="stroke:#000000;stroke-width:1.0;" x1="482" x2="482" y1="400.5" y2="402.5"/><line style="stroke:#000000;stroke-width:1.0;" x1="493" x2="493" y1="400.5" y2="402.5"/><text fill="#000000" font-family="sans-serif" font-size="12" lengthAdjust="spacing" textLength="14" x="500" y="400.8633">24</text><line style="stroke:#000000;stroke-width:1.0;" x1="498" x2="517" y1="403.5" y2="403.5"/><line style="stroke:#000000;stroke-width:1.0;" x1="498" x2="498" y1="400.5" y2="402.5"/><line style="stroke:#000000;stroke-width:1.0;" x1="517" x2="517" y1="400.5" y2="402.5"/><text fill="#000000" font-family="sans-serif" font-size="12" lengthAdjust="spacing" textLength="14" x="524" y="400.8633">16</text><line style="stroke:#000000;stroke-width:1.0;" x1="522" x2="541" y1="403.5" y2="403.5"/><line style="stroke:#000000;stroke-width:1.0;" x1="522" x2="522" y1="400.5" y2="402.5"/><line style="stroke:#000000;stroke-width:1.0;" x1="541" x2="541" y1="400.5" y2="402.5"/><line style="stroke:#AAAAAA;stroke-width:1.0;" x1="7" x2="943" y1="413" y2="413"/><text fill="#000000" font-family="sans-serif" font-size="12" font-weight="bold" lengthAdjust="spacing" textLength="127" x="7" y="429.957">Persona seleccionada</text><text fill="#000000" font-family="sans-serif" font-size="12" font-weight="bold" lengthAdjust="spacing" textLength="93" x="8" y="448.0508">C&#243;digo FUNIBER:</text><text fill="#000000" font-family="sans-serif" font-size="12" lengthAdjust="spacing" textLength="56" x="104" y="448.0508">FNB-1188</text><text fill="#000000" font-family="sans-serif" font-size="12" font-weight="bold" lengthAdjust="spacing" textLength="48" x="8" y="465.1445">Nombre:</text><text fill="#000000" font-family="sans-serif" font-size="12" lengthAdjust="spacing" textLength="107" x="59" y="465.1445">Marta S&#225;nchez Ruiz</text><text fill="#000000" font-family="sans-serif" font-size="12" font-weight="bold" lengthAdjust="spacing" textLength="32" x="8" y="482.2383">Sede:</text><text fill="#000000" font-family="sans-serif" font-size="12" lengthAdjust="spacing" textLength="57" x="43" y="482.2383">Santander</text><text fill="#000000" font-family="sans-serif" font-size="12" font-weight="bold" lengthAdjust="spacing" textLength="33" x="8" y="499.332">Perfil:</text><text fill="#000000" font-family="sans-serif" font-size="12" lengthAdjust="spacing" textLength="115" x="44" y="499.332">Investigador-docente</text><text fill="#000000" font-family="sans-serif" font-size="12" font-weight="bold" lengthAdjust="spacing" textLength="30" x="8" y="516.4258">&#193;rea:</text><text fill="#000000" font-family="sans-serif" font-size="12" lengthAdjust="spacing" textLength="138" x="41" y="516.4258">"Educaci&#243;n e innovaci&#243;n"</text><line style="stroke:#AAAAAA;stroke-width:1.0;" x1="8" x2="291" y1="524.5625" y2="524.5625"/><text fill="#000000" font-family="sans-serif" font-size="12" font-weight="bold" lengthAdjust="spacing" textLength="165" x="8" y="541.5195">Docencia (m&#225;x. 16h/semana)</text><text fill="#000000" font-family="sans-serif" font-size="12" lengthAdjust="spacing" textLength="128" x="8" y="558.6133">&#8226; Asignaturas activas: 3</text><text fill="#000000" font-family="sans-serif" font-size="12" lengthAdjust="spacing" textLength="139" x="8" y="575.707">&#8226; Horas docentes: 12 / 16</text><text fill="#000000" font-family="sans-serif" font-size="12" lengthAdjust="spacing" textLength="133" x="8" y="592.8008">&#8226; Margen disponible: 4 h</text><line style="stroke:#AAAAAA;stroke-width:1.0;" x1="8" x2="291" y1="600.9375" y2="600.9375"/><text fill="#000000" font-family="sans-serif" font-size="12" font-weight="bold" lengthAdjust="spacing" textLength="75" x="8" y="617.8945">Investigaci&#243;n</text><text fill="#000000" font-family="sans-serif" font-size="12" lengthAdjust="spacing" textLength="126" x="8" y="634.9883">&#8226; Proyectos en curso: 1</text><text fill="#000000" font-family="sans-serif" font-size="12" lengthAdjust="spacing" textLength="171" x="8" y="652.082">&#8226; Proyecto: PRJ-SOD-2024-021</text><text fill="#000000" font-family="sans-serif" font-size="12" lengthAdjust="spacing" textLength="192" x="8" y="669.1758">&#8226; Horas de investigaci&#243;n: 16 h/sem</text><line style="stroke:#AAAAAA;stroke-width:1.0;" x1="8" x2="291" y1="677.3125" y2="677.3125"/><text fill="#000000" font-family="sans-serif" font-size="12" font-weight="bold" lengthAdjust="spacing" textLength="109" x="8" y="694.2695">Gesti&#243;n acad&#233;mica</text><text fill="#000000" font-family="sans-serif" font-size="12" lengthAdjust="spacing" textLength="154" x="8" y="711.3633">&#8226; Horas de gesti&#243;n: 2 h/sem</text><line style="stroke:#AAAAAA;stroke-width:1.0;" x1="8" x2="291" y1="719.5" y2="719.5"/><text fill="#000000" font-family="sans-serif" font-size="12" font-weight="bold" lengthAdjust="spacing" textLength="83" x="8" y="736.457">Total semanal:</text><text fill="#000000" font-family="sans-serif" font-size="12" lengthAdjust="spacing" textLength="24" x="94" y="736.457">30 h</text><text fill="#000000" font-family="sans-serif" font-size="12" font-weight="bold" lengthAdjust="spacing" textLength="75" x="8" y="753.5508">Observaci&#243;n:</text><text fill="#000000" font-family="sans-serif" font-size="12" lengthAdjust="spacing" textLength="204" x="86" y="753.5508">"No supera el l&#237;mite docente (12/16)."</text><line style="stroke:#AAAAAA;stroke-width:1.5;" x1="7" x2="943" y1="762.6875" y2="762.6875"/><rect fill="#EEEEEE" height="19.0938" rx="5" ry="5" style="stroke:#000000;stroke-width:2.5;" width="124" x="10.5" y="770.6875"/><text fill="#000000" font-family="sans-serif" font-size="12" lengthAdjust="spacing" textLength="70" x="37.5" y="785.1445">Aplicar filtros</text><rect fill="#EEEEEE" height="19.0938" rx="5" ry="5" style="stroke:#000000;stroke-width:2.5;" width="124" x="141.5" y="770.6875"/><text fill="#000000" font-family="sans-serif" font-size="12" lengthAdjust="spacing" textLength="75" x="166" y="785.1445">Limpiar filtros</text><rect fill="#EEEEEE" height="19.0938" rx="5" ry="5" style="stroke:#000000;stroke-width:2.5;" width="188" x="272.5" y="770.6875"/><text fill="#000000" font-family="sans-serif" font-size="12" lengthAdjust="spacing" textLength="124" x="304.5" y="785.1445">Editar carga de trabajo</text><rect fill="#EEEEEE" height="19.0938" rx="5" ry="5" style="stroke:#000000;stroke-width:2.5;" width="52" x="467.5" y="770.6875"/><text fill="#000000" font-family="sans-serif" font-size="12" lengthAdjust="spacing" textLength="33" x="477" y="785.1445">Volver</text><!--SRC=[dLRBSk8u5DtxAswn8Wi7O-XKcifqDSzCQ98mGBBfoaBO2cZAbXZ9PZh9qDNzAJsxB6QLJ_2Vp9VCjMK31kVHemL8rf7k-rnzL06HWI9U06GgcRnSE4nmgjf4piX4aYdvNPX_Cabl9V6fyM00Zbzm99EJwOVUrSLPgpi24zhDqMaJEbsOZ9gjPl_of3Bzi84dCtqyEycyG0grXiN3DDVJ3RPWXSV7rAMD-33y1GzGcWYNg1BEIsF20y9TAfDLYqY7UeAJP7LENCdSPFfRo0AHp4v3SaV-29cNh8Q44p_weU7HunVc2EZqakM0-VgQbfY98CN4uXYP2N0fjEVCeneHKYuKDD5pg1MiSkgZzaCgRvcNrrze_S_uagg0pOWhfEaAX_90tpaMdW2sjLk2rShOSyps-KfwFXFq6LuSDxjgHjyb9R5bQx4EYvxuYzVT5EWqbEAEEe7ultfqCKtTsCKUB7Qkolckoy49fT9nxJ5EF7QF1vFbY3fpebUhV3msgotLlturjhDrH5NeKmupJqo9zyQanNCJ4H1Kcg9IdAXKP_pU5XoIu3YC028mvRumNq2vUZG_oCDyh4MQeWCAvPCCahVYeLIpitbYyFiYroOxTct_-rkSqA5eZ4VZX71YWe25a9bjK5RKnzhn3jxkd7Rqv38idKseruPV27ygAVpKs9oEoU65RLrzhr_JoG9KdbVGkgsudENgON__DDujtD49iVVvV2l8AB4elBsBbbcrx5eIGYHe3mccHoMFVY3RtSCWUbhG-m8AV9PGgaVwpz99eN-Fap-hL2YzUdoSygWC28nHiZD7qQEGeU1u_8HmBG_lsnAk_-g5mgttbjuUX4p1QVJae-HXz2XfAXls-Rw0CbESbSgrKed9efwvfR0OC9MDF8KdUQ-eHvsuQnANv5B_OPV5idHFUwPciColks1T01fJuEvT-AOThlt_Kiyf2aiX-MjugUk6JfhhSJFWOgbNfJpNRrLxHXdh4eePxX2GkogQAF8y4Oz_l_qDJSLcd0IX90g84x0bKGsexS5-5J4WLHmHLHigUFSUBYihfXQ2iwb76r27-MjAvwkxKC-ieocWQSz19Pv5DM0uwflZouvfMtRTjEpgSnRjjLgq2XANlQRqcdA8GzpeqMSEATHyBMYM7cY0_JO9chfIcjU9KRFGcpkmowcYShdzKYXT250XDWe2sC6zw1-VOIDRDxIgNQaU7HoMNkj03v-R2m_Dad2htuutyLC2NsKBjlEjwp9yrwPD2aqDz4issRiMtfBA6rtYAsDbVAJSZL_0XZ7qi7QkpWU008KL3TN3E5w7jV9a7YBNJg7w3cohKRSQrZjeToSGRnyOvTFXO6c34Y6IJvniWMJJCC0R3em-MHAiM7ma-fXybmlA-vrFsGVeyYMJWkFB8Z3wr-SRm57TRB40nkX9Ak7wtEZGMnBYCxtB7U4oFcl0rQHd7Xi3mcSXcU7TL1bjWVVAkmPqn_y1]--></g></svg>