<svg xmlns="http://www.w3.org/2000/svg" xmlns:xlink="http://www.w3.org/1999/xlink" contentStyleType="text/css" data-diagram-type="STATE" height="605px" preserveAspectRatio="none" style="width:412px;height:605px;background:#FFFFFF;" version="1.1" viewBox="0 0 412 605" width="412px" zoomAndPan="magnify"><defs/><g><path d="M19.5,7 L386.5,7 A12.5,12.5 0 0 1 399,19.5 L399,33.2969 L7,33.2969 L7,19.5 A12.5,12.5 0 0 1 19.5,7" fill="#F1F1F1"/><rect fill="none" height="447.2969" rx="12.5" ry="12.5" style="stroke:#181818;stroke-width:0.5;" width="392" x="7" y="7"/><line style="stroke:#181818;stroke-width:0.5;" x1="7" x2="399" y1="33.2969" y2="33.2969"/><text fill="#000000" font-family="sans-serif" font-size="14" lengthAdjust="spacing" textLength="112.499" x="146.7505" y="24.9951">abrirProyectos()</text><g id="abrirProyectos.MostrandoProyectos"><rect fill="#F1F1F1" height="50" rx="12.5" ry="12.5" style="stroke:#181818;stroke-width:0.5;" width="50" x="19" y="135.2969"/><line style="stroke:#181818;stroke-width:0.5;" x1="19" x2="69" y1="161.5938" y2="161.5938"/><text fill="#000000" font-family="sans-serif" font-size="14" lengthAdjust="spacing" textLength="4.4502" x="41.7749" y="153.292">&#160;</text></g><g id="abrirProyectos.ProyectoSelecionado"><rect fill="#F1F1F1" height="50" rx="12.5" ry="12.5" style="stroke:#181818;stroke-width:0.5;" width="50" x="19" y="301.2969"/><line style="stroke:#181818;stroke-width:0.5;" x1="19" x2="69" y1="327.5938" y2="327.5938"/><text fill="#000000" font-family="sans-serif" font-size="14" lengthAdjust="spacing" textLength="4.4502" x="41.7749" y="319.292">&#160;</text></g><ellipse cx="44" cy="54.2969" fill="#222222" rx="10" ry="10" style="stroke:#222222;stroke-width:1;"/><ellipse cx="44" cy="433.2969" fill="none" rx="11" ry="11" style="stroke:#222222;stroke-width:1;"/><ellipse cx="44" cy="433.2969" fill="#222222" rx="6" ry="6" style="stroke:#222222;stroke-width:1;"/><!--link *start*abrirProyectos to MostrandoProyectos--><g class="link" data-entity-1=".start.abrirProyectos" data-entity-2="MostrandoProyectos" data-source-line="8" data-uid="lnk3" id="link_.start.abrirProyectos_MostrandoProyectos"><path d="M44,64.5269 C44,80.2369 44,106.6569 44,129.1669" fill="none" id="*start*abrirProyectos-to-MostrandoProyectos" style="stroke:#008000;stroke-width:1;"/><polygon fill="#008000" points="44,135.1669,48,126.1669,44,130.1669,40,126.1669,44,135.1669" style="stroke:#008000;stroke-width:1;"/><path d="M49,87.2969 L49,112.2969 L387,112.2969 L387,97.2969 L377,87.2969 L49,87.2969" fill="#FEFFDD" style="stroke:#181818;stroke-width:0.5;"/><path d="M377,87.2969 L377,97.2969 L387,97.2969 L377,87.2969" fill="#FEFFDD" style="stroke:#181818;stroke-width:0.5;"/><text fill="#000000" font-family="sans-serif" font-size="13" font-weight="bold" lengthAdjust="spacing" textLength="92.5171" x="55" y="104.3638">Investigador</text><text fill="#000000" font-family="sans-serif" font-size="13" lengthAdjust="spacing" textLength="220.689" x="151.6494" y="104.3638">solicita ver los proyectos actuales</text></g><!--link MostrandoProyectos to ProyectoSelecionado--><g class="link" data-entity-1="MostrandoProyectos" data-entity-2="ProyectoSelecionado" data-source-line="13" data-uid="lnk4" id="link_MostrandoProyectos_ProyectoSelecionado"><path d="M44,185.4969 C44,216.5869 44,264.2469 44,295.2669" fill="none" id="MostrandoProyectos-to-ProyectoSelecionado" style="stroke:#008000;stroke-width:1;"/><polygon fill="#008000" points="44,301.2669,48,292.2669,44,296.2669,40,292.2669,44,301.2669" style="stroke:#008000;stroke-width:1;"/><path d="M49,208.2969 L49,278.2969 L390,278.2969 L390,218.2969 L380,208.2969 L49,208.2969" fill="#FEFFDD" style="stroke:#181818;stroke-width:0.5;"/><path d="M380,208.2969 L380,218.2969 L390,218.2969 L380,208.2969" fill="#FEFFDD" style="stroke:#181818;stroke-width:0.5;"/><text fill="#000000" font-family="sans-serif" font-size="13" font-weight="bold" lengthAdjust="spacing" textLength="58.9063" x="55" y="225.3638">Sistema</text><text fill="#000000" font-family="sans-serif" font-size="13" lengthAdjust="spacing" textLength="257.4038" x="118.0386" y="225.3638">presenta los proyectos del investigador</text><text fill="#000000" font-family="sans-serif" font-size="13" lengthAdjust="spacing" textLength="214.5635" x="55" y="240.4966">&#8226; Titulo de proyecto, Descripcion</text><text fill="#000000" font-family="sans-serif" font-size="13" lengthAdjust="spacing" textLength="234.438" x="55" y="255.6294">&#8226; Permite solicitar abrir un proyecto</text><text fill="#000000" font-family="sans-serif" font-size="13" lengthAdjust="spacing" textLength="314.4438" x="55" y="270.7622">&#8226; Permite solicitar abrir el perfil del investigador</text></g><!--link ProyectoSelecionado to *end*abrirProyectos--><g class="link" data-entity-1="ProyectoSelecionado" data-entity-2=".end.abrirProyectos" data-source-line="21" data-uid="lnk6" id="link_ProyectoSelecionado_.end.abrirProyectos"><path d="M44,351.3869 C44,373.7869 44,400.0669 44,416.2469" fill="none" id="ProyectoSelecionado-to-*end*abrirProyectos" style="stroke:#008000;stroke-width:1;"/><polygon fill="#008000" points="44,422.2469,48,413.2469,44,417.2469,40,413.2469,44,422.2469" style="stroke:#008000;stroke-width:1;"/><path d="M49,374.2969 L49,399.2969 L345,399.2969 L345,384.2969 L335,374.2969 L49,374.2969" fill="#FEFFDD" style="stroke:#181818;stroke-width:0.5;"/><path d="M335,374.2969 L335,384.2969 L345,384.2969 L335,374.2969" fill="#FEFFDD" style="stroke:#181818;stroke-width:0.5;"/><text fill="#000000" font-family="sans-serif" font-size="13" font-weight="bold" lengthAdjust="spacing" textLength="92.5171" x="55" y="391.3638">Investigador</text><text fill="#000000" font-family="sans-serif" font-size="13" lengthAdjust="spacing" textLength="179.2769" x="151.6494" y="391.3638">solicita una de las opciones</text></g><g id="PROYECTO_ABIERTO"><rect fill="#F1F1F1" height="50" rx="12.5" ry="12.5" style="stroke:#181818;stroke-width:0.5;" width="164.3887" x="37" y="549"/><line style="stroke:#181818;stroke-width:0.5;" x1="37" x2="201.3887" y1="575.2969" y2="575.2969"/><text fill="#000000" font-family="sans-serif" font-size="14" lengthAdjust="spacing" textLength="144.3887" x="47" y="566.9951">PROYECTO_ABIERTO</text></g><g id="PERFIL"><rect fill="#F1F1F1" height="50" rx="12.5" ry="12.5" style="stroke:#181818;stroke-width:0.5;" width="66.9971" x="253.5" y="549"/><line style="stroke:#181818;stroke-width:0.5;" x1="253.5" x2="320.4971" y1="575.2969" y2="575.2969"/><text fill="#000000" font-family="sans-serif" font-size="14" lengthAdjust="spacing" textLength="46.9971" x="263.5" y="566.9951">PERFIL</text></g><!--link abrirProyectos to PROYECTO_ABIERTO--><g class="link" data-entity-1="abrirProyectos" data-entity-2="PROYECTO_ABIERTO" data-source-line="27" data-uid="lnk8" id="link_abrirProyectos_PROYECTO_ABIERTO"><path d="M126.32,454.04 C120.02,472.35 116,484 116,484 C116,484 116,519 116,519 C116,519 116.5265,528.4793 117.3265,542.8493" fill="none" id="abrirProyectos-to-PROYECTO_ABIERTO" style="stroke:#008000;stroke-width:1;"/><polygon fill="#008000" points="117.66,548.84,121.1535,539.6316,117.3821,543.8477,113.1659,540.0763,117.66,548.84" style="stroke:#008000;stroke-width:1;"/><path d="M121,489 L121,514 L239,514 L239,499 L229,489 L121,489" fill="#FEFFDD" style="stroke:#181818;stroke-width:0.5;"/><path d="M229,489 L229,499 L239,499 L229,489" fill="#FEFFDD" style="stroke:#181818;stroke-width:0.5;"/><text fill="#000000" font-family="sans-serif" font-size="13" lengthAdjust="spacing" textLength="97.6904" x="127" y="506.0669">abrirProyecto()</text></g><!--link abrirProyectos to PERFIL--><g class="link" data-entity-1="abrirProyectos" data-entity-2="PERFIL" data-source-line="32" data-uid="lnk10" id="link_abrirProyectos_PERFIL"><path d="M257.74,454.04 C267.17,492.39 274.228,521.0534 279.598,542.9034" fill="none" id="abrirProyectos-to-PERFIL" style="stroke:#008000;stroke-width:1;"/><polygon fill="#008000" points="281.03,548.73,282.7664,539.0354,279.8367,543.8745,274.9976,540.9447,281.03,548.73" style="stroke:#008000;stroke-width:1;"/><path d="M277,489 L277,514 L371,514 L371,499 L361,489 L277,489" fill="#FEFFDD" style="stroke:#181818;stroke-width:0.5;"/><path d="M361,489 L361,499 L371,499 L361,489" fill="#FEFFDD" style="stroke:#181818;stroke-width:0.5;"/><text fill="#000000" font-family="sans-serif" font-size="13" lengthAdjust="spacing" textLength="73.6455" x="283" y="506.0669">abrirPerfil()</text></g><!--SRC=[dL9HQW8n4FtFAGRxewNI2uZGrYq8BOhwKqHAt9tAO4n2aXMa57gM7gqdwUmkhaRN5fg5XIHlthpt9dvDsaedDw18OzXP16lKhjW8uOCC27Bfo8sTsM4QZ0VfeHKVjJijU1S2U5KLBVuOzcnyS59dfaQUO_PNKrIOaj4oCnNJ_7e1tVdLoY7gHRT_YKmRvZAwKByk3thB_b1lqGTQCPVhtIxxu8sYb8A4BJfGxC4UtAGXbmehCjHPHSXBrB_ppf6m9WUNb4t91zp8KfHrw56pg5XGXWheo41P-ltv1JCAkJ9yNuDlO80-TMIBjZLkZ6v3t7flsbK3X5pNXNzYMOD5zqQgMSu-fqD63I548V4q_p6kNCl2h-9tOagJ9tCI7qASlCveCfFHI_8m6xtUtG-JoMmaekvHORiZQj9VAPF9u_2fYQYCwuZc1m00]--></g></svg>