<svg xmlns="http://www.w3.org/2000/svg" xmlns:xlink="http://www.w3.org/1999/xlink" contentStyleType="text/css" data-diagram-type="STATE" height="605px" preserveAspectRatio="none" style="width:460px;height:605px;background:#FFFFFF;" version="1.1" viewBox="0 0 460 605" width="460px" zoomAndPan="magnify"><defs/><g><path d="M19.5,7 L386.5,7 A12.5,12.5 0 0 1 399,19.5 L399,33.2969 L7,33.2969 L7,19.5 A12.5,12.5 0 0 1 19.5,7" fill="#F1F1F1"/><rect fill="none" height="447.2969" rx="12.5" ry="12.5" style="stroke:#181818;stroke-width:0.5;" width="392" x="7" y="7"/><line style="stroke:#181818;stroke-width:0.5;" x1="7" x2="399" y1="33.2969" y2="33.2969"/><text fill="#000000" font-family="sans-serif" font-size="14" lengthAdjust="spacing" textLength="112.499" x="146.7505" y="24.9951">abrirProyectos()</text><g id="abrirProyectos.MostrandoProyectos"><rect fill="#F1F1F1" height="50" rx="12.5" ry="12.5" style="stroke:#181818;stroke-width:0.5;" width="50" x="19" y="135.2969"/><line style="stroke:#181818;stroke-width:0.5;" x1="19" x2="69" y1="161.5938" y2="161.5938"/><text fill="#000000" font-family="sans-serif" font-size="14" lengthAdjust="spacing" textLength="4.4502" x="41.7749" y="153.292">&#160;</text></g><g id="abrirProyectos.ProyectoSelecionado"><rect fill="#F1F1F1" height="50" rx="12.5" ry="12.5" style="stroke:#181818;stroke-width:0.5;" width="50" x="19" y="301.2969"/><line style="stroke:#181818;stroke-width:0.5;" x1="19" x2="69" y1="327.5938" y2="327.5938"/><text fill="#000000" font-family="sans-serif" font-size="14" lengthAdjust="spacing" textLength="4.4502" x="41.7749" y="319.292">&#160;</text></g><ellipse cx="44" cy="54.2969" fill="#222222" rx="10" ry="10" style="stroke:#222222;stroke-width:1;"/><ellipse cx="44" cy="433.2969" fill="none" rx="11" ry="11" style="stroke:#222222;stroke-width:1;"/><ellipse cx="44" cy="433.2969" fill="#222222" rx="6" ry="6" style="stroke:#222222;stroke-width:1;"/><!--link *start*abrirProyectos to MostrandoProyectos--><g class="link" data-entity-1=".start.abrirProyectos" data-entity-2="MostrandoProyectos" data-source-line="8" data-uid="lnk3" id="link_.start.abrirProyectos_MostrandoProyectos"><path d="M44,64.5269 C44,80.2369 44,106.6569 44,129.1669" fill="none" id="*start*abrirProyectos-to-MostrandoProyectos" style="stroke:#008000;stroke-width:1;"/><polygon fill="#008000" points="44,135.1669,48,126.1669,44,130.1669,40,126.1669,44,135.1669" style="stroke:#008000;stroke-width:1;"/><path d="M49,87.2969 L49,112.2969 L387,112.2969 L387,97.2969 L377,87.2969 L49,87.2969" fill="#FEFFDD" style="stroke:#181818;stroke-width:0.5;"/><path d="M377,87.2969 L377,97.2969 L387,97.2969 L377,87.2969" fill="#FEFFDD" style="stroke:#181818;stroke-width:0.5;"/><text fill="#000000" font-family="sans-serif" font-size="13" font-weight="bold" lengthAdjust="spacing" textLength="92.5171" x="55" y="104.3638">Investigador</text><text fill="#000000" font-family="sans-serif" font-size="13" lengthAdjust="spacing" textLength="220.689" x="151.6494" y="104.3638">solicita ver los proyectos actuales</text></g><!--link MostrandoProyectos to ProyectoSelecionado--><g class="link" data-entity-1="MostrandoProyectos" data-entity-2="ProyectoSelecionado" data-source-line="13" data-uid="lnk4" id="link_MostrandoProyectos_ProyectoSelecionado"><path d="M44,185.4969 C44,216.5869 44,264.2469 44,295.2669" fill="none" id="MostrandoProyectos-to-ProyectoSelecionado" style="stroke:#008000;stroke-width:1;"/><polygon fill="#008000" points="44,301.2669,48,292.2669,44,296.2669,40,292.2669,44,301.2669" style="stroke:#008000;stroke-width:1;"/><path d="M49,208.2969 L49,278.2969 L390,278.2969 L390,218.2969 L380,208.2969 L49,208.2969" fill="#FEFFDD" style="stroke:#181818;stroke-width:0.5;"/><path d="M380,208.2969 L380,218.2969 L390,218.2969 L380,208.2969" fill="#FEFFDD" style="stroke:#181818;stroke-width:0.5;"/><text fill="#000000" font-family="sans-serif" font-size="13" font-weight="bold" lengthAdjust="spacing" textLength="58.9063" x="55" y="225.3638">Sistema</text><text fill="#000000" font-family="sans-serif" font-size="13" lengthAdjust="spacing" textLength="257.4038" x="118.0386" y="225.3638">presenta los proyectos del investigador</text><text fill="#000000" font-family="sans-serif" font-size="13" lengthAdjust="spacing" textLength="214.5635" x="55" y="240.4966">&#8226; Titulo de proyecto, Descripcion</text><text fill="#000000" font-family="sans-serif" font-size="13" lengthAdjust="spacing" textLength="234.438" x="55" y="255.6294">&#8226; Permite solicitar abrir un proyecto</text><text fill="#000000" font-family="sans-serif" font-size="13" lengthAdjust="spacing" textLength="268.3662" x="55" y="270.7622">&#8226; Permite solicitar abrir el panel principal</text></g><!--link ProyectoSelecionado to *end*abrirProyectos--><g class="link" data-entity-1="ProyectoSelecionado" data-entity-2=".end.abrirProyectos" data-source-line="21" data-uid="lnk6" id="link_ProyectoSelecionado_.end.abrirProyectos"><path d="M44,351.3869 C44,373.7869 44,400.0669 44,416.2469" fill="none" id="ProyectoSelecionado-to-*end*abrirProyectos" style="stroke:#008000;stroke-width:1;"/><polygon fill="#008000" points="44,422.2469,48,413.2469,44,417.2469,40,413.2469,44,422.2469" style="stroke:#008000;stroke-width:1;"/><path d="M49,374.2969 L49,399.2969 L345,399.2969 L345,384.2969 L335,374.2969 L49,374.2969" fill="#FEFFDD" style="stroke:#181818;stroke-width:0.5;"/><path d="M335,374.2969 L335,384.2969 L345,384.2969 L335,374.2969" fill="#FEFFDD" style="stroke:#181818;stroke-width:0.5;"/><text fill="#000000" font-family="sans-serif" font-size="13" font-weight="bold" lengthAdjust="spacing" textLength="92.5171" x="55" y="391.3638">Investigador</text><text fill="#000000" font-family="sans-serif" font-size="13" lengthAdjust="spacing" textLength="179.2769" x="151.6494" y="391.3638">solicita una de las opciones</text></g><g id="PROYECTO_ABIERTO"><rect fill="#F1F1F1" height="50" rx="12.5" ry="12.5" style="stroke:#181818;stroke-width:0.5;" width="164.3887" x="9" y="549"/><line style="stroke:#181818;stroke-width:0.5;" x1="9" x2="173.3887" y1="575.2969" y2="575.2969"/><text fill="#000000" font-family="sans-serif" font-size="14" lengthAdjust="spacing" textLength="144.3887" x="19" y="566.9951">PROYECTO_ABIERTO</text></g><g id="PANEL_PRINCIPAL_ABIERTO"><rect fill="#F1F1F1" height="50" rx="12.5" ry="12.5" style="stroke:#181818;stroke-width:0.5;" width="213.0879" x="208.5" y="549"/><line style="stroke:#181818;stroke-width:0.5;" x1="208.5" x2="421.5879" y1="575.2969" y2="575.2969"/><text fill="#000000" font-family="sans-serif" font-size="14" lengthAdjust="spacing" textLength="193.0879" x="218.5" y="566.9951">PANEL_PRINCIPAL_ABIERTO</text></g><!--link abrirProyectos to PROYECTO_ABIERTO--><g class="link" data-entity-1="abrirProyectos" data-entity-2="PROYECTO_ABIERTO" data-source-line="27" data-uid="lnk8" id="link_abrirProyectos_PROYECTO_ABIERTO"><path d="M130.01,454.04 C117.44,492.39 107.9884,521.1783 100.8284,543.0283" fill="none" id="abrirProyectos-to-PROYECTO_ABIERTO" style="stroke:#008000;stroke-width:1;"/><polygon fill="#008000" points="98.96,548.73,105.5637,541.4231,100.517,543.9786,97.9614,538.9319,98.96,548.73" style="stroke:#008000;stroke-width:1;"/><path d="M124,489 L124,514 L242,514 L242,499 L232,489 L124,489" fill="#FEFFDD" style="stroke:#181818;stroke-width:0.5;"/><path d="M232,489 L232,499 L242,499 L232,489" fill="#FEFFDD" style="stroke:#181818;stroke-width:0.5;"/><text fill="#000000" font-family="sans-serif" font-size="13" lengthAdjust="spacing" textLength="97.6904" x="130" y="506.0669">abrirProyecto()</text></g><!--link abrirProyectos to PANEL_PRINCIPAL_ABIERTO--><g class="link" data-entity-1="abrirProyectos" data-entity-2="PANEL_PRINCIPAL_ABIERTO" data-source-line="32" data-uid="lnk10" id="link_abrirProyectos_PANEL_PRINCIPAL_ABIERTO"><path d="M275.99,454.04 C288.56,492.39 298.0116,521.1783 305.1716,543.0283" fill="none" id="abrirProyectos-to-PANEL_PRINCIPAL_ABIERTO" style="stroke:#008000;stroke-width:1;"/><polygon fill="#008000" points="307.04,548.73,308.0386,538.9319,305.483,543.9786,300.4363,541.4231,307.04,548.73" style="stroke:#008000;stroke-width:1;"/><path d="M301,489 L301,514 L453,514 L453,499 L443,489 L301,489" fill="#FEFFDD" style="stroke:#181818;stroke-width:0.5;"/><path d="M443,489 L443,499 L453,499 L443,489" fill="#FEFFDD" style="stroke:#181818;stroke-width:0.5;"/><text fill="#000000" font-family="sans-serif" font-size="13" lengthAdjust="spacing" textLength="131.9424" x="307" y="506.0669">abrirPanelPrincipal()</text></g><!--SRC=[dLBjQi8m5FsVfxYuFpecUm4HdFD7mTcY_XaY4jkBN8n9I5AXZC6UPO-s9rdQOZL-3PP2eCcvvvvpRkoMfEQ6xq2GH5Te1Ar4KVumPXrt27njo2H65PWwPO5RQ8L7xKuBFXW3l-gAblyyx4rPPxZCL8Eyn1okPYWm9ILvfcgcnUCIkek7ZK6Kosx_5fbKdal9KlssEkYj-v7SetMqyLoczxpkWrM2Kd8SzcX0U0_ww2PrEHTOaw7CQaA_MBDTTWw4NNDmIzcChCCThqHfWnQb5nKAob00dHYeId- -lc5EBXVAtpVW9tX5cnhIPTi6bw3PaMzzC6tg0K8kcy8_iLw3vhBS3ScKD1T1FiTihfWFml5J_CUOSibBdyA_3rMPEviF-sJix5K64vd6xwFXF5uDNgBHT1wpe7jGsEwmXlGkvM0o6g-IQJGPHibWV8-vp2qvn7R2_mi0]--></g></svg>