<?xml version="1.0" encoding="us-ascii" standalone="no"?><svg xmlns="http://www.w3.org/2000/svg" xmlns:xlink="http://www.w3.org/1999/xlink" contentStyleType="text/css" height="959px" preserveAspectRatio="none" style="width:767px;height:959px;background:#FFFFFF;" version="1.1" viewBox="0 0 767 959" width="767px" zoomAndPan="magnify"><defs/><g><g id="in1"><rect fill="#F1F1F1" height="50" rx="12.5" ry="12.5" style="stroke:#181818;stroke-width:0.5;" width="210" x="80" y="7"/><line style="stroke:#181818;stroke-width:0.5;" x1="80" x2="290" y1="34.6094" y2="34.6094"/><text fill="#000000" font-family="sans-serif" font-size="14" lengthAdjust="spacing" textLength="190" x="90" y="26.5332">PANEL_PRINCIPAL_ABIERTO</text></g><path d="M74.5,153 L741.5,153 A12.5,12.5 0 0 1 754,165.5 L754,180.6094 L62,180.6094 L62,165.5 A12.5,12.5 0 0 1 74.5,153 " fill="#F1F1F1" style="stroke:#F1F1F1;stroke-width:1.0;"/><rect fill="none" height="653.6094" rx="12.5" ry="12.5" style="stroke:#181818;stroke-width:0.5;" width="692" x="62" y="153"/><line style="stroke:#181818;stroke-width:0.5;" x1="62" x2="754" y1="180.6094" y2="180.6094"/><text fill="#000000" font-family="sans-serif" font-size="14" lengthAdjust="spacing" textLength="102" x="357" y="172.5332">abrirProyectos()</text><g id="abrirProyectos.MostrandoLista"><rect fill="#F1F1F1" height="50" rx="12.5" ry="12.5" style="stroke:#181818;stroke-width:0.5;" width="50" x="242" y="283.6094"/><line style="stroke:#181818;stroke-width:0.5;" x1="242" x2="292" y1="311.2188" y2="311.2188"/><text fill="#000000" font-family="sans-serif" font-size="14" lengthAdjust="spacing" textLength="4" x="265" y="303.1426">&#160;</text></g><g id="abrirProyectos.FiltrandoLista"><rect fill="#F1F1F1" height="50" rx="12.5" ry="12.5" style="stroke:#181818;stroke-width:0.5;" width="50" x="74" y="651.6094"/><line style="stroke:#181818;stroke-width:0.5;" x1="74" x2="124" y1="679.2188" y2="679.2188"/><text fill="#000000" font-family="sans-serif" font-size="14" lengthAdjust="spacing" textLength="4" x="97" y="671.1426">&#160;</text></g><ellipse cx="267" cy="201.6094" fill="#222222" rx="10" ry="10" style="stroke:#222222;stroke-width:1.0;"/><ellipse cx="263" cy="785.6094" fill="none" rx="11" ry="11" style="stroke:#222222;stroke-width:1.0;"/><ellipse cx="263" cy="785.6094" fill="#222222" rx="6" ry="6" style="stroke:#222222;stroke-width:1.0;"/><!--link *start*abrirProyectos to MostrandoLista--><g id="link_*start*abrirProyectos_MostrandoLista"><path d="M267,211.9294 C267,227.7894 267,254.5194 267,277.2494 " fill="none" id="*start*abrirProyectos-to-MostrandoLista" style="stroke:#008000;stroke-width:1.0;"/><polygon fill="#008000" points="267,283.2494,271,274.2494,267,278.2494,263,274.2494,267,283.2494" style="stroke:#008000;stroke-width:1.0;"/><path d="M272,234.6094 L272,260.6094 L567,260.6094 L567,244.6094 L557,234.6094 L272,234.6094 " fill="#FEFFDD" style="stroke:#181818;stroke-width:0.5;"/><path d="M557,234.6094 L557,244.6094 L567,244.6094 L557,234.6094 " fill="#FEFFDD" style="stroke:#181818;stroke-width:0.5;"/><text fill="#000000" font-family="sans-serif" font-size="13" font-weight="bold" lengthAdjust="spacing" textLength="79" x="278" y="253.1045">Coordinador</text><text fill="#000000" font-family="sans-serif" font-size="13" lengthAdjust="spacing" textLength="191" x="361" y="253.1045">solicita abrir listado de proyectos</text></g><!--link MostrandoLista to FiltrandoLista--><g id="link_MostrandoLista_FiltrandoLista"><path d="M241.9,316.8294 C200.16,328.8394 121,351.6094 121,351.6094 C121,351.6094 106.1358,570.4431 101.0458,645.5331 " fill="none" id="MostrandoLista-to-FiltrandoLista" style="stroke:#008000;stroke-width:1.0;"/><polygon fill="#008000" points="100.64,651.5194,105.2395,642.8105,100.9782,646.5308,97.2578,642.2695,100.64,651.5194" style="stroke:#008000;stroke-width:1.0;"/><path d="M126,356.6094 L126,627.6094 L416,627.6094 L416,366.6094 L406,356.6094 L126,356.6094 " fill="#FEFFDD" style="stroke:#181818;stroke-width:0.5;"/><path d="M406,356.6094 L406,366.6094 L416,366.6094 L406,356.6094 " fill="#FEFFDD" style="stroke:#181818;stroke-width:0.5;"/><text fill="#000000" font-family="sans-serif" font-size="13" font-weight="bold" lengthAdjust="spacing" textLength="51" x="132" y="375.1045">Sistema</text><text fill="#000000" font-family="sans-serif" font-size="13" lengthAdjust="spacing" textLength="214" x="187" y="375.1045">presenta el listado de proyectos con:</text><text fill="#000000" font-family="sans-serif" font-size="13" lengthAdjust="spacing" textLength="21" x="132" y="391.4561">&#8226; ID</text><text fill="#000000" font-family="sans-serif" font-size="13" lengthAdjust="spacing" textLength="40" x="132" y="407.8076">&#8226; T&#237;tulo</text><text fill="#000000" font-family="sans-serif" font-size="13" lengthAdjust="spacing" textLength="50" x="132" y="424.1592">&#8226; Estado</text><text fill="#000000" font-family="sans-serif" font-size="13" lengthAdjust="spacing" textLength="78" x="132" y="440.5107">&#8226; Coordinador</text><text fill="#000000" font-family="sans-serif" font-size="13" lengthAdjust="spacing" textLength="97" x="132" y="456.8623">&#8226; Fecha de inicio</text><text fill="#000000" font-family="sans-serif" font-size="13" lengthAdjust="spacing" textLength="80" x="132" y="473.2139">&#8226; Fecha de fin</text><text fill="#000000" font-family="sans-serif" font-size="13" lengthAdjust="spacing" textLength="4" x="132" y="489.5654">&#160;</text><text fill="#000000" font-family="sans-serif" font-size="13" lengthAdjust="spacing" textLength="192" x="132" y="505.917">Permite filtrar y buscar proyectos</text><text fill="#000000" font-family="sans-serif" font-size="13" lengthAdjust="spacing" textLength="4" x="132" y="522.2686">&#160;</text><text fill="#000000" font-family="sans-serif" font-size="13" lengthAdjust="spacing" textLength="247" x="132" y="538.6201">y permite solicitar las siguientes acciones:</text><text fill="#000000" font-family="sans-serif" font-size="13" lengthAdjust="spacing" textLength="90" x="132" y="554.9717">&#8226; Abrir proyecto</text><text fill="#000000" font-family="sans-serif" font-size="13" lengthAdjust="spacing" textLength="94" x="132" y="571.3232">&#8226; Crear proyecto</text><text fill="#000000" font-family="sans-serif" font-size="13" lengthAdjust="spacing" textLength="84" x="132" y="587.6748">&#8226; Aplicar filtros</text><text fill="#000000" font-family="sans-serif" font-size="13" lengthAdjust="spacing" textLength="86" x="132" y="604.0264">&#8226; Limpiar filtros</text><text fill="#000000" font-family="sans-serif" font-size="13" lengthAdjust="spacing" textLength="123" x="132" y="620.3779">&#8226; Abrir panel principal</text></g><!--link FiltrandoLista to FiltrandoLista--><g id="link_FiltrandoLista_FiltrandoLista"><path d="M124.18,665.0294 C133.91,664.5194 142,668.3794 142,676.6094 C142,684.8394 139.9018,689.0134 130.1718,688.5034 " fill="none" id="FiltrandoLista-to-FiltrandoLista" style="stroke:#008000;stroke-width:1.0;"/><polygon fill="#008000" points="124.18,688.1894,132.9583,692.655,129.1731,688.4511,133.377,684.6659,124.18,688.1894" style="stroke:#008000;stroke-width:1.0;"/><path d="M147,655.6094 L147,697.6094 L386,697.6094 L386,665.6094 L376,655.6094 L147,655.6094 " fill="#FEFFDD" style="stroke:#181818;stroke-width:0.5;"/><path d="M376,655.6094 L376,665.6094 L386,665.6094 L376,655.6094 " fill="#FEFFDD" style="stroke:#181818;stroke-width:0.5;"/><text fill="#000000" font-family="sans-serif" font-size="13" font-weight="bold" lengthAdjust="spacing" textLength="79" x="153" y="674.1045">Coordinador</text><text fill="#000000" font-family="sans-serif" font-size="13" lengthAdjust="spacing" textLength="135" x="236" y="674.1045">filtra o busca proyectos</text><text fill="#000000" font-family="sans-serif" font-size="13" font-weight="bold" lengthAdjust="spacing" textLength="51" x="153" y="690.4561">Sistema</text><text fill="#000000" font-family="sans-serif" font-size="13" lengthAdjust="spacing" textLength="108" x="208" y="690.4561">actualiza el listado</text></g><!--link FiltrandoLista to *end*abrirProyectos--><g id="link_FiltrandoLista_*end*abrirProyectos"><path d="M95.09,701.6194 C93.49,711.4694 92,720.6094 92,720.6094 C92,720.6094 92,756.6094 92,756.6094 C92,756.6094 208.9489,775.7597 246.3789,781.8897 " fill="none" id="FiltrandoLista-to-*end*abrirProyectos" style="stroke:#008000;stroke-width:1.0;"/><polygon fill="#008000" points="252.3,782.8594,244.0648,777.4574,247.3657,782.0513,242.7718,785.3522,252.3,782.8594" style="stroke:#008000;stroke-width:1.0;"/><path d="M97,725.6094 L97,751.6094 L416,751.6094 L416,735.6094 L406,725.6094 L97,725.6094 " fill="#FEFFDD" style="stroke:#181818;stroke-width:0.5;"/><path d="M406,725.6094 L406,735.6094 L416,735.6094 L406,725.6094 " fill="#FEFFDD" style="stroke:#181818;stroke-width:0.5;"/><text fill="#000000" font-family="sans-serif" font-size="13" font-weight="bold" lengthAdjust="spacing" textLength="79" x="103" y="744.1045">Coordinador</text><text fill="#000000" font-family="sans-serif" font-size="13" lengthAdjust="spacing" textLength="215" x="186" y="744.1045">selecciona una opci&#243;n de navegaci&#243;n</text></g><!--link MostrandoLista to *end*abrirProyectos--><g id="link_MostrandoLista_*end*abrirProyectos"><path d="M292.09,316.4494 C335.72,328.3494 421,351.6094 421,351.6094 C421,351.6094 421,756.6094 421,756.6094 C421,756.6094 315.4678,775.3118 279.7678,781.6418 " fill="none" id="MostrandoLista-to-*end*abrirProyectos" style="stroke:#008000;stroke-width:1.0;"/><polygon fill="#008000" points="273.86,782.6894,283.4201,785.0567,278.7832,781.8164,282.0234,777.1795,273.86,782.6894" style="stroke:#008000;stroke-width:1.0;"/><path d="M426,663.6094 L426,689.6094 L745,689.6094 L745,673.6094 L735,663.6094 L426,663.6094 " fill="#FEFFDD" style="stroke:#181818;stroke-width:0.5;"/><path d="M735,663.6094 L735,673.6094 L745,673.6094 L735,663.6094 " fill="#FEFFDD" style="stroke:#181818;stroke-width:0.5;"/><text fill="#000000" font-family="sans-serif" font-size="13" font-weight="bold" lengthAdjust="spacing" textLength="79" x="432" y="682.1045">Coordinador</text><text fill="#000000" font-family="sans-serif" font-size="13" lengthAdjust="spacing" textLength="215" x="515" y="682.1045">selecciona una opci&#243;n de navegaci&#243;n</text></g><g id="in2"><rect fill="#F1F1F1" height="50" rx="12.5" ry="12.5" style="stroke:#181818;stroke-width:0.5;" width="166" x="325" y="7"/><line style="stroke:#181818;stroke-width:0.5;" x1="325" x2="491" y1="34.6094" y2="34.6094"/><text fill="#000000" font-family="sans-serif" font-size="14" lengthAdjust="spacing" textLength="146" x="335" y="26.5332">PROYECTO_ABIERTO</text></g><g id="in3"><rect fill="#F1F1F1" height="50" rx="12.5" ry="12.5" style="stroke:#181818;stroke-width:0.5;" width="190" x="526" y="7"/><line style="stroke:#181818;stroke-width:0.5;" x1="526" x2="716" y1="34.6094" y2="34.6094"/><text fill="#000000" font-family="sans-serif" font-size="14" lengthAdjust="spacing" textLength="170" x="536" y="26.5332">INVESTIGADOR_ABIERTO</text></g><g id="PROYECTOS_ABIERTOS"><rect fill="#F1F1F1" height="50" rx="12.5" ry="12.5" style="stroke:#181818;stroke-width:0.5;" width="184" x="7" y="903"/><line style="stroke:#181818;stroke-width:0.5;" x1="7" x2="191" y1="930.6094" y2="930.6094"/><text fill="#000000" font-family="sans-serif" font-size="14" lengthAdjust="spacing" textLength="164" x="17" y="922.5332">PROYECTOS_ABIERTOS</text></g><g id="PROYECTO_ABIERTO"><rect fill="#F1F1F1" height="50" rx="12.5" ry="12.5" style="stroke:#181818;stroke-width:0.5;" width="166" x="294" y="903"/><line style="stroke:#181818;stroke-width:0.5;" x1="294" x2="460" y1="930.6094" y2="930.6094"/><text fill="#000000" font-family="sans-serif" font-size="14" lengthAdjust="spacing" textLength="146" x="304" y="922.5332">PROYECTO_ABIERTO</text></g><g id="PANEL_PRINCIPAL_ABIERTO"><rect fill="#F1F1F1" height="50" rx="12.5" ry="12.5" style="stroke:#181818;stroke-width:0.5;" width="210" x="541" y="903"/><line style="stroke:#181818;stroke-width:0.5;" x1="541" x2="751" y1="930.6094" y2="930.6094"/><text fill="#000000" font-family="sans-serif" font-size="14" lengthAdjust="spacing" textLength="190" x="551" y="922.5332">PANEL_PRINCIPAL_ABIERTO</text></g><!--link in1 to abrirProyectos--><g id="link_in1_abrirProyectos"><path d="M197.15,57.3 C207.92,78.84 222.3167,107.6334 242.2067,147.4134 " fill="none" id="in1-to-abrirProyectos" style="stroke:#008000;stroke-width:1.0;"/><polygon fill="#008000" points="244.89,152.78,244.4428,142.9413,242.6539,148.3079,237.2874,146.519,244.89,152.78" style="stroke:#008000;stroke-width:1.0;"/></g><!--link in2 to abrirProyectos--><g id="link_in2_abrirProyectos"><path d="M408,57.3 C408,78.84 408,107 408,146.78 " fill="none" id="in2-to-abrirProyectos" style="stroke:#008000;stroke-width:1.0;"/><polygon fill="#008000" points="408,152.78,412,143.78,408,147.78,404,143.78,408,152.78" style="stroke:#008000;stroke-width:1.0;"/></g><!--link in3 to abrirProyectos--><g id="link_in3_abrirProyectos"><path d="M609.4,57.3 C599.11,78.84 585.3859,107.5859 566.3859,147.3659 " fill="none" id="in3-to-abrirProyectos" style="stroke:#008000;stroke-width:1.0;"/><polygon fill="#008000" points="563.8,152.78,571.2883,146.3827,565.9549,148.2682,564.0695,142.9348,563.8,152.78" style="stroke:#008000;stroke-width:1.0;"/><path d="M599,92 L599,118 L724,118 L724,102 L714,92 L599,92 " fill="#FEFFDD" style="stroke:#181818;stroke-width:0.5;"/><path d="M714,92 L714,102 L724,102 L714,92 " fill="#FEFFDD" style="stroke:#181818;stroke-width:0.5;"/><text fill="#000000" font-family="sans-serif" font-size="13" lengthAdjust="spacing" textLength="104" x="605" y="110.4951">abrirProyectos(ID)</text></g><!--link abrirProyectos to PROYECTOS_ABIERTOS--><g id="link_abrirProyectos_PROYECTOS_ABIERTOS"><path d="M151.39,807.26 C136.85,825.75 128,837 128,837 C128,837 117.2001,870.5091 108.6101,897.1691 " fill="none" id="abrirProyectos-to-PROYECTOS_ABIERTOS" style="stroke:#008000;stroke-width:1.0;"/><polygon fill="#008000" points="106.77,902.88,113.3374,895.5404,108.3034,898.1209,105.7229,893.087,106.77,902.88" style="stroke:#008000;stroke-width:1.0;"/><path d="M133,842 L133,868 L314,868 L314,852 L304,842 L133,842 " fill="#FEFFDD" style="stroke:#181818;stroke-width:0.5;"/><path d="M304,842 L304,852 L314,852 L304,842 " fill="#FEFFDD" style="stroke:#181818;stroke-width:0.5;"/><text fill="#000000" font-family="sans-serif" font-size="13" lengthAdjust="spacing" textLength="160" x="139" y="860.4951">Listado de proyectos visible</text></g><!--link abrirProyectos to PROYECTO_ABIERTO--><g id="link_abrirProyectos_PROYECTO_ABIERTO"><path d="M333.77,807.26 C329.56,825.75 327,837 327,837 C327,837 327,873 327,873 C327,873 337.2428,884.0681 350.5528,898.4381 " fill="none" id="abrirProyectos-to-PROYECTO_ABIERTO" style="stroke:#008000;stroke-width:1.0;"/><polygon fill="#008000" points="354.63,902.84,351.4488,893.5191,351.2323,899.1718,345.5796,898.9553,354.63,902.84" style="stroke:#008000;stroke-width:1.0;"/><path d="M332,842 L332,868 L438,868 L438,852 L428,842 L332,842 " fill="#FEFFDD" style="stroke:#181818;stroke-width:0.5;"/><path d="M428,842 L428,852 L438,852 L428,842 " fill="#FEFFDD" style="stroke:#181818;stroke-width:0.5;"/><text fill="#000000" font-family="sans-serif" font-size="13" lengthAdjust="spacing" textLength="85" x="338" y="860.4951">abrirProyecto()</text></g><!--link abrirProyectos to PROYECTO_ABIERTO--><g id="link_abrirProyectos_PROYECTO_ABIERTO"><path d="M443.74,807.26 C445.77,825.75 447,837 447,837 C447,837 447,873 447,873 C447,873 431.7019,884.8067 413.0619,899.1767 " fill="none" id="abrirProyectos-to-PROYECTO_ABIERTO-1" style="stroke:#008000;stroke-width:1.0;"/><polygon fill="#008000" points="408.31,902.84,417.88,900.5129,412.2699,899.7872,412.9956,894.1771,408.31,902.84" style="stroke:#008000;stroke-width:1.0;"/><path d="M452,842 L452,868 L562,868 L562,852 L552,842 L452,842 " fill="#FEFFDD" style="stroke:#181818;stroke-width:0.5;"/><path d="M552,842 L552,852 L562,852 L552,842 " fill="#FEFFDD" style="stroke:#181818;stroke-width:0.5;"/><text fill="#000000" font-family="sans-serif" font-size="13" lengthAdjust="spacing" textLength="89" x="458" y="860.4951">crearProyecto()</text></g><!--link abrirProyectos to PANEL_PRINCIPAL_ABIERTO--><g id="link_abrirProyectos_PANEL_PRINCIPAL_ABIERTO"><path d="M582.06,807.19 C603.37,847.12 618.8361,876.0961 630.3261,897.6361 " fill="none" id="abrirProyectos-to-PANEL_PRINCIPAL_ABIERTO" style="stroke:#008000;stroke-width:1.0;"/><polygon fill="#008000" points="633.15,902.93,632.4434,893.1065,630.7967,898.5184,625.3849,896.8717,633.15,902.93" style="stroke:#008000;stroke-width:1.0;"/><path d="M621,842 L621,868 L758,868 L758,852 L748,842 L621,842 " fill="#FEFFDD" style="stroke:#181818;stroke-width:0.5;"/><path d="M748,842 L748,852 L758,852 L748,842 " fill="#FEFFDD" style="stroke:#181818;stroke-width:0.5;"/><text fill="#000000" font-family="sans-serif" font-size="13" lengthAdjust="spacing" textLength="116" x="627" y="860.4951">abrirPanelPrincipal()</text></g><!--SRC=[jLNDQjj04BxhAHRt4XT2Q78hmQ3OIX6ejh1DeOGGLgkjEsIzAtQbW5iAVPRUUyeZv4tw99rTMRzHWrrQ6O5cTkQRRtvsREv1PbJJBH4WURxBECcKs5d1yqnESqv0lY7Ka57ipuFeBbw6ysaO-z6TVnK6o_LYv5c3qvjN6ysvl3sT49feqB5MEyvoPHgOyn9ckVWOJDUBjl_vGVuNpZ-SVmXMw_2TFriisnWNBs58XGXAsYJllUxPIJWRUrocnDfuLRIkZGlSSnkFo5VF8_YK7YFyeTbxPN9DPQeYGFtpysiGxNDdSFFwjaD-0AEJW5LS9fEfKZe5ILEbBy-I2J5A08ESbkJH59rJHL9iQLq8wzeaQwLki0wF7jS_yLZXATzIno7Jt729E5mC4Y1CoRVEyTVt7oISrP_hfvzv8LGj1ywt5bkvrhfhpZvJYmuIyrRFzPz0bZd6N6yXjmgRa2OxaXI6uKTJ66Ut8zdUigebbX6RPc1J0AR5SH8OXfBSD4duhjeLKiDOSpgWzZC4nWD7PTyGguzWcy60VezE9HOqqo0PP5GCjB7RgxzfOt-Soc8HLTQgDqEzjbEM5rJ0btRVZoE9T-3mGUU2kpPGKk2hCWPFZz9sND87lg5EF6xK_tFuRrvlwtI2LojnLUspLNTXHKCNwG4C98AtLjS14Qe0Bop4a_6_W6Hs-e-67Fw76I9hxqDSNOSs_cy0]--></g></svg>