<?xml version="1.0" encoding="us-ascii" standalone="no"?><svg xmlns="http://www.w3.org/2000/svg" xmlns:xlink="http://www.w3.org/1999/xlink" contentStyleType="text/css" height="908px" preserveAspectRatio="none" style="width:858px;height:908px;background:#FFFFFF;" version="1.1" viewBox="0 0 858 908" width="858px" zoomAndPan="magnify"><defs/><g><g id="in1"><rect fill="#F1F1F1" height="50" rx="12.5" ry="12.5" style="stroke:#181818;stroke-width:0.5;" width="210" x="98" y="7"/><line style="stroke:#181818;stroke-width:0.5;" x1="98" x2="308" y1="34.6094" y2="34.6094"/><text fill="#000000" font-family="sans-serif" font-size="14" lengthAdjust="spacing" textLength="190" x="108" y="26.5332">PANEL_PRINCIPAL_ABIERTO</text></g><path d="M19.5,118 L832.8981,118 A12.5,12.5 0 0 1 845.3981,130.5 L845.3981,145.6094 L7,145.6094 L7,130.5 A12.5,12.5 0 0 1 19.5,118 " fill="#F1F1F1" style="stroke:#F1F1F1;stroke-width:1.0;"/><rect fill="none" height="637.6094" rx="12.5" ry="12.5" style="stroke:#181818;stroke-width:0.5;" width="838.3981" x="7" y="118"/><line style="stroke:#181818;stroke-width:0.5;" x1="7" x2="845.3981" y1="145.6094" y2="145.6094"/><text fill="#000000" font-family="sans-serif" font-size="14" lengthAdjust="spacing" textLength="102" x="375.199" y="137.5332">abrirProyectos()</text><g id="abrirProyectos.MostrandoLista"><rect fill="#F1F1F1" height="50" rx="12.5" ry="12.5" style="stroke:#181818;stroke-width:0.5;" width="50" x="247.3981" y="248.6094"/><line style="stroke:#181818;stroke-width:0.5;" x1="247.3981" x2="297.3981" y1="276.2188" y2="276.2188"/><text fill="#000000" font-family="sans-serif" font-size="14" lengthAdjust="spacing" textLength="4" x="270.3981" y="268.1426">&#160;</text></g><g id="abrirProyectos.FiltrandoLista"><rect fill="#F1F1F1" height="50" rx="12.5" ry="12.5" style="stroke:#181818;stroke-width:0.5;" width="50" x="34.3981" y="600.6094"/><line style="stroke:#181818;stroke-width:0.5;" x1="34.3981" x2="84.3981" y1="628.2188" y2="628.2188"/><text fill="#000000" font-family="sans-serif" font-size="14" lengthAdjust="spacing" textLength="4" x="57.3981" y="620.1426">&#160;</text></g><ellipse cx="272.3981" cy="166.6094" fill="#222222" rx="10" ry="10" style="stroke:#222222;stroke-width:1.0;"/><ellipse cx="313.3981" cy="734.6094" fill="none" rx="11" ry="11" style="stroke:#222222;stroke-width:1.0;"/><ellipse cx="313.3981" cy="734.6094" fill="#222222" rx="6" ry="6" style="stroke:#222222;stroke-width:1.0;"/><!--link *start*abrirProyectos to MostrandoLista--><g id="link_*start*abrirProyectos_MostrandoLista"><path d="M272.3981,176.9294 C272.3981,192.7894 272.3981,219.5194 272.3981,242.2494 " fill="none" id="*start*abrirProyectos-to-MostrandoLista" style="stroke:#008000;stroke-width:1.0;"/><polygon fill="#008000" points="272.3981,248.2494,276.3981,239.2494,272.3981,243.2494,268.3981,239.2494,272.3981,248.2494" style="stroke:#008000;stroke-width:1.0;"/><path d="M277.3981,199.6094 L277.3981,225.6094 L512.3981,225.6094 L512.3981,209.6094 L502.3981,199.6094 L277.3981,199.6094 " fill="#FEFFDD" style="stroke:#181818;stroke-width:0.5;"/><path d="M502.3981,199.6094 L502.3981,209.6094 L512.3981,209.6094 L502.3981,199.6094 " fill="#FEFFDD" style="stroke:#181818;stroke-width:0.5;"/><text fill="#000000" font-family="sans-serif" font-size="13" font-weight="bold" lengthAdjust="spacing" textLength="79" x="283.3981" y="218.1045">Coordinador</text><text fill="#000000" font-family="sans-serif" font-size="13" lengthAdjust="spacing" textLength="131" x="366.3981" y="218.1045">solicita abrir proyectos</text></g><!--link MostrandoLista to FiltrandoLista--><g id="link_MostrandoLista_FiltrandoLista"><path d="M247.2181,278.7894 C183.2181,289.4094 19.3981,316.6094 19.3981,316.6094 C19.3981,316.6094 19.3981,581.6094 19.3981,581.6094 C19.3981,581.6094 23.8121,586.3556 32.9721,596.2056 " fill="none" id="MostrandoLista-to-FiltrandoLista" style="stroke:#008000;stroke-width:1.0;"/><polygon fill="#008000" points="37.0581,600.5994,33.8583,591.2848,33.6531,596.9379,28,596.7327,37.0581,600.5994" style="stroke:#008000;stroke-width:1.0;"/><path d="M24.3981,321.6094 L24.3981,576.6094 L507.3981,576.6094 L507.3981,331.6094 L497.3981,321.6094 L24.3981,321.6094 " fill="#FEFFDD" style="stroke:#181818;stroke-width:0.5;"/><path d="M497.3981,321.6094 L497.3981,331.6094 L507.3981,331.6094 L497.3981,321.6094 " fill="#FEFFDD" style="stroke:#181818;stroke-width:0.5;"/><text fill="#000000" font-family="sans-serif" font-size="13" font-weight="bold" lengthAdjust="spacing" textLength="51" x="30.3981" y="340.1045">Sistema</text><text fill="#000000" font-family="sans-serif" font-size="13" lengthAdjust="spacing" textLength="285" x="85.3981" y="340.1045">presenta un listado de proyectos de investigaci&#243;n</text><text fill="#000000" font-family="sans-serif" font-size="13" lengthAdjust="spacing" textLength="21" x="30.3981" y="356.4561">&#8226; ID</text><text fill="#000000" font-family="sans-serif" font-size="13" lengthAdjust="spacing" textLength="40" x="30.3981" y="372.8076">&#8226; T&#237;tulo</text><text fill="#000000" font-family="sans-serif" font-size="13" lengthAdjust="spacing" textLength="125" x="30.3981" y="389.1592">&#8226; Estado del proyecto</text><text fill="#000000" font-family="sans-serif" font-size="13" lengthAdjust="spacing" textLength="152" x="30.3981" y="405.5107">&#8226; Coordinador responsable</text><text fill="#000000" font-family="sans-serif" font-size="13" lengthAdjust="spacing" textLength="132" x="30.3981" y="421.8623">&#8226; Fechas de inicio y fin</text><text fill="#000000" font-family="sans-serif" font-size="13" lengthAdjust="spacing" textLength="77" x="30.3981" y="438.2139">&#8226; Descripci&#243;n</text><text fill="#000000" font-family="sans-serif" font-size="13" lengthAdjust="spacing" textLength="4" x="30.3981" y="454.5654">&#160;</text><text fill="#000000" font-family="sans-serif" font-size="13" lengthAdjust="spacing" textLength="201" x="30.3981" y="470.917">&#8226; Permite filtrar y buscar proyectos</text><text fill="#000000" font-family="sans-serif" font-size="13" lengthAdjust="spacing" textLength="4" x="30.3981" y="487.2686">&#160;</text><text fill="#000000" font-family="sans-serif" font-size="13" font-weight="bold" lengthAdjust="spacing" textLength="217" x="30.3981" y="503.6201">Regla de presentaci&#243;n del listado:</text><text fill="#000000" font-family="sans-serif" font-size="13" lengthAdjust="spacing" textLength="462" x="30.3981" y="519.9717">&#8226; Si se accede desde PANEL_PRINCIPAL_ABIERTO o PROYECTO_ABIERTO:</text><text fill="#000000" font-family="sans-serif" font-size="13" lengthAdjust="spacing" textLength="238" x="30.3981" y="536.3232">se muestra el listado global de proyectos</text><text fill="#000000" font-family="sans-serif" font-size="13" lengthAdjust="spacing" textLength="291" x="30.3981" y="552.6748">&#8226; Si se accede desde INVESTIGADOR_ABIERTO:</text><text fill="#000000" font-family="sans-serif" font-size="13" lengthAdjust="spacing" textLength="374" x="30.3981" y="569.0264">se muestran &#250;nicamente los proyectos asociados al investigador</text></g><!--link FiltrandoLista to FiltrandoLista--><g id="link_FiltrandoLista_FiltrandoLista"><path d="M84.5781,614.0294 C94.3081,613.5194 102.3981,617.3794 102.3981,625.6094 C102.3981,633.8394 100.2999,638.0134 90.5699,637.5034 " fill="none" id="FiltrandoLista-to-FiltrandoLista" style="stroke:#008000;stroke-width:1.0;"/><polygon fill="#008000" points="84.5781,637.1894,93.3564,641.655,89.5712,637.4511,93.7751,633.6659,84.5781,637.1894" style="stroke:#008000;stroke-width:1.0;"/><path d="M107.3981,604.6094 L107.3981,646.6094 L346.3981,646.6094 L346.3981,614.6094 L336.3981,604.6094 L107.3981,604.6094 " fill="#FEFFDD" style="stroke:#181818;stroke-width:0.5;"/><path d="M336.3981,604.6094 L336.3981,614.6094 L346.3981,614.6094 L336.3981,604.6094 " fill="#FEFFDD" style="stroke:#181818;stroke-width:0.5;"/><text fill="#000000" font-family="sans-serif" font-size="13" font-weight="bold" lengthAdjust="spacing" textLength="79" x="113.3981" y="623.1045">Coordinador</text><text fill="#000000" font-family="sans-serif" font-size="13" lengthAdjust="spacing" textLength="135" x="196.3981" y="623.1045">filtra o busca proyectos</text><text fill="#000000" font-family="sans-serif" font-size="13" font-weight="bold" lengthAdjust="spacing" textLength="51" x="113.3981" y="639.4561">Sistema</text><text fill="#000000" font-family="sans-serif" font-size="13" lengthAdjust="spacing" textLength="108" x="168.3981" y="639.4561">actualiza el listado</text></g><!--link FiltrandoLista to *end*abrirProyectos--><g id="link_FiltrandoLista_*end*abrirProyectos"><path d="M84.4881,642.5994 C120.7281,665.6794 183.3981,705.6094 183.3981,705.6094 C183.3981,705.6094 265.8427,723.3656 296.8927,730.0556 " fill="none" id="FiltrandoLista-to-*end*abrirProyectos" style="stroke:#008000;stroke-width:1.0;"/><polygon fill="#008000" points="302.7581,731.3194,294.8025,725.5135,297.8703,730.2662,293.1175,733.334,302.7581,731.3194" style="stroke:#008000;stroke-width:1.0;"/><path d="M188.3981,674.6094 L188.3981,700.6094 L507.3981,700.6094 L507.3981,684.6094 L497.3981,674.6094 L188.3981,674.6094 " fill="#FEFFDD" style="stroke:#181818;stroke-width:0.5;"/><path d="M497.3981,674.6094 L497.3981,684.6094 L507.3981,684.6094 L497.3981,674.6094 " fill="#FEFFDD" style="stroke:#181818;stroke-width:0.5;"/><text fill="#000000" font-family="sans-serif" font-size="13" font-weight="bold" lengthAdjust="spacing" textLength="79" x="194.3981" y="693.1045">Coordinador</text><text fill="#000000" font-family="sans-serif" font-size="13" lengthAdjust="spacing" textLength="215" x="277.3981" y="693.1045">selecciona una opci&#243;n de navegaci&#243;n</text></g><!--link MostrandoLista to *end*abrirProyectos--><g id="link_MostrandoLista_*end*abrirProyectos"><path d="M297.6281,279.0294 C359.2481,289.8094 512.3981,316.6094 512.3981,316.6094 C512.3981,316.6094 512.3981,705.6094 512.3981,705.6094 C512.3981,705.6094 372.0396,725.3534 330.3196,731.2234 " fill="none" id="MostrandoLista-to-*end*abrirProyectos" style="stroke:#008000;stroke-width:1.0;"/><polygon fill="#008000" points="324.3781,732.0594,333.8476,734.7664,329.3293,731.3627,332.733,726.8444,324.3781,732.0594" style="stroke:#008000;stroke-width:1.0;"/><path d="M517.3981,612.6094 L517.3981,638.6094 L836.3981,638.6094 L836.3981,622.6094 L826.3981,612.6094 L517.3981,612.6094 " fill="#FEFFDD" style="stroke:#181818;stroke-width:0.5;"/><path d="M826.3981,612.6094 L826.3981,622.6094 L836.3981,622.6094 L826.3981,612.6094 " fill="#FEFFDD" style="stroke:#181818;stroke-width:0.5;"/><text fill="#000000" font-family="sans-serif" font-size="13" font-weight="bold" lengthAdjust="spacing" textLength="79" x="523.3981" y="631.1045">Coordinador</text><text fill="#000000" font-family="sans-serif" font-size="13" lengthAdjust="spacing" textLength="215" x="606.3981" y="631.1045">selecciona una opci&#243;n de navegaci&#243;n</text></g><g id="in2"><rect fill="#F1F1F1" height="50" rx="12.5" ry="12.5" style="stroke:#181818;stroke-width:0.5;" width="166" x="343" y="7"/><line style="stroke:#181818;stroke-width:0.5;" x1="343" x2="509" y1="34.6094" y2="34.6094"/><text fill="#000000" font-family="sans-serif" font-size="14" lengthAdjust="spacing" textLength="146" x="353" y="26.5332">PROYECTO_ABIERTO</text></g><g id="in3"><rect fill="#F1F1F1" height="50" rx="12.5" ry="12.5" style="stroke:#181818;stroke-width:0.5;" width="190" x="544" y="7"/><line style="stroke:#181818;stroke-width:0.5;" x1="544" x2="734" y1="34.6094" y2="34.6094"/><text fill="#000000" font-family="sans-serif" font-size="14" lengthAdjust="spacing" textLength="170" x="554" y="26.5332">INVESTIGADOR_ABIERTO</text></g><g id="PROYECTOS_ABIERTOS"><rect fill="#F1F1F1" height="50" rx="12.5" ry="12.5" style="stroke:#181818;stroke-width:0.5;" width="184" x="25" y="852"/><line style="stroke:#181818;stroke-width:0.5;" x1="25" x2="209" y1="879.6094" y2="879.6094"/><text fill="#000000" font-family="sans-serif" font-size="14" lengthAdjust="spacing" textLength="164" x="35" y="871.5332">PROYECTOS_ABIERTOS</text></g><g id="PROYECTO_ABIERTO"><rect fill="#F1F1F1" height="50" rx="12.5" ry="12.5" style="stroke:#181818;stroke-width:0.5;" width="166" x="312" y="852"/><line style="stroke:#181818;stroke-width:0.5;" x1="312" x2="478" y1="879.6094" y2="879.6094"/><text fill="#000000" font-family="sans-serif" font-size="14" lengthAdjust="spacing" textLength="146" x="322" y="871.5332">PROYECTO_ABIERTO</text></g><g id="PANEL_PRINCIPAL_ABIERTO"><rect fill="#F1F1F1" height="50" rx="12.5" ry="12.5" style="stroke:#181818;stroke-width:0.5;" width="210" x="559" y="852"/><line style="stroke:#181818;stroke-width:0.5;" x1="559" x2="769" y1="879.6094" y2="879.6094"/><text fill="#000000" font-family="sans-serif" font-size="14" lengthAdjust="spacing" textLength="190" x="569" y="871.5332">PANEL_PRINCIPAL_ABIERTO</text></g><!--link in1 to abrirProyectos--><g id="link_in1_abrirProyectos"><path d="M216.28,57 C224.58,72 233.3755,87.8799 247.0455,112.5899 " fill="none" id="in1-to-abrirProyectos" style="stroke:#008000;stroke-width:1.0;"/><polygon fill="#008000" points="249.95,117.84,249.0934,108.0285,247.5296,113.4649,242.0932,111.9011,249.95,117.84" style="stroke:#008000;stroke-width:1.0;"/></g><!--link in2 to abrirProyectos--><g id="link_in2_abrirProyectos"><path d="M426,57 C426,72 426,87.13 426,111.84 " fill="none" id="in2-to-abrirProyectos" style="stroke:#008000;stroke-width:1.0;"/><polygon fill="#008000" points="426,117.84,430,108.84,426,112.84,422,108.84,426,117.84" style="stroke:#008000;stroke-width:1.0;"/></g><!--link in3 to abrirProyectos--><g id="link_in3_abrirProyectos"><path d="M626.31,57 C618.39,72 610.0237,87.8253 596.9637,112.5353 " fill="none" id="in3-to-abrirProyectos" style="stroke:#008000;stroke-width:1.0;"/><polygon fill="#008000" points="594.16,117.84,601.902,111.7521,596.4964,113.4195,594.8291,108.0139,594.16,117.84" style="stroke:#008000;stroke-width:1.0;"/></g><!--link abrirProyectos to PROYECTOS_ABIERTOS--><g id="link_abrirProyectos_PROYECTOS_ABIERTOS"><path d="M170.11,756.03 C155.14,774.64 146,786 146,786 C146,786 135.2001,819.5091 126.6101,846.1691 " fill="none" id="abrirProyectos-to-PROYECTOS_ABIERTOS" style="stroke:#008000;stroke-width:1.0;"/><polygon fill="#008000" points="124.77,851.88,131.3374,844.5404,126.3034,847.1209,123.7229,842.087,124.77,851.88" style="stroke:#008000;stroke-width:1.0;"/><path d="M151,791 L151,817 L332,817 L332,801 L322,791 L151,791 " fill="#FEFFDD" style="stroke:#181818;stroke-width:0.5;"/><path d="M322,791 L322,801 L332,801 L322,791 " fill="#FEFFDD" style="stroke:#181818;stroke-width:0.5;"/><text fill="#000000" font-family="sans-serif" font-size="13" lengthAdjust="spacing" textLength="160" x="157" y="809.4951">Listado de proyectos visible</text></g><!--link abrirProyectos to PROYECTO_ABIERTO--><g id="link_abrirProyectos_PROYECTO_ABIERTO"><path d="M351.98,756.03 C347.64,774.64 345,786 345,786 C345,786 345,822 345,822 C345,822 355.2428,833.0681 368.5528,847.4381 " fill="none" id="abrirProyectos-to-PROYECTO_ABIERTO" style="stroke:#008000;stroke-width:1.0;"/><polygon fill="#008000" points="372.63,851.84,369.4488,842.5191,369.2323,848.1718,363.5796,847.9553,372.63,851.84" style="stroke:#008000;stroke-width:1.0;"/><path d="M350,791 L350,817 L456,817 L456,801 L446,791 L350,791 " fill="#FEFFDD" style="stroke:#181818;stroke-width:0.5;"/><path d="M446,791 L446,801 L456,801 L446,791 " fill="#FEFFDD" style="stroke:#181818;stroke-width:0.5;"/><text fill="#000000" font-family="sans-serif" font-size="13" lengthAdjust="spacing" textLength="85" x="356" y="809.4951">abrirProyecto()</text></g><!--link abrirProyectos to PROYECTO_ABIERTO--><g id="link_abrirProyectos_PROYECTO_ABIERTO"><path d="M461.64,756.03 C463.73,774.64 465,786 465,786 C465,786 465,822 465,822 C465,822 449.7019,833.8067 431.0619,848.1767 " fill="none" id="abrirProyectos-to-PROYECTO_ABIERTO-1" style="stroke:#008000;stroke-width:1.0;"/><polygon fill="#008000" points="426.31,851.84,435.88,849.5129,430.2699,848.7872,430.9956,843.1771,426.31,851.84" style="stroke:#008000;stroke-width:1.0;"/><path d="M470,791 L470,817 L580,817 L580,801 L570,791 L470,791 " fill="#FEFFDD" style="stroke:#181818;stroke-width:0.5;"/><path d="M570,791 L570,801 L580,801 L570,791 " fill="#FEFFDD" style="stroke:#181818;stroke-width:0.5;"/><text fill="#000000" font-family="sans-serif" font-size="13" lengthAdjust="spacing" textLength="89" x="476" y="809.4951">crearProyecto()</text></g><!--link abrirProyectos to PANEL_PRINCIPAL_ABIERTO--><g id="link_abrirProyectos_PANEL_PRINCIPAL_ABIERTO"><path d="M598.81,756.03 C620.48,795.91 636.2756,824.9779 648.0056,846.5679 " fill="none" id="abrirProyectos-to-PANEL_PRINCIPAL_ABIERTO" style="stroke:#008000;stroke-width:1.0;"/><polygon fill="#008000" points="650.87,851.84,650.0882,842.0222,648.483,847.4466,643.0587,845.8414,650.87,851.84" style="stroke:#008000;stroke-width:1.0;"/><path d="M639,791 L639,817 L776,817 L776,801 L766,791 L639,791 " fill="#FEFFDD" style="stroke:#181818;stroke-width:0.5;"/><path d="M766,791 L766,801 L776,801 L766,791 " fill="#FEFFDD" style="stroke:#181818;stroke-width:0.5;"/><text fill="#000000" font-family="sans-serif" font-size="13" lengthAdjust="spacing" textLength="116" x="645" y="809.4951">abrirPanelPrincipal()</text></g><!--SRC=[jLHDQzj04BthLmpk9Ic4qkGMWi6rdI9mRM6RGWaXh5OJTyXwL-pA1hSK-bjwxwctNlrF-aiwagpFAi4fhGr6sjbvR-RD6xi7qh6mOWsAD2Qx624sQfU-U9vBH890-ZK81xrWC1rFxeAvFntwmM1oDtZZZ-VBMSzBBvpTl5XPH7rxrWSHMhA1DJkKYN4Lp7aECvzz60-Nith- -L7v5rc-Ftq_NYpzjuFHR5x7k7WIum3IFCxmcaSdfptux7d0dpoZnr- -ziwun0eTcGdn-P_nQrBrU7RXvkLjewOE36qOmkXK_8Viu2hi3usn4MaH6NlrAko3Cuea9I8l7kAogVG-wYW3oHcR30toLe6FaIyuYckH4SSM7Mh6sQHtE2io465LGFf2UeikePMGjF-XCvHVNx-1FoeVb_lloKQPydrS0AaIgOpLMWScZurs8bHOngzHVXG7NjR4m0xkgM8TePEMuggKCXAWNHDtUv-fO3alt3WfwceM2innfKJUPzv-1fVLUn3XCbMdX5uGE3QMbCWv4Jh-VMHJm43R_9Uvan3M6qn71nKBh9G9XMee_XHfrrwquJNiVx9mOirz8IWUOLpR1IE9UVb9LMFbINJuh6ccl_5Ps-JvO5YXR2wjZbk-53BP24MVwcezhqZUpEFN3nLAzffEzu0hZ0i_W1PRh1l_w5typ_HVFA_rFrSdBoouA4ooy1frJBesVKkEqaMiMZo2eI1euZSIJqx_1QIqA9uFsRsaNSKAZIgmf2N5GjNnVmC0]--></g></svg>