<svg xmlns="http://www.w3.org/2000/svg" xmlns:xlink="http://www.w3.org/1999/xlink" contentStyleType="text/css" data-diagram-type="STATE" height="677px" preserveAspectRatio="none" style="width:723px;height:677px;background:#FFFFFF;" version="1.1" viewBox="0 0 723 677" width="723px" zoomAndPan="magnify"><defs/><g><path d="M19.5,7 L697.5,7 A12.5,12.5 0 0 1 710,19.5 L710,33.2969 L7,33.2969 L7,19.5 A12.5,12.5 0 0 1 19.5,7" fill="#F1F1F1"/><rect fill="none" height="519.2969" rx="12.5" ry="12.5" style="stroke:#181818;stroke-width:0.5;" width="703" x="7" y="7"/><line style="stroke:#181818;stroke-width:0.5;" x1="7" x2="710" y1="33.2969" y2="33.2969"/><text fill="#000000" font-family="sans-serif" font-size="14" lengthAdjust="spacing" textLength="243.9131" x="236.5435" y="24.9951">resolverSolicitudEliminacionPerfil()</text><g><rect fill="#F1F1F1" height="50" rx="12.5" ry="12.5" style="stroke:#181818;stroke-width:0.5;" width="50" x="218" y="135.2969"/><line style="stroke:#181818;stroke-width:0.5;" x1="218" x2="268" y1="161.5938" y2="161.5938"/><text fill="#000000" font-family="sans-serif" font-size="14" lengthAdjust="spacing" textLength="4.4502" x="240.7749" y="153.292">&#160;</text></g><g><rect fill="#F1F1F1" height="50" rx="12.5" ry="12.5" style="stroke:#181818;stroke-width:0.5;" width="50" x="218" y="271.2969"/><line style="stroke:#181818;stroke-width:0.5;" x1="218" x2="268" y1="297.5938" y2="297.5938"/><text fill="#000000" font-family="sans-serif" font-size="14" lengthAdjust="spacing" textLength="4.4502" x="240.7749" y="289.292">&#160;</text></g><g><rect fill="#F1F1F1" height="50" rx="12.5" ry="12.5" style="stroke:#181818;stroke-width:0.5;" width="50" x="218" y="407.2969"/><line style="stroke:#181818;stroke-width:0.5;" x1="218" x2="268" y1="433.5938" y2="433.5938"/><text fill="#000000" font-family="sans-serif" font-size="14" lengthAdjust="spacing" textLength="4.4502" x="240.7749" y="425.292">&#160;</text></g><ellipse cx="243" cy="54.2969" fill="#222222" rx="10" ry="10" style="stroke:#222222;stroke-width:1;"/><ellipse cx="243" cy="505.2969" fill="none" rx="11" ry="11" style="stroke:#222222;stroke-width:1;"/><ellipse cx="243" cy="505.2969" fill="#222222" rx="6" ry="6" style="stroke:#222222;stroke-width:1;"/><!--link *start*resolverSolicitudEliminacionPerfil to ListandoSolicitudes--><g class="link" data-entity-1="ent0002" data-entity-2="ent0003" data-link-type="dependency" data-source-line="9" id="lnk3"><path d="M243,64.5269 C243,80.2369 243,106.6569 243,129.1669" fill="none" id="*start*resolverSolicitudEliminacionPerfil-to-ListandoSolicitudes" style="stroke:#008000;stroke-width:1;"/><polygon fill="#008000" points="243,135.1669,247,126.1669,243,130.1669,239,126.1669,243,135.1669" style="stroke:#008000;stroke-width:1;"/><path d="M248,87.2969 L248,112.2969 L593,112.2969 L593,97.2969 L583,87.2969 L248,87.2969" fill="#FEFFDD" style="stroke:#181818;stroke-width:0.5;"/><path d="M583,87.2969 L583,97.2969 L593,97.2969 L583,87.2969" fill="#FEFFDD" style="stroke:#181818;stroke-width:0.5;"/><text fill="#000000" font-family="sans-serif" font-size="13" font-weight="bold" lengthAdjust="spacing" textLength="90.251" x="254" y="104.3638">Coordinador</text><text fill="#000000" font-family="sans-serif" font-size="13" lengthAdjust="spacing" textLength="230.2168" x="348.3833" y="104.3638">solicita abrir solicitudes pendientes</text></g><!--link ListandoSolicitudes to EvaluandoSolicitud--><g class="link" data-entity-1="ent0003" data-entity-2="ent0004" data-link-type="dependency" data-source-line="14" id="lnk4"><path d="M217.63,166.0369 C158.78,177.0169 18,203.2969 18,203.2969 C18,203.2969 18,253.2969 18,253.2969 C18,253.2969 152.8818,278.4764 211.7318,289.4564" fill="none" id="ListandoSolicitudes-to-EvaluandoSolicitud" style="stroke:#008000;stroke-width:1;"/><polygon fill="#008000" points="217.63,290.5569,209.5163,284.974,212.7148,289.6398,208.049,292.8383,217.63,290.5569" style="stroke:#008000;stroke-width:1;"/><path d="M23,208.2969 L23,248.2969 L442,248.2969 L442,218.2969 L432,208.2969 L23,208.2969" fill="#FEFFDD" style="stroke:#181818;stroke-width:0.5;"/><path d="M432,208.2969 L432,218.2969 L442,218.2969 L432,208.2969" fill="#FEFFDD" style="stroke:#181818;stroke-width:0.5;"/><text fill="#000000" font-family="sans-serif" font-size="13" font-weight="bold" lengthAdjust="spacing" textLength="58.9063" x="29" y="225.3638">Sistema</text><text fill="#000000" font-family="sans-serif" font-size="13" lengthAdjust="spacing" textLength="335.937" x="92.0386" y="225.3638">muestra lista de solicitudes de eliminaci&#243;n de perfil</text><text fill="#000000" font-family="sans-serif" font-size="13" lengthAdjust="spacing" textLength="84.3604" x="29" y="240.4966">&#8226; ID, nombre</text></g><!--link EvaluandoSolicitud to Resultado--><g class="link" data-entity-1="ent0004" data-entity-2="ent0005" data-link-type="dependency" data-source-line="20" id="lnk5"><path d="M243,321.5669 C243,345.8469 243,376.9869 243,401.2069" fill="none" id="EvaluandoSolicitud-to-Resultado" style="stroke:#008000;stroke-width:1;"/><polygon fill="#008000" points="243,407.2069,247,398.2069,243,402.2069,239,398.2069,243,407.2069" style="stroke:#008000;stroke-width:1;"/><path d="M248,344.2969 L248,384.2969 L595,384.2969 L595,354.2969 L585,344.2969 L248,344.2969" fill="#FEFFDD" style="stroke:#181818;stroke-width:0.5;"/><path d="M585,344.2969 L585,354.2969 L595,354.2969 L585,344.2969" fill="#FEFFDD" style="stroke:#181818;stroke-width:0.5;"/><text fill="#000000" font-family="sans-serif" font-size="13" font-weight="bold" lengthAdjust="spacing" textLength="90.251" x="254" y="361.3638">Coordinador</text><text fill="#000000" font-family="sans-serif" font-size="13" lengthAdjust="spacing" textLength="232.4639" x="348.3833" y="361.3638">solicita aprobar o rechazar solicitud</text><text fill="#000000" font-family="sans-serif" font-size="13" font-weight="bold" lengthAdjust="spacing" textLength="58.9063" x="254" y="376.4966">Sistema</text><text fill="#000000" font-family="sans-serif" font-size="13" lengthAdjust="spacing" textLength="167.3623" x="317.0386" y="376.4966">presenta estado del perfil</text></g><!--link EvaluandoSolicitud to ListandoSolicitudes--><g class="link" data-entity-1="ent0004" data-entity-2="ent0003" data-link-type="dependency" data-source-line="26" id="lnk6"><path d="M268.42,290.0669 C323.11,278.8069 447,253.2969 447,253.2969 C447,253.2969 447,203.2969 447,203.2969 C447,203.2969 328.9867,178.9968 274.2967,167.7368" fill="none" id="EvaluandoSolicitud-to-ListandoSolicitudes" style="stroke:#FF0000;stroke-width:1;"/><polygon fill="#FF0000" points="268.42,166.5269,276.4285,172.2596,273.3173,167.5352,278.0417,164.424,268.42,166.5269" style="stroke:#FF0000;stroke-width:1;"/><path d="M452,215.7969 L452,240.7969 L701,240.7969 L701,225.7969 L691,215.7969 L452,215.7969" fill="#FEFFDD" style="stroke:#181818;stroke-width:0.5;"/><path d="M691,215.7969 L691,225.7969 L701,225.7969 L691,215.7969" fill="#FEFFDD" style="stroke:#181818;stroke-width:0.5;"/><text fill="#000000" font-family="sans-serif" font-size="13" font-weight="bold" lengthAdjust="spacing" textLength="90.251" x="458" y="232.8638">Coordinador</text><text fill="#000000" font-family="sans-serif" font-size="13" lengthAdjust="spacing" textLength="134.3862" x="552.3833" y="232.8638">cancela la operaci&#243;n</text></g><!--link Resultado to *end*resolverSolicitudEliminacionPerfil--><g class="link" data-entity-1="ent0005" data-entity-2="ent0007" data-link-type="dependency" data-source-line="31" id="lnk8"><path d="M243,457.7269 C243,470.0869 243,478.4269 243,487.8969" fill="none" id="Resultado-to-*end*resolverSolicitudEliminacionPerfil" style="stroke:#008000;stroke-width:1;"/><polygon fill="#008000" points="243,493.8969,247,484.8969,243,488.8969,239,484.8969,243,493.8969" style="stroke:#008000;stroke-width:1;"/></g><g><rect fill="#F1F1F1" height="50" rx="12.5" ry="12.5" style="stroke:#181818;stroke-width:0.5;" width="215.043" x="250.98" y="621.3"/><line style="stroke:#181818;stroke-width:0.5;" x1="250.98" x2="466.023" y1="647.5969" y2="647.5969"/><text fill="#000000" font-family="sans-serif" font-size="14" lengthAdjust="spacing" textLength="195.043" x="260.98" y="639.2951">OPCIONES_PERFIL_ABIERTO</text></g><!--link resolverSolicitudEliminacionPerfil to OPCIONES_PERFIL_ABIERTO--><g class="link" data-entity-1="ent0002" data-entity-2="ent0009" data-link-type="dependency" data-source-line="35" id="lnk10"><path d="M358.5,526.59 C358.5,565.27 358.5,593.38 358.5,614.99" fill="none" id="resolverSolicitudEliminacionPerfil-to-OPCIONES_PERFIL_ABIERTO" style="stroke:#008000;stroke-width:1;"/><polygon fill="#008000" points="358.5,620.99,362.5,611.99,358.5,615.99,354.5,611.99,358.5,620.99" style="stroke:#008000;stroke-width:1;"/><path d="M363.5,561.3 L363.5,586.3 L517.5,586.3 L517.5,571.3 L507.5,561.3 L363.5,561.3" fill="#FEFFDD" style="stroke:#181818;stroke-width:0.5;"/><path d="M507.5,561.3 L507.5,571.3 L517.5,571.3 L507.5,561.3" fill="#FEFFDD" style="stroke:#181818;stroke-width:0.5;"/><text fill="#000000" font-family="sans-serif" font-size="13" lengthAdjust="spacing" textLength="133.853" x="369.5" y="578.3669">abrirOpcionesPerfil()</text></g><!--SRC=[fPDHIiD048RVznH3VL6nU85Iq1eXK4nfVIkbJBAZBjtiXjsaK4NmB5x18tWJJ-8aCRMXAIecJvET-UURVoT-fKo63bFGob2-oGWogpTb88JFCITmvArUavjPhHAL5pBGAbK64sNDXDoTqe0UUZ-d7P_qu4a8uATMxl7BfMF5eP5sMqb-FobOeovQMVivK_A5pb7QkidyT07z-T6z8pAB_l1W7sDPmfhIWLNrOH0FHzOwoVJIki5vF0HVro1Wx9Hhmb82CZ9IaSc_r3Yg56k6ZfujfWDZTI7DM8fIh73IWdpkaCzP7YIrW3YanlltDrF6MNK1bTB7ook4LsVS8eqTTI3l8xM8lqt-ktUPip4wiBnJoGC-uewHNLDcl5DiB08FoseyYDwTv3VOZkH_hpv1av1chn4iTwzDxG3O6jEoYvUmEXNFGlpYJzejZIQZCBe9Pij9CBqEnykBop2OtaQY1LtjOvIL4kIR_qmqP9y0]--></g></svg>