<?xml version="1.0" encoding="us-ascii" standalone="no"?><svg xmlns="http://www.w3.org/2000/svg" xmlns:xlink="http://www.w3.org/1999/xlink" contentStyleType="text/css" height="720px" preserveAspectRatio="none" style="width:545px;height:720px;background:#FFFFFF;" version="1.1" viewBox="0 0 545 720" width="545px" zoomAndPan="magnify"><defs/><g><path d="M19.5,7 L519.5,7 A12.5,12.5 0 0 1 532,19.5 L532,34.6094 L7,34.6094 L7,19.5 A12.5,12.5 0 0 1 19.5,7 " fill="#F1F1F1" style="stroke:#F1F1F1;stroke-width:1.0;"/><rect fill="none" height="560.6094" rx="12.5" ry="12.5" style="stroke:#181818;stroke-width:0.5;" width="525" x="7" y="7"/><line style="stroke:#181818;stroke-width:0.5;" x1="7" x2="532" y1="34.6094" y2="34.6094"/><text fill="#000000" font-family="sans-serif" font-size="14" lengthAdjust="spacing" textLength="128" x="205.5" y="26.5332">elaborarPropuesta()</text><g id="elaborarPropuesta.MostrandoFormulario"><rect fill="#F1F1F1" height="50" rx="12.5" ry="12.5" style="stroke:#181818;stroke-width:0.5;" width="50" x="138" y="137.6094"/><line style="stroke:#181818;stroke-width:0.5;" x1="138" x2="188" y1="165.2188" y2="165.2188"/><text fill="#000000" font-family="sans-serif" font-size="14" lengthAdjust="spacing" textLength="4" x="161" y="157.1426">&#160;</text></g><g id="elaborarPropuesta.EditandoPropuesta"><rect fill="#F1F1F1" height="50" rx="12.5" ry="12.5" style="stroke:#181818;stroke-width:0.5;" width="50" x="138" y="259.6094"/><line style="stroke:#181818;stroke-width:0.5;" x1="138" x2="188" y1="287.2188" y2="287.2188"/><text fill="#000000" font-family="sans-serif" font-size="14" lengthAdjust="spacing" textLength="4" x="161" y="279.1426">&#160;</text></g><g id="elaborarPropuesta.ValidandoDatos"><rect fill="#F1F1F1" height="50" rx="12.5" ry="12.5" style="stroke:#181818;stroke-width:0.5;" width="50" x="138" y="397.6094"/><line style="stroke:#181818;stroke-width:0.5;" x1="138" x2="188" y1="425.2188" y2="425.2188"/><text fill="#000000" font-family="sans-serif" font-size="14" lengthAdjust="spacing" textLength="4" x="161" y="417.1426">&#160;</text></g><ellipse cx="163" cy="55.6094" fill="#222222" rx="10" ry="10" style="stroke:#222222;stroke-width:1.0;"/><ellipse cx="163" cy="546.6094" fill="none" rx="11" ry="11" style="stroke:#222222;stroke-width:1.0;"/><ellipse cx="163" cy="546.6094" fill="#222222" rx="6" ry="6" style="stroke:#222222;stroke-width:1.0;"/><!--link *start*elaborarPropuesta to MostrandoFormulario--><g id="link_*start*elaborarPropuesta_MostrandoFormulario"><path d="M163,65.9294 C163,81.7894 163,108.5194 163,131.2494 " fill="none" id="*start*elaborarPropuesta-to-MostrandoFormulario" style="stroke:#008000;stroke-width:1.0;"/><polygon fill="#008000" points="163,137.2494,167,128.2494,163,132.2494,159,128.2494,163,137.2494" style="stroke:#008000;stroke-width:1.0;"/><path d="M168,88.6094 L168,114.6094 L424,114.6094 L424,98.6094 L414,88.6094 L168,88.6094 " fill="#FEFFDD" style="stroke:#181818;stroke-width:0.5;"/><path d="M414,88.6094 L414,98.6094 L424,98.6094 L414,88.6094 " fill="#FEFFDD" style="stroke:#181818;stroke-width:0.5;"/><text fill="#000000" font-family="sans-serif" font-size="13" font-weight="bold" lengthAdjust="spacing" textLength="79" x="174" y="107.1045">Coordinador</text><text fill="#000000" font-family="sans-serif" font-size="13" lengthAdjust="spacing" textLength="152" x="257" y="107.1045">solicita elaborar propuesta</text></g><!--link MostrandoFormulario to EditandoPropuesta--><g id="link_MostrandoFormulario_EditandoPropuesta"><path d="M163,187.8894 C163,208.7094 163,232.5494 163,253.3594 " fill="none" id="MostrandoFormulario-to-EditandoPropuesta" style="stroke:#008000;stroke-width:1.0;"/><polygon fill="#008000" points="163,259.3594,167,250.3594,163,254.3594,159,250.3594,163,259.3594" style="stroke:#008000;stroke-width:1.0;"/><path d="M168,210.6094 L168,236.6094 L430,236.6094 L430,220.6094 L420,210.6094 L168,210.6094 " fill="#FEFFDD" style="stroke:#181818;stroke-width:0.5;"/><path d="M420,210.6094 L420,220.6094 L430,220.6094 L420,210.6094 " fill="#FEFFDD" style="stroke:#181818;stroke-width:0.5;"/><text fill="#000000" font-family="sans-serif" font-size="13" font-weight="bold" lengthAdjust="spacing" textLength="51" x="174" y="229.1045">Sistema</text><text fill="#000000" font-family="sans-serif" font-size="13" lengthAdjust="spacing" textLength="186" x="229" y="229.1045">muestra formulario de propuesta</text></g><!--link EditandoPropuesta to ValidandoDatos--><g id="link_EditandoPropuesta_ValidandoDatos"><path d="M137.74,292.9294 C96.2,304.9594 18,327.6094 18,327.6094 C18,327.6094 18,379.6094 18,379.6094 C18,379.6094 90.4368,400.5904 131.9768,412.6204 " fill="none" id="EditandoPropuesta-to-ValidandoDatos" style="stroke:#008000;stroke-width:1.0;"/><polygon fill="#008000" points="137.74,414.2894,130.2079,407.9437,132.9373,412.8985,127.9825,415.628,137.74,414.2894" style="stroke:#008000;stroke-width:1.0;"/><path d="M23,332.6094 L23,374.6094 L282,374.6094 L282,342.6094 L272,332.6094 L23,332.6094 " fill="#FEFFDD" style="stroke:#181818;stroke-width:0.5;"/><path d="M272,332.6094 L272,342.6094 L282,342.6094 L272,332.6094 " fill="#FEFFDD" style="stroke:#181818;stroke-width:0.5;"/><text fill="#000000" font-family="sans-serif" font-size="13" font-weight="bold" lengthAdjust="spacing" textLength="79" x="29" y="351.1045">Coordinador</text><text fill="#000000" font-family="sans-serif" font-size="13" lengthAdjust="spacing" textLength="149" x="112" y="351.1045">solicita guardar propuesta</text><text fill="#000000" font-family="sans-serif" font-size="13" font-weight="bold" lengthAdjust="spacing" textLength="51" x="29" y="367.4561">Sistema</text><text fill="#000000" font-family="sans-serif" font-size="13" lengthAdjust="spacing" textLength="183" x="84" y="367.4561">valida la informaci&#243;n introducida</text></g><!--link ValidandoDatos to EditandoPropuesta--><g id="link_ValidandoDatos_EditandoPropuesta"><path d="M188.09,413.1094 C224.33,400.8394 287,379.6094 287,379.6094 C287,379.6094 287,327.6094 287,327.6094 C287,327.6094 230.0131,308.3035 193.7731,296.0335 " fill="none" id="ValidandoDatos-to-EditandoPropuesta" style="stroke:#008000;stroke-width:1.0;"/><polygon fill="#008000" points="188.09,294.1094,195.3319,300.7843,192.8259,295.7128,197.8974,293.2069,188.09,294.1094" style="stroke:#008000;stroke-width:1.0;"/><path d="M292,332.6094 L292,374.6094 L523,374.6094 L523,342.6094 L513,332.6094 L292,332.6094 " fill="#FEFFDD" style="stroke:#181818;stroke-width:0.5;"/><path d="M513,332.6094 L513,342.6094 L523,342.6094 L513,332.6094 " fill="#FEFFDD" style="stroke:#181818;stroke-width:0.5;"/><text fill="#000000" font-family="sans-serif" font-size="13" lengthAdjust="spacing" textLength="95" x="298" y="351.1045">Datos no v&#225;lidos</text><text fill="#000000" font-family="sans-serif" font-size="13" font-weight="bold" lengthAdjust="spacing" textLength="51" x="298" y="367.4561">Sistema</text><text fill="#000000" font-family="sans-serif" font-size="13" lengthAdjust="spacing" textLength="155" x="353" y="367.4561">muestra mensajes de error</text></g><!--link ValidandoDatos to *end*elaborarPropuesta--><g id="link_ValidandoDatos_*end*elaborarPropuesta"><path d="M163,447.7094 C163,474.3794 163,510.1094 163,529.3094 " fill="none" id="ValidandoDatos-to-*end*elaborarPropuesta" style="stroke:#008000;stroke-width:1.0;"/><polygon fill="#008000" points="163,535.3094,167,526.3094,163,530.3094,159,526.3094,163,535.3094" style="stroke:#008000;stroke-width:1.0;"/><path d="M168,470.6094 L168,512.6094 L358,512.6094 L358,480.6094 L348,470.6094 L168,470.6094 " fill="#FEFFDD" style="stroke:#181818;stroke-width:0.5;"/><path d="M348,470.6094 L348,480.6094 L358,480.6094 L348,470.6094 " fill="#FEFFDD" style="stroke:#181818;stroke-width:0.5;"/><text fill="#000000" font-family="sans-serif" font-size="13" lengthAdjust="spacing" textLength="77" x="174" y="489.1045">Datos v&#225;lidos</text><text fill="#000000" font-family="sans-serif" font-size="13" font-weight="bold" lengthAdjust="spacing" textLength="51" x="174" y="505.4561">Sistema</text><text fill="#000000" font-family="sans-serif" font-size="13" lengthAdjust="spacing" textLength="114" x="229" y="505.4561">guarda la propuesta</text></g><g id="PROYECTO_ABIERTO"><rect fill="#F1F1F1" height="50" rx="12.5" ry="12.5" style="stroke:#181818;stroke-width:0.5;" width="166" x="94.5" y="664"/><line style="stroke:#181818;stroke-width:0.5;" x1="94.5" x2="260.5" y1="691.6094" y2="691.6094"/><text fill="#000000" font-family="sans-serif" font-size="14" lengthAdjust="spacing" textLength="146" x="104.5" y="683.5332">PROYECTO_ABIERTO</text></g><g id="PERFIL"><rect fill="#F1F1F1" height="50" rx="12.5" ry="12.5" style="stroke:#181818;stroke-width:0.5;" width="68" x="328.5" y="664"/><line style="stroke:#181818;stroke-width:0.5;" x1="328.5" x2="396.5" y1="691.6094" y2="691.6094"/><text fill="#000000" font-family="sans-serif" font-size="14" lengthAdjust="spacing" textLength="48" x="338.5" y="683.5332">PERFIL</text></g><!--link elaborarPropuesta to PROYECTO_ABIERTO--><g id="link_elaborarPropuesta_PROYECTO_ABIERTO"><path d="M183.7,568.04 C178.02,586.55 174.5,598 174.5,598 C174.5,598 174.5,634 174.5,634 C174.5,634 175.0265,643.4793 175.8265,657.8493 " fill="none" id="elaborarPropuesta-to-PROYECTO_ABIERTO" style="stroke:#008000;stroke-width:1.0;"/><polygon fill="#008000" points="176.16,663.84,179.6535,654.6316,175.8821,658.8477,171.6659,655.0763,176.16,663.84" style="stroke:#008000;stroke-width:1.0;"/><path d="M179.5,603 L179.5,629 L314.5,629 L314.5,613 L304.5,603 L179.5,603 " fill="#FEFFDD" style="stroke:#181818;stroke-width:0.5;"/><path d="M304.5,603 L304.5,613 L314.5,613 L304.5,603 " fill="#FEFFDD" style="stroke:#181818;stroke-width:0.5;"/><text fill="#000000" font-family="sans-serif" font-size="13" lengthAdjust="spacing" textLength="114" x="185.5" y="621.4951">propuesta guardada</text></g><!--link elaborarPropuesta to PERFIL--><g id="link_elaborarPropuesta_PERFIL"><path d="M334.6,568.14 C343.75,607.48 350.3993,636.0263 355.4593,657.7563 " fill="none" id="elaborarPropuesta-to-PERFIL" style="stroke:#008000;stroke-width:1.0;"/><polygon fill="#008000" points="356.82,663.6,358.6747,653.9273,355.686,658.7303,350.8831,655.7417,356.82,663.6" style="stroke:#008000;stroke-width:1.0;"/><path d="M353.5,603 L353.5,629 L405.5,629 L405.5,613 L395.5,603 L353.5,603 " fill="#FEFFDD" style="stroke:#181818;stroke-width:0.5;"/><path d="M395.5,603 L395.5,613 L405.5,613 L395.5,603 " fill="#FEFFDD" style="stroke:#181818;stroke-width:0.5;"/><text fill="#000000" font-family="sans-serif" font-size="13" lengthAdjust="spacing" textLength="31" x="359.5" y="621.4951">volver</text></g><!--SRC=[dPFXQi8m58N_zoakxiysaBs029kh86meJWP3P5nD9fbfRhb92pBsC7k6FO8ljgGLNMrrkFPNqfDpldlQsfKoAJ8ce9MHRfrAI4clmoAAh4CdGMgS4oEFcD9C-Zr02wtQxkLL2pwY2FnLdclvsoiVoJf68wXFd6GQML5T50lbWcRdLfSyerOYQExHaIs3fjSpQ4ylbYobcRMxHxCCUHyoOSPLiT6PTtj4B9H1GTovcNV1abOBJx6R5z8AZ3IYy2cJ6v8g9Cq3DN4yAUjaWWL34gICyBOt5V8aHosdGd7GsTbLB3DaKMlY03elGa0ZA1F0SQ4styOl79F85lvP0tULx3_LbGSDGRxvybxRyOuKcaXZyLtQKATa9ZuFoNzdfo1E4PGLXdQElCRFAAh_OR_3H-FXIzoR35zlxmRnU3ACAXGxrssIRti_rX_6yRW_UAZQvQHpoNkB7m00]--></g></svg>