<svg xmlns="http://www.w3.org/2000/svg" xmlns:xlink="http://www.w3.org/1999/xlink" contentStyleType="text/css" data-diagram-type="STATE" height="650px" preserveAspectRatio="none" style="width:563px;height:650px;background:#FFFFFF;" version="1.1" viewBox="0 0 563 650" width="563px" zoomAndPan="magnify"><defs/><g><path d="M50.02,7 L505.02,7 A12.5,12.5 0 0 1 517.52,19.5 L517.52,33.2969 L37.52,33.2969 L37.52,19.5 A12.5,12.5 0 0 1 50.02,7" fill="#F1F1F1"/><rect fill="none" height="492.2969" rx="12.5" ry="12.5" style="stroke:#181818;stroke-width:0.5;" width="480" x="37.52" y="7"/><line style="stroke:#181818;stroke-width:0.5;" x1="37.52" x2="517.52" y1="33.2969" y2="33.2969"/><text fill="#000000" font-family="sans-serif" font-size="14" lengthAdjust="spacing" textLength="134.5723" x="210.2339" y="24.9951">crearInvestigador()</text><g><rect fill="#F1F1F1" height="50" rx="12.5" ry="12.5" style="stroke:#181818;stroke-width:0.5;" width="50" x="49.52" y="135.2969"/><line style="stroke:#181818;stroke-width:0.5;" x1="49.52" x2="99.52" y1="161.5938" y2="161.5938"/><text fill="#000000" font-family="sans-serif" font-size="14" lengthAdjust="spacing" textLength="4.4502" x="72.2949" y="153.292">&#160;</text></g><g><rect fill="#F1F1F1" height="50" rx="12.5" ry="12.5" style="stroke:#181818;stroke-width:0.5;" width="50" x="49.52" y="331.2969"/><line style="stroke:#181818;stroke-width:0.5;" x1="49.52" x2="99.52" y1="357.5938" y2="357.5938"/><text fill="#000000" font-family="sans-serif" font-size="14" lengthAdjust="spacing" textLength="4.4502" x="72.2949" y="349.292">&#160;</text></g><ellipse cx="74.52" cy="54.2969" fill="#222222" rx="10" ry="10" style="stroke:#222222;stroke-width:1;"/><ellipse cx="74.52" cy="478.2969" fill="none" rx="11" ry="11" style="stroke:#222222;stroke-width:1;"/><ellipse cx="74.52" cy="478.2969" fill="#222222" rx="6" ry="6" style="stroke:#222222;stroke-width:1;"/><!--link *start*crearInvestigador to SolicitandoDatos--><g class="link" data-entity-1="ent0002" data-entity-2="ent0003" data-link-type="dependency" data-source-line="8" id="lnk3"><path d="M74.52,64.5269 C74.52,80.2369 74.52,106.6569 74.52,129.1669" fill="none" id="*start*crearInvestigador-to-SolicitandoDatos" style="stroke:#008000;stroke-width:1;"/><polygon fill="#008000" points="74.52,135.1669,78.52,126.1669,74.52,130.1669,70.52,126.1669,74.52,135.1669" style="stroke:#008000;stroke-width:1;"/><path d="M79.52,87.2969 L79.52,112.2969 L407.52,112.2969 L407.52,97.2969 L397.52,87.2969 L79.52,87.2969" fill="#FEFFDD" style="stroke:#181818;stroke-width:0.5;"/><path d="M397.52,87.2969 L397.52,97.2969 L407.52,97.2969 L397.52,87.2969" fill="#FEFFDD" style="stroke:#181818;stroke-width:0.5;"/><text fill="#000000" font-family="sans-serif" font-size="13" font-weight="bold" lengthAdjust="spacing" textLength="90.251" x="85.52" y="104.3638">Coordinador</text><text fill="#000000" font-family="sans-serif" font-size="13" lengthAdjust="spacing" textLength="212.8877" x="179.9033" y="104.3638">solicita crear investigador nuevo</text></g><!--link SolicitandoDatos to CreandoInvestigador--><g class="link" data-entity-1="ent0003" data-entity-2="ent0004" data-link-type="dependency" data-source-line="13" id="lnk4"><path d="M74.52,185.4769 C74.52,222.6469 74.52,287.4569 74.52,324.8169" fill="none" id="SolicitandoDatos-to-CreandoInvestigador" style="stroke:#008000;stroke-width:1;"/><polygon fill="#008000" points="74.52,330.8169,78.52,321.8169,74.52,325.8169,70.52,321.8169,74.52,330.8169" style="stroke:#008000;stroke-width:1;"/><path d="M79.52,208.2969 L79.52,308.2969 L508.52,308.2969 L508.52,218.2969 L498.52,208.2969 L79.52,208.2969" fill="#FEFFDD" style="stroke:#181818;stroke-width:0.5;"/><path d="M498.52,208.2969 L498.52,218.2969 L508.52,218.2969 L498.52,208.2969" fill="#FEFFDD" style="stroke:#181818;stroke-width:0.5;"/><text fill="#000000" font-family="sans-serif" font-size="13" font-weight="bold" lengthAdjust="spacing" textLength="58.9063" x="85.52" y="225.3638">Sistema</text><text fill="#000000" font-family="sans-serif" font-size="13" lengthAdjust="spacing" textLength="345.2236" x="148.5586" y="225.3638">presenta solicitud de datos m&#237;nimos del investigador</text><text fill="#000000" font-family="sans-serif" font-size="13" lengthAdjust="spacing" textLength="218.4482" x="85.52" y="240.4966">&#8226; ID del investigador (obligatorio)</text><text fill="#000000" font-family="sans-serif" font-size="13" lengthAdjust="spacing" textLength="256.5405" x="85.52" y="255.6294">&#8226; Nombre del investigador (obligatorio)</text><text fill="#000000" font-family="sans-serif" font-size="13" lengthAdjust="spacing" textLength="250.5166" x="85.52" y="270.7622">&#8226; Campo del investigador (obligatorio)</text><text fill="#000000" font-family="sans-serif" font-size="13" lengthAdjust="spacing" textLength="240.4619" x="85.52" y="285.895">&#8226; Permite solicitar crear investigador</text><text fill="#000000" font-family="sans-serif" font-size="13" lengthAdjust="spacing" textLength="236.6978" x="85.52" y="301.0278">&#8226; Permite solicitar cancelar creaci&#243;n</text></g><!--link CreandoInvestigador to *end*crearInvestigador--><g class="link" data-entity-1="ent0004" data-entity-2="ent0005" data-link-type="dependency" data-source-line="23" id="lnk6"><path d="M74.52,381.5769 C74.52,407.7469 74.52,442.1469 74.52,460.9769" fill="none" id="CreandoInvestigador-to-*end*crearInvestigador" style="stroke:#008000;stroke-width:1;"/><polygon fill="#008000" points="74.52,466.9769,78.52,457.9769,74.52,461.9769,70.52,457.9769,74.52,466.9769" style="stroke:#008000;stroke-width:1;"/><path d="M79.52,404.2969 L79.52,444.2969 L418.52,444.2969 L418.52,414.2969 L408.52,404.2969 L79.52,404.2969" fill="#FEFFDD" style="stroke:#181818;stroke-width:0.5;"/><path d="M408.52,404.2969 L408.52,414.2969 L418.52,414.2969 L408.52,404.2969" fill="#FEFFDD" style="stroke:#181818;stroke-width:0.5;"/><text fill="#000000" font-family="sans-serif" font-size="13" font-weight="bold" lengthAdjust="spacing" textLength="90.251" x="85.52" y="421.3638">Coordinador</text><text fill="#000000" font-family="sans-serif" font-size="13" lengthAdjust="spacing" textLength="177.8423" x="179.9033" y="421.3638">proporciona datos m&#237;nimos</text><text fill="#000000" font-family="sans-serif" font-size="13" font-weight="bold" lengthAdjust="spacing" textLength="58.9063" x="85.52" y="436.4966">Sistema</text><text fill="#000000" font-family="sans-serif" font-size="13" lengthAdjust="spacing" textLength="255.3345" x="148.5586" y="436.4966">crea investigador y transfiere a edici&#243;n</text></g><g><rect fill="#F1F1F1" height="50" rx="12.5" ry="12.5" style="stroke:#181818;stroke-width:0.5;" width="215.043" x="7" y="594.3"/><line style="stroke:#181818;stroke-width:0.5;" x1="7" x2="222.043" y1="620.5969" y2="620.5969"/><text fill="#000000" font-family="sans-serif" font-size="14" lengthAdjust="spacing" textLength="195.043" x="17" y="612.2951">OPCIONES_PERFIL_ABIERTO</text></g><g><rect fill="#F1F1F1" height="50" rx="12.5" ry="12.5" style="stroke:#181818;stroke-width:0.5;" width="221.6191" x="330.71" y="594.3"/><line style="stroke:#181818;stroke-width:0.5;" x1="330.71" x2="552.3291" y1="620.5969" y2="620.5969"/><text fill="#000000" font-family="sans-serif" font-size="14" lengthAdjust="spacing" textLength="201.6191" x="340.71" y="612.2951">INVESTIGADORES_ABIERTOS</text></g><!--link crearInvestigador to OPCIONES_PERFIL_ABIERTO--><g class="link" data-entity-1="ent0002" data-entity-2="ent0007" data-link-type="dependency" data-source-line="30" id="lnk8"><path d="M129.44,499.59 C118.44,517.84 111.52,529.3 111.52,529.3 C111.52,529.3 111.52,564.3 111.52,564.3 C111.52,564.3 112.0388,573.5491 112.8288,587.8391" fill="none" id="crearInvestigador-to-OPCIONES_PERFIL_ABIERTO" style="stroke:#008000;stroke-width:1;"/><polygon fill="#008000" points="113.16,593.83,116.6571,584.6229,112.884,588.8376,108.6693,585.0645,113.16,593.83" style="stroke:#008000;stroke-width:1;"/><path d="M116.52,534.3 L116.52,559.3 L393.52,559.3 L393.52,544.3 L383.52,534.3 L116.52,534.3" fill="#FEFFDD" style="stroke:#181818;stroke-width:0.5;"/><path d="M383.52,534.3 L383.52,544.3 L393.52,544.3 L383.52,534.3" fill="#FEFFDD" style="stroke:#181818;stroke-width:0.5;"/><text fill="#000000" font-family="sans-serif" font-size="13" lengthAdjust="spacing" textLength="256.2549" x="122.52" y="551.3669">abrirOpcionesPerfil(investigadorNuevo)</text></g><!--link crearInvestigador to INVESTIGADORES_ABIERTOS--><g class="link" data-entity-1="ent0002" data-entity-2="ent0009" data-link-type="dependency" data-source-line="35" id="lnk10"><path d="M389.03,499.59 C397.31,517.84 402.52,529.3 402.52,529.3 C402.52,529.3 416.913,562.134 428.453,588.484" fill="none" id="crearInvestigador-to-INVESTIGADORES_ABIERTOS" style="stroke:#0000FF;stroke-width:1;"/><polygon fill="#0000FF" points="430.86,593.98,430.9135,584.1313,428.8542,589.4,423.5855,587.3406,430.86,593.98" style="stroke:#0000FF;stroke-width:1;"/><path d="M421.52,534.3 L421.52,559.3 L556.52,559.3 L556.52,544.3 L546.52,534.3 L421.52,534.3" fill="#FEFFDD" style="stroke:#181818;stroke-width:0.5;"/><path d="M546.52,534.3 L546.52,544.3 L556.52,544.3 L546.52,534.3" fill="#FEFFDD" style="stroke:#181818;stroke-width:0.5;"/><text fill="#000000" font-family="sans-serif" font-size="13" lengthAdjust="spacing" textLength="114.9624" x="427.52" y="551.3669">cancelar creaci&#243;n</text></g><!--SRC=[ZLDTIiD047xVKmprfHMA5oW5RQi4f2bDyKL4Djcn34rsmkwsK4JmBBxxv16yYITna_wOc2ZTGDZiVlFDDzzCx8fqBetC82MDRfiZv9nkYmyXh9CE8J4eJQ0tQ1qjfM83qaAdSThjTU1P2F1h5zVnZqT6d592Jch5O-dODX4ZJ-LlgsGxdllp1-ZVdoqDedxe3njKKA8qUohMHG6hyc0G3qVCHf4kg0ONyH3iFd9N352r6ht63PU1gDMEpIznV3MoLYMrQVzBL4JMOIPBGRb1YzeBsYjRAr08gkJFFjyrPNwZCAr9BOc-NjyW63VkeCjnwhUE3N7lY9no5Xiy5JsIMSwdWcTeCl9L7hmrBUR-1vOwmNGVbT3dXwxruCV_5ejhBV1JSl8Sv8PpDWcnbh_CRcjIeQpkn1QSaTe-4NfJ9Q2Y5kKlGZJ_cQhYS3OAmkaaUfnDvjV1xUFbLJ2PBq9Hgq36XaoO5rhHUlkUAErMjKoBiUs9OzRsd76wnY9bCBsRH8lWvd8SpdtYVSQedhAb9GVwRm00]--></g></svg>