<svg xmlns="http://www.w3.org/2000/svg" xmlns:xlink="http://www.w3.org/1999/xlink" contentStyleType="text/css" data-diagram-type="STATE" height="605px" preserveAspectRatio="none" style="width:518px;height:605px;background:#FFFFFF;" version="1.1" viewBox="0 0 518 605" width="518px" zoomAndPan="magnify"><defs/><g><path d="M19.5,7 L480.5,7 A12.5,12.5 0 0 1 493,19.5 L493,33.2969 L7,33.2969 L7,19.5 A12.5,12.5 0 0 1 19.5,7" fill="#F1F1F1"/><rect fill="none" height="447.2969" rx="12.5" ry="12.5" style="stroke:#181818;stroke-width:0.5;" width="486" x="7" y="7"/><line style="stroke:#181818;stroke-width:0.5;" x1="7" x2="493" y1="33.2969" y2="33.2969"/><text fill="#000000" font-family="sans-serif" font-size="14" lengthAdjust="spacing" textLength="144.1494" x="177.9253" y="24.9951">abrirOpcionesPerfil()</text><g id="abrirOpcionesPerfil.MostrandoOpcionesPerfil"><rect fill="#F1F1F1" height="50" rx="12.5" ry="12.5" style="stroke:#181818;stroke-width:0.5;" width="50" x="19" y="135.2969"/><line style="stroke:#181818;stroke-width:0.5;" x1="19" x2="69" y1="161.5938" y2="161.5938"/><text fill="#000000" font-family="sans-serif" font-size="14" lengthAdjust="spacing" textLength="4.4502" x="41.7749" y="153.292">&#160;</text></g><g id="abrirOpcionesPerfil.OpcionSelecionado"><rect fill="#F1F1F1" height="50" rx="12.5" ry="12.5" style="stroke:#181818;stroke-width:0.5;" width="50" x="19" y="301.2969"/><line style="stroke:#181818;stroke-width:0.5;" x1="19" x2="69" y1="327.5938" y2="327.5938"/><text fill="#000000" font-family="sans-serif" font-size="14" lengthAdjust="spacing" textLength="4.4502" x="41.7749" y="319.292">&#160;</text></g><ellipse cx="44" cy="54.2969" fill="#222222" rx="10" ry="10" style="stroke:#222222;stroke-width:1;"/><ellipse cx="44" cy="433.2969" fill="none" rx="11" ry="11" style="stroke:#222222;stroke-width:1;"/><ellipse cx="44" cy="433.2969" fill="#222222" rx="6" ry="6" style="stroke:#222222;stroke-width:1;"/><!--link *start*abrirOpcionesPerfil to MostrandoOpcionesPerfil--><g class="link" data-entity-1=".start.abrirOpcionesPerfil" data-entity-2="MostrandoOpcionesPerfil" data-source-line="8" data-uid="lnk3" id="link_.start.abrirOpcionesPerfil_MostrandoOpcionesPerfil"><path d="M44,64.5269 C44,80.2369 44,106.6569 44,129.1669" fill="none" id="*start*abrirOpcionesPerfil-to-MostrandoOpcionesPerfil" style="stroke:#008000;stroke-width:1;"/><polygon fill="#008000" points="44,135.1669,48,126.1669,44,130.1669,40,126.1669,44,135.1669" style="stroke:#008000;stroke-width:1;"/><path d="M49,87.2969 L49,112.2969 L294,112.2969 L294,97.2969 L284,87.2969 L49,87.2969" fill="#FEFFDD" style="stroke:#181818;stroke-width:0.5;"/><path d="M284,87.2969 L284,97.2969 L294,97.2969 L284,87.2969" fill="#FEFFDD" style="stroke:#181818;stroke-width:0.5;"/><text fill="#000000" font-family="sans-serif" font-size="13" font-weight="bold" lengthAdjust="spacing" textLength="92.5171" x="55" y="104.3638">Investigador</text><text fill="#000000" font-family="sans-serif" font-size="13" lengthAdjust="spacing" textLength="127.6133" x="151.6494" y="104.3638">solicita ver su perfil</text></g><!--link MostrandoOpcionesPerfil to OpcionSelecionado--><g class="link" data-entity-1="MostrandoOpcionesPerfil" data-entity-2="OpcionSelecionado" data-source-line="13" data-uid="lnk4" id="link_MostrandoOpcionesPerfil_OpcionSelecionado"><path d="M44,185.4969 C44,216.5869 44,264.2469 44,295.2669" fill="none" id="MostrandoOpcionesPerfil-to-OpcionSelecionado" style="stroke:#008000;stroke-width:1;"/><polygon fill="#008000" points="44,301.2669,48,292.2669,44,296.2669,40,292.2669,44,301.2669" style="stroke:#008000;stroke-width:1;"/><path d="M49,208.2969 L49,278.2969 L484,278.2969 L484,218.2969 L474,208.2969 L49,208.2969" fill="#FEFFDD" style="stroke:#181818;stroke-width:0.5;"/><path d="M474,208.2969 L474,218.2969 L484,218.2969 L474,208.2969" fill="#FEFFDD" style="stroke:#181818;stroke-width:0.5;"/><text fill="#000000" font-family="sans-serif" font-size="13" font-weight="bold" lengthAdjust="spacing" textLength="58.9063" x="55" y="225.3638">Sistema</text><text fill="#000000" font-family="sans-serif" font-size="13" lengthAdjust="spacing" textLength="110.938" x="118.0386" y="225.3638">presenta el perfil</text><text fill="#000000" font-family="sans-serif" font-size="13" lengthAdjust="spacing" textLength="414.2988" x="55" y="240.4966">&#8226; ID, nombre, apellido, proyectos activos, publicaciones hechas</text><text fill="#000000" font-family="sans-serif" font-size="13" lengthAdjust="spacing" textLength="279.9761" x="55" y="255.6294">&#8226; Permite solicitar editar opciones de perfil</text><text fill="#000000" font-family="sans-serif" font-size="13" lengthAdjust="spacing" textLength="268.3662" x="55" y="270.7622">&#8226; Permite solicitar abrir el panel principal</text></g><!--link OpcionSelecionado to *end*abrirOpcionesPerfil--><g class="link" data-entity-1="OpcionSelecionado" data-entity-2=".end.abrirOpcionesPerfil" data-source-line="21" data-uid="lnk6" id="link_OpcionSelecionado_.end.abrirOpcionesPerfil"><path d="M44,351.3869 C44,373.7869 44,400.0669 44,416.2469" fill="none" id="OpcionSelecionado-to-*end*abrirOpcionesPerfil" style="stroke:#008000;stroke-width:1;"/><polygon fill="#008000" points="44,422.2469,48,413.2469,44,417.2469,40,413.2469,44,422.2469" style="stroke:#008000;stroke-width:1;"/><path d="M49,374.2969 L49,399.2969 L368,399.2969 L368,384.2969 L358,374.2969 L49,374.2969" fill="#FEFFDD" style="stroke:#181818;stroke-width:0.5;"/><path d="M358,374.2969 L358,384.2969 L368,384.2969 L358,374.2969" fill="#FEFFDD" style="stroke:#181818;stroke-width:0.5;"/><text fill="#000000" font-family="sans-serif" font-size="13" font-weight="bold" lengthAdjust="spacing" textLength="92.5171" x="55" y="391.3638">Investigador</text><text fill="#000000" font-family="sans-serif" font-size="13" lengthAdjust="spacing" textLength="201.9507" x="151.6494" y="391.3638">selecciona una de las opciones</text></g><g id="OPCIONES_PERFIL_ABIERTO"><rect fill="#F1F1F1" height="50" rx="12.5" ry="12.5" style="stroke:#181818;stroke-width:0.5;" width="215.043" x="18.5" y="549"/><line style="stroke:#181818;stroke-width:0.5;" x1="18.5" x2="233.543" y1="575.2969" y2="575.2969"/><text fill="#000000" font-family="sans-serif" font-size="14" lengthAdjust="spacing" textLength="195.043" x="28.5" y="566.9951">OPCIONES_PERFIL_ABIERTO</text></g><g id="PANEL_PRINCIPAL_ABIERTO"><rect fill="#F1F1F1" height="50" rx="12.5" ry="12.5" style="stroke:#181818;stroke-width:0.5;" width="213.0879" x="268.5" y="549"/><line style="stroke:#181818;stroke-width:0.5;" x1="268.5" x2="481.5879" y1="575.2969" y2="575.2969"/><text fill="#000000" font-family="sans-serif" font-size="14" lengthAdjust="spacing" textLength="193.0879" x="278.5" y="566.9951">PANEL_PRINCIPAL_ABIERTO</text></g><!--link abrirOpcionesPerfil to OPCIONES_PERFIL_ABIERTO--><g class="link" data-entity-1="abrirOpcionesPerfil" data-entity-2="OPCIONES_PERFIL_ABIERTO" data-source-line="28" data-uid="lnk8" id="link_abrirOpcionesPerfil_OPCIONES_PERFIL_ABIERTO"><path d="M169.2,454.04 C155.27,492.39 144.7869,521.24 136.8569,543.09" fill="none" id="abrirOpcionesPerfil-to-OPCIONES_PERFIL_ABIERTO" style="stroke:#008000;stroke-width:1;"/><polygon fill="#008000" points="134.81,548.73,141.6404,541.6346,136.5158,544.03,134.1204,538.9053,134.81,548.73" style="stroke:#008000;stroke-width:1;"/><path d="M161,489 L161,514 L263,514 L263,499 L253,489 L161,489" fill="#FEFFDD" style="stroke:#181818;stroke-width:0.5;"/><path d="M253,489 L253,499 L263,499 L253,489" fill="#FEFFDD" style="stroke:#181818;stroke-width:0.5;"/><text fill="#000000" font-family="sans-serif" font-size="13" lengthAdjust="spacing" textLength="81.396" x="167" y="506.0669">editarPerfil()</text></g><!--link abrirOpcionesPerfil to PANEL_PRINCIPAL_ABIERTO--><g class="link" data-entity-1="abrirOpcionesPerfil" data-entity-2="PANEL_PRINCIPAL_ABIERTO" data-source-line="33" data-uid="lnk10" id="link_abrirOpcionesPerfil_PANEL_PRINCIPAL_ABIERTO"><path d="M331.46,454.04 C345.49,492.39 356.0571,521.2458 364.0571,543.0958" fill="none" id="abrirOpcionesPerfil-to-PANEL_PRINCIPAL_ABIERTO" style="stroke:#008000;stroke-width:1;"/><polygon fill="#008000" points="366.12,548.73,366.7818,538.9034,364.4009,544.0348,359.2695,541.6539,366.12,548.73" style="stroke:#008000;stroke-width:1;"/><path d="M359,489 L359,514 L511,514 L511,499 L501,489 L359,489" fill="#FEFFDD" style="stroke:#181818;stroke-width:0.5;"/><path d="M501,489 L501,499 L511,499 L501,489" fill="#FEFFDD" style="stroke:#181818;stroke-width:0.5;"/><text fill="#000000" font-family="sans-serif" font-size="13" lengthAdjust="spacing" textLength="131.9424" x="365" y="506.0669">abrirPanelPrincipal()</text></g><!--SRC=[XPBXQi8m4CU_voaEzsKRobv01ESwA3WjkcyYahOt3QP9IA8WOx1dsQFjINPjLxLhorAQqFJkVx_yBsulbE6MPo25Gdyo24RBK_x1cFFS8_3O2ZitYT0ANOJsJKZW3dej-xTtFNXd36YKkJrwAFP5Es-vIdKzl1bO_b-Yn7pbgIx5LlTh6AnkjXPHhGUZBZqeWfKcFQto0-sBZM4y2jKHdHTRKhJ3XtW4JakH2C_XY1RS0Sm525LQQj1Wvwchv3LMaxwBPocSnumNACQYGqKeAAynlZ-_87pgKteMM-m3DoYbI7MV4lG94wyTyCIBetQqTOZfFBmaWnqcE-xEAaIQ2MAepcm1qsBHlqU15FzMRkOKxIuOkSfdArGY3AzxTl6huKNDAMfekpSTtSfb2Xquq4kuaYvBXTz2yC5OsxMjDIkQXFDPiDn4mU8vd6x6Zs6mU9sp6b9fL7MvsRd8l-hHU1PCDz4Yd4t2QDoXNeX4kPrHvUPLaHy0]--></g></svg>