<svg xmlns="http://www.w3.org/2000/svg" xmlns:xlink="http://www.w3.org/1999/xlink" contentStyleType="text/css" data-diagram-type="STATE" height="605px" preserveAspectRatio="none" style="width:600px;height:605px;background:#FFFFFF;" version="1.1" viewBox="0 0 600 605" width="600px" zoomAndPan="magnify"><defs/><g><path d="M87,7 L432,7 A12.5,12.5 0 0 1 444.5,19.5 L444.5,33.2969 L74.5,33.2969 L74.5,19.5 A12.5,12.5 0 0 1 87,7" fill="#F1F1F1"/><rect fill="none" height="447.2969" rx="12.5" ry="12.5" style="stroke:#181818;stroke-width:0.5;" width="370" x="74.5" y="7"/><line style="stroke:#181818;stroke-width:0.5;" x1="74.5" x2="444.5" y1="33.2969" y2="33.2969"/><text fill="#000000" font-family="sans-serif" font-size="14" lengthAdjust="spacing" textLength="69.0977" x="224.9512" y="24.9951">verPerfil()</text><g id="verPerfil.MostrandoPerfil"><rect fill="#F1F1F1" height="50" rx="12.5" ry="12.5" style="stroke:#181818;stroke-width:0.5;" width="50" x="86.5" y="135.2969"/><line style="stroke:#181818;stroke-width:0.5;" x1="86.5" x2="136.5" y1="161.5938" y2="161.5938"/><text fill="#000000" font-family="sans-serif" font-size="14" lengthAdjust="spacing" textLength="4.4502" x="109.2749" y="153.292">&#160;</text></g><g id="verPerfil.OpcionSelecionada"><rect fill="#F1F1F1" height="50" rx="12.5" ry="12.5" style="stroke:#181818;stroke-width:0.5;" width="50" x="86.5" y="301.2969"/><line style="stroke:#181818;stroke-width:0.5;" x1="86.5" x2="136.5" y1="327.5938" y2="327.5938"/><text fill="#000000" font-family="sans-serif" font-size="14" lengthAdjust="spacing" textLength="4.4502" x="109.2749" y="319.292">&#160;</text></g><ellipse cx="111.5" cy="54.2969" fill="#222222" rx="10" ry="10" style="stroke:#222222;stroke-width:1;"/><ellipse cx="111.5" cy="433.2969" fill="none" rx="11" ry="11" style="stroke:#222222;stroke-width:1;"/><ellipse cx="111.5" cy="433.2969" fill="#222222" rx="6" ry="6" style="stroke:#222222;stroke-width:1;"/><!--link *start*verPerfil to MostrandoPerfil--><g class="link" data-entity-1=".start.verPerfil" data-entity-2="MostrandoPerfil" data-source-line="8" data-uid="lnk3" id="link_.start.verPerfil_MostrandoPerfil"><path d="M111.5,64.5269 C111.5,80.2369 111.5,106.6569 111.5,129.1669" fill="none" id="*start*verPerfil-to-MostrandoPerfil" style="stroke:#008000;stroke-width:1;"/><polygon fill="#008000" points="111.5,135.1669,115.5,126.1669,111.5,130.1669,107.5,126.1669,111.5,135.1669" style="stroke:#008000;stroke-width:1;"/><path d="M116.5,87.2969 L116.5,112.2969 L341.5,112.2969 L341.5,97.2969 L331.5,87.2969 L116.5,87.2969" fill="#FEFFDD" style="stroke:#181818;stroke-width:0.5;"/><path d="M331.5,87.2969 L331.5,97.2969 L341.5,97.2969 L331.5,87.2969" fill="#FEFFDD" style="stroke:#181818;stroke-width:0.5;"/><text fill="#000000" font-family="sans-serif" font-size="13" font-weight="bold" lengthAdjust="spacing" textLength="92.5171" x="122.5" y="104.3638">Investigador</text><text fill="#000000" font-family="sans-serif" font-size="13" lengthAdjust="spacing" textLength="108.0562" x="219.1494" y="104.3638">solicita ver Perfil</text></g><!--link MostrandoPerfil to OpcionSelecionada--><g class="link" data-entity-1="MostrandoPerfil" data-entity-2="OpcionSelecionada" data-source-line="13" data-uid="lnk4" id="link_MostrandoPerfil_OpcionSelecionada"><path d="M111.5,185.4969 C111.5,216.5869 111.5,264.2469 111.5,295.2669" fill="none" id="MostrandoPerfil-to-OpcionSelecionada" style="stroke:#008000;stroke-width:1;"/><polygon fill="#008000" points="111.5,301.2669,115.5,292.2669,111.5,296.2669,107.5,292.2669,111.5,301.2669" style="stroke:#008000;stroke-width:1;"/><path d="M116.5,208.2969 L116.5,278.2969 L416.5,278.2969 L416.5,218.2969 L406.5,208.2969 L116.5,208.2969" fill="#FEFFDD" style="stroke:#181818;stroke-width:0.5;"/><path d="M406.5,208.2969 L406.5,218.2969 L416.5,218.2969 L406.5,208.2969" fill="#FEFFDD" style="stroke:#181818;stroke-width:0.5;"/><text fill="#000000" font-family="sans-serif" font-size="13" font-weight="bold" lengthAdjust="spacing" textLength="58.9063" x="122.5" y="225.3638">Sistema</text><text fill="#000000" font-family="sans-serif" font-size="13" lengthAdjust="spacing" textLength="110.938" x="185.5386" y="225.3638">presenta el perfil</text><text fill="#000000" font-family="sans-serif" font-size="13" lengthAdjust="spacing" textLength="266.7349" x="122.5" y="240.4966">&#8226; ID, nombre, apellido, proyectos activos</text><text fill="#000000" font-family="sans-serif" font-size="13" lengthAdjust="spacing" textLength="279.9761" x="122.5" y="255.6294">&#8226; Permite solicitar editar opciones de perfil</text><text fill="#000000" font-family="sans-serif" font-size="13" lengthAdjust="spacing" textLength="271.521" x="122.5" y="270.7622">&#8226; Permite solicitar editar carga de trabajo</text></g><!--link OpcionSelecionada to *end*verPerfil--><g class="link" data-entity-1="OpcionSelecionada" data-entity-2=".end.verPerfil" data-source-line="21" data-uid="lnk6" id="link_OpcionSelecionada_.end.verPerfil"><path d="M111.5,351.3869 C111.5,373.7869 111.5,400.0669 111.5,416.2469" fill="none" id="OpcionSelecionada-to-*end*verPerfil" style="stroke:#008000;stroke-width:1;"/><polygon fill="#008000" points="111.5,422.2469,115.5,413.2469,111.5,417.2469,107.5,413.2469,111.5,422.2469" style="stroke:#008000;stroke-width:1;"/><path d="M116.5,374.2969 L116.5,399.2969 L435.5,399.2969 L435.5,384.2969 L425.5,374.2969 L116.5,374.2969" fill="#FEFFDD" style="stroke:#181818;stroke-width:0.5;"/><path d="M425.5,374.2969 L425.5,384.2969 L435.5,384.2969 L425.5,374.2969" fill="#FEFFDD" style="stroke:#181818;stroke-width:0.5;"/><text fill="#000000" font-family="sans-serif" font-size="13" font-weight="bold" lengthAdjust="spacing" textLength="92.5171" x="122.5" y="391.3638">Investigador</text><text fill="#000000" font-family="sans-serif" font-size="13" lengthAdjust="spacing" textLength="201.9507" x="219.1494" y="391.3638">selecciona una de las opciones</text></g><g id="OPCIONES_PERFIL_ABIERTO"><rect fill="#F1F1F1" height="50" rx="12.5" ry="12.5" style="stroke:#181818;stroke-width:0.5;" width="215.043" x="7" y="549"/><line style="stroke:#181818;stroke-width:0.5;" x1="7" x2="222.043" y1="575.2969" y2="575.2969"/><text fill="#000000" font-family="sans-serif" font-size="14" lengthAdjust="spacing" textLength="195.043" x="17" y="566.9951">OPCIONES_PERFIL_ABIERTO</text></g><g id="OPCIONES_CARGA_TRABAJO_ABIERTAS"><rect fill="#F1F1F1" height="50" rx="12.5" ry="12.5" style="stroke:#181818;stroke-width:0.5;" width="294.1826" x="257.5" y="549"/><line style="stroke:#181818;stroke-width:0.5;" x1="257.5" x2="551.6826" y1="575.2969" y2="575.2969"/><text fill="#000000" font-family="sans-serif" font-size="14" lengthAdjust="spacing" textLength="274.1826" x="267.5" y="566.9951">OPCIONES_CARGA_TRABAJO_ABIERTAS</text></g><!--link verPerfil to OPCIONES_PERFIL_ABIERTO--><g class="link" data-entity-1="verPerfil" data-entity-2="OPCIONES_PERFIL_ABIERTO" data-source-line="28" data-uid="lnk8" id="link_verPerfil_OPCIONES_PERFIL_ABIERTO"><path d="M165.01,454.04 C148.73,492.39 136.4255,521.3574 127.1455,543.2074" fill="none" id="verPerfil-to-OPCIONES_PERFIL_ABIERTO" style="stroke:#008000;stroke-width:1;"/><polygon fill="#008000" points="124.8,548.73,132,542.0098,126.7546,544.1279,124.6366,538.8825,124.8,548.73" style="stroke:#008000;stroke-width:1;"/><path d="M155.5,489 L155.5,514 L309.5,514 L309.5,499 L299.5,489 L155.5,489" fill="#FEFFDD" style="stroke:#181818;stroke-width:0.5;"/><path d="M299.5,489 L299.5,499 L309.5,499 L299.5,489" fill="#FEFFDD" style="stroke:#181818;stroke-width:0.5;"/><text fill="#000000" font-family="sans-serif" font-size="13" lengthAdjust="spacing" textLength="133.853" x="161.5" y="506.0669">abrirOpcionesPerfil()</text></g><!--link verPerfil to OPCIONES_CARGA_TRABAJO_ABIERTAS--><g class="link" data-entity-1="verPerfil" data-entity-2="OPCIONES_CARGA_TRABAJO_ABIERTAS" data-source-line="33" data-uid="lnk10" id="link_verPerfil_OPCIONES_CARGA_TRABAJO_ABIERTAS"><path d="M353.99,454.04 C370.27,492.39 382.5745,521.3574 391.8545,543.2074" fill="none" id="verPerfil-to-OPCIONES_CARGA_TRABAJO_ABIERTAS" style="stroke:#008000;stroke-width:1;"/><polygon fill="#008000" points="394.2,548.73,394.3634,538.8825,392.2454,544.1279,387,542.0098,394.2,548.73" style="stroke:#008000;stroke-width:1;"/><path d="M384.5,489 L384.5,514 L593.5,514 L593.5,499 L583.5,489 L384.5,489" fill="#FEFFDD" style="stroke:#181818;stroke-width:0.5;"/><path d="M583.5,489 L583.5,499 L593.5,499 L583.5,489" fill="#FEFFDD" style="stroke:#181818;stroke-width:0.5;"/><text fill="#000000" font-family="sans-serif" font-size="13" lengthAdjust="spacing" textLength="188.5127" x="390.5" y="506.0669">abrirOpcionesCargaTrabajo()</text></g><!--SRC=[XLBjIiCm5FsVfxZCFoeRli0OT7DAHUrezs_8k6sl8ovDIX87GmIVnKVpIKpQhLlteGaqf9nxphadroovB55Z0O9BikkIe5HYxI-C6OkMO4LwGlgL2q03dUPsUTM13yR0hHhNSTiXdfIn6cMkQjWn82ephcH2Wlo9ETOai-iNwCqk5ff8llG6XpnGWQHoF4fwiylgHpyTX795nl85vahtRz8162LunYrwvx3dWcHU4xZ5ci-Xphw7OwldJ2JSM2gmqYyr6P9EdmIKE_cVhsy8Rxkkl4WrTG5B4eBdgkiAr9eogmnWPlbAcGRlF1NSgMrRqa1vTQZA6Hd8wL3ZR4s6Ue6-mFMRufjgXR8BvAZfLYJkcKw7SEOjF4t50- -o4XTk1BRkJpZuP6mtSAstc8p2w7cSp2VZ-2vyd0V3S1nF8zOoWgdcEjgmR-UKDGh_KO-2-3wOJ-DW63n46uKW-KDYv2ETrd7k2Vq2]--></g></svg>