<svg xmlns="http://www.w3.org/2000/svg" xmlns:xlink="http://www.w3.org/1999/xlink" contentStyleType="text/css" data-diagram-type="STATE" height="608px" preserveAspectRatio="none" style="width:2435px;height:608px;background:#FFFFFF;" version="1.1" viewBox="0 0 2435 608" width="2435px" zoomAndPan="magnify"><defs/><g><ellipse cx="16" cy="448" fill="#222222" rx="10" ry="10" style="stroke:#222222;stroke-width:1;"/><g id="SESION_CERRADA"><rect fill="#F1F1F1" height="50" rx="12.5" ry="12.5" style="stroke:#181818;stroke-width:0.5;" width="147.251" x="87" y="423"/><line style="stroke:#181818;stroke-width:0.5;" x1="87" x2="234.251" y1="449.2969" y2="449.2969"/><text fill="#000000" font-family="sans-serif" font-size="14" lengthAdjust="spacing" textLength="127.251" x="97" y="440.9951">SESION_CERRADA</text></g><g id="PERFIL"><rect fill="#F1F1F1" height="50" rx="12.5" ry="12.5" style="stroke:#181818;stroke-width:0.5;" width="66.9971" x="388.25" y="366"/><line style="stroke:#181818;stroke-width:0.5;" x1="388.25" x2="455.2471" y1="392.2969" y2="392.2969"/><text fill="#000000" font-family="sans-serif" font-size="14" lengthAdjust="spacing" textLength="46.9971" x="398.25" y="383.9951">PERFIL</text></g><g id="OPCIONES_PERFIL"><rect fill="#F1F1F1" height="50" rx="12.5" ry="12.5" style="stroke:#181818;stroke-width:0.5;" width="146.5879" x="2281.54" y="243"/><line style="stroke:#181818;stroke-width:0.5;" x1="2281.54" x2="2428.1279" y1="269.2969" y2="269.2969"/><text fill="#000000" font-family="sans-serif" font-size="14" lengthAdjust="spacing" textLength="126.5879" x="2291.54" y="260.9951">OPCIONES_PERFIL</text></g><g id="OPCIONES_CARGA_TRABAJO"><rect fill="#F1F1F1" height="50" rx="12.5" ry="12.5" style="stroke:#181818;stroke-width:0.5;" width="218.2832" x="705.25" y="366"/><line style="stroke:#181818;stroke-width:0.5;" x1="705.25" x2="923.5332" y1="392.2969" y2="392.2969"/><text fill="#000000" font-family="sans-serif" font-size="14" lengthAdjust="spacing" textLength="198.2832" x="715.25" y="383.9951">OPCIONES_CARGA_TRABAJO</text></g><g id="PROYECTOS_ABIERTOS"><rect fill="#F1F1F1" height="50" rx="12.5" ry="12.5" style="stroke:#181818;stroke-width:0.5;" width="182.1621" x="723.31" y="457"/><line style="stroke:#181818;stroke-width:0.5;" x1="723.31" x2="905.4721" y1="483.2969" y2="483.2969"/><text fill="#000000" font-family="sans-serif" font-size="14" lengthAdjust="spacing" textLength="162.1621" x="733.31" y="474.9951">PROYECTOS_ABIERTOS</text></g><g id="INVESTIGADORES_ABIERTOS"><rect fill="#F1F1F1" height="50" rx="12.5" ry="12.5" style="stroke:#181818;stroke-width:0.5;" width="221.6191" x="1483.92" y="243"/><line style="stroke:#181818;stroke-width:0.5;" x1="1483.92" x2="1705.5391" y1="269.2969" y2="269.2969"/><text fill="#000000" font-family="sans-serif" font-size="14" lengthAdjust="spacing" textLength="201.6191" x="1493.92" y="260.9951">INVESTIGADORES_ABIERTOS</text></g><g id="PROYECTO_ABIERTO"><rect fill="#F1F1F1" height="50" rx="12.5" ry="12.5" style="stroke:#181818;stroke-width:0.5;" width="164.3887" x="1121.53" y="499"/><line style="stroke:#181818;stroke-width:0.5;" x1="1121.53" x2="1285.9187" y1="525.2969" y2="525.2969"/><text fill="#000000" font-family="sans-serif" font-size="14" lengthAdjust="spacing" textLength="144.3887" x="1131.53" y="516.9951">PROYECTO_ABIERTO</text></g><g id="ENTREGABLES_ABIERTOS"><rect fill="#F1F1F1" height="50" rx="12.5" ry="12.5" style="stroke:#181818;stroke-width:0.5;" width="199.3477" x="1495.06" y="461"/><line style="stroke:#181818;stroke-width:0.5;" x1="1495.06" x2="1694.4077" y1="487.2969" y2="487.2969"/><text fill="#000000" font-family="sans-serif" font-size="14" lengthAdjust="spacing" textLength="179.3477" x="1505.06" y="478.9951">ENTREGABLES_ABIERTOS</text></g><g id="INVESTIGADOR_ABIERTO"><rect fill="#F1F1F1" height="50" rx="12.5" ry="12.5" style="stroke:#181818;stroke-width:0.5;" width="195" x="1891.54" y="243"/><line style="stroke:#181818;stroke-width:0.5;" x1="1891.54" x2="2086.54" y1="269.2969" y2="269.2969"/><text fill="#000000" font-family="sans-serif" font-size="14" lengthAdjust="spacing" textLength="175" x="1901.54" y="260.9951">INVESTIGADOR_ABIERTO</text></g><!--link *start* to SESION_CERRADA--><g class="link" data-entity-1=".start." data-entity-2="SESION_CERRADA" data-source-line="4" data-uid="lnk4" id="link_.start._SESION_CERRADA"><path d="M26.36,448 C39,448 56.73,448 80.69,448" fill="none" id="*start*-to-SESION_CERRADA" style="stroke:#181818;stroke-width:1;"/><polygon fill="#181818" points="86.69,448,77.69,444,81.69,448,77.69,452,86.69,448" style="stroke:#181818;stroke-width:1;"/></g><!--link SESION_CERRADA to SESION_CERRADA--><g class="link" data-entity-1="SESION_CERRADA" data-entity-2="SESION_CERRADA" data-source-line="5" data-uid="lnk5" id="link_SESION_CERRADA_SESION_CERRADA"><path d="M143.01,422.72 C137.67,405.23 143.54,388 160.63,388 C177.71,388 185.3321,399.4915 179.9921,416.9815" fill="none" id="SESION_CERRADA-to-SESION_CERRADA" style="stroke:#181818;stroke-width:1;"/><polygon fill="#181818" points="178.24,422.72,184.6938,415.2803,179.7001,417.9379,177.0424,412.9442,178.24,422.72" style="stroke:#181818;stroke-width:1;"/><text fill="#000000" font-family="sans-serif" font-size="13" lengthAdjust="spacing" textLength="141.4194" x="90.13" y="379.0669">denegarInicioSesion()</text></g><!--link SESION_CERRADA to PERFIL--><g class="link" data-entity-1="SESION_CERRADA" data-entity-2="PERFIL" data-source-line="6" data-uid="lnk7" id="link_SESION_CERRADA_PERFIL"><path d="M234.62,462.33 C272.76,466.59 319.45,466.61 358.25,451 C375.83,443.93 387.3585,433.8469 398.4785,420.7969" fill="none" id="SESION_CERRADA-to-PERFIL" style="stroke:#181818;stroke-width:1;"/><polygon fill="#181818" points="402.37,416.23,393.4882,420.486,399.1271,420.0357,399.5774,425.6746,402.37,416.23" style="stroke:#181818;stroke-width:1;"/><text fill="#000000" font-family="sans-serif" font-size="13" lengthAdjust="spacing" textLength="92.5044" x="265.25" y="447.0669">iniciarSesion()</text></g><!--link PERFIL to SESION_CERRADA--><g class="link" data-entity-1="PERFIL" data-entity-2="SESION_CERRADA" data-source-line="7" data-uid="lnk8" id="link_PERFIL_SESION_CERRADA"><path d="M388.03,398.2 C349.67,406.64 290.7998,419.5805 240.3598,430.6805" fill="none" id="PERFIL-to-SESION_CERRADA" style="stroke:#181818;stroke-width:1;"/><polygon fill="#181818" points="234.5,431.97,244.1494,433.9422,239.3832,430.8954,242.43,426.1292,234.5,431.97" style="stroke:#181818;stroke-width:1;"/><text fill="#000000" font-family="sans-serif" font-size="13" lengthAdjust="spacing" textLength="92.1172" x="265.25" y="400.0669">cerrarSesion()</text></g><!--link PERFIL to OPCIONES_PERFIL--><g class="link" data-entity-1="PERFIL" data-entity-2="OPCIONES_PERFIL" data-source-line="10" data-uid="lnk10" id="link_PERFIL_OPCIONES_PERFIL"><path d="M431.93,365.76 C441.79,341.82 459.58,306.28 485.25,284 C604.21,180.73 655.86,150 813.39,150 C813.39,150 813.39,150 1990.04,150 C2109.06,150 2234.4205,205.1132 2302.1005,239.8032" fill="none" id="PERFIL-to-OPCIONES_PERFIL" style="stroke:#181818;stroke-width:1;"/><polygon fill="#181818" points="2307.44,242.54,2301.2553,234.8752,2302.9904,240.2593,2297.6063,241.9945,2307.44,242.54" style="stroke:#181818;stroke-width:1;"/><text fill="#000000" font-family="sans-serif" font-size="13" lengthAdjust="spacing" textLength="133.853" x="1318.42" y="146.0669">abrirOpcionesPerfil()</text></g><!--link PERFIL to OPCIONES_CARGA_TRABAJO--><g class="link" data-entity-1="PERFIL" data-entity-2="OPCIONES_CARGA_TRABAJO" data-source-line="11" data-uid="lnk12" id="link_PERFIL_OPCIONES_CARGA_TRABAJO"><path d="M455.72,391 C510.07,391 614.83,391 698.77,391" fill="none" id="PERFIL-to-OPCIONES_CARGA_TRABAJO" style="stroke:#181818;stroke-width:1;"/><polygon fill="#181818" points="704.77,391,695.77,387,699.77,391,695.77,395,704.77,391" style="stroke:#181818;stroke-width:1;"/><text fill="#000000" font-family="sans-serif" font-size="13" lengthAdjust="spacing" textLength="188.5127" x="486.25" y="387.0669">abrirOpcionesCargaTrabajo()</text></g><!--link PERFIL to PROYECTOS_ABIERTOS--><g class="link" data-entity-1="PERFIL" data-entity-2="PROYECTOS_ABIERTOS" data-source-line="12" data-uid="lnk14" id="link_PERFIL_PROYECTOS_ABIERTOS"><path d="M455.44,405.38 C464.93,409.19 475.39,413.06 485.25,416 C564.19,439.51 650.4023,456.2296 716.9023,467.3596" fill="none" id="PERFIL-to-PROYECTOS_ABIERTOS" style="stroke:#181818;stroke-width:1;"/><polygon fill="#181818" points="722.82,468.35,714.6038,462.9192,717.8886,467.5246,713.2832,470.8095,722.82,468.35" style="stroke:#181818;stroke-width:1;"/><text fill="#000000" font-family="sans-serif" font-size="13" lengthAdjust="spacing" textLength="104.4634" x="528.25" y="412.0669">abrirProyectos()</text></g><!--link PERFIL to INVESTIGADORES_ABIERTOS--><g class="link" data-entity-1="PERFIL" data-entity-2="INVESTIGADORES_ABIERTOS" data-source-line="13" data-uid="lnk16" id="link_PERFIL_INVESTIGADORES_ABIERTOS"><path d="M455.4,369.96 C506.33,338.52 608.85,280.65 705.25,259 C979.74,197.34 1308.1035,227.3006 1477.7035,250.1006" fill="none" id="PERFIL-to-INVESTIGADORES_ABIERTOS" style="stroke:#181818;stroke-width:1;"/><polygon fill="#181818" points="1483.65,250.9,1475.2632,245.7365,1478.6946,250.2338,1474.1973,253.6652,1483.65,250.9" style="stroke:#181818;stroke-width:1;"/><text fill="#000000" font-family="sans-serif" font-size="13" lengthAdjust="spacing" textLength="136.4492" x="954.53" y="219.0669">abrirInvestigadores()</text></g><!--link OPCIONES_PERFIL to OPCIONES_PERFIL--><g class="link" data-entity-1="OPCIONES_PERFIL" data-entity-2="OPCIONES_PERFIL" data-source-line="16" data-uid="lnk17" id="link_OPCIONES_PERFIL_OPCIONES_PERFIL"><path d="M2350.02,242.72 C2348.56,225.23 2350.16,208 2354.83,208 C2359.5,208 2361.6091,219.2508 2360.1491,236.7408" fill="none" id="OPCIONES_PERFIL-to-OPCIONES_PERFIL" style="stroke:#181818;stroke-width:1;"/><polygon fill="#181818" points="2359.65,242.72,2364.3848,234.0839,2360.0659,237.7373,2356.4125,233.4184,2359.65,242.72" style="stroke:#181818;stroke-width:1;"/><text fill="#000000" font-family="sans-serif" font-size="13" lengthAdjust="spacing" textLength="100.3501" x="2304.83" y="199.0669">editarNombre()</text></g><!--link OPCIONES_PERFIL to OPCIONES_PERFIL--><g class="link" data-entity-1="OPCIONES_PERFIL" data-entity-2="OPCIONES_PERFIL" data-source-line="17" data-uid="lnk18" id="link_OPCIONES_PERFIL_OPCIONES_PERFIL"><path d="M2347.35,242.7 C2341.33,210.89 2343.82,173 2354.83,173 C2365.84,173 2369.4557,204.9946 2363.4357,236.8046" fill="none" id="OPCIONES_PERFIL-to-OPCIONES_PERFIL-1" style="stroke:#181818;stroke-width:1;"/><polygon fill="#181818" points="2362.32,242.7,2367.9238,234.6008,2363.2497,237.7872,2360.0633,233.1132,2362.32,242.7" style="stroke:#181818;stroke-width:1;"/><text fill="#000000" font-family="sans-serif" font-size="13" lengthAdjust="spacing" textLength="100.5977" x="2304.83" y="164.0669">editarApellido()</text></g><!--link OPCIONES_PERFIL to OPCIONES_PERFIL--><g class="link" data-entity-1="OPCIONES_PERFIL" data-entity-2="OPCIONES_PERFIL" data-source-line="18" data-uid="lnk19" id="link_OPCIONES_PERFIL_OPCIONES_PERFIL"><path d="M2345.8,242.79 C2334.1,197.72 2337.11,138 2354.83,138 C2372.55,138 2377.0776,191.9125 2365.3776,236.9825" fill="none" id="OPCIONES_PERFIL-to-OPCIONES_PERFIL-2" style="stroke:#181818;stroke-width:1;"/><polygon fill="#181818" points="2363.87,242.79,2370.0031,235.0838,2365.1263,237.9504,2362.2597,233.0737,2363.87,242.79" style="stroke:#181818;stroke-width:1;"/><text fill="#000000" font-family="sans-serif" font-size="13" lengthAdjust="spacing" textLength="60.4995" x="2324.83" y="129.0669">editarId()</text></g><!--link OPCIONES_PERFIL to OPCIONES_PERFIL--><g class="link" data-entity-1="OPCIONES_PERFIL" data-entity-2="OPCIONES_PERFIL" data-source-line="19" data-uid="lnk20" id="link_OPCIONES_PERFIL_OPCIONES_PERFIL"><path d="M2344.75,242.78 C2326.9,184.98 2330.26,103 2354.83,103 C2379.41,103 2384.5413,179.2474 2366.6813,237.0474" fill="none" id="OPCIONES_PERFIL-to-OPCIONES_PERFIL-3" style="stroke:#181818;stroke-width:1;"/><polygon fill="#181818" points="2364.91,242.78,2371.3887,235.362,2366.3861,238.0029,2363.7453,233.0003,2364.91,242.78" style="stroke:#181818;stroke-width:1;"/><text fill="#000000" font-family="sans-serif" font-size="13" lengthAdjust="spacing" textLength="97.4556" x="2306.33" y="94.0669">editarCarrera()</text></g><!--link OPCIONES_PERFIL to OPCIONES_PERFIL--><g class="link" data-entity-1="OPCIONES_PERFIL" data-entity-2="OPCIONES_PERFIL" data-source-line="20" data-uid="lnk21" id="link_OPCIONES_PERFIL_OPCIONES_PERFIL"><path d="M2343.95,242.6 C2319.72,172.37 2323.35,68 2354.83,68 C2386.31,68 2391.8961,166.6978 2367.6761,236.9278" fill="none" id="OPCIONES_PERFIL-to-OPCIONES_PERFIL-4" style="stroke:#181818;stroke-width:1;"/><polygon fill="#181818" points="2365.72,242.6,2372.4357,235.3958,2367.3501,237.8732,2364.8728,232.7877,2365.72,242.6" style="stroke:#181818;stroke-width:1;"/><text fill="#000000" font-family="sans-serif" font-size="13" lengthAdjust="spacing" textLength="92.8091" x="2308.83" y="59.0669">editarMaster()</text></g><!--link OPCIONES_PERFIL to OPCIONES_PERFIL--><g class="link" data-entity-1="OPCIONES_PERFIL" data-entity-2="OPCIONES_PERFIL" data-source-line="21" data-uid="lnk22" id="link_OPCIONES_PERFIL_OPCIONES_PERFIL"><path d="M2343.44,242.76 C2312.55,160.29 2316.35,33 2354.83,33 C2393.32,33 2399.2252,154.6714 2368.3252,237.1414" fill="none" id="OPCIONES_PERFIL-to-OPCIONES_PERFIL-5" style="stroke:#181818;stroke-width:1;"/><polygon fill="#181818" points="2366.22,242.76,2373.1235,235.7356,2367.9743,238.0779,2365.6321,232.9287,2366.22,242.76" style="stroke:#181818;stroke-width:1;"/><text fill="#000000" font-family="sans-serif" font-size="13" lengthAdjust="spacing" textLength="70.2749" x="2319.83" y="24.0669">editarDni()</text></g><!--link OPCIONES_PERFIL to SESION_CERRADA--><g class="link" data-entity-1="OPCIONES_PERFIL" data-entity-2="SESION_CERRADA" data-source-line="22" data-uid="lnk23" id="link_OPCIONES_PERFIL_SESION_CERRADA"><path d="M2341.79,293.3 C2302.85,371.01 2172.2,601 1990.04,601 C420.75,601 420.75,601 420.75,601 C321.49,601 231.0103,521.0241 188.8003,477.5641" fill="none" id="OPCIONES_PERFIL-to-SESION_CERRADA" style="stroke:#181818;stroke-width:1;"/><polygon fill="#181818" points="184.62,473.26,188.021,482.503,188.1036,476.8467,193.7598,476.9293,184.62,473.26" style="stroke:#181818;stroke-width:1;"/><text fill="#000000" font-family="sans-serif" font-size="13" lengthAdjust="spacing" textLength="96.1733" x="1155.73" y="597.0669">eliminarPerfil()</text></g><!--link OPCIONES_CARGA_TRABAJO to OPCIONES_CARGA_TRABAJO--><g class="link" data-entity-1="OPCIONES_CARGA_TRABAJO" data-entity-2="OPCIONES_CARGA_TRABAJO" data-source-line="27" data-uid="lnk24" id="link_OPCIONES_CARGA_TRABAJO_OPCIONES_CARGA_TRABAJO"><path d="M796.78,365.72 C791.45,348.23 797.32,331 814.39,331 C831.46,331 839.0791,342.4906 833.7491,359.9806" fill="none" id="OPCIONES_CARGA_TRABAJO-to-OPCIONES_CARGA_TRABAJO" style="stroke:#181818;stroke-width:1;"/><polygon fill="#181818" points="832,365.72,838.4499,358.2769,833.4575,360.9372,830.7973,355.9449,832,365.72" style="stroke:#181818;stroke-width:1;"/><text fill="#000000" font-family="sans-serif" font-size="13" lengthAdjust="spacing" textLength="121.6528" x="753.89" y="322.0669">editarHorasClase()</text></g><!--link OPCIONES_CARGA_TRABAJO to OPCIONES_CARGA_TRABAJO--><g class="link" data-entity-1="OPCIONES_CARGA_TRABAJO" data-entity-2="OPCIONES_CARGA_TRABAJO" data-source-line="28" data-uid="lnk25" id="link_OPCIONES_CARGA_TRABAJO_OPCIONES_CARGA_TRABAJO"><path d="M787.03,365.7 C765.03,333.89 774.14,296 814.39,296 C854.64,296 867.164,328.956 845.154,360.766" fill="none" id="OPCIONES_CARGA_TRABAJO-to-OPCIONES_CARGA_TRABAJO-1" style="stroke:#181818;stroke-width:1;"/><polygon fill="#181818" points="841.74,365.7,850.1503,360.5749,844.585,361.5883,843.5716,356.023,841.74,365.7" style="stroke:#181818;stroke-width:1;"/><text fill="#000000" font-family="sans-serif" font-size="13" lengthAdjust="spacing" textLength="172.6436" x="728.39" y="287.0669">editarHorasInvestigacion()</text></g><!--link PROYECTOS_ABIERTOS to PROYECTO_ABIERTO--><g class="link" data-entity-1="PROYECTOS_ABIERTOS" data-entity-2="PROYECTO_ABIERTO" data-source-line="32" data-uid="lnk27" id="link_PROYECTOS_ABIERTOS_PROYECTO_ABIERTO"><path d="M860.14,507.46 C886.43,520.94 920.82,536.1 953.53,543 C1008.72,554.64 1066.1949,550.5048 1115.2349,542.6848" fill="none" id="PROYECTOS_ABIERTOS-to-PROYECTO_ABIERTO" style="stroke:#181818;stroke-width:1;"/><polygon fill="#181818" points="1121.16,541.74,1111.6424,539.2072,1116.2224,542.5274,1112.9022,547.1073,1121.16,541.74" style="stroke:#181818;stroke-width:1;"/><text fill="#000000" font-family="sans-serif" font-size="13" lengthAdjust="spacing" textLength="97.6904" x="974.03" y="539.0669">abrirProyecto()</text></g><!--link PROYECTOS_ABIERTOS to PROYECTO_ABIERTO--><g class="link" data-entity-1="PROYECTOS_ABIERTOS" data-entity-2="PROYECTO_ABIERTO" data-source-line="33" data-uid="lnk28" id="link_PROYECTOS_ABIERTOS_PROYECTO_ABIERTO"><path d="M905.87,462.79 C960.4,454.56 1030.82,449.89 1091.53,465 C1118.04,471.6 1140.0613,482.6734 1160.8913,495.5034" fill="none" id="PROYECTOS_ABIERTOS-to-PROYECTO_ABIERTO-1" style="stroke:#181818;stroke-width:1;"/><polygon fill="#181818" points="1166,498.65,1160.4347,490.5243,1161.7428,496.0278,1156.2392,497.3358,1166,498.65" style="stroke:#181818;stroke-width:1;"/><text fill="#000000" font-family="sans-serif" font-size="13" lengthAdjust="spacing" textLength="100.9722" x="972.53" y="451.0669">crearProyecto()</text></g><!--link PROYECTO_ABIERTO to PROYECTOS_ABIERTOS--><g class="link" data-entity-1="PROYECTO_ABIERTO" data-entity-2="PROYECTOS_ABIERTOS" data-source-line="38" data-uid="lnk32" id="link_PROYECTO_ABIERTO_PROYECTOS_ABIERTOS"><path d="M1121.17,515.16 C1058.12,508.32 976.845,499.5071 911.675,492.4371" fill="none" id="PROYECTO_ABIERTO-to-PROYECTOS_ABIERTOS" style="stroke:#181818;stroke-width:1;"/><polygon fill="#181818" points="905.71,491.79,914.2261,496.7373,910.6808,492.3293,915.0889,488.784,905.71,491.79" style="stroke:#181818;stroke-width:1;"/><text fill="#000000" font-family="sans-serif" font-size="13" lengthAdjust="spacing" textLength="120.2183" x="962.53" y="494.0669">eliminarProyecto()</text></g><!--link PROYECTO_ABIERTO to PROYECTO_ABIERTO--><g class="link" data-entity-1="PROYECTO_ABIERTO" data-entity-2="PROYECTO_ABIERTO" data-source-line="35" data-uid="lnk29" id="link_PROYECTO_ABIERTO_PROYECTO_ABIERTO"><path d="M1197.59,498.72 C1195.74,481.23 1197.78,464 1203.73,464 C1209.67,464 1212.3411,475.2633 1210.4911,492.7533" fill="none" id="PROYECTO_ABIERTO-to-PROYECTO_ABIERTO" style="stroke:#181818;stroke-width:1;"/><polygon fill="#181818" points="1209.86,498.72,1214.7845,490.1907,1210.3859,493.7477,1206.8289,489.3492,1209.86,498.72" style="stroke:#181818;stroke-width:1;"/><text fill="#000000" font-family="sans-serif" font-size="13" lengthAdjust="spacing" textLength="157.3774" x="1125.23" y="455.0669">editarNombreProyecto()</text></g><!--link PROYECTO_ABIERTO to PROYECTO_ABIERTO--><g class="link" data-entity-1="PROYECTO_ABIERTO" data-entity-2="PROYECTO_ABIERTO" data-source-line="36" data-uid="lnk30" id="link_PROYECTO_ABIERTO_PROYECTO_ABIERTO"><path d="M1194.2,498.7 C1186.54,466.89 1189.71,429 1203.73,429 C1217.74,429 1222.3147,461.0567 1214.6547,492.8667" fill="none" id="PROYECTO_ABIERTO-to-PROYECTO_ABIERTO-1" style="stroke:#181818;stroke-width:1;"/><polygon fill="#181818" points="1213.25,498.7,1219.2459,490.8866,1214.4206,493.839,1211.4682,489.0137,1213.25,498.7" style="stroke:#181818;stroke-width:1;"/><text fill="#000000" font-family="sans-serif" font-size="13" lengthAdjust="spacing" textLength="181.5303" x="1113.23" y="420.0669">editarDescripcionProyecto()</text></g><!--link PROYECTO_ABIERTO to PROYECTO_ABIERTO--><g class="link" data-entity-1="PROYECTO_ABIERTO" data-entity-2="PROYECTO_ABIERTO" data-source-line="37" data-uid="lnk31" id="link_PROYECTO_ABIERTO_PROYECTO_ABIERTO"><path d="M1192.22,498.79 C1177.33,453.72 1181.16,394 1203.73,394 C1226.29,394 1232.0022,448.0229 1217.1122,493.0929" fill="none" id="PROYECTO_ABIERTO-to-PROYECTO_ABIERTO-2" style="stroke:#181818;stroke-width:1;"/><polygon fill="#181818" points="1215.23,498.79,1221.8514,491.4991,1216.7985,494.0424,1214.2552,488.9895,1215.23,498.79" style="stroke:#181818;stroke-width:1;"/><text fill="#000000" font-family="sans-serif" font-size="13" lengthAdjust="spacing" textLength="184.4946" x="1111.73" y="385.0669">editarFechaLimiteProyecto()</text></g><!--link PROYECTO_ABIERTO to PROYECTO_ABIERTO--><g class="link" data-entity-1="PROYECTO_ABIERTO" data-entity-2="PROYECTO_ABIERTO" data-source-line="39" data-uid="lnk33" id="link_PROYECTO_ABIERTO_PROYECTO_ABIERTO"><path d="M1190.89,498.78 C1168.16,440.98 1172.44,359 1203.73,359 C1235.01,359 1241.4858,435.3962 1218.7558,493.1962" fill="none" id="PROYECTO_ABIERTO-to-PROYECTO_ABIERTO-3" style="stroke:#181818;stroke-width:1;"/><polygon fill="#181818" points="1216.56,498.78,1223.5762,491.8682,1218.3899,494.1269,1216.1312,488.9405,1216.56,498.78" style="stroke:#181818;stroke-width:1;"/><text fill="#000000" font-family="sans-serif" font-size="13" lengthAdjust="spacing" textLength="142.2827" x="1132.73" y="350.0669">agregarInvestigador()</text></g><!--link PROYECTO_ABIERTO to PROYECTO_ABIERTO--><g class="link" data-entity-1="PROYECTO_ABIERTO" data-entity-2="PROYECTO_ABIERTO" data-source-line="40" data-uid="lnk34" id="link_PROYECTO_ABIERTO_PROYECTO_ABIERTO"><path d="M1189.87,498.6 C1159.03,428.37 1163.65,324 1203.73,324 C1243.8,324 1250.8324,422.8763 1219.9924,493.1063" fill="none" id="PROYECTO_ABIERTO-to-PROYECTO_ABIERTO-4" style="stroke:#181818;stroke-width:1;"/><polygon fill="#181818" points="1217.58,498.6,1224.8611,491.9678,1219.5904,494.022,1217.5362,488.7512,1217.58,498.6" style="stroke:#181818;stroke-width:1;"/><text fill="#000000" font-family="sans-serif" font-size="13" lengthAdjust="spacing" textLength="144.2061" x="1131.73" y="315.0669">eliminarInvestigador()</text></g><!--link PROYECTO_ABIERTO to ENTREGABLES_ABIERTOS--><g class="link" data-entity-1="PROYECTO_ABIERTO" data-entity-2="ENTREGABLES_ABIERTOS" data-source-line="43" data-uid="lnk36" id="link_PROYECTO_ABIERTO_ENTREGABLES_ABIERTOS"><path d="M1243.91,498.6 C1264.46,486.78 1290.58,474.02 1315.92,468 C1374.23,454.15 1435.2893,457.0986 1488.8793,464.6886" fill="none" id="PROYECTO_ABIERTO-to-ENTREGABLES_ABIERTOS" style="stroke:#181818;stroke-width:1;"/><polygon fill="#181818" points="1494.82,465.53,1486.4699,460.3074,1489.8694,464.8288,1485.348,468.2284,1494.82,465.53" style="stroke:#181818;stroke-width:1;"/><text fill="#000000" font-family="sans-serif" font-size="13" lengthAdjust="spacing" textLength="113.0645" x="1328.42" y="454.0669">abirEntregables()</text></g><!--link PROYECTO_ABIERTO to ENTREGABLES_ABIERTOS--><g class="link" data-entity-1="PROYECTO_ABIERTO" data-entity-2="ENTREGABLES_ABIERTOS" data-source-line="44" data-uid="lnk37" id="link_PROYECTO_ABIERTO_ENTREGABLES_ABIERTOS"><path d="M1286.27,516.03 C1346.98,510.1 1424.1885,502.5638 1488.7285,496.2538" fill="none" id="PROYECTO_ABIERTO-to-ENTREGABLES_ABIERTOS-1" style="stroke:#181818;stroke-width:1;"/><polygon fill="#181818" points="1494.7,495.67,1485.3535,492.5647,1489.7237,496.1565,1486.1319,500.5268,1494.7,495.67" style="stroke:#181818;stroke-width:1;"/><text fill="#000000" font-family="sans-serif" font-size="13" lengthAdjust="spacing" textLength="114.918" x="1327.92" y="496.0669">crearEntregable()</text></g><!--link ENTREGABLES_ABIERTOS to PROYECTO_ABIERTO--><g class="link" data-entity-1="ENTREGABLES_ABIERTOS" data-entity-2="PROYECTO_ABIERTO" data-source-line="46" data-uid="lnk39" id="link_ENTREGABLES_ABIERTOS_PROYECTO_ABIERTO"><path d="M1537.83,511.48 C1512.74,521.57 1482.42,531.96 1453.92,537 C1398.57,546.78 1341.2681,544.0175 1292.3381,538.2075" fill="none" id="ENTREGABLES_ABIERTOS-to-PROYECTO_ABIERTO" style="stroke:#181818;stroke-width:1;"/><polygon fill="#181818" points="1286.38,537.5,1294.8456,542.5333,1291.3451,538.0896,1295.7889,534.5891,1286.38,537.5" style="stroke:#181818;stroke-width:1;"/><text fill="#000000" font-family="sans-serif" font-size="13" lengthAdjust="spacing" textLength="134.1641" x="1317.92" y="533.0669">eliminarEntregable()</text></g><!--link ENTREGABLES_ABIERTOS to ENTREGABLES_ABIERTOS--><g class="link" data-entity-1="ENTREGABLES_ABIERTOS" data-entity-2="ENTREGABLES_ABIERTOS" data-source-line="45" data-uid="lnk38" id="link_ENTREGABLES_ABIERTOS_ENTREGABLES_ABIERTOS"><path d="M1560.25,460.72 C1549.8,443.23 1561.29,426 1594.73,426 C1628.17,426 1642.7374,438.0793 1632.2874,455.5693" fill="none" id="ENTREGABLES_ABIERTOS-to-ENTREGABLES_ABIERTOS" style="stroke:#181818;stroke-width:1;"/><polygon fill="#181818" points="1629.21,460.72,1637.2599,455.0456,1631.7745,456.4278,1630.3924,450.9424,1629.21,460.72" style="stroke:#181818;stroke-width:1;"/><text fill="#000000" font-family="sans-serif" font-size="13" lengthAdjust="spacing" textLength="195.4761" x="1497.23" y="417.0669">editarDescripcionEntregable()</text></g><!--link PROYECTO_ABIERTO to INVESTIGADORES_ABIERTOS--><g class="link" data-entity-1="PROYECTO_ABIERTO" data-entity-2="INVESTIGADORES_ABIERTOS" data-source-line="49" data-uid="lnk40" id="link_PROYECTO_ABIERTO_INVESTIGADORES_ABIERTOS"><path d="M1233.06,498.82 C1254.99,479.82 1286.5,453.6 1315.92,433 C1393.58,378.62 1484.5017,327.0013 1540.9217,296.2513" fill="none" id="PROYECTO_ABIERTO-to-INVESTIGADORES_ABIERTOS" style="stroke:#181818;stroke-width:1;"/><polygon fill="#181818" points="1546.19,293.38,1536.3733,294.1748,1541.7997,295.7728,1540.2017,301.1992,1546.19,293.38" style="stroke:#181818;stroke-width:1;"/><text fill="#000000" font-family="sans-serif" font-size="13" lengthAdjust="spacing" textLength="136.4492" x="1316.92" y="344.0669">abrirInvestigadores()</text></g><!--link INVESTIGADORES_ABIERTOS to INVESTIGADOR_ABIERTO--><g class="link" data-entity-1="INVESTIGADORES_ABIERTOS" data-entity-2="INVESTIGADOR_ABIERTO" data-source-line="51" data-uid="lnk42" id="link_INVESTIGADORES_ABIERTOS_INVESTIGADOR_ABIERTO"><path d="M1705.79,268 C1764.04,268 1828.93,268 1885.09,268" fill="none" id="INVESTIGADORES_ABIERTOS-to-INVESTIGADOR_ABIERTO" style="stroke:#181818;stroke-width:1;"/><polygon fill="#181818" points="1891.09,268,1882.09,264,1886.09,268,1882.09,272,1891.09,268" style="stroke:#181818;stroke-width:1;"/><text fill="#000000" font-family="sans-serif" font-size="13" lengthAdjust="spacing" textLength="121.6782" x="1738.04" y="264.0669">abrirInvestigador()</text></g><!--link INVESTIGADORES_ABIERTOS to INVESTIGADOR_ABIERTO--><g class="link" data-entity-1="INVESTIGADORES_ABIERTOS" data-entity-2="INVESTIGADOR_ABIERTO" data-source-line="52" data-uid="lnk43" id="link_INVESTIGADORES_ABIERTOS_INVESTIGADOR_ABIERTO"><path d="M1705.76,289.55 C1715.8,290.95 1725.84,292.14 1735.54,293 C1791.32,297.95 1805.81,298.45 1861.54,293 C1871.23,292.05 1875.3534,291.6355 1885.3634,290.0555" fill="none" id="INVESTIGADORES_ABIERTOS-to-INVESTIGADOR_ABIERTO-1" style="stroke:#181818;stroke-width:1;"/><polygon fill="#181818" points="1891.29,289.12,1881.7764,286.5721,1886.3511,289.8996,1883.0237,294.4743,1891.29,289.12" style="stroke:#181818;stroke-width:1;"/><text fill="#000000" font-family="sans-serif" font-size="13" lengthAdjust="spacing" textLength="124.96" x="1736.54" y="289.0669">crearInvestigador()</text></g><!--link INVESTIGADOR_ABIERTO to OPCIONES_PERFIL--><g class="link" data-entity-1="INVESTIGADOR_ABIERTO" data-entity-2="OPCIONES_PERFIL" data-source-line="55" data-uid="lnk44" id="link_INVESTIGADOR_ABIERTO_OPCIONES_PERFIL"><path d="M2086.57,268 C2147.62,268 2219.25,268 2275.1,268" fill="none" id="INVESTIGADOR_ABIERTO-to-OPCIONES_PERFIL" style="stroke:#181818;stroke-width:1;"/><polygon fill="#181818" points="2281.1,268,2272.1,264,2276.1,268,2272.1,272,2281.1,268" style="stroke:#181818;stroke-width:1;"/><text fill="#000000" font-family="sans-serif" font-size="13" lengthAdjust="spacing" textLength="133.853" x="2117.54" y="264.0669">abrirOpcionesPerfil()</text></g><!--SRC=[dPNHJeCm58RlUGekrSGNyCAaOtLYvY25c1XZbZCuOWrISzgO-FPsp24KCAjtGFxlx-avVqkDBoOqAYHPlPgmb8I5aQe9Wk3fuZcylBmECvx5oMORSI7OaWN3rmd5LLXYWnLGtCX2gWorzJixdm9JBcxYzLKezqgWJdhuFkbT855F6VIrIHfPBS-sHr_OaQJamrRHe4wHNcGzTE-8Y8aLs-Q2BTXTue0HK0KvmGxUr11FHVB8epp9jcmHSs4VVj2Kr9TjfD93VRnvu5aUhzWo4Nm4nSqdQYChA1MXRZVdx6XwbrXA0xHHxpj2Itamx0FhMfRAZufBFxtj7o617tGFsY3vCSj6pW1kYh2Mxx81wZ8Hz9iz2CEVEJciUwi8T5I37hJ_NovT1efZleDno0RPEtvrahSFtgbWGGXzC70bCrm_U1FhdaGlKHSasvFsNuiRB5vXRGTgJgwYV_QwB7Wl3nKTxhdVS-jH-y-o3ZtJVBx91L-nnTgvDYJnnkohsDNjbU41jrF_fIqyfVl3O3J0qypcMp7WPnhXUuNEw4TUpZ5ofkBlqdPtDDifhSUlwni0]--></g></svg>