<svg xmlns="http://www.w3.org/2000/svg" xmlns:xlink="http://www.w3.org/1999/xlink" contentStyleType="text/css" data-diagram-type="STATE" height="898px" preserveAspectRatio="none" style="width:2631px;height:898px;background:#FFFFFF;" version="1.1" viewBox="0 0 2631 898" width="2631px" zoomAndPan="magnify"><title>Diagrama de contexto de un coordinador</title><defs/><g><g class="title" data-source-line="1"><text fill="#000000" font-family="sans-serif" font-size="14" font-weight="bold" lengthAdjust="spacing" textLength="324.2422" x="1146.8677" y="22.9951">Diagrama de contexto de un coordinador</text></g><ellipse cx="16" cy="578.0569" fill="#222222" rx="10" ry="10" style="stroke:#222222;stroke-width:1;"/><g id="SESION_CERRADA"><rect fill="#F1F1F1" height="50" rx="12.5" ry="12.5" style="stroke:#181818;stroke-width:0.5;" width="147.251" x="87" y="553.0569"/><line style="stroke:#181818;stroke-width:0.5;" x1="87" x2="234.251" y1="579.3538" y2="579.3538"/><text fill="#000000" font-family="sans-serif" font-size="14" lengthAdjust="spacing" textLength="127.251" x="97" y="571.052">SESION_CERRADA</text></g><g id="PERFIL"><rect fill="#F1F1F1" height="50" rx="12.5" ry="12.5" style="stroke:#181818;stroke-width:0.5;" width="66.9971" x="403.75" y="496.0569"/><line style="stroke:#181818;stroke-width:0.5;" x1="403.75" x2="470.7471" y1="522.3538" y2="522.3538"/><text fill="#000000" font-family="sans-serif" font-size="14" lengthAdjust="spacing" textLength="46.9971" x="413.75" y="514.052">PERFIL</text></g><g id="OPCIONES_PERFIL_ABIERTO"><rect fill="#F1F1F1" height="50" rx="12.5" ry="12.5" style="stroke:#181818;stroke-width:0.5;" width="215.043" x="775.82" y="683.0569"/><line style="stroke:#181818;stroke-width:0.5;" x1="775.82" x2="990.863" y1="709.3538" y2="709.3538"/><text fill="#000000" font-family="sans-serif" font-size="14" lengthAdjust="spacing" textLength="195.043" x="785.82" y="701.052">OPCIONES_PERFIL_ABIERTO</text></g><g id="OPCIONES_CARGA_TRABAJO_ABIERTAS"><rect fill="#F1F1F1" height="50" rx="12.5" ry="12.5" style="stroke:#181818;stroke-width:0.5;" width="294.1826" x="736.25" y="813.0569"/><line style="stroke:#181818;stroke-width:0.5;" x1="736.25" x2="1030.4326" y1="839.3538" y2="839.3538"/><text fill="#000000" font-family="sans-serif" font-size="14" lengthAdjust="spacing" textLength="274.1826" x="746.25" y="831.052">OPCIONES_CARGA_TRABAJO_ABIERTAS</text></g><g id="PROYECTOS_ABIERTOS"><rect fill="#F1F1F1" height="50" rx="12.5" ry="12.5" style="stroke:#181818;stroke-width:0.5;" width="182.1621" x="2434.23" y="224.0569"/><line style="stroke:#181818;stroke-width:0.5;" x1="2434.23" x2="2616.3921" y1="250.3538" y2="250.3538"/><text fill="#000000" font-family="sans-serif" font-size="14" lengthAdjust="spacing" textLength="162.1621" x="2444.23" y="242.052">PROYECTOS_ABIERTOS</text></g><g id="INVESTIGADORES_ABIERTOS"><rect fill="#F1F1F1" height="50" rx="12.5" ry="12.5" style="stroke:#181818;stroke-width:0.5;" width="221.6191" x="1645.63" y="480.0569"/><line style="stroke:#181818;stroke-width:0.5;" x1="1645.63" x2="1867.2491" y1="506.3538" y2="506.3538"/><text fill="#000000" font-family="sans-serif" font-size="14" lengthAdjust="spacing" textLength="201.6191" x="1655.63" y="498.052">INVESTIGADORES_ABIERTOS</text></g><g id="MIS_PUBLICACIONES_ABIERTAS"><rect fill="#F1F1F1" height="50" rx="12.5" ry="12.5" style="stroke:#181818;stroke-width:0.5;" width="240.6982" x="762.99" y="553.0569"/><line style="stroke:#181818;stroke-width:0.5;" x1="762.99" x2="1003.6882" y1="579.3538" y2="579.3538"/><text fill="#000000" font-family="sans-serif" font-size="14" lengthAdjust="spacing" textLength="220.6982" x="772.99" y="571.052">MIS_PUBLICACIONES_ABIERTAS</text></g><g id="PUBLICACIONES_ABIERTAS"><rect fill="#F1F1F1" height="50" rx="12.5" ry="12.5" style="stroke:#181818;stroke-width:0.5;" width="208.6035" x="779.04" y="411.0569"/><line style="stroke:#181818;stroke-width:0.5;" x1="779.04" x2="987.6435" y1="437.3538" y2="437.3538"/><text fill="#000000" font-family="sans-serif" font-size="14" lengthAdjust="spacing" textLength="188.6035" x="789.04" y="429.052">PUBLICACIONES_ABIERTAS</text></g><g id="PUBLICACION_ABIERTA"><rect fill="#F1F1F1" height="50" rx="12.5" ry="12.5" style="stroke:#181818;stroke-width:0.5;" width="181.9844" x="1254.04" y="465.0569"/><line style="stroke:#181818;stroke-width:0.5;" x1="1254.04" x2="1436.0244" y1="491.3538" y2="491.3538"/><text fill="#000000" font-family="sans-serif" font-size="14" lengthAdjust="spacing" textLength="161.9844" x="1264.04" y="483.052">PUBLICACION_ABIERTA</text></g><g id="MI_PUBLICACION_ABIERTA"><rect fill="#F1F1F1" height="50" rx="12.5" ry="12.5" style="stroke:#181818;stroke-width:0.5;" width="205.1924" x="1242.43" y="595.0569"/><line style="stroke:#181818;stroke-width:0.5;" x1="1242.43" x2="1447.6224" y1="621.3538" y2="621.3538"/><text fill="#000000" font-family="sans-serif" font-size="14" lengthAdjust="spacing" textLength="185.1924" x="1252.43" y="613.052">MI_PUBLICACION_ABIERTA</text></g><g id="PROYECTO_ABIERTO"><rect fill="#F1F1F1" height="50" rx="12.5" ry="12.5" style="stroke:#181818;stroke-width:0.5;" width="164.3887" x="2065.25" y="423.0569"/><line style="stroke:#181818;stroke-width:0.5;" x1="2065.25" x2="2229.6387" y1="449.3538" y2="449.3538"/><text fill="#000000" font-family="sans-serif" font-size="14" lengthAdjust="spacing" textLength="144.3887" x="2075.25" y="441.052">PROYECTO_ABIERTO</text></g><g id="ENTREGABLES_ABIERTOS"><rect fill="#F1F1F1" height="50" rx="12.5" ry="12.5" style="stroke:#181818;stroke-width:0.5;" width="199.3477" x="2425.63" y="508.0569"/><line style="stroke:#181818;stroke-width:0.5;" x1="2425.63" x2="2624.9777" y1="534.3538" y2="534.3538"/><text fill="#000000" font-family="sans-serif" font-size="14" lengthAdjust="spacing" textLength="179.3477" x="2435.63" y="526.052">ENTREGABLES_ABIERTOS</text></g><g id="INVESTIGADOR_ABIERTO"><rect fill="#F1F1F1" height="50" rx="12.5" ry="12.5" style="stroke:#181818;stroke-width:0.5;" width="195" x="1247.53" y="680.0569"/><line style="stroke:#181818;stroke-width:0.5;" x1="1247.53" x2="1442.53" y1="706.3538" y2="706.3538"/><text fill="#000000" font-family="sans-serif" font-size="14" lengthAdjust="spacing" textLength="175" x="1257.53" y="698.052">INVESTIGADOR_ABIERTO</text></g><!--link *start* to SESION_CERRADA--><g class="link" data-entity-1=".start." data-entity-2="SESION_CERRADA" data-source-line="5" data-uid="lnk4" id="link_.start._SESION_CERRADA"><path d="M26.36,578.0569 C39,578.0569 56.73,578.0569 80.69,578.0569" fill="none" id="*start*-to-SESION_CERRADA" style="stroke:#181818;stroke-width:1;"/><polygon fill="#181818" points="86.69,578.0569,77.69,574.0569,81.69,578.0569,77.69,582.0569,86.69,578.0569" style="stroke:#181818;stroke-width:1;"/></g><!--link SESION_CERRADA to SESION_CERRADA--><g class="link" data-entity-1="SESION_CERRADA" data-entity-2="SESION_CERRADA" data-source-line="6" data-uid="lnk5" id="link_SESION_CERRADA_SESION_CERRADA"><path d="M143.01,552.7769 C137.67,535.2869 143.54,518.0569 160.63,518.0569 C177.71,518.0569 185.3321,529.5484 179.9921,547.0384" fill="none" id="SESION_CERRADA-to-SESION_CERRADA" style="stroke:#181818;stroke-width:1;"/><polygon fill="#181818" points="178.24,552.7769,184.6938,545.3372,179.7001,547.9948,177.0424,543.0011,178.24,552.7769" style="stroke:#181818;stroke-width:1;"/><text fill="#000000" font-family="sans-serif" font-size="13" lengthAdjust="spacing" textLength="141.4194" x="90.13" y="509.1238">denegarInicioSesion()</text></g><!--link SESION_CERRADA to PERFIL--><g class="link" data-entity-1="SESION_CERRADA" data-entity-2="PERFIL" data-source-line="7" data-uid="lnk7" id="link_SESION_CERRADA_PERFIL"><path d="M234.5,562.9369 C289.32,551.5569 355.9952,537.716 397.4852,529.106" fill="none" id="SESION_CERRADA-to-PERFIL" style="stroke:#181818;stroke-width:1;"/><polygon fill="#181818" points="403.36,527.8869,393.735,525.799,398.4643,528.9028,395.3605,533.6321,403.36,527.8869" style="stroke:#181818;stroke-width:1;"/><text fill="#000000" font-family="sans-serif" font-size="13" lengthAdjust="spacing" textLength="92.5044" x="265.25" y="533.1238">iniciarSesion()</text></g><!--link PERFIL to SESION_CERRADA--><g class="link" data-entity-1="PERFIL" data-entity-2="SESION_CERRADA" data-source-line="8" data-uid="lnk8" id="link_PERFIL_SESION_CERRADA"><path d="M412.1,546.3969 C397.84,559.4869 378.63,574.1269 358.25,581.0569 C318.82,594.4669 278.2811,595.0048 240.4011,591.2748" fill="none" id="PERFIL-to-SESION_CERRADA" style="stroke:#181818;stroke-width:1;"/><polygon fill="#181818" points="234.43,590.6869,242.9947,595.5496,239.4059,591.1768,243.7787,587.5881,234.43,590.6869" style="stroke:#181818;stroke-width:1;"/><text fill="#000000" font-family="sans-serif" font-size="13" lengthAdjust="spacing" textLength="92.1172" x="265.25" y="577.1238">cerrarSesion()</text></g><!--link PERFIL to OPCIONES_PERFIL_ABIERTO--><g class="link" data-entity-1="PERFIL" data-entity-2="OPCIONES_PERFIL_ABIERTO" data-source-line="9" data-uid="lnk10" id="link_PERFIL_OPCIONES_PERFIL_ABIERTO"><path d="M449.93,546.4369 C462.68,571.1869 485.44,607.9669 516.25,628.0569 C527.3,635.2669 665.5202,664.2818 769.5802,685.4318" fill="none" id="PERFIL-to-OPCIONES_PERFIL_ABIERTO" style="stroke:#181818;stroke-width:1;"/><polygon fill="#181818" points="775.46,686.6269,767.437,680.9144,770.5602,685.631,765.8436,688.7541,775.46,686.6269" style="stroke:#181818;stroke-width:1;"/><text fill="#000000" font-family="sans-serif" font-size="13" lengthAdjust="spacing" textLength="133.853" x="544.75" y="624.1238">abrirOpcionesPerfil()</text></g><!--link OPCIONES_PERFIL_ABIERTO to PERFIL--><g class="link" data-entity-1="OPCIONES_PERFIL_ABIERTO" data-entity-2="PERFIL" data-source-line="66" data-uid="lnk62" id="link_OPCIONES_PERFIL_ABIERTO_PERFIL"><path d="M775.45,717.1069 C682.73,722.7869 557.15,724.5469 516.25,697.0569 C465.08,662.6569 448.0451,592.3597 442.0251,552.4597" fill="none" id="OPCIONES_PERFIL_ABIERTO-to-PERFIL" style="stroke:#181818;stroke-width:1;"/><polygon fill="#181818" points="441.13,546.5269,438.5175,556.0229,441.8759,551.4709,446.4279,554.8294,441.13,546.5269" style="stroke:#181818;stroke-width:1;"/><text fill="#000000" font-family="sans-serif" font-size="13" lengthAdjust="spacing" textLength="73.6455" x="574.75" y="693.1238">abrirPerfil()</text></g><!--link PERFIL to OPCIONES_CARGA_TRABAJO_ABIERTAS--><g class="link" data-entity-1="PERFIL" data-entity-2="OPCIONES_CARGA_TRABAJO_ABIERTAS" data-source-line="10" data-uid="lnk12" id="link_PERFIL_OPCIONES_CARGA_TRABAJO_ABIERTAS"><path d="M439.41,546.5469 C442.97,593.2369 457.44,692.5269 516.25,745.0569 C580.82,802.7369 622.35,766.6669 706.25,788.0569 C735.66,795.5569 761.8618,802.7651 790.3918,810.9351" fill="none" id="PERFIL-to-OPCIONES_CARGA_TRABAJO_ABIERTAS" style="stroke:#181818;stroke-width:1;"/><polygon fill="#181818" points="796.16,812.5869,788.609,806.2637,791.3532,811.2104,786.4066,813.9546,796.16,812.5869" style="stroke:#181818;stroke-width:1;"/><text fill="#000000" font-family="sans-serif" font-size="13" lengthAdjust="spacing" textLength="188.5127" x="517.25" y="741.1238">abrirOpcionesCargaTrabajo()</text></g><!--link OPCIONES_CARGA_TRABAJO_ABIERTAS to PERFIL--><g class="link" data-entity-1="OPCIONES_CARGA_TRABAJO_ABIERTAS" data-entity-2="PERFIL" data-source-line="65" data-uid="lnk61" id="link_OPCIONES_CARGA_TRABAJO_ABIERTAS_PERFIL"><path d="M755.75,863.5469 C678.27,871.5869 581.78,867.0269 516.25,813.0569 C474.53,778.6969 450.2092,616.5086 441.9992,552.1486" fill="none" id="OPCIONES_CARGA_TRABAJO_ABIERTAS-to-PERFIL" style="stroke:#181818;stroke-width:1;"/><polygon fill="#181818" points="441.24,546.1969,438.411,555.6307,441.8727,551.1567,446.3467,554.6184,441.24,546.1969" style="stroke:#181818;stroke-width:1;"/><text fill="#000000" font-family="sans-serif" font-size="13" lengthAdjust="spacing" textLength="73.6455" x="574.75" y="809.1238">abrirPerfil()</text></g><!--link PERFIL to PROYECTOS_ABIERTOS--><g class="link" data-entity-1="PERFIL" data-entity-2="PROYECTOS_ABIERTOS" data-source-line="11" data-uid="lnk14" id="link_PERFIL_PROYECTOS_ABIERTOS"><path d="M439.92,495.5969 C445.4,420.2169 465.53,200.5469 516.25,154.0569 C637.11,43.2969 718.41,109.0569 882.34,109.0569 C882.34,109.0569 882.34,109.0569 2148.44,109.0569 C2260.11,109.0569 2293.13,109.7469 2395.63,154.0569 C2434.89,171.0269 2469.0105,197.954 2493.5305,219.914" fill="none" id="PERFIL-to-PROYECTOS_ABIERTOS" style="stroke:#181818;stroke-width:1;"/><polygon fill="#181818" points="2498,223.9169,2493.9643,214.9328,2494.2754,220.5811,2488.6271,220.8922,2498,223.9169" style="stroke:#181818;stroke-width:1;"/><text fill="#000000" font-family="sans-serif" font-size="13" lengthAdjust="spacing" textLength="104.4634" x="1494.63" y="105.1238">abrirProyectos()</text></g><!--link PROYECTOS_ABIERTOS to PERFIL--><g class="link" data-entity-1="PROYECTOS_ABIERTOS" data-entity-2="PERFIL" data-source-line="56" data-uid="lnk55" id="link_PROYECTOS_ABIERTOS_PERFIL"><path d="M2459.34,223.6169 C2439.19,216.6069 2416.74,209.6669 2395.63,205.0569 C2287.75,181.4869 2258.86,180.0569 2148.44,180.0569 C882.34,180.0569 882.34,180.0569 882.34,180.0569 C716.52,180.0569 638.55,140.0769 516.25,252.0569 C445.24,317.0769 437.4099,436.4369 437.4999,489.9069" fill="none" id="PROYECTOS_ABIERTOS-to-PERFIL" style="stroke:#181818;stroke-width:1;"/><polygon fill="#181818" points="437.51,495.9069,441.4948,486.9002,437.5016,490.9069,433.4949,486.9136,437.51,495.9069" style="stroke:#181818;stroke-width:1;"/><text fill="#000000" font-family="sans-serif" font-size="13" lengthAdjust="spacing" textLength="73.6455" x="1510.13" y="176.1238">abrirPerfil()</text></g><!--link PERFIL to INVESTIGADORES_ABIERTOS--><g class="link" data-entity-1="PERFIL" data-entity-2="INVESTIGADORES_ABIERTOS" data-source-line="12" data-uid="lnk16" id="link_PERFIL_INVESTIGADORES_ABIERTOS"><path d="M438.27,495.6669 C439.86,447.2569 451.07,342.4469 516.25,296.0569 C615.77,225.2269 1507.88,238.5069 1615.63,296.0569 C1689.56,335.5469 1729.2516,427.7024 1745.4716,474.1424" fill="none" id="PERFIL-to-INVESTIGADORES_ABIERTOS" style="stroke:#181818;stroke-width:1;"/><polygon fill="#181818" points="1747.45,479.8069,1748.2587,469.9913,1745.8013,475.0865,1740.7061,472.6292,1747.45,479.8069" style="stroke:#181818;stroke-width:1;"/><text fill="#000000" font-family="sans-serif" font-size="13" lengthAdjust="spacing" textLength="136.4492" x="1068.43" y="244.1238">abrirInvestigadores()</text></g><!--link INVESTIGADORES_ABIERTOS to PERFIL--><g class="link" data-entity-1="INVESTIGADORES_ABIERTOS" data-entity-2="PERFIL" data-source-line="62" data-uid="lnk59" id="link_INVESTIGADORES_ABIERTOS_PERFIL"><path d="M1717.18,479.8169 C1660.92,444.3669 1551.3,381.5469 1447.63,358.0569 C1245.65,312.3069 694,283.7769 516.25,390.0569 C477.06,413.4869 457.1209,459.1195 447.0709,490.1095" fill="none" id="INVESTIGADORES_ABIERTOS-to-PERFIL" style="stroke:#181818;stroke-width:1;"/><polygon fill="#181818" points="445.22,495.8169,451.8013,488.4897,446.7624,491.0607,444.1914,486.0219,445.22,495.8169" style="stroke:#181818;stroke-width:1;"/><text fill="#000000" font-family="sans-serif" font-size="13" lengthAdjust="spacing" textLength="73.6455" x="1099.93" y="314.1238">abrirPerfil()</text></g><!--link PERFIL to MIS_PUBLICACIONES_ABIERTAS--><g class="link" data-entity-1="PERFIL" data-entity-2="MIS_PUBLICACIONES_ABIERTAS" data-source-line="13" data-uid="lnk18" id="link_PERFIL_MIS_PUBLICACIONES_ABIERTAS"><path d="M462.4,546.3969 C476.66,559.4869 495.87,574.1269 516.25,581.0569 C595.23,607.9269 683.484,607.0845 756.564,599.2745" fill="none" id="PERFIL-to-MIS_PUBLICACIONES_ABIERTAS" style="stroke:#181818;stroke-width:1;"/><polygon fill="#181818" points="762.53,598.6369,753.1559,595.6159,757.5583,599.1682,754.006,603.5706,762.53,598.6369" style="stroke:#181818;stroke-width:1;"/><text fill="#000000" font-family="sans-serif" font-size="13" lengthAdjust="spacing" textLength="150.6553" x="536.25" y="577.1238">abrirMisPublicaciones()</text></g><!--link MIS_PUBLICACIONES_ABIERTAS to PERFIL--><g class="link" data-entity-1="MIS_PUBLICACIONES_ABIERTAS" data-entity-2="PERFIL" data-source-line="53" data-uid="lnk53" id="link_MIS_PUBLICACIONES_ABIERTAS_PERFIL"><path d="M762.98,562.7369 C664.55,550.1069 537.5512,533.8008 476.8612,526.0108" fill="none" id="MIS_PUBLICACIONES_ABIERTAS-to-PERFIL" style="stroke:#181818;stroke-width:1;"/><polygon fill="#181818" points="470.91,525.2469,479.3275,530.3601,475.8693,525.8834,480.346,522.4252,470.91,525.2469" style="stroke:#181818;stroke-width:1;"/><text fill="#000000" font-family="sans-serif" font-size="13" lengthAdjust="spacing" textLength="73.6455" x="574.75" y="527.1238">abrirPerfil()</text></g><!--link PERFIL to PUBLICACIONES_ABIERTAS--><g class="link" data-entity-1="PERFIL" data-entity-2="PUBLICACIONES_ABIERTAS" data-source-line="14" data-uid="lnk20" id="link_PERFIL_PUBLICACIONES_ABIERTAS"><path d="M470.89,514.7769 C484.86,512.0869 501.35,508.9169 516.25,506.0569 C604.75,489.0869 699.3966,470.9927 772.6866,456.9927" fill="none" id="PERFIL-to-PUBLICACIONES_ABIERTAS" style="stroke:#181818;stroke-width:1;"/><polygon fill="#181818" points="778.58,455.8669,768.9893,453.6266,773.6688,456.805,770.4904,461.4845,778.58,455.8669" style="stroke:#181818;stroke-width:1;"/><text fill="#000000" font-family="sans-serif" font-size="13" lengthAdjust="spacing" textLength="129.0542" x="546.75" y="465.1238">abrirPublicaciones()</text></g><!--link PUBLICACIONES_ABIERTAS to PERFIL--><g class="link" data-entity-1="PUBLICACIONES_ABIERTAS" data-entity-2="PERFIL" data-source-line="50" data-uid="lnk51" id="link_PUBLICACIONES_ABIERTAS_PERFIL"><path d="M778.75,419.4969 C703.06,411.9269 599.53,411.1869 516.25,446.0569 C491.64,456.3669 474.1031,473.6337 460.0031,491.1437" fill="none" id="PUBLICACIONES_ABIERTAS-to-PERFIL" style="stroke:#181818;stroke-width:1;"/><polygon fill="#181818" points="456.24,495.8169,465.0002,491.3158,459.3759,491.9225,458.7692,486.2983,456.24,495.8169" style="stroke:#181818;stroke-width:1;"/><text fill="#000000" font-family="sans-serif" font-size="13" lengthAdjust="spacing" textLength="73.6455" x="574.75" y="411.1238">abrirPerfil()</text></g><!--link PUBLICACIONES_ABIERTAS to PUBLICACION_ABIERTA--><g class="link" data-entity-1="PUBLICACIONES_ABIERTAS" data-entity-2="PUBLICACION_ABIERTA" data-source-line="16" data-uid="lnk22" id="link_PUBLICACIONES_ABIERTAS_PUBLICACION_ABIERTA"><path d="M942.99,461.4569 C976.66,474.6569 1020.13,489.3769 1060.43,496.0569 C1127.08,507.1069 1144.9,497.5969 1212.43,496.0569 C1225.81,495.7569 1233.9449,495.5193 1247.7949,494.9593" fill="none" id="PUBLICACIONES_ABIERTAS-to-PUBLICACION_ABIERTA" style="stroke:#181818;stroke-width:1;"/><polygon fill="#181818" points="1253.79,494.7169,1244.6357,491.0837,1248.7941,494.9189,1244.9589,499.0772,1253.79,494.7169" style="stroke:#181818;stroke-width:1;"/><text fill="#000000" font-family="sans-serif" font-size="13" lengthAdjust="spacing" textLength="114.2832" x="1079.43" y="492.1238">abrirPublicacion()</text></g><!--link PUBLICACION_ABIERTA to PUBLICACIONES_ABIERTAS--><g class="link" data-entity-1="PUBLICACION_ABIERTA" data-entity-2="PUBLICACIONES_ABIERTAS" data-source-line="19" data-uid="lnk25" id="link_PUBLICACION_ABIERTA_PUBLICACIONES_ABIERTAS"><path d="M1309.22,464.6669 C1283.8,447.7769 1247.76,427.0869 1212.43,418.0569 C1138.93,399.2669 1059.1749,403.9753 993.8049,413.6853" fill="none" id="PUBLICACION_ABIERTA-to-PUBLICACIONES_ABIERTAS" style="stroke:#181818;stroke-width:1;"/><polygon fill="#181818" points="987.87,414.5669,997.36,417.2011,992.8157,413.8322,996.1846,409.2879,987.87,414.5669" style="stroke:#181818;stroke-width:1;"/><text fill="#000000" font-family="sans-serif" font-size="13" lengthAdjust="spacing" textLength="136.811" x="1068.43" y="401.1238">eliminarPublicacion()</text></g><!--link PUBLICACION_ABIERTA to PUBLICACIONES_ABIERTAS--><g class="link" data-entity-1="PUBLICACION_ABIERTA" data-entity-2="PUBLICACIONES_ABIERTAS" data-source-line="51" data-uid="lnk52" id="link_PUBLICACION_ABIERTA_PUBLICACIONES_ABIERTAS"><path d="M1253.87,479.4669 C1177.52,470.4969 1074.0091,458.3366 994.0391,448.9466" fill="none" id="PUBLICACION_ABIERTA-to-PUBLICACIONES_ABIERTAS-1" style="stroke:#181818;stroke-width:1;"/><polygon fill="#181818" points="988.08,448.2469,996.5521,453.2691,993.0459,448.83,997.4851,445.3237,988.08,448.2469" style="stroke:#181818;stroke-width:1;"/><text fill="#000000" font-family="sans-serif" font-size="13" lengthAdjust="spacing" textLength="129.0542" x="1071.93" y="454.1238">abrirPublicaciones()</text></g><!--link PUBLICACION_ABIERTA to PUBLICACION_ABIERTA--><g class="link" data-entity-1="PUBLICACION_ABIERTA" data-entity-2="PUBLICACION_ABIERTA" data-source-line="17" data-uid="lnk23" id="link_PUBLICACION_ABIERTA_PUBLICACION_ABIERTA"><path d="M1327.98,464.7769 C1322.81,447.2869 1328.49,430.0569 1345.03,430.0569 C1361.57,430.0569 1368.9508,441.533 1363.7808,459.023" fill="none" id="PUBLICACION_ABIERTA-to-PUBLICACION_ABIERTA" style="stroke:#181818;stroke-width:1;"/><polygon fill="#181818" points="1362.08,464.7769,1368.4672,457.2799,1363.4974,459.982,1360.7953,455.0122,1362.08,464.7769" style="stroke:#181818;stroke-width:1;"/><text fill="#000000" font-family="sans-serif" font-size="13" lengthAdjust="spacing" textLength="149.9189" x="1270.53" y="421.1238">responderPublicacion()</text></g><!--link PUBLICACION_ABIERTA to PUBLICACION_ABIERTA--><g class="link" data-entity-1="PUBLICACION_ABIERTA" data-entity-2="PUBLICACION_ABIERTA" data-source-line="18" data-uid="lnk24" id="link_PUBLICACION_ABIERTA_PUBLICACION_ABIERTA"><path d="M1318.54,464.7669 C1297.22,432.9469 1306.05,395.0569 1345.03,395.0569 C1384.01,395.0569 1396.1798,427.9623 1374.8598,459.7823" fill="none" id="PUBLICACION_ABIERTA-to-PUBLICACION_ABIERTA-1" style="stroke:#181818;stroke-width:1;"/><polygon fill="#181818" points="1371.52,464.7669,1379.8527,459.5165,1374.3031,460.6131,1373.2066,455.0635,1371.52,464.7669" style="stroke:#181818;stroke-width:1;"/><text fill="#000000" font-family="sans-serif" font-size="13" lengthAdjust="spacing" textLength="122.0337" x="1284.03" y="386.1238">editarPublicacion()</text></g><!--link MIS_PUBLICACIONES_ABIERTAS to MI_PUBLICACION_ABIERTA--><g class="link" data-entity-1="MIS_PUBLICACIONES_ABIERTAS" data-entity-2="MI_PUBLICACION_ABIERTA" data-source-line="21" data-uid="lnk27" id="link_MIS_PUBLICACIONES_ABIERTAS_MI_PUBLICACION_ABIERTA"><path d="M1003.84,601.6769 C1013.61,606.9069 1022.69,613.2869 1030.43,621.0569 C1064.1,654.8269 1022.29,695.4469 1060.43,724.0569 C1114.47,764.6069 1155.08,759.7669 1212.43,724.0569 C1238.08,708.0869 1220.47,683.8069 1242.43,663.0569 C1249.67,656.2169 1252.9134,653.2977 1261.8534,648.3377" fill="none" id="MIS_PUBLICACIONES_ABIERTAS-to-MI_PUBLICACION_ABIERTA" style="stroke:#181818;stroke-width:1;"/><polygon fill="#181818" points="1267.1,645.4269,1257.2895,646.2954,1262.7278,647.8526,1261.1707,653.2909,1267.1,645.4269" style="stroke:#181818;stroke-width:1;"/><text fill="#000000" font-family="sans-serif" font-size="13" lengthAdjust="spacing" textLength="129.1113" x="1071.93" y="720.1238">abrirMiPublicacion()</text></g><!--link MIS_PUBLICACIONES_ABIERTAS to MI_PUBLICACION_ABIERTA--><g class="link" data-entity-1="MIS_PUBLICACIONES_ABIERTAS" data-entity-2="MI_PUBLICACION_ABIERTA" data-source-line="22" data-uid="lnk28" id="link_MIS_PUBLICACIONES_ABIERTAS_MI_PUBLICACION_ABIERTA"><path d="M1004.03,576.4069 C1066.4,576.9769 1143.79,579.9169 1212.43,589.0569 C1223.14,590.4869 1228.3541,591.2325 1239.3741,593.4125" fill="none" id="MIS_PUBLICACIONES_ABIERTAS-to-MI_PUBLICACION_ABIERTA-1" style="stroke:#181818;stroke-width:1;"/><polygon fill="#181818" points="1245.26,594.5769,1237.2073,588.9064,1240.3551,593.6066,1235.6548,596.7543,1245.26,594.5769" style="stroke:#181818;stroke-width:1;"/><text fill="#000000" font-family="sans-serif" font-size="13" lengthAdjust="spacing" textLength="117.5649" x="1077.93" y="573.1238">crearPublicacion()</text></g><!--link MI_PUBLICACION_ABIERTA to MIS_PUBLICACIONES_ABIERTAS--><g class="link" data-entity-1="MI_PUBLICACION_ABIERTA" data-entity-2="MIS_PUBLICACIONES_ABIERTAS" data-source-line="24" data-uid="lnk30" id="link_MI_PUBLICACION_ABIERTA_MIS_PUBLICACIONES_ABIERTAS"><path d="M1242.01,622.3369 C1187.9,622.4269 1120.39,620.7669 1060.43,614.0569 C1038.57,611.6169 1021.2911,608.9246 999.1811,604.6546" fill="none" id="MI_PUBLICACION_ABIERTA-to-MIS_PUBLICACIONES_ABIERTAS" style="stroke:#181818;stroke-width:1;"/><polygon fill="#181818" points="993.29,603.5169,1001.3682,609.1509,998.1993,604.465,1002.8852,601.296,993.29,603.5169" style="stroke:#181818;stroke-width:1;"/><text fill="#000000" font-family="sans-serif" font-size="13" lengthAdjust="spacing" textLength="136.811" x="1068.43" y="610.1238">eliminarPublicacion()</text></g><!--link MI_PUBLICACION_ABIERTA to MIS_PUBLICACIONES_ABIERTAS--><g class="link" data-entity-1="MI_PUBLICACION_ABIERTA" data-entity-2="MIS_PUBLICACIONES_ABIERTAS" data-source-line="54" data-uid="lnk54" id="link_MI_PUBLICACION_ABIERTA_MIS_PUBLICACIONES_ABIERTAS"><path d="M1266.39,645.4869 C1207.99,660.3769 1126.93,671.8669 1060.43,647.0569 C1043.9,640.8969 1045.92,629.5169 1030.43,621.0569 C1018.02,614.2769 1010.0632,610.4851 996.3032,605.5151" fill="none" id="MI_PUBLICACION_ABIERTA-to-MIS_PUBLICACIONES_ABIERTAS-1" style="stroke:#181818;stroke-width:1;"/><polygon fill="#181818" points="990.66,603.4769,997.7659,610.2964,995.3626,605.1754,1000.4836,602.7722,990.66,603.4769" style="stroke:#181818;stroke-width:1;"/><text fill="#000000" font-family="sans-serif" font-size="13" lengthAdjust="spacing" textLength="150.6553" x="1061.43" y="643.1238">abrirMisPublicaciones()</text></g><!--link MI_PUBLICACION_ABIERTA to MI_PUBLICACION_ABIERTA--><g class="link" data-entity-1="MI_PUBLICACION_ABIERTA" data-entity-2="MI_PUBLICACION_ABIERTA" data-source-line="23" data-uid="lnk29" id="link_MI_PUBLICACION_ABIERTA_MI_PUBLICACION_ABIERTA"><path d="M1310.92,594.7769 C1300.59,577.2869 1311.96,560.0569 1345.03,560.0569 C1378.1,560.0569 1392.5213,572.1207 1382.1913,589.6107" fill="none" id="MI_PUBLICACION_ABIERTA-to-MI_PUBLICACION_ABIERTA" style="stroke:#181818;stroke-width:1;"/><polygon fill="#181818" points="1379.14,594.7769,1387.1611,589.0618,1381.6827,590.4717,1380.2728,584.9934,1379.14,594.7769" style="stroke:#181818;stroke-width:1;"/><text fill="#000000" font-family="sans-serif" font-size="13" lengthAdjust="spacing" textLength="122.0337" x="1284.03" y="551.1238">editarPublicacion()</text></g><!--link OPCIONES_PERFIL_ABIERTO to OPCIONES_PERFIL_ABIERTO--><g class="link" data-entity-1="OPCIONES_PERFIL_ABIERTO" data-entity-2="OPCIONES_PERFIL_ABIERTO" data-source-line="26" data-uid="lnk31" id="link_OPCIONES_PERFIL_ABIERTO_OPCIONES_PERFIL_ABIERTO"><path d="M840.52,682.7769 C827.55,665.2869 841.82,648.0569 883.34,648.0569 C924.87,648.0569 942.7157,660.4688 929.7357,677.9588" fill="none" id="OPCIONES_PERFIL_ABIERTO-to-OPCIONES_PERFIL_ABIERTO" style="stroke:#181818;stroke-width:1;"/><polygon fill="#181818" points="926.16,682.7769,934.7356,677.9335,929.1398,678.7618,928.3115,673.1659,926.16,682.7769" style="stroke:#181818;stroke-width:1;"/><text fill="#000000" font-family="sans-serif" font-size="13" lengthAdjust="spacing" textLength="81.396" x="842.84" y="639.1238">editarPerfil()</text></g><!--link OPCIONES_PERFIL_ABIERTO to SESION_CERRADA--><g class="link" data-entity-1="OPCIONES_PERFIL_ABIERTO" data-entity-2="SESION_CERRADA" data-source-line="27" data-uid="lnk32" id="link_OPCIONES_PERFIL_ABIERTO_SESION_CERRADA"><path d="M775.49,726.1369 C761.02,732.2169 747.36,740.2969 736.25,751.0569 C705.66,780.6869 740.76,817.1069 706.25,842.0569 C637.83,891.5469 596.41,868.6169 516.25,842.0569 C370.53,793.7769 240.1147,664.2203 188.2547,607.9103" fill="none" id="OPCIONES_PERFIL_ABIERTO-to-SESION_CERRADA" style="stroke:#181818;stroke-width:1;"/><polygon fill="#181818" points="184.19,603.4969,187.3447,612.8268,187.5772,607.1747,193.2293,607.4073,184.19,603.4969" style="stroke:#181818;stroke-width:1;"/><text fill="#000000" font-family="sans-serif" font-size="13" lengthAdjust="spacing" textLength="96.1733" x="389.25" y="776.1238">eliminarPerfil()</text></g><!--link OPCIONES_CARGA_TRABAJO_ABIERTAS to OPCIONES_CARGA_TRABAJO_ABIERTAS--><g class="link" data-entity-1="OPCIONES_CARGA_TRABAJO_ABIERTAS" data-entity-2="OPCIONES_CARGA_TRABAJO_ABIERTAS" data-source-line="29" data-uid="lnk33" id="link_OPCIONES_CARGA_TRABAJO_ABIERTAS_OPCIONES_CARGA_TRABAJO_ABIERTAS"><path d="M840.52,812.7769 C827.55,795.2869 841.82,778.0569 883.34,778.0569 C924.87,778.0569 942.7157,790.4688 929.7357,807.9588" fill="none" id="OPCIONES_CARGA_TRABAJO_ABIERTAS-to-OPCIONES_CARGA_TRABAJO_ABIERTAS" style="stroke:#181818;stroke-width:1;"/><polygon fill="#181818" points="926.16,812.7769,934.7356,807.9335,929.1398,808.7618,928.3115,803.1659,926.16,812.7769" style="stroke:#181818;stroke-width:1;"/><text fill="#000000" font-family="sans-serif" font-size="13" lengthAdjust="spacing" textLength="136.0557" x="815.34" y="769.1238">editarCargaTrabajo()</text></g><!--link PROYECTOS_ABIERTOS to PROYECTO_ABIERTO--><g class="link" data-entity-1="PROYECTOS_ABIERTOS" data-entity-2="PROYECTO_ABIERTO" data-source-line="31" data-uid="lnk35" id="link_PROYECTOS_ABIERTOS_PROYECTO_ABIERTO"><path d="M2493.61,274.5269 C2468.61,294.1269 2431.68,320.5569 2395.63,337.0569 C2338.78,363.0869 2316.57,347.2169 2259.63,373.0569 C2230.8,386.1469 2206.0039,402.8755 2184.6039,419.0755" fill="none" id="PROYECTOS_ABIERTOS-to-PROYECTO_ABIERTO" style="stroke:#181818;stroke-width:1;"/><polygon fill="#181818" points="2179.82,422.6969,2189.4101,420.454,2183.8065,419.679,2184.5815,414.0755,2179.82,422.6969" style="stroke:#181818;stroke-width:1;"/><text fill="#000000" font-family="sans-serif" font-size="13" lengthAdjust="spacing" textLength="97.6904" x="2279.13" y="333.1238">abrirProyecto()</text></g><!--link PROYECTOS_ABIERTOS to PROYECTO_ABIERTO--><g class="link" data-entity-1="PROYECTOS_ABIERTOS" data-entity-2="PROYECTO_ABIERTO" data-source-line="32" data-uid="lnk36" id="link_PROYECTOS_ABIERTOS_PROYECTO_ABIERTO"><path d="M2509.85,274.4369 C2489.14,308.3269 2447.71,367.6169 2395.63,398.0569 C2367.9,414.2769 2296.6646,427.4437 2235.8546,436.4937" fill="none" id="PROYECTOS_ABIERTOS-to-PROYECTO_ABIERTO-1" style="stroke:#181818;stroke-width:1;"/><polygon fill="#181818" points="2229.92,437.3769,2239.4108,440.0085,2234.8655,436.6409,2238.2331,432.0956,2229.92,437.3769" style="stroke:#181818;stroke-width:1;"/><text fill="#000000" font-family="sans-serif" font-size="13" lengthAdjust="spacing" textLength="100.9722" x="2277.63" y="394.1238">crearProyecto()</text></g><!--link PROYECTO_ABIERTO to PROYECTOS_ABIERTOS--><g class="link" data-entity-1="PROYECTO_ABIERTO" data-entity-2="PROYECTOS_ABIERTOS" data-source-line="34" data-uid="lnk38" id="link_PROYECTO_ABIERTO_PROYECTOS_ABIERTOS"><path d="M2154.9,422.5669 C2167.19,380.0369 2198.35,295.6569 2259.63,259.0569 C2311.45,228.1169 2373.7313,225.6548 2427.9513,231.2148" fill="none" id="PROYECTO_ABIERTO-to-PROYECTOS_ABIERTOS" style="stroke:#181818;stroke-width:1;"/><polygon fill="#181818" points="2433.92,231.8269,2425.375,226.9296,2428.9461,231.3168,2424.5589,234.8879,2433.92,231.8269" style="stroke:#181818;stroke-width:1;"/><text fill="#000000" font-family="sans-serif" font-size="13" lengthAdjust="spacing" textLength="120.2183" x="2267.63" y="226.1238">eliminarProyecto()</text></g><!--link PROYECTO_ABIERTO to PROYECTOS_ABIERTOS--><g class="link" data-entity-1="PROYECTO_ABIERTO" data-entity-2="PROYECTOS_ABIERTOS" data-source-line="57" data-uid="lnk56" id="link_PROYECTO_ABIERTO_PROYECTOS_ABIERTOS"><path d="M2162.8,422.6769 C2181.23,392.4769 2216.1,342.8069 2259.63,316.0569 C2312.54,283.5569 2335.44,299.3269 2395.63,284.0569 C2408.09,280.8969 2415.3932,279.0151 2428.2732,275.5751" fill="none" id="PROYECTO_ABIERTO-to-PROYECTOS_ABIERTOS-1" style="stroke:#181818;stroke-width:1;"/><polygon fill="#181818" points="2434.07,274.0269,2424.3426,272.4847,2429.2393,275.3171,2426.4069,280.2137,2434.07,274.0269" style="stroke:#181818;stroke-width:1;"/><text fill="#000000" font-family="sans-serif" font-size="13" lengthAdjust="spacing" textLength="104.4634" x="2275.63" y="280.1238">abrirProyectos()</text></g><!--link PROYECTO_ABIERTO to PROYECTO_ABIERTO--><g class="link" data-entity-1="PROYECTO_ABIERTO" data-entity-2="PROYECTO_ABIERTO" data-source-line="33" data-uid="lnk37" id="link_PROYECTO_ABIERTO_PROYECTO_ABIERTO"><path d="M2137.28,422.7769 C2134.2,405.2869 2137.59,388.0569 2147.44,388.0569 C2157.29,388.0569 2161.7206,399.3778 2158.6406,416.8678" fill="none" id="PROYECTO_ABIERTO-to-PROYECTO_ABIERTO" style="stroke:#181818;stroke-width:1;"/><polygon fill="#181818" points="2157.6,422.7769,2163.1003,414.607,2158.4672,417.8526,2155.2215,413.2195,2157.6,422.7769" style="stroke:#181818;stroke-width:1;"/><text fill="#000000" font-family="sans-serif" font-size="13" lengthAdjust="spacing" textLength="105.4409" x="2094.94" y="379.1238">editarProyecto()</text></g><!--link PROYECTO_ABIERTO to PROYECTO_ABIERTO--><g class="link" data-entity-1="PROYECTO_ABIERTO" data-entity-2="PROYECTO_ABIERTO" data-source-line="35" data-uid="lnk39" id="link_PROYECTO_ABIERTO_PROYECTO_ABIERTO"><path d="M2131.65,422.7669 C2118.95,390.9469 2124.21,353.0569 2147.44,353.0569 C2170.67,353.0569 2178.1541,385.3743 2165.4541,417.1943" fill="none" id="PROYECTO_ABIERTO-to-PROYECTO_ABIERTO-1" style="stroke:#181818;stroke-width:1;"/><polygon fill="#181818" points="2163.23,422.7669,2170.2812,415.8908,2165.0834,418.1231,2162.8511,412.9253,2163.23,422.7669" style="stroke:#181818;stroke-width:1;"/><text fill="#000000" font-family="sans-serif" font-size="13" lengthAdjust="spacing" textLength="142.2827" x="2076.44" y="344.1238">agregarInvestigador()</text></g><!--link PROYECTO_ABIERTO to PROYECTO_ABIERTO--><g class="link" data-entity-1="PROYECTO_ABIERTO" data-entity-2="PROYECTO_ABIERTO" data-source-line="36" data-uid="lnk40" id="link_PROYECTO_ABIERTO_PROYECTO_ABIERTO"><path d="M2128.38,422.8569 C2103.69,377.7769 2110.05,318.0569 2147.44,318.0569 C2184.83,318.0569 2194.0722,372.5145 2169.3822,417.5945" fill="none" id="PROYECTO_ABIERTO-to-PROYECTO_ABIERTO-2" style="stroke:#181818;stroke-width:1;"/><polygon fill="#181818" points="2166.5,422.8569,2174.3316,416.8847,2168.9018,418.4715,2167.315,413.0418,2166.5,422.8569" style="stroke:#181818;stroke-width:1;"/><text fill="#000000" font-family="sans-serif" font-size="13" lengthAdjust="spacing" textLength="144.2061" x="2075.44" y="309.1238">eliminarInvestigador()</text></g><!--link PROYECTO_ABIERTO to ENTREGABLES_ABIERTOS--><g class="link" data-entity-1="PROYECTO_ABIERTO" data-entity-2="ENTREGABLES_ABIERTOS" data-source-line="37" data-uid="lnk42" id="link_PROYECTO_ABIERTO_ENTREGABLES_ABIERTOS"><path d="M2229.93,457.0269 C2278.5,463.3269 2341.12,473.1469 2395.63,487.0569 C2417.13,492.5469 2434.442,498.1042 2454.932,505.5642" fill="none" id="PROYECTO_ABIERTO-to-ENTREGABLES_ABIERTOS" style="stroke:#181818;stroke-width:1;"/><polygon fill="#181818" points="2460.57,507.6169,2453.4815,500.7792,2455.8717,505.9063,2450.7446,508.2965,2460.57,507.6169" style="stroke:#181818;stroke-width:1;"/><text fill="#000000" font-family="sans-serif" font-size="13" lengthAdjust="spacing" textLength="118.4092" x="2268.63" y="457.1238">abrirEntregables()</text></g><!--link PROYECTO_ABIERTO to ENTREGABLES_ABIERTOS--><g class="link" data-entity-1="PROYECTO_ABIERTO" data-entity-2="ENTREGABLES_ABIERTOS" data-source-line="38" data-uid="lnk43" id="link_PROYECTO_ABIERTO_ENTREGABLES_ABIERTOS"><path d="M2183.12,473.3969 C2204.17,487.3669 2232.19,503.5469 2259.63,512.0569 C2312.8,528.5469 2368.692,534.0003 2419.262,535.3203" fill="none" id="PROYECTO_ABIERTO-to-ENTREGABLES_ABIERTOS-1" style="stroke:#181818;stroke-width:1;"/><polygon fill="#181818" points="2425.26,535.4769,2416.3674,531.2434,2420.2617,535.3464,2416.1587,539.2407,2425.26,535.4769" style="stroke:#181818;stroke-width:1;"/><text fill="#000000" font-family="sans-serif" font-size="13" lengthAdjust="spacing" textLength="114.918" x="2270.63" y="508.1238">crearEntregable()</text></g><!--link ENTREGABLES_ABIERTOS to PROYECTO_ABIERTO--><g class="link" data-entity-1="ENTREGABLES_ABIERTOS" data-entity-2="PROYECTO_ABIERTO" data-source-line="41" data-uid="lnk45" id="link_ENTREGABLES_ABIERTOS_PROYECTO_ABIERTO"><path d="M2450.79,558.5369 C2396.08,573.2269 2320.64,584.2969 2259.63,559.0569 C2217.79,541.7469 2186.9042,505.1299 2167.9342,478.0699" fill="none" id="ENTREGABLES_ABIERTOS-to-PROYECTO_ABIERTO" style="stroke:#181818;stroke-width:1;"/><polygon fill="#181818" points="2164.49,473.1569,2166.3809,482.8225,2167.3602,477.251,2172.9316,478.2303,2164.49,473.1569" style="stroke:#181818;stroke-width:1;"/><text fill="#000000" font-family="sans-serif" font-size="13" lengthAdjust="spacing" textLength="134.1641" x="2260.63" y="555.1238">eliminarEntregable()</text></g><!--link ENTREGABLES_ABIERTOS to PROYECTO_ABIERTO--><g class="link" data-entity-1="ENTREGABLES_ABIERTOS" data-entity-2="PROYECTO_ABIERTO" data-source-line="59" data-uid="lnk57" id="link_ENTREGABLES_ABIERTOS_PROYECTO_ABIERTO"><path d="M2486.52,558.2969 C2433.44,590.3269 2334.86,637.0869 2259.63,599.0569 C2207.48,572.6969 2176.1881,514.5712 2160.7081,478.8912" fill="none" id="ENTREGABLES_ABIERTOS-to-PROYECTO_ABIERTO-1" style="stroke:#181818;stroke-width:1;"/><polygon fill="#181818" points="2158.32,473.3869,2158.2326,483.2353,2160.3101,477.9738,2165.5716,480.0513,2158.32,473.3869" style="stroke:#181818;stroke-width:1;"/><text fill="#000000" font-family="sans-serif" font-size="13" lengthAdjust="spacing" textLength="97.6904" x="2279.13" y="595.1238">abrirProyecto()</text></g><!--link ENTREGABLES_ABIERTOS to ENTREGABLES_ABIERTOS--><g class="link" data-entity-1="ENTREGABLES_ABIERTOS" data-entity-2="ENTREGABLES_ABIERTOS" data-source-line="40" data-uid="lnk44" id="link_ENTREGABLES_ABIERTOS_ENTREGABLES_ABIERTOS"><path d="M2491.86,507.7769 C2481.73,490.2869 2492.88,473.0569 2525.31,473.0569 C2557.74,473.0569 2571.8994,485.0961 2561.7594,502.5861" fill="none" id="ENTREGABLES_ABIERTOS-to-ENTREGABLES_ABIERTOS" style="stroke:#181818;stroke-width:1;"/><polygon fill="#181818" points="2558.75,507.7769,2566.7245,501.997,2561.2578,503.4513,2559.8036,497.9845,2558.75,507.7769" style="stroke:#181818;stroke-width:1;"/><text fill="#000000" font-family="sans-serif" font-size="13" lengthAdjust="spacing" textLength="119.3867" x="2465.81" y="464.1238">editarEntregable()</text></g><!--link PROYECTO_ABIERTO to INVESTIGADORES_ABIERTOS--><g class="link" data-entity-1="PROYECTO_ABIERTO" data-entity-2="INVESTIGADORES_ABIERTOS" data-source-line="43" data-uid="lnk46" id="link_PROYECTO_ABIERTO_INVESTIGADORES_ABIERTOS"><path d="M2110.27,473.5269 C2089.4,486.6469 2062.04,501.2869 2035.25,508.0569 C1981.11,521.7369 1925.1275,522.814 1873.4675,519.474" fill="none" id="PROYECTO_ABIERTO-to-INVESTIGADORES_ABIERTOS" style="stroke:#181818;stroke-width:1;"/><polygon fill="#181818" points="1867.48,519.0869,1876.2032,523.6592,1872.4696,519.4095,1876.7193,515.6759,1867.48,519.0869" style="stroke:#181818;stroke-width:1;"/><text fill="#000000" font-family="sans-serif" font-size="13" lengthAdjust="spacing" textLength="136.4492" x="1898.25" y="504.1238">abrirInvestigadores()</text></g><!--link INVESTIGADORES_ABIERTOS to PROYECTO_ABIERTO--><g class="link" data-entity-1="INVESTIGADORES_ABIERTOS" data-entity-2="PROYECTO_ABIERTO" data-source-line="61" data-uid="lnk58" id="link_INVESTIGADORES_ABIERTOS_PROYECTO_ABIERTO"><path d="M1867.61,488.9169 C1930.4,479.7169 2001.7935,469.2575 2059.0735,460.8575" fill="none" id="INVESTIGADORES_ABIERTOS-to-PROYECTO_ABIERTO" style="stroke:#181818;stroke-width:1;"/><polygon fill="#181818" points="2065.01,459.9869,2055.5249,457.3351,2060.0629,460.7124,2056.6856,465.2504,2065.01,459.9869" style="stroke:#181818;stroke-width:1;"/><text fill="#000000" font-family="sans-serif" font-size="13" lengthAdjust="spacing" textLength="97.6904" x="1917.75" y="460.1238">abrirProyecto()</text></g><!--link INVESTIGADORES_ABIERTOS to INVESTIGADOR_ABIERTO--><g class="link" data-entity-1="INVESTIGADORES_ABIERTOS" data-entity-2="INVESTIGADOR_ABIERTO" data-source-line="45" data-uid="lnk48" id="link_INVESTIGADORES_ABIERTOS_INVESTIGADOR_ABIERTO"><path d="M1645.34,516.8969 C1589.33,527.9969 1523.58,549.4669 1477.63,591.0569 C1452.23,614.0469 1471.84,637.8269 1447.63,662.0569 C1440.79,668.8969 1437.9039,671.7303 1429.3139,676.6603" fill="none" id="INVESTIGADORES_ABIERTOS-to-INVESTIGADOR_ABIERTO" style="stroke:#181818;stroke-width:1;"/><polygon fill="#181818" points="1424.11,679.6469,1433.9069,678.6362,1428.4465,677.158,1429.9247,671.6977,1424.11,679.6469" style="stroke:#181818;stroke-width:1;"/><text fill="#000000" font-family="sans-serif" font-size="13" lengthAdjust="spacing" textLength="121.6782" x="1486.13" y="521.1238">abrirInvestigador()</text></g><!--link INVESTIGADORES_ABIERTOS to INVESTIGADOR_ABIERTO--><g class="link" data-entity-1="INVESTIGADORES_ABIERTOS" data-entity-2="INVESTIGADOR_ABIERTO" data-source-line="46" data-uid="lnk49" id="link_INVESTIGADORES_ABIERTOS_INVESTIGADOR_ABIERTO"><path d="M1729.36,530.4769 C1702.69,555.2669 1659.13,592.5769 1615.63,616.0569 C1583.8,633.2369 1505.6184,658.2478 1439.7784,677.9378" fill="none" id="INVESTIGADORES_ABIERTOS-to-INVESTIGADOR_ABIERTO-1" style="stroke:#181818;stroke-width:1;"/><polygon fill="#181818" points="1434.03,679.6569,1443.7987,680.9105,1438.8204,678.2243,1441.5066,673.2459,1434.03,679.6569" style="stroke:#181818;stroke-width:1;"/><text fill="#000000" font-family="sans-serif" font-size="13" lengthAdjust="spacing" textLength="124.96" x="1484.63" y="612.1238">crearInvestigador()</text></g><!--link INVESTIGADOR_ABIERTO to INVESTIGADORES_ABIERTOS--><g class="link" data-entity-1="INVESTIGADOR_ABIERTO" data-entity-2="INVESTIGADORES_ABIERTOS" data-source-line="63" data-uid="lnk60" id="link_INVESTIGADOR_ABIERTO_INVESTIGADORES_ABIERTOS"><path d="M1443.03,718.3569 C1496.86,721.2169 1563.3,716.9769 1615.63,689.0569 C1681.82,653.7369 1723.4207,577.2961 1742.3807,535.7161" fill="none" id="INVESTIGADOR_ABIERTO-to-INVESTIGADORES_ABIERTOS" style="stroke:#181818;stroke-width:1;"/><polygon fill="#181818" points="1744.87,530.2569,1737.4965,536.7862,1742.7955,534.8062,1744.7755,540.1053,1744.87,530.2569" style="stroke:#181818;stroke-width:1;"/><text fill="#000000" font-family="sans-serif" font-size="13" lengthAdjust="spacing" textLength="136.4492" x="1478.63" y="685.1238">abrirInvestigadores()</text></g><!--link INVESTIGADOR_ABIERTO to OPCIONES_PERFIL_ABIERTO--><g class="link" data-entity-1="INVESTIGADOR_ABIERTO" data-entity-2="OPCIONES_PERFIL_ABIERTO" data-source-line="48" data-uid="lnk50" id="link_INVESTIGADOR_ABIERTO_OPCIONES_PERFIL_ABIERTO"><path d="M1311.31,730.5169 C1285.92,748.5669 1249,771.2569 1212.43,781.0569 C1147.18,798.5469 1122.85,806.9169 1060.43,781.0569 C1043.01,773.8469 1046.65,760.6869 1030.43,751.0569 C1018.27,743.8369 1010.432,739.8528 996.752,734.7528" fill="none" id="INVESTIGADOR_ABIERTO-to-OPCIONES_PERFIL_ABIERTO" style="stroke:#181818;stroke-width:1;"/><polygon fill="#181818" points="991.13,732.6569,998.1657,739.5488,995.815,734.4035,1000.9603,732.0528,991.13,732.6569" style="stroke:#181818;stroke-width:1;"/><text fill="#000000" font-family="sans-serif" font-size="13" lengthAdjust="spacing" textLength="133.853" x="1069.93" y="777.1238">abrirOpcionesPerfil()</text></g><!--link OPCIONES_PERFIL_ABIERTO to INVESTIGADOR_ABIERTO--><g class="link" data-entity-1="OPCIONES_PERFIL_ABIERTO" data-entity-2="INVESTIGADOR_ABIERTO" data-source-line="67" data-uid="lnk63" id="link_OPCIONES_PERFIL_ABIERTO_INVESTIGADOR_ABIERTO"><path d="M991.18,727.2669 C1005.47,733.1969 1019.09,740.9369 1030.43,751.0569 C1055.99,773.8669 1031.88,803.1269 1060.43,822.0569 C1116.74,859.3969 1149.29,846.0669 1212.43,822.0569 C1260.44,803.8069 1298.3487,763.7915 1321.3287,735.2315" fill="none" id="OPCIONES_PERFIL_ABIERTO-to-INVESTIGADOR_ABIERTO" style="stroke:#181818;stroke-width:1;"/><polygon fill="#181818" points="1325.09,730.5569,1316.3316,735.0613,1321.9556,734.4524,1322.5644,740.0764,1325.09,730.5569" style="stroke:#181818;stroke-width:1;"/><text fill="#000000" font-family="sans-serif" font-size="13" lengthAdjust="spacing" textLength="121.6782" x="1075.93" y="818.1238">abrirInvestigador()</text></g><!--SRC=[fLR1Zfim4BtxAtpiLjeVoA6IGzo8LHAGePMgga8EU5bNhBqotghz-ve5iiNO3gIt4EOzlndFl45ptJ2uuxHMz9d2Yi5I2ir-QzdzVXNcKQgA2rf91K337ZKqhnIldpIik6Abvb80yFtZ3tX__mbcE8kJKn5XGj0EWUcZ8s9ZJX6ifYeMlEGoOwsX-t3d0gQOV8uF6yYxIAekeVt_JkwIAUMEJDB8HEAiwFyhq3R694ysa9uLLycBqI9OcpBro1iFCa9aZugSe2rwI0O2b5aC4LKrpHKzqvzoofEIv1kEyYGRpnwXgP9_J5bbEusFJrznbiTxj4i8de5YyOkrcjVTDJ4BUOnDcb-sXpX2WtHBx96twUkvuINjHLj2Gr0R1zpHDj7uOixIdJsFy-DDjYzILEn_E5Z5DLrFCAa6Q_YpcHAB1VXhFrnDuQ_AaK_9RkGg5RDbkKE3BAuQ1MdyFUSfbMSam-Cwo1hdDCHXcyD5nWW6LqPxsVZtYgov1_DfdvY0vJ-Z1NHzk1JON_CSEAd173OKS27kNz-vr6_rcMRNz9R_xbah10_7Ba7ZKqxm7cqFSyF4GdSYparlTylHRtL-HtUNwmeCCFGbdr1u6VpvJoKu4rYvCe0dViPbTQjr4-jPtafgiG1Nw2shExYHXa-AVkWkotwbzRiNuHMtTXzzewFwjhZNFTnvBvtysMVAclwr3IxOBzVXGRGpJMzZhHsN9Ul2BI6qfjOZ5e_cNm00]--></g></svg>