<svg xmlns="http://www.w3.org/2000/svg" xmlns:xlink="http://www.w3.org/1999/xlink" contentStyleType="text/css" data-diagram-type="STATE" height="424px" preserveAspectRatio="none" style="width:2435px;height:424px;background:#FFFFFF;" version="1.1" viewBox="0 0 2435 424" width="2435px" zoomAndPan="magnify"><defs/><g><ellipse cx="16" cy="274.5659" fill="#222222" rx="10" ry="10" style="stroke:#222222;stroke-width:1;"/><g id="SESION_CERRADA"><rect fill="#F1F1F1" height="50" rx="12.5" ry="12.5" style="stroke:#181818;stroke-width:0.5;" width="147.251" x="87" y="249.5659"/><line style="stroke:#181818;stroke-width:0.5;" x1="87" x2="234.251" y1="275.8628" y2="275.8628"/><text fill="#000000" font-family="sans-serif" font-size="14" lengthAdjust="spacing" textLength="127.251" x="97" y="267.561">SESION_CERRADA</text></g><g id="PERFIL"><rect fill="#F1F1F1" height="50" rx="12.5" ry="12.5" style="stroke:#181818;stroke-width:0.5;" width="66.9971" x="388.25" y="192.5659"/><line style="stroke:#181818;stroke-width:0.5;" x1="388.25" x2="455.2471" y1="218.8628" y2="218.8628"/><text fill="#000000" font-family="sans-serif" font-size="14" lengthAdjust="spacing" textLength="46.9971" x="398.25" y="210.561">PERFIL</text></g><g id="OPCIONES_PERFIL"><rect fill="#F1F1F1" height="50" rx="12.5" ry="12.5" style="stroke:#181818;stroke-width:0.5;" width="146.5879" x="2281.54" y="102.5659"/><line style="stroke:#181818;stroke-width:0.5;" x1="2281.54" x2="2428.1279" y1="128.8628" y2="128.8628"/><text fill="#000000" font-family="sans-serif" font-size="14" lengthAdjust="spacing" textLength="126.5879" x="2291.54" y="120.561">OPCIONES_PERFIL</text></g><g id="OPCIONES_CARGA_TRABAJO"><rect fill="#F1F1F1" height="50" rx="12.5" ry="12.5" style="stroke:#181818;stroke-width:0.5;" width="218.2832" x="705.25" y="192.5659"/><line style="stroke:#181818;stroke-width:0.5;" x1="705.25" x2="923.5332" y1="218.8628" y2="218.8628"/><text fill="#000000" font-family="sans-serif" font-size="14" lengthAdjust="spacing" textLength="198.2832" x="715.25" y="210.561">OPCIONES_CARGA_TRABAJO</text></g><g id="PROYECTOS_ABIERTOS"><rect fill="#F1F1F1" height="50" rx="12.5" ry="12.5" style="stroke:#181818;stroke-width:0.5;" width="182.1621" x="723.31" y="277.5659"/><line style="stroke:#181818;stroke-width:0.5;" x1="723.31" x2="905.4721" y1="303.8628" y2="303.8628"/><text fill="#000000" font-family="sans-serif" font-size="14" lengthAdjust="spacing" textLength="162.1621" x="733.31" y="295.561">PROYECTOS_ABIERTOS</text></g><g id="INVESTIGADORES_ABIERTOS"><rect fill="#F1F1F1" height="50" rx="12.5" ry="12.5" style="stroke:#181818;stroke-width:0.5;" width="221.6191" x="1483.92" y="102.5659"/><line style="stroke:#181818;stroke-width:0.5;" x1="1483.92" x2="1705.5391" y1="128.8628" y2="128.8628"/><text fill="#000000" font-family="sans-serif" font-size="14" lengthAdjust="spacing" textLength="201.6191" x="1493.92" y="120.561">INVESTIGADORES_ABIERTOS</text></g><g id="PROYECTO_ABIERTO"><rect fill="#F1F1F1" height="50" rx="12.5" ry="12.5" style="stroke:#181818;stroke-width:0.5;" width="164.3887" x="1121.53" y="282.5659"/><line style="stroke:#181818;stroke-width:0.5;" x1="1121.53" x2="1285.9187" y1="308.8628" y2="308.8628"/><text fill="#000000" font-family="sans-serif" font-size="14" lengthAdjust="spacing" textLength="144.3887" x="1131.53" y="300.561">PROYECTO_ABIERTO</text></g><g id="ENTREGABLES_ABIERTOS"><rect fill="#F1F1F1" height="50" rx="12.5" ry="12.5" style="stroke:#181818;stroke-width:0.5;" width="199.3477" x="1495.06" y="277.5659"/><line style="stroke:#181818;stroke-width:0.5;" x1="1495.06" x2="1694.4077" y1="303.8628" y2="303.8628"/><text fill="#000000" font-family="sans-serif" font-size="14" lengthAdjust="spacing" textLength="179.3477" x="1505.06" y="295.561">ENTREGABLES_ABIERTOS</text></g><g id="INVESTIGADOR_ABIERTO"><rect fill="#F1F1F1" height="50" rx="12.5" ry="12.5" style="stroke:#181818;stroke-width:0.5;" width="195" x="1891.54" y="102.5659"/><line style="stroke:#181818;stroke-width:0.5;" x1="1891.54" x2="2086.54" y1="128.8628" y2="128.8628"/><text fill="#000000" font-family="sans-serif" font-size="14" lengthAdjust="spacing" textLength="175" x="1901.54" y="120.561">INVESTIGADOR_ABIERTO</text></g><!--link *start* to SESION_CERRADA--><g class="link" data-entity-1=".start." data-entity-2="SESION_CERRADA" data-source-line="4" data-uid="lnk4" id="link_.start._SESION_CERRADA"><path d="M26.36,274.5659 C39,274.5659 56.73,274.5659 80.69,274.5659" fill="none" id="*start*-to-SESION_CERRADA" style="stroke:#181818;stroke-width:1;"/><polygon fill="#181818" points="86.69,274.5659,77.69,270.5659,81.69,274.5659,77.69,278.5659,86.69,274.5659" style="stroke:#181818;stroke-width:1;"/></g><!--link SESION_CERRADA to SESION_CERRADA--><g class="link" data-entity-1="SESION_CERRADA" data-entity-2="SESION_CERRADA" data-source-line="5" data-uid="lnk5" id="link_SESION_CERRADA_SESION_CERRADA"><path d="M143.01,249.2859 C137.67,231.7959 143.54,214.5659 160.63,214.5659 C177.71,214.5659 185.3321,226.0574 179.9921,243.5474" fill="none" id="SESION_CERRADA-to-SESION_CERRADA" style="stroke:#181818;stroke-width:1;"/><polygon fill="#181818" points="178.24,249.2859,184.6938,241.8462,179.7001,244.5038,177.0424,239.5101,178.24,249.2859" style="stroke:#181818;stroke-width:1;"/><text fill="#000000" font-family="sans-serif" font-size="13" lengthAdjust="spacing" textLength="141.4194" x="90.13" y="205.6328">denegarInicioSesion()</text></g><!--link SESION_CERRADA to PERFIL--><g class="link" data-entity-1="SESION_CERRADA" data-entity-2="PERFIL" data-source-line="6" data-uid="lnk7" id="link_SESION_CERRADA_PERFIL"><path d="M234.62,288.8959 C272.76,293.1559 319.45,293.1759 358.25,277.5659 C375.83,270.4959 387.3585,260.4128 398.4785,247.3628" fill="none" id="SESION_CERRADA-to-PERFIL" style="stroke:#181818;stroke-width:1;"/><polygon fill="#181818" points="402.37,242.7959,393.4882,247.0519,399.1271,246.6017,399.5774,252.2406,402.37,242.7959" style="stroke:#181818;stroke-width:1;"/><text fill="#000000" font-family="sans-serif" font-size="13" lengthAdjust="spacing" textLength="92.5044" x="265.25" y="273.6328">iniciarSesion()</text></g><!--link PERFIL to SESION_CERRADA--><g class="link" data-entity-1="PERFIL" data-entity-2="SESION_CERRADA" data-source-line="7" data-uid="lnk8" id="link_PERFIL_SESION_CERRADA"><path d="M388.03,224.7659 C349.67,233.2059 290.7998,246.1464 240.3598,257.2464" fill="none" id="PERFIL-to-SESION_CERRADA" style="stroke:#181818;stroke-width:1;"/><polygon fill="#181818" points="234.5,258.5359,244.1494,260.5082,239.3832,257.4613,242.43,252.6951,234.5,258.5359" style="stroke:#181818;stroke-width:1;"/><text fill="#000000" font-family="sans-serif" font-size="13" lengthAdjust="spacing" textLength="92.1172" x="265.25" y="226.6328">cerrarSesion()</text></g><!--link PERFIL to OPCIONES_PERFIL--><g class="link" data-entity-1="PERFIL" data-entity-2="OPCIONES_PERFIL" data-source-line="10" data-uid="lnk10" id="link_PERFIL_OPCIONES_PERFIL"><path d="M437.02,192.3959 C448.13,174.8259 465.04,152.0259 485.25,137.5659 C610.82,47.7359 659,23.5659 813.39,23.5659 C813.39,23.5659 813.39,23.5659 1990.04,23.5659 C2104.01,23.5659 2225.111,68.9129 2294.861,99.7029" fill="none" id="PERFIL-to-OPCIONES_PERFIL" style="stroke:#181818;stroke-width:1;"/><polygon fill="#181818" points="2300.35,102.1259,2293.7319,94.8321,2295.7758,100.1067,2290.5012,102.1507,2300.35,102.1259" style="stroke:#181818;stroke-width:1;"/><text fill="#000000" font-family="sans-serif" font-size="13" lengthAdjust="spacing" textLength="133.853" x="1318.42" y="19.6328">abrirOpcionesPerfil()</text></g><!--link PERFIL to OPCIONES_CARGA_TRABAJO--><g class="link" data-entity-1="PERFIL" data-entity-2="OPCIONES_CARGA_TRABAJO" data-source-line="11" data-uid="lnk12" id="link_PERFIL_OPCIONES_CARGA_TRABAJO"><path d="M455.72,217.5659 C510.07,217.5659 614.83,217.5659 698.77,217.5659" fill="none" id="PERFIL-to-OPCIONES_CARGA_TRABAJO" style="stroke:#181818;stroke-width:1;"/><polygon fill="#181818" points="704.77,217.5659,695.77,213.5659,699.77,217.5659,695.77,221.5659,704.77,217.5659" style="stroke:#181818;stroke-width:1;"/><text fill="#000000" font-family="sans-serif" font-size="13" lengthAdjust="spacing" textLength="188.5127" x="486.25" y="213.6328">abrirOpcionesCargaTrabajo()</text></g><!--link PERFIL to PROYECTOS_ABIERTOS--><g class="link" data-entity-1="PERFIL" data-entity-2="PROYECTOS_ABIERTOS" data-source-line="12" data-uid="lnk14" id="link_PERFIL_PROYECTOS_ABIERTOS"><path d="M455.73,232.1859 C465.13,235.9559 475.48,239.7459 485.25,242.5659 C564.27,265.3459 650.6527,280.4505 717.2027,290.1505" fill="none" id="PERFIL-to-PROYECTOS_ABIERTOS" style="stroke:#181818;stroke-width:1;"/><polygon fill="#181818" points="723.14,291.0159,714.811,285.7597,718.1923,290.2948,713.6572,293.676,723.14,291.0159" style="stroke:#181818;stroke-width:1;"/><text fill="#000000" font-family="sans-serif" font-size="13" lengthAdjust="spacing" textLength="104.4634" x="528.25" y="238.6328">abrirProyectos()</text></g><!--link PERFIL to INVESTIGADORES_ABIERTOS--><g class="link" data-entity-1="PERFIL" data-entity-2="INVESTIGADORES_ABIERTOS" data-source-line="13" data-uid="lnk16" id="link_PERFIL_INVESTIGADORES_ABIERTOS"><path d="M455.45,203.7259 C507.28,182.6559 611.99,143.6159 705.25,130.5659 C983.28,91.6559 1309.0648,106.1348 1477.6448,117.9948" fill="none" id="PERFIL-to-INVESTIGADORES_ABIERTOS" style="stroke:#181818;stroke-width:1;"/><polygon fill="#181818" points="1483.63,118.4159,1474.9329,113.7942,1478.6423,118.065,1474.3715,121.7744,1483.63,118.4159" style="stroke:#181818;stroke-width:1;"/><text fill="#000000" font-family="sans-serif" font-size="13" lengthAdjust="spacing" textLength="136.4492" x="954.53" y="102.6328">abrirInvestigadores()</text></g><!--link OPCIONES_PERFIL to OPCIONES_PERFIL--><g class="link" data-entity-1="OPCIONES_PERFIL" data-entity-2="OPCIONES_PERFIL" data-source-line="16" data-uid="lnk17" id="link_OPCIONES_PERFIL_OPCIONES_PERFIL"><path d="M2325.94,102.2859 C2317.18,84.7959 2326.81,67.5659 2354.83,67.5659 C2382.85,67.5659 2395.177,79.4312 2386.417,96.9212" fill="none" id="OPCIONES_PERFIL-to-OPCIONES_PERFIL" style="stroke:#181818;stroke-width:1;"/><polygon fill="#181818" points="2383.73,102.2859,2391.3369,96.0301,2385.9691,97.8153,2384.184,92.4475,2383.73,102.2859" style="stroke:#181818;stroke-width:1;"/><text fill="#000000" font-family="sans-serif" font-size="13" lengthAdjust="spacing" textLength="81.396" x="2314.33" y="58.6328">editarPerfil()</text></g><!--link OPCIONES_PERFIL to SESION_CERRADA--><g class="link" data-entity-1="OPCIONES_PERFIL" data-entity-2="SESION_CERRADA" data-source-line="17" data-uid="lnk18" id="link_OPCIONES_PERFIL_SESION_CERRADA"><path d="M2338.78,153.0459 C2294.82,223.8159 2159.05,417.5659 1990.04,417.5659 C420.75,417.5659 420.75,417.5659 420.75,417.5659 C324.41,417.5659 234.5552,344.9724 191.0252,303.9224" fill="none" id="OPCIONES_PERFIL-to-SESION_CERRADA" style="stroke:#181818;stroke-width:1;"/><polygon fill="#181818" points="186.66,299.8059,190.4634,308.8907,190.2976,303.2363,195.9521,303.0705,186.66,299.8059" style="stroke:#181818;stroke-width:1;"/><text fill="#000000" font-family="sans-serif" font-size="13" lengthAdjust="spacing" textLength="96.1733" x="1155.73" y="413.6328">eliminarPerfil()</text></g><!--link OPCIONES_CARGA_TRABAJO to OPCIONES_CARGA_TRABAJO--><g class="link" data-entity-1="OPCIONES_CARGA_TRABAJO" data-entity-2="OPCIONES_CARGA_TRABAJO" data-source-line="22" data-uid="lnk19" id="link_OPCIONES_CARGA_TRABAJO_OPCIONES_CARGA_TRABAJO"><path d="M779.17,192.2859 C768.5,174.7959 780.24,157.5659 814.39,157.5659 C848.54,157.5659 863.4069,169.6751 852.7269,187.1651" fill="none" id="OPCIONES_CARGA_TRABAJO-to-OPCIONES_CARGA_TRABAJO" style="stroke:#181818;stroke-width:1;"/><polygon fill="#181818" points="849.6,192.2859,857.7042,186.6894,852.2058,188.0186,850.8765,182.5201,849.6,192.2859" style="stroke:#181818;stroke-width:1;"/><text fill="#000000" font-family="sans-serif" font-size="13" lengthAdjust="spacing" textLength="136.0557" x="746.39" y="148.6328">editarCargaTrabajo()</text></g><!--link PROYECTOS_ABIERTOS to PROYECTO_ABIERTO--><g class="link" data-entity-1="PROYECTOS_ABIERTOS" data-entity-2="PROYECTO_ABIERTO" data-source-line="26" data-uid="lnk21" id="link_PROYECTOS_ABIERTOS_PROYECTO_ABIERTO"><path d="M860.81,327.9259 C887.04,341.1059 921.15,355.8359 953.53,362.5659 C1013.58,375.0459 1031.81,376.5259 1091.53,362.5659 C1116.49,356.7359 1137.0391,347.3749 1157.4891,335.8849" fill="none" id="PROYECTOS_ABIERTOS-to-PROYECTO_ABIERTO" style="stroke:#181818;stroke-width:1;"/><polygon fill="#181818" points="1162.72,332.9459,1152.9143,333.8672,1158.3609,335.3951,1156.833,340.8417,1162.72,332.9459" style="stroke:#181818;stroke-width:1;"/><text fill="#000000" font-family="sans-serif" font-size="13" lengthAdjust="spacing" textLength="97.6904" x="974.03" y="358.6328">abrirProyecto()</text></g><!--link PROYECTOS_ABIERTOS to PROYECTO_ABIERTO--><g class="link" data-entity-1="PROYECTOS_ABIERTOS" data-entity-2="PROYECTO_ABIERTO" data-source-line="27" data-uid="lnk22" id="link_PROYECTOS_ABIERTOS_PROYECTO_ABIERTO"><path d="M905.7,289.0859 C959.7,282.9159 1029.64,278.2359 1091.53,284.5659 C1101.14,285.5459 1105.2367,285.9795 1115.1267,287.6795" fill="none" id="PROYECTOS_ABIERTOS-to-PROYECTO_ABIERTO-1" style="stroke:#181818;stroke-width:1;"/><polygon fill="#181818" points="1121.04,288.6959,1112.8477,283.2291,1116.1123,287.8489,1111.4925,291.1134,1121.04,288.6959" style="stroke:#181818;stroke-width:1;"/><text fill="#000000" font-family="sans-serif" font-size="13" lengthAdjust="spacing" textLength="100.9722" x="972.53" y="276.6328">crearProyecto()</text></g><!--link PROYECTO_ABIERTO to PROYECTOS_ABIERTOS--><g class="link" data-entity-1="PROYECTO_ABIERTO" data-entity-2="PROYECTOS_ABIERTOS" data-source-line="30" data-uid="lnk24" id="link_PROYECTO_ABIERTO_PROYECTOS_ABIERTOS"><path d="M1121.05,309.2059 C1111.11,309.3559 1101.09,309.4759 1091.53,309.5659 C1030.2,310.1159 1014.84,311.1159 953.53,309.5659 C938.05,309.1759 927.5936,308.814 911.6436,308.074" fill="none" id="PROYECTO_ABIERTO-to-PROYECTOS_ABIERTOS" style="stroke:#181818;stroke-width:1;"/><polygon fill="#181818" points="905.65,307.7959,914.4549,312.2087,910.6446,308.0276,914.8257,304.2173,905.65,307.7959" style="stroke:#181818;stroke-width:1;"/><text fill="#000000" font-family="sans-serif" font-size="13" lengthAdjust="spacing" textLength="120.2183" x="962.53" y="305.6328">eliminarProyecto()</text></g><!--link PROYECTO_ABIERTO to PROYECTO_ABIERTO--><g class="link" data-entity-1="PROYECTO_ABIERTO" data-entity-2="PROYECTO_ABIERTO" data-source-line="29" data-uid="lnk23" id="link_PROYECTO_ABIERTO_PROYECTO_ABIERTO"><path d="M1193.51,282.2859 C1190.41,264.7959 1193.82,247.5659 1203.73,247.5659 C1213.63,247.5659 1218.0871,258.888 1214.9871,276.378" fill="none" id="PROYECTO_ABIERTO-to-PROYECTO_ABIERTO" style="stroke:#181818;stroke-width:1;"/><polygon fill="#181818" points="1213.94,282.2859,1219.4493,274.1221,1214.8126,277.3627,1211.5721,272.7259,1213.94,282.2859" style="stroke:#181818;stroke-width:1;"/><text fill="#000000" font-family="sans-serif" font-size="13" lengthAdjust="spacing" textLength="105.4409" x="1151.23" y="238.6328">editarProyecto()</text></g><!--link PROYECTO_ABIERTO to PROYECTO_ABIERTO--><g class="link" data-entity-1="PROYECTO_ABIERTO" data-entity-2="PROYECTO_ABIERTO" data-source-line="31" data-uid="lnk25" id="link_PROYECTO_ABIERTO_PROYECTO_ABIERTO"><path d="M1187.85,282.2659 C1175.08,250.4559 1180.37,212.5659 1203.73,212.5659 C1227.08,212.5659 1234.6053,244.8878 1221.8353,276.6978" fill="none" id="PROYECTO_ABIERTO-to-PROYECTO_ABIERTO-1" style="stroke:#181818;stroke-width:1;"/><polygon fill="#181818" points="1219.6,282.2659,1226.665,275.404,1221.4627,277.6259,1219.2409,272.4236,1219.6,282.2659" style="stroke:#181818;stroke-width:1;"/><text fill="#000000" font-family="sans-serif" font-size="13" lengthAdjust="spacing" textLength="142.2827" x="1132.73" y="203.6328">agregarInvestigador()</text></g><!--link PROYECTO_ABIERTO to PROYECTO_ABIERTO--><g class="link" data-entity-1="PROYECTO_ABIERTO" data-entity-2="PROYECTO_ABIERTO" data-source-line="32" data-uid="lnk26" id="link_PROYECTO_ABIERTO_PROYECTO_ABIERTO"><path d="M1184.56,282.3559 C1159.73,237.2859 1166.12,177.5659 1203.73,177.5659 C1241.33,177.5659 1250.6152,232.0307 1225.7852,277.1007" fill="none" id="PROYECTO_ABIERTO-to-PROYECTO_ABIERTO-2" style="stroke:#181818;stroke-width:1;"/><polygon fill="#181818" points="1222.89,282.3559,1230.7363,276.4032,1225.3027,277.9765,1223.7293,272.5429,1222.89,282.3559" style="stroke:#181818;stroke-width:1;"/><text fill="#000000" font-family="sans-serif" font-size="13" lengthAdjust="spacing" textLength="144.2061" x="1131.73" y="168.6328">eliminarInvestigador()</text></g><!--link PROYECTO_ABIERTO to ENTREGABLES_ABIERTOS--><g class="link" data-entity-1="PROYECTO_ABIERTO" data-entity-2="ENTREGABLES_ABIERTOS" data-source-line="35" data-uid="lnk28" id="link_PROYECTO_ABIERTO_ENTREGABLES_ABIERTOS"><path d="M1286.41,288.6959 C1296.31,286.9959 1306.31,285.5459 1315.92,284.5659 C1375.06,278.5159 1435.5343,281.7953 1488.6143,287.4953" fill="none" id="PROYECTO_ABIERTO-to-ENTREGABLES_ABIERTOS" style="stroke:#181818;stroke-width:1;"/><polygon fill="#181818" points="1494.58,288.1359,1486.0585,283.1978,1489.6086,287.6021,1485.2044,291.1521,1494.58,288.1359" style="stroke:#181818;stroke-width:1;"/><text fill="#000000" font-family="sans-serif" font-size="13" lengthAdjust="spacing" textLength="113.0645" x="1328.42" y="276.6328">abirEntregables()</text></g><!--link PROYECTO_ABIERTO to ENTREGABLES_ABIERTOS--><g class="link" data-entity-1="PROYECTO_ABIERTO" data-entity-2="ENTREGABLES_ABIERTOS" data-source-line="36" data-uid="lnk29" id="link_PROYECTO_ABIERTO_ENTREGABLES_ABIERTOS"><path d="M1286.4,309.2059 C1296.34,309.3559 1306.36,309.4759 1315.92,309.5659 C1377.25,310.1159 1392.61,311.0959 1453.92,309.5659 C1467.16,309.2359 1475.1055,308.9833 1488.8455,308.3933" fill="none" id="PROYECTO_ABIERTO-to-ENTREGABLES_ABIERTOS-1" style="stroke:#181818;stroke-width:1;"/><polygon fill="#181818" points="1494.84,308.1359,1485.6767,304.5257,1489.8446,308.3504,1486.0199,312.5183,1494.84,308.1359" style="stroke:#181818;stroke-width:1;"/><text fill="#000000" font-family="sans-serif" font-size="13" lengthAdjust="spacing" textLength="114.918" x="1327.92" y="305.6328">crearEntregable()</text></g><!--link ENTREGABLES_ABIERTOS to PROYECTO_ABIERTO--><g class="link" data-entity-1="ENTREGABLES_ABIERTOS" data-entity-2="PROYECTO_ABIERTO" data-source-line="38" data-uid="lnk31" id="link_ENTREGABLES_ABIERTOS_PROYECTO_ABIERTO"><path d="M1495.29,327.9959 C1481.48,330.7159 1467.4,333.0459 1453.92,334.5659 C1392.97,341.4559 1376.82,341.8559 1315.92,334.5659 C1306.25,333.4059 1302.1017,332.8917 1292.1817,330.8917" fill="none" id="ENTREGABLES_ABIERTOS-to-PROYECTO_ABIERTO" style="stroke:#181818;stroke-width:1;"/><polygon fill="#181818" points="1286.3,329.7059,1294.3319,335.4057,1291.2014,330.6941,1295.913,327.5635,1286.3,329.7059" style="stroke:#181818;stroke-width:1;"/><text fill="#000000" font-family="sans-serif" font-size="13" lengthAdjust="spacing" textLength="134.1641" x="1317.92" y="330.6328">eliminarEntregable()</text></g><!--link ENTREGABLES_ABIERTOS to ENTREGABLES_ABIERTOS--><g class="link" data-entity-1="ENTREGABLES_ABIERTOS" data-entity-2="ENTREGABLES_ABIERTOS" data-source-line="37" data-uid="lnk30" id="link_ENTREGABLES_ABIERTOS_ENTREGABLES_ABIERTOS"><path d="M1560.25,277.2859 C1549.8,259.7959 1561.29,242.5659 1594.73,242.5659 C1628.17,242.5659 1642.7374,254.6453 1632.2874,272.1353" fill="none" id="ENTREGABLES_ABIERTOS-to-ENTREGABLES_ABIERTOS" style="stroke:#181818;stroke-width:1;"/><polygon fill="#181818" points="1629.21,277.2859,1637.2599,271.6115,1631.7745,272.9937,1630.3924,267.5083,1629.21,277.2859" style="stroke:#181818;stroke-width:1;"/><text fill="#000000" font-family="sans-serif" font-size="13" lengthAdjust="spacing" textLength="119.3867" x="1535.23" y="233.6328">editarEntregable()</text></g><!--link PROYECTO_ABIERTO to INVESTIGADORES_ABIERTOS--><g class="link" data-entity-1="PROYECTO_ABIERTO" data-entity-2="INVESTIGADORES_ABIERTOS" data-source-line="41" data-uid="lnk32" id="link_PROYECTO_ABIERTO_INVESTIGADORES_ABIERTOS"><path d="M1258.99,282.1159 C1277.09,273.6459 1297.36,264.1759 1315.92,255.5659 C1392.99,219.7959 1476.7874,181.2397 1532.8874,155.4797" fill="none" id="PROYECTO_ABIERTO-to-INVESTIGADORES_ABIERTOS" style="stroke:#181818;stroke-width:1;"/><polygon fill="#181818" points="1538.34,152.9759,1528.4919,153.0964,1533.7961,155.0624,1531.8302,160.3666,1538.34,152.9759" style="stroke:#181818;stroke-width:1;"/><text fill="#000000" font-family="sans-serif" font-size="13" lengthAdjust="spacing" textLength="136.4492" x="1316.92" y="187.6328">abrirInvestigadores()</text></g><!--link INVESTIGADORES_ABIERTOS to INVESTIGADOR_ABIERTO--><g class="link" data-entity-1="INVESTIGADORES_ABIERTOS" data-entity-2="INVESTIGADOR_ABIERTO" data-source-line="43" data-uid="lnk34" id="link_INVESTIGADORES_ABIERTOS_INVESTIGADOR_ABIERTO"><path d="M1705.79,127.5659 C1764.04,127.5659 1828.93,127.5659 1885.09,127.5659" fill="none" id="INVESTIGADORES_ABIERTOS-to-INVESTIGADOR_ABIERTO" style="stroke:#181818;stroke-width:1;"/><polygon fill="#181818" points="1891.09,127.5659,1882.09,123.5659,1886.09,127.5659,1882.09,131.5659,1891.09,127.5659" style="stroke:#181818;stroke-width:1;"/><text fill="#000000" font-family="sans-serif" font-size="13" lengthAdjust="spacing" textLength="121.6782" x="1738.04" y="123.6328">abrirInvestigador()</text></g><!--link INVESTIGADORES_ABIERTOS to INVESTIGADOR_ABIERTO--><g class="link" data-entity-1="INVESTIGADORES_ABIERTOS" data-entity-2="INVESTIGADOR_ABIERTO" data-source-line="44" data-uid="lnk35" id="link_INVESTIGADORES_ABIERTOS_INVESTIGADOR_ABIERTO"><path d="M1705.76,149.1159 C1715.8,150.5159 1725.84,151.7059 1735.54,152.5659 C1791.32,157.5159 1805.81,158.0159 1861.54,152.5659 C1871.23,151.6159 1875.3534,151.2014 1885.3634,149.6214" fill="none" id="INVESTIGADORES_ABIERTOS-to-INVESTIGADOR_ABIERTO-1" style="stroke:#181818;stroke-width:1;"/><polygon fill="#181818" points="1891.29,148.6859,1881.7764,146.138,1886.3511,149.4655,1883.0237,154.0402,1891.29,148.6859" style="stroke:#181818;stroke-width:1;"/><text fill="#000000" font-family="sans-serif" font-size="13" lengthAdjust="spacing" textLength="124.96" x="1736.54" y="148.6328">crearInvestigador()</text></g><!--link INVESTIGADOR_ABIERTO to OPCIONES_PERFIL--><g class="link" data-entity-1="INVESTIGADOR_ABIERTO" data-entity-2="OPCIONES_PERFIL" data-source-line="47" data-uid="lnk36" id="link_INVESTIGADOR_ABIERTO_OPCIONES_PERFIL"><path d="M2086.57,127.5659 C2147.62,127.5659 2219.25,127.5659 2275.1,127.5659" fill="none" id="INVESTIGADOR_ABIERTO-to-OPCIONES_PERFIL" style="stroke:#181818;stroke-width:1;"/><polygon fill="#181818" points="2281.1,127.5659,2272.1,123.5659,2276.1,127.5659,2272.1,131.5659,2281.1,127.5659" style="stroke:#181818;stroke-width:1;"/><text fill="#000000" font-family="sans-serif" font-size="13" lengthAdjust="spacing" textLength="133.853" x="2117.54" y="123.6328">abrirOpcionesPerfil()</text></g><!--SRC=[bPJVQeCm6CNlVOfSReE-G2y6gSrAIcaaoc2C8QccBiFf-0o3lVtyqzeOOz4xbVCxoJbVOYxF6kaIWSe-DKeLo4Ihil0yx_tf0wrMpoWa8MN7s2USuotsXgyEnHgbif2P05geH9MXh6g_XqSN613-GWzhf1gbW5xQVNTw9nB0K7gcbWL-hILXVFKL9r30VkfT5B8A99nLFdJl2H_p7OuZZZTupopG5v292CH9V9L3FE3iZVWH2sEyeOJN3nSqWFAlBhAiXdfwV2LXH7TuopWPGRJubPLMcKXBa5KRpahaJYbJfGNqyLoCtQBCrRSg3CWp5nkKSRUdRcche6Oees86VLs_McqrPSq54v3213rRCi5ToXglwEJC6VMTpMIDa1bqz-4st_dmTLcBdWXCZX4dExmvMCTB0IbqiujJtXwj1N3Rz8skOPVkZa5N-Jo7wVm3VYBzqlireHzvMUVL6iLobxRIqK1TsWN_jNy0]--></g></svg>