<svg xmlns="http://www.w3.org/2000/svg" xmlns:xlink="http://www.w3.org/1999/xlink" contentStyleType="text/css" data-diagram-type="STATE" height="1045px" preserveAspectRatio="none" style="width:2382px;height:1045px;background:#FFFFFF;" version="1.1" viewBox="0 0 2382 1045" width="2382px" zoomAndPan="magnify"><title>Diagrama de contexto de un investigador</title><defs/><g><g class="title" data-source-line="1"><text fill="#000000" font-family="sans-serif" font-size="14" font-weight="bold" lengthAdjust="spacing" textLength="328.248" x="1020.041" y="22.9951">Diagrama de contexto de un investigador</text></g><ellipse cx="16" cy="392.2969" fill="#222222" rx="10" ry="10" style="stroke:#222222;stroke-width:1;"/><g id="SESION_CERRADA"><rect fill="#F1F1F1" height="50" rx="12.5" ry="12.5" style="stroke:#181818;stroke-width:0.5;" width="147.251" x="87" y="367.2969"/><line style="stroke:#181818;stroke-width:0.5;" x1="87" x2="234.251" y1="393.5938" y2="393.5938"/><text fill="#000000" font-family="sans-serif" font-size="14" lengthAdjust="spacing" textLength="127.251" x="97" y="385.292">SESION_CERRADA</text></g><g id="PANEL_PRINCIPAL_ABIERTO"><rect fill="#F1F1F1" height="50" rx="12.5" ry="12.5" style="stroke:#181818;stroke-width:0.5;" width="213.0879" x="388.25" y="424.2969"/><line style="stroke:#181818;stroke-width:0.5;" x1="388.25" x2="601.3379" y1="450.5938" y2="450.5938"/><text fill="#000000" font-family="sans-serif" font-size="14" lengthAdjust="spacing" textLength="193.0879" x="398.25" y="442.292">PANEL_PRINCIPAL_ABIERTO</text></g><g id="OPCIONES_PERFIL_ABIERTO"><rect fill="#F1F1F1" height="50" rx="12.5" ry="12.5" style="stroke:#181818;stroke-width:0.5;" width="215.043" x="890.91" y="105.2969"/><line style="stroke:#181818;stroke-width:0.5;" x1="890.91" x2="1105.953" y1="131.5938" y2="131.5938"/><text fill="#000000" font-family="sans-serif" font-size="14" lengthAdjust="spacing" textLength="195.043" x="900.91" y="123.292">OPCIONES_PERFIL_ABIERTO</text></g><g id="OPCIONES_CARGA_TRABAJO_ABIERTAS"><rect fill="#F1F1F1" height="50" rx="12.5" ry="12.5" style="stroke:#181818;stroke-width:0.5;" width="294.1826" x="851.34" y="235.2969"/><line style="stroke:#181818;stroke-width:0.5;" x1="851.34" x2="1145.5226" y1="261.5938" y2="261.5938"/><text fill="#000000" font-family="sans-serif" font-size="14" lengthAdjust="spacing" textLength="274.1826" x="861.34" y="253.292">OPCIONES_CARGA_TRABAJO_ABIERTAS</text></g><g id="PROYECTOS_ABIERTOS"><rect fill="#F1F1F1" height="50" rx="12.5" ry="12.5" style="stroke:#181818;stroke-width:0.5;" width="182.1621" x="907.35" y="595.2969"/><line style="stroke:#181818;stroke-width:0.5;" x1="907.35" x2="1089.5121" y1="621.5938" y2="621.5938"/><text fill="#000000" font-family="sans-serif" font-size="14" lengthAdjust="spacing" textLength="162.1621" x="917.35" y="613.292">PROYECTOS_ABIERTOS</text></g><g id="INVESTIGADORES_ABIERTOS"><rect fill="#F1F1F1" height="50" rx="12.5" ry="12.5" style="stroke:#181818;stroke-width:0.5;" width="221.6191" x="1760.71" y="389.2969"/><line style="stroke:#181818;stroke-width:0.5;" x1="1760.71" x2="1982.3291" y1="415.5938" y2="415.5938"/><text fill="#000000" font-family="sans-serif" font-size="14" lengthAdjust="spacing" textLength="201.6191" x="1770.71" y="407.292">INVESTIGADORES_ABIERTOS</text></g><g id="MIS_PUBLICACIONES_ABIERTAS"><rect fill="#F1F1F1" height="50" rx="12.5" ry="12.5" style="stroke:#181818;stroke-width:0.5;" width="240.6982" x="878.08" y="760.2969"/><line style="stroke:#181818;stroke-width:0.5;" x1="878.08" x2="1118.7782" y1="786.5938" y2="786.5938"/><text fill="#000000" font-family="sans-serif" font-size="14" lengthAdjust="spacing" textLength="220.6982" x="888.08" y="778.292">MIS_PUBLICACIONES_ABIERTAS</text></g><g id="PUBLICACIONES_ABIERTAS"><rect fill="#F1F1F1" height="50" rx="12.5" ry="12.5" style="stroke:#181818;stroke-width:0.5;" width="208.6035" x="894.13" y="910.2969"/><line style="stroke:#181818;stroke-width:0.5;" x1="894.13" x2="1102.7335" y1="936.5938" y2="936.5938"/><text fill="#000000" font-family="sans-serif" font-size="14" lengthAdjust="spacing" textLength="188.6035" x="904.13" y="928.292">PUBLICACIONES_ABIERTAS</text></g><g id="RECOMPENSAS_ABIERTAS"><rect fill="#F1F1F1" height="50" rx="12.5" ry="12.5" style="stroke:#181818;stroke-width:0.5;" width="202.458" x="897.2" y="472.2969"/><line style="stroke:#181818;stroke-width:0.5;" x1="897.2" x2="1099.658" y1="498.5938" y2="498.5938"/><text fill="#000000" font-family="sans-serif" font-size="14" lengthAdjust="spacing" textLength="182.458" x="907.2" y="490.292">RECOMPENSAS_ABIERTAS</text></g><g id="PUBLICACION_ABIERTA"><rect fill="#F1F1F1" height="50" rx="12.5" ry="12.5" style="stroke:#181818;stroke-width:0.5;" width="181.9844" x="1369.13" y="965.2969"/><line style="stroke:#181818;stroke-width:0.5;" x1="1369.13" x2="1551.1144" y1="991.5938" y2="991.5938"/><text fill="#000000" font-family="sans-serif" font-size="14" lengthAdjust="spacing" textLength="161.9844" x="1379.13" y="983.292">PUBLICACION_ABIERTA</text></g><g id="MI_PUBLICACION_ABIERTA"><rect fill="#F1F1F1" height="50" rx="12.5" ry="12.5" style="stroke:#181818;stroke-width:0.5;" width="205.1924" x="1357.52" y="815.2969"/><line style="stroke:#181818;stroke-width:0.5;" x1="1357.52" x2="1562.7124" y1="841.5938" y2="841.5938"/><text fill="#000000" font-family="sans-serif" font-size="14" lengthAdjust="spacing" textLength="185.1924" x="1367.52" y="833.292">MI_PUBLICACION_ABIERTA</text></g><g id="PROYECTO_ABIERTO"><rect fill="#F1F1F1" height="50" rx="12.5" ry="12.5" style="stroke:#181818;stroke-width:0.5;" width="164.3887" x="1377.92" y="555.2969"/><line style="stroke:#181818;stroke-width:0.5;" x1="1377.92" x2="1542.3087" y1="581.5938" y2="581.5938"/><text fill="#000000" font-family="sans-serif" font-size="14" lengthAdjust="spacing" textLength="144.3887" x="1387.92" y="573.292">PROYECTO_ABIERTO</text></g><g id="RECOMPENSA_ABIERTA"><rect fill="#F1F1F1" height="50" rx="12.5" ry="12.5" style="stroke:#181818;stroke-width:0.5;" width="184.6846" x="1367.78" y="466.2969"/><line style="stroke:#181818;stroke-width:0.5;" x1="1367.78" x2="1552.4646" y1="492.5938" y2="492.5938"/><text fill="#000000" font-family="sans-serif" font-size="14" lengthAdjust="spacing" textLength="164.6846" x="1377.78" y="484.292">RECOMPENSA_ABIERTA</text></g><g id="ENTREGABLES_ABIERTOS"><rect fill="#F1F1F1" height="50" rx="12.5" ry="12.5" style="stroke:#181818;stroke-width:0.5;" width="199.3477" x="1771.85" y="552.2969"/><line style="stroke:#181818;stroke-width:0.5;" x1="1771.85" x2="1971.1977" y1="578.5938" y2="578.5938"/><text fill="#000000" font-family="sans-serif" font-size="14" lengthAdjust="spacing" textLength="179.3477" x="1781.85" y="570.292">ENTREGABLES_ABIERTOS</text></g><g id="INVESTIGADOR_ABIERTO"><rect fill="#F1F1F1" height="50" rx="12.5" ry="12.5" style="stroke:#181818;stroke-width:0.5;" width="195" x="2180.33" y="446.2969"/><line style="stroke:#181818;stroke-width:0.5;" x1="2180.33" x2="2375.33" y1="472.5938" y2="472.5938"/><text fill="#000000" font-family="sans-serif" font-size="14" lengthAdjust="spacing" textLength="175" x="2190.33" y="464.292">INVESTIGADOR_ABIERTO</text></g><!--link *start* to SESION_CERRADA--><g class="link" data-entity-1=".start." data-entity-2="SESION_CERRADA" data-link-type="dependency" data-source-line="5" data-uid="lnk4" id="link_.start._SESION_CERRADA"><path d="M26.36,392.2969 C39,392.2969 56.73,392.2969 80.69,392.2969" fill="none" id="*start*-to-SESION_CERRADA" style="stroke:#181818;stroke-width:1;"/><polygon fill="#181818" points="86.69,392.2969,77.69,388.2969,81.69,392.2969,77.69,396.2969,86.69,392.2969" style="stroke:#181818;stroke-width:1;"/></g><!--link SESION_CERRADA to PANEL_PRINCIPAL_ABIERTO--><g class="link" data-entity-1="SESION_CERRADA" data-entity-2="PANEL_PRINCIPAL_ABIERTO" data-link-type="dependency" data-source-line="6" data-uid="lnk6" id="link_SESION_CERRADA_PANEL_PRINCIPAL_ABIERTO"><path d="M234.52,404.8069 C279.5,412.5269 332.0364,421.5425 382.0564,430.1225" fill="none" id="SESION_CERRADA-to-PANEL_PRINCIPAL_ABIERTO" style="stroke:#181818;stroke-width:1;"/><polygon fill="#181818" points="387.97,431.1369,379.7758,425.6729,383.042,430.2916,378.4233,433.5577,387.97,431.1369" style="stroke:#181818;stroke-width:1;"/><text fill="#000000" font-family="sans-serif" font-size="13" lengthAdjust="spacing" textLength="92.5044" x="265.25" y="406.3638">iniciarSesion()</text></g><!--link PANEL_PRINCIPAL_ABIERTO to SESION_CERRADA--><g class="link" data-entity-1="PANEL_PRINCIPAL_ABIERTO" data-entity-2="SESION_CERRADA" data-link-type="dependency" data-source-line="7" data-uid="lnk7" id="link_PANEL_PRINCIPAL_ABIERTO_SESION_CERRADA"><path d="M387.79,461.1569 C348.42,462.5969 303.76,460.6869 264.25,450.2969 C239.71,443.8469 219.876,433.3292 200.786,420.7992" fill="none" id="PANEL_PRINCIPAL_ABIERTO-to-SESION_CERRADA" style="stroke:#181818;stroke-width:1;"/><polygon fill="#181818" points="195.77,417.5069,201.0991,425.7894,199.95,420.2505,205.4889,419.1014,195.77,417.5069" style="stroke:#181818;stroke-width:1;"/><text fill="#000000" font-family="sans-serif" font-size="13" lengthAdjust="spacing" textLength="92.1172" x="265.25" y="446.3638">cerrarSesion()</text></g><!--link PANEL_PRINCIPAL_ABIERTO to OPCIONES_PERFIL_ABIERTO--><g class="link" data-entity-1="PANEL_PRINCIPAL_ABIERTO" data-entity-2="OPCIONES_PERFIL_ABIERTO" data-link-type="dependency" data-source-line="9" data-uid="lnk9" id="link_PANEL_PRINCIPAL_ABIERTO_OPCIONES_PERFIL_ABIERTO"><path d="M500.28,424.0069 C511.46,369.0869 546.06,239.0169 631.34,178.2969 C652.26,163.4069 784.4649,148.893 884.9049,139.713" fill="none" id="PANEL_PRINCIPAL_ABIERTO-to-OPCIONES_PERFIL_ABIERTO" style="stroke:#181818;stroke-width:1;"/><polygon fill="#181818" points="890.88,139.1669,881.5533,136.0026,885.9008,139.622,882.2814,143.9694,890.88,139.1669" style="stroke:#181818;stroke-width:1;"/><text fill="#000000" font-family="sans-serif" font-size="13" lengthAdjust="spacing" textLength="133.853" x="659.84" y="143.3638">abrirOpcionesPerfil()</text></g><!--link OPCIONES_PERFIL_ABIERTO to PANEL_PRINCIPAL_ABIERTO--><g class="link" data-entity-1="OPCIONES_PERFIL_ABIERTO" data-entity-2="PANEL_PRINCIPAL_ABIERTO" data-link-type="dependency" data-source-line="21" data-uid="lnk24" id="link_OPCIONES_PERFIL_ABIERTO_PANEL_PRINCIPAL_ABIERTO"><path d="M890.64,154.8969 C876.96,159.9969 863.5,166.0769 851.34,173.2969 C835.13,182.9269 838.03,194.5269 821.34,203.2969 C745.33,243.2369 702.64,190.4569 631.34,238.2969 C562.46,284.5169 523.1175,373.158 506.4275,418.378" fill="none" id="OPCIONES_PERFIL_ABIERTO-to-PANEL_PRINCIPAL_ABIERTO" style="stroke:#181818;stroke-width:1;"/><polygon fill="#181818" points="504.35,424.0069,511.2188,416.9486,506.0813,419.3162,503.7137,414.1786,504.35,424.0069" style="stroke:#181818;stroke-width:1;"/><text fill="#000000" font-family="sans-serif" font-size="13" lengthAdjust="spacing" textLength="131.9424" x="660.84" y="199.3638">abrirPanelPrincipal()</text></g><!--link PANEL_PRINCIPAL_ABIERTO to OPCIONES_CARGA_TRABAJO_ABIERTAS--><g class="link" data-entity-1="PANEL_PRINCIPAL_ABIERTO" data-entity-2="OPCIONES_CARGA_TRABAJO_ABIERTAS" data-link-type="dependency" data-source-line="10" data-uid="lnk11" id="link_PANEL_PRINCIPAL_ABIERTO_OPCIONES_CARGA_TRABAJO_ABIERTAS"><path d="M509.28,423.8069 C530.07,387.4469 573.64,321.8169 631.34,292.2969 C669.11,272.9769 760.4541,265.3175 845.2641,262.1975" fill="none" id="PANEL_PRINCIPAL_ABIERTO-to-OPCIONES_CARGA_TRABAJO_ABIERTAS" style="stroke:#181818;stroke-width:1;"/><polygon fill="#181818" points="851.26,261.9769,842.119,258.3104,846.2634,262.1607,842.4131,266.305,851.26,261.9769" style="stroke:#181818;stroke-width:1;"/><text fill="#000000" font-family="sans-serif" font-size="13" lengthAdjust="spacing" textLength="188.5127" x="632.34" y="259.3638">abrirOpcionesCargaTrabajo()</text></g><!--link OPCIONES_CARGA_TRABAJO_ABIERTAS to PANEL_PRINCIPAL_ABIERTO--><g class="link" data-entity-1="OPCIONES_CARGA_TRABAJO_ABIERTAS" data-entity-2="PANEL_PRINCIPAL_ABIERTO" data-link-type="dependency" data-source-line="24" data-uid="lnk26" id="link_OPCIONES_CARGA_TRABAJO_ABIERTAS_PANEL_PRINCIPAL_ABIERTO"><path d="M926.99,285.7069 C895.05,296.5569 856.61,308.6669 821.34,317.2969 C738.16,337.6469 710.17,315.8569 631.34,349.2969 C589.07,367.2269 552.1177,396.7497 526.4177,420.0197" fill="none" id="OPCIONES_CARGA_TRABAJO_ABIERTAS-to-PANEL_PRINCIPAL_ABIERTO" style="stroke:#181818;stroke-width:1;"/><polygon fill="#181818" points="521.97,424.0469,531.3263,420.9713,525.6764,420.6909,525.9568,415.041,521.97,424.0469" style="stroke:#181818;stroke-width:1;"/><text fill="#000000" font-family="sans-serif" font-size="13" lengthAdjust="spacing" textLength="131.9424" x="660.84" y="313.3638">abrirPanelPrincipal()</text></g><!--link PANEL_PRINCIPAL_ABIERTO to PROYECTOS_ABIERTOS--><g class="link" data-entity-1="PANEL_PRINCIPAL_ABIERTO" data-entity-2="PROYECTOS_ABIERTOS" data-link-type="dependency" data-source-line="11" data-uid="lnk13" id="link_PANEL_PRINCIPAL_ABIERTO_PROYECTOS_ABIERTOS"><path d="M523.74,474.7569 C549.72,497.0369 590.47,528.5269 631.34,546.2969 C720.53,585.0969 824.9303,603.143 901.0303,612.003" fill="none" id="PANEL_PRINCIPAL_ABIERTO-to-PROYECTOS_ABIERTOS" style="stroke:#181818;stroke-width:1;"/><polygon fill="#181818" points="906.99,612.6969,898.513,607.6829,902.0235,612.1187,897.5878,615.6292,906.99,612.6969" style="stroke:#181818;stroke-width:1;"/><text fill="#000000" font-family="sans-serif" font-size="13" lengthAdjust="spacing" textLength="104.4634" x="674.34" y="542.3638">abrirProyectos()</text></g><!--link PROYECTOS_ABIERTOS to PANEL_PRINCIPAL_ABIERTO--><g class="link" data-entity-1="PROYECTOS_ABIERTOS" data-entity-2="PANEL_PRINCIPAL_ABIERTO" data-link-type="dependency" data-source-line="39" data-uid="lnk41" id="link_PROYECTOS_ABIERTOS_PANEL_PRINCIPAL_ABIERTO"><path d="M907.09,642.5969 C829.82,656.7869 717.71,665.5069 631.34,623.2969 C567.52,592.1169 527.5341,520.2148 508.9641,479.9748" fill="none" id="PROYECTOS_ABIERTOS-to-PANEL_PRINCIPAL_ABIERTO" style="stroke:#181818;stroke-width:1;"/><polygon fill="#181818" points="506.45,474.5269,506.5892,484.3747,508.5451,479.0668,513.8531,481.0226,506.45,474.5269" style="stroke:#181818;stroke-width:1;"/><text fill="#000000" font-family="sans-serif" font-size="13" lengthAdjust="spacing" textLength="131.9424" x="660.84" y="619.3638">abrirPanelPrincipal()</text></g><!--link PANEL_PRINCIPAL_ABIERTO to INVESTIGADORES_ABIERTOS--><g class="link" data-entity-1="PANEL_PRINCIPAL_ABIERTO" data-entity-2="INVESTIGADORES_ABIERTOS" data-link-type="dependency" data-source-line="12" data-uid="lnk15" id="link_PANEL_PRINCIPAL_ABIERTO_INVESTIGADORES_ABIERTOS"><path d="M542.29,423.8369 C567.78,411.2269 600.42,397.2569 631.34,390.2969 C726.78,368.8369 753.54,385.8469 851.34,383.2969 C1180.79,374.7269 1263.16,371.6369 1592.71,368.2969 C1654.04,367.6769 1670.15,358.5969 1730.71,368.2969 C1756.45,372.4269 1778.2077,378.5822 1801.8877,386.8822" fill="none" id="PANEL_PRINCIPAL_ABIERTO-to-INVESTIGADORES_ABIERTOS" style="stroke:#181818;stroke-width:1;"/><polygon fill="#181818" points="1807.55,388.8669,1800.3797,382.1151,1802.8315,387.213,1797.7335,389.6647,1807.55,388.8669" style="stroke:#181818;stroke-width:1;"/><text fill="#000000" font-family="sans-serif" font-size="13" lengthAdjust="spacing" textLength="136.4492" x="1183.52" y="367.3638">abrirInvestigadores()</text></g><!--link INVESTIGADORES_ABIERTOS to PANEL_PRINCIPAL_ABIERTO--><g class="link" data-entity-1="INVESTIGADORES_ABIERTOS" data-entity-2="PANEL_PRINCIPAL_ABIERTO" data-link-type="dependency" data-source-line="56" data-uid="lnk56" id="link_INVESTIGADORES_ABIERTOS_PANEL_PRINCIPAL_ABIERTO"><path d="M1760.34,414.6969 C1709.33,414.9769 1647.93,415.4669 1592.71,416.2969 C1165.37,422.7269 1058.15,416.1169 631.34,438.2969 C621.67,438.7969 617.6059,439.0159 607.5559,439.7059" fill="none" id="INVESTIGADORES_ABIERTOS-to-PANEL_PRINCIPAL_ABIERTO" style="stroke:#181818;stroke-width:1;"/><polygon fill="#181818" points="601.57,440.1169,610.8228,443.491,606.5583,439.7744,610.2749,435.5098,601.57,440.1169" style="stroke:#181818;stroke-width:1;"/><text fill="#000000" font-family="sans-serif" font-size="13" lengthAdjust="spacing" textLength="73.6455" x="1215.02" y="415.3638">abrirPerfil()</text></g><!--link PANEL_PRINCIPAL_ABIERTO to MIS_PUBLICACIONES_ABIERTAS--><g class="link" data-entity-1="PANEL_PRINCIPAL_ABIERTO" data-entity-2="MIS_PUBLICACIONES_ABIERTAS" data-link-type="dependency" data-source-line="13" data-uid="lnk17" id="link_PANEL_PRINCIPAL_ABIERTO_MIS_PUBLICACIONES_ABIERTAS"><path d="M503.71,474.5069 C519.85,521.7569 561.1,623.7469 631.34,678.2969 C652.68,694.8769 789.8707,732.3263 890.6807,758.3663" fill="none" id="PANEL_PRINCIPAL_ABIERTO-to-MIS_PUBLICACIONES_ABIERTAS" style="stroke:#181818;stroke-width:1;"/><polygon fill="#181818" points="896.49,759.8669,888.7764,753.7431,891.6489,758.6164,886.7756,761.4889,896.49,759.8669" style="stroke:#181818;stroke-width:1;"/><text fill="#000000" font-family="sans-serif" font-size="13" lengthAdjust="spacing" textLength="150.6553" x="651.34" y="674.3638">abrirMisPublicaciones()</text></g><!--link MIS_PUBLICACIONES_ABIERTAS to PANEL_PRINCIPAL_ABIERTO--><g class="link" data-entity-1="MIS_PUBLICACIONES_ABIERTAS" data-entity-2="PANEL_PRINCIPAL_ABIERTO" data-link-type="dependency" data-source-line="35" data-uid="lnk37" id="link_MIS_PUBLICACIONES_ABIERTAS_PANEL_PRINCIPAL_ABIERTO"><path d="M878,791.2869 C786.64,793.4869 669.98,790.3969 631.34,763.2969 C532.42,693.9169 505.7895,542.3883 498.7595,480.7083" fill="none" id="MIS_PUBLICACIONES_ABIERTAS-to-PANEL_PRINCIPAL_ABIERTO" style="stroke:#181818;stroke-width:1;"/><polygon fill="#181818" points="498.08,474.7469,495.1249,484.142,498.6462,479.7147,503.0734,483.236,498.08,474.7469" style="stroke:#181818;stroke-width:1;"/><text fill="#000000" font-family="sans-serif" font-size="13" lengthAdjust="spacing" textLength="131.9424" x="660.84" y="759.3638">abrirPanelPrincipal()</text></g><!--link PANEL_PRINCIPAL_ABIERTO to PUBLICACIONES_ABIERTAS--><g class="link" data-entity-1="PANEL_PRINCIPAL_ABIERTO" data-entity-2="PUBLICACIONES_ABIERTAS" data-link-type="dependency" data-source-line="14" data-uid="lnk19" id="link_PANEL_PRINCIPAL_ABIERTO_PUBLICACIONES_ABIERTAS"><path d="M497.74,474.7369 C504.17,540.7769 530.47,719.3369 631.34,816.2969 C636.68,821.4269 804.3962,874.7074 910.6062,908.0974" fill="none" id="PANEL_PRINCIPAL_ABIERTO-to-PUBLICACIONES_ABIERTAS" style="stroke:#181818;stroke-width:1;"/><polygon fill="#181818" points="916.33,909.8969,908.9439,903.3818,911.5602,908.3973,906.5447,911.0136,916.33,909.8969" style="stroke:#181818;stroke-width:1;"/><text fill="#000000" font-family="sans-serif" font-size="13" lengthAdjust="spacing" textLength="129.0542" x="661.84" y="812.3638">abrirPublicaciones()</text></g><!--link PUBLICACIONES_ABIERTAS to PANEL_PRINCIPAL_ABIERTO--><g class="link" data-entity-1="PUBLICACIONES_ABIERTAS" data-entity-2="PANEL_PRINCIPAL_ABIERTO" data-link-type="dependency" data-source-line="29" data-uid="lnk31" id="link_PUBLICACIONES_ABIERTAS_PANEL_PRINCIPAL_ABIERTO"><path d="M893.97,955.1069 C813.58,964.3069 703.91,962.4569 631.34,903.2969 C562.4,847.1069 514.1352,567.8151 500.5252,480.6051" fill="none" id="PUBLICACIONES_ABIERTAS-to-PANEL_PRINCIPAL_ABIERTO" style="stroke:#181818;stroke-width:1;"/><polygon fill="#181818" points="499.6,474.6769,497.0356,484.186,500.371,479.6171,504.9399,482.9525,499.6,474.6769" style="stroke:#181818;stroke-width:1;"/><text fill="#000000" font-family="sans-serif" font-size="13" lengthAdjust="spacing" textLength="131.9424" x="660.84" y="899.3638">abrirPanelPrincipal()</text></g><!--link PANEL_PRINCIPAL_ABIERTO to RECOMPENSAS_ABIERTAS--><g class="link" data-entity-1="PANEL_PRINCIPAL_ABIERTO" data-entity-2="RECOMPENSAS_ABIERTAS" data-link-type="dependency" data-source-line="15" data-uid="lnk21" id="link_PANEL_PRINCIPAL_ABIERTO_RECOMPENSAS_ABIERTAS"><path d="M540.31,474.6569 C566.02,487.8369 599.49,502.5669 631.34,509.2969 C719.69,527.9769 816.702,522.9552 890.892,514.1352" fill="none" id="PANEL_PRINCIPAL_ABIERTO-to-RECOMPENSAS_ABIERTAS" style="stroke:#181818;stroke-width:1;"/><polygon fill="#181818" points="896.85,513.4269,887.4407,510.5173,891.885,514.0171,888.3851,518.4614,896.85,513.4269" style="stroke:#181818;stroke-width:1;"/><text fill="#000000" font-family="sans-serif" font-size="13" lengthAdjust="spacing" textLength="131.46" x="660.84" y="505.3638">abrirRecompensas()</text></g><!--link RECOMPENSAS_ABIERTAS to PANEL_PRINCIPAL_ABIERTO--><g class="link" data-entity-1="RECOMPENSAS_ABIERTAS" data-entity-2="PANEL_PRINCIPAL_ABIERTO" data-link-type="dependency" data-source-line="43" data-uid="lnk45" id="link_RECOMPENSAS_ABIERTAS_PANEL_PRINCIPAL_ABIERTO"><path d="M896.93,487.6869 C811.31,479.4869 694.6327,468.3288 607.5427,459.9888" fill="none" id="RECOMPENSAS_ABIERTAS-to-PANEL_PRINCIPAL_ABIERTO" style="stroke:#181818;stroke-width:1;"/><polygon fill="#181818" points="601.57,459.4169,610.1477,464.2566,606.5472,459.8935,610.9103,456.293,601.57,459.4169" style="stroke:#181818;stroke-width:1;"/><text fill="#000000" font-family="sans-serif" font-size="13" lengthAdjust="spacing" textLength="131.9424" x="660.84" y="459.3638">abrirPanelPrincipal()</text></g><!--link OPCIONES_PERFIL_ABIERTO to OPCIONES_PERFIL_ABIERTO--><g class="link" data-entity-1="OPCIONES_PERFIL_ABIERTO" data-entity-2="OPCIONES_PERFIL_ABIERTO" data-link-type="dependency" data-source-line="19" data-uid="lnk22" id="link_OPCIONES_PERFIL_ABIERTO_OPCIONES_PERFIL_ABIERTO"><path d="M955.61,105.0169 C942.63,87.5269 956.91,70.2969 998.43,70.2969 C1039.95,70.2969 1057.8057,82.7088 1044.8257,100.1988" fill="none" id="OPCIONES_PERFIL_ABIERTO-to-OPCIONES_PERFIL_ABIERTO" style="stroke:#181818;stroke-width:1;"/><polygon fill="#181818" points="1041.25,105.0169,1049.8256,100.1735,1044.2298,101.0018,1043.4015,95.4059,1041.25,105.0169" style="stroke:#181818;stroke-width:1;"/><text fill="#000000" font-family="sans-serif" font-size="13" lengthAdjust="spacing" textLength="81.396" x="957.93" y="61.3638">editarPerfil()</text></g><!--link OPCIONES_PERFIL_ABIERTO to SESION_CERRADA--><g class="link" data-entity-1="OPCIONES_PERFIL_ABIERTO" data-entity-2="SESION_CERRADA" data-link-type="dependency" data-source-line="20" data-uid="lnk23" id="link_OPCIONES_PERFIL_ABIERTO_SESION_CERRADA"><path d="M890.62,112.4369 C816.58,103.7969 716.41,99.5869 631.34,122.2969 C448.9,170.9969 268.4254,305.5965 196.9954,363.0465" fill="none" id="OPCIONES_PERFIL_ABIERTO-to-SESION_CERRADA" style="stroke:#181818;stroke-width:1;"/><polygon fill="#181818" points="192.32,366.8069,201.8401,364.2833,196.2162,363.6732,196.8262,358.0494,192.32,366.8069" style="stroke:#181818;stroke-width:1;"/><text fill="#000000" font-family="sans-serif" font-size="13" lengthAdjust="spacing" textLength="169.1143" x="410.29" y="128.3638">solicitarEliminacionPerfil()</text></g><!--link OPCIONES_CARGA_TRABAJO_ABIERTAS to OPCIONES_CARGA_TRABAJO_ABIERTAS--><g class="link" data-entity-1="OPCIONES_CARGA_TRABAJO_ABIERTAS" data-entity-2="OPCIONES_CARGA_TRABAJO_ABIERTAS" data-link-type="dependency" data-source-line="23" data-uid="lnk25" id="link_OPCIONES_CARGA_TRABAJO_ABIERTAS_OPCIONES_CARGA_TRABAJO_ABIERTAS"><path d="M955.61,235.0169 C942.63,217.5269 956.91,200.2969 998.43,200.2969 C1039.95,200.2969 1057.8057,212.7088 1044.8257,230.1988" fill="none" id="OPCIONES_CARGA_TRABAJO_ABIERTAS-to-OPCIONES_CARGA_TRABAJO_ABIERTAS" style="stroke:#181818;stroke-width:1;"/><polygon fill="#181818" points="1041.25,235.0169,1049.8256,230.1735,1044.2298,231.0018,1043.4015,225.4059,1041.25,235.0169" style="stroke:#181818;stroke-width:1;"/><text fill="#000000" font-family="sans-serif" font-size="13" lengthAdjust="spacing" textLength="136.0557" x="930.43" y="191.3638">editarCargaTrabajo()</text></g><!--link PUBLICACIONES_ABIERTAS to PUBLICACION_ABIERTA--><g class="link" data-entity-1="PUBLICACIONES_ABIERTAS" data-entity-2="PUBLICACION_ABIERTA" data-link-type="dependency" data-source-line="26" data-uid="lnk28" id="link_PUBLICACIONES_ABIERTAS_PUBLICACION_ABIERTA"><path d="M1037.29,960.7369 C1071.67,982.2069 1124.63,1011.2869 1175.52,1023.2969 C1240.65,1038.6669 1310.0998,1029.9793 1366.7398,1017.0793" fill="none" id="PUBLICACIONES_ABIERTAS-to-PUBLICACION_ABIERTA" style="stroke:#181818;stroke-width:1;"/><polygon fill="#181818" points="1372.59,1015.7469,1362.9264,1013.8454,1367.7148,1016.8572,1364.703,1021.6456,1372.59,1015.7469" style="stroke:#181818;stroke-width:1;"/><text fill="#000000" font-family="sans-serif" font-size="13" lengthAdjust="spacing" textLength="114.2832" x="1194.52" y="1019.3638">abrirPublicacion()</text></g><!--link PUBLICACION_ABIERTA to PUBLICACIONES_ABIERTAS--><g class="link" data-entity-1="PUBLICACION_ABIERTA" data-entity-2="PUBLICACIONES_ABIERTAS" data-link-type="dependency" data-source-line="28" data-uid="lnk30" id="link_PUBLICACION_ABIERTA_PUBLICACIONES_ABIERTAS"><path d="M1368.85,984.7369 C1313.02,980.7869 1239.95,974.6769 1175.52,966.2969 C1151.97,963.2369 1132.6822,960.2596 1108.9222,956.1496" fill="none" id="PUBLICACION_ABIERTA-to-PUBLICACIONES_ABIERTAS" style="stroke:#181818;stroke-width:1;"/><polygon fill="#181818" points="1103.01,955.1269,1111.1965,960.6024,1107.9368,955.9791,1112.5601,952.7194,1103.01,955.1269" style="stroke:#181818;stroke-width:1;"/><text fill="#000000" font-family="sans-serif" font-size="13" lengthAdjust="spacing" textLength="129.0542" x="1187.02" y="962.3638">abrirPublicaciones()</text></g><!--link PUBLICACION_ABIERTA to PUBLICACION_ABIERTA--><g class="link" data-entity-1="PUBLICACION_ABIERTA" data-entity-2="PUBLICACION_ABIERTA" data-link-type="dependency" data-source-line="27" data-uid="lnk29" id="link_PUBLICACION_ABIERTA_PUBLICACION_ABIERTA"><path d="M1426.01,965.0169 C1415.67,947.5269 1427.04,930.2969 1460.12,930.2969 C1493.19,930.2969 1507.6113,942.3607 1497.2813,959.8507" fill="none" id="PUBLICACION_ABIERTA-to-PUBLICACION_ABIERTA" style="stroke:#181818;stroke-width:1;"/><polygon fill="#181818" points="1494.23,965.0169,1502.2511,959.3018,1496.7727,960.7117,1495.3628,955.2334,1494.23,965.0169" style="stroke:#181818;stroke-width:1;"/><text fill="#000000" font-family="sans-serif" font-size="13" lengthAdjust="spacing" textLength="149.9189" x="1385.62" y="921.3638">responderPublicacion()</text></g><!--link MIS_PUBLICACIONES_ABIERTAS to MI_PUBLICACION_ABIERTA--><g class="link" data-entity-1="MIS_PUBLICACIONES_ABIERTAS" data-entity-2="MI_PUBLICACION_ABIERTA" data-link-type="dependency" data-source-line="31" data-uid="lnk33" id="link_MIS_PUBLICACIONES_ABIERTAS_MI_PUBLICACION_ABIERTA"><path d="M1032.92,810.5469 C1079.39,845.3069 1159.53,904.2369 1175.52,909.2969 C1239.92,929.6969 1261.93,925.4569 1327.52,909.2969 C1361.84,900.8469 1392.0335,884.8752 1417.4135,868.8852" fill="none" id="MIS_PUBLICACIONES_ABIERTAS-to-MI_PUBLICACION_ABIERTA" style="stroke:#181818;stroke-width:1;"/><polygon fill="#181818" points="1422.49,865.6869,1412.743,867.1,1418.2596,868.3521,1417.0075,873.8687,1422.49,865.6869" style="stroke:#181818;stroke-width:1;"/><text fill="#000000" font-family="sans-serif" font-size="13" lengthAdjust="spacing" textLength="129.1113" x="1187.02" y="905.3638">abrirMiPublicacion()</text></g><!--link MIS_PUBLICACIONES_ABIERTAS to MI_PUBLICACION_ABIERTA--><g class="link" data-entity-1="MIS_PUBLICACIONES_ABIERTAS" data-entity-2="MI_PUBLICACION_ABIERTA" data-link-type="dependency" data-source-line="32" data-uid="lnk34" id="link_MIS_PUBLICACIONES_ABIERTAS_MI_PUBLICACION_ABIERTA"><path d="M1119,766.2869 C1181.86,760.0369 1259.72,758.2469 1327.52,774.2969 C1360.73,782.1569 1389.9354,796.6961 1415.2154,811.7561" fill="none" id="MIS_PUBLICACIONES_ABIERTAS-to-MI_PUBLICACION_ABIERTA-1" style="stroke:#181818;stroke-width:1;"/><polygon fill="#181818" points="1420.37,814.8269,1414.6852,806.7843,1416.0745,812.2679,1410.5909,813.6572,1420.37,814.8269" style="stroke:#181818;stroke-width:1;"/><text fill="#000000" font-family="sans-serif" font-size="13" lengthAdjust="spacing" textLength="117.5649" x="1193.02" y="757.3638">crearPublicacion()</text></g><!--link MI_PUBLICACION_ABIERTA to MIS_PUBLICACIONES_ABIERTAS--><g class="link" data-entity-1="MI_PUBLICACION_ABIERTA" data-entity-2="MIS_PUBLICACIONES_ABIERTAS" data-link-type="dependency" data-source-line="34" data-uid="lnk36" id="link_MI_PUBLICACION_ABIERTA_MIS_PUBLICACIONES_ABIERTAS"><path d="M1357.27,828.1169 C1286.88,819.6869 1198.9175,809.1698 1124.9675,800.3198" fill="none" id="MI_PUBLICACION_ABIERTA-to-MIS_PUBLICACIONES_ABIERTAS" style="stroke:#181818;stroke-width:1;"/><polygon fill="#181818" points="1119.01,799.6069,1127.4709,804.648,1123.9746,800.201,1128.4215,796.7047,1119.01,799.6069" style="stroke:#181818;stroke-width:1;"/><text fill="#000000" font-family="sans-serif" font-size="13" lengthAdjust="spacing" textLength="136.811" x="1183.52" y="803.3638">eliminarPublicacion()</text></g><!--link MI_PUBLICACION_ABIERTA to MIS_PUBLICACIONES_ABIERTAS--><g class="link" data-entity-1="MI_PUBLICACION_ABIERTA" data-entity-2="MIS_PUBLICACIONES_ABIERTAS" data-link-type="dependency" data-source-line="36" data-uid="lnk38" id="link_MI_PUBLICACION_ABIERTA_MIS_PUBLICACIONES_ABIERTAS"><path d="M1357.13,847.1169 C1347.13,847.5969 1337.13,848.0069 1327.52,848.2969 C1260,850.3469 1242.08,859.8469 1175.52,848.2969 C1133.77,841.0569 1094.369,827.1333 1060.339,812.9633" fill="none" id="MI_PUBLICACION_ABIERTA-to-MIS_PUBLICACIONES_ABIERTAS-1" style="stroke:#181818;stroke-width:1;"/><polygon fill="#181818" points="1054.8,810.6569,1061.5709,817.8092,1059.4158,812.5789,1064.6461,810.4238,1054.8,810.6569" style="stroke:#181818;stroke-width:1;"/><text fill="#000000" font-family="sans-serif" font-size="13" lengthAdjust="spacing" textLength="150.6553" x="1176.52" y="844.3638">abrirMisPublicaciones()</text></g><!--link MI_PUBLICACION_ABIERTA to MI_PUBLICACION_ABIERTA--><g class="link" data-entity-1="MI_PUBLICACION_ABIERTA" data-entity-2="MI_PUBLICACION_ABIERTA" data-link-type="dependency" data-source-line="33" data-uid="lnk35" id="link_MI_PUBLICACION_ABIERTA_MI_PUBLICACION_ABIERTA"><path d="M1426.01,815.0169 C1415.67,797.5269 1427.04,780.2969 1460.12,780.2969 C1493.19,780.2969 1507.6113,792.3607 1497.2813,809.8507" fill="none" id="MI_PUBLICACION_ABIERTA-to-MI_PUBLICACION_ABIERTA" style="stroke:#181818;stroke-width:1;"/><polygon fill="#181818" points="1494.23,815.0169,1502.2511,809.3018,1496.7727,810.7117,1495.3628,805.2334,1494.23,815.0169" style="stroke:#181818;stroke-width:1;"/><text fill="#000000" font-family="sans-serif" font-size="13" lengthAdjust="spacing" textLength="122.0337" x="1399.12" y="771.3638">editarPublicacion()</text></g><!--link PROYECTOS_ABIERTOS to PROYECTO_ABIERTO--><g class="link" data-entity-1="PROYECTOS_ABIERTOS" data-entity-2="PROYECTO_ABIERTO" data-link-type="dependency" data-source-line="38" data-uid="lnk40" id="link_PROYECTOS_ABIERTOS_PROYECTO_ABIERTO"><path d="M1089.98,612.4169 C1173.68,605.1369 1290.9726,594.927 1371.6526,587.907" fill="none" id="PROYECTOS_ABIERTOS-to-PROYECTO_ABIERTO" style="stroke:#181818;stroke-width:1;"/><polygon fill="#181818" points="1377.63,587.3869,1368.3171,584.1821,1372.6488,587.8203,1369.0106,592.152,1377.63,587.3869" style="stroke:#181818;stroke-width:1;"/><text fill="#000000" font-family="sans-serif" font-size="13" lengthAdjust="spacing" textLength="97.6904" x="1203.02" y="587.3638">abrirProyecto()</text></g><!--link PROYECTO_ABIERTO to PROYECTOS_ABIERTOS--><g class="link" data-entity-1="PROYECTO_ABIERTO" data-entity-2="PROYECTOS_ABIERTOS" data-link-type="dependency" data-source-line="49" data-uid="lnk50" id="link_PROYECTO_ABIERTO_PROYECTOS_ABIERTOS"><path d="M1402.99,605.6769 C1380.09,614.7269 1353.03,623.7969 1327.52,628.2969 C1248.13,642.3269 1162.2329,638.9763 1095.9429,632.6563" fill="none" id="PROYECTO_ABIERTO-to-PROYECTOS_ABIERTOS" style="stroke:#181818;stroke-width:1;"/><polygon fill="#181818" points="1089.97,632.0869,1098.5497,636.923,1094.9474,632.5614,1099.309,628.9591,1089.97,632.0869" style="stroke:#181818;stroke-width:1;"/><text fill="#000000" font-family="sans-serif" font-size="13" lengthAdjust="spacing" textLength="104.4634" x="1199.52" y="624.3638">abrirProyectos()</text></g><!--link RECOMPENSAS_ABIERTAS to RECOMPENSA_ABIERTA--><g class="link" data-entity-1="RECOMPENSAS_ABIERTAS" data-entity-2="RECOMPENSA_ABIERTA" data-link-type="dependency" data-source-line="41" data-uid="lnk43" id="link_RECOMPENSAS_ABIERTAS_RECOMPENSA_ABIERTA"><path d="M1099.82,517.4869 C1164.89,527.7869 1251.4,536.2469 1327.52,526.2969 C1343.58,524.1969 1354.6441,522.1517 1370.7641,518.1817" fill="none" id="RECOMPENSAS_ABIERTAS-to-RECOMPENSA_ABIERTA" style="stroke:#181818;stroke-width:1;"/><polygon fill="#181818" points="1376.59,516.7469,1366.8946,515.0151,1371.7351,517.9425,1368.8076,522.783,1376.59,516.7469" style="stroke:#181818;stroke-width:1;"/><text fill="#000000" font-family="sans-serif" font-size="13" lengthAdjust="spacing" textLength="124.687" x="1189.52" y="522.3638">abrirRecompensa()</text></g><!--link RECOMPENSA_ABIERTA to RECOMPENSAS_ABIERTAS--><g class="link" data-entity-1="RECOMPENSA_ABIERTA" data-entity-2="RECOMPENSAS_ABIERTAS" data-link-type="dependency" data-source-line="42" data-uid="lnk44" id="link_RECOMPENSA_ABIERTA_RECOMPENSAS_ABIERTAS"><path d="M1367.33,492.4969 C1290.05,493.5069 1185.6895,494.8685 1106.0295,495.9085" fill="none" id="RECOMPENSA_ABIERTA-to-RECOMPENSAS_ABIERTAS" style="stroke:#181818;stroke-width:1;"/><polygon fill="#181818" points="1100.03,495.9869,1109.0815,499.869,1105.0296,495.9216,1108.977,491.8697,1100.03,495.9869" style="stroke:#181818;stroke-width:1;"/><text fill="#000000" font-family="sans-serif" font-size="13" lengthAdjust="spacing" textLength="131.46" x="1186.02" y="488.3638">abrirRecompensas()</text></g><!--link PROYECTO_ABIERTO to ENTREGABLES_ABIERTOS--><g class="link" data-entity-1="PROYECTO_ABIERTO" data-entity-2="ENTREGABLES_ABIERTOS" data-link-type="dependency" data-source-line="46" data-uid="lnk47" id="link_PROYECTO_ABIERTO_ENTREGABLES_ABIERTOS"><path d="M1489.49,605.6069 C1514.62,626.1969 1553.32,653.6869 1592.71,665.2969 C1651.54,682.6469 1671.78,682.2969 1730.71,665.2969 C1772.88,653.1369 1809.897,627.8278 1836.627,606.4178" fill="none" id="PROYECTO_ABIERTO-to-ENTREGABLES_ABIERTOS" style="stroke:#181818;stroke-width:1;"/><polygon fill="#181818" points="1841.31,602.6669,1831.7849,605.1713,1837.4075,605.7927,1836.7861,611.4153,1841.31,602.6669" style="stroke:#181818;stroke-width:1;"/><text fill="#000000" font-family="sans-serif" font-size="13" lengthAdjust="spacing" textLength="118.4092" x="1602.71" y="661.3638">abrirEntregables()</text></g><!--link PROYECTO_ABIERTO to ENTREGABLES_ABIERTOS--><g class="link" data-entity-1="PROYECTO_ABIERTO" data-entity-2="ENTREGABLES_ABIERTOS" data-link-type="dependency" data-source-line="47" data-uid="lnk48" id="link_PROYECTO_ABIERTO_ENTREGABLES_ABIERTOS"><path d="M1514.58,554.9269 C1538,545.1569 1566.15,535.1769 1592.71,530.2969 C1653.04,519.2269 1670.19,520.3969 1730.71,530.2969 C1757,534.5969 1779.3567,541.1189 1803.3367,549.7789" fill="none" id="PROYECTO_ABIERTO-to-ENTREGABLES_ABIERTOS-1" style="stroke:#181818;stroke-width:1;"/><polygon fill="#181818" points="1808.98,551.8169,1801.8737,544.9977,1804.2773,550.1186,1799.1564,552.5221,1808.98,551.8169" style="stroke:#181818;stroke-width:1;"/><text fill="#000000" font-family="sans-serif" font-size="13" lengthAdjust="spacing" textLength="114.918" x="1604.71" y="518.3638">crearEntregable()</text></g><!--link ENTREGABLES_ABIERTOS to PROYECTO_ABIERTO--><g class="link" data-entity-1="ENTREGABLES_ABIERTOS" data-entity-2="PROYECTO_ABIERTO" data-link-type="dependency" data-source-line="52" data-uid="lnk52" id="link_ENTREGABLES_ABIERTOS_PROYECTO_ABIERTO"><path d="M1771.59,578.0269 C1701.42,578.5369 1614.3698,579.1722 1548.4898,579.6622" fill="none" id="ENTREGABLES_ABIERTOS-to-PROYECTO_ABIERTO" style="stroke:#181818;stroke-width:1;"/><polygon fill="#181818" points="1542.49,579.7069,1551.5195,583.6398,1547.4899,579.6697,1551.46,575.64,1542.49,579.7069" style="stroke:#181818;stroke-width:1;"/><text fill="#000000" font-family="sans-serif" font-size="13" lengthAdjust="spacing" textLength="134.1641" x="1594.71" y="574.3638">eliminarEntregable()</text></g><!--link ENTREGABLES_ABIERTOS to PROYECTO_ABIERTO--><g class="link" data-entity-1="ENTREGABLES_ABIERTOS" data-entity-2="PROYECTO_ABIERTO" data-link-type="dependency" data-source-line="53" data-uid="lnk53" id="link_ENTREGABLES_ABIERTOS_PROYECTO_ABIERTO"><path d="M1771.57,598.8269 C1757.91,601.0869 1744,603.0269 1730.71,604.2969 C1669.66,610.1369 1653.8,609.8269 1592.71,604.2969 C1576.41,602.8269 1565.0143,601.3471 1548.5043,598.5271" fill="none" id="ENTREGABLES_ABIERTOS-to-PROYECTO_ABIERTO-1" style="stroke:#181818;stroke-width:1;"/><polygon fill="#181818" points="1542.59,597.5169,1550.7881,602.9751,1547.5186,598.3587,1552.135,595.0893,1542.59,597.5169" style="stroke:#181818;stroke-width:1;"/><text fill="#000000" font-family="sans-serif" font-size="13" lengthAdjust="spacing" textLength="97.6904" x="1613.21" y="600.3638">abrirProyecto()</text></g><!--link PROYECTO_ABIERTO to INVESTIGADORES_ABIERTOS--><g class="link" data-entity-1="PROYECTO_ABIERTO" data-entity-2="INVESTIGADORES_ABIERTOS" data-link-type="dependency" data-source-line="48" data-uid="lnk49" id="link_PROYECTO_ABIERTO_INVESTIGADORES_ABIERTOS"><path d="M1527.26,554.9069 C1539.61,548.7469 1552,541.5269 1562.71,533.2969 C1579.24,520.6169 1575.33,508.7669 1592.71,497.2969 C1642.82,464.2469 1700.6795,445.3078 1754.4395,433.0778" fill="none" id="PROYECTO_ABIERTO-to-INVESTIGADORES_ABIERTOS" style="stroke:#181818;stroke-width:1;"/><polygon fill="#181818" points="1760.29,431.7469,1750.6269,429.843,1755.4146,432.856,1752.4015,437.6436,1760.29,431.7469" style="stroke:#181818;stroke-width:1;"/><text fill="#000000" font-family="sans-serif" font-size="13" lengthAdjust="spacing" textLength="136.4492" x="1593.71" y="435.3638">abrirInvestigadores()</text></g><!--link ENTREGABLES_ABIERTOS to ENTREGABLES_ABIERTOS--><g class="link" data-entity-1="ENTREGABLES_ABIERTOS" data-entity-2="ENTREGABLES_ABIERTOS" data-link-type="dependency" data-source-line="51" data-uid="lnk51" id="link_ENTREGABLES_ABIERTOS_ENTREGABLES_ABIERTOS"><path d="M1836.03,552.0169 C1825.27,534.5269 1837.1,517.2969 1871.52,517.2969 C1905.95,517.2969 1920.9239,529.4165 1910.1639,546.9065" fill="none" id="ENTREGABLES_ABIERTOS-to-ENTREGABLES_ABIERTOS" style="stroke:#181818;stroke-width:1;"/><polygon fill="#181818" points="1907.02,552.0169,1915.1428,546.4473,1909.6399,547.7582,1908.329,542.2554,1907.02,552.0169" style="stroke:#181818;stroke-width:1;"/><text fill="#000000" font-family="sans-serif" font-size="13" lengthAdjust="spacing" textLength="119.3867" x="1812.02" y="508.3638">editarEntregable()</text></g><!--link INVESTIGADORES_ABIERTOS to INVESTIGADOR_ABIERTO--><g class="link" data-entity-1="INVESTIGADORES_ABIERTOS" data-entity-2="INVESTIGADOR_ABIERTO" data-link-type="dependency" data-source-line="55" data-uid="lnk55" id="link_INVESTIGADORES_ABIERTOS_INVESTIGADOR_ABIERTO"><path d="M1918.53,439.6669 C1945.08,452.8469 1979.6,467.5769 2012.33,474.2969 C2067.1,485.5569 2123.6122,485.8099 2174.1022,482.5799" fill="none" id="INVESTIGADORES_ABIERTOS-to-INVESTIGADOR_ABIERTO" style="stroke:#181818;stroke-width:1;"/><polygon fill="#181818" points="2180.09,482.1969,2170.853,478.7796,2175.1002,482.5161,2171.3637,486.7633,2180.09,482.1969" style="stroke:#181818;stroke-width:1;"/><text fill="#000000" font-family="sans-serif" font-size="13" lengthAdjust="spacing" textLength="121.6782" x="2020.83" y="470.3638">abrirInvestigador()</text></g><!--link INVESTIGADOR_ABIERTO to INVESTIGADORES_ABIERTOS--><g class="link" data-entity-1="INVESTIGADOR_ABIERTO" data-entity-2="INVESTIGADORES_ABIERTOS" data-link-type="dependency" data-source-line="57" data-uid="lnk57" id="link_INVESTIGADOR_ABIERTO_INVESTIGADORES_ABIERTOS"><path d="M2180.14,457.5169 C2170.08,456.0969 2160,454.6669 2150.33,453.2969 C2095.12,445.4969 2039.6619,437.6997 1988.6519,430.5497" fill="none" id="INVESTIGADOR_ABIERTO-to-INVESTIGADORES_ABIERTOS" style="stroke:#181818;stroke-width:1;"/><polygon fill="#181818" points="1982.71,429.7169,1991.0676,434.9275,1987.6616,430.4109,1992.1781,427.0049,1982.71,429.7169" style="stroke:#181818;stroke-width:1;"/><text fill="#000000" font-family="sans-serif" font-size="13" lengthAdjust="spacing" textLength="136.4492" x="2013.33" y="429.3638">abrirInvestigadores()</text></g><!--link INVESTIGADOR_ABIERTO to PROYECTOS_ABIERTOS--><g class="link" data-entity-1="INVESTIGADOR_ABIERTO" data-entity-2="PROYECTOS_ABIERTOS" data-link-type="dependency" data-source-line="58" data-uid="lnk58" id="link_INVESTIGADOR_ABIERTO_PROYECTOS_ABIERTOS"><path d="M2236.1,496.7169 C2148.05,549.7669 1931.71,670.0069 1730.71,702.2969 C1500.36,739.3069 1232.3157,683.3016 1094.2557,647.2816" fill="none" id="INVESTIGADOR_ABIERTO-to-PROYECTOS_ABIERTOS" style="stroke:#181818;stroke-width:1;"/><polygon fill="#181818" points="1088.45,645.7669,1096.1487,651.9094,1093.288,647.0291,1098.1683,644.1685,1088.45,645.7669" style="stroke:#181818;stroke-width:1;"/><text fill="#000000" font-family="sans-serif" font-size="13" lengthAdjust="spacing" textLength="104.4634" x="1609.71" y="698.3638">abrirProyectos()</text></g><!--SRC=[dPNTZfim48Nl_HHSTYlj2-n59OUuaLS9M8PMggeAEU2bNX4xCjwgVVkQ0Bk9mVo4gn0yd-UCpuoDC1KFjeALcfrOKF0WLzBmlqOrlzza8EGVNXjHia9f02h-OWBxJOlojmaAeNbkX980_FpyAtXy_18aAC5nb8M8KhY5uFRrieB02EqpGd4KOWBt6TnWHDFuoUuaSi5qmcjB_FG0F0j7jdaASgxrLUXaR4n26ukIZ23w5Lybm8vQwFYSMmQl2TSleff9unqLGhg3MKhX1Zx7tHAOECYGwPAbcXtPgve14nh_G64Q9_s_FOjezS_MNDKp01nzHqcATt0RKpIWuAj3vNEe0xQb-hRPun1sQXrz1r6JjsCbSjRgdDCsnLe3eYYC3mH52HnWAC_LwSnbpHg8VJo7Fcq8NWZ3zBiJfXYk8MjbPJJHg18d8I-25e6yxT6MXqbU4IraBiwiGO4P2owpQIlKyUSIyjfiny_UjKN_OUY9nX73TVvuw-wpaWLVprXWpGajAylYRx6k0pD_TGxYLjkTh5npfbrIvYkKZz9rp7ACVxJmjd7qAdKh2tzdQhwf1uPZ-sQQk-bqixpnaYTmfO_69g8pAXttV0nA6pzSjMxEUhTVgmEu5RjGK9HIj8ER_V12Gz9eNh9ZrNRcykYBxJ-YVS5hhzCnng8x7OobEP5_st0t0ho4eGtx7hitthKnyDHfK4C7SLr0YvcYp5YflsB7Dhld9BsS9QVv7m00]--></g></svg>