<svg xmlns="http://www.w3.org/2000/svg" xmlns:xlink="http://www.w3.org/1999/xlink" contentStyleType="text/css" data-diagram-type="STATE" height="865px" preserveAspectRatio="none" style="width:2267px;height:865px;background:#FFFFFF;" version="1.1" viewBox="0 0 2267 865" width="2267px" zoomAndPan="magnify"><title>Diagrama de contexto de un investigador (corregido y organizado)</title><defs/><g><g class="title" data-source-line="1"><text fill="#000000" font-family="sans-serif" font-size="14" font-weight="bold" lengthAdjust="spacing" textLength="528.4658" x="862.3921" y="22.9951">Diagrama de contexto de un investigador (corregido y organizado)</text></g><ellipse cx="16" cy="352.2969" fill="#222222" rx="10" ry="10" style="stroke:#222222;stroke-width:1;"/><g id="SESION_CERRADA"><rect fill="#F1F1F1" height="50" rx="12.5" ry="12.5" style="stroke:#181818;stroke-width:0.5;" width="147.251" x="87" y="327.2969"/><line style="stroke:#181818;stroke-width:0.5;" x1="87" x2="234.251" y1="353.5938" y2="353.5938"/><text fill="#000000" font-family="sans-serif" font-size="14" lengthAdjust="spacing" textLength="127.251" x="97" y="345.292">SESION_CERRADA</text></g><g id="PERFIL"><rect fill="#F1F1F1" height="50" rx="12.5" ry="12.5" style="stroke:#181818;stroke-width:0.5;" width="66.9971" x="403.75" y="384.2969"/><line style="stroke:#181818;stroke-width:0.5;" x1="403.75" x2="470.7471" y1="410.5938" y2="410.5938"/><text fill="#000000" font-family="sans-serif" font-size="14" lengthAdjust="spacing" textLength="46.9971" x="413.75" y="402.292">PERFIL</text></g><g id="OPCIONES_PERFIL_ABIERTO"><rect fill="#F1F1F1" height="50" rx="12.5" ry="12.5" style="stroke:#181818;stroke-width:0.5;" width="215.043" x="775.82" y="105.2969"/><line style="stroke:#181818;stroke-width:0.5;" x1="775.82" x2="990.863" y1="131.5938" y2="131.5938"/><text fill="#000000" font-family="sans-serif" font-size="14" lengthAdjust="spacing" textLength="195.043" x="785.82" y="123.292">OPCIONES_PERFIL_ABIERTO</text></g><g id="OPCIONES_CARGA_TRABAJO_ABIERTAS"><rect fill="#F1F1F1" height="50" rx="12.5" ry="12.5" style="stroke:#181818;stroke-width:0.5;" width="294.1826" x="736.25" y="235.2969"/><line style="stroke:#181818;stroke-width:0.5;" x1="736.25" x2="1030.4326" y1="261.5938" y2="261.5938"/><text fill="#000000" font-family="sans-serif" font-size="14" lengthAdjust="spacing" textLength="274.1826" x="746.25" y="253.292">OPCIONES_CARGA_TRABAJO_ABIERTAS</text></g><g id="PROYECTOS_ABIERTOS"><rect fill="#F1F1F1" height="50" rx="12.5" ry="12.5" style="stroke:#181818;stroke-width:0.5;" width="182.1621" x="792.26" y="472.2969"/><line style="stroke:#181818;stroke-width:0.5;" x1="792.26" x2="974.4221" y1="498.5938" y2="498.5938"/><text fill="#000000" font-family="sans-serif" font-size="14" lengthAdjust="spacing" textLength="162.1621" x="802.26" y="490.292">PROYECTOS_ABIERTOS</text></g><g id="INVESTIGADORES_ABIERTOS"><rect fill="#F1F1F1" height="50" rx="12.5" ry="12.5" style="stroke:#181818;stroke-width:0.5;" width="221.6191" x="1645.63" y="404.2969"/><line style="stroke:#181818;stroke-width:0.5;" x1="1645.63" x2="1867.2491" y1="430.5938" y2="430.5938"/><text fill="#000000" font-family="sans-serif" font-size="14" lengthAdjust="spacing" textLength="201.6191" x="1655.63" y="422.292">INVESTIGADORES_ABIERTOS</text></g><g id="MIS_PUBLICACIONES_ABIERTAS"><rect fill="#F1F1F1" height="50" rx="12.5" ry="12.5" style="stroke:#181818;stroke-width:0.5;" width="240.6982" x="762.99" y="610.2969"/><line style="stroke:#181818;stroke-width:0.5;" x1="762.99" x2="1003.6882" y1="636.5938" y2="636.5938"/><text fill="#000000" font-family="sans-serif" font-size="14" lengthAdjust="spacing" textLength="220.6982" x="772.99" y="628.292">MIS_PUBLICACIONES_ABIERTAS</text></g><g id="PUBLICACIONES_ABIERTAS"><rect fill="#F1F1F1" height="50" rx="12.5" ry="12.5" style="stroke:#181818;stroke-width:0.5;" width="208.6035" x="779.04" y="755.2969"/><line style="stroke:#181818;stroke-width:0.5;" x1="779.04" x2="987.6435" y1="781.5938" y2="781.5938"/><text fill="#000000" font-family="sans-serif" font-size="14" lengthAdjust="spacing" textLength="188.6035" x="789.04" y="773.292">PUBLICACIONES_ABIERTAS</text></g><g id="PUBLICACION_ABIERTA"><rect fill="#F1F1F1" height="50" rx="12.5" ry="12.5" style="stroke:#181818;stroke-width:0.5;" width="181.9844" x="1254.04" y="809.2969"/><line style="stroke:#181818;stroke-width:0.5;" x1="1254.04" x2="1436.0244" y1="835.5938" y2="835.5938"/><text fill="#000000" font-family="sans-serif" font-size="14" lengthAdjust="spacing" textLength="161.9844" x="1264.04" y="827.292">PUBLICACION_ABIERTA</text></g><g id="MI_PUBLICACION_ABIERTA"><rect fill="#F1F1F1" height="50" rx="12.5" ry="12.5" style="stroke:#181818;stroke-width:0.5;" width="205.1924" x="1242.43" y="659.2969"/><line style="stroke:#181818;stroke-width:0.5;" x1="1242.43" x2="1447.6224" y1="685.5938" y2="685.5938"/><text fill="#000000" font-family="sans-serif" font-size="14" lengthAdjust="spacing" textLength="185.1924" x="1252.43" y="677.292">MI_PUBLICACION_ABIERTA</text></g><g id="PROYECTO_ABIERTO"><rect fill="#F1F1F1" height="50" rx="12.5" ry="12.5" style="stroke:#181818;stroke-width:0.5;" width="164.3887" x="1262.84" y="518.2969"/><line style="stroke:#181818;stroke-width:0.5;" x1="1262.84" x2="1427.2287" y1="544.5938" y2="544.5938"/><text fill="#000000" font-family="sans-serif" font-size="14" lengthAdjust="spacing" textLength="144.3887" x="1272.84" y="536.292">PROYECTO_ABIERTO</text></g><g id="ENTREGABLES_ABIERTOS"><rect fill="#F1F1F1" height="50" rx="12.5" ry="12.5" style="stroke:#181818;stroke-width:0.5;" width="199.3477" x="1656.76" y="623.2969"/><line style="stroke:#181818;stroke-width:0.5;" x1="1656.76" x2="1856.1077" y1="649.5938" y2="649.5938"/><text fill="#000000" font-family="sans-serif" font-size="14" lengthAdjust="spacing" textLength="179.3477" x="1666.76" y="641.292">ENTREGABLES_ABIERTOS</text></g><g id="INVESTIGADOR_ABIERTO"><rect fill="#F1F1F1" height="50" rx="12.5" ry="12.5" style="stroke:#181818;stroke-width:0.5;" width="195" x="2065.25" y="405.2969"/><line style="stroke:#181818;stroke-width:0.5;" x1="2065.25" x2="2260.25" y1="431.5938" y2="431.5938"/><text fill="#000000" font-family="sans-serif" font-size="14" lengthAdjust="spacing" textLength="175" x="2075.25" y="423.292">INVESTIGADOR_ABIERTO</text></g><!--link *start* to SESION_CERRADA--><g class="link" data-entity-1=".start." data-entity-2="SESION_CERRADA" data-source-line="6" data-uid="lnk4" id="link_.start._SESION_CERRADA"><path d="M26.36,352.2969 C39,352.2969 56.73,352.2969 80.69,352.2969" fill="none" id="*start*-to-SESION_CERRADA" style="stroke:#181818;stroke-width:1;"/><polygon fill="#181818" points="86.69,352.2969,77.69,348.2969,81.69,352.2969,77.69,356.2969,86.69,352.2969" style="stroke:#181818;stroke-width:1;"/></g><!--link SESION_CERRADA to SESION_CERRADA--><g class="link" data-entity-1="SESION_CERRADA" data-entity-2="SESION_CERRADA" data-source-line="7" data-uid="lnk5" id="link_SESION_CERRADA_SESION_CERRADA"><path d="M143.01,327.0169 C137.67,309.5269 143.54,292.2969 160.63,292.2969 C177.71,292.2969 185.3321,303.7884 179.9921,321.2784" fill="none" id="SESION_CERRADA-to-SESION_CERRADA" style="stroke:#181818;stroke-width:1;"/><polygon fill="#181818" points="178.24,327.0169,184.6938,319.5772,179.7001,322.2348,177.0424,317.2411,178.24,327.0169" style="stroke:#181818;stroke-width:1;"/><text fill="#000000" font-family="sans-serif" font-size="13" lengthAdjust="spacing" textLength="141.4194" x="90.13" y="283.3638">denegarInicioSesion()</text></g><!--link SESION_CERRADA to PERFIL--><g class="link" data-entity-1="SESION_CERRADA" data-entity-2="PERFIL" data-source-line="8" data-uid="lnk7" id="link_SESION_CERRADA_PERFIL"><path d="M234.57,366.2069 C271.66,373.4169 317.42,382.5369 358.25,391.2969 C373.06,394.4769 383.5571,396.843 397.4371,400.083" fill="none" id="SESION_CERRADA-to-PERFIL" style="stroke:#181818;stroke-width:1;"/><polygon fill="#181818" points="403.28,401.4469,395.4249,395.5057,398.4109,400.3103,393.6063,403.2963,403.28,401.4469" style="stroke:#181818;stroke-width:1;"/><text fill="#000000" font-family="sans-serif" font-size="13" lengthAdjust="spacing" textLength="92.5044" x="265.25" y="368.3638">iniciarSesion()</text></g><!--link PERFIL to SESION_CERRADA--><g class="link" data-entity-1="PERFIL" data-entity-2="SESION_CERRADA" data-source-line="9" data-uid="lnk8" id="link_PERFIL_SESION_CERRADA"><path d="M403.51,416.6469 C368.36,423.1569 311.23,429.7469 264.25,416.2969 C237.81,408.7269 216.3628,395.7297 197.0328,381.3397" fill="none" id="PERFIL-to-SESION_CERRADA" style="stroke:#181818;stroke-width:1;"/><polygon fill="#181818" points="192.22,377.7569,197.0507,386.3397,196.2307,380.7426,201.8278,379.9226,192.22,377.7569" style="stroke:#181818;stroke-width:1;"/><text fill="#000000" font-family="sans-serif" font-size="13" lengthAdjust="spacing" textLength="92.1172" x="265.25" y="412.3638">cerrarSesion()</text></g><!--link PERFIL to OPCIONES_PERFIL_ABIERTO--><g class="link" data-entity-1="PERFIL" data-entity-2="OPCIONES_PERFIL_ABIERTO" data-source-line="12" data-uid="lnk10" id="link_PERFIL_OPCIONES_PERFIL_ABIERTO"><path d="M438.61,384.0069 C440.79,335.6569 452.96,230.2869 516.25,178.2969 C536.09,161.9969 668.5723,147.814 769.3623,139.094" fill="none" id="PERFIL-to-OPCIONES_PERFIL_ABIERTO" style="stroke:#181818;stroke-width:1;"/><polygon fill="#181818" points="775.34,138.5769,766.0287,135.3675,770.3586,139.0078,766.7183,143.3377,775.34,138.5769" style="stroke:#181818;stroke-width:1;"/><text fill="#000000" font-family="sans-serif" font-size="13" lengthAdjust="spacing" textLength="133.853" x="544.75" y="142.3638">abrirOpcionesPerfil()</text></g><!--link OPCIONES_PERFIL_ABIERTO to PERFIL--><g class="link" data-entity-1="OPCIONES_PERFIL_ABIERTO" data-entity-2="PERFIL" data-source-line="21" data-uid="lnk23" id="link_OPCIONES_PERFIL_ABIERTO_PERFIL"><path d="M775.56,154.8969 C761.87,159.9969 748.41,166.0769 736.25,173.2969 C720.04,182.9269 722.97,194.5669 706.25,203.2969 C630.21,243.0069 583.97,184.6269 516.25,237.2969 C469.02,274.0369 450.6198,339.9142 443.2998,378.0942" fill="none" id="OPCIONES_PERFIL_ABIERTO-to-PERFIL" style="stroke:#181818;stroke-width:1;"/><polygon fill="#181818" points="442.17,383.9869,447.7931,375.901,443.1115,379.0763,439.9362,374.3947,442.17,383.9869" style="stroke:#181818;stroke-width:1;"/><text fill="#000000" font-family="sans-serif" font-size="13" lengthAdjust="spacing" textLength="73.6455" x="574.75" y="199.3638">abrirPerfil()</text></g><!--link PERFIL to OPCIONES_CARGA_TRABAJO_ABIERTAS--><g class="link" data-entity-1="PERFIL" data-entity-2="OPCIONES_CARGA_TRABAJO_ABIERTAS" data-source-line="13" data-uid="lnk12" id="link_PERFIL_OPCIONES_CARGA_TRABAJO_ABIERTAS"><path d="M447.26,384.2469 C458.67,356.5369 481.18,313.0869 516.25,292.2969 C552.82,270.6269 644.5025,263.0213 729.7725,260.5413" fill="none" id="PERFIL-to-OPCIONES_CARGA_TRABAJO_ABIERTAS" style="stroke:#181818;stroke-width:1;"/><polygon fill="#181818" points="735.77,260.3669,726.6575,256.6302,730.7721,260.5122,726.8901,264.6268,735.77,260.3669" style="stroke:#181818;stroke-width:1;"/><text fill="#000000" font-family="sans-serif" font-size="13" lengthAdjust="spacing" textLength="188.5127" x="517.25" y="258.3638">abrirOpcionesCargaTrabajo()</text></g><!--link OPCIONES_CARGA_TRABAJO_ABIERTAS to PERFIL--><g class="link" data-entity-1="OPCIONES_CARGA_TRABAJO_ABIERTAS" data-entity-2="PERFIL" data-source-line="24" data-uid="lnk25" id="link_OPCIONES_CARGA_TRABAJO_ABIERTAS_PERFIL"><path d="M811.91,285.7069 C779.96,296.5469 741.52,308.6669 706.25,317.2969 C623.07,337.6469 594.74,315.0669 516.25,349.2969 C497.15,357.6269 483.0678,367.71 468.8178,380.1" fill="none" id="OPCIONES_CARGA_TRABAJO_ABIERTAS-to-PERFIL" style="stroke:#181818;stroke-width:1;"/><polygon fill="#181818" points="464.29,384.0369,473.7063,381.1502,468.0632,380.7562,468.4572,375.1131,464.29,384.0369" style="stroke:#181818;stroke-width:1;"/><text fill="#000000" font-family="sans-serif" font-size="13" lengthAdjust="spacing" textLength="73.6455" x="574.75" y="313.3638">abrirPerfil()</text></g><!--link PERFIL to PROYECTOS_ABIERTOS--><g class="link" data-entity-1="PERFIL" data-entity-2="PROYECTOS_ABIERTOS" data-source-line="14" data-uid="lnk14" id="link_PERFIL_PROYECTOS_ABIERTOS"><path d="M471.15,431.0869 C484.6,439.0069 500.66,447.2469 516.25,452.2969 C565.9,468.3669 694.7625,481.6977 786.1825,489.6377" fill="none" id="PERFIL-to-PROYECTOS_ABIERTOS" style="stroke:#181818;stroke-width:1;"/><polygon fill="#181818" points="792.16,490.1569,783.5399,485.3931,787.1788,489.7242,782.8476,493.3631,792.16,490.1569" style="stroke:#181818;stroke-width:1;"/><text fill="#000000" font-family="sans-serif" font-size="13" lengthAdjust="spacing" textLength="104.4634" x="559.25" y="448.3638">abrirProyectos()</text></g><!--link PROYECTOS_ABIERTOS to PERFIL--><g class="link" data-entity-1="PROYECTOS_ABIERTOS" data-entity-2="PERFIL" data-source-line="42" data-uid="lnk40" id="link_PROYECTOS_ABIERTOS_PERFIL"><path d="M791.85,521.0469 C714.72,536.3569 602.93,546.5569 516.25,505.2969 C485.81,490.8069 466.2665,463.2414 453.4665,440.0214" fill="none" id="PROYECTOS_ABIERTOS-to-PERFIL" style="stroke:#181818;stroke-width:1;"/><polygon fill="#181818" points="450.57,434.7669,451.4118,444.5797,452.9838,439.1456,458.4178,440.7176,450.57,434.7669" style="stroke:#181818;stroke-width:1;"/><text fill="#000000" font-family="sans-serif" font-size="13" lengthAdjust="spacing" textLength="73.6455" x="574.75" y="501.3638">abrirPerfil()</text></g><!--link PERFIL to INVESTIGADORES_ABIERTOS--><g class="link" data-entity-1="PERFIL" data-entity-2="INVESTIGADORES_ABIERTOS" data-source-line="15" data-uid="lnk16" id="link_PERFIL_INVESTIGADORES_ABIERTOS"><path d="M470.98,399.7269 C484.82,396.0969 501.2,392.3469 516.25,390.2969 C613.18,377.0969 638.44,384.8569 736.25,383.2969 C1127.03,377.0769 1229.72,321.4469 1615.63,383.2969 C1641.36,387.4169 1663.1177,393.5822 1686.7977,401.8822" fill="none" id="PERFIL-to-INVESTIGADORES_ABIERTOS" style="stroke:#181818;stroke-width:1;"/><polygon fill="#181818" points="1692.46,403.8669,1685.2897,397.1151,1687.7415,402.213,1682.6435,404.6647,1692.46,403.8669" style="stroke:#181818;stroke-width:1;"/><text fill="#000000" font-family="sans-serif" font-size="13" lengthAdjust="spacing" textLength="136.4492" x="1068.43" y="351.3638">abrirInvestigadores()</text></g><!--link INVESTIGADORES_ABIERTOS to PERFIL--><g class="link" data-entity-1="INVESTIGADORES_ABIERTOS" data-entity-2="PERFIL" data-source-line="57" data-uid="lnk52" id="link_INVESTIGADORES_ABIERTOS_PERFIL"><path d="M1645.33,427.6269 C1364.99,423.3669 640.8293,412.3678 477.1393,409.8878" fill="none" id="INVESTIGADORES_ABIERTOS-to-PERFIL" style="stroke:#181818;stroke-width:1;"/><polygon fill="#181818" points="471.14,409.7969,480.0784,413.9328,476.1394,409.8726,480.1996,405.9337,471.14,409.7969" style="stroke:#181818;stroke-width:1;"/><text fill="#000000" font-family="sans-serif" font-size="13" lengthAdjust="spacing" textLength="73.6455" x="1099.93" y="414.3638">abrirPerfil()</text></g><!--link PERFIL to MIS_PUBLICACIONES_ABIERTAS--><g class="link" data-entity-1="PERFIL" data-entity-2="MIS_PUBLICACIONES_ABIERTAS" data-source-line="16" data-uid="lnk18" id="link_PERFIL_MIS_PUBLICACIONES_ABIERTAS"><path d="M444.2,434.6669 C453.52,468.5769 474.95,528.0269 516.25,559.2969 C536.11,574.3369 657.8673,597.6372 756.9073,614.7172" fill="none" id="PERFIL-to-MIS_PUBLICACIONES_ABIERTAS" style="stroke:#181818;stroke-width:1;"/><polygon fill="#181818" points="762.82,615.7369,754.6307,610.2655,757.8927,614.8871,753.2711,618.1492,762.82,615.7369" style="stroke:#181818;stroke-width:1;"/><text fill="#000000" font-family="sans-serif" font-size="13" lengthAdjust="spacing" textLength="150.6553" x="536.25" y="555.3638">abrirMisPublicaciones()</text></g><!--link MIS_PUBLICACIONES_ABIERTAS to PERFIL--><g class="link" data-entity-1="MIS_PUBLICACIONES_ABIERTAS" data-entity-2="PERFIL" data-source-line="37" data-uid="lnk36" id="link_MIS_PUBLICACIONES_ABIERTAS_PERFIL"><path d="M762.71,647.6169 C671.23,654.4569 554.51,656.7969 516.25,629.2969 C452.91,583.7669 440.9899,488.3108 438.8499,440.7808" fill="none" id="MIS_PUBLICACIONES_ABIERTAS-to-PERFIL" style="stroke:#181818;stroke-width:1;"/><polygon fill="#181818" points="438.58,434.7869,434.9889,443.9577,438.8049,439.7818,442.9808,443.5979,438.58,434.7869" style="stroke:#181818;stroke-width:1;"/><text fill="#000000" font-family="sans-serif" font-size="13" lengthAdjust="spacing" textLength="73.6455" x="574.75" y="625.3638">abrirPerfil()</text></g><!--link PERFIL to PUBLICACIONES_ABIERTAS--><g class="link" data-entity-1="PERFIL" data-entity-2="PUBLICACIONES_ABIERTAS" data-source-line="17" data-uid="lnk20" id="link_PERFIL_PUBLICACIONES_ABIERTAS"><path d="M438.01,434.6269 C438.94,487.2969 448.73,609.2769 516.25,676.2969 C535.27,695.1769 671.4061,730.495 772.8261,754.865" fill="none" id="PERFIL-to-PUBLICACIONES_ABIERTAS" style="stroke:#181818;stroke-width:1;"/><polygon fill="#181818" points="778.66,756.2669,770.8436,750.2748,773.7984,755.0987,768.9745,758.0534,778.66,756.2669" style="stroke:#181818;stroke-width:1;"/><text fill="#000000" font-family="sans-serif" font-size="13" lengthAdjust="spacing" textLength="129.0542" x="546.75" y="672.3638">abrirPublicaciones()</text></g><!--link PUBLICACIONES_ABIERTAS to PERFIL--><g class="link" data-entity-1="PUBLICACIONES_ABIERTAS" data-entity-2="PERFIL" data-source-line="30" data-uid="lnk30" id="link_PUBLICACIONES_ABIERTAS_PERFIL"><path d="M778.59,805.7669 C697.78,819.0269 587.67,821.7269 516.25,761.2969 C465.96,718.7369 446.099,514.1593 440.459,440.6493" fill="none" id="PUBLICACIONES_ABIERTAS-to-PERFIL" style="stroke:#181818;stroke-width:1;"/><polygon fill="#181818" points="440,434.6669,436.7002,443.9465,440.3825,439.6522,444.6768,443.3345,440,434.6669" style="stroke:#181818;stroke-width:1;"/><text fill="#000000" font-family="sans-serif" font-size="13" lengthAdjust="spacing" textLength="73.6455" x="574.75" y="757.3638">abrirPerfil()</text></g><!--link OPCIONES_PERFIL_ABIERTO to OPCIONES_PERFIL_ABIERTO--><g class="link" data-entity-1="OPCIONES_PERFIL_ABIERTO" data-entity-2="OPCIONES_PERFIL_ABIERTO" data-source-line="19" data-uid="lnk21" id="link_OPCIONES_PERFIL_ABIERTO_OPCIONES_PERFIL_ABIERTO"><path d="M840.52,105.0169 C827.55,87.5269 841.82,70.2969 883.34,70.2969 C924.87,70.2969 942.7157,82.7088 929.7357,100.1988" fill="none" id="OPCIONES_PERFIL_ABIERTO-to-OPCIONES_PERFIL_ABIERTO" style="stroke:#181818;stroke-width:1;"/><polygon fill="#181818" points="926.16,105.0169,934.7356,100.1735,929.1398,101.0018,928.3115,95.4059,926.16,105.0169" style="stroke:#181818;stroke-width:1;"/><text fill="#000000" font-family="sans-serif" font-size="13" lengthAdjust="spacing" textLength="81.396" x="842.84" y="61.3638">editarPerfil()</text></g><!--link OPCIONES_PERFIL_ABIERTO to SESION_CERRADA--><g class="link" data-entity-1="OPCIONES_PERFIL_ABIERTO" data-entity-2="SESION_CERRADA" data-source-line="20" data-uid="lnk22" id="link_OPCIONES_PERFIL_ABIERTO_SESION_CERRADA"><path d="M775.52,110.5569 C701.25,100.9369 600.81,96.1869 516.25,121.2969 C378.2,162.2969 248.0768,271.8659 192.5968,322.8759" fill="none" id="OPCIONES_PERFIL_ABIERTO-to-SESION_CERRADA" style="stroke:#181818;stroke-width:1;"/><polygon fill="#181818" points="188.18,326.9369,197.5126,323.79,191.8607,323.5527,192.0979,317.9009,188.18,326.9369" style="stroke:#181818;stroke-width:1;"/><text fill="#000000" font-family="sans-serif" font-size="13" lengthAdjust="spacing" textLength="96.1733" x="389.25" y="130.3638">eliminarPerfil()</text></g><!--link OPCIONES_CARGA_TRABAJO_ABIERTAS to OPCIONES_CARGA_TRABAJO_ABIERTAS--><g class="link" data-entity-1="OPCIONES_CARGA_TRABAJO_ABIERTAS" data-entity-2="OPCIONES_CARGA_TRABAJO_ABIERTAS" data-source-line="23" data-uid="lnk24" id="link_OPCIONES_CARGA_TRABAJO_ABIERTAS_OPCIONES_CARGA_TRABAJO_ABIERTAS"><path d="M840.52,235.0169 C827.55,217.5269 841.82,200.2969 883.34,200.2969 C924.87,200.2969 942.7157,212.7088 929.7357,230.1988" fill="none" id="OPCIONES_CARGA_TRABAJO_ABIERTAS-to-OPCIONES_CARGA_TRABAJO_ABIERTAS" style="stroke:#181818;stroke-width:1;"/><polygon fill="#181818" points="926.16,235.0169,934.7356,230.1735,929.1398,231.0018,928.3115,225.4059,926.16,235.0169" style="stroke:#181818;stroke-width:1;"/><text fill="#000000" font-family="sans-serif" font-size="13" lengthAdjust="spacing" textLength="136.0557" x="815.34" y="191.3638">editarCargaTrabajo()</text></g><!--link PUBLICACIONES_ABIERTAS to PUBLICACION_ABIERTA--><g class="link" data-entity-1="PUBLICACIONES_ABIERTAS" data-entity-2="PUBLICACION_ABIERTA" data-source-line="27" data-uid="lnk27" id="link_PUBLICACIONES_ABIERTAS_PUBLICACION_ABIERTA"><path d="M988.08,792.4869 C1068.05,801.8769 1171.561,814.0368 1247.911,823.0068" fill="none" id="PUBLICACIONES_ABIERTAS-to-PUBLICACION_ABIERTA" style="stroke:#181818;stroke-width:1;"/><polygon fill="#181818" points="1253.87,823.7069,1245.3982,818.6841,1248.9042,823.1235,1244.4647,826.6294,1253.87,823.7069" style="stroke:#181818;stroke-width:1;"/><text fill="#000000" font-family="sans-serif" font-size="13" lengthAdjust="spacing" textLength="114.2832" x="1079.43" y="798.3638">abrirPublicacion()</text></g><!--link PUBLICACION_ABIERTA to PUBLICACIONES_ABIERTAS--><g class="link" data-entity-1="PUBLICACION_ABIERTA" data-entity-2="PUBLICACIONES_ABIERTAS" data-source-line="29" data-uid="lnk29" id="link_PUBLICACION_ABIERTA_PUBLICACIONES_ABIERTAS"><path d="M1253.81,841.2869 C1239.96,842.1169 1225.82,842.8369 1212.43,843.2969 C1144.92,845.6069 1126.99,854.8469 1060.43,843.2969 C1018.69,836.0569 979.2784,822.1347 945.2484,807.9547" fill="none" id="PUBLICACION_ABIERTA-to-PUBLICACIONES_ABIERTAS" style="stroke:#181818;stroke-width:1;"/><polygon fill="#181818" points="939.71,805.6469,946.4791,812.8009,944.3253,807.57,949.5562,805.4163,939.71,805.6469" style="stroke:#181818;stroke-width:1;"/><text fill="#000000" font-family="sans-serif" font-size="13" lengthAdjust="spacing" textLength="129.0542" x="1071.93" y="839.3638">abrirPublicaciones()</text></g><!--link PUBLICACION_ABIERTA to PUBLICACION_ABIERTA--><g class="link" data-entity-1="PUBLICACION_ABIERTA" data-entity-2="PUBLICACION_ABIERTA" data-source-line="28" data-uid="lnk28" id="link_PUBLICACION_ABIERTA_PUBLICACION_ABIERTA"><path d="M1310.92,809.0169 C1300.59,791.5269 1311.96,774.2969 1345.03,774.2969 C1378.1,774.2969 1392.5213,786.3607 1382.1913,803.8507" fill="none" id="PUBLICACION_ABIERTA-to-PUBLICACION_ABIERTA" style="stroke:#181818;stroke-width:1;"/><polygon fill="#181818" points="1379.14,809.0169,1387.1611,803.3018,1381.6827,804.7117,1380.2728,799.2334,1379.14,809.0169" style="stroke:#181818;stroke-width:1;"/><text fill="#000000" font-family="sans-serif" font-size="13" lengthAdjust="spacing" textLength="149.9189" x="1270.53" y="765.3638">responderPublicacion()</text></g><!--link MIS_PUBLICACIONES_ABIERTAS to MI_PUBLICACION_ABIERTA--><g class="link" data-entity-1="MIS_PUBLICACIONES_ABIERTAS" data-entity-2="MI_PUBLICACION_ABIERTA" data-source-line="33" data-uid="lnk32" id="link_MIS_PUBLICACIONES_ABIERTAS_MI_PUBLICACION_ABIERTA"><path d="M1003.84,613.7769 C1066.67,606.3769 1144.54,603.4469 1212.43,619.2969 C1245.31,626.9769 1274.2292,641.0905 1299.4792,655.8405" fill="none" id="MIS_PUBLICACIONES_ABIERTAS-to-MI_PUBLICACION_ABIERTA" style="stroke:#181818;stroke-width:1;"/><polygon fill="#181818" points="1304.66,658.8669,1298.9064,650.8734,1300.3427,656.3449,1294.8712,657.7811,1304.66,658.8669" style="stroke:#181818;stroke-width:1;"/><text fill="#000000" font-family="sans-serif" font-size="13" lengthAdjust="spacing" textLength="129.1113" x="1071.93" y="603.3638">abrirMiPublicacion()</text></g><!--link MIS_PUBLICACIONES_ABIERTAS to MI_PUBLICACION_ABIERTA--><g class="link" data-entity-1="MIS_PUBLICACIONES_ABIERTAS" data-entity-2="MI_PUBLICACION_ABIERTA" data-source-line="34" data-uid="lnk33" id="link_MIS_PUBLICACIONES_ABIERTAS_MI_PUBLICACION_ABIERTA"><path d="M1003.92,648.0469 C1077.87,655.9269 1165.8238,665.3012 1236.2138,672.8012" fill="none" id="MIS_PUBLICACIONES_ABIERTAS-to-MI_PUBLICACION_ABIERTA-1" style="stroke:#181818;stroke-width:1;"/><polygon fill="#181818" points="1242.18,673.4369,1233.6545,668.5058,1237.2081,672.9071,1232.8069,676.4608,1242.18,673.4369" style="stroke:#181818;stroke-width:1;"/><text fill="#000000" font-family="sans-serif" font-size="13" lengthAdjust="spacing" textLength="117.5649" x="1077.93" y="651.3638">crearPublicacion()</text></g><!--link MI_PUBLICACION_ABIERTA to MIS_PUBLICACIONES_ABIERTAS--><g class="link" data-entity-1="MI_PUBLICACION_ABIERTA" data-entity-2="MIS_PUBLICACIONES_ABIERTAS" data-source-line="36" data-uid="lnk35" id="link_MI_PUBLICACION_ABIERTA_MIS_PUBLICACIONES_ABIERTAS"><path d="M1242.06,692.8169 C1232.05,693.4169 1222.05,693.9369 1212.43,694.2969 C1144.93,696.8569 1127.11,705.1669 1060.43,694.2969 C1020.66,687.8069 983.342,675.7357 949.842,662.8857" fill="none" id="MI_PUBLICACION_ABIERTA-to-MIS_PUBLICACIONES_ABIERTAS" style="stroke:#181818;stroke-width:1;"/><polygon fill="#181818" points="944.24,660.7369,951.2105,667.6948,948.9083,662.5276,954.0756,660.2254,944.24,660.7369" style="stroke:#181818;stroke-width:1;"/><text fill="#000000" font-family="sans-serif" font-size="13" lengthAdjust="spacing" textLength="136.811" x="1068.43" y="690.3638">eliminarPublicacion()</text></g><!--link MI_PUBLICACION_ABIERTA to MIS_PUBLICACIONES_ABIERTAS--><g class="link" data-entity-1="MI_PUBLICACION_ABIERTA" data-entity-2="MIS_PUBLICACIONES_ABIERTAS" data-source-line="38" data-uid="lnk37" id="link_MI_PUBLICACION_ABIERTA_MIS_PUBLICACIONES_ABIERTAS"><path d="M1273.88,709.7969 C1254.26,715.7769 1232.75,721.2769 1212.43,724.2969 C1145.61,734.2269 1126.15,739.9569 1060.43,724.2969 C1009.12,712.0669 960.8884,685.558 926.5584,663.808" fill="none" id="MI_PUBLICACION_ABIERTA-to-MIS_PUBLICACIONES_ABIERTAS-1" style="stroke:#181818;stroke-width:1;"/><polygon fill="#181818" points="921.49,660.5969,926.9519,668.7925,925.7137,663.2728,931.2334,662.0346,921.49,660.5969" style="stroke:#181818;stroke-width:1;"/><text fill="#000000" font-family="sans-serif" font-size="13" lengthAdjust="spacing" textLength="150.6553" x="1061.43" y="720.3638">abrirMisPublicaciones()</text></g><!--link MI_PUBLICACION_ABIERTA to MI_PUBLICACION_ABIERTA--><g class="link" data-entity-1="MI_PUBLICACION_ABIERTA" data-entity-2="MI_PUBLICACION_ABIERTA" data-source-line="35" data-uid="lnk34" id="link_MI_PUBLICACION_ABIERTA_MI_PUBLICACION_ABIERTA"><path d="M1310.92,659.0169 C1300.59,641.5269 1311.96,624.2969 1345.03,624.2969 C1378.1,624.2969 1392.5213,636.3607 1382.1913,653.8507" fill="none" id="MI_PUBLICACION_ABIERTA-to-MI_PUBLICACION_ABIERTA" style="stroke:#181818;stroke-width:1;"/><polygon fill="#181818" points="1379.14,659.0169,1387.1611,653.3018,1381.6827,654.7117,1380.2728,649.2334,1379.14,659.0169" style="stroke:#181818;stroke-width:1;"/><text fill="#000000" font-family="sans-serif" font-size="13" lengthAdjust="spacing" textLength="122.0337" x="1284.03" y="615.3638">editarPublicacion()</text></g><!--link PROYECTOS_ABIERTOS to PROYECTO_ABIERTO--><g class="link" data-entity-1="PROYECTOS_ABIERTOS" data-entity-2="PROYECTO_ABIERTO" data-source-line="41" data-uid="lnk39" id="link_PROYECTOS_ABIERTOS_PROYECTO_ABIERTO"><path d="M974.71,493.3069 C1040.92,491.8769 1132.75,493.0269 1212.43,505.2969 C1230.77,508.1169 1244.3634,511.1247 1262.4534,516.2047" fill="none" id="PROYECTOS_ABIERTOS-to-PROYECTO_ABIERTO" style="stroke:#181818;stroke-width:1;"/><polygon fill="#181818" points="1268.23,517.8269,1260.6466,511.5426,1263.4162,516.4751,1258.4837,519.2447,1268.23,517.8269" style="stroke:#181818;stroke-width:1;"/><text fill="#000000" font-family="sans-serif" font-size="13" lengthAdjust="spacing" textLength="97.6904" x="1087.93" y="489.3638">abrirProyecto()</text></g><!--link PROYECTO_ABIERTO to PROYECTOS_ABIERTOS--><g class="link" data-entity-1="PROYECTO_ABIERTO" data-entity-2="PROYECTOS_ABIERTOS" data-source-line="47" data-uid="lnk45" id="link_PROYECTO_ABIERTO_PROYECTOS_ABIERTOS"><path d="M1262.49,542.5669 C1205.69,541.3269 1128.24,538.1669 1060.43,530.2969 C1032.47,527.0569 1008.1645,523.0972 980.8045,517.8972" fill="none" id="PROYECTO_ABIERTO-to-PROYECTOS_ABIERTOS" style="stroke:#181818;stroke-width:1;"/><polygon fill="#181818" points="974.91,516.7769,983.0049,522.387,979.8221,517.7105,984.4986,514.5277,974.91,516.7769" style="stroke:#181818;stroke-width:1;"/><text fill="#000000" font-family="sans-serif" font-size="13" lengthAdjust="spacing" textLength="104.4634" x="1084.43" y="526.3638">abrirProyectos()</text></g><!--link PROYECTO_ABIERTO to ENTREGABLES_ABIERTOS--><g class="link" data-entity-1="PROYECTO_ABIERTO" data-entity-2="ENTREGABLES_ABIERTOS" data-source-line="44" data-uid="lnk42" id="link_PROYECTO_ABIERTO_ENTREGABLES_ABIERTOS"><path d="M1427.66,558.8969 C1481.4,569.7169 1553.11,585.2169 1615.63,602.2969 C1637.69,608.3269 1655.7134,613.873 1677.2434,620.993" fill="none" id="PROYECTO_ABIERTO-to-ENTREGABLES_ABIERTOS" style="stroke:#181818;stroke-width:1;"/><polygon fill="#181818" points="1682.94,622.8769,1675.651,616.2534,1678.1928,621.307,1673.1392,623.8488,1682.94,622.8769" style="stroke:#181818;stroke-width:1;"/><text fill="#000000" font-family="sans-serif" font-size="13" lengthAdjust="spacing" textLength="118.4092" x="1487.63" y="566.3638">abrirEntregables()</text></g><!--link PROYECTO_ABIERTO to ENTREGABLES_ABIERTOS--><g class="link" data-entity-1="PROYECTO_ABIERTO" data-entity-2="ENTREGABLES_ABIERTOS" data-source-line="45" data-uid="lnk43" id="link_PROYECTO_ABIERTO_ENTREGABLES_ABIERTOS"><path d="M1401.08,568.7569 C1416.7,576.9769 1433.33,586.7269 1447.63,597.2969 C1462.78,608.5069 1460.49,619.4269 1477.63,627.2969 C1533.12,652.7769 1595.451,658.3481 1650.451,657.3281" fill="none" id="PROYECTO_ABIERTO-to-ENTREGABLES_ABIERTOS-1" style="stroke:#181818;stroke-width:1;"/><polygon fill="#181818" points="1656.45,657.2169,1647.3774,653.3844,1651.4509,657.3096,1647.5257,661.3831,1656.45,657.2169" style="stroke:#181818;stroke-width:1;"/><text fill="#000000" font-family="sans-serif" font-size="13" lengthAdjust="spacing" textLength="114.918" x="1489.63" y="623.3638">crearEntregable()</text></g><!--link ENTREGABLES_ABIERTOS to PROYECTO_ABIERTO--><g class="link" data-entity-1="ENTREGABLES_ABIERTOS" data-entity-2="PROYECTO_ABIERTO" data-source-line="51" data-uid="lnk47" id="link_ENTREGABLES_ABIERTOS_PROYECTO_ABIERTO"><path d="M1703.7,673.7469 C1643.71,699.2269 1544.52,728.4369 1477.63,681.2969 C1445.22,658.4569 1473.55,627.2969 1447.63,597.2969 C1437.63,585.7369 1429.7637,579.2086 1416.3137,571.6086" fill="none" id="ENTREGABLES_ABIERTOS-to-PROYECTO_ABIERTO" style="stroke:#181818;stroke-width:1;"/><polygon fill="#181818" points="1411.09,568.6569,1416.9578,576.5669,1415.4431,571.1166,1420.8934,569.6019,1411.09,568.6569" style="stroke:#181818;stroke-width:1;"/><text fill="#000000" font-family="sans-serif" font-size="13" lengthAdjust="spacing" textLength="134.1641" x="1479.63" y="677.3638">eliminarEntregable()</text></g><!--link ENTREGABLES_ABIERTOS to PROYECTO_ABIERTO--><g class="link" data-entity-1="ENTREGABLES_ABIERTOS" data-entity-2="PROYECTO_ABIERTO" data-source-line="52" data-uid="lnk48" id="link_ENTREGABLES_ABIERTOS_PROYECTO_ABIERTO"><path d="M1724.88,673.5869 C1669.76,716.0069 1552.47,791.2369 1477.63,731.2969 C1429.99,693.1469 1484.62,645.8369 1447.63,597.2969 C1438.73,585.6169 1431.7389,579.2266 1418.9189,571.7266" fill="none" id="ENTREGABLES_ABIERTOS-to-PROYECTO_ABIERTO-1" style="stroke:#181818;stroke-width:1;"/><polygon fill="#181818" points="1413.74,568.6969,1419.4885,576.6941,1418.0557,571.2217,1423.5281,569.7889,1413.74,568.6969" style="stroke:#181818;stroke-width:1;"/><text fill="#000000" font-family="sans-serif" font-size="13" lengthAdjust="spacing" textLength="97.6904" x="1498.13" y="727.3638">abrirProyecto()</text></g><!--link PROYECTO_ABIERTO to INVESTIGADORES_ABIERTOS--><g class="link" data-entity-1="PROYECTO_ABIERTO" data-entity-2="INVESTIGADORES_ABIERTOS" data-source-line="46" data-uid="lnk44" id="link_PROYECTO_ABIERTO_INVESTIGADORES_ABIERTOS"><path d="M1400.56,517.8169 C1423.93,507.6069 1451.74,496.3769 1477.63,488.2969 C1531.99,471.3269 1587.9576,458.788 1639.4776,448.898" fill="none" id="PROYECTO_ABIERTO-to-INVESTIGADORES_ABIERTOS" style="stroke:#181818;stroke-width:1;"/><polygon fill="#181818" points="1645.37,447.7669,1635.7773,445.5353,1640.4597,448.7095,1637.2855,453.3919,1645.37,447.7669" style="stroke:#181818;stroke-width:1;"/><text fill="#000000" font-family="sans-serif" font-size="13" lengthAdjust="spacing" textLength="136.4492" x="1478.63" y="449.3638">abrirInvestigadores()</text></g><!--link INVESTIGADORES_ABIERTOS to PROYECTO_ABIERTO--><g class="link" data-entity-1="INVESTIGADORES_ABIERTOS" data-entity-2="PROYECTO_ABIERTO" data-source-line="56" data-uid="lnk51" id="link_INVESTIGADORES_ABIERTOS_PROYECTO_ABIERTO"><path d="M1722.43,454.7669 C1695.31,474.2469 1655.06,499.9669 1615.63,513.2969 C1554.73,533.8769 1488.1151,540.7938 1433.6051,543.0038" fill="none" id="INVESTIGADORES_ABIERTOS-to-PROYECTO_ABIERTO" style="stroke:#181818;stroke-width:1;"/><polygon fill="#181818" points="1427.61,543.2469,1436.7647,546.879,1432.6059,543.0443,1436.4406,538.8856,1427.61,543.2469" style="stroke:#181818;stroke-width:1;"/><text fill="#000000" font-family="sans-serif" font-size="13" lengthAdjust="spacing" textLength="97.6904" x="1498.13" y="509.3638">abrirProyecto()</text></g><!--link ENTREGABLES_ABIERTOS to ENTREGABLES_ABIERTOS--><g class="link" data-entity-1="ENTREGABLES_ABIERTOS" data-entity-2="ENTREGABLES_ABIERTOS" data-source-line="50" data-uid="lnk46" id="link_ENTREGABLES_ABIERTOS_ENTREGABLES_ABIERTOS"><path d="M1720.94,623.0169 C1710.18,605.5269 1722.01,588.2969 1756.44,588.2969 C1790.86,588.2969 1805.8339,600.4165 1795.0739,617.9065" fill="none" id="ENTREGABLES_ABIERTOS-to-ENTREGABLES_ABIERTOS" style="stroke:#181818;stroke-width:1;"/><polygon fill="#181818" points="1791.93,623.0169,1800.0528,617.4473,1794.5499,618.7582,1793.239,613.2554,1791.93,623.0169" style="stroke:#181818;stroke-width:1;"/><text fill="#000000" font-family="sans-serif" font-size="13" lengthAdjust="spacing" textLength="119.3867" x="1696.94" y="579.3638">editarEntregable()</text></g><!--link INVESTIGADORES_ABIERTOS to INVESTIGADOR_ABIERTO--><g class="link" data-entity-1="INVESTIGADORES_ABIERTOS" data-entity-2="INVESTIGADOR_ABIERTO" data-source-line="55" data-uid="lnk50" id="link_INVESTIGADORES_ABIERTOS_INVESTIGADOR_ABIERTO"><path d="M1867.65,429.5669 C1929.38,429.7269 1999.64,429.8917 2059.04,430.0417" fill="none" id="INVESTIGADORES_ABIERTOS-to-INVESTIGADOR_ABIERTO" style="stroke:#181818;stroke-width:1;"/><polygon fill="#181818" points="2065.04,430.0569,2056.0501,426.0342,2060.04,430.0442,2056.0299,434.0341,2065.04,430.0569" style="stroke:#181818;stroke-width:1;"/><text fill="#000000" font-family="sans-serif" font-size="13" lengthAdjust="spacing" textLength="121.6782" x="1905.75" y="425.3638">abrirInvestigador()</text></g><!--link INVESTIGADOR_ABIERTO to INVESTIGADORES_ABIERTOS--><g class="link" data-entity-1="INVESTIGADOR_ABIERTO" data-entity-2="INVESTIGADORES_ABIERTOS" data-source-line="59" data-uid="lnk53" id="link_INVESTIGADOR_ABIERTO_INVESTIGADORES_ABIERTOS"><path d="M2064.97,450.5769 C2054.97,452.0969 2044.93,453.3869 2035.25,454.2969 C1974.18,460.0369 1958.34,459.7169 1897.25,454.2969 C1887.54,453.4369 1883.4525,453.0755 1873.4125,451.6755" fill="none" id="INVESTIGADOR_ABIERTO-to-INVESTIGADORES_ABIERTOS" style="stroke:#181818;stroke-width:1;"/><polygon fill="#181818" points="1867.47,450.8469,1875.8313,456.0515,1872.4221,451.5374,1876.9362,448.1282,1867.47,450.8469" style="stroke:#181818;stroke-width:1;"/><text fill="#000000" font-family="sans-serif" font-size="13" lengthAdjust="spacing" textLength="136.4492" x="1898.25" y="450.3638">abrirInvestigadores()</text></g><!--SRC=[dLNHRfim57ttL_YnhTGVoCCaXtYHfoGWO9EcQK8EkEnErAwCMwtx-ZabPC7OXEGjm3s7SyyvCGPC8_0AUAtvCyULmAMIHlmnwl3xLMAGRw8rKFDAQNnNAgr53PN2xrZfcaluQn_S8zI89uCjI4Fzo-0Aj2WDA8aG-l7m4py-Vi8PpLYyAoAQfcH5qF3ICx6m0gIekMOIIb2PQ2tVtRqFcD3qCziih5OxoVLfjBllvIw5rcUJw7msJY8xIxEYkrUG9QDf7YymtslGyOjL8qMR2Fq4pV0j9sH4qZKfyfGioPVuI40oXo7Yri5Sypt_hOOyIHf_fr4UP_sxUsYYrRjrLhN3URRxHhEShSagJka8nCuY50voo-oQNvSR5f6ZT4Vi5jhaTTz0oJlHZj0fg8j30MEdJHSL6AvFRaznk26B1fv1pWJt9UgazmXq8T9viNSxE7dFOGw8GdxVtKZw1-Cy3YcEvy9usviN9IjnFSVbMapj4bW_tDfZgOkm2riOxd0ZLwa5rovJ4J8an78iztoQyB_rLFPhjlCRVAE2q7bXwpewpmR7d7F2zeVSeHi1eByNBj_7BDtbALsJvMPyC59fxDUCxvkkX_FH7-7_HuV0rnxBFevPdmA4V3ed5kXwDzWWo31EgQ_QhNWtPOG2JerST3ZEBRGyKooNLKoY_ONpIRiX-Ny0]--></g></svg>