<svg xmlns="http://www.w3.org/2000/svg" xmlns:xlink="http://www.w3.org/1999/xlink" contentStyleType="text/css" data-diagram-type="STATE" height="514px" preserveAspectRatio="none" style="width:555px;height:514px;background:#FFFFFF;" version="1.1" viewBox="0 0 555 514" width="555px" zoomAndPan="magnify"><defs/><g><path d="M29.73,7 L398.73,7 A12.5,12.5 0 0 1 411.23,19.5 L411.23,33.2969 L17.23,33.2969 L17.23,19.5 A12.5,12.5 0 0 1 29.73,7" fill="#F1F1F1"/><rect fill="none" height="356.2969" rx="12.5" ry="12.5" style="stroke:#181818;stroke-width:0.5;" width="394" x="17.23" y="7"/><line style="stroke:#181818;stroke-width:0.5;" x1="17.23" x2="411.23" y1="33.2969" y2="33.2969"/><text fill="#000000" font-family="sans-serif" font-size="14" lengthAdjust="spacing" textLength="134.2783" x="147.0908" y="24.9951">abrirRecompensa()</text><g><rect fill="#F1F1F1" height="50" rx="12.5" ry="12.5" style="stroke:#181818;stroke-width:0.5;" width="50" x="29.23" y="135.2969"/><line style="stroke:#181818;stroke-width:0.5;" x1="29.23" x2="79.23" y1="161.5938" y2="161.5938"/><text fill="#000000" font-family="sans-serif" font-size="14" lengthAdjust="spacing" textLength="4.4502" x="52.0049" y="153.292">&#160;</text></g><ellipse cx="54.23" cy="54.2969" fill="#222222" rx="10" ry="10" style="stroke:#222222;stroke-width:1;"/><ellipse cx="54.23" cy="342.2969" fill="none" rx="11" ry="11" style="stroke:#222222;stroke-width:1;"/><ellipse cx="54.23" cy="342.2969" fill="#222222" rx="6" ry="6" style="stroke:#222222;stroke-width:1;"/><!--link *start*abrirRecompensa to MostrandoRecompensa--><g class="link" data-entity-1="ent0002" data-entity-2="ent0003" data-link-type="dependency" data-source-line="7" id="lnk3"><path d="M54.23,64.5269 C54.23,80.2369 54.23,106.6569 54.23,129.1669" fill="none" id="*start*abrirRecompensa-to-MostrandoRecompensa" style="stroke:#008000;stroke-width:1;"/><polygon fill="#008000" points="54.23,135.1669,58.23,126.1669,54.23,130.1669,50.23,126.1669,54.23,135.1669" style="stroke:#008000;stroke-width:1;"/><path d="M59.23,87.2969 L59.23,112.2969 L367.23,112.2969 L367.23,97.2969 L357.23,87.2969 L59.23,87.2969" fill="#FEFFDD" style="stroke:#181818;stroke-width:0.5;"/><path d="M357.23,87.2969 L357.23,97.2969 L367.23,97.2969 L357.23,87.2969" fill="#FEFFDD" style="stroke:#181818;stroke-width:0.5;"/><text fill="#000000" font-family="sans-serif" font-size="13" font-weight="bold" lengthAdjust="spacing" textLength="90.251" x="65.23" y="104.3638">Coordinador</text><text fill="#000000" font-family="sans-serif" font-size="13" lengthAdjust="spacing" textLength="193.4702" x="159.6133" y="104.3638">solicita abrir una recompensa</text></g><!--link MostrandoRecompensa to *end*abrirRecompensa--><g class="link" data-entity-1="ent0003" data-entity-2="ent0004" data-link-type="dependency" data-source-line="12" id="lnk5"><path d="M54.23,185.5769 C54.23,225.4969 54.23,297.3469 54.23,325.1369" fill="none" id="MostrandoRecompensa-to-*end*abrirRecompensa" style="stroke:#008000;stroke-width:1;"/><polygon fill="#008000" points="54.23,331.1369,58.23,322.1369,54.23,326.1369,50.23,322.1369,54.23,331.1369" style="stroke:#008000;stroke-width:1;"/><path d="M59.23,208.2969 L59.23,308.2969 L402.23,308.2969 L402.23,218.2969 L392.23,208.2969 L59.23,208.2969" fill="#FEFFDD" style="stroke:#181818;stroke-width:0.5;"/><path d="M392.23,208.2969 L392.23,218.2969 L402.23,218.2969 L392.23,208.2969" fill="#FEFFDD" style="stroke:#181818;stroke-width:0.5;"/><text fill="#000000" font-family="sans-serif" font-size="13" font-weight="bold" lengthAdjust="spacing" textLength="58.9063" x="65.23" y="225.3638">Sistema</text><text fill="#000000" font-family="sans-serif" font-size="13" lengthAdjust="spacing" textLength="259.6699" x="128.2686" y="225.3638">presenta informaci&#243;n de la recompensa</text><text fill="#000000" font-family="sans-serif" font-size="13" lengthAdjust="spacing" textLength="39.5586" x="65.23" y="240.4966">&#8226; Tipo</text><text fill="#000000" font-family="sans-serif" font-size="13" lengthAdjust="spacing" textLength="70.2622" x="65.23" y="255.6294">&#8226; Cantidad</text><text fill="#000000" font-family="sans-serif" font-size="13" font-weight="bold" lengthAdjust="spacing" textLength="58.9063" x="65.23" y="270.7622">Sistema</text><text fill="#000000" font-family="sans-serif" font-size="13" lengthAdjust="spacing" textLength="110.5952" x="128.2686" y="270.7622">permite solicitar:</text><text fill="#000000" font-family="sans-serif" font-size="13" lengthAdjust="spacing" textLength="134.5386" x="65.23" y="285.895">&#8226; editar recompensa</text><text fill="#000000" font-family="sans-serif" font-size="13" lengthAdjust="spacing" textLength="149.3159" x="65.23" y="301.0278">&#8226; eliminar recompensa</text></g><g><rect fill="#F1F1F1" height="50" rx="12.5" ry="12.5" style="stroke:#181818;stroke-width:0.5;" width="202.458" x="7" y="458.3"/><line style="stroke:#181818;stroke-width:0.5;" x1="7" x2="209.458" y1="484.5969" y2="484.5969"/><text fill="#000000" font-family="sans-serif" font-size="14" lengthAdjust="spacing" textLength="182.458" x="17" y="476.2951">RECOMPENSAS_ABIERTAS</text></g><g><rect fill="#F1F1F1" height="50" rx="12.5" ry="12.5" style="stroke:#181818;stroke-width:0.5;" width="184.6846" x="339.89" y="458.3"/><line style="stroke:#181818;stroke-width:0.5;" x1="339.89" x2="524.5746" y1="484.5969" y2="484.5969"/><text fill="#000000" font-family="sans-serif" font-size="14" lengthAdjust="spacing" textLength="164.6846" x="349.89" y="476.2951">RECOMPENSA_ABIERTA</text></g><!--link abrirRecompensa to RECOMPENSAS_ABIERTAS--><g class="link" data-entity-1="ent0002" data-entity-2="ent0006" data-link-type="dependency" data-source-line="23" id="lnk7"><path d="M38.6,363.62 C20.87,381.54 9.23,393.3 9.23,393.3 C9.23,393.3 9.23,428.3 9.23,428.3 C9.23,428.3 31.903,440.6662 58.093,454.9562" fill="none" id="abrirRecompensa-to-RECOMPENSAS_ABIERTAS" style="stroke:#008000;stroke-width:1;"/><polygon fill="#008000" points="63.36,457.83,57.3754,450.0079,58.9708,455.4352,53.5436,457.0306,63.36,457.83" style="stroke:#008000;stroke-width:1;"/><path d="M14.23,398.3 L14.23,423.3 L166.23,423.3 L166.23,408.3 L156.23,398.3 L14.23,398.3" fill="#FEFFDD" style="stroke:#181818;stroke-width:0.5;"/><path d="M156.23,398.3 L156.23,408.3 L166.23,408.3 L156.23,398.3" fill="#FEFFDD" style="stroke:#181818;stroke-width:0.5;"/><text fill="#000000" font-family="sans-serif" font-size="13" lengthAdjust="spacing" textLength="131.46" x="20.23" y="415.3669">abrirRecompensas()</text></g><!--link abrirRecompensa to RECOMPENSAS_ABIERTAS--><g class="link" data-entity-1="ent0002" data-entity-2="ent0006" data-link-type="dependency" data-source-line="28" id="lnk8"><path d="M185.63,363.73 C179.71,400.49 175.23,428.3 175.23,428.3 C175.23,428.3 160.9916,439.7748 143.2616,454.0648" fill="none" id="abrirRecompensa-to-RECOMPENSAS_ABIERTAS-1" style="stroke:#008000;stroke-width:1;"/><polygon fill="#008000" points="138.59,457.83,148.1075,455.2966,142.483,454.6924,143.0872,449.0679,138.59,457.83" style="stroke:#008000;stroke-width:1;"/><path d="M185.23,398.3 L185.23,423.3 L353.23,423.3 L353.23,408.3 L343.23,398.3 L185.23,398.3" fill="#FEFFDD" style="stroke:#181818;stroke-width:0.5;"/><path d="M343.23,398.3 L343.23,408.3 L353.23,408.3 L343.23,398.3" fill="#FEFFDD" style="stroke:#181818;stroke-width:0.5;"/><text fill="#000000" font-family="sans-serif" font-size="13" lengthAdjust="spacing" textLength="147.2148" x="191.23" y="415.3669">eliminarRecompensa()</text></g><!--link abrirRecompensa to RECOMPENSA_ABIERTA--><g class="link" data-entity-1="ent0002" data-entity-2="ent0009" data-link-type="dependency" data-source-line="33" id="lnk10"><path d="M344.82,363.55 C372.38,401 394.4731,431.008 410.7631,453.138" fill="none" id="abrirRecompensa-to-RECOMPENSA_ABIERTA" style="stroke:#008000;stroke-width:1;"/><polygon fill="#008000" points="414.32,457.97,412.206,448.3507,411.3559,453.9433,405.7633,453.0932,414.32,457.97" style="stroke:#008000;stroke-width:1;"/><path d="M395.23,398.3 L395.23,423.3 L548.23,423.3 L548.23,408.3 L538.23,398.3 L395.23,398.3" fill="#FEFFDD" style="stroke:#181818;stroke-width:0.5;"/><path d="M538.23,398.3 L538.23,408.3 L548.23,408.3 L538.23,398.3" fill="#FEFFDD" style="stroke:#181818;stroke-width:0.5;"/><text fill="#000000" font-family="sans-serif" font-size="13" lengthAdjust="spacing" textLength="132.4375" x="401.23" y="415.3669">editarRecompensa()</text></g><!--SRC=[fPBFIiD04CRl-nH3lRH2yIwb44iE7ghIz5QAJBkZ34rcm-nwA2BuBBw2Z-2R-2Hk4lelfWSnUvhbcz_tpMpyXgL4nG9o5WhRag1q-ROgZF410m6kb7L6QrUK91u1FVHQT_r13rwDWVWrFRruecxgV50KwmxIHhMuNC9mSV6iHB8SZZk5bKvSX3cfmctgYz5gF75EBGjQfwEhrHYyotdD0PkWy288UaeXiJMfyUxmEiaIivtrpjW7Ah3sBPKyIVHbUN9Qu9g_FWKiGVuhmFVx1yovTFjYWXBOektaaXOShNTpwVM-ZMnLTz4fvoBkHC-E_cPC-o6FXvwba_lfGtgN9TbZSdERpkP9PausqEhs_O4vxFL_w5tuun_gp_0TkuMkDzO9_W40]--></g></svg>