<svg xmlns="http://www.w3.org/2000/svg" xmlns:xlink="http://www.w3.org/1999/xlink" contentStyleType="text/css" data-diagram-type="SALT" height="308px" preserveAspectRatio="none" style="width:460px;height:308px;background:#FFFFFF;" version="1.1" viewBox="0 0 460 308" width="460px" zoomAndPan="magnify"><defs/><g><line style="stroke:#AAAAAA;stroke-width:1;" x1="6" x2="453" y1="8.5" y2="8.5"/><line style="stroke:#AAAAAA;stroke-width:1;" x1="6" x2="453" y1="10.5" y2="10.5"/><text fill="#000000" font-family="sans-serif" font-size="12" font-weight="bold" lengthAdjust="spacing" textLength="163.3066" x="6" y="25.1387">GIPF - INVESTIGADORES</text><line style="stroke:#AAAAAA;stroke-width:1;" x1="6" x2="453" y1="32.4688" y2="32.4688"/><line style="stroke:#AAAAAA;stroke-width:1;" x1="6" x2="453" y1="34.4688" y2="34.4688"/><text fill="#000000" font-family="sans-serif" font-size="12" font-weight="bold" lengthAdjust="spacing" textLength="105.0352" x="7" y="50.1074">Filtrar / buscar:</text><text fill="#000000" font-family="sans-serif" font-size="12" font-weight="bold" lengthAdjust="spacing" textLength="19.2246" x="9" y="68.0762">ID:</text><rect fill="#EEEEEE" height="17.9688" rx="5" ry="5" style="stroke:#000000;stroke-width:2.5;" width="68" x="71.7363" y="59.4375"/><text fill="#000000" font-family="sans-serif" font-size="12" lengthAdjust="spacing" textLength="3.8145" x="103.8291" y="72.5762">&#160;</text><text fill="#000000" font-family="sans-serif" font-size="12" font-weight="bold" lengthAdjust="spacing" textLength="58.2363" x="9" y="93.0449">Nombre:</text><rect fill="#EEEEEE" height="17.9688" rx="5" ry="5" style="stroke:#000000;stroke-width:2.5;" width="164" x="71.7363" y="84.4063"/><text fill="#000000" font-family="sans-serif" font-size="12" lengthAdjust="spacing" textLength="3.8145" x="151.8291" y="97.5449">&#160;</text><text fill="#000000" font-family="sans-serif" font-size="12" font-weight="bold" lengthAdjust="spacing" textLength="59.9883" x="9" y="120.0137">Apellido:</text><rect fill="#EEEEEE" height="17.9688" rx="5" ry="5" style="stroke:#000000;stroke-width:2.5;" width="164" x="73.4883" y="111.375"/><text fill="#000000" font-family="sans-serif" font-size="12" lengthAdjust="spacing" textLength="3.8145" x="153.5811" y="124.5137">&#160;</text><text fill="#000000" font-family="sans-serif" font-size="12" font-weight="bold" lengthAdjust="spacing" textLength="51.041" x="9" y="144.9824">Campo:</text><rect fill="#EEEEEE" height="17.9688" rx="5" ry="5" style="stroke:#000000;stroke-width:2.5;" width="164" x="73.4883" y="136.3438"/><text fill="#000000" font-family="sans-serif" font-size="12" lengthAdjust="spacing" textLength="3.8145" x="153.5811" y="149.4824">&#160;</text><line style="stroke:#AAAAAA;stroke-width:1.5;" x1="7" x2="452" y1="164.3125" y2="164.3125"/><text fill="#000000" font-family="sans-serif" font-size="12" font-weight="bold" lengthAdjust="spacing" textLength="158.1504" x="7" y="179.9512">Lista de investigadores</text><line style="stroke:#AAAAAA;stroke-width:1;" x1="7" x2="452" y1="188.2813" y2="188.2813"/><text fill="#000000" font-family="sans-serif" font-size="12" font-weight="bold" lengthAdjust="spacing" textLength="14.4258" x="9" y="205.9199">ID</text><text fill="#000000" font-family="sans-serif" font-size="12" font-weight="bold" lengthAdjust="spacing" textLength="53.4375" x="25.4258" y="205.9199">Nombre</text><text fill="#000000" font-family="sans-serif" font-size="12" font-weight="bold" lengthAdjust="spacing" textLength="55.1895" x="80.8633" y="205.9199">Apellido</text><text fill="#000000" font-family="sans-serif" font-size="12" font-weight="bold" lengthAdjust="spacing" textLength="46.2422" x="138.0527" y="205.9199">Campo</text><text fill="#000000" font-family="sans-serif" font-size="12" font-weight="bold" lengthAdjust="spacing" textLength="50.8945" x="186.2949" y="205.9199">Carrera</text><text fill="#000000" font-family="sans-serif" font-size="12" lengthAdjust="spacing" textLength="47.959" x="12" y="223.8887">INV-001</text><line style="stroke:#000000;stroke-width:1;" x1="10" x2="69" y1="226.7188" y2="226.7188"/><line style="stroke:#000000;stroke-width:1;" x1="10" x2="10" y1="223.7188" y2="225.7188"/><line style="stroke:#000000;stroke-width:1;" x1="69" x2="69" y1="223.7188" y2="225.7188"/><text fill="#000000" font-family="sans-serif" font-size="12" lengthAdjust="spacing" textLength="23.168" x="76" y="223.8887">Ana</text><line style="stroke:#000000;stroke-width:1;" x1="74" x2="101" y1="226.7188" y2="226.7188"/><line style="stroke:#000000;stroke-width:1;" x1="74" x2="74" y1="223.7188" y2="225.7188"/><line style="stroke:#000000;stroke-width:1;" x1="101" x2="101" y1="223.7188" y2="225.7188"/><text fill="#000000" font-family="sans-serif" font-size="12" lengthAdjust="spacing" textLength="35.3262" x="108" y="223.8887">L&#243;pez</text><line style="stroke:#000000;stroke-width:1;" x1="106" x2="149" y1="226.7188" y2="226.7188"/><line style="stroke:#000000;stroke-width:1;" x1="106" x2="106" y1="223.7188" y2="225.7188"/><line style="stroke:#000000;stroke-width:1;" x1="149" x2="149" y1="223.7188" y2="225.7188"/><text fill="#000000" font-family="sans-serif" font-size="12" lengthAdjust="spacing" textLength="11.748" x="156" y="223.8887">IA</text><line style="stroke:#000000;stroke-width:1;" x1="154" x2="173" y1="226.7188" y2="226.7188"/><line style="stroke:#000000;stroke-width:1;" x1="154" x2="154" y1="223.7188" y2="225.7188"/><line style="stroke:#000000;stroke-width:1;" x1="173" x2="173" y1="223.7188" y2="225.7188"/><text fill="#000000" font-family="sans-serif" font-size="12" lengthAdjust="spacing" textLength="68.6777" x="180" y="223.8887">Inform&#225;tica</text><line style="stroke:#000000;stroke-width:1;" x1="178" x2="269" y1="226.7188" y2="226.7188"/><line style="stroke:#000000;stroke-width:1;" x1="178" x2="178" y1="223.7188" y2="225.7188"/><line style="stroke:#000000;stroke-width:1;" x1="269" x2="269" y1="223.7188" y2="225.7188"/><text fill="#000000" font-family="sans-serif" font-size="12" lengthAdjust="spacing" textLength="47.959" x="12" y="243.8574">INV-002</text><line style="stroke:#000000;stroke-width:1;" x1="10" x2="69" y1="246.6875" y2="246.6875"/><line style="stroke:#000000;stroke-width:1;" x1="10" x2="10" y1="243.6875" y2="245.6875"/><line style="stroke:#000000;stroke-width:1;" x1="69" x2="69" y1="243.6875" y2="245.6875"/><text fill="#000000" font-family="sans-serif" font-size="12" lengthAdjust="spacing" textLength="33.3164" x="76" y="243.8574">Mario</text><line style="stroke:#000000;stroke-width:1;" x1="74" x2="117" y1="246.6875" y2="246.6875"/><line style="stroke:#000000;stroke-width:1;" x1="74" x2="74" y1="243.6875" y2="245.6875"/><line style="stroke:#000000;stroke-width:1;" x1="117" x2="117" y1="243.6875" y2="245.6875"/><text fill="#000000" font-family="sans-serif" font-size="12" lengthAdjust="spacing" textLength="38.8711" x="124" y="243.8574">Garc&#237;a</text><line style="stroke:#000000;stroke-width:1;" x1="122" x2="173" y1="246.6875" y2="246.6875"/><line style="stroke:#000000;stroke-width:1;" x1="122" x2="122" y1="243.6875" y2="245.6875"/><line style="stroke:#000000;stroke-width:1;" x1="173" x2="173" y1="243.6875" y2="245.6875"/><text fill="#000000" font-family="sans-serif" font-size="12" lengthAdjust="spacing" textLength="51.6504" x="180" y="243.8574">Big Data</text><line style="stroke:#000000;stroke-width:1;" x1="178" x2="245" y1="246.6875" y2="246.6875"/><line style="stroke:#000000;stroke-width:1;" x1="178" x2="178" y1="243.6875" y2="245.6875"/><line style="stroke:#000000;stroke-width:1;" x1="245" x2="245" y1="243.6875" y2="245.6875"/><text fill="#000000" font-family="sans-serif" font-size="12" lengthAdjust="spacing" textLength="39.3691" x="252" y="243.8574">Teleco</text><line style="stroke:#000000;stroke-width:1;" x1="250" x2="301" y1="246.6875" y2="246.6875"/><line style="stroke:#000000;stroke-width:1;" x1="250" x2="250" y1="243.6875" y2="245.6875"/><line style="stroke:#000000;stroke-width:1;" x1="301" x2="301" y1="243.6875" y2="245.6875"/><text fill="#000000" font-family="sans-serif" font-size="12" lengthAdjust="spacing" textLength="47.959" x="12" y="263.8262">INV-003</text><line style="stroke:#000000;stroke-width:1;" x1="10" x2="69" y1="266.6563" y2="266.6563"/><line style="stroke:#000000;stroke-width:1;" x1="10" x2="10" y1="263.6563" y2="265.6563"/><line style="stroke:#000000;stroke-width:1;" x1="69" x2="69" y1="263.6563" y2="265.6563"/><text fill="#000000" font-family="sans-serif" font-size="12" lengthAdjust="spacing" textLength="31.5762" x="76" y="263.8262">Luc&#237;a</text><line style="stroke:#000000;stroke-width:1;" x1="74" x2="117" y1="266.6563" y2="266.6563"/><line style="stroke:#000000;stroke-width:1;" x1="74" x2="74" y1="263.6563" y2="265.6563"/><line style="stroke:#000000;stroke-width:1;" x1="117" x2="117" y1="263.6563" y2="265.6563"/><text fill="#000000" font-family="sans-serif" font-size="12" lengthAdjust="spacing" textLength="33.2344" x="124" y="263.8262">P&#233;rez</text><line style="stroke:#000000;stroke-width:1;" x1="122" x2="165" y1="266.6563" y2="266.6563"/><line style="stroke:#000000;stroke-width:1;" x1="122" x2="122" y1="263.6563" y2="265.6563"/><line style="stroke:#000000;stroke-width:1;" x1="165" x2="165" y1="263.6563" y2="265.6563"/><text fill="#000000" font-family="sans-serif" font-size="12" lengthAdjust="spacing" textLength="91.3594" x="172" y="263.8262">Ciberseguridad</text><line style="stroke:#000000;stroke-width:1;" x1="170" x2="285" y1="266.6563" y2="266.6563"/><line style="stroke:#000000;stroke-width:1;" x1="170" x2="170" y1="263.6563" y2="265.6563"/><line style="stroke:#000000;stroke-width:1;" x1="285" x2="285" y1="263.6563" y2="265.6563"/><text fill="#000000" font-family="sans-serif" font-size="12" lengthAdjust="spacing" textLength="68.6777" x="292" y="263.8262">Inform&#225;tica</text><line style="stroke:#000000;stroke-width:1;" x1="290" x2="381" y1="266.6563" y2="266.6563"/><line style="stroke:#000000;stroke-width:1;" x1="290" x2="290" y1="263.6563" y2="265.6563"/><line style="stroke:#000000;stroke-width:1;" x1="381" x2="381" y1="263.6563" y2="265.6563"/><line style="stroke:#AAAAAA;stroke-width:1.5;" x1="7" x2="452" y1="276.1563" y2="276.1563"/><rect fill="#EEEEEE" height="17.9688" rx="5" ry="5" style="stroke:#000000;stroke-width:2.5;" width="100" x="10.5" y="284.1563"/><text fill="#000000" font-family="sans-serif" font-size="12" lengthAdjust="spacing" textLength="63.668" x="28.666" y="297.2949">Abrir perfil</text><rect fill="#EEEEEE" height="17.9688" rx="5" ry="5" style="stroke:#000000;stroke-width:2.5;" width="124" x="117.5" y="284.1563"/><text fill="#000000" font-family="sans-serif" font-size="12" lengthAdjust="spacing" textLength="79.3184" x="139.8408" y="297.2949">Aplicar filtros</text><rect fill="#EEEEEE" height="17.9688" rx="5" ry="5" style="stroke:#000000;stroke-width:2.5;" width="124" x="248.5" y="284.1563"/><text fill="#000000" font-family="sans-serif" font-size="12" lengthAdjust="spacing" textLength="82.8867" x="269.0566" y="297.2949">Limpiar filtros</text><rect fill="#EEEEEE" height="17.9688" rx="5" ry="5" style="stroke:#000000;stroke-width:2.5;" width="68" x="379.5" y="284.1563"/><text fill="#000000" font-family="sans-serif" font-size="12" lengthAdjust="spacing" textLength="52.9395" x="387.0303" y="297.2949">Cancelar</text><!--SRC=[ZLFBRjim4BppAnOw9GSbTlf0OQH15BzWLqwC-749V5X9QuEeH0ehoa6REl_IOmyzzHFyOwKKF-F6A4-xevdXQaXUPmRPP1WRm80bTzISCYDd66bs7oNJb34XyIJ0hizsbSLbSDNkz5lWGkTst1mCEsslSNVV75oU1rVxp1VXIjEIiM5aE8SWpqBaseQ_Joqxo-yqIWRyW8SrFDaZ5QQtEWcO3eYxQx8uiFPIYcCPwUEwWytgcAJwV_TQY4tv_2nsW_2bZHqY0haJDsLxSRZkqMHMCsm2sFRhNziYvTIxBJCn5i2hO1nxd6wbKdKiqV4KEXQqbR_yazBtLTFnd1r90QYfvcJvqyWGdNyRNfI6FMIfowgD72v_5_QskP4pQA11Psquf9X2_ORLkzB0pr_qjkmlV_5ckBeCY3EQvImZZ9mZuxrnE4yFNl4C82MUodXIdBANnbRAC2rkhyvAp9T9AbzXTLGXnSYh6x0G2t5DAYhUbX3z69KPzNoOs_caLb0zkwXSV3YhLWCoMAsSZDHNfHyLXDewnmH69dGgJjfz7pATSqWGsKl3CiYDbP-ABiuHxdDLy6fmbvBgDhwi0MYgkMIj4b96TCUzBU7ZU_T66XWGsq5Wt1CDcc9kNtzJXJgIQbQ3qR3bVX8-gbcEC-jDIjIrzULlzjlWBm00]--></g></svg>