<svg xmlns="http://www.w3.org/2000/svg" xmlns:xlink="http://www.w3.org/1999/xlink" contentStyleType="text/css" data-diagram-type="CLASS" height="526px" preserveAspectRatio="none" style="width:1376px;height:526px;background:#FFFFFF;" version="1.1" viewBox="0 0 1376 526" width="1376px" zoomAndPan="magnify"><title>Instancia Espec&#237;fica de la Red de Investigadores</title><defs/><g><g class="title" data-source-line="1"><text fill="#000000" font-family="sans-serif" font-size="14" font-weight="bold" lengthAdjust="spacing" textLength="381.5889" x="490.4902" y="22.9951">Instancia Espec&#237;fica de la Red de Investigadores</text></g><g class="entity" data-entity="Perez" data-source-line="4" data-uid="ent0002" id="entity_Perez"><rect fill="#FFAAAA" height="60.8906" rx="2.5" ry="2.5" style="stroke:#181818;stroke-width:0.5;" width="217.4746" x="625.5" y="182.2969"/><text fill="#000000" font-family="sans-serif" font-size="14" lengthAdjust="spacing" textLength="120.0596" x="674.2075" y="197.292">ID-001: Dr. P&#233;rez</text><line style="stroke:#181818;stroke-width:0.5;" x1="626.5" x2="841.9746" y1="202.5938" y2="202.5938"/><text fill="#000000" font-family="sans-serif" font-size="14" lengthAdjust="spacing" textLength="188.5557" x="631.5" y="219.5889">Nombre = "Dr. Juan P&#233;rez"</text><text fill="#000000" font-family="sans-serif" font-size="14" lengthAdjust="spacing" textLength="205.4746" x="631.5" y="235.8857">Departamento = "Ingenier&#237;a"</text></g><g class="entity" data-entity="Gomez" data-source-line="9" data-uid="ent0003" id="entity_Gomez"><rect fill="#FFAAAA" height="60.8906" rx="2.5" ry="2.5" style="stroke:#181818;stroke-width:0.5;" width="267.8486" x="280" y="320.2969"/><text fill="#000000" font-family="sans-serif" font-size="14" lengthAdjust="spacing" textLength="138.8789" x="344.4849" y="335.292">ID-002: Dra. G&#243;mez</text><line style="stroke:#181818;stroke-width:0.5;" x1="281" x2="546.8486" y1="340.5938" y2="340.5938"/><text fill="#000000" font-family="sans-serif" font-size="14" lengthAdjust="spacing" textLength="203.9502" x="286" y="357.5889">Nombre = "Dra. Ana G&#243;mez"</text><text fill="#000000" font-family="sans-serif" font-size="14" lengthAdjust="spacing" textLength="255.8486" x="286" y="373.8857">Departamento = "Ciencias Sociales"</text></g><g class="entity" data-entity="ProyectoIA" data-source-line="15" data-uid="ent0004" id="entity_ProyectoIA"><rect fill="#F1F1F1" height="60.8906" rx="2.5" ry="2.5" style="stroke:#181818;stroke-width:0.5;" width="389.5693" x="980" y="182.2969"/><text fill="#000000" font-family="sans-serif" font-size="14" lengthAdjust="spacing" textLength="159.2979" x="1095.1357" y="197.292">P-2025-01: IA Aplicada</text><line style="stroke:#181818;stroke-width:0.5;" x1="981" x2="1368.5693" y1="202.5938" y2="202.5938"/><text fill="#000000" font-family="sans-serif" font-size="14" lengthAdjust="spacing" textLength="377.5693" x="986" y="219.5889">T&#237;tulo = "Inteligencia Artificial Aplicada a la Medicina"</text><text fill="#000000" font-family="sans-serif" font-size="14" lengthAdjust="spacing" textLength="124.6738" x="986" y="235.8857">Estado = "Activo"</text></g><g class="entity" data-entity="ProyectoEdu" data-source-line="20" data-uid="ent0005" id="entity_ProyectoEdu"><rect fill="#F1F1F1" height="60.8906" rx="2.5" ry="2.5" style="stroke:#181818;stroke-width:0.5;" width="280.0713" x="664" y="44.2969"/><text fill="#000000" font-family="sans-serif" font-size="14" lengthAdjust="spacing" textLength="153.0635" x="727.5039" y="59.292">P-2024-05: Educaci&#243;n</text><line style="stroke:#181818;stroke-width:0.5;" x1="665" x2="943.0713" y1="64.5938" y2="64.5938"/><text fill="#000000" font-family="sans-serif" font-size="14" lengthAdjust="spacing" textLength="268.0713" x="670" y="81.5889">T&#237;tulo = "Nuevos Modelos Educativos"</text><text fill="#000000" font-family="sans-serif" font-size="14" lengthAdjust="spacing" textLength="151.7236" x="670" y="97.8857">Estado = "Finalizado"</text></g><g class="entity" data-entity="CoordinadorLara" data-source-line="26" data-uid="ent0006" id="entity_CoordinadorLara"><rect fill="#F1F1F1" height="60.8906" rx="2.5" ry="2.5" style="stroke:#181818;stroke-width:0.5;" width="281.0283" x="347.5" y="44.2969"/><text fill="#000000" font-family="sans-serif" font-size="14" lengthAdjust="spacing" textLength="117.4004" x="429.314" y="59.292">C-001: Msc. Lara</text><line style="stroke:#181818;stroke-width:0.5;" x1="348.5" x2="627.5283" y1="64.5938" y2="64.5938"/><text fill="#000000" font-family="sans-serif" font-size="14" lengthAdjust="spacing" textLength="195.4258" x="353.5" y="81.5889">Nombre = "Msc. Sof&#237;a Lara"</text><text fill="#000000" font-family="sans-serif" font-size="14" lengthAdjust="spacing" textLength="269.0283" x="353.5" y="97.8857">Oficina = "Decanato de Investigaci&#243;n"</text></g><g class="entity" data-entity="CTPerez" data-source-line="32" data-uid="ent0007" id="entity_CTPerez"><rect fill="#F1F1F1" height="60.8906" rx="2.5" ry="2.5" style="stroke:#181818;stroke-width:0.5;" width="219.293" x="1065.5" y="320.2969"/><text fill="#000000" font-family="sans-serif" font-size="14" lengthAdjust="spacing" textLength="134.3057" x="1107.9937" y="335.292">CT-P&#233;rez: 30 Horas</text><line style="stroke:#181818;stroke-width:0.5;" x1="1066.5" x2="1283.793" y1="340.5938" y2="340.5938"/><text fill="#000000" font-family="sans-serif" font-size="14" lengthAdjust="spacing" textLength="183.9756" x="1071.5" y="357.5889">Dedicaci&#243;n_Semanal = 30</text><text fill="#000000" font-family="sans-serif" font-size="14" lengthAdjust="spacing" textLength="207.293" x="1071.5" y="373.8857">Rol = "Investigador Principal"</text></g><g class="entity" data-entity="CTGomez" data-source-line="37" data-uid="ent0008" id="entity_CTGomez"><rect fill="#F1F1F1" height="60.8906" rx="2.5" ry="2.5" style="stroke:#181818;stroke-width:0.5;" width="222.4443" x="7" y="458.2969"/><text fill="#000000" font-family="sans-serif" font-size="14" lengthAdjust="spacing" textLength="144.5459" x="45.9492" y="473.292">CT-G&#243;mez: 15 Horas</text><line style="stroke:#181818;stroke-width:0.5;" x1="8" x2="228.4443" y1="478.5938" y2="478.5938"/><text fill="#000000" font-family="sans-serif" font-size="14" lengthAdjust="spacing" textLength="183.9756" x="13" y="495.5889">Dedicaci&#243;n_Semanal = 15</text><text fill="#000000" font-family="sans-serif" font-size="14" lengthAdjust="spacing" textLength="210.4443" x="13" y="511.8857">Rol = "Investigador Asociado"</text></g><g class="entity" data-entity="PerfPerez" data-source-line="43" data-uid="ent0009" id="entity_PerfPerez"><rect fill="#F1F1F1" height="60.8906" rx="2.5" ry="2.5" style="stroke:#181818;stroke-width:0.5;" width="301.1738" x="583.5" y="320.2969"/><text fill="#000000" font-family="sans-serif" font-size="14" lengthAdjust="spacing" textLength="71.5654" x="698.3042" y="335.292">Perf-P&#233;rez</text><line style="stroke:#181818;stroke-width:0.5;" x1="584.5" x2="883.6738" y1="340.5938" y2="340.5938"/><text fill="#000000" font-family="sans-serif" font-size="14" lengthAdjust="spacing" textLength="289.1738" x="589.5" y="357.5889">Especialidad = "Aprendizaje Autom&#225;tico"</text><text fill="#000000" font-family="sans-serif" font-size="14" lengthAdjust="spacing" textLength="133.6357" x="589.5" y="373.8857">Publicaciones = 45</text></g><g class="entity" data-entity="PerfGomez" data-source-line="48" data-uid="ent0010" id="entity_PerfGomez"><rect fill="#F1F1F1" height="60.8906" rx="2.5" ry="2.5" style="stroke:#181818;stroke-width:0.5;" width="299.2256" x="264.5" y="458.2969"/><text fill="#000000" font-family="sans-serif" font-size="14" lengthAdjust="spacing" textLength="81.8057" x="373.21" y="473.292">Perf-G&#243;mez</text><line style="stroke:#181818;stroke-width:0.5;" x1="265.5" x2="562.7256" y1="478.5938" y2="478.5938"/><text fill="#000000" font-family="sans-serif" font-size="14" lengthAdjust="spacing" textLength="287.2256" x="270.5" y="495.5889">Especialidad = "Metodolog&#237;a Cualitativa"</text><text fill="#000000" font-family="sans-serif" font-size="14" lengthAdjust="spacing" textLength="133.6357" x="270.5" y="511.8857">Publicaciones = 12</text></g><!--class IA Aplicada--><g class="entity" data-entity="IA Aplicada" data-source-line="56" data-uid="ent0011" id="entity_IA Aplicada"><rect fill="#F1F1F1" height="48" rx="2.5" ry="2.5" style="stroke:#181818;stroke-width:0.5;" width="110.1416" x="920" y="326.7969"/><ellipse cx="935" cy="342.7969" fill="#ADD1B2" rx="11" ry="11" style="stroke:#181818;stroke-width:1;"/><path d="M937.9688,348.4375 Q937.3906,348.7344 936.75,348.875 Q936.1094,349.0313 935.4063,349.0313 Q932.9063,349.0313 931.5781,347.3906 Q930.2656,345.7344 930.2656,342.6094 Q930.2656,339.4844 931.5781,337.8281 Q932.9063,336.1719 935.4063,336.1719 Q936.1094,336.1719 936.75,336.3281 Q937.4063,336.4844 937.9688,336.7813 L937.9688,339.5 Q937.3438,338.9219 936.75,338.6563 Q936.1563,338.375 935.5313,338.375 Q934.1875,338.375 933.5,339.4531 Q932.8125,340.5156 932.8125,342.6094 Q932.8125,344.7031 933.5,345.7813 Q934.1875,346.8438 935.5313,346.8438 Q936.1563,346.8438 936.75,346.5781 Q937.3438,346.2969 937.9688,345.7188 L937.9688,348.4375 Z " fill="#000000"/><text fill="#000000" font-family="sans-serif" font-size="14" lengthAdjust="spacing" textLength="78.1416" x="949" y="347.6436">IA Aplicada</text><line style="stroke:#181818;stroke-width:0.5;" x1="921" x2="1029.1416" y1="358.7969" y2="358.7969"/><line style="stroke:#181818;stroke-width:0.5;" x1="921" x2="1029.1416" y1="366.7969" y2="366.7969"/></g><!--class Educaci?n--><g class="entity" data-entity="Educaci.n" data-source-line="57" data-uid="ent0013" id="entity_Educaci.n"><rect fill="#F1F1F1" height="48" rx="2.5" ry="2.5" style="stroke:#181818;stroke-width:0.5;" width="103.9072" x="599" y="464.7969"/><ellipse cx="614" cy="480.7969" fill="#ADD1B2" rx="11" ry="11" style="stroke:#181818;stroke-width:1;"/><path d="M616.9688,486.4375 Q616.3906,486.7344 615.75,486.875 Q615.1094,487.0313 614.4063,487.0313 Q611.9063,487.0313 610.5781,485.3906 Q609.2656,483.7344 609.2656,480.6094 Q609.2656,477.4844 610.5781,475.8281 Q611.9063,474.1719 614.4063,474.1719 Q615.1094,474.1719 615.75,474.3281 Q616.4063,474.4844 616.9688,474.7813 L616.9688,477.5 Q616.3438,476.9219 615.75,476.6563 Q615.1563,476.375 614.5313,476.375 Q613.1875,476.375 612.5,477.4531 Q611.8125,478.5156 611.8125,480.6094 Q611.8125,482.7031 612.5,483.7813 Q613.1875,484.8438 614.5313,484.8438 Q615.1563,484.8438 615.75,484.5781 Q616.3438,484.2969 616.9688,483.7188 L616.9688,486.4375 Z " fill="#000000"/><text fill="#000000" font-family="sans-serif" font-size="14" lengthAdjust="spacing" textLength="71.9072" x="628" y="485.6436">Educaci&#243;n</text><line style="stroke:#181818;stroke-width:0.5;" x1="600" x2="701.9072" y1="496.7969" y2="496.7969"/><line style="stroke:#181818;stroke-width:0.5;" x1="600" x2="701.9072" y1="504.7969" y2="504.7969"/></g><!--reverse link Perez to IA Aplicada--><g class="link" data-entity-1="Perez" data-entity-2="IA Aplicada" data-source-line="56" data-uid="lnk12" id="link_Perez_IA Aplicada"><path codeLine="56" d="M796.7407,249.2046 C841.0407,274.2046 893.23,303.6569 933.98,326.6469" fill="none" id="Perez-backto-IA Aplicada" style="stroke:#181818;stroke-width:1;"/><polygon fill="none" points="786.29,243.3069,789.5495,249.7393,796.7407,249.2046,793.4812,242.7722,786.29,243.3069" style="stroke:#181818;stroke-width:1;"/><text fill="#000000" font-family="sans-serif" font-size="13" lengthAdjust="spacing" textLength="103.2065" x="870" y="286.3638">60% dedicaci&#243;n</text><text fill="#000000" font-family="sans-serif" font-size="13" lengthAdjust="spacing" textLength="57.2495" x="734.1735" y="263.2383">participa</text></g><!--reverse link Gomez to Educaci?n--><g class="link" data-entity-1="Gomez" data-entity-2="Educaci.n" data-source-line="57" data-uid="lnk14" id="link_Gomez_Educaci.n"><path codeLine="57" d="M475.8377,387.2801 C519.3977,412.2801 570.59,441.6569 610.66,464.6469" fill="none" id="Gomez-backto-Educaci&#243;n" style="stroke:#181818;stroke-width:1;"/><polygon fill="none" points="465.43,381.3069,468.6428,387.7627,475.8377,387.2801,472.6249,380.8242,465.43,381.3069" style="stroke:#181818;stroke-width:1;"/><text fill="#000000" font-family="sans-serif" font-size="13" lengthAdjust="spacing" textLength="111.4775" x="548" y="424.3638">100% dedicaci&#243;n</text><text fill="#000000" font-family="sans-serif" font-size="13" lengthAdjust="spacing" textLength="57.2495" x="413.2007" y="401.2383">participa</text></g><!--reverse link Perez to CTPerez--><g class="link" data-entity-1="Perez" data-entity-2="CTPerez" data-source-line="60" data-uid="lnk15" id="link_Perez_CTPerez"><path codeLine="60" d="M854.3387,239.0192 C898.0287,248.9992 936.94,259.0369 982,273.2969 C1024.27,286.6669 1070.47,304.8569 1107.07,320.1369" fill="none" id="Perez-backto-CTPerez" style="stroke:#181818;stroke-width:1;"/><polygon fill="none" points="842.64,236.3469,847.5986,241.5826,854.3387,239.0192,849.3801,233.7835,842.64,236.3469" style="stroke:#181818;stroke-width:1;"/><text fill="#000000" font-family="sans-serif" font-size="13" lengthAdjust="spacing" textLength="32.9443" x="851.03" y="234.5003">tiene</text></g><!--reverse link Gomez to CTGomez--><g class="link" data-entity-1="Gomez" data-entity-2="CTGomez" data-source-line="61" data-uid="lnk16" id="link_Gomez_CTGomez"><path codeLine="61" d="M338.8658,386.3167 C289.3058,409.0867 231.95,435.4369 182.36,458.2269" fill="none" id="Gomez-backto-CTGomez" style="stroke:#181818;stroke-width:1;"/><polygon fill="none" points="349.77,381.3069,342.648,380.1771,338.8658,386.3167,345.9879,387.4465,349.77,381.3069" style="stroke:#181818;stroke-width:1;"/><text fill="#000000" font-family="sans-serif" font-size="13" lengthAdjust="spacing" textLength="32.9443" x="301.3356" y="401.2383">tiene</text></g><!--reverse link Perez to PerfPerez--><g class="link" data-entity-1="Perez" data-entity-2="PerfPerez" data-source-line="64" data-uid="lnk17" id="link_Perez_PerfPerez"><path codeLine="64" d="M734,255.3069 C734,277.9669 734,297.1169 734,319.8769" fill="none" id="Perez-backto-PerfPerez" style="stroke:#181818;stroke-width:1;"/><polygon fill="#181818" points="734,243.3069,730,249.3069,734,255.3069,738,249.3069,734,243.3069" style="stroke:#181818;stroke-width:1;"/></g><!--reverse link Gomez to PerfGomez--><g class="link" data-entity-1="Gomez" data-entity-2="PerfGomez" data-source-line="65" data-uid="lnk18" id="link_Gomez_PerfGomez"><path codeLine="65" d="M414,393.3069 C414,415.9669 414,435.1169 414,457.8769" fill="none" id="Gomez-backto-PerfGomez" style="stroke:#181818;stroke-width:1;"/><polygon fill="#181818" points="414,381.3069,410,387.3069,414,393.3069,418,387.3069,414,381.3069" style="stroke:#181818;stroke-width:1;"/></g><!--link Perez to Gomez--><g class="link" data-entity-1="Perez" data-entity-2="Gomez" data-source-line="68" data-uid="lnk19" id="link_Perez_Gomez"><path codeLine="68" d="M664.56,243.3069 C610.98,266.0769 542.7118,295.0895 489.1018,317.8795" fill="none" id="Perez-to-Gomez" style="stroke:#181818;stroke-width:1;"/><polygon fill="#181818" points="483.58,320.2269,493.4276,320.387,488.1815,318.2708,490.2978,313.0247,483.58,320.2269" style="stroke:#181818;stroke-width:1;"/><text fill="#000000" font-family="sans-serif" font-size="13" lengthAdjust="spacing" textLength="86.0361" x="555.324" y="263.2383">colabora_con</text></g><!--link ProyectoIA to CTPerez--><g class="link" data-entity-1="ProyectoIA" data-entity-2="CTPerez" data-source-line="71" data-uid="lnk20" id="link_ProyectoIA_CTPerez"><path codeLine="71" d="M1175,243.3069 C1175,265.9669 1175,291.1169 1175,313.8769" fill="none" id="ProyectoIA-to-CTPerez" style="stroke:#181818;stroke-width:1;"/><polygon fill="#181818" points="1175,319.8769,1179,310.8769,1175,314.8769,1171,310.8769,1175,319.8769" style="stroke:#181818;stroke-width:1;"/><text fill="#000000" font-family="sans-serif" font-size="13" lengthAdjust="spacing" textLength="54.7866" x="1176" y="286.3638">requiere</text></g><!--link CoordinadorLara to Perez--><g class="link" data-entity-1="CoordinadorLara" data-entity-2="Perez" data-source-line="74" data-uid="lnk21" id="link_CoordinadorLara_Perez"><path codeLine="74" d="M541.38,105.3069 C582.5,128.0369 633.8486,156.4346 675.0486,179.2046" fill="none" id="CoordinadorLara-to-Perez" style="stroke:#181818;stroke-width:1;"/><polygon fill="#181818" points="680.3,182.1069,674.3578,174.2526,675.9239,179.6883,670.4881,181.2544,680.3,182.1069" style="stroke:#181818;stroke-width:1;"/><text fill="#000000" font-family="sans-serif" font-size="13" lengthAdjust="spacing" textLength="84.9761" x="627" y="148.3638">reclut&#243;_2020</text></g><!--link CoordinadorLara to Gomez--><g class="link" data-entity-1="CoordinadorLara" data-entity-2="Gomez" data-source-line="75" data-uid="lnk22" id="link_CoordinadorLara_Gomez"><path codeLine="75" d="M480.01,105.3769 C465.81,157.9669 437.8947,261.3345 423.6347,314.1245" fill="none" id="CoordinadorLara-to-Gomez" style="stroke:#181818;stroke-width:1;"/><polygon fill="#181818" points="422.07,319.9169,428.2786,312.2714,423.3739,315.0899,420.5554,310.1852,422.07,319.9169" style="stroke:#181818;stroke-width:1;"/><text fill="#000000" font-family="sans-serif" font-size="13" lengthAdjust="spacing" textLength="84.9761" x="460" y="217.3638">reclut&#243;_2022</text></g><!--SRC=[XLNDRjim3BxxAOWCmze2BjoisS702cH9scLOsw3jlM1i9b2XM9aa5rYBFSoEE_JKHyYBZPBofypfSh5DKlp8ZvyOAwoa78QLiLWL0c5WvbGiNYQYG2W99C8DbUvjM3sIiMAAfT9aakG3f6aAr-C7iif4thuggBBa_8bYVs6XDUodMNQIGryVmsZnHzDJ2z30YFWDtfsVT_a7pmd0bPgDDS5dQBdGRpLMgtXszccEskACqoiNCgocL0dIYnTi9R-I6AtjqF0OBXQlioNSXPgz0SUntGfNyGrmFK6E8mEtYX-IZ0UDYHXfzPDhK57texITjJkf8s3OXUvSChib1WQMySDGpztYnTPosPmbAQOU4hhQ2fu9ewwF0xhfN5B9vWfTlGCUOkdFTWih7bN4YQ_XDCqwEGpAki12B5whg0GsxzPmLTCZDtMfIfByz0TTPXF3dNC1KZpnLmCZFQLqoG6iZ8YKNb34fIcEuJlgGCTMiBFjpCZ7tge9ppiSOU_rnFVlHqW5LiZSRyirzDbG5keftcaSuqCyhDvT6XINmySClYgD9fHs5zJwx9N1h8VKzxSqOrJ91NpCs7MZP9ZUva8mmuAdE4SPJOI1WjPoEEb4G46d-u5EEdk0kiOfit4CNFn4o2WwaYYxq_XcJZRz-gt0uXCbbbvVSqrLoHD_8EZMLiqMlwqeb9l7g1vBNxAgo73iQITIeOFPkf7kUzFjBimbLruggQPkuBsQ7TR93vjmJjgRdWULn8Aj1r_GSAS6gEAxOfRqB8-mfA4lSAfnvbTTZoF877fME4_pHbFhsvB3l2O-vbQ4SCFLIU2hjRQqG74nhUqhdyEdx3sZhQUQXEx_ERHrHraUsSwXD-hRrdKEbbSMhGhp7o7_KimhzCZZRViXZXga50CTSPgrVfOGAzj_afyrsLTK2txNMDWQDHmKIkAOxumdv73LuifwNoXURYxV6d1hCv_jiCHBbXCdMxlOnomlV0wQVjJyDqCkJRpEzjIhgP2rnMHtdRa3cwGkPl5wptivQumCpCMHxRy0]--></g></svg>