<svg xmlns="http://www.w3.org/2000/svg" xmlns:xlink="http://www.w3.org/1999/xlink" contentStyleType="text/css" data-diagram-type="CLASS" height="796px" preserveAspectRatio="none" style="width:1196px;height:796px;background:#FFFFFF;" version="1.1" viewBox="0 0 1196 796" width="1196px" zoomAndPan="magnify"><title>Diagrama de Clases - Plataforma FUNIBER (Integrado)</title><defs/><g><g class="title" data-source-line="1"><text fill="#000000" font-family="sans-serif" font-size="14" font-weight="bold" lengthAdjust="spacing" textLength="427.8682" x="377.5552" y="22.9951">Diagrama de Clases - Plataforma FUNIBER (Integrado)</text></g><!--class Persona--><g class="entity" data-entity="Persona" data-source-line="5" data-uid="ent0002" id="entity_Persona"><rect fill="#F1F1F1" height="96.8906" rx="2.5" ry="2.5" style="stroke:#181818;stroke-width:0.5;" width="339.1133" x="205" y="44.2969"/><ellipse cx="342.2451" cy="60.2969" fill="#ADD1B2" rx="11" ry="11" style="stroke:#181818;stroke-width:1;"/><path d="M346.3545,66.2969 L338.6357,66.2969 L338.6357,53.9063 L346.3545,53.9063 L346.3545,56.0625 L341.0889,56.0625 L341.0889,58.7344 L345.8545,58.7344 L345.8545,60.8906 L341.0889,60.8906 L341.0889,64.1406 L346.3545,64.1406 L346.3545,66.2969 Z " fill="#000000"/><text fill="#000000" font-family="sans-serif" font-size="14" lengthAdjust="spacing" textLength="56.123" x="362.7451" y="65.1436">Persona</text><line style="stroke:#181818;stroke-width:0.5;" x1="206" x2="543.1133" y1="76.2969" y2="76.2969"/><ellipse cx="216" cy="89.9453" fill="none" rx="3" ry="3" style="stroke:#038048;stroke-width:1;"/><text fill="#000000" font-family="sans-serif" font-size="14" lengthAdjust="spacing" textLength="174.3711" x="225" y="93.292">id_interno : C&#243;digo &#250;nico</text><ellipse cx="216" cy="106.2422" fill="none" rx="3" ry="3" style="stroke:#038048;stroke-width:1;"/><text fill="#000000" font-family="sans-serif" font-size="14" lengthAdjust="spacing" textLength="123.8262" x="225" y="109.5889">nombre_apellidos</text><ellipse cx="216" cy="122.5391" fill="none" rx="3" ry="3" style="stroke:#038048;stroke-width:1;"/><text fill="#000000" font-family="sans-serif" font-size="14" lengthAdjust="spacing" textLength="313.1133" x="225" y="125.8857">rol_general : Docente / Investigador / Ambos</text><line style="stroke:#181818;stroke-width:0.5;" x1="206" x2="543.1133" y1="133.1875" y2="133.1875"/></g><!--class PerfilAcademico--><g class="entity" data-entity="PerfilAcademico" data-source-line="11" data-uid="ent0003" id="entity_PerfilAcademico"><rect fill="#F1F1F1" height="80.5938" rx="2.5" ry="2.5" style="stroke:#181818;stroke-width:0.5;" width="199.4756" x="7" y="218.2969"/><ellipse cx="46.6656" cy="234.2969" fill="#ADD1B2" rx="11" ry="11" style="stroke:#181818;stroke-width:1;"/><path d="M50.775,240.2969 L43.0563,240.2969 L43.0563,227.9063 L50.775,227.9063 L50.775,230.0625 L45.5094,230.0625 L45.5094,232.7344 L50.275,232.7344 L50.275,234.8906 L45.5094,234.8906 L45.5094,238.1406 L50.775,238.1406 L50.775,240.2969 Z " fill="#000000"/><text fill="#000000" font-family="sans-serif" font-size="14" lengthAdjust="spacing" textLength="112.6631" x="66.1469" y="239.1436">PerfilAcademico</text><line style="stroke:#181818;stroke-width:0.5;" x1="8" x2="205.4756" y1="250.2969" y2="250.2969"/><ellipse cx="18" cy="263.9453" fill="none" rx="3" ry="3" style="stroke:#038048;stroke-width:1;"/><text fill="#000000" font-family="sans-serif" font-size="14" lengthAdjust="spacing" textLength="133.6699" x="27" y="267.292">linea_investigacion</text><ellipse cx="18" cy="280.2422" fill="none" rx="3" ry="3" style="stroke:#038048;stroke-width:1;"/><text fill="#000000" font-family="sans-serif" font-size="14" lengthAdjust="spacing" textLength="173.4756" x="27" y="283.5889">publicaciones_cientificas</text><line style="stroke:#181818;stroke-width:0.5;" x1="8" x2="205.4756" y1="290.8906" y2="290.8906"/></g><!--class CargaDeTrabajo--><g class="entity" data-entity="CargaDeTrabajo" data-source-line="16" data-uid="ent0004" id="entity_CargaDeTrabajo"><rect fill="#F1F1F1" height="64.2969" rx="2.5" ry="2.5" style="stroke:#181818;stroke-width:0.5;" width="309.1377" x="427" y="226.7969"/><ellipse cx="520.4302" cy="242.7969" fill="#ADD1B2" rx="11" ry="11" style="stroke:#181818;stroke-width:1;"/><path d="M524.5396,248.7969 L516.8208,248.7969 L516.8208,236.4063 L524.5396,236.4063 L524.5396,238.5625 L519.2739,238.5625 L519.2739,241.2344 L524.0396,241.2344 L524.0396,243.3906 L519.2739,243.3906 L519.2739,246.6406 L524.5396,246.6406 L524.5396,248.7969 Z " fill="#000000"/><text fill="#000000" font-family="sans-serif" font-size="14" lengthAdjust="spacing" textLength="113.7773" x="540.9302" y="247.6436">CargaDeTrabajo</text><line style="stroke:#181818;stroke-width:0.5;" x1="428" x2="735.1377" y1="258.7969" y2="258.7969"/><line style="stroke:#181818;stroke-width:0.5;" x1="428" x2="735.1377" y1="266.7969" y2="266.7969"/><ellipse cx="438" cy="280.4453" fill="#84BE84" rx="3" ry="3" style="stroke:#038048;stroke-width:1;"/><text fill="#000000" font-family="sans-serif" font-size="14" lengthAdjust="spacing" textLength="283.1377" x="447" y="283.792">carga_docente_actual : Horas (Max 16h)</text></g><!--class DepartamentoProyectos--><g class="entity" data-entity="DepartamentoProyectos" data-source-line="20" data-uid="ent0005" id="entity_DepartamentoProyectos"><rect fill="#F1F1F1" height="64.2969" rx="2.5" ry="2.5" style="stroke:#181818;stroke-width:0.5;" width="202.5703" x="983" y="60.7969"/><ellipse cx="998" cy="76.7969" fill="#ADD1B2" rx="11" ry="11" style="stroke:#181818;stroke-width:1;"/><path d="M1002.1094,82.7969 L994.3906,82.7969 L994.3906,70.4063 L1002.1094,70.4063 L1002.1094,72.5625 L996.8438,72.5625 L996.8438,75.2344 L1001.6094,75.2344 L1001.6094,77.3906 L996.8438,77.3906 L996.8438,80.6406 L1002.1094,80.6406 L1002.1094,82.7969 Z " fill="#000000"/><text fill="#000000" font-family="sans-serif" font-size="14" lengthAdjust="spacing" textLength="170.5703" x="1012" y="81.6436">DepartamentoProyectos</text><line style="stroke:#181818;stroke-width:0.5;" x1="984" x2="1184.5703" y1="92.7969" y2="92.7969"/><rect fill="none" height="6" style="stroke:#C82930;stroke-width:1;" width="6" x="991" y="103.4453"/><text fill="#000000" font-family="sans-serif" font-size="14" lengthAdjust="spacing" textLength="109.3203" x="1003" y="109.792">nombre_unidad</text><line style="stroke:#181818;stroke-width:0.5;" x1="984" x2="1184.5703" y1="117.0938" y2="117.0938"/></g><!--class Antena--><g class="entity" data-entity="Antena" data-source-line="25" data-uid="ent0006" id="entity_Antena"><rect fill="#F1F1F1" height="80.5938" rx="2.5" ry="2.5" style="stroke:#181818;stroke-width:0.5;" width="140.0166" x="771.5" y="218.2969"/><ellipse cx="812.6053" cy="234.2969" fill="#ADD1B2" rx="11" ry="11" style="stroke:#181818;stroke-width:1;"/><path d="M816.7146,240.2969 L808.9959,240.2969 L808.9959,227.9063 L816.7146,227.9063 L816.7146,230.0625 L811.449,230.0625 L811.449,232.7344 L816.2146,232.7344 L816.2146,234.8906 L811.449,234.8906 L811.449,238.1406 L816.7146,238.1406 L816.7146,240.2969 Z " fill="#000000"/><text fill="#000000" font-family="sans-serif" font-size="14" lengthAdjust="spacing" textLength="50.0049" x="832.4064" y="239.1436">Antena</text><line style="stroke:#181818;stroke-width:0.5;" x1="772.5" x2="910.5166" y1="250.2969" y2="250.2969"/><ellipse cx="782.5" cy="263.9453" fill="none" rx="3" ry="3" style="stroke:#038048;stroke-width:1;"/><text fill="#000000" font-family="sans-serif" font-size="14" lengthAdjust="spacing" textLength="114.0166" x="791.5" y="267.292">fecha_deteccion</text><ellipse cx="782.5" cy="280.2422" fill="none" rx="3" ry="3" style="stroke:#038048;stroke-width:1;"/><text fill="#000000" font-family="sans-serif" font-size="14" lengthAdjust="spacing" textLength="100.9121" x="791.5" y="283.5889">observaciones</text><line style="stroke:#181818;stroke-width:0.5;" x1="772.5" x2="910.5166" y1="290.8906" y2="290.8906"/></g><!--class Convocatoria--><g class="entity" data-entity="Convocatoria" data-source-line="31" data-uid="ent0007" id="entity_Convocatoria"><rect fill="#F1F1F1" height="80.5938" rx="2.5" ry="2.5" style="stroke:#181818;stroke-width:0.5;" width="124.6201" x="947" y="218.2969"/><ellipse cx="962" cy="234.2969" fill="#ADD1B2" rx="11" ry="11" style="stroke:#181818;stroke-width:1;"/><path d="M966.1094,240.2969 L958.3906,240.2969 L958.3906,227.9063 L966.1094,227.9063 L966.1094,230.0625 L960.8438,230.0625 L960.8438,232.7344 L965.6094,232.7344 L965.6094,234.8906 L960.8438,234.8906 L960.8438,238.1406 L966.1094,238.1406 L966.1094,240.2969 Z " fill="#000000"/><text fill="#000000" font-family="sans-serif" font-size="14" lengthAdjust="spacing" textLength="92.6201" x="976" y="239.1436">Convocatoria</text><line style="stroke:#181818;stroke-width:0.5;" x1="948" x2="1070.6201" y1="250.2969" y2="250.2969"/><ellipse cx="958" cy="263.9453" fill="none" rx="3" ry="3" style="stroke:#038048;stroke-width:1;"/><text fill="#000000" font-family="sans-serif" font-size="14" lengthAdjust="spacing" textLength="54.332" x="967" y="267.292">nombre</text><ellipse cx="958" cy="280.2422" fill="none" rx="3" ry="3" style="stroke:#038048;stroke-width:1;"/><text fill="#000000" font-family="sans-serif" font-size="14" lengthAdjust="spacing" textLength="90.9727" x="967" y="283.5889">plazos_limite</text><line style="stroke:#181818;stroke-width:0.5;" x1="948" x2="1070.6201" y1="290.8906" y2="290.8906"/></g><!--class Propuesta--><g class="entity" data-entity="Propuesta" data-source-line="36" data-uid="ent0008" id="entity_Propuesta"><rect fill="#F1F1F1" height="80.5938" rx="2.5" ry="2.5" style="stroke:#181818;stroke-width:0.5;" width="243.8545" x="719.5" y="376.2969"/><ellipse cx="801.9277" cy="392.2969" fill="#ADD1B2" rx="11" ry="11" style="stroke:#181818;stroke-width:1;"/><path d="M806.0371,398.2969 L798.3184,398.2969 L798.3184,385.9063 L806.0371,385.9063 L806.0371,388.0625 L800.7715,388.0625 L800.7715,390.7344 L805.5371,390.7344 L805.5371,392.8906 L800.7715,392.8906 L800.7715,396.1406 L806.0371,396.1406 L806.0371,398.2969 Z " fill="#000000"/><text fill="#000000" font-family="sans-serif" font-size="14" lengthAdjust="spacing" textLength="70.499" x="822.4277" y="397.1436">Propuesta</text><line style="stroke:#181818;stroke-width:0.5;" x1="720.5" x2="962.3545" y1="408.2969" y2="408.2969"/><ellipse cx="730.5" cy="421.9453" fill="none" rx="3" ry="3" style="stroke:#038048;stroke-width:1;"/><text fill="#000000" font-family="sans-serif" font-size="14" lengthAdjust="spacing" textLength="36.1963" x="739.5" y="425.292">titulo</text><ellipse cx="730.5" cy="438.2422" fill="none" rx="3" ry="3" style="stroke:#038048;stroke-width:1;"/><text fill="#000000" font-family="sans-serif" font-size="14" lengthAdjust="spacing" textLength="217.8545" x="739.5" y="441.5889">estado : Aceptada / Rechazada</text><line style="stroke:#181818;stroke-width:0.5;" x1="720.5" x2="962.3545" y1="448.8906" y2="448.8906"/></g><!--class Proyecto--><g class="entity" data-entity="Proyecto" data-source-line="41" data-uid="ent0009" id="entity_Proyecto"><rect fill="#F1F1F1" height="80.5938" rx="2.5" ry="2.5" style="stroke:#181818;stroke-width:0.5;" width="214.7197" x="734" y="534.2969"/><ellipse cx="806.4028" cy="550.2969" fill="#ADD1B2" rx="11" ry="11" style="stroke:#181818;stroke-width:1;"/><path d="M810.5122,556.2969 L802.7935,556.2969 L802.7935,543.9063 L810.5122,543.9063 L810.5122,546.0625 L805.2466,546.0625 L805.2466,548.7344 L810.0122,548.7344 L810.0122,550.8906 L805.2466,550.8906 L805.2466,554.1406 L810.5122,554.1406 L810.5122,556.2969 Z " fill="#000000"/><text fill="#000000" font-family="sans-serif" font-size="14" lengthAdjust="spacing" textLength="61.4141" x="826.9028" y="555.1436">Proyecto</text><line style="stroke:#181818;stroke-width:0.5;" x1="735" x2="947.7197" y1="566.2969" y2="566.2969"/><ellipse cx="745" cy="579.9453" fill="none" rx="3" ry="3" style="stroke:#038048;stroke-width:1;"/><text fill="#000000" font-family="sans-serif" font-size="14" lengthAdjust="spacing" textLength="146.1729" x="754" y="583.292">importe_financiacion</text><ellipse cx="745" cy="596.2422" fill="none" rx="3" ry="3" style="stroke:#038048;stroke-width:1;"/><text fill="#000000" font-family="sans-serif" font-size="14" lengthAdjust="spacing" textLength="188.7197" x="754" y="599.5889">estado : Activo / Finalizado</text><line style="stroke:#181818;stroke-width:0.5;" x1="735" x2="947.7197" y1="606.8906" y2="606.8906"/></g><!--class Entregable--><g class="entity" data-entity="Entregable" data-source-line="46" data-uid="ent0010" id="entity_Entregable"><rect fill="#F1F1F1" height="64.2969" rx="2.5" ry="2.5" style="stroke:#181818;stroke-width:0.5;" width="188.5996" x="747" y="708.7969"/><ellipse cx="798.8335" cy="724.7969" fill="#ADD1B2" rx="11" ry="11" style="stroke:#181818;stroke-width:1;"/><path d="M802.9429,730.7969 L795.2241,730.7969 L795.2241,718.4063 L802.9429,718.4063 L802.9429,720.5625 L797.6772,720.5625 L797.6772,723.2344 L802.4429,723.2344 L802.4429,725.3906 L797.6772,725.3906 L797.6772,728.6406 L802.9429,728.6406 L802.9429,730.7969 Z " fill="#000000"/><text fill="#000000" font-family="sans-serif" font-size="14" lengthAdjust="spacing" textLength="76.4326" x="819.3335" y="729.6436">Entregable</text><line style="stroke:#181818;stroke-width:0.5;" x1="748" x2="934.5996" y1="740.7969" y2="740.7969"/><line style="stroke:#181818;stroke-width:0.5;" x1="748" x2="934.5996" y1="748.7969" y2="748.7969"/><ellipse cx="758" cy="762.4453" fill="#84BE84" rx="3" ry="3" style="stroke:#038048;stroke-width:1;"/><text fill="#000000" font-family="sans-serif" font-size="14" lengthAdjust="spacing" textLength="162.5996" x="767" y="765.792">fecha_limite (Deadline)</text></g><!--class Compensacion--><g class="entity" data-entity="Compensacion" data-source-line="50" data-uid="ent0011" id="entity_Compensacion"><rect fill="#F1F1F1" height="64.2969" rx="2.5" ry="2.5" style="stroke:#181818;stroke-width:0.5;" width="285.3418" x="118" y="708.7969"/><ellipse cx="204.7959" cy="724.7969" fill="#ADD1B2" rx="11" ry="11" style="stroke:#181818;stroke-width:1;"/><path d="M208.9053,730.7969 L201.1865,730.7969 L201.1865,718.4063 L208.9053,718.4063 L208.9053,720.5625 L203.6396,720.5625 L203.6396,723.2344 L208.4053,723.2344 L208.4053,725.3906 L203.6396,725.3906 L203.6396,728.6406 L208.9053,728.6406 L208.9053,730.7969 Z " fill="#000000"/><text fill="#000000" font-family="sans-serif" font-size="14" lengthAdjust="spacing" textLength="103.25" x="225.2959" y="729.6436">Compensacion</text><line style="stroke:#181818;stroke-width:0.5;" x1="119" x2="402.3418" y1="740.7969" y2="740.7969"/><ellipse cx="129" cy="754.4453" fill="none" rx="3" ry="3" style="stroke:#038048;stroke-width:1;"/><text fill="#000000" font-family="sans-serif" font-size="14" lengthAdjust="spacing" textLength="259.3418" x="138" y="757.792">tipo : Econ&#243;mica / Reducci&#243;n Horaria</text><line style="stroke:#181818;stroke-width:0.5;" x1="119" x2="402.3418" y1="765.0938" y2="765.0938"/></g><!--class RolProyecto--><g class="entity" data-entity="RolProyecto" data-source-line="54" data-uid="ent0012" id="entity_RolProyecto"><rect fill="#F1F1F1" height="64.2969" rx="2.5" ry="2.5" style="stroke:#181818;stroke-width:0.5;" width="269.5098" x="439.5" y="708.7969"/><ellipse cx="528.2065" cy="724.7969" fill="#ADD1B2" rx="11" ry="11" style="stroke:#181818;stroke-width:1;"/><path d="M532.3159,730.7969 L524.5972,730.7969 L524.5972,718.4063 L532.3159,718.4063 L532.3159,720.5625 L527.0503,720.5625 L527.0503,723.2344 L531.8159,723.2344 L531.8159,725.3906 L527.0503,725.3906 L527.0503,728.6406 L532.3159,728.6406 L532.3159,730.7969 Z " fill="#000000"/><text fill="#000000" font-family="sans-serif" font-size="14" lengthAdjust="spacing" textLength="83.5967" x="548.7065" y="729.6436">RolProyecto</text><line style="stroke:#181818;stroke-width:0.5;" x1="440.5" x2="708.0098" y1="740.7969" y2="740.7969"/><ellipse cx="450.5" cy="754.4453" fill="none" rx="3" ry="3" style="stroke:#038048;stroke-width:1;"/><text fill="#000000" font-family="sans-serif" font-size="14" lengthAdjust="spacing" textLength="243.5098" x="459.5" y="757.792">rol : Principal / Asociado / Finanzas</text><line style="stroke:#181818;stroke-width:0.5;" x1="440.5" x2="708.0098" y1="765.0938" y2="765.0938"/></g><!--class Colaborador--><g class="entity" data-entity="Colaborador" data-source-line="58" data-uid="ent0013" id="entity_Colaborador"><rect fill="#F1F1F1" height="96.8906" rx="2.5" ry="2.5" style="stroke:#181818;stroke-width:0.5;" width="218.9785" x="971" y="692.2969"/><ellipse cx="1033.3369" cy="708.2969" fill="#ADD1B2" rx="11" ry="11" style="stroke:#181818;stroke-width:1;"/><path d="M1037.4463,714.2969 L1029.7275,714.2969 L1029.7275,701.9063 L1037.4463,701.9063 L1037.4463,704.0625 L1032.1807,704.0625 L1032.1807,706.7344 L1036.9463,706.7344 L1036.9463,708.8906 L1032.1807,708.8906 L1032.1807,712.1406 L1037.4463,712.1406 L1037.4463,714.2969 Z " fill="#000000"/><text fill="#000000" font-family="sans-serif" font-size="14" lengthAdjust="spacing" textLength="85.8047" x="1053.8369" y="713.1436">Colaborador</text><line style="stroke:#181818;stroke-width:0.5;" x1="972" x2="1188.9785" y1="724.2969" y2="724.2969"/><ellipse cx="982" cy="737.9453" fill="none" rx="3" ry="3" style="stroke:#038048;stroke-width:1;"/><text fill="#000000" font-family="sans-serif" font-size="14" lengthAdjust="spacing" textLength="54.332" x="991" y="741.292">nombre</text><ellipse cx="982" cy="754.2422" fill="none" rx="3" ry="3" style="stroke:#038048;stroke-width:1;"/><text fill="#000000" font-family="sans-serif" font-size="14" lengthAdjust="spacing" textLength="33.4072" x="991" y="757.5889">sede</text><line style="stroke:#181818;stroke-width:0.5;" x1="972" x2="1188.9785" y1="764.8906" y2="764.8906"/><ellipse cx="982" cy="778.5391" fill="#84BE84" rx="3" ry="3" style="stroke:#038048;stroke-width:1;"/><text fill="#000000" font-family="sans-serif" font-size="14" lengthAdjust="spacing" textLength="192.9785" x="991" y="781.8857">sin_acceso : Boolean (True)</text></g><!--link Persona to PerfilAcademico--><g class="link" data-entity-1="Persona" data-entity-2="PerfilAcademico" data-source-line="66" data-uid="lnk14" id="link_Persona_PerfilAcademico"><path codeLine="66" d="M249.43,141.4769 C231.11,150.3669 212.9,160.3569 196.5,171.2969 C176.85,184.4069 157.61,202.0269 142.01,217.9469" fill="none" id="Persona-PerfilAcademico" style="stroke:#181818;stroke-width:1;"/><text fill="#000000" font-family="sans-serif" font-size="13" lengthAdjust="spacing" textLength="35.7881" x="197.5" y="184.3638">Tiene</text><text fill="#000000" font-family="sans-serif" font-size="13" lengthAdjust="spacing" textLength="8.271" x="224.0968" y="161.1092">1</text><text fill="#000000" font-family="sans-serif" font-size="13" lengthAdjust="spacing" textLength="8.271" x="139.0156" y="207.3509">1</text></g><!--link Persona to CargaDeTrabajo--><g class="link" data-entity-1="Persona" data-entity-2="CargaDeTrabajo" data-source-line="67" data-uid="lnk15" id="link_Persona_CargaDeTrabajo"><path codeLine="67" d="M434.65,141.4569 C469.27,168.8769 511.78,202.5569 542.14,226.6169" fill="none" id="Persona-CargaDeTrabajo" style="stroke:#181818;stroke-width:1;"/><text fill="#000000" font-family="sans-serif" font-size="13" lengthAdjust="spacing" textLength="35.7881" x="491.5" y="184.3638">Tiene</text><text fill="#000000" font-family="sans-serif" font-size="13" lengthAdjust="spacing" textLength="8.271" x="434.2058" y="161.0865">1</text><text fill="#000000" font-family="sans-serif" font-size="13" lengthAdjust="spacing" textLength="24.8066" x="507.616" y="215.4829">0..1</text></g><!--link Persona to Antena--><g class="link" data-entity-1="Persona" data-entity-2="Antena" data-source-line="70" data-uid="lnk16" id="link_Persona_Antena"><path codeLine="70" d="M531.61,141.3469 C600.31,163.1869 681.49,190.3969 753.5,218.2969 C759.28,220.5369 765.22,222.9569 771.17,225.4469" fill="none" id="Persona-Antena" style="stroke:#181818;stroke-width:1;"/><text fill="#000000" font-family="sans-serif" font-size="13" lengthAdjust="spacing" textLength="14.9868" x="673.5" y="184.3638">Es</text><text fill="#000000" font-family="sans-serif" font-size="13" lengthAdjust="spacing" textLength="8.271" x="545.1522" y="161.3128">1</text><text fill="#000000" font-family="sans-serif" font-size="13" lengthAdjust="spacing" textLength="23.0356" x="740.3715" y="218.6459">0..*</text></g><!--link Antena to Propuesta--><g class="link" data-entity-1="Antena" data-entity-2="Propuesta" data-source-line="71" data-uid="lnk17" id="link_Antena_Propuesta"><path codeLine="71" d="M841.5,299.5669 C841.5,323.0369 841.5,352.6469 841.5,376.0969" fill="none" id="Antena-Propuesta" style="stroke:#181818;stroke-width:1;"/><text fill="#000000" font-family="sans-serif" font-size="13" lengthAdjust="spacing" textLength="57.2559" x="842.5" y="342.3638">Presenta</text><text fill="#000000" font-family="sans-serif" font-size="13" lengthAdjust="spacing" textLength="8.271" x="832.907" y="319.0664">1</text><text fill="#000000" font-family="sans-serif" font-size="13" lengthAdjust="spacing" textLength="8.271" x="832.872" y="365.2253">1</text></g><!--link Convocatoria to Propuesta--><g class="link" data-entity-1="Convocatoria" data-entity-2="Propuesta" data-source-line="74" data-uid="lnk18" id="link_Convocatoria_Propuesta"><path codeLine="74" d="M966.67,299.5669 C941.4,323.0369 909.51,352.6469 884.25,376.0969" fill="none" id="Convocatoria-Propuesta" style="stroke:#181818;stroke-width:1;"/><text fill="#000000" font-family="sans-serif" font-size="13" lengthAdjust="spacing" textLength="47.2583" x="931.5" y="342.3638">Origina</text><text fill="#000000" font-family="sans-serif" font-size="13" lengthAdjust="spacing" textLength="8.271" x="951.549" y="319.0664">1</text><text fill="#000000" font-family="sans-serif" font-size="13" lengthAdjust="spacing" textLength="23.0356" x="866.4408" y="365.2253">0..*</text></g><!--link Propuesta to Proyecto--><g class="link" data-entity-1="Propuesta" data-entity-2="Proyecto" data-source-line="75" data-uid="lnk19" id="link_Propuesta_Proyecto"><path codeLine="75" d="M841.5,457.5669 C841.5,481.0369 841.5,510.6469 841.5,534.0969" fill="none" id="Propuesta-Proyecto" style="stroke:#181818;stroke-width:1;"/><text fill="#000000" font-family="sans-serif" font-size="13" lengthAdjust="spacing" textLength="216.7153" x="842.5" y="500.3638">Se convierte en (al ser aceptada)</text><text fill="#000000" font-family="sans-serif" font-size="13" lengthAdjust="spacing" textLength="8.271" x="832.9194" y="477.0664">1</text><text fill="#000000" font-family="sans-serif" font-size="13" lengthAdjust="spacing" textLength="24.8066" x="815.6025" y="523.2253">0..1</text></g><!--link Persona to RolProyecto--><g class="link" data-entity-1="Persona" data-entity-2="RolProyecto" data-source-line="78" data-uid="lnk20" id="link_Persona_RolProyecto"><path codeLine="78" d="M371.92,141.5669 C368.58,244.6069 372.77,492.1769 475.5,662.2969 C486.61,680.7069 503.83,696.4169 520.81,708.7869" fill="none" id="Persona-RolProyecto" style="stroke:#181818;stroke-width:1;"/><text fill="#000000" font-family="sans-serif" font-size="13" lengthAdjust="spacing" textLength="44.5669" x="399.5" y="421.3638">Asume</text><text fill="#000000" font-family="sans-serif" font-size="13" lengthAdjust="spacing" textLength="8.271" x="363.0464" y="161.2113">1</text><text fill="#000000" font-family="sans-serif" font-size="13" lengthAdjust="spacing" textLength="23.0356" x="484.4188" y="697.6879">0..*</text></g><!--link Proyecto to RolProyecto--><g class="link" data-entity-1="Proyecto" data-entity-2="RolProyecto" data-source-line="79" data-uid="lnk21" id="link_Proyecto_RolProyecto"><path codeLine="79" d="M733.79,585.8569 C689.46,595.0669 640.61,612.4869 606.5,645.2969 C589.27,661.8669 581.32,688.0369 577.65,708.6369" fill="none" id="Proyecto-RolProyecto" style="stroke:#181818;stroke-width:1;"/><text fill="#000000" font-family="sans-serif" font-size="13" lengthAdjust="spacing" textLength="225.3989" x="607.5" y="658.3638">Requiere (m&#237;nimo un responsable)</text><text fill="#000000" font-family="sans-serif" font-size="13" lengthAdjust="spacing" textLength="8.271" x="717.6065" y="583.205">1</text><text fill="#000000" font-family="sans-serif" font-size="13" lengthAdjust="spacing" textLength="23.0356" x="552.982" y="697.507">1..*</text></g><!--link Proyecto to Colaborador--><g class="link" data-entity-1="Proyecto" data-entity-2="Colaborador" data-source-line="82" data-uid="lnk22" id="link_Proyecto_Colaborador"><path codeLine="82" d="M899.36,615.4969 C933.06,638.6269 975.78,667.9369 1011.27,692.2969" fill="none" id="Proyecto-Colaborador" style="stroke:#181818;stroke-width:1;"/><text fill="#000000" font-family="sans-serif" font-size="13" lengthAdjust="spacing" textLength="46.7632" x="961.5" y="658.3638">Incluye</text><text fill="#000000" font-family="sans-serif" font-size="13" lengthAdjust="spacing" textLength="8.271" x="899.6495" y="634.9857">1</text><text fill="#000000" font-family="sans-serif" font-size="13" lengthAdjust="spacing" textLength="23.0356" x="976.417" y="681.1566">0..*</text></g><!--link Proyecto to Entregable--><g class="link" data-entity-1="Proyecto" data-entity-2="Entregable" data-source-line="85" data-uid="lnk23" id="link_Proyecto_Entregable"><path codeLine="85" d="M841.5,615.4969 C841.5,644.1269 841.5,682.2269 841.5,708.6669" fill="none" id="Proyecto-Entregable" style="stroke:#181818;stroke-width:1;"/><text fill="#000000" font-family="sans-serif" font-size="13" lengthAdjust="spacing" textLength="42.4341" x="842.5" y="658.3638">Define</text><text fill="#000000" font-family="sans-serif" font-size="13" lengthAdjust="spacing" textLength="8.271" x="832.9297" y="634.9857">1</text><text fill="#000000" font-family="sans-serif" font-size="13" lengthAdjust="spacing" textLength="23.0356" x="816.1731" y="697.5432">1..*</text></g><!--link Proyecto to Compensacion--><g class="link" data-entity-1="Proyecto" data-entity-2="Compensacion" data-source-line="86" data-uid="lnk24" id="link_Proyecto_Compensacion"><path codeLine="86" d="M733.87,597.4169 C675.16,609.9369 601.41,626.8469 536.5,645.2969 C470.98,663.9269 398.12,689.0669 343.72,708.7269" fill="none" id="Proyecto-Compensacion" style="stroke:#181818;stroke-width:1;"/><text fill="#000000" font-family="sans-serif" font-size="13" lengthAdjust="spacing" textLength="47.6201" x="537.5" y="658.3638">Genera</text><text fill="#000000" font-family="sans-serif" font-size="13" lengthAdjust="spacing" textLength="8.271" x="717.6924" y="611.7155">1</text><text fill="#000000" font-family="sans-serif" font-size="13" lengthAdjust="spacing" textLength="23.0356" x="335.4807" y="697.6155">0..*</text></g><!--link Persona to Compensacion--><g class="link" data-entity-1="Persona" data-entity-2="Compensacion" data-source-line="87" data-uid="lnk25" id="link_Persona_Compensacion"><path codeLine="87" d="M318.01,141.3669 C288.93,171.3269 259.5,212.7669 259.5,257.7969 C259.5,257.7969 259.5,257.7969 259.5,575.7969 C259.5,622.0669 259.9,675.6769 260.2,708.6669" fill="none" id="Persona-Compensacion" style="stroke:#181818;stroke-width:1;"/><text fill="#000000" font-family="sans-serif" font-size="13" lengthAdjust="spacing" textLength="44.04" x="260.5" y="421.3638">Recibe</text><text fill="#000000" font-family="sans-serif" font-size="13" lengthAdjust="spacing" textLength="8.271" x="301.5147" y="161.3356">1</text><text fill="#000000" font-family="sans-serif" font-size="13" lengthAdjust="spacing" textLength="23.0356" x="234.7347" y="697.5432">0..*</text></g><!--link DepartamentoProyectos to Convocatoria--><g class="link" data-entity-1="DepartamentoProyectos" data-entity-2="Convocatoria" data-source-line="90" data-uid="lnk26" id="link_DepartamentoProyectos_Convocatoria"><path codeLine="90" d="M1065.26,124.8269 C1057.05,138.7469 1047.73,155.5469 1040.5,171.2969 C1033.65,186.2269 1027.29,203.1469 1022.14,218.0369" fill="none" id="DepartamentoProyectos-Convocatoria" style="stroke:#181818;stroke-width:1;"/><text fill="#000000" font-family="sans-serif" font-size="13" lengthAdjust="spacing" textLength="57.7129" x="1041.5" y="184.3638">Gestiona</text><text fill="#000000" font-family="sans-serif" font-size="13" lengthAdjust="spacing" textLength="8.271" x="1052.539" y="145.0299">1</text><text fill="#000000" font-family="sans-serif" font-size="13" lengthAdjust="spacing" textLength="23.0356" x="999.3632" y="207.1553">0..*</text></g><!--link DepartamentoProyectos to Proyecto--><g class="link" data-entity-1="DepartamentoProyectos" data-entity-2="Proyecto" data-source-line="91" data-uid="lnk27" id="link_DepartamentoProyectos_Proyecto"><path codeLine="91" d="M1094.51,124.9669 C1116.49,200.0469 1160,392.8969 1067.5,504.2969 C1038.46,539.2769 992.25,556.9969 949.16,565.8469" fill="none" id="DepartamentoProyectos-Proyecto" style="stroke:#181818;stroke-width:1;"/><text fill="#000000" font-family="sans-serif" font-size="13" lengthAdjust="spacing" textLength="64.1304" x="1124.5" y="342.3638">Supervisa</text><text fill="#000000" font-family="sans-serif" font-size="13" lengthAdjust="spacing" textLength="8.271" x="1087.8218" y="145.1988">1</text><text fill="#000000" font-family="sans-serif" font-size="13" lengthAdjust="spacing" textLength="23.0356" x="956.8038" y="561.8772">0..*</text></g><!--SRC=[ZLMnSkCs4Etv5Jjk9ELYNwv9eKv7qObcT9P6iekhD12vrY410GO0DMTdyWdt8IbIkKkh7yi3ALAGpfw96uChxDktksyNNdh5D9LYPqKfg61AbN3iw9gMIdZnQ2pCjmztiu_PYeOpxHat2pDAtEzILm9UvFmJC9otClT9Cg19UhzOPUlt3-k7oMgsMDDmoTOPBSWobvKIpu84FRXQM0aWrbxw9-hk_9aG_jwHB3OIqQmsDARqy5B8dQ73lrhcvdX3ct9hUICgLaeMnXtDrgZDZZLReU0vDJa2CBsdcTwpyt87zXQVat8Bbx-IAFwZL9DS55mYHiz3ISq2L8xEkJJw-4jLRvNC6mkxJIu3q2CCCMegx4vC-TwAhVZj19e7ywPekMr4xkk6xA_62aV3J-8hVVZvooZ2cJ9gxKM9JxEqvebpRzmHxhghHArb8OhWDQ3LOaxPUfcbXs-titH1qsnEqyMdsTriqM5E43ig-2FdNy29FUTHacRhsEwFIRRGwIoT1q1QhXQVCpHxtMThzDxamXihJxWjkQvcwBvn6oLBwJcklZLLZGgVt62kLTVgy4iHX339kS9He86hmFSPvtEOfZGd5PMLiIZnezH2vp9kNuJfvTu0yHQNb0IaYI0pxItln1OIFwzKcmCDfooA89AuNQafAzQk2HTbL8LmMMxquGKQQvCeQfJxyAARvgDk4ShAgEyIWhg1iRGIsLGG3OJi318hkWJqyxa0ZH9ROnlHlzeHnqL_b1fQpDa5cX-DKImq3UzjtUO6KMNpIJfRt6Lh6k1pobueXMM1jQ54Fy63f3jTVRYYw-lct-LuZUaU0yFVNVtfvWQdYx7fBYFcN7IwxRRAY2hB3kaAgc4-AMdm6lWFLvq_Ek6Iupacslk7ChV08V2jgi6aO7KIsI0v4_nvb1XdOUKEhKbEjlDqUyGnhPcWZxrag9OOvKUFCO4aZi8VDNqmeUgGEtQ233fe5VHMmh6E87TNbvpqXZxrLwwk-8yQJ23oyl2FbgL1XR74NMMWRKn4GoPI64WD-Mkpj1sPe2TgzJGAt2uZjkHYWOwnf7DLFpMTNlEkneY5ZOTKK_00aS5RnACnnT9dp3k_7J4QpZ7zqhmLRvJkuYvsZjmsxC9BQCLnT8CgffKtDs4IJkjvaBo-jYz3H1eATF3EWCZ_yes5KrTOrD89aCj0PqdmtSh3tnhwKUrEnxkhZlB_CQp6y7nfR0xH6qyAxL_ac_y0]--></g></svg>