<svg xmlns="http://www.w3.org/2000/svg" xmlns:xlink="http://www.w3.org/1999/xlink" contentStyleType="text/css" data-diagram-type="STATE" height="846px" preserveAspectRatio="none" style="width:617px;height:846px;background:#FFFFFF;" version="1.1" viewBox="0 0 617 846" width="617px" zoomAndPan="magnify"><defs/><g><path d="M19.5,7 L591.5,7 A12.5,12.5 0 0 1 604,19.5 L604,33.2969 L7,33.2969 L7,19.5 A12.5,12.5 0 0 1 19.5,7" fill="#F1F1F1"/><rect fill="none" height="688.2969" rx="12.5" ry="12.5" style="stroke:#181818;stroke-width:0.5;" width="597" x="7" y="7"/><line style="stroke:#181818;stroke-width:0.5;" x1="7" x2="604" y1="33.2969" y2="33.2969"/><text fill="#000000" font-family="sans-serif" font-size="14" lengthAdjust="spacing" textLength="128.5703" x="241.2148" y="24.9951">editarEntregable()</text><g id="editarEntregable.MostrandoEntregable"><rect fill="#F1F1F1" height="50" rx="12.5" ry="12.5" style="stroke:#181818;stroke-width:0.5;" width="50" x="156" y="135.2969"/><line style="stroke:#181818;stroke-width:0.5;" x1="156" x2="206" y1="161.5938" y2="161.5938"/><text fill="#000000" font-family="sans-serif" font-size="14" lengthAdjust="spacing" textLength="4.4502" x="178.7749" y="153.292">&#160;</text></g><g id="editarEntregable.EditandoEntregable"><rect fill="#F1F1F1" height="50" rx="12.5" ry="12.5" style="stroke:#181818;stroke-width:0.5;" width="50" x="156" y="316.2969"/><line style="stroke:#181818;stroke-width:0.5;" x1="156" x2="206" y1="342.5938" y2="342.5938"/><text fill="#000000" font-family="sans-serif" font-size="14" lengthAdjust="spacing" textLength="4.4502" x="178.7749" y="334.292">&#160;</text></g><g id="editarEntregable.ValidandoCambios"><rect fill="#F1F1F1" height="50" rx="12.5" ry="12.5" style="stroke:#181818;stroke-width:0.5;" width="50" x="156" y="497.2969"/><line style="stroke:#181818;stroke-width:0.5;" x1="156" x2="206" y1="523.5938" y2="523.5938"/><text fill="#000000" font-family="sans-serif" font-size="14" lengthAdjust="spacing" textLength="4.4502" x="178.7749" y="515.292">&#160;</text></g><ellipse cx="181" cy="54.2969" fill="#222222" rx="10" ry="10" style="stroke:#222222;stroke-width:1;"/><ellipse cx="181" cy="674.2969" fill="none" rx="11" ry="11" style="stroke:#222222;stroke-width:1;"/><ellipse cx="181" cy="674.2969" fill="#222222" rx="6" ry="6" style="stroke:#222222;stroke-width:1;"/><!--link *start*editarEntregable to MostrandoEntregable--><g class="link" data-entity-1=".start.editarEntregable" data-entity-2="MostrandoEntregable" data-source-line="9" data-uid="lnk3" id="link_.start.editarEntregable_MostrandoEntregable"><path d="M181,64.5269 C181,80.2369 181,106.6569 181,129.1669" fill="none" id="*start*editarEntregable-to-MostrandoEntregable" style="stroke:#008000;stroke-width:1;"/><polygon fill="#008000" points="181,135.1669,185,126.1669,181,130.1669,177,126.1669,181,135.1669" style="stroke:#008000;stroke-width:1;"/><path d="M186,87.2969 L186,112.2969 L457,112.2969 L457,97.2969 L447,87.2969 L186,87.2969" fill="#FEFFDD" style="stroke:#181818;stroke-width:0.5;"/><path d="M447,87.2969 L447,97.2969 L457,97.2969 L447,87.2969" fill="#FEFFDD" style="stroke:#181818;stroke-width:0.5;"/><text fill="#000000" font-family="sans-serif" font-size="13" font-weight="bold" lengthAdjust="spacing" textLength="83.7002" x="192" y="104.3638">Invstigador</text><text fill="#000000" font-family="sans-serif" font-size="13" lengthAdjust="spacing" textLength="163.0649" x="279.8325" y="104.3638">solicita editar entregable</text></g><!--link MostrandoEntregable to EditandoEntregable--><g class="link" data-entity-1="MostrandoEntregable" data-entity-2="EditandoEntregable" data-source-line="14" data-uid="lnk4" id="link_MostrandoEntregable_EditandoEntregable"><path d="M181,185.4369 C181,219.6969 181,276.0469 181,310.2569" fill="none" id="MostrandoEntregable-to-EditandoEntregable" style="stroke:#008000;stroke-width:1;"/><polygon fill="#008000" points="181,316.2569,185,307.2569,181,311.2569,177,307.2569,181,316.2569" style="stroke:#008000;stroke-width:1;"/><path d="M186,208.2969 L186,293.2969 L525,293.2969 L525,218.2969 L515,208.2969 L186,208.2969" fill="#FEFFDD" style="stroke:#181818;stroke-width:0.5;"/><path d="M515,208.2969 L515,218.2969 L525,218.2969 L515,208.2969" fill="#FEFFDD" style="stroke:#181818;stroke-width:0.5;"/><text fill="#000000" font-family="sans-serif" font-size="13" font-weight="bold" lengthAdjust="spacing" textLength="58.9063" x="192" y="225.3638">Sistema</text><text fill="#000000" font-family="sans-serif" font-size="13" lengthAdjust="spacing" textLength="255.6582" x="255.0386" y="225.3638">presenta datos actuales del entregable</text><text fill="#000000" font-family="sans-serif" font-size="13" lengthAdjust="spacing" textLength="48.2549" x="192" y="240.4966">&#8226; T&#237;tulo</text><text fill="#000000" font-family="sans-serif" font-size="13" lengthAdjust="spacing" textLength="57.4019" x="192" y="255.6294">&#8226; Fechas</text><text fill="#000000" font-family="sans-serif" font-size="13" lengthAdjust="spacing" textLength="87.8896" x="192" y="270.7622">&#8226; Descripci&#243;n</text><text fill="#000000" font-family="sans-serif" font-size="13" lengthAdjust="spacing" textLength="268.6646" x="192" y="285.895">&#8226; Permite modificar los campos editables</text></g><!--link EditandoEntregable to ValidandoCambios--><g class="link" data-entity-1="EditandoEntregable" data-entity-2="ValidandoCambios" data-source-line="23" data-uid="lnk5" id="link_EditandoEntregable_ValidandoCambios"><path d="M155.89,348.7669 C110.17,360.5469 18,384.2969 18,384.2969 C18,384.2969 18,479.2969 18,479.2969 C18,479.2969 104.3598,501.5498 150.0798,513.3298" fill="none" id="EditandoEntregable-to-ValidandoCambios" style="stroke:#008000;stroke-width:1;"/><polygon fill="#008000" points="155.89,514.8269,148.1727,508.7078,151.0481,513.5793,146.1766,516.4548,155.89,514.8269" style="stroke:#008000;stroke-width:1;"/><path d="M23,411.7969 L23,451.7969 L319,451.7969 L319,421.7969 L309,411.7969 L23,411.7969" fill="#FEFFDD" style="stroke:#181818;stroke-width:0.5;"/><path d="M309,411.7969 L309,421.7969 L319,421.7969 L309,411.7969" fill="#FEFFDD" style="stroke:#181818;stroke-width:0.5;"/><text fill="#000000" font-family="sans-serif" font-size="13" font-weight="bold" lengthAdjust="spacing" textLength="83.7002" x="29" y="428.8638">Invstigador</text><text fill="#000000" font-family="sans-serif" font-size="13" lengthAdjust="spacing" textLength="159.7705" x="116.8325" y="428.8638">solicita guardar cambios</text><text fill="#000000" font-family="sans-serif" font-size="13" font-weight="bold" lengthAdjust="spacing" textLength="58.9063" x="29" y="443.9966">Sistema</text><text fill="#000000" font-family="sans-serif" font-size="13" lengthAdjust="spacing" textLength="212.3862" x="92.0386" y="443.9966">valida la informaci&#243;n modificada</text></g><!--link ValidandoCambios to EditandoEntregable--><g class="link" data-entity-1="ValidandoCambios" data-entity-2="EditandoEntregable" data-source-line="29" data-uid="lnk6" id="link_ValidandoCambios_EditandoEntregable"><path d="M206.24,513.8869 C247.29,501.8269 324,479.2969 324,479.2969 C324,479.2969 324,384.2969 324,384.2969 C324,384.2969 253.0467,363.4581 211.9967,351.3981" fill="none" id="ValidandoCambios-to-EditandoEntregable" style="stroke:#FF0000;stroke-width:1;"/><polygon fill="#FF0000" points="206.24,349.7069,213.7476,356.0816,211.0373,351.1163,216.0026,348.4059,206.24,349.7069" style="stroke:#FF0000;stroke-width:1;"/><path d="M329,389.2969 L329,474.2969 L595,474.2969 L595,399.2969 L585,389.2969 L329,389.2969" fill="#FEFFDD" style="stroke:#181818;stroke-width:0.5;"/><path d="M585,389.2969 L585,399.2969 L595,399.2969 L585,389.2969" fill="#FEFFDD" style="stroke:#181818;stroke-width:0.5;"/><text fill="#000000" font-family="sans-serif" font-size="13" lengthAdjust="spacing" textLength="126.6167" x="335" y="406.3638">Cambios no v&#225;lidos</text><text fill="#000000" font-family="sans-serif" font-size="13" font-weight="bold" lengthAdjust="spacing" textLength="58.9063" x="335" y="421.4966">Sistema</text><text fill="#000000" font-family="sans-serif" font-size="13" lengthAdjust="spacing" textLength="176.7378" x="398.0386" y="421.4966">muestra mensajes de error</text><text fill="#000000" font-family="sans-serif" font-size="13" lengthAdjust="spacing" textLength="190.2773" x="335" y="436.6294">&#8226; Campos obligatorios vac&#237;os</text><text fill="#000000" font-family="sans-serif" font-size="13" lengthAdjust="spacing" textLength="146.1738" x="335" y="451.7622">&#8226; Fechas incoherentes</text><text fill="#000000" font-family="sans-serif" font-size="13" lengthAdjust="spacing" textLength="245.1528" x="335" y="466.895">&#8226; Formato incorrecto en alg&#250;n campo</text></g><!--link ValidandoCambios to *end*editarEntregable--><g class="link" data-entity-1="ValidandoCambios" data-entity-2=".end.editarEntregable" data-source-line="38" data-uid="lnk8" id="link_ValidandoCambios_.end.editarEntregable"><path d="M181,547.3969 C181,580.6869 181,633.3169 181,656.9669" fill="none" id="ValidandoCambios-to-*end*editarEntregable" style="stroke:#008000;stroke-width:1;"/><polygon fill="#008000" points="181,662.9669,185,653.9669,181,657.9669,177,653.9669,181,662.9669" style="stroke:#008000;stroke-width:1;"/><path d="M186,570.2969 L186,640.2969 L440,640.2969 L440,580.2969 L430,570.2969 L186,570.2969" fill="#FEFFDD" style="stroke:#181818;stroke-width:0.5;"/><path d="M430,570.2969 L430,580.2969 L440,580.2969 L430,570.2969" fill="#FEFFDD" style="stroke:#181818;stroke-width:0.5;"/><text fill="#000000" font-family="sans-serif" font-size="13" lengthAdjust="spacing" textLength="106.2915" x="192" y="587.3638">Cambios v&#225;lidos</text><text fill="#000000" font-family="sans-serif" font-size="13" font-weight="bold" lengthAdjust="spacing" textLength="58.9063" x="192" y="602.4966">Sistema</text><text fill="#000000" font-family="sans-serif" font-size="13" lengthAdjust="spacing" textLength="149.062" x="255.0386" y="602.4966">actualiza el entregable</text><text fill="#000000" font-family="sans-serif" font-size="13" lengthAdjust="spacing" textLength="201.062" x="192" y="617.6294">&#8226; Guarda la nueva informaci&#243;n</text><text fill="#000000" font-family="sans-serif" font-size="13" lengthAdjust="spacing" textLength="233.835" x="192" y="632.7622">&#8226; Muestra el entregable actualizado</text></g><g id="ENTREGABLE_ABIERTO"><rect fill="#F1F1F1" height="50" rx="12.5" ry="12.5" style="stroke:#181818;stroke-width:0.5;" width="181.5742" x="101.5" y="790"/><line style="stroke:#181818;stroke-width:0.5;" x1="101.5" x2="283.0742" y1="816.2969" y2="816.2969"/><text fill="#000000" font-family="sans-serif" font-size="14" lengthAdjust="spacing" textLength="161.5742" x="111.5" y="807.9951">ENTREGABLE_ABIERTO</text></g><g id="ENTREGABLES_ABIERTOS"><rect fill="#F1F1F1" height="50" rx="12.5" ry="12.5" style="stroke:#181818;stroke-width:0.5;" width="199.3477" x="319" y="790"/><line style="stroke:#181818;stroke-width:0.5;" x1="319" x2="518.3477" y1="816.2969" y2="816.2969"/><text fill="#000000" font-family="sans-serif" font-size="14" lengthAdjust="spacing" textLength="179.3477" x="329" y="807.9951">ENTREGABLES_ABIERTOS</text></g><!--link editarEntregable to ENTREGABLE_ABIERTO--><g class="link" data-entity-1="editarEntregable" data-entity-2="ENTREGABLE_ABIERTO" data-source-line="47" data-uid="lnk10" id="link_editarEntregable_ENTREGABLE_ABIERTO"><path d="M204.32,695.11 C198.82,713.73 195.5,725 195.5,725 C195.5,725 194.4125,757.3334 193.5225,783.6834" fill="none" id="editarEntregable-to-ENTREGABLE_ABIERTO" style="stroke:#008000;stroke-width:1;"/><polygon fill="#008000" points="193.32,789.68,197.6215,780.8202,193.4888,784.6828,189.6261,780.5501,193.32,789.68" style="stroke:#008000;stroke-width:1;"/><path d="M200.5,730 L200.5,755 L370.5,755 L370.5,740 L360.5,730 L200.5,730" fill="#FEFFDD" style="stroke:#181818;stroke-width:0.5;"/><path d="M360.5,730 L360.5,740 L370.5,740 L360.5,730" fill="#FEFFDD" style="stroke:#181818;stroke-width:0.5;"/><text fill="#000000" font-family="sans-serif" font-size="13" lengthAdjust="spacing" textLength="149.5254" x="206.5" y="747.0669">entregable actualizado</text></g><!--link editarEntregable to ENTREGABLES_ABIERTOS--><g class="link" data-entity-1="editarEntregable" data-entity-2="ENTREGABLES_ABIERTOS" data-source-line="52" data-uid="lnk12" id="link_editarEntregable_ENTREGABLES_ABIERTOS"><path d="M389.4,695.02 C399.09,734.63 405.935,762.6017 411.155,783.9517" fill="none" id="editarEntregable-to-ENTREGABLES_ABIERTOS" style="stroke:#008000;stroke-width:1;"/><polygon fill="#008000" points="412.58,789.78,414.328,780.0875,411.3925,784.9231,406.5569,781.9875,412.58,789.78" style="stroke:#008000;stroke-width:1;"/><path d="M408.5,730 L408.5,755 L547.5,755 L547.5,740 L537.5,730 L408.5,730" fill="#FEFFDD" style="stroke:#181818;stroke-width:0.5;"/><path d="M537.5,730 L537.5,740 L547.5,740 L537.5,730" fill="#FEFFDD" style="stroke:#181818;stroke-width:0.5;"/><text fill="#000000" font-family="sans-serif" font-size="13" lengthAdjust="spacing" textLength="118.4092" x="414.5" y="747.0669">abrirEntregables()</text></g><!--SRC=[bLJDJjmm4BxdAKRR2rH2VG6q4j0K8PMsObUz85HDx24O_1EDdKYqgjHNQU-SUkirRyAJr4aWkybc-KaEYPtnzpEV7N-ZR86C1hIo56uBWiBfssQG93vW822f0d9g0rEEcIP03xFnvCxk37ua2SIhMpMBTomyTJumMkbMfPj5QGFsJCrNr4esHKTeCkLyntN-zWBspj_aJ6GlzkPRwQoBICus9c_QYVriVc8h7rIEql7-ksmEtcabef07mq132BAoXUc89uW6GhPOcjAnK3wGmLP3mUGZBuB4u3oW22LgyY19Z_NS__e3o_ekbDhrumyahj3tm_Va1Qj2gFglxIU_41iLLHWdrQKIqQYEJ09D4H-jzSZW9onlMXeutWZerNtFIsGPzOWrW55_gfO4D8AobuuDjjvwBn8dT8-5DQgPv6jIUbnf7LJrxmWthSwKrEmAC6GzNhUn0J4xxfj_rBNPPJes83XkG2iKzPtpen2ZGU6kY6FgjFQjyHnS-v6PH7mb2wZp-f_jCdnX0_hOuWbwslDJXhlzgRx7CpEvFu_RH9kuR4dLCBI-wFIXQmE85RGSMVgP91j_fC79-xGyIuyF3Z-ctmuEJzApvUTau6qBnwfbBqHVFC8lXlYOiLfRxNTsU-p_]--></g></svg>