<svg xmlns="http://www.w3.org/2000/svg" xmlns:xlink="http://www.w3.org/1999/xlink" contentStyleType="text/css" data-diagram-type="STATE" height="861px" preserveAspectRatio="none" style="width:617px;height:861px;background:#FFFFFF;" version="1.1" viewBox="0 0 617 861" width="617px" zoomAndPan="magnify"><defs/><g><path d="M19.5,7 L591.5,7 A12.5,12.5 0 0 1 604,19.5 L604,33.2969 L7,33.2969 L7,19.5 A12.5,12.5 0 0 1 19.5,7" fill="#F1F1F1"/><rect fill="none" height="703.2969" rx="12.5" ry="12.5" style="stroke:#181818;stroke-width:0.5;" width="597" x="7" y="7"/><line style="stroke:#181818;stroke-width:0.5;" x1="7" x2="604" y1="33.2969" y2="33.2969"/><text fill="#000000" font-family="sans-serif" font-size="14" lengthAdjust="spacing" textLength="128.5703" x="241.2148" y="24.9951">editarEntregable()</text><g id="editarEntregable.MostrandoEntregable"><rect fill="#F1F1F1" height="50" rx="12.5" ry="12.5" style="stroke:#181818;stroke-width:0.5;" width="50" x="156" y="150.2969"/><line style="stroke:#181818;stroke-width:0.5;" x1="156" x2="206" y1="176.5938" y2="176.5938"/><text fill="#000000" font-family="sans-serif" font-size="14" lengthAdjust="spacing" textLength="4.4502" x="178.7749" y="168.292">&#160;</text></g><g id="editarEntregable.EditandoEntregable"><rect fill="#F1F1F1" height="50" rx="12.5" ry="12.5" style="stroke:#181818;stroke-width:0.5;" width="50" x="156" y="331.2969"/><line style="stroke:#181818;stroke-width:0.5;" x1="156" x2="206" y1="357.5938" y2="357.5938"/><text fill="#000000" font-family="sans-serif" font-size="14" lengthAdjust="spacing" textLength="4.4502" x="178.7749" y="349.292">&#160;</text></g><g id="editarEntregable.ValidandoCambios"><rect fill="#F1F1F1" height="50" rx="12.5" ry="12.5" style="stroke:#181818;stroke-width:0.5;" width="50" x="156" y="512.2969"/><line style="stroke:#181818;stroke-width:0.5;" x1="156" x2="206" y1="538.5938" y2="538.5938"/><text fill="#000000" font-family="sans-serif" font-size="14" lengthAdjust="spacing" textLength="4.4502" x="178.7749" y="530.292">&#160;</text></g><ellipse cx="181" cy="54.2969" fill="#222222" rx="10" ry="10" style="stroke:#222222;stroke-width:1;"/><ellipse cx="181" cy="689.2969" fill="none" rx="11" ry="11" style="stroke:#222222;stroke-width:1;"/><ellipse cx="181" cy="689.2969" fill="#222222" rx="6" ry="6" style="stroke:#222222;stroke-width:1;"/><!--link *start*editarEntregable to MostrandoEntregable--><g class="link" data-entity-1=".start.editarEntregable" data-entity-2="MostrandoEntregable" data-source-line="9" data-uid="lnk3" id="link_.start.editarEntregable_MostrandoEntregable"><path d="M181,64.6369 C181,82.8269 181,117.5369 181,143.9069" fill="none" id="*start*editarEntregable-to-MostrandoEntregable" style="stroke:#008000;stroke-width:1;"/><polygon fill="#008000" points="181,149.9069,185,140.9069,181,144.9069,177,140.9069,181,149.9069" style="stroke:#008000;stroke-width:1;"/><path d="M186,87.2969 L186,127.2969 L473,127.2969 L473,97.2969 L463,87.2969 L186,87.2969" fill="#FEFFDD" style="stroke:#181818;stroke-width:0.5;"/><path d="M463,87.2969 L463,97.2969 L473,97.2969 L463,87.2969" fill="#FEFFDD" style="stroke:#181818;stroke-width:0.5;"/><text fill="#000000" font-family="sans-serif" font-size="13" font-weight="bold" lengthAdjust="spacing" textLength="83.7002" x="192" y="104.3638">Invstigador</text><text fill="#000000" font-family="sans-serif" font-size="13" lengthAdjust="spacing" textLength="178.8008" x="279.8325" y="104.3638">tiene un entregable abierto</text><text fill="#000000" font-family="sans-serif" font-size="13" font-weight="bold" lengthAdjust="spacing" textLength="83.7002" x="192" y="119.4966">Invstigador</text><text fill="#000000" font-family="sans-serif" font-size="13" lengthAdjust="spacing" textLength="163.0649" x="279.8325" y="119.4966">solicita editar entregable</text></g><!--link MostrandoEntregable to EditandoEntregable--><g class="link" data-entity-1="MostrandoEntregable" data-entity-2="EditandoEntregable" data-source-line="15" data-uid="lnk4" id="link_MostrandoEntregable_EditandoEntregable"><path d="M181,200.4369 C181,234.6969 181,291.0469 181,325.2569" fill="none" id="MostrandoEntregable-to-EditandoEntregable" style="stroke:#008000;stroke-width:1;"/><polygon fill="#008000" points="181,331.2569,185,322.2569,181,326.2569,177,322.2569,181,331.2569" style="stroke:#008000;stroke-width:1;"/><path d="M186,223.2969 L186,308.2969 L525,308.2969 L525,233.2969 L515,223.2969 L186,223.2969" fill="#FEFFDD" style="stroke:#181818;stroke-width:0.5;"/><path d="M515,223.2969 L515,233.2969 L525,233.2969 L515,223.2969" fill="#FEFFDD" style="stroke:#181818;stroke-width:0.5;"/><text fill="#000000" font-family="sans-serif" font-size="13" font-weight="bold" lengthAdjust="spacing" textLength="58.9063" x="192" y="240.3638">Sistema</text><text fill="#000000" font-family="sans-serif" font-size="13" lengthAdjust="spacing" textLength="255.6582" x="255.0386" y="240.3638">presenta datos actuales del entregable</text><text fill="#000000" font-family="sans-serif" font-size="13" lengthAdjust="spacing" textLength="48.2549" x="192" y="255.4966">&#8226; T&#237;tulo</text><text fill="#000000" font-family="sans-serif" font-size="13" lengthAdjust="spacing" textLength="57.4019" x="192" y="270.6294">&#8226; Fechas</text><text fill="#000000" font-family="sans-serif" font-size="13" lengthAdjust="spacing" textLength="87.8896" x="192" y="285.7622">&#8226; Descripci&#243;n</text><text fill="#000000" font-family="sans-serif" font-size="13" lengthAdjust="spacing" textLength="268.6646" x="192" y="300.895">&#8226; Permite modificar los campos editables</text></g><!--link EditandoEntregable to ValidandoCambios--><g class="link" data-entity-1="EditandoEntregable" data-entity-2="ValidandoCambios" data-source-line="24" data-uid="lnk5" id="link_EditandoEntregable_ValidandoCambios"><path d="M155.89,363.7669 C110.17,375.5469 18,399.2969 18,399.2969 C18,399.2969 18,494.2969 18,494.2969 C18,494.2969 104.3598,516.5498 150.0798,528.3298" fill="none" id="EditandoEntregable-to-ValidandoCambios" style="stroke:#008000;stroke-width:1;"/><polygon fill="#008000" points="155.89,529.8269,148.1727,523.7078,151.0481,528.5793,146.1766,531.4548,155.89,529.8269" style="stroke:#008000;stroke-width:1;"/><path d="M23,426.7969 L23,466.7969 L319,466.7969 L319,436.7969 L309,426.7969 L23,426.7969" fill="#FEFFDD" style="stroke:#181818;stroke-width:0.5;"/><path d="M309,426.7969 L309,436.7969 L319,436.7969 L309,426.7969" fill="#FEFFDD" style="stroke:#181818;stroke-width:0.5;"/><text fill="#000000" font-family="sans-serif" font-size="13" font-weight="bold" lengthAdjust="spacing" textLength="83.7002" x="29" y="443.8638">Invstigador</text><text fill="#000000" font-family="sans-serif" font-size="13" lengthAdjust="spacing" textLength="159.7705" x="116.8325" y="443.8638">solicita guardar cambios</text><text fill="#000000" font-family="sans-serif" font-size="13" font-weight="bold" lengthAdjust="spacing" textLength="58.9063" x="29" y="458.9966">Sistema</text><text fill="#000000" font-family="sans-serif" font-size="13" lengthAdjust="spacing" textLength="212.3862" x="92.0386" y="458.9966">valida la informaci&#243;n modificada</text></g><!--link ValidandoCambios to EditandoEntregable--><g class="link" data-entity-1="ValidandoCambios" data-entity-2="EditandoEntregable" data-source-line="30" data-uid="lnk6" id="link_ValidandoCambios_EditandoEntregable"><path d="M206.24,528.8869 C247.29,516.8269 324,494.2969 324,494.2969 C324,494.2969 324,399.2969 324,399.2969 C324,399.2969 253.0467,378.4581 211.9967,366.3981" fill="none" id="ValidandoCambios-to-EditandoEntregable" style="stroke:#008000;stroke-width:1;"/><polygon fill="#008000" points="206.24,364.7069,213.7476,371.0816,211.0373,366.1163,216.0026,363.4059,206.24,364.7069" style="stroke:#008000;stroke-width:1;"/><path d="M329,404.2969 L329,489.2969 L595,489.2969 L595,414.2969 L585,404.2969 L329,404.2969" fill="#FEFFDD" style="stroke:#181818;stroke-width:0.5;"/><path d="M585,404.2969 L585,414.2969 L595,414.2969 L585,404.2969" fill="#FEFFDD" style="stroke:#181818;stroke-width:0.5;"/><text fill="#000000" font-family="sans-serif" font-size="13" lengthAdjust="spacing" textLength="126.6167" x="335" y="421.3638">Cambios no v&#225;lidos</text><text fill="#000000" font-family="sans-serif" font-size="13" font-weight="bold" lengthAdjust="spacing" textLength="58.9063" x="335" y="436.4966">Sistema</text><text fill="#000000" font-family="sans-serif" font-size="13" lengthAdjust="spacing" textLength="176.7378" x="398.0386" y="436.4966">muestra mensajes de error</text><text fill="#000000" font-family="sans-serif" font-size="13" lengthAdjust="spacing" textLength="190.2773" x="335" y="451.6294">&#8226; Campos obligatorios vac&#237;os</text><text fill="#000000" font-family="sans-serif" font-size="13" lengthAdjust="spacing" textLength="146.1738" x="335" y="466.7622">&#8226; Fechas incoherentes</text><text fill="#000000" font-family="sans-serif" font-size="13" lengthAdjust="spacing" textLength="245.1528" x="335" y="481.895">&#8226; Formato incorrecto en alg&#250;n campo</text></g><!--link ValidandoCambios to *end*editarEntregable--><g class="link" data-entity-1="ValidandoCambios" data-entity-2=".end.editarEntregable" data-source-line="39" data-uid="lnk8" id="link_ValidandoCambios_.end.editarEntregable"><path d="M181,562.3969 C181,595.6869 181,648.3169 181,671.9669" fill="none" id="ValidandoCambios-to-*end*editarEntregable" style="stroke:#008000;stroke-width:1;"/><polygon fill="#008000" points="181,677.9669,185,668.9669,181,672.9669,177,668.9669,181,677.9669" style="stroke:#008000;stroke-width:1;"/><path d="M186,585.2969 L186,655.2969 L440,655.2969 L440,595.2969 L430,585.2969 L186,585.2969" fill="#FEFFDD" style="stroke:#181818;stroke-width:0.5;"/><path d="M430,585.2969 L430,595.2969 L440,595.2969 L430,585.2969" fill="#FEFFDD" style="stroke:#181818;stroke-width:0.5;"/><text fill="#000000" font-family="sans-serif" font-size="13" lengthAdjust="spacing" textLength="106.2915" x="192" y="602.3638">Cambios v&#225;lidos</text><text fill="#000000" font-family="sans-serif" font-size="13" font-weight="bold" lengthAdjust="spacing" textLength="58.9063" x="192" y="617.4966">Sistema</text><text fill="#000000" font-family="sans-serif" font-size="13" lengthAdjust="spacing" textLength="149.062" x="255.0386" y="617.4966">actualiza el entregable</text><text fill="#000000" font-family="sans-serif" font-size="13" lengthAdjust="spacing" textLength="201.062" x="192" y="632.6294">&#8226; Guarda la nueva informaci&#243;n</text><text fill="#000000" font-family="sans-serif" font-size="13" lengthAdjust="spacing" textLength="233.835" x="192" y="647.7622">&#8226; Muestra el entregable actualizado</text></g><g id="ENTREGABLE_ABIERTO"><rect fill="#F1F1F1" height="50" rx="12.5" ry="12.5" style="stroke:#181818;stroke-width:0.5;" width="181.5742" x="101.5" y="805"/><line style="stroke:#181818;stroke-width:0.5;" x1="101.5" x2="283.0742" y1="831.2969" y2="831.2969"/><text fill="#000000" font-family="sans-serif" font-size="14" lengthAdjust="spacing" textLength="161.5742" x="111.5" y="822.9951">ENTREGABLE_ABIERTO</text></g><g id="ENTREGABLES_ABIERTOS"><rect fill="#F1F1F1" height="50" rx="12.5" ry="12.5" style="stroke:#181818;stroke-width:0.5;" width="199.3477" x="319" y="805"/><line style="stroke:#181818;stroke-width:0.5;" x1="319" x2="518.3477" y1="831.2969" y2="831.2969"/><text fill="#000000" font-family="sans-serif" font-size="14" lengthAdjust="spacing" textLength="179.3477" x="329" y="822.9951">ENTREGABLES_ABIERTOS</text></g><!--link editarEntregable to ENTREGABLE_ABIERTO--><g class="link" data-entity-1="editarEntregable" data-entity-2="ENTREGABLE_ABIERTO" data-source-line="48" data-uid="lnk10" id="link_editarEntregable_ENTREGABLE_ABIERTO"><path d="M204.13,710.14 C198.75,728.76 195.5,740 195.5,740 C195.5,740 194.4125,772.3334 193.5225,798.6834" fill="none" id="editarEntregable-to-ENTREGABLE_ABIERTO" style="stroke:#008000;stroke-width:1;"/><polygon fill="#008000" points="193.32,804.68,197.6215,795.8202,193.4888,799.6828,189.6261,795.5501,193.32,804.68" style="stroke:#008000;stroke-width:1;"/><path d="M200.5,745 L200.5,770 L370.5,770 L370.5,755 L360.5,745 L200.5,745" fill="#FEFFDD" style="stroke:#181818;stroke-width:0.5;"/><path d="M360.5,745 L360.5,755 L370.5,755 L360.5,745" fill="#FEFFDD" style="stroke:#181818;stroke-width:0.5;"/><text fill="#000000" font-family="sans-serif" font-size="13" lengthAdjust="spacing" textLength="149.5254" x="206.5" y="762.0669">entregable actualizado</text></g><!--link editarEntregable to ENTREGABLES_ABIERTOS--><g class="link" data-entity-1="editarEntregable" data-entity-2="ENTREGABLES_ABIERTOS" data-source-line="53" data-uid="lnk12" id="link_editarEntregable_ENTREGABLES_ABIERTOS"><path d="M389.91,710.22 C399.45,749.85 406.1664,777.7465 411.2864,799.0265" fill="none" id="editarEntregable-to-ENTREGABLES_ABIERTOS" style="stroke:#008000;stroke-width:1;"/><polygon fill="#008000" points="412.69,804.86,414.4737,795.174,411.5204,799.9987,406.6956,797.0454,412.69,804.86" style="stroke:#008000;stroke-width:1;"/><path d="M408.5,745 L408.5,770 L547.5,770 L547.5,755 L537.5,745 L408.5,745" fill="#FEFFDD" style="stroke:#181818;stroke-width:0.5;"/><path d="M537.5,745 L537.5,755 L547.5,755 L537.5,745" fill="#FEFFDD" style="stroke:#181818;stroke-width:0.5;"/><text fill="#000000" font-family="sans-serif" font-size="13" lengthAdjust="spacing" textLength="118.4092" x="414.5" y="762.0669">abrirEntregables()</text></g><!--SRC=[dLJDJjmm4BxdAKRR2rH2VG6q4j0K8PMsObUz85HDx24O73iQEolHgb9VfRrpwgtNl0bFKiU1R9BD0ctsaBKpyyttuyJTA5CYOm5Q6VAt9K5fzMspI1BdqHEGL1uvDPufnqmJe8FPU7DdTmRVaWJ2rNRDmYyKdbhd6OsqwzBDehG1UwRcCsebcw8ZB39bNJlh_FK5x9s_ofd8NEpDjuupDY1PquYyYHlxsVp4h9nNEKhB-s-oENX5Xg0oG3sfcIBsTbkBirg9mFt1ervdx20Zu-IMwmIt0VSjBanHNoZdgS38eMHoOIw2H6yTeF0LQd8WIO_vtF_u1SlwpbVQTkjt9AxGTSktv0IhKgZwj-asFn4NAh0eh5INIWIXEamIM9JX5gM72Mv2ygQaWUADJ5yQLUTxNY7Bm4Vq04R-hE8Gq0ZAN5ekC6hhj4YSu3qczbyvFVOQ2wlwPm2SvbTKr9mBACWul8x10J5Rxkm_QesscGuMUCiDw0f5VMVTACOWKTWhuf0xzPurghsD3vb9XBza07LU_p5jYlzgGNZjdjRybE3sXAgluQsPFA77CTCcC5FHQXXRLtJwuDe0OWqjHvA-9yd6PsoGwOVbMNfySFW-_N9mU9AUBJyc0srRPgmjUo7wuX5-CSJ7Z5Mls-tiTjX_0G00]--></g></svg>