<?xml version="1.0" encoding="us-ascii" standalone="no"?><svg xmlns="http://www.w3.org/2000/svg" xmlns:xlink="http://www.w3.org/1999/xlink" contentStyleType="text/css" height="916px" preserveAspectRatio="none" style="width:548px;height:916px;background:#FFFFFF;" version="1.1" viewBox="0 0 548 916" width="548px" zoomAndPan="magnify"><defs/><g><path d="M19.5,7 L522.5,7 A12.5,12.5 0 0 1 535,19.5 L535,34.6094 L7,34.6094 L7,19.5 A12.5,12.5 0 0 1 19.5,7 " fill="#F1F1F1" style="stroke:#F1F1F1;stroke-width:1.0;"/><rect fill="none" height="756.6094" rx="12.5" ry="12.5" style="stroke:#181818;stroke-width:0.5;" width="528" x="7" y="7"/><line style="stroke:#181818;stroke-width:0.5;" x1="7" x2="535" y1="34.6094" y2="34.6094"/><text fill="#000000" font-family="sans-serif" font-size="14" lengthAdjust="spacing" textLength="102" x="220" y="26.5332">editarProyecto()</text><g id="editarProyecto.MostrandoProyecto"><rect fill="#F1F1F1" height="50" rx="12.5" ry="12.5" style="stroke:#181818;stroke-width:0.5;" width="50" x="137" y="153.6094"/><line style="stroke:#181818;stroke-width:0.5;" x1="137" x2="187" y1="181.2188" y2="181.2188"/><text fill="#000000" font-family="sans-serif" font-size="14" lengthAdjust="spacing" textLength="4" x="160" y="173.1426">&#160;</text></g><g id="editarProyecto.EditandoProyecto"><rect fill="#F1F1F1" height="50" rx="12.5" ry="12.5" style="stroke:#181818;stroke-width:0.5;" width="50" x="137" y="373.6094"/><line style="stroke:#181818;stroke-width:0.5;" x1="137" x2="187" y1="401.2188" y2="401.2188"/><text fill="#000000" font-family="sans-serif" font-size="14" lengthAdjust="spacing" textLength="4" x="160" y="393.1426">&#160;</text></g><g id="editarProyecto.ValidandoCambios"><rect fill="#F1F1F1" height="50" rx="12.5" ry="12.5" style="stroke:#181818;stroke-width:0.5;" width="50" x="137" y="560.6094"/><line style="stroke:#181818;stroke-width:0.5;" x1="137" x2="187" y1="588.2188" y2="588.2188"/><text fill="#000000" font-family="sans-serif" font-size="14" lengthAdjust="spacing" textLength="4" x="160" y="580.1426">&#160;</text></g><ellipse cx="162" cy="55.6094" fill="#222222" rx="10" ry="10" style="stroke:#222222;stroke-width:1.0;"/><ellipse cx="162" cy="742.6094" fill="none" rx="11" ry="11" style="stroke:#222222;stroke-width:1.0;"/><ellipse cx="162" cy="742.6094" fill="#222222" rx="6" ry="6" style="stroke:#222222;stroke-width:1.0;"/><!--link *start*editarProyecto to MostrandoProyecto--><g id="link_*start*editarProyecto_MostrandoProyecto"><path d="M162,65.6994 C162,84.1694 162,120.5894 162,147.5794 " fill="none" id="*start*editarProyecto-to-MostrandoProyecto" style="stroke:#008000;stroke-width:1.0;"/><polygon fill="#008000" points="162,153.5794,166,144.5794,162,148.5794,158,144.5794,162,153.5794" style="stroke:#008000;stroke-width:1.0;"/><path d="M167,88.6094 L167,130.6094 L414,130.6094 L414,98.6094 L404,88.6094 L167,88.6094 " fill="#FEFFDD" style="stroke:#181818;stroke-width:0.5;"/><path d="M404,88.6094 L404,98.6094 L414,98.6094 L404,88.6094 " fill="#FEFFDD" style="stroke:#181818;stroke-width:0.5;"/><text fill="#000000" font-family="sans-serif" font-size="13" font-weight="bold" lengthAdjust="spacing" textLength="79" x="173" y="107.1045">Coordinador</text><text fill="#000000" font-family="sans-serif" font-size="13" lengthAdjust="spacing" textLength="143" x="256" y="107.1045">tiene un proyecto abierto</text><text fill="#000000" font-family="sans-serif" font-size="13" font-weight="bold" lengthAdjust="spacing" textLength="79" x="173" y="123.4561">Coordinador</text><text fill="#000000" font-family="sans-serif" font-size="13" lengthAdjust="spacing" textLength="131" x="256" y="123.4561">solicita editar proyecto</text></g><!--link MostrandoProyecto to EditandoProyecto--><g id="link_MostrandoProyecto_EditandoProyecto"><path d="M162,203.7694 C162,245.6794 162,325.3594 162,367.3394 " fill="none" id="MostrandoProyecto-to-EditandoProyecto" style="stroke:#008000;stroke-width:1.0;"/><polygon fill="#008000" points="162,373.3394,166,364.3394,162,368.3394,158,364.3394,162,373.3394" style="stroke:#008000;stroke-width:1.0;"/><path d="M167,226.6094 L167,350.6094 L457,350.6094 L457,236.6094 L447,226.6094 L167,226.6094 " fill="#FEFFDD" style="stroke:#181818;stroke-width:0.5;"/><path d="M447,226.6094 L447,236.6094 L457,236.6094 L447,226.6094 " fill="#FEFFDD" style="stroke:#181818;stroke-width:0.5;"/><text fill="#000000" font-family="sans-serif" font-size="13" font-weight="bold" lengthAdjust="spacing" textLength="51" x="173" y="245.1045">Sistema</text><text fill="#000000" font-family="sans-serif" font-size="13" lengthAdjust="spacing" textLength="214" x="228" y="245.1045">presenta datos actuales del proyecto</text><text fill="#000000" font-family="sans-serif" font-size="13" lengthAdjust="spacing" textLength="40" x="173" y="261.4561">&#8226; T&#237;tulo</text><text fill="#000000" font-family="sans-serif" font-size="13" lengthAdjust="spacing" textLength="77" x="173" y="277.8076">&#8226; Descripci&#243;n</text><text fill="#000000" font-family="sans-serif" font-size="13" lengthAdjust="spacing" textLength="52" x="173" y="294.1592">&#8226; Fechas</text><text fill="#000000" font-family="sans-serif" font-size="13" lengthAdjust="spacing" textLength="50" x="173" y="310.5107">&#8226; Estado</text><text fill="#000000" font-family="sans-serif" font-size="13" lengthAdjust="spacing" textLength="238" x="173" y="326.8623">&#8226; Coordinador e investigadores asociados</text><text fill="#000000" font-family="sans-serif" font-size="13" lengthAdjust="spacing" textLength="237" x="173" y="343.2139">&#8226; Permite modificar los campos editables</text></g><!--link EditandoProyecto to ValidandoCambios--><g id="link_EditandoProyecto_ValidandoCambios"><path d="M136.92,406.9294 C95.66,418.9594 18,441.6094 18,441.6094 C18,441.6094 18,542.6094 18,542.6094 C18,542.6094 89.8998,563.5799 131.1598,575.6099 " fill="none" id="EditandoProyecto-to-ValidandoCambios" style="stroke:#008000;stroke-width:1.0;"/><polygon fill="#008000" points="136.92,577.2894,129.3994,570.9301,132.1199,575.8898,127.1601,578.6103,136.92,577.2894" style="stroke:#008000;stroke-width:1.0;"/><path d="M23,471.1094 L23,513.1094 L281,513.1094 L281,481.1094 L271,471.1094 L23,471.1094 " fill="#FEFFDD" style="stroke:#181818;stroke-width:0.5;"/><path d="M271,471.1094 L271,481.1094 L281,481.1094 L271,471.1094 " fill="#FEFFDD" style="stroke:#181818;stroke-width:0.5;"/><text fill="#000000" font-family="sans-serif" font-size="13" font-weight="bold" lengthAdjust="spacing" textLength="79" x="29" y="489.6045">Coordinador</text><text fill="#000000" font-family="sans-serif" font-size="13" lengthAdjust="spacing" textLength="141" x="112" y="489.6045">solicita guardar cambios</text><text fill="#000000" font-family="sans-serif" font-size="13" font-weight="bold" lengthAdjust="spacing" textLength="51" x="29" y="505.9561">Sistema</text><text fill="#000000" font-family="sans-serif" font-size="13" lengthAdjust="spacing" textLength="182" x="84" y="505.9561">valida la informaci&#243;n modificada</text></g><!--link ValidandoCambios to EditandoProyecto--><g id="link_ValidandoCambios_EditandoProyecto"><path d="M187.09,576.1094 C223.33,563.8394 286,542.6094 286,542.6094 C286,542.6094 286,441.6094 286,441.6094 C286,441.6094 229.0131,422.3035 192.7731,410.0335 " fill="none" id="ValidandoCambios-to-EditandoProyecto" style="stroke:#008000;stroke-width:1.0;"/><polygon fill="#008000" points="187.09,408.1094,194.3319,414.7843,191.8259,409.7128,196.8974,407.2069,187.09,408.1094" style="stroke:#008000;stroke-width:1.0;"/><path d="M291,446.6094 L291,537.6094 L526,537.6094 L526,456.6094 L516,446.6094 L291,446.6094 " fill="#FEFFDD" style="stroke:#181818;stroke-width:0.5;"/><path d="M516,446.6094 L516,456.6094 L526,456.6094 L516,446.6094 " fill="#FEFFDD" style="stroke:#181818;stroke-width:0.5;"/><text fill="#000000" font-family="sans-serif" font-size="13" lengthAdjust="spacing" textLength="112" x="297" y="465.1045">Cambios no v&#225;lidos</text><text fill="#000000" font-family="sans-serif" font-size="13" font-weight="bold" lengthAdjust="spacing" textLength="51" x="297" y="481.4561">Sistema</text><text fill="#000000" font-family="sans-serif" font-size="13" lengthAdjust="spacing" textLength="155" x="352" y="481.4561">muestra mensajes de error</text><text fill="#000000" font-family="sans-serif" font-size="13" lengthAdjust="spacing" textLength="167" x="297" y="497.8076">&#8226; Campos obligatorios vac&#237;os</text><text fill="#000000" font-family="sans-serif" font-size="13" lengthAdjust="spacing" textLength="130" x="297" y="514.1592">&#8226; Fechas incoherentes</text><text fill="#000000" font-family="sans-serif" font-size="13" lengthAdjust="spacing" textLength="214" x="297" y="530.5107">&#8226; Formato incorrecto en alg&#250;n campo</text></g><!--link ValidandoCambios to *end*editarProyecto--><g id="link_ValidandoCambios_*end*editarProyecto"><path d="M162,610.8294 C162,645.3994 162,701.3794 162,725.5594 " fill="none" id="ValidandoCambios-to-*end*editarProyecto" style="stroke:#008000;stroke-width:1.0;"/><polygon fill="#008000" points="162,731.5594,166,722.5594,162,726.5594,158,722.5594,162,731.5594" style="stroke:#008000;stroke-width:1.0;"/><path d="M167,633.6094 L167,708.6094 L382,708.6094 L382,643.6094 L372,633.6094 L167,633.6094 " fill="#FEFFDD" style="stroke:#181818;stroke-width:0.5;"/><path d="M372,633.6094 L372,643.6094 L382,643.6094 L372,633.6094 " fill="#FEFFDD" style="stroke:#181818;stroke-width:0.5;"/><text fill="#000000" font-family="sans-serif" font-size="13" lengthAdjust="spacing" textLength="94" x="173" y="652.1045">Cambios v&#225;lidos</text><text fill="#000000" font-family="sans-serif" font-size="13" font-weight="bold" lengthAdjust="spacing" textLength="51" x="173" y="668.4561">Sistema</text><text fill="#000000" font-family="sans-serif" font-size="13" lengthAdjust="spacing" textLength="120" x="228" y="668.4561">actualiza el proyecto</text><text fill="#000000" font-family="sans-serif" font-size="13" lengthAdjust="spacing" textLength="172" x="173" y="684.8076">&#8226; Guarda la nueva informaci&#243;n</text><text fill="#000000" font-family="sans-serif" font-size="13" lengthAdjust="spacing" textLength="194" x="173" y="701.1592">&#8226; Muestra el proyecto actualizado</text></g><g id="PROYECTO_ABIERTO"><rect fill="#F1F1F1" height="50" rx="12.5" ry="12.5" style="stroke:#181818;stroke-width:0.5;" width="166" x="83" y="860"/><line style="stroke:#181818;stroke-width:0.5;" x1="83" x2="249" y1="887.6094" y2="887.6094"/><text fill="#000000" font-family="sans-serif" font-size="14" lengthAdjust="spacing" textLength="146" x="93" y="879.5332">PROYECTO_ABIERTO</text></g><g id="PROYECTOS_ABIERTOS"><rect fill="#F1F1F1" height="50" rx="12.5" ry="12.5" style="stroke:#181818;stroke-width:0.5;" width="184" x="284" y="860"/><line style="stroke:#181818;stroke-width:0.5;" x1="284" x2="468" y1="887.6094" y2="887.6094"/><text fill="#000000" font-family="sans-serif" font-size="14" lengthAdjust="spacing" textLength="164" x="294" y="879.5332">PROYECTOS_ABIERTOS</text></g><!--link editarProyecto to PROYECTO_ABIERTO--><g id="link_editarProyecto_PROYECTO_ABIERTO"><path d="M188.54,764.04 C184.45,782.77 182,794 182,794 C182,794 176.0803,827.3126 171.3403,853.9726 " fill="none" id="editarProyecto-to-PROYECTO_ABIERTO" style="stroke:#008000;stroke-width:1.0;"/><polygon fill="#008000" points="170.29,859.88,175.8037,851.7192,171.1652,854.9572,167.9272,850.3188,170.29,859.88" style="stroke:#008000;stroke-width:1.0;"/><path d="M187,799 L187,825 L328,825 L328,809 L318,799 L187,799 " fill="#FEFFDD" style="stroke:#181818;stroke-width:0.5;"/><path d="M318,799 L318,809 L328,809 L318,799 " fill="#FEFFDD" style="stroke:#181818;stroke-width:0.5;"/><text fill="#000000" font-family="sans-serif" font-size="13" lengthAdjust="spacing" textLength="120" x="193" y="817.4951">proyecto actualizado</text></g><!--link editarProyecto to PROYECTOS_ABIERTOS--><g id="link_editarProyecto_PROYECTOS_ABIERTOS"><path d="M350.72,764.2 C359.2,804.4 365.1295,832.5196 369.6495,853.9096 " fill="none" id="editarProyecto-to-PROYECTOS_ABIERTOS" style="stroke:#008000;stroke-width:1.0;"/><polygon fill="#008000" points="370.89,859.78,372.9428,850.1475,369.8563,854.888,365.1157,851.8014,370.89,859.78" style="stroke:#008000;stroke-width:1.0;"/><path d="M367,799 L367,825 L480,825 L480,809 L470,799 L367,799 " fill="#FEFFDD" style="stroke:#181818;stroke-width:0.5;"/><path d="M470,799 L470,809 L480,809 L470,799 " fill="#FEFFDD" style="stroke:#181818;stroke-width:0.5;"/><text fill="#000000" font-family="sans-serif" font-size="13" lengthAdjust="spacing" textLength="92" x="373" y="817.4951">abrirProyectos()</text></g><!--SRC=[dLJDRjD04BxxAKRXqY9Ll40L2K907Af4JOI4gWgDTwVfqlMkDRkE510IhmBtdhXnpPlm98pjn3-9YGhEmTdrp3VVpzhXmRWS6JEmnb7Sv0IvjvjoaIGXOYGWRIBodFs6LFI00KRzhRFp4Nn94f2hxXZ9JygkV8YCJljzuN79j0GwMV4UhT5boGIprFXGpxbvVWiNDyzMJEHkByP_6UMyu7XNIdkeDYxJySHxriQXzdpv8Xr3DEG82WTv8p0rn3k4WORWhL72UkTBqrVLazFLr9hb4QiUvq7jGvGN9aJAi9gUCmLoCbrZz05GnG8j1T1a-qn-V_i1o-rZB6oxVar1iScLsVvqpUORKlSOckLKtDTjIqSz41YtfX3DgbpAK0nU6VdVTi-9CoCACg_DdL5YZnMM2hDSRfLXgR0TiEhGZ9vJHsVWgU4sMQqAP2riL0VWmDbrDGGiYiexpnbMDZLAD0wmFYJs7_dkEvs7zVQxm0spomegpn9av09-gW87OlRS9bMRx5Ch-KJF9UWQrVQn4q-TjGXK_fvOpX5rdfMQnVZo8NEL0Jb0kzh-SdM2_sg0lAIdDPyIN9ziyrdUiu6J_RRAimpB5RJkHzOKNUqywm2qiFf0pjSaEVZGTQNChsSVffFbxEFBL- -cryjPqjCqYDuQzGJSnHvuqKV6b4tJ6SxEMzG_]--></g></svg>