<?xml version="1.0" encoding="us-ascii" standalone="no"?><svg xmlns="http://www.w3.org/2000/svg" xmlns:xlink="http://www.w3.org/1999/xlink" contentStyleType="text/css" height="874px" preserveAspectRatio="none" style="width:473px;height:874px;background:#FFFFFF;" version="1.1" viewBox="0 0 473 874" width="473px" zoomAndPan="magnify"><defs/><g><g id="SESION_CERRADA"><rect fill="#F1F1F1" height="50" rx="12.5" ry="12.5" style="stroke:#181818;stroke-width:0.5;" width="145" x="137" y="7"/><line style="stroke:#181818;stroke-width:0.5;" x1="137" x2="282" y1="34.6094" y2="34.6094"/><text fill="#000000" font-family="sans-serif" font-size="14" lengthAdjust="spacing" textLength="125" x="147" y="26.5332">SESION_CERRADA</text></g><path d="M19.5,153 L399.5,153 A12.5,12.5 0 0 1 412,165.5 L412,180.6094 L7,180.6094 L7,165.5 A12.5,12.5 0 0 1 19.5,153 " fill="#F1F1F1" style="stroke:#F1F1F1;stroke-width:1.0;"/><rect fill="none" height="568.6094" rx="12.5" ry="12.5" style="stroke:#181818;stroke-width:0.5;" width="405" x="7" y="153"/><line style="stroke:#181818;stroke-width:0.5;" x1="7" x2="412" y1="180.6094" y2="180.6094"/><text fill="#000000" font-family="sans-serif" font-size="14" lengthAdjust="spacing" textLength="90" x="164.5" y="172.5332">iniciarSesion()</text><g id="iniciarSesion.SolicitandoAcceso"><rect fill="#F1F1F1" height="50" rx="12.5" ry="12.5" style="stroke:#181818;stroke-width:0.5;" width="50" x="114" y="283.6094"/><line style="stroke:#181818;stroke-width:0.5;" x1="114" x2="164" y1="311.2188" y2="311.2188"/><text fill="#000000" font-family="sans-serif" font-size="14" lengthAdjust="spacing" textLength="4" x="137" y="303.1426">&#160;</text></g><g id="iniciarSesion.ProporcionandoCredenciales"><rect fill="#F1F1F1" height="50" rx="12.5" ry="12.5" style="stroke:#181818;stroke-width:0.5;" width="50" x="19" y="438.6094"/><line style="stroke:#181818;stroke-width:0.5;" x1="19" x2="69" y1="466.2188" y2="466.2188"/><text fill="#000000" font-family="sans-serif" font-size="14" lengthAdjust="spacing" textLength="4" x="42" y="458.1426">&#160;</text></g><g id="elem_c"><polygon fill="#F1F1F1" points="144,593.6094,156,605.6094,144,617.6094,132,605.6094,144,593.6094" style="stroke:#181818;stroke-width:0.5;"/></g><ellipse cx="139" cy="201.6094" fill="#222222" rx="10" ry="10" style="stroke:#222222;stroke-width:1.0;"/><ellipse cx="144" cy="700.6094" fill="none" rx="11" ry="11" style="stroke:#222222;stroke-width:1.0;"/><ellipse cx="144" cy="700.6094" fill="#222222" rx="6" ry="6" style="stroke:#222222;stroke-width:1.0;"/><!--link *start*iniciarSesion to SolicitandoAcceso--><g id="link_*start*iniciarSesion_SolicitandoAcceso"><path d="M139,211.9294 C139,227.7894 139,254.5194 139,277.2494 " fill="none" id="*start*iniciarSesion-to-SolicitandoAcceso" style="stroke:#008000;stroke-width:1.0;"/><polygon fill="#008000" points="139,283.2494,143,274.2494,139,278.2494,135,274.2494,139,283.2494" style="stroke:#008000;stroke-width:1.0;"/><path d="M144,234.6094 L144,260.6094 L403,260.6094 L403,244.6094 L393,234.6094 L144,234.6094 " fill="#FEFFDD" style="stroke:#181818;stroke-width:0.5;"/><path d="M393,234.6094 L393,244.6094 L403,244.6094 L393,234.6094 " fill="#FEFFDD" style="stroke:#181818;stroke-width:0.5;"/><text fill="#000000" font-family="sans-serif" font-size="13" font-weight="bold" lengthAdjust="spacing" textLength="79" x="150" y="253.1045">Coordinador</text><text fill="#000000" font-family="sans-serif" font-size="13" lengthAdjust="spacing" textLength="155" x="233" y="253.1045">solicita acceder al sistema</text></g><!--link SolicitandoAcceso to ProporcionandoCredenciales--><g id="link_SolicitandoAcceso_ProporcionandoCredenciales"><path d="M113.76,320.3194 C84.43,332.7594 40,351.6094 40,351.6094 C40,351.6094 40,420.6094 40,420.6094 C40,420.6094 40.2211,422.9664 41.1011,432.2064 " fill="none" id="SolicitandoAcceso-to-ProporcionandoCredenciales" style="stroke:#008000;stroke-width:1.0;"/><polygon fill="#008000" points="41.67,438.1794,44.7987,428.8407,41.196,433.2019,36.8347,429.5992,41.67,438.1794" style="stroke:#008000;stroke-width:1.0;"/><path d="M45,356.6094 L45,415.6094 L221,415.6094 L221,366.6094 L211,356.6094 L45,356.6094 " fill="#FEFFDD" style="stroke:#181818;stroke-width:0.5;"/><path d="M211,356.6094 L211,366.6094 L221,366.6094 L211,356.6094 " fill="#FEFFDD" style="stroke:#181818;stroke-width:0.5;"/><text fill="#000000" font-family="sans-serif" font-size="13" font-weight="bold" lengthAdjust="spacing" textLength="51" x="51" y="375.1045">Sistema</text><text fill="#000000" font-family="sans-serif" font-size="13" lengthAdjust="spacing" textLength="100" x="106" y="375.1045">permite introducir</text><text fill="#000000" font-family="sans-serif" font-size="13" lengthAdjust="spacing" textLength="51" x="51" y="391.4561">&#8226; usuario</text><text fill="#000000" font-family="sans-serif" font-size="13" lengthAdjust="spacing" textLength="73" x="51" y="407.8076">&#8226; contrase&#241;a</text></g><!--link ProporcionandoCredenciales to c--><g id="link_ProporcionandoCredenciales_c"><path d="M47.25,488.6994 C51.67,521.3394 59,575.6094 59,575.6094 C59,575.6094 108.361,592.4532 129.861,599.7832 " fill="none" id="ProporcionandoCredenciales-to-c" style="stroke:#008000;stroke-width:1.0;"/><polygon fill="#008000" points="135.54,601.7194,128.3122,595.0291,130.8075,600.1059,125.7307,602.6012,135.54,601.7194" style="stroke:#008000;stroke-width:1.0;"/><path d="M64,511.6094 L64,570.6094 L221,570.6094 L221,521.6094 L211,511.6094 L64,511.6094 " fill="#FEFFDD" style="stroke:#181818;stroke-width:0.5;"/><path d="M211,511.6094 L211,521.6094 L221,521.6094 L211,511.6094 " fill="#FEFFDD" style="stroke:#181818;stroke-width:0.5;"/><text fill="#000000" font-family="sans-serif" font-size="13" font-weight="bold" lengthAdjust="spacing" textLength="79" x="70" y="530.1045">Coordinador</text><text fill="#000000" font-family="sans-serif" font-size="13" lengthAdjust="spacing" textLength="53" x="153" y="530.1045">introduce</text><text fill="#000000" font-family="sans-serif" font-size="13" lengthAdjust="spacing" textLength="51" x="70" y="546.4561">&#8226; usuario</text><text fill="#000000" font-family="sans-serif" font-size="13" lengthAdjust="spacing" textLength="73" x="70" y="562.8076">&#8226; contrase&#241;a</text></g><!--link c to SolicitandoAcceso--><g id="link_c_SolicitandoAcceso"><path d="M152.16,601.7194 C172.9,594.3894 226,575.6094 226,575.6094 C226,575.6094 226,351.6094 226,351.6094 C226,351.6094 195.2639,336.7667 169.5639,324.3667 " fill="none" id="c-to-SolicitandoAcceso" style="stroke:#FF0000;stroke-width:1.0;"/><polygon fill="#FF0000" points="164.16,321.7594,170.5276,329.2729,168.6632,323.9321,174.004,322.0678,164.16,321.7594" style="stroke:#FF0000;stroke-width:1.0;"/><path d="M231,450.6094 L231,476.6094 L393,476.6094 L393,460.6094 L383,450.6094 L231,450.6094 " fill="#FEFFDD" style="stroke:#181818;stroke-width:0.5;"/><path d="M383,450.6094 L383,460.6094 L393,460.6094 L383,450.6094 " fill="#FEFFDD" style="stroke:#181818;stroke-width:0.5;"/><text fill="#000000" font-family="sans-serif" font-size="13" lengthAdjust="spacing" textLength="141" x="237" y="469.1045">credenciales incorrectas</text></g><!--link c to *end*iniciarSesion--><g id="link_c_*end*iniciarSesion"><path d="M144,617.6394 C144,635.8294 144,665.8394 144,683.4394 " fill="none" id="c-to-*end*iniciarSesion" style="stroke:#008000;stroke-width:1.0;"/><polygon fill="#008000" points="144,689.4394,148,680.4394,144,684.4394,140,680.4394,144,689.4394" style="stroke:#008000;stroke-width:1.0;"/><path d="M149,640.6094 L149,666.6094 L301,666.6094 L301,650.6094 L291,640.6094 L149,640.6094 " fill="#FEFFDD" style="stroke:#181818;stroke-width:0.5;"/><path d="M291,640.6094 L291,650.6094 L301,650.6094 L291,640.6094 " fill="#FEFFDD" style="stroke:#181818;stroke-width:0.5;"/><text fill="#000000" font-family="sans-serif" font-size="13" lengthAdjust="spacing" textLength="131" x="155" y="659.1045">credenciales correctas</text></g><g id="PANEL_PRINCIPAL_ABIERTO"><rect fill="#F1F1F1" height="50" rx="12.5" ry="12.5" style="stroke:#181818;stroke-width:0.5;" width="210" x="104.5" y="818"/><line style="stroke:#181818;stroke-width:0.5;" x1="104.5" x2="314.5" y1="845.6094" y2="845.6094"/><text fill="#000000" font-family="sans-serif" font-size="14" lengthAdjust="spacing" textLength="190" x="114.5" y="837.5332">PANEL_PRINCIPAL_ABIERTO</text></g><!--link SESION_CERRADA to iniciarSesion--><g id="link_SESION_CERRADA_iniciarSesion"><path d="M209.5,57.03 C209.5,78.75 209.5,107.32 209.5,146.97 " fill="none" id="SESION_CERRADA-to-iniciarSesion" style="stroke:#008000;stroke-width:1.0;"/><polygon fill="#008000" points="209.5,152.97,213.5,143.97,209.5,147.97,205.5,143.97,209.5,152.97" style="stroke:#008000;stroke-width:1.0;"/><path d="M214.5,92 L214.5,118 L466.5,118 L466.5,102 L456.5,92 L214.5,92 " fill="#FEFFDD" style="stroke:#181818;stroke-width:0.5;"/><path d="M456.5,92 L456.5,102 L466.5,102 L456.5,92 " fill="#FEFFDD" style="stroke:#181818;stroke-width:0.5;"/><text fill="#000000" font-family="sans-serif" font-size="13" font-weight="bold" lengthAdjust="spacing" textLength="79" x="220.5" y="110.4951">Coordinador</text><text fill="#000000" font-family="sans-serif" font-size="13" lengthAdjust="spacing" textLength="148" x="303.5" y="110.4951">selecciona iniciarSesion()</text></g><!--link iniciarSesion to PANEL_PRINCIPAL_ABIERTO--><g id="link_iniciarSesion_PANEL_PRINCIPAL_ABIERTO"><path d="M209.5,722.03 C209.5,761.46 209.5,789.87 209.5,811.61 " fill="none" id="iniciarSesion-to-PANEL_PRINCIPAL_ABIERTO" style="stroke:#008000;stroke-width:1.0;"/><polygon fill="#008000" points="209.5,817.61,213.5,808.61,209.5,812.61,205.5,808.61,209.5,817.61" style="stroke:#008000;stroke-width:1.0;"/><path d="M214.5,757 L214.5,783 L461.5,783 L461.5,767 L451.5,757 L214.5,757 " fill="#FEFFDD" style="stroke:#181818;stroke-width:0.5;"/><path d="M451.5,757 L451.5,767 L461.5,767 L451.5,757 " fill="#FEFFDD" style="stroke:#181818;stroke-width:0.5;"/><text fill="#000000" font-family="sans-serif" font-size="13" font-weight="bold" lengthAdjust="spacing" textLength="79" x="220.5" y="775.4951">Coordinador</text><text fill="#000000" font-family="sans-serif" font-size="13" lengthAdjust="spacing" textLength="143" x="303.5" y="775.4951">accede al panel principal</text></g><!--SRC=[dLDHIiD04FtVKmprHuNY1K8Wndm4IbiI_qefqysWIzETi9j-514yYpVm3Dx4axX9j7LjIgjP2CpkUs_UpCxQbT8L6bn3gJJLsugWudBR14BaIPvEneiuoRBeBeBXxEB14EdvC0IbbLHeShAAjT1S4x1kD5OYM8OniocKne9DSBCCmL99KZea-iJBAq6wW8OkXAtHgNZdW1O6lnW3U182tDVX1suvLCwbGzMe2uwa9Ck7aAdXYathmg5YGmLf9roI_O6L40JoaPMaCEpIpAxdNkNzcRmED1jzNVXY0ZfUGGQm1AjiJMjiAVjMDD517i_5YMBwxEHTgjPAHMQjscxNXekDLAP5VRoymiPkq2ZUnP8T1Yszl_MvFEx3iolFRjAt8_gd8TdaTJR-S5Nofskb9Hj3iaPxJ7rNbHkDCnIFw3qBuS-wTxtHE1ajfbawZjDfD5f4jscItKzEFhHkifh1gb2J-njNZwgmtB-pJm00]--></g></svg>