<svg xmlns="http://www.w3.org/2000/svg" xmlns:xlink="http://www.w3.org/1999/xlink" contentStyleType="text/css" data-diagram-type="STATE" height="677px" preserveAspectRatio="none" style="width:479px;height:677px;background:#FFFFFF;" version="1.1" viewBox="0 0 479 677" width="479px" zoomAndPan="magnify"><defs/><g><path d="M19.5,7 L453.5,7 A12.5,12.5 0 0 1 466,19.5 L466,33.2969 L7,33.2969 L7,19.5 A12.5,12.5 0 0 1 19.5,7" fill="#F1F1F1"/><rect fill="none" height="519.2969" rx="12.5" ry="12.5" style="stroke:#181818;stroke-width:0.5;" width="459" x="7" y="7"/><line style="stroke:#181818;stroke-width:0.5;" x1="7" x2="466" y1="33.2969" y2="33.2969"/><text fill="#000000" font-family="sans-serif" font-size="14" lengthAdjust="spacing" textLength="182.123" x="145.4385" y="24.9951">solicitarEliminacionPerfil()</text><g><rect fill="#F1F1F1" height="50" rx="12.5" ry="12.5" style="stroke:#181818;stroke-width:0.5;" width="50" x="19" y="135.2969"/><line style="stroke:#181818;stroke-width:0.5;" x1="19" x2="69" y1="161.5938" y2="161.5938"/><text fill="#000000" font-family="sans-serif" font-size="14" lengthAdjust="spacing" textLength="4.4502" x="41.7749" y="153.292">&#160;</text></g><g><rect fill="#F1F1F1" height="50" rx="12.5" ry="12.5" style="stroke:#181818;stroke-width:0.5;" width="50" x="19" y="271.2969"/><line style="stroke:#181818;stroke-width:0.5;" x1="19" x2="69" y1="297.5938" y2="297.5938"/><text fill="#000000" font-family="sans-serif" font-size="14" lengthAdjust="spacing" textLength="4.4502" x="41.7749" y="289.292">&#160;</text></g><g><rect fill="#F1F1F1" height="50" rx="12.5" ry="12.5" style="stroke:#181818;stroke-width:0.5;" width="50" x="19" y="407.2969"/><line style="stroke:#181818;stroke-width:0.5;" x1="19" x2="69" y1="433.5938" y2="433.5938"/><text fill="#000000" font-family="sans-serif" font-size="14" lengthAdjust="spacing" textLength="4.4502" x="41.7749" y="425.292">&#160;</text></g><ellipse cx="44" cy="54.2969" fill="#222222" rx="10" ry="10" style="stroke:#222222;stroke-width:1;"/><ellipse cx="44" cy="505.2969" fill="none" rx="11" ry="11" style="stroke:#222222;stroke-width:1;"/><ellipse cx="44" cy="505.2969" fill="#222222" rx="6" ry="6" style="stroke:#222222;stroke-width:1;"/><!--link *start*solicitarEliminacionPerfil to SeleccionandoPerfil--><g class="link" data-entity-1="ent0002" data-entity-2="ent0003" data-link-type="dependency" data-source-line="9" id="lnk3"><path d="M44,64.5269 C44,80.2369 44,106.6569 44,129.1669" fill="none" id="*start*solicitarEliminacionPerfil-to-SeleccionandoPerfil" style="stroke:#008000;stroke-width:1;"/><polygon fill="#008000" points="44,135.1669,48,126.1669,44,130.1669,40,126.1669,44,135.1669" style="stroke:#008000;stroke-width:1;"/><path d="M49,87.2969 L49,112.2969 L381,112.2969 L381,97.2969 L371,87.2969 L49,87.2969" fill="#FEFFDD" style="stroke:#181818;stroke-width:0.5;"/><path d="M371,87.2969 L371,97.2969 L381,97.2969 L371,87.2969" fill="#FEFFDD" style="stroke:#181818;stroke-width:0.5;"/><text fill="#000000" font-family="sans-serif" font-size="13" font-weight="bold" lengthAdjust="spacing" textLength="90.251" x="55" y="104.3638">Coordinador</text><text fill="#000000" font-family="sans-serif" font-size="13" lengthAdjust="spacing" textLength="217.3247" x="149.3833" y="104.3638">solicita la eliminacion de su perfil</text></g><!--link SeleccionandoPerfil to ConfirmandoSolicitud--><g class="link" data-entity-1="ent0003" data-entity-2="ent0004" data-link-type="dependency" data-source-line="14" id="lnk4"><path d="M44,185.5669 C44,209.8469 44,240.9869 44,265.2069" fill="none" id="SeleccionandoPerfil-to-ConfirmandoSolicitud" style="stroke:#008000;stroke-width:1;"/><polygon fill="#008000" points="44,271.2069,48,262.2069,44,266.2069,40,262.2069,44,271.2069" style="stroke:#008000;stroke-width:1;"/><path d="M49,208.2969 L49,248.2969 L457,248.2969 L457,218.2969 L447,208.2969 L49,208.2969" fill="#FEFFDD" style="stroke:#181818;stroke-width:0.5;"/><path d="M447,208.2969 L447,218.2969 L457,218.2969 L447,208.2969" fill="#FEFFDD" style="stroke:#181818;stroke-width:0.5;"/><text fill="#000000" font-family="sans-serif" font-size="13" font-weight="bold" lengthAdjust="spacing" textLength="58.9063" x="55" y="225.3638">Sistema</text><text fill="#000000" font-family="sans-serif" font-size="13" lengthAdjust="spacing" textLength="324.2383" x="118.0386" y="225.3638">presenta confirmaci&#243;n de solicitud de eliminaci&#243;n</text><text fill="#000000" font-family="sans-serif" font-size="13" lengthAdjust="spacing" textLength="148.2178" x="55" y="240.4966">&#8226; Confirmar o cancelar</text></g><!--link ConfirmandoSolicitud to SolicitudEnviada--><g class="link" data-entity-1="ent0004" data-entity-2="ent0005" data-link-type="dependency" data-source-line="20" id="lnk5"><path d="M44,321.5669 C44,345.8469 44,376.9869 44,401.2069" fill="none" id="ConfirmandoSolicitud-to-SolicitudEnviada" style="stroke:#008000;stroke-width:1;"/><polygon fill="#008000" points="44,407.2069,48,398.2069,44,402.2069,40,398.2069,44,407.2069" style="stroke:#008000;stroke-width:1;"/><path d="M49,344.2969 L49,384.2969 L424,384.2969 L424,354.2969 L414,344.2969 L49,344.2969" fill="#FEFFDD" style="stroke:#181818;stroke-width:0.5;"/><path d="M414,344.2969 L414,354.2969 L424,354.2969 L414,344.2969" fill="#FEFFDD" style="stroke:#181818;stroke-width:0.5;"/><text fill="#000000" font-family="sans-serif" font-size="13" font-weight="bold" lengthAdjust="spacing" textLength="90.251" x="55" y="361.3638">Coordinador</text><text fill="#000000" font-family="sans-serif" font-size="13" lengthAdjust="spacing" textLength="191.5405" x="149.3833" y="361.3638">solicita confirmar eliminaci&#243;n</text><text fill="#000000" font-family="sans-serif" font-size="13" font-weight="bold" lengthAdjust="spacing" textLength="58.9063" x="55" y="376.4966">Sistema</text><text fill="#000000" font-family="sans-serif" font-size="13" lengthAdjust="spacing" textLength="291.2559" x="118.0386" y="376.4966">permite confirmar la solicitud de eliminaci&#243;n</text></g><!--link SolicitudEnviada to *end*solicitarEliminacionPerfil--><g class="link" data-entity-1="ent0005" data-entity-2="ent0006" data-link-type="dependency" data-source-line="27" id="lnk7"><path d="M44,457.7269 C44,470.0869 44,478.4269 44,487.8969" fill="none" id="SolicitudEnviada-to-*end*solicitarEliminacionPerfil" style="stroke:#008000;stroke-width:1;"/><polygon fill="#008000" points="44,493.8969,48,484.8969,44,488.8969,40,484.8969,44,493.8969" style="stroke:#008000;stroke-width:1;"/></g><g><rect fill="#F1F1F1" height="50" rx="12.5" ry="12.5" style="stroke:#181818;stroke-width:0.5;" width="213.0879" x="129.96" y="621.3"/><line style="stroke:#181818;stroke-width:0.5;" x1="129.96" x2="343.0479" y1="647.5969" y2="647.5969"/><text fill="#000000" font-family="sans-serif" font-size="14" lengthAdjust="spacing" textLength="193.0879" x="139.96" y="639.2951">PANEL_PRINCIPAL_ABIERTO</text></g><!--link solicitarEliminacionPerfil to PANEL_PRINCIPAL_ABIERTO--><g class="link" data-entity-1="ent0002" data-entity-2="ent0008" data-link-type="dependency" data-source-line="31" id="lnk9"><path d="M236.5,526.59 C236.5,565.27 236.5,593.38 236.5,614.99" fill="none" id="solicitarEliminacionPerfil-to-PANEL_PRINCIPAL_ABIERTO" style="stroke:#008000;stroke-width:1;"/><polygon fill="#008000" points="236.5,620.99,240.5,611.99,236.5,615.99,232.5,611.99,236.5,620.99" style="stroke:#008000;stroke-width:1;"/><path d="M241.5,561.3 L241.5,586.3 L354.5,586.3 L354.5,571.3 L344.5,561.3 L241.5,561.3" fill="#FEFFDD" style="stroke:#181818;stroke-width:0.5;"/><path d="M344.5,561.3 L344.5,571.3 L354.5,571.3 L344.5,561.3" fill="#FEFFDD" style="stroke:#181818;stroke-width:0.5;"/><text fill="#000000" font-family="sans-serif" font-size="13" lengthAdjust="spacing" textLength="92.5044" x="247.5" y="578.3669">iniciarSesion()</text></g><!--SRC=[bP9HQi9048RVSuh5lcX1UW4HhEH141jCtqHat1tBucOsxCQ2b4BFqYlq2Br9Jz99jiP6aqAJfzsP-UVxPyVlDUNW81D64nR774LkpR4yH94le43XhT5I5-1YepDD8BMb1DrE6m5UzBh3_K5Fl4IHu2yezVZdaXGDoZ8DIDcGUfqqjRJJBYjJqj3Xe5gaJg6OdZKe2DrMjsinNDqyEKHQ3yUT3ScoagNI-hww66t7KskTOXlAkj7TTbox5mO4dXqAnOCvYFmiXgGgmO3GqhA1r6clZIdLli0CAfxSeKTY7lcZ8FNdHy0vwPI76fM3bSpNstlTr0ah99140ww5lOsjES_BgVzxcB8ckGAzz8ikqwnyhk27-DjgqqruZWlYXXrUbp8fUkMDxzxrtnN9P17FDybojfZEaibyCxcVnSl7XwWn0qqi1Iv5poBzGNJ2-WO0]--></g></svg>