<?xml version="1.0" encoding="us-ascii" standalone="no"?><svg xmlns="http://www.w3.org/2000/svg" xmlns:xlink="http://www.w3.org/1999/xlink" contentStyleType="text/css" height="791px" preserveAspectRatio="none" style="width:892px;height:791px;background:#FFFFFF;" version="1.1" viewBox="0 0 892 791" width="892px" zoomAndPan="magnify"><defs/><g><g id="in1"><rect fill="#F1F1F1" height="50" rx="12.5" ry="12.5" style="stroke:#181818;stroke-width:0.5;" width="198" x="295" y="7"/><line style="stroke:#181818;stroke-width:0.5;" x1="295" x2="493" y1="34.6094" y2="34.6094"/><text fill="#000000" font-family="sans-serif" font-size="14" lengthAdjust="spacing" textLength="178" x="305" y="26.5332">MI_PUBLICACION_ABIERTA</text></g><path d="M47,118 L741,118 A12.5,12.5 0 0 1 753.5,130.5 L753.5,145.6094 L34.5,145.6094 L34.5,130.5 A12.5,12.5 0 0 1 47,118 " fill="#F1F1F1" style="stroke:#F1F1F1;stroke-width:1.0;"/><rect fill="none" height="520.6094" rx="12.5" ry="12.5" style="stroke:#181818;stroke-width:0.5;" width="719" x="34.5" y="118"/><line style="stroke:#181818;stroke-width:0.5;" x1="34.5" x2="753.5" y1="145.6094" y2="145.6094"/><text fill="#000000" font-family="sans-serif" font-size="14" lengthAdjust="spacing" textLength="118" x="335" y="137.5332">editarPublicacion()</text><g id="editarPublicacion.MostrandoPublicacion"><rect fill="#F1F1F1" height="50" rx="12.5" ry="12.5" style="stroke:#181818;stroke-width:0.5;" width="50" x="234.5" y="264.6094"/><line style="stroke:#181818;stroke-width:0.5;" x1="234.5" x2="284.5" y1="292.2188" y2="292.2188"/><text fill="#000000" font-family="sans-serif" font-size="14" lengthAdjust="spacing" textLength="4" x="257.5" y="284.1426">&#160;</text></g><g id="editarPublicacion.EditandoDatos"><rect fill="#F1F1F1" height="50" rx="12.5" ry="12.5" style="stroke:#181818;stroke-width:0.5;" width="50" x="234.5" y="468.6094"/><line style="stroke:#181818;stroke-width:0.5;" x1="234.5" x2="284.5" y1="496.2188" y2="496.2188"/><text fill="#000000" font-family="sans-serif" font-size="14" lengthAdjust="spacing" textLength="4" x="257.5" y="488.1426">&#160;</text></g><ellipse cx="259.5" cy="166.6094" fill="#222222" rx="10" ry="10" style="stroke:#222222;stroke-width:1.0;"/><ellipse cx="259.5" cy="617.6094" fill="none" rx="11" ry="11" style="stroke:#222222;stroke-width:1.0;"/><ellipse cx="259.5" cy="617.6094" fill="#222222" rx="6" ry="6" style="stroke:#222222;stroke-width:1.0;"/><!--link *start*editarPublicacion to MostrandoPublicacion--><g id="link_*start*editarPublicacion_MostrandoPublicacion"><path d="M259.5,176.6994 C259.5,195.1694 259.5,231.5894 259.5,258.5794 " fill="none" id="*start*editarPublicacion-to-MostrandoPublicacion" style="stroke:#008000;stroke-width:1.0;"/><polygon fill="#008000" points="259.5,264.5794,263.5,255.5794,259.5,259.5794,255.5,255.5794,259.5,264.5794" style="stroke:#008000;stroke-width:1.0;"/><path d="M264.5,199.6094 L264.5,241.6094 L572.5,241.6094 L572.5,209.6094 L562.5,199.6094 L264.5,199.6094 " fill="#FEFFDD" style="stroke:#181818;stroke-width:0.5;"/><path d="M562.5,199.6094 L562.5,209.6094 L572.5,209.6094 L562.5,199.6094 " fill="#FEFFDD" style="stroke:#181818;stroke-width:0.5;"/><text fill="#000000" font-family="sans-serif" font-size="13" font-weight="bold" lengthAdjust="spacing" textLength="79" x="270.5" y="218.1045">Coordinador</text><text fill="#000000" font-family="sans-serif" font-size="13" lengthAdjust="spacing" textLength="204" x="353.5" y="218.1045">tiene una publicaci&#243;n propia abierta</text><text fill="#000000" font-family="sans-serif" font-size="13" font-weight="bold" lengthAdjust="spacing" textLength="79" x="270.5" y="234.4561">Coordinador</text><text fill="#000000" font-family="sans-serif" font-size="13" lengthAdjust="spacing" textLength="146" x="353.5" y="234.4561">solicita editar publicaci&#243;n</text></g><!--link MostrandoPublicacion to EditandoDatos--><g id="link_MostrandoPublicacion_EditandoDatos"><path d="M234.11,295.5894 C177.42,306.7194 45.5,332.6094 45.5,332.6094 C45.5,332.6094 45.5,450.6094 45.5,450.6094 C45.5,450.6094 171.5324,475.3435 228.2224,486.4735 " fill="none" id="MostrandoPublicacion-to-EditandoDatos" style="stroke:#008000;stroke-width:1.0;"/><polygon fill="#008000" points="234.11,487.6294,226.0492,481.9704,229.2037,486.6661,224.508,489.8206,234.11,487.6294" style="stroke:#008000;stroke-width:1.0;"/><path d="M50.5,337.6094 L50.5,445.6094 L448.5,445.6094 L448.5,347.6094 L438.5,337.6094 L50.5,337.6094 " fill="#FEFFDD" style="stroke:#181818;stroke-width:0.5;"/><path d="M438.5,337.6094 L438.5,347.6094 L448.5,347.6094 L438.5,337.6094 " fill="#FEFFDD" style="stroke:#181818;stroke-width:0.5;"/><text fill="#000000" font-family="sans-serif" font-size="13" font-weight="bold" lengthAdjust="spacing" textLength="51" x="56.5" y="356.1045">Sistema</text><text fill="#000000" font-family="sans-serif" font-size="13" lengthAdjust="spacing" textLength="322" x="111.5" y="356.1045">presenta el formulario de edici&#243;n con los datos actuales</text><text fill="#000000" font-family="sans-serif" font-size="13" lengthAdjust="spacing" textLength="40" x="56.5" y="372.4561">&#8226; T&#237;tulo</text><text fill="#000000" font-family="sans-serif" font-size="13" lengthAdjust="spacing" textLength="176" x="56.5" y="388.8076">&#8226; Estado (borrador / publicada)</text><text fill="#000000" font-family="sans-serif" font-size="13" lengthAdjust="spacing" textLength="173" x="56.5" y="405.1592">&#8226; Visibilidad (p&#250;blica / privada)</text><text fill="#000000" font-family="sans-serif" font-size="13" lengthAdjust="spacing" textLength="77" x="56.5" y="421.5107">&#8226; Descripci&#243;n</text><text fill="#000000" font-family="sans-serif" font-size="13" lengthAdjust="spacing" textLength="120" x="56.5" y="437.8623">&#8226; Adjuntos (opcional)</text></g><!--link EditandoDatos to *end*editarPublicacion--><g id="link_EditandoDatos_*end*editarPublicacion"><path d="M259.5,518.7094 C259.5,545.3794 259.5,581.1094 259.5,600.3094 " fill="none" id="EditandoDatos-to-*end*editarPublicacion" style="stroke:#008000;stroke-width:1.0;"/><polygon fill="#008000" points="259.5,606.3094,263.5,597.3094,259.5,601.3094,255.5,597.3094,259.5,606.3094" style="stroke:#008000;stroke-width:1.0;"/><path d="M264.5,541.6094 L264.5,583.6094 L630.5,583.6094 L630.5,551.6094 L620.5,541.6094 L264.5,541.6094 " fill="#FEFFDD" style="stroke:#181818;stroke-width:0.5;"/><path d="M620.5,541.6094 L620.5,551.6094 L630.5,551.6094 L620.5,541.6094 " fill="#FEFFDD" style="stroke:#181818;stroke-width:0.5;"/><text fill="#000000" font-family="sans-serif" font-size="13" font-weight="bold" lengthAdjust="spacing" textLength="79" x="270.5" y="560.1045">Coordinador</text><text fill="#000000" font-family="sans-serif" font-size="13" lengthAdjust="spacing" textLength="92" x="353.5" y="560.1045">guarda cambios</text><text fill="#000000" font-family="sans-serif" font-size="13" font-weight="bold" lengthAdjust="spacing" textLength="51" x="270.5" y="576.4561">Sistema</text><text fill="#000000" font-family="sans-serif" font-size="13" lengthAdjust="spacing" textLength="290" x="325.5" y="576.4561">actualiza la publicaci&#243;n y mantiene la vista abierta</text></g><!--link EditandoDatos to MostrandoPublicacion--><g id="link_EditandoDatos_MostrandoPublicacion"><path d="M284.86,487.1194 C337.45,475.7294 453.5,450.6094 453.5,450.6094 C453.5,450.6094 453.5,332.6094 453.5,332.6094 C453.5,332.6094 343.314,308.7594 290.724,297.3694 " fill="none" id="EditandoDatos-to-MostrandoPublicacion" style="stroke:#FF0000;stroke-width:1.0;"/><polygon fill="#FF0000" points="284.86,296.0994,292.8094,301.9138,289.7467,297.1577,294.5028,294.0951,284.86,296.0994" style="stroke:#FF0000;stroke-width:1.0;"/><path d="M458.5,370.6094 L458.5,412.6094 L744.5,412.6094 L744.5,380.6094 L734.5,370.6094 L458.5,370.6094 " fill="#FEFFDD" style="stroke:#181818;stroke-width:0.5;"/><path d="M734.5,370.6094 L734.5,380.6094 L744.5,380.6094 L734.5,370.6094 " fill="#FEFFDD" style="stroke:#181818;stroke-width:0.5;"/><text fill="#000000" font-family="sans-serif" font-size="13" font-weight="bold" lengthAdjust="spacing" textLength="79" x="464.5" y="389.1045">Coordinador</text><text fill="#000000" font-family="sans-serif" font-size="13" lengthAdjust="spacing" textLength="104" x="547.5" y="389.1045">cancela la edici&#243;n</text><text fill="#000000" font-family="sans-serif" font-size="13" font-weight="bold" lengthAdjust="spacing" textLength="51" x="464.5" y="405.4561">Sistema</text><text fill="#000000" font-family="sans-serif" font-size="13" lengthAdjust="spacing" textLength="210" x="519.5" y="405.4561">mantiene la publicaci&#243;n sin cambios</text></g><g id="MI_PUBLICACION_ABIERTA"><rect fill="#F1F1F1" height="50" rx="12.5" ry="12.5" style="stroke:#181818;stroke-width:0.5;" width="198" x="118" y="735"/><line style="stroke:#181818;stroke-width:0.5;" x1="118" x2="316" y1="762.6094" y2="762.6094"/><text fill="#000000" font-family="sans-serif" font-size="14" lengthAdjust="spacing" textLength="178" x="128" y="754.5332">MI_PUBLICACION_ABIERTA</text></g><g id="MIS_PUBLICACIONES_ABIERTAS"><rect fill="#F1F1F1" height="50" rx="12.5" ry="12.5" style="stroke:#181818;stroke-width:0.5;" width="234" x="550" y="735"/><line style="stroke:#181818;stroke-width:0.5;" x1="550" x2="784" y1="762.6094" y2="762.6094"/><text fill="#000000" font-family="sans-serif" font-size="14" lengthAdjust="spacing" textLength="214" x="560" y="754.5332">MIS_PUBLICACIONES_ABIERTAS</text></g><!--link in1 to editarPublicacion--><g id="link_in1_editarPublicacion"><path d="M394,57.22 C394,72.31 394,87.45 394,111.74 " fill="none" id="in1-to-editarPublicacion" style="stroke:#008000;stroke-width:1.0;"/><polygon fill="#008000" points="394,117.74,398,108.74,394,112.74,390,108.74,394,117.74" style="stroke:#008000;stroke-width:1.0;"/></g><!--link editarPublicacion to MI_PUBLICACION_ABIERTA--><g id="link_editarPublicacion_MI_PUBLICACION_ABIERTA"><path d="M46.06,639.11 C21.4,657.51 6,669 6,669 C6,669 6,705 6,705 C6,705 60.8373,719.0325 117.1073,733.4325 " fill="none" id="editarPublicacion-to-MI_PUBLICACION_ABIERTA" style="stroke:#008000;stroke-width:1.0;"/><polygon fill="#008000" points="122.92,734.92,115.1927,728.8136,118.0761,733.6804,113.2093,736.5638,122.92,734.92" style="stroke:#008000;stroke-width:1.0;"/><path d="M11,674 L11,700 L169,700 L169,684 L159,674 L11,674 " fill="#FEFFDD" style="stroke:#181818;stroke-width:0.5;"/><path d="M159,674 L159,684 L169,684 L159,674 " fill="#FEFFDD" style="stroke:#181818;stroke-width:0.5;"/><text fill="#000000" font-family="sans-serif" font-size="13" lengthAdjust="spacing" textLength="137" x="17" y="692.4951">Publicaci&#243;n actualizada</text></g><!--link editarPublicacion to MI_PUBLICACION_ABIERTA--><g id="link_editarPublicacion_MI_PUBLICACION_ABIERTA"><path d="M232.59,639.11 C221.14,657.51 214,669 214,669 C214,669 214,705 214,705 C214,705 214.5265,714.4793 215.3265,728.8493 " fill="none" id="editarPublicacion-to-MI_PUBLICACION_ABIERTA-1" style="stroke:#FF0000;stroke-width:1.0;"/><polygon fill="#FF0000" points="215.66,734.84,219.1535,725.6316,215.3821,729.8477,211.1659,726.0763,215.66,734.84" style="stroke:#FF0000;stroke-width:1.0;"/><path d="M219,674 L219,700 L346,700 L346,684 L336,674 L219,674 " fill="#FEFFDD" style="stroke:#181818;stroke-width:0.5;"/><path d="M336,674 L336,684 L346,684 L336,674 " fill="#FEFFDD" style="stroke:#181818;stroke-width:0.5;"/><text fill="#000000" font-family="sans-serif" font-size="13" lengthAdjust="spacing" textLength="106" x="225" y="692.4951">Edici&#243;n cancelada</text></g><!--link editarPublicacion to MI_PUBLICACION_ABIERTA--><g id="link_editarPublicacion_MI_PUBLICACION_ABIERTA"><path d="M362.89,639.13 C358.26,677.8 355,705 355,705 C355,705 321.068,718.285 284.318,732.655 " fill="none" id="editarPublicacion-to-MI_PUBLICACION_ABIERTA-2" style="stroke:#008000;stroke-width:1.0;"/><polygon fill="#008000" points="278.73,734.84,288.5687,735.2878,283.3867,733.0191,285.6553,727.8371,278.73,734.84" style="stroke:#008000;stroke-width:1.0;"/><path d="M365,674 L365,700 L493,700 L493,684 L483,674 L365,674 " fill="#FEFFDD" style="stroke:#181818;stroke-width:0.5;"/><path d="M483,674 L483,684 L493,684 L483,674 " fill="#FEFFDD" style="stroke:#181818;stroke-width:0.5;"/><text fill="#000000" font-family="sans-serif" font-size="13" lengthAdjust="spacing" textLength="107" x="371" y="692.4951">editarPublicacion()</text></g><!--link editarPublicacion to MIS_PUBLICACIONES_ABIERTAS--><g id="link_editarPublicacion_MIS_PUBLICACIONES_ABIERTAS"><path d="M533.59,639.13 C554.38,677.8 569,705 569,705 C569,705 591.8144,717.5753 617.9044,731.9453 " fill="none" id="editarPublicacion-to-MIS_PUBLICACIONES_ABIERTAS" style="stroke:#008000;stroke-width:1.0;"/><polygon fill="#008000" points="623.16,734.84,617.2065,726.9943,618.7804,732.4278,613.3469,734.0017,623.16,734.84" style="stroke:#008000;stroke-width:1.0;"/><path d="M574,674 L574,700 L715,700 L715,684 L705,674 L574,674 " fill="#FEFFDD" style="stroke:#181818;stroke-width:0.5;"/><path d="M705,674 L705,684 L715,684 L705,674 " fill="#FEFFDD" style="stroke:#181818;stroke-width:0.5;"/><text fill="#000000" font-family="sans-serif" font-size="13" lengthAdjust="spacing" textLength="120" x="580" y="692.4951">eliminarPublicacion()</text></g><!--link editarPublicacion to MIS_PUBLICACIONES_ABIERTAS--><g id="link_editarPublicacion_MIS_PUBLICACIONES_ABIERTAS"><path d="M689.93,639.11 C710.9,657.51 724,669 724,669 C724,669 724,705 724,705 C724,705 712.0373,716.3452 696.8573,730.7152 " fill="none" id="editarPublicacion-to-MIS_PUBLICACIONES_ABIERTAS-1" style="stroke:#008000;stroke-width:1.0;"/><polygon fill="#008000" points="692.5,734.84,701.7858,731.5577,696.1311,731.4027,696.2861,725.7479,692.5,734.84" style="stroke:#008000;stroke-width:1.0;"/><path d="M729,674 L729,700 L885,700 L885,684 L875,674 L729,674 " fill="#FEFFDD" style="stroke:#181818;stroke-width:0.5;"/><path d="M875,674 L875,684 L885,684 L875,674 " fill="#FEFFDD" style="stroke:#181818;stroke-width:0.5;"/><text fill="#000000" font-family="sans-serif" font-size="13" lengthAdjust="spacing" textLength="135" x="735" y="692.4951">abrirMisPublicaciones()</text></g><!--SRC=[jLJ1QXin4BthAmRtOXT2w3qO76SFXherTTfB265sfOH9j9AGj06t5FejlVVKMw_-atv9fTtiPcMlIKB9xadIp9lttepaxaWPj5Y292NynWWmMcxYWZ7dqGiWzGxGmMYvk5fzFds_cC_cYuyVhcQdY-pJ-Mp4uldHnPiRAuIwF9g2uEJHhgfSKe45QTK2xHtKi7kxuya8lZ46uMloHk4FaKljl4N5THzwBogBS27e3Brs3Sh5syk4u44WfGDEe1NKtzKR9_bqhhNbf91hUtASJy6JK08gXM3QxErl1SPgGmYOax0U3oKx7J82lmSh4eWwHoXUisY83n5DbAHY3qbOa_EYn9g1iS895Hb8kDQsh2HQqi3hxZHIYfYk7V082bZu2gLeqF_- -0ddsr- -ahfRPy5-hc6SQskZK3XkPN6ST55Vo55EaZXo69ljdpeWXbgwJmBFX2iicKTBukQCtrOgiXbh4qr0EHcmAt4ZyIbCmBCRV5EXvGW5bZazcBhZOMC9VKMGErEmWH9LCo7Xw3xaf2Fn15yh-7_FPu6g4BAcrdPqI4EVPoB1aKgqTvI_CxP_WPDhDVW-i8Jqgb-gyv4ZUtHci4Zhp3DAPDqSDquy3VuY1GFFrGlmr_q2sRejiTwf8QaCBNtbAfXRiajoFHpX-dN-0G00]--></g></svg>