<?xml version="1.0" encoding="us-ascii" standalone="no"?><svg xmlns="http://www.w3.org/2000/svg" xmlns:xlink="http://www.w3.org/1999/xlink" contentStyleType="text/css" height="774px" preserveAspectRatio="none" style="width:713px;height:774px;background:#FFFFFF;" version="1.1" viewBox="0 0 713 774" width="713px" zoomAndPan="magnify"><defs/><g><!--cluster cerrarSesion--><g id="cluster_cerrarSesion"><path d="M116.5,112 L455.5,112 A12.5,12.5 0 0 1 468,124.5 L468,134.6094 L104,134.6094 L104,124.5 A12.5,12.5 0 0 1 116.5,112 " fill="#F1F1F1" style="stroke:#F1F1F1;stroke-width:1.0;"/><rect fill="none" height="516" rx="12.5" ry="12.5" style="stroke:#181818;stroke-width:0.5;" width="364" x="104" y="112"/><line style="stroke:#181818;stroke-width:0.5;" x1="104" x2="468" y1="134.6094" y2="134.6094"/><text fill="#000000" font-family="sans-serif" font-size="14" lengthAdjust="spacing" textLength="91" x="240.5" y="130.5332">cerrarSesion()</text></g><g id="cerrarSesion.SolicitandoCierre"><rect fill="#F1F1F1" height="50" rx="12.5" ry="12.5" style="stroke:#181818;stroke-width:0.5;" width="50" x="146" y="272"/><line style="stroke:#181818;stroke-width:0.5;" x1="146" x2="196" y1="299.6094" y2="299.6094"/><text fill="#000000" font-family="sans-serif" font-size="14" lengthAdjust="spacing" textLength="4" x="169" y="291.5332">&#160;</text></g><g id="cerrarSesion.ConfirmandoCierre"><rect fill="#F1F1F1" height="50" rx="12.5" ry="12.5" style="stroke:#181818;stroke-width:0.5;" width="50" x="146" y="434"/><line style="stroke:#181818;stroke-width:0.5;" x1="146" x2="196" y1="461.6094" y2="461.6094"/><text fill="#000000" font-family="sans-serif" font-size="14" lengthAdjust="spacing" textLength="4" x="169" y="453.5332">&#160;</text></g><g id="elem_c"><polygon fill="#F1F1F1" points="301,580,313,592,301,604,289,592,301,580" style="stroke:#181818;stroke-width:0.5;"/></g><ellipse cx="171" cy="166" fill="#222222" rx="10" ry="10" style="stroke:#222222;stroke-width:1.0;"/><g id="PANEL_PRINCIPAL_ABIERTO"><rect fill="#F1F1F1" height="50" rx="12.5" ry="12.5" style="stroke:#181818;stroke-width:0.5;" width="210" x="7" y="7"/><line style="stroke:#181818;stroke-width:0.5;" x1="7" x2="217" y1="34.6094" y2="34.6094"/><text fill="#000000" font-family="sans-serif" font-size="14" lengthAdjust="spacing" textLength="190" x="17" y="26.5332">PANEL_PRINCIPAL_ABIERTO</text></g><g id="SESION_CERRADA"><rect fill="#F1F1F1" height="50" rx="12.5" ry="12.5" style="stroke:#181818;stroke-width:0.5;" width="145" x="228.5" y="718"/><line style="stroke:#181818;stroke-width:0.5;" x1="228.5" x2="373.5" y1="745.6094" y2="745.6094"/><text fill="#000000" font-family="sans-serif" font-size="14" lengthAdjust="spacing" textLength="125" x="238.5" y="737.5332">SESION_CERRADA</text></g><!--link PANEL_PRINCIPAL_ABIERTO to cerrarSesion--><!--link PANEL_PRINCIPAL_ABIERTO to cerrarSesion--><g id="link_PANEL_PRINCIPAL_ABIERTO_cerrarSesion"><path d="M122.73,57.21 C124.2,66.6625 125.085,78.0575 125.3852,89.8498 C125.5352,95.746 125.5391,101.7415 125.3968,107.6432 C125.379,108.3809 125.3589,109.1172 125.3366,109.8516 C125.3254,110.2188 125.3136,110.5855 125.3013,110.9518 C125.2951,111.1349 125.5002,105.3216 125.4938,105.5044 " fill="none" id="PANEL_PRINCIPAL_ABIERTO-to-cerrarSesion-1" style="stroke:#008000;stroke-width:1.0;"/><polygon fill="#008000" points="125.2824,111.5007,129.597,102.6472,125.4585,106.5038,121.602,102.3654,125.2824,111.5007" style="stroke:#008000;stroke-width:1.0;"/></g><!--link *start*cerrarSesion to SolicitandoCierre--><g id="link_*start*cerrarSesion_SolicitandoCierre"><path d="M171,176.28 C171,196.09 171,237.09 171,265.96 " fill="none" id="*start*cerrarSesion-to-SolicitandoCierre" style="stroke:#008000;stroke-width:1.0;"/><polygon fill="#008000" points="171,271.96,175,262.96,171,266.96,167,262.96,171,271.96" style="stroke:#008000;stroke-width:1.0;"/><path d="M176,211 L176,237 L400,237 L400,221 L390,211 L176,211 " fill="#FEFFDD" style="stroke:#181818;stroke-width:0.5;"/><path d="M390,211 L390,221 L400,221 L390,211 " fill="#FEFFDD" style="stroke:#181818;stroke-width:0.5;"/><text fill="#000000" font-family="sans-serif" font-size="13" font-weight="bold" lengthAdjust="spacing" textLength="79" x="182" y="229.4951">Coordinador</text><text fill="#000000" font-family="sans-serif" font-size="13" lengthAdjust="spacing" textLength="120" x="265" y="229.4951">solicita cerrar sesi&#243;n</text></g><!--link SolicitandoCierre to ConfirmandoCierre--><g id="link_SolicitandoCierre_ConfirmandoCierre"><path d="M171,322.3 C171,352.55 171,397.89 171,428 " fill="none" id="SolicitandoCierre-to-ConfirmandoCierre" style="stroke:#008000;stroke-width:1.0;"/><polygon fill="#008000" points="171,434,175,425,171,429,167,425,171,434" style="stroke:#008000;stroke-width:1.0;"/><path d="M176,357 L176,399 L370,399 L370,367 L360,357 L176,357 " fill="#FEFFDD" style="stroke:#181818;stroke-width:0.5;"/><path d="M360,357 L360,367 L370,367 L360,357 " fill="#FEFFDD" style="stroke:#181818;stroke-width:0.5;"/><text fill="#000000" font-family="sans-serif" font-size="13" font-weight="bold" lengthAdjust="spacing" textLength="51" x="182" y="375.4951">Sistema</text><text fill="#000000" font-family="sans-serif" font-size="13" lengthAdjust="spacing" textLength="118" x="237" y="375.4951">solicita confirmaci&#243;n</text><text fill="#000000" font-family="sans-serif" font-size="13" lengthAdjust="spacing" textLength="145" x="182" y="391.8467">&#191;Desea cerrar la sesi&#243;n?</text></g><!--link ConfirmandoCierre to c--><g id="link_ConfirmandoCierre_c"><path d="M169.66,484.16 C168.86,498.53 168,514 168,514 C168,514 168,550 168,550 C168,550 256.9462,577.4228 286.5362,586.5428 " fill="none" id="ConfirmandoCierre-to-c" style="stroke:#008000;stroke-width:1.0;"/><polygon fill="#008000" points="292.27,588.31,284.8474,581.8366,287.4918,586.8373,282.4911,589.4817,292.27,588.31" style="stroke:#008000;stroke-width:1.0;"/><path d="M173,519 L173,545 L436,545 L436,529 L426,519 L173,519 " fill="#FEFFDD" style="stroke:#181818;stroke-width:0.5;"/><path d="M426,519 L426,529 L436,529 L426,519 " fill="#FEFFDD" style="stroke:#181818;stroke-width:0.5;"/><text fill="#000000" font-family="sans-serif" font-size="13" font-weight="bold" lengthAdjust="spacing" textLength="79" x="179" y="537.4951">Coordinador</text><text fill="#000000" font-family="sans-serif" font-size="13" lengthAdjust="spacing" textLength="159" x="262" y="537.4951">confirma o cancela el cierre</text></g><!--link c to PANEL_PRINCIPAL_ABIERTO--><g id="link_c_PANEL_PRINCIPAL_ABIERTO"><path d="M309.58,588.56 C340.58,579.73 445,550 445,550 C445,550 467,460 467,460 C467,165 467,165 467,165 C467,165 284.7138,97.221 182.3238,59.151 " fill="none" id="c-to-PANEL_PRINCIPAL_ABIERTO" style="stroke:#0000FF;stroke-width:1.0;"/><polygon fill="#0000FF" points="176.7,57.06,183.7418,63.9458,181.3865,58.8025,186.5298,56.4473,176.7,57.06" style="stroke:#0000FF;stroke-width:1.0;"/><path d="M472,284 L472,310 L706,310 L706,294 L696,284 L472,284 " fill="#FEFFDD" style="stroke:#181818;stroke-width:0.5;"/><path d="M696,284 L696,294 L706,294 L696,284 " fill="#FEFFDD" style="stroke:#181818;stroke-width:0.5;"/><text fill="#000000" font-family="sans-serif" font-size="13" font-weight="bold" lengthAdjust="spacing" textLength="79" x="478" y="302.4951">Coordinador</text><text fill="#000000" font-family="sans-serif" font-size="13" lengthAdjust="spacing" textLength="130" x="561" y="302.4951">solicita cancelar cierre</text></g><!--link c to SESION_CERRADA--><g id="link_c_SESION_CERRADA"><path d="M301,604.2 C301,628.23 301,679.18 301,711.85 " fill="none" id="c-to-SESION_CERRADA" style="stroke:#008000;stroke-width:1.0;"/><polygon fill="#008000" points="301,717.85,305,708.85,301,712.85,297,708.85,301,717.85" style="stroke:#008000;stroke-width:1.0;"/><path d="M306,657 L306,683 L456,683 L456,667 L446,657 L306,657 " fill="#FEFFDD" style="stroke:#181818;stroke-width:0.5;"/><path d="M446,657 L446,667 L456,667 L446,657 " fill="#FEFFDD" style="stroke:#181818;stroke-width:0.5;"/><text fill="#000000" font-family="sans-serif" font-size="13" font-weight="bold" lengthAdjust="spacing" textLength="51" x="312" y="675.4951">Sistema</text><text fill="#000000" font-family="sans-serif" font-size="13" lengthAdjust="spacing" textLength="74" x="367" y="675.4951">cierra sesi&#243;n</text></g><!--SRC=[ZP9DReCm48NtFiM8RjfAKI-0g2XXWHGH1Dr54NBCjB42DhBf8gfwgXwWKdkncfyG23IgMNdqtdnlnkW35oLLj82S2woE9K8fysDz8IHoGt-LHd4GUa7ahbBtAV3ZvpKiDdkUPIYs2mSOAaLLWffBSSLmywfmna1qHIiSrO1gi8Q5spiBtWa1SrgrPJuZIcJE6Q-eoAJ7ZHwd4a-A5wwAMGa3ssPxoHawJjjzSxyT9Pq726dC9gPPqQ4fs3l7ar9bND1CAljXvu3kdDrWeCqWFv-YaQF8cXujSy8O9PZFFvSWuRh2WbxGEplhuTzVIzJOvyhfAThZJBO9VVoE_zx6AGP8O5GmD5JCWPq7wh4VXB0QiilVi6RyyJ-H4VNg_bkUEj7E0xBnK_j9i0vJpuzZT-bE-W-tstJgzpReI7u1]--></g></svg>