<?xml version="1.0" encoding="us-ascii" standalone="no"?><svg xmlns="http://www.w3.org/2000/svg" xmlns:xlink="http://www.w3.org/1999/xlink" contentStyleType="text/css" height="727px" preserveAspectRatio="none" style="width:547px;height:727px;background:#FFFFFF;" version="1.1" viewBox="0 0 547 727" width="547px" zoomAndPan="magnify"><defs/><g><g id="in1"><rect fill="#F1F1F1" height="50" rx="12.5" ry="12.5" style="stroke:#181818;stroke-width:0.5;" width="198" x="171.5" y="7"/><line style="stroke:#181818;stroke-width:0.5;" x1="171.5" x2="369.5" y1="34.6094" y2="34.6094"/><text fill="#000000" font-family="sans-serif" font-size="14" lengthAdjust="spacing" textLength="178" x="181.5" y="26.5332">MI_PUBLICACION_ABIERTA</text></g><path d="M19.5,118 L521.5,118 A12.5,12.5 0 0 1 534,130.5 L534,145.6094 L7,145.6094 L7,130.5 A12.5,12.5 0 0 1 19.5,118 " fill="#F1F1F1" style="stroke:#F1F1F1;stroke-width:1.0;"/><rect fill="none" height="456.6094" rx="12.5" ry="12.5" style="stroke:#181818;stroke-width:0.5;" width="527" x="7" y="118"/><line style="stroke:#181818;stroke-width:0.5;" x1="7" x2="534" y1="145.6094" y2="145.6094"/><text fill="#000000" font-family="sans-serif" font-size="14" lengthAdjust="spacing" textLength="131" x="205" y="137.5332">eliminarPublicacion()</text><g id="eliminarPublicacion.ConfirmandoEliminacion"><rect fill="#F1F1F1" height="50" rx="12.5" ry="12.5" style="stroke:#181818;stroke-width:0.5;" width="50" x="146" y="264.6094"/><line style="stroke:#181818;stroke-width:0.5;" x1="146" x2="196" y1="292.2188" y2="292.2188"/><text fill="#000000" font-family="sans-serif" font-size="14" lengthAdjust="spacing" textLength="4" x="169" y="284.1426">&#160;</text></g><g id="eliminarPublicacion.Eliminando"><rect fill="#F1F1F1" height="50" rx="12.5" ry="12.5" style="stroke:#181818;stroke-width:0.5;" width="50" x="19" y="403.6094"/><line style="stroke:#181818;stroke-width:0.5;" x1="19" x2="69" y1="431.2188" y2="431.2188"/><text fill="#000000" font-family="sans-serif" font-size="14" lengthAdjust="spacing" textLength="4" x="42" y="423.1426">&#160;</text></g><ellipse cx="171" cy="166.6094" fill="#222222" rx="10" ry="10" style="stroke:#222222;stroke-width:1.0;"/><ellipse cx="174" cy="553.6094" fill="none" rx="11" ry="11" style="stroke:#222222;stroke-width:1.0;"/><ellipse cx="174" cy="553.6094" fill="#222222" rx="6" ry="6" style="stroke:#222222;stroke-width:1.0;"/><!--link *start*eliminarPublicacion to ConfirmandoEliminacion--><g id="link_*start*eliminarPublicacion_ConfirmandoEliminacion"><path d="M171,176.6994 C171,195.1694 171,231.5894 171,258.5794 " fill="none" id="*start*eliminarPublicacion-to-ConfirmandoEliminacion" style="stroke:#008000;stroke-width:1.0;"/><polygon fill="#008000" points="171,264.5794,175,255.5794,171,259.5794,167,255.5794,171,264.5794" style="stroke:#008000;stroke-width:1.0;"/><path d="M176,199.6094 L176,241.6094 L484,241.6094 L484,209.6094 L474,199.6094 L176,199.6094 " fill="#FEFFDD" style="stroke:#181818;stroke-width:0.5;"/><path d="M474,199.6094 L474,209.6094 L484,209.6094 L474,199.6094 " fill="#FEFFDD" style="stroke:#181818;stroke-width:0.5;"/><text fill="#000000" font-family="sans-serif" font-size="13" font-weight="bold" lengthAdjust="spacing" textLength="79" x="182" y="218.1045">Coordinador</text><text fill="#000000" font-family="sans-serif" font-size="13" lengthAdjust="spacing" textLength="204" x="265" y="218.1045">tiene una publicaci&#243;n propia abierta</text><text fill="#000000" font-family="sans-serif" font-size="13" font-weight="bold" lengthAdjust="spacing" textLength="79" x="182" y="234.4561">Coordinador</text><text fill="#000000" font-family="sans-serif" font-size="13" lengthAdjust="spacing" textLength="159" x="265" y="234.4561">solicita eliminar publicaci&#243;n</text></g><!--link ConfirmandoEliminacion to Eliminando--><g id="link_ConfirmandoEliminacion_Eliminando"><path d="M145.82,298.8094 C108.28,311.0294 42,332.6094 42,332.6094 C42,332.6094 42,384.6094 42,384.6094 C42,384.6094 42.1401,387.7559 42.6001,397.6059 " fill="none" id="ConfirmandoEliminacion-to-Eliminando" style="stroke:#008000;stroke-width:1.0;"/><polygon fill="#008000" points="42.88,403.5994,46.4558,394.4226,42.6468,398.6048,38.4645,394.7958,42.88,403.5994" style="stroke:#008000;stroke-width:1.0;"/><path d="M47,337.6094 L47,379.6094 L283,379.6094 L283,347.6094 L273,337.6094 L47,337.6094 " fill="#FEFFDD" style="stroke:#181818;stroke-width:0.5;"/><path d="M273,337.6094 L273,347.6094 L283,347.6094 L273,337.6094 " fill="#FEFFDD" style="stroke:#181818;stroke-width:0.5;"/><text fill="#000000" font-family="sans-serif" font-size="13" font-weight="bold" lengthAdjust="spacing" textLength="51" x="53" y="356.1045">Sistema</text><text fill="#000000" font-family="sans-serif" font-size="13" lengthAdjust="spacing" textLength="118" x="108" y="356.1045">solicita confirmaci&#243;n</text><text fill="#000000" font-family="sans-serif" font-size="13" font-weight="bold" lengthAdjust="spacing" textLength="79" x="53" y="372.4561">Coordinador</text><text fill="#000000" font-family="sans-serif" font-size="13" lengthAdjust="spacing" textLength="132" x="136" y="372.4561">confirma la eliminaci&#243;n</text></g><!--link Eliminando to *end*eliminarPublicacion--><g id="link_Eliminando_*end*eliminarPublicacion"><path d="M46.06,454.0694 C48.43,482.2194 52,524.6094 52,524.6094 C52,524.6094 127.4724,541.9255 157.3224,548.7855 " fill="none" id="Eliminando-to-*end*eliminarPublicacion" style="stroke:#008000;stroke-width:1.0;"/><polygon fill="#008000" points="163.17,550.1294,155.2946,544.2152,158.297,549.0095,153.5027,552.012,163.17,550.1294" style="stroke:#008000;stroke-width:1.0;"/><path d="M57,477.6094 L57,519.6094 L283,519.6094 L283,487.6094 L273,477.6094 L57,477.6094 " fill="#FEFFDD" style="stroke:#181818;stroke-width:0.5;"/><path d="M273,477.6094 L273,487.6094 L283,487.6094 L273,477.6094 " fill="#FEFFDD" style="stroke:#181818;stroke-width:0.5;"/><text fill="#000000" font-family="sans-serif" font-size="13" font-weight="bold" lengthAdjust="spacing" textLength="51" x="63" y="496.1045">Sistema</text><text fill="#000000" font-family="sans-serif" font-size="13" lengthAdjust="spacing" textLength="124" x="118" y="496.1045">elimina la publicaci&#243;n</text><text fill="#000000" font-family="sans-serif" font-size="13" font-weight="bold" lengthAdjust="spacing" textLength="51" x="63" y="512.4561">Sistema</text><text fill="#000000" font-family="sans-serif" font-size="13" lengthAdjust="spacing" textLength="150" x="118" y="512.4561">muestra mensaje de &#233;xito</text></g><!--link ConfirmandoEliminacion to *end*eliminarPublicacion--><g id="link_ConfirmandoEliminacion_*end*eliminarPublicacion"><path d="M196.1,299.6194 C230.48,311.9594 288,332.6094 288,332.6094 C288,332.6094 288,524.6094 288,524.6094 C288,524.6094 218.5664,541.6565 190.3464,548.5965 " fill="none" id="ConfirmandoEliminacion-to-*end*eliminarPublicacion" style="stroke:#FF0000;stroke-width:1.0;"/><polygon fill="#FF0000" points="184.52,550.0294,194.2148,551.7644,189.3753,548.8353,192.3044,543.9958,184.52,550.0294" style="stroke:#FF0000;stroke-width:1.0;"/><path d="M293,407.6094 L293,449.6094 L525,449.6094 L525,417.6094 L515,407.6094 L293,407.6094 " fill="#FEFFDD" style="stroke:#181818;stroke-width:0.5;"/><path d="M515,407.6094 L515,417.6094 L525,417.6094 L515,407.6094 " fill="#FEFFDD" style="stroke:#181818;stroke-width:0.5;"/><text fill="#000000" font-family="sans-serif" font-size="13" font-weight="bold" lengthAdjust="spacing" textLength="79" x="299" y="426.1045">Coordinador</text><text fill="#000000" font-family="sans-serif" font-size="13" lengthAdjust="spacing" textLength="128" x="382" y="426.1045">cancela la eliminaci&#243;n</text><text fill="#000000" font-family="sans-serif" font-size="13" font-weight="bold" lengthAdjust="spacing" textLength="51" x="299" y="442.4561">Sistema</text><text fill="#000000" font-family="sans-serif" font-size="13" lengthAdjust="spacing" textLength="109" x="354" y="442.4561">no realiza cambios</text></g><g id="MIS_PUBLICACIONES_ABIERTAS"><rect fill="#F1F1F1" height="50" rx="12.5" ry="12.5" style="stroke:#181818;stroke-width:0.5;" width="234" x="28.5" y="671"/><line style="stroke:#181818;stroke-width:0.5;" x1="28.5" x2="262.5" y1="698.6094" y2="698.6094"/><text fill="#000000" font-family="sans-serif" font-size="14" lengthAdjust="spacing" textLength="214" x="38.5" y="690.5332">MIS_PUBLICACIONES_ABIERTAS</text></g><g id="MI_PUBLICACION_ABIERTA"><rect fill="#F1F1F1" height="50" rx="12.5" ry="12.5" style="stroke:#181818;stroke-width:0.5;" width="198" x="297.5" y="671"/><line style="stroke:#181818;stroke-width:0.5;" x1="297.5" x2="495.5" y1="698.6094" y2="698.6094"/><text fill="#000000" font-family="sans-serif" font-size="14" lengthAdjust="spacing" textLength="178" x="307.5" y="690.5332">MI_PUBLICACION_ABIERTA</text></g><!--link in1 to eliminarPublicacion--><g id="link_in1_eliminarPublicacion"><path d="M270.5,57 C270.5,72.22 270.5,87.59 270.5,111.9 " fill="none" id="in1-to-eliminarPublicacion" style="stroke:#008000;stroke-width:1.0;"/><polygon fill="#008000" points="270.5,117.9,274.5,108.9,270.5,112.9,266.5,108.9,270.5,117.9" style="stroke:#008000;stroke-width:1.0;"/></g><!--link eliminarPublicacion to MIS_PUBLICACIONES_ABIERTAS--><g id="link_eliminarPublicacion_MIS_PUBLICACIONES_ABIERTAS"><path d="M188.52,575.41 C174.62,614.04 164.1804,643.064 156.2904,665.004 " fill="none" id="eliminarPublicacion-to-MIS_PUBLICACIONES_ABIERTAS" style="stroke:#008000;stroke-width:1.0;"/><polygon fill="#008000" points="154.26,670.65,161.0696,663.5346,155.952,665.945,153.5416,660.8274,154.26,670.65" style="stroke:#008000;stroke-width:1.0;"/><path d="M181.5,610 L181.5,636 L328.5,636 L328.5,620 L318.5,610 L181.5,610 " fill="#FEFFDD" style="stroke:#181818;stroke-width:0.5;"/><path d="M318.5,610 L318.5,620 L328.5,620 L318.5,610 " fill="#FEFFDD" style="stroke:#181818;stroke-width:0.5;"/><text fill="#000000" font-family="sans-serif" font-size="13" lengthAdjust="spacing" textLength="126" x="187.5" y="628.4951">Publicaci&#243;n eliminada</text></g><!--link eliminarPublicacion to MI_PUBLICACION_ABIERTA--><g id="link_eliminarPublicacion_MI_PUBLICACION_ABIERTA"><path d="M353.14,575.41 C367.15,614.04 377.6759,643.0689 385.6259,665.0089 " fill="none" id="eliminarPublicacion-to-MI_PUBLICACION_ABIERTA" style="stroke:#FF0000;stroke-width:1.0;"/><polygon fill="#FF0000" points="387.67,670.65,388.3646,660.8257,385.9666,665.9491,380.8432,663.5511,387.67,670.65" style="stroke:#FF0000;stroke-width:1.0;"/><path d="M379.5,610 L379.5,636 L530.5,636 L530.5,620 L520.5,610 L379.5,610 " fill="#FEFFDD" style="stroke:#181818;stroke-width:0.5;"/><path d="M520.5,610 L520.5,620 L530.5,620 L520.5,610 " fill="#FEFFDD" style="stroke:#181818;stroke-width:0.5;"/><text fill="#000000" font-family="sans-serif" font-size="13" lengthAdjust="spacing" textLength="130" x="385.5" y="628.4951">Eliminaci&#243;n cancelada</text></g><!--SRC=[bPDDJiCm48NtFiKeR02fGkohIcsKHIGA5O5LLLMJP42cYHtPhaH178WrH-Z5SFFJnct2JxAAFVFUDqyPlUAYG8KvP5oGsHG4XSmskm_6j453mCKre0Pl6YvdZvERq1_xuTtjSZm9W_k7iSTszuFvsRCY4el122ZZEHUePkiuumacN8f6gkEgbEuuFx_mu9qni4_LwzdNrlfIF76LeqXbK7ML1YTrzQKjgqJcbmk7yWST8QsC9RCXhCg3OJpofLIfBKgb6bx58p2S1C5Q81GDy_PBGA5amH4mvgGCzZLhQJkumNqUZaZPHI8jEIhuRbXddjQyVJD4N1lAqKL8Qkc3TGTmKmJPdhaFzS3XuDdu_yHLg- -CJZ8vAitNf8r2o4beV2582RQVhzp8VmMeAFsDxoGD50bbtM4SCGe9YZ3ZRpPep6CkjGltmLZNJhIJcuPHU- -2gDcyY3cmi_P_M8kco0uvz1ZL0NHljsiHjAPjKcXRV0C0]--></g></svg>