<?xml version="1.0" encoding="us-ascii" standalone="no"?><svg xmlns="http://www.w3.org/2000/svg" xmlns:xlink="http://www.w3.org/1999/xlink" contentStyleType="text/css" height="762px" preserveAspectRatio="none" style="width:953px;height:762px;background:#FFFFFF;" version="1.1" viewBox="0 0 953 762" width="953px" zoomAndPan="magnify"><defs/><g><path d="M19.5,153 L927.5,153 A12.5,12.5 0 0 1 940,165.5 L940,180.6094 L7,180.6094 L7,165.5 A12.5,12.5 0 0 1 19.5,153 " fill="#F1F1F1" style="stroke:#F1F1F1;stroke-width:1.0;"/><rect fill="none" height="456.6094" rx="12.5" ry="12.5" style="stroke:#181818;stroke-width:0.5;" width="933" x="7" y="153"/><line style="stroke:#181818;stroke-width:0.5;" x1="7" x2="940" y1="180.6094" y2="180.6094"/><text fill="#000000" font-family="sans-serif" font-size="14" lengthAdjust="spacing" textLength="131" x="408" y="172.5332">eliminarPublicacion()</text><g id="eliminarPublicacion.ConfirmandoEliminacion"><rect fill="#F1F1F1" height="50" rx="12.5" ry="12.5" style="stroke:#181818;stroke-width:0.5;" width="50" x="261" y="299.6094"/><line style="stroke:#181818;stroke-width:0.5;" x1="261" x2="311" y1="327.2188" y2="327.2188"/><text fill="#000000" font-family="sans-serif" font-size="14" lengthAdjust="spacing" textLength="4" x="284" y="319.1426">&#160;</text></g><g id="eliminarPublicacion.Eliminando"><rect fill="#F1F1F1" height="50" rx="12.5" ry="12.5" style="stroke:#181818;stroke-width:0.5;" width="50" x="261" y="438.6094"/><line style="stroke:#181818;stroke-width:0.5;" x1="261" x2="311" y1="466.2188" y2="466.2188"/><text fill="#000000" font-family="sans-serif" font-size="14" lengthAdjust="spacing" textLength="4" x="284" y="458.1426">&#160;</text></g><ellipse cx="286" cy="201.6094" fill="#222222" rx="10" ry="10" style="stroke:#222222;stroke-width:1.0;"/><ellipse cx="498" cy="588.6094" fill="none" rx="11" ry="11" style="stroke:#222222;stroke-width:1.0;"/><ellipse cx="498" cy="588.6094" fill="#222222" rx="6" ry="6" style="stroke:#222222;stroke-width:1.0;"/><!--link *start*eliminarPublicacion to ConfirmandoEliminacion--><g id="link_*start*eliminarPublicacion_ConfirmandoEliminacion"><path d="M286,211.6994 C286,230.1694 286,266.5894 286,293.5794 " fill="none" id="*start*eliminarPublicacion-to-ConfirmandoEliminacion" style="stroke:#008000;stroke-width:1.0;"/><polygon fill="#008000" points="286,299.5794,290,290.5794,286,294.5794,282,290.5794,286,299.5794" style="stroke:#008000;stroke-width:1.0;"/><path d="M291,234.6094 L291,276.6094 L599,276.6094 L599,244.6094 L589,234.6094 L291,234.6094 " fill="#FEFFDD" style="stroke:#181818;stroke-width:0.5;"/><path d="M589,234.6094 L589,244.6094 L599,244.6094 L589,234.6094 " fill="#FEFFDD" style="stroke:#181818;stroke-width:0.5;"/><text fill="#000000" font-family="sans-serif" font-size="13" font-weight="bold" lengthAdjust="spacing" textLength="79" x="297" y="253.1045">Coordinador</text><text fill="#000000" font-family="sans-serif" font-size="13" lengthAdjust="spacing" textLength="204" x="380" y="253.1045">tiene una publicaci&#243;n propia abierta</text><text fill="#000000" font-family="sans-serif" font-size="13" font-weight="bold" lengthAdjust="spacing" textLength="79" x="297" y="269.4561">Coordinador</text><text fill="#000000" font-family="sans-serif" font-size="13" lengthAdjust="spacing" textLength="159" x="380" y="269.4561">solicita eliminar publicaci&#243;n</text></g><!--link ConfirmandoEliminacion to Eliminando--><g id="link_ConfirmandoEliminacion_Eliminando"><path d="M260.79,329.5594 C194.07,340.0194 18,367.6094 18,367.6094 C18,367.6094 18,419.6094 18,419.6094 C18,419.6094 188.1457,446.9093 254.8657,457.6093 " fill="none" id="ConfirmandoEliminacion-to-Eliminando" style="stroke:#008000;stroke-width:1.0;"/><polygon fill="#008000" points="260.79,458.5594,252.5369,453.1847,255.8531,457.7676,251.2702,461.0838,260.79,458.5594" style="stroke:#008000;stroke-width:1.0;"/><path d="M23,372.6094 L23,414.6094 L259,414.6094 L259,382.6094 L249,372.6094 L23,372.6094 " fill="#FEFFDD" style="stroke:#181818;stroke-width:0.5;"/><path d="M249,372.6094 L249,382.6094 L259,382.6094 L249,372.6094 " fill="#FEFFDD" style="stroke:#181818;stroke-width:0.5;"/><text fill="#000000" font-family="sans-serif" font-size="13" font-weight="bold" lengthAdjust="spacing" textLength="51" x="29" y="391.1045">Sistema</text><text fill="#000000" font-family="sans-serif" font-size="13" lengthAdjust="spacing" textLength="118" x="84" y="391.1045">solicita confirmaci&#243;n</text><text fill="#000000" font-family="sans-serif" font-size="13" font-weight="bold" lengthAdjust="spacing" textLength="79" x="29" y="407.4561">Coordinador</text><text fill="#000000" font-family="sans-serif" font-size="13" lengthAdjust="spacing" textLength="132" x="112" y="407.4561">confirma la eliminaci&#243;n</text></g><!--link Eliminando to *end*eliminarPublicacion--><g id="link_Eliminando_*end*eliminarPublicacion"><path d="M311.15,479.1994 C358.31,506.5694 452.8599,561.419 483.5999,579.249 " fill="none" id="Eliminando-to-*end*eliminarPublicacion" style="stroke:#008000;stroke-width:1.0;"/><polygon fill="#008000" points="488.79,582.2594,483.0117,574.2837,484.4649,579.7507,478.9979,581.2038,488.79,582.2594" style="stroke:#008000;stroke-width:1.0;"/><path d="M451,512.6094 L451,554.6094 L677,554.6094 L677,522.6094 L667,512.6094 L451,512.6094 " fill="#FEFFDD" style="stroke:#181818;stroke-width:0.5;"/><path d="M667,512.6094 L667,522.6094 L677,522.6094 L667,512.6094 " fill="#FEFFDD" style="stroke:#181818;stroke-width:0.5;"/><text fill="#000000" font-family="sans-serif" font-size="13" font-weight="bold" lengthAdjust="spacing" textLength="51" x="457" y="531.1045">Sistema</text><text fill="#000000" font-family="sans-serif" font-size="13" lengthAdjust="spacing" textLength="124" x="512" y="531.1045">elimina la publicaci&#243;n</text><text fill="#000000" font-family="sans-serif" font-size="13" font-weight="bold" lengthAdjust="spacing" textLength="51" x="457" y="547.4561">Sistema</text><text fill="#000000" font-family="sans-serif" font-size="13" lengthAdjust="spacing" textLength="150" x="512" y="547.4561">muestra mensaje de &#233;xito</text></g><!--link ConfirmandoEliminacion to *end*eliminarPublicacion--><g id="link_ConfirmandoEliminacion_*end*eliminarPublicacion"><path d="M311.03,328.1694 C400.05,337.2894 696,367.6094 696,367.6094 C696,367.6094 696,419.6094 696,419.6094 C696,419.6094 686,559.6094 686,559.6094 C686,559.6094 554.9747,579.1263 514.8547,585.0963 " fill="none" id="ConfirmandoEliminacion-to-*end*eliminarPublicacion" style="stroke:#FF0000;stroke-width:1.0;"/><polygon fill="#FF0000" points="508.92,585.9794,518.4107,588.6112,513.8655,585.2435,517.2333,580.6983,508.92,585.9794" style="stroke:#FF0000;stroke-width:1.0;"/><path d="M699,442.6094 L699,484.6094 L931,484.6094 L931,452.6094 L921,442.6094 L699,442.6094 " fill="#FEFFDD" style="stroke:#181818;stroke-width:0.5;"/><path d="M921,442.6094 L921,452.6094 L931,452.6094 L921,442.6094 " fill="#FEFFDD" style="stroke:#181818;stroke-width:0.5;"/><text fill="#000000" font-family="sans-serif" font-size="13" font-weight="bold" lengthAdjust="spacing" textLength="79" x="705" y="461.1045">Coordinador</text><text fill="#000000" font-family="sans-serif" font-size="13" lengthAdjust="spacing" textLength="128" x="788" y="461.1045">cancela la eliminaci&#243;n</text><text fill="#000000" font-family="sans-serif" font-size="13" font-weight="bold" lengthAdjust="spacing" textLength="51" x="705" y="477.4561">Sistema</text><text fill="#000000" font-family="sans-serif" font-size="13" lengthAdjust="spacing" textLength="109" x="760" y="477.4561">no realiza cambios</text></g><!--link Eliminando to ConfirmandoEliminacion--><g id="link_Eliminando_ConfirmandoEliminacion"><path d="M286,438.2094 C286,413.2394 286,380.6794 286,355.7894 " fill="none" id="Eliminando-to-ConfirmandoEliminacion" style="stroke:#FF0000;stroke-width:1.0;"/><polygon fill="#FF0000" points="286,349.7894,282,358.7894,286,354.7894,290,358.7894,286,349.7894" style="stroke:#FF0000;stroke-width:1.0;"/><path d="M291,372.6094 L291,414.6094 L690,414.6094 L690,382.6094 L680,372.6094 L291,372.6094 " fill="#FEFFDD" style="stroke:#181818;stroke-width:0.5;"/><path d="M680,372.6094 L680,382.6094 L690,382.6094 L680,372.6094 " fill="#FEFFDD" style="stroke:#181818;stroke-width:0.5;"/><text fill="#000000" font-family="sans-serif" font-size="13" font-weight="bold" lengthAdjust="spacing" textLength="51" x="297" y="391.1045">Sistema</text><text fill="#000000" font-family="sans-serif" font-size="13" lengthAdjust="spacing" textLength="323" x="352" y="391.1045">detecta error (p.ej. publicaci&#243;n no encontrada / permiso)</text><text fill="#000000" font-family="sans-serif" font-size="13" font-weight="bold" lengthAdjust="spacing" textLength="51" x="297" y="407.4561">Sistema</text><text fill="#000000" font-family="sans-serif" font-size="13" lengthAdjust="spacing" textLength="252" x="352" y="407.4561">informa del error y mantiene la confirmaci&#243;n</text></g><g id="MI_PUBLICACION_ABIERTA"><rect fill="#F1F1F1" height="50" rx="12.5" ry="12.5" style="stroke:#181818;stroke-width:0.5;" width="198" x="374.5" y="7"/><line style="stroke:#181818;stroke-width:0.5;" x1="374.5" x2="572.5" y1="34.6094" y2="34.6094"/><text fill="#000000" font-family="sans-serif" font-size="14" lengthAdjust="spacing" textLength="178" x="384.5" y="26.5332">MI_PUBLICACION_ABIERTA</text></g><g id="MIS_PUBLICACIONES_ABIERTAS"><rect fill="#F1F1F1" height="50" rx="12.5" ry="12.5" style="stroke:#181818;stroke-width:0.5;" width="234" x="356.5" y="706"/><line style="stroke:#181818;stroke-width:0.5;" x1="356.5" x2="590.5" y1="733.6094" y2="733.6094"/><text fill="#000000" font-family="sans-serif" font-size="14" lengthAdjust="spacing" textLength="214" x="366.5" y="725.5332">MIS_PUBLICACIONES_ABIERTAS</text></g><!--link MI_PUBLICACION_ABIERTA to eliminarPublicacion--><g id="link_MI_PUBLICACION_ABIERTA_eliminarPublicacion"><path d="M473.5,57.16 C473.5,79.09 473.5,107.86 473.5,146.63 " fill="none" id="MI_PUBLICACION_ABIERTA-to-eliminarPublicacion" style="stroke:#008000;stroke-width:1.0;"/><polygon fill="#008000" points="473.5,152.63,477.5,143.63,473.5,147.63,469.5,143.63,473.5,152.63" style="stroke:#008000;stroke-width:1.0;"/><path d="M478.5,92 L478.5,118 L619.5,118 L619.5,102 L609.5,92 L478.5,92 " fill="#FEFFDD" style="stroke:#181818;stroke-width:0.5;"/><path d="M609.5,92 L609.5,102 L619.5,102 L609.5,92 " fill="#FEFFDD" style="stroke:#181818;stroke-width:0.5;"/><text fill="#000000" font-family="sans-serif" font-size="13" lengthAdjust="spacing" textLength="120" x="484.5" y="110.4951">eliminarPublicacion()</text></g><!--link eliminarPublicacion to MIS_PUBLICACIONES_ABIERTAS--><g id="link_eliminarPublicacion_MIS_PUBLICACIONES_ABIERTAS"><path d="M473.5,610.41 C473.5,649.04 473.5,677.71 473.5,699.65 " fill="none" id="eliminarPublicacion-to-MIS_PUBLICACIONES_ABIERTAS" style="stroke:#008000;stroke-width:1.0;"/><polygon fill="#008000" points="473.5,705.65,477.5,696.65,473.5,700.65,469.5,696.65,473.5,705.65" style="stroke:#008000;stroke-width:1.0;"/><path d="M478.5,645 L478.5,671 L625.5,671 L625.5,655 L615.5,645 L478.5,645 " fill="#FEFFDD" style="stroke:#181818;stroke-width:0.5;"/><path d="M615.5,645 L615.5,655 L625.5,655 L615.5,645 " fill="#FEFFDD" style="stroke:#181818;stroke-width:0.5;"/><text fill="#000000" font-family="sans-serif" font-size="13" lengthAdjust="spacing" textLength="126" x="484.5" y="663.4951">Publicaci&#243;n eliminada</text></g><!--SRC=[bPHBJiCm48RtESMeR009k02gLAek8l6eAAmGGfDuGDCwuyXs9GhYGAmv0XV3QT8seIwFP1LdvfzlVe_jPYmbMYn0iv1Vb0IbqOlg8qcSHqz0cWiMjEDvfZd7d8q0EkX5rlSFUl2Q912UEhSNtX0xDFB8ja1HPbHdLT7RSStF45QBt1tUmz7TtfCbalkZ_aywOe9C80lai-N2QTOV6cDL25B6dfvaVV1CGZ0NX7B5_FaXK5fJCW9cJDRZhcHdGWPxNFlH4LbcaQWbHmqVX-tqq-ftLmyJTfuAx2BaZVIcT0Hu5GHwpRmBTSFHmGls_uchKQyARNdoBRIOa_CMeI1nE2LG19_lp-pDlmoqf7xZst839ISTD-CRenYmX9fVWj5OP6pShvOrGF-SptPHHPxoQhgiDHRsosEQ7dV7D62HX4qDzYc44oZ95kpCGKoDvT5KMwz8DueB25Zr0T2n0LftzvOa5-d3-FRiF1qEXkdLvSFWB1rTtmmwen4v_4cdnUZja6myZDqgxG8NwQGDCPgiC2RTEkEsHOsemasXBm00]--></g></svg>