<svg xmlns="http://www.w3.org/2000/svg" xmlns:xlink="http://www.w3.org/1999/xlink" contentStyleType="text/css" data-diagram-type="STATE" height="635px" preserveAspectRatio="none" style="width:839px;height:635px;background:#FFFFFF;" version="1.1" viewBox="0 0 839 635" width="839px" zoomAndPan="magnify"><defs/><g><path d="M164.5,7 L711.5,7 A12.5,12.5 0 0 1 724,19.5 L724,33.2969 L152,33.2969 L152,19.5 A12.5,12.5 0 0 1 164.5,7" fill="#F1F1F1"/><rect fill="none" height="477.2969" rx="12.5" ry="12.5" style="stroke:#181818;stroke-width:0.5;" width="572" x="152" y="7"/><line style="stroke:#181818;stroke-width:0.5;" x1="152" x2="724" y1="33.2969" y2="33.2969"/><text fill="#000000" font-family="sans-serif" font-size="14" lengthAdjust="spacing" textLength="105.2051" x="385.3975" y="24.9951">abrirProyecto()</text><g id="abrirProyecto.MostrandoProyecto"><rect fill="#F1F1F1" height="50" rx="12.5" ry="12.5" style="stroke:#181818;stroke-width:0.5;" width="50" x="164" y="135.2969"/><line style="stroke:#181818;stroke-width:0.5;" x1="164" x2="214" y1="161.5938" y2="161.5938"/><text fill="#000000" font-family="sans-serif" font-size="14" lengthAdjust="spacing" textLength="4.4502" x="186.7749" y="153.292">&#160;</text></g><g id="abrirProyecto.OpcionesDeProyecto"><rect fill="#F1F1F1" height="50" rx="12.5" ry="12.5" style="stroke:#181818;stroke-width:0.5;" width="50" x="164" y="331.2969"/><line style="stroke:#181818;stroke-width:0.5;" x1="164" x2="214" y1="357.5938" y2="357.5938"/><text fill="#000000" font-family="sans-serif" font-size="14" lengthAdjust="spacing" textLength="4.4502" x="186.7749" y="349.292">&#160;</text></g><ellipse cx="189" cy="54.2969" fill="#222222" rx="10" ry="10" style="stroke:#222222;stroke-width:1;"/><ellipse cx="189" cy="463.2969" fill="none" rx="11" ry="11" style="stroke:#222222;stroke-width:1;"/><ellipse cx="189" cy="463.2969" fill="#222222" rx="6" ry="6" style="stroke:#222222;stroke-width:1;"/><!--link *start*abrirProyecto to MostrandoProyecto--><g class="link" data-entity-1=".start.abrirProyecto" data-entity-2="MostrandoProyecto" data-source-line="8" data-uid="lnk3" id="link_.start.abrirProyecto_MostrandoProyecto"><path d="M189,64.5269 C189,80.2369 189,106.6569 189,129.1669" fill="none" id="*start*abrirProyecto-to-MostrandoProyecto" style="stroke:#008000;stroke-width:1;"/><polygon fill="#008000" points="189,135.1669,193,126.1669,189,130.1669,185,126.1669,189,135.1669" style="stroke:#008000;stroke-width:1;"/><path d="M194,87.2969 L194,112.2969 L453,112.2969 L453,97.2969 L443,87.2969 L194,87.2969" fill="#FEFFDD" style="stroke:#181818;stroke-width:0.5;"/><path d="M443,87.2969 L443,97.2969 L453,97.2969 L443,87.2969" fill="#FEFFDD" style="stroke:#181818;stroke-width:0.5;"/><text fill="#000000" font-family="sans-serif" font-size="13" font-weight="bold" lengthAdjust="spacing" textLength="92.5171" x="200" y="104.3638">Investigador</text><text fill="#000000" font-family="sans-serif" font-size="13" lengthAdjust="spacing" textLength="141.9971" x="296.6494" y="104.3638">solicita abrir proyecto</text></g><!--link MostrandoProyecto to OpcionesDeProyecto--><g class="link" data-entity-1="MostrandoProyecto" data-entity-2="OpcionesDeProyecto" data-source-line="13" data-uid="lnk4" id="link_MostrandoProyecto_OpcionesDeProyecto"><path d="M189,185.4769 C189,222.7569 189,287.8469 189,325.1169" fill="none" id="MostrandoProyecto-to-OpcionesDeProyecto" style="stroke:#008000;stroke-width:1;"/><polygon fill="#008000" points="189,331.1169,193,322.1169,189,326.1169,185,322.1169,189,331.1169" style="stroke:#008000;stroke-width:1;"/><path d="M194,208.2969 L194,308.2969 L715,308.2969 L715,218.2969 L705,208.2969 L194,208.2969" fill="#FEFFDD" style="stroke:#181818;stroke-width:0.5;"/><path d="M705,208.2969 L705,218.2969 L715,218.2969 L705,208.2969" fill="#FEFFDD" style="stroke:#181818;stroke-width:0.5;"/><text fill="#000000" font-family="sans-serif" font-size="13" font-weight="bold" lengthAdjust="spacing" textLength="58.9063" x="200" y="225.3638">Sistema</text><text fill="#000000" font-family="sans-serif" font-size="13" lengthAdjust="spacing" textLength="205.2959" x="263.0386" y="225.3638">presenta opciones del proyecto</text><text fill="#000000" font-family="sans-serif" font-size="13" lengthAdjust="spacing" textLength="500.8047" x="200" y="240.4966">&#8226; ID, titulo de proyecto, Descripcion, Estado, Investigadores y Colaboradores</text><text fill="#000000" font-family="sans-serif" font-size="13" lengthAdjust="spacing" textLength="342.1641" x="200" y="255.6294">&#8226; Permite solicitar abrir todos los proyectos actuales</text><text fill="#000000" font-family="sans-serif" font-size="13" lengthAdjust="spacing" textLength="427.0068" x="200" y="270.7622">&#8226; Permite solicitar abrir los investigadores asosciados al proyecto</text><text fill="#000000" font-family="sans-serif" font-size="13" lengthAdjust="spacing" textLength="341.9546" x="200" y="285.895">&#8226; Permite solicitar abrir los entregables del proyecto</text><text fill="#000000" font-family="sans-serif" font-size="13" lengthAdjust="spacing" textLength="362.0132" x="200" y="301.0278">&#8226; Permite solicitar crear un entregable para el proyecto</text></g><!--link OpcionesDeProyecto to *end*abrirProyecto--><g class="link" data-entity-1="OpcionesDeProyecto" data-entity-2=".end.abrirProyecto" data-source-line="23" data-uid="lnk6" id="link_OpcionesDeProyecto_.end.abrirProyecto"><path d="M189,381.3869 C189,403.7869 189,430.0669 189,446.2469" fill="none" id="OpcionesDeProyecto-to-*end*abrirProyecto" style="stroke:#008000;stroke-width:1;"/><polygon fill="#008000" points="189,452.2469,193,443.2469,189,447.2469,185,443.2469,189,452.2469" style="stroke:#008000;stroke-width:1;"/><path d="M194,404.2969 L194,429.2969 L490,429.2969 L490,414.2969 L480,404.2969 L194,404.2969" fill="#FEFFDD" style="stroke:#181818;stroke-width:0.5;"/><path d="M480,404.2969 L480,414.2969 L490,414.2969 L480,404.2969" fill="#FEFFDD" style="stroke:#181818;stroke-width:0.5;"/><text fill="#000000" font-family="sans-serif" font-size="13" font-weight="bold" lengthAdjust="spacing" textLength="92.5171" x="200" y="421.3638">Investigador</text><text fill="#000000" font-family="sans-serif" font-size="13" lengthAdjust="spacing" textLength="179.2769" x="296.6494" y="421.3638">solicita una de las opciones</text></g><g id="PROYECTOS_ABIERTOS"><rect fill="#F1F1F1" height="50" rx="12.5" ry="12.5" style="stroke:#181818;stroke-width:0.5;" width="182.1621" x="7" y="579"/><line style="stroke:#181818;stroke-width:0.5;" x1="7" x2="189.1621" y1="605.2969" y2="605.2969"/><text fill="#000000" font-family="sans-serif" font-size="14" lengthAdjust="spacing" textLength="162.1621" x="17" y="596.9951">PROYECTOS_ABIERTOS</text></g><g id="INVESTIGADORES_ABIERTOS"><rect fill="#F1F1F1" height="50" rx="12.5" ry="12.5" style="stroke:#181818;stroke-width:0.5;" width="221.6191" x="224" y="579"/><line style="stroke:#181818;stroke-width:0.5;" x1="224" x2="445.6191" y1="605.2969" y2="605.2969"/><text fill="#000000" font-family="sans-serif" font-size="14" lengthAdjust="spacing" textLength="201.6191" x="234" y="596.9951">INVESTIGADORES_ABIERTOS</text></g><g id="ENTREGABLES_ABIERTOS"><rect fill="#F1F1F1" height="50" rx="12.5" ry="12.5" style="stroke:#181818;stroke-width:0.5;" width="199.3477" x="556.5" y="579"/><line style="stroke:#181818;stroke-width:0.5;" x1="556.5" x2="755.8477" y1="605.2969" y2="605.2969"/><text fill="#000000" font-family="sans-serif" font-size="14" lengthAdjust="spacing" textLength="179.3477" x="566.5" y="596.9951">ENTREGABLES_ABIERTOS</text></g><!--link abrirProyecto to PROYECTOS_ABIERTOS--><g class="link" data-entity-1="abrirProyecto" data-entity-2="PROYECTOS_ABIERTOS" data-source-line="29" data-uid="lnk8" id="link_abrirProyecto_PROYECTOS_ABIERTOS"><path d="M211.22,484.29 C174.43,522.86 145.7904,552.8876 125.0904,574.5976" fill="none" id="abrirProyecto-to-PROYECTOS_ABIERTOS" style="stroke:#008000;stroke-width:1;"/><polygon fill="#008000" points="120.95,578.94,130.0556,575.1866,124.4004,575.3213,124.2657,569.666,120.95,578.94" style="stroke:#008000;stroke-width:1;"/><path d="M186,519 L186,544 L311,544 L311,529 L301,519 L186,519" fill="#FEFFDD" style="stroke:#181818;stroke-width:0.5;"/><path d="M301,519 L301,529 L311,529 L301,519" fill="#FEFFDD" style="stroke:#181818;stroke-width:0.5;"/><text fill="#000000" font-family="sans-serif" font-size="13" lengthAdjust="spacing" textLength="104.4634" x="192" y="536.0669">abrirProyectos()</text></g><!--link abrirProyecto to INVESTIGADORES_ABIERTOS--><g class="link" data-entity-1="abrirProyecto" data-entity-2="INVESTIGADORES_ABIERTOS" data-source-line="34" data-uid="lnk10" id="link_abrirProyecto_INVESTIGADORES_ABIERTOS"><path d="M343.85,484.09 C336.59,502.43 332,514 332,514 C332,514 332,549 332,549 C332,549 332.5265,558.4793 333.3265,572.8493" fill="none" id="abrirProyecto-to-INVESTIGADORES_ABIERTOS" style="stroke:#008000;stroke-width:1;"/><polygon fill="#008000" points="333.66,578.84,337.1535,569.6316,333.3821,573.8477,329.1659,570.0763,333.66,578.84" style="stroke:#008000;stroke-width:1;"/><path d="M337,519 L337,544 L494,544 L494,529 L484,519 L337,519" fill="#FEFFDD" style="stroke:#181818;stroke-width:0.5;"/><path d="M484,519 L484,529 L494,529 L484,519" fill="#FEFFDD" style="stroke:#181818;stroke-width:0.5;"/><text fill="#000000" font-family="sans-serif" font-size="13" lengthAdjust="spacing" textLength="136.4492" x="343" y="536.0669">abrirInvestigadores()</text></g><!--link abrirProyecto to ENTREGABLES_ABIERTOS--><g class="link" data-entity-1="abrirProyecto" data-entity-2="ENTREGABLES_ABIERTOS" data-source-line="39" data-uid="lnk12" id="link_abrirProyecto_ENTREGABLES_ABIERTOS"><path d="M517.33,484.11 C529.98,521.99 539,549 539,549 C539,549 567.0618,561.9566 598.2118,576.3266" fill="none" id="abrirProyecto-to-ENTREGABLES_ABIERTOS" style="stroke:#008000;stroke-width:1;"/><polygon fill="#008000" points="603.66,578.84,597.1632,571.4378,599.1198,576.7455,593.8121,578.7021,603.66,578.84" style="stroke:#008000;stroke-width:1;"/><path d="M544,519 L544,544 L683,544 L683,529 L673,519 L544,519" fill="#FEFFDD" style="stroke:#181818;stroke-width:0.5;"/><path d="M673,519 L673,529 L683,529 L673,519" fill="#FEFFDD" style="stroke:#181818;stroke-width:0.5;"/><text fill="#000000" font-family="sans-serif" font-size="13" lengthAdjust="spacing" textLength="118.4092" x="550" y="536.0669">abrirEntregables()</text></g><!--link abrirProyecto to ENTREGABLES_ABIERTOS--><g class="link" data-entity-1="abrirProyecto" data-entity-2="ENTREGABLES_ABIERTOS" data-source-line="44" data-uid="lnk13" id="link_abrirProyecto_ENTREGABLES_ABIERTOS"><path d="M663.6,484.09 C681.01,502.43 692,514 692,514 C692,514 692,549 692,549 C692,549 685.0206,559.4793 675.4306,573.8493" fill="none" id="abrirProyecto-to-ENTREGABLES_ABIERTOS-1" style="stroke:#008000;stroke-width:1;"/><polygon fill="#008000" points="672.1,578.84,680.423,573.5744,674.8755,574.6811,673.7688,569.1335,672.1,578.84" style="stroke:#008000;stroke-width:1;"/><path d="M697,519 L697,544 L832,544 L832,529 L822,519 L697,519" fill="#FEFFDD" style="stroke:#181818;stroke-width:0.5;"/><path d="M822,519 L822,529 L832,529 L822,519" fill="#FEFFDD" style="stroke:#181818;stroke-width:0.5;"/><text fill="#000000" font-family="sans-serif" font-size="13" lengthAdjust="spacing" textLength="114.918" x="703" y="536.0669">crearEntregable()</text></g><!--SRC=[hLDHQkCm4FtNAORqfoqflK09f8qfXhO9ILWefPInFGHHHMCaPI4iXPvbZxOdsR5JErQTXhAiZ8KbpNlpD6_iNxKjqU4QZBOKjYL1oMPRBPJo0GC1PawxcUCjvO41FGoYdTEp0VnI2cJiuWVoIDGz- -3G5jm4zaEcPQxPafzG6rC7FPq_myNJoSeHsUUBKPyAwZ3BGiMsKlvQRrnbezJ-91_q2WjsLvVP23mRdUk0ksj0sHL3jjYHo53jrC_MrN90yrTQ5je7McCjetJaoOeC_i13GIPMy-VzDwIJ8GGTDeRbl3qUmeHyxdGD7K8YHInaitjN8Tp23HlCsEtMBUUCt5gBkgOIxgCKWGlsOEHjydZ0F6pGV0DSmNIS7ptxN6D5YWUkTen9AkDeXPdvgYvzSEv8vetjOA5gPFWCRqpU6zotC79OkkyVscjZiRBCI5it5iVftvIA_wHkpjby-fZSBAUBb_5rcipbGqNf8wG_FLCjxH7IzE57ibYcj-F9T9uSPOuxwPlqoSDodjoEh- -ESoTxR_yRSMt-dhZ3-nS0]--></g></svg>