<?xml version="1.0" encoding="us-ascii" standalone="no"?><svg xmlns="http://www.w3.org/2000/svg" xmlns:xlink="http://www.w3.org/1999/xlink" contentStyleType="text/css" height="758px" preserveAspectRatio="none" style="width:336px;height:758px;background:#FFFFFF;" version="1.1" viewBox="0 0 336 758" width="336px" zoomAndPan="magnify"><defs/><g><g id="PROYECTOS_ABIERTOS"><rect fill="#F1F1F1" height="50" rx="12.5" ry="12.5" style="stroke:#181818;stroke-width:0.5;" width="184" x="73" y="7"/><line style="stroke:#181818;stroke-width:0.5;" x1="73" x2="257" y1="34.6094" y2="34.6094"/><text fill="#000000" font-family="sans-serif" font-size="14" lengthAdjust="spacing" textLength="164" x="83" y="26.5332">PROYECTOS_ABIERTOS</text></g><path d="M19.5,118 L310.5,118 A12.5,12.5 0 0 1 323,130.5 L323,145.6094 L7,145.6094 L7,130.5 A12.5,12.5 0 0 1 19.5,118 " fill="#F1F1F1" style="stroke:#F1F1F1;stroke-width:1.0;"/><rect fill="none" height="487.6094" rx="12.5" ry="12.5" style="stroke:#181818;stroke-width:0.5;" width="316" x="7" y="118"/><line style="stroke:#181818;stroke-width:0.5;" x1="7" x2="323" y1="145.6094" y2="145.6094"/><text fill="#000000" font-family="sans-serif" font-size="14" lengthAdjust="spacing" textLength="99" x="115.5" y="137.5332">crearProyecto()</text><g id="crearProyecto.SolicitandoDatos"><rect fill="#F1F1F1" height="50" rx="12.5" ry="12.5" style="stroke:#181818;stroke-width:0.5;" width="50" x="19" y="248.6094"/><line style="stroke:#181818;stroke-width:0.5;" x1="19" x2="69" y1="276.2188" y2="276.2188"/><text fill="#000000" font-family="sans-serif" font-size="14" lengthAdjust="spacing" textLength="4" x="42" y="268.1426">&#160;</text></g><g id="crearProyecto.CreandoProyecto"><rect fill="#F1F1F1" height="50" rx="12.5" ry="12.5" style="stroke:#181818;stroke-width:0.5;" width="50" x="19" y="435.6094"/><line style="stroke:#181818;stroke-width:0.5;" x1="19" x2="69" y1="463.2188" y2="463.2188"/><text fill="#000000" font-family="sans-serif" font-size="14" lengthAdjust="spacing" textLength="4" x="42" y="455.1426">&#160;</text></g><ellipse cx="44" cy="166.6094" fill="#222222" rx="10" ry="10" style="stroke:#222222;stroke-width:1.0;"/><ellipse cx="44" cy="584.6094" fill="none" rx="11" ry="11" style="stroke:#222222;stroke-width:1.0;"/><ellipse cx="44" cy="584.6094" fill="#222222" rx="6" ry="6" style="stroke:#222222;stroke-width:1.0;"/><!--link *start*crearProyecto to SolicitandoDatos--><g id="link_*start*crearProyecto_SolicitandoDatos"><path d="M44,176.9294 C44,192.7894 44,219.5194 44,242.2494 " fill="none" id="*start*crearProyecto-to-SolicitandoDatos" style="stroke:#008000;stroke-width:1.0;"/><polygon fill="#008000" points="44,248.2494,48,239.2494,44,243.2494,40,239.2494,44,248.2494" style="stroke:#008000;stroke-width:1.0;"/><path d="M49,199.6094 L49,225.6094 L281,225.6094 L281,209.6094 L271,199.6094 L49,199.6094 " fill="#FEFFDD" style="stroke:#181818;stroke-width:0.5;"/><path d="M271,199.6094 L271,209.6094 L281,209.6094 L271,199.6094 " fill="#FEFFDD" style="stroke:#181818;stroke-width:0.5;"/><text fill="#000000" font-family="sans-serif" font-size="13" font-weight="bold" lengthAdjust="spacing" textLength="79" x="55" y="218.1045">Coordinador</text><text fill="#000000" font-family="sans-serif" font-size="13" lengthAdjust="spacing" textLength="128" x="138" y="218.1045">solicita crear proyecto</text></g><!--link SolicitandoDatos to CreandoProyecto--><g id="link_SolicitandoDatos_CreandoProyecto"><path d="M44,298.7994 C44,334.2494 44,393.9594 44,429.4194 " fill="none" id="SolicitandoDatos-to-CreandoProyecto" style="stroke:#008000;stroke-width:1.0;"/><polygon fill="#008000" points="44,435.4194,48,426.4194,44,430.4194,40,426.4194,44,435.4194" style="stroke:#008000;stroke-width:1.0;"/><path d="M49,321.6094 L49,412.6094 L314,412.6094 L314,331.6094 L304,321.6094 L49,321.6094 " fill="#FEFFDD" style="stroke:#181818;stroke-width:0.5;"/><path d="M304,321.6094 L304,331.6094 L314,331.6094 L304,321.6094 " fill="#FEFFDD" style="stroke:#181818;stroke-width:0.5;"/><text fill="#000000" font-family="sans-serif" font-size="13" font-weight="bold" lengthAdjust="spacing" textLength="51" x="55" y="340.1045">Sistema</text><text fill="#000000" font-family="sans-serif" font-size="13" lengthAdjust="spacing" textLength="189" x="110" y="340.1045">solicita datos del nuevo proyecto</text><text fill="#000000" font-family="sans-serif" font-size="13" lengthAdjust="spacing" textLength="40" x="55" y="356.4561">&#8226; T&#237;tulo</text><text fill="#000000" font-family="sans-serif" font-size="13" lengthAdjust="spacing" textLength="77" x="55" y="372.8076">&#8226; Descripci&#243;n</text><text fill="#000000" font-family="sans-serif" font-size="13" lengthAdjust="spacing" textLength="52" x="55" y="389.1592">&#8226; Fechas</text><text fill="#000000" font-family="sans-serif" font-size="13" lengthAdjust="spacing" textLength="50" x="55" y="405.5107">&#8226; Estado</text></g><!--link CreandoProyecto to *end*crearProyecto--><g id="link_CreandoProyecto_*end*crearProyecto"><path d="M44,485.7094 C44,512.3794 44,548.1094 44,567.3094 " fill="none" id="CreandoProyecto-to-*end*crearProyecto" style="stroke:#008000;stroke-width:1.0;"/><polygon fill="#008000" points="44,573.3094,48,564.3094,44,568.3094,40,564.3094,44,573.3094" style="stroke:#008000;stroke-width:1.0;"/><path d="M49,508.6094 L49,550.6094 L256,550.6094 L256,518.6094 L246,508.6094 L49,508.6094 " fill="#FEFFDD" style="stroke:#181818;stroke-width:0.5;"/><path d="M246,508.6094 L246,518.6094 L256,518.6094 L246,508.6094 " fill="#FEFFDD" style="stroke:#181818;stroke-width:0.5;"/><text fill="#000000" font-family="sans-serif" font-size="13" font-weight="bold" lengthAdjust="spacing" textLength="79" x="55" y="527.1045">Coordinador</text><text fill="#000000" font-family="sans-serif" font-size="13" lengthAdjust="spacing" textLength="103" x="138" y="527.1045">proporciona datos</text><text fill="#000000" font-family="sans-serif" font-size="13" font-weight="bold" lengthAdjust="spacing" textLength="51" x="55" y="543.4561">Sistema</text><text fill="#000000" font-family="sans-serif" font-size="13" lengthAdjust="spacing" textLength="93" x="110" y="543.4561">crea el proyecto</text></g><g id="PROYECTO_ABIERTO"><rect fill="#F1F1F1" height="50" rx="12.5" ry="12.5" style="stroke:#181818;stroke-width:0.5;" width="166" x="82" y="702"/><line style="stroke:#181818;stroke-width:0.5;" x1="82" x2="248" y1="729.6094" y2="729.6094"/><text fill="#000000" font-family="sans-serif" font-size="14" lengthAdjust="spacing" textLength="146" x="92" y="721.5332">PROYECTO_ABIERTO</text></g><!--link PROYECTOS_ABIERTOS to crearProyecto--><g id="link_PROYECTOS_ABIERTOS_crearProyecto"><path d="M165,57.12 C165,72.28 165,87.55 165,111.88 " fill="none" id="PROYECTOS_ABIERTOS-to-crearProyecto" style="stroke:#008000;stroke-width:1.0;"/><polygon fill="#008000" points="165,117.88,169,108.88,165,112.88,161,108.88,165,117.88" style="stroke:#008000;stroke-width:1.0;"/></g><!--link crearProyecto to PROYECTO_ABIERTO--><g id="link_crearProyecto_PROYECTO_ABIERTO"><path d="M165,606.13 C165,645.14 165,673.83 165,695.73 " fill="none" id="crearProyecto-to-PROYECTO_ABIERTO" style="stroke:#008000;stroke-width:1.0;"/><polygon fill="#008000" points="165,701.73,169,692.73,165,696.73,161,692.73,165,701.73" style="stroke:#008000;stroke-width:1.0;"/><path d="M170,641 L170,667 L284,667 L284,651 L274,641 L170,641 " fill="#FEFFDD" style="stroke:#181818;stroke-width:0.5;"/><path d="M274,641 L274,651 L284,651 L274,641 " fill="#FEFFDD" style="stroke:#181818;stroke-width:0.5;"/><text fill="#000000" font-family="sans-serif" font-size="13" lengthAdjust="spacing" textLength="93" x="176" y="659.4951">proyecto creado</text></g><!--SRC=[ZLBTIiCm5BxFKnpgZGh35nW5xIfujR7kHiQGB3beM9SJaame8lWitdlb8-nDV1BJTjrChM1pqtDoylrnt4PfmotVGgaq-ieW62ghkc1iDf_UvzbYMZnStzpby_03e-NPeqNKgr4AmYAtCqiL2a-CESyznatW3fAeStwHm0jZ4BvsFWadJ1LKAg4yrv8ct9FxFP45c71xugidbfUhID8WZAQ0Ghfsk6aQutMQ4LcfD9TanrVh5DpXOQiVJCTIZwEM3KPBsQU8-FiY_w8lbFEuvJ6rRE0abg1t-4onYA-tTrZiF_okFDKJTC8g8zJ-Kn-RjoYUk3kMUGXH3ldeIOriX5Z_dLnGQSWAHVhWOCXZdIe4OyEvlZ8MhyrFBTqITZl88b4TOCCGV1unlm40]--></g></svg>