<?xml version="1.0" encoding="us-ascii" standalone="no"?><svg xmlns="http://www.w3.org/2000/svg" xmlns:xlink="http://www.w3.org/1999/xlink" contentStyleType="text/css" height="791px" preserveAspectRatio="none" style="width:1571px;height:791px;background:#FFFFFF;" version="1.1" viewBox="0 0 1571 791" width="1571px" zoomAndPan="magnify"><defs/><g><g id="in1"><rect fill="#F1F1F1" height="50" rx="12.5" ry="12.5" style="stroke:#181818;stroke-width:0.5;" width="184" x="682" y="7"/><line style="stroke:#181818;stroke-width:0.5;" x1="682" x2="866" y1="34.6094" y2="34.6094"/><text fill="#000000" font-family="sans-serif" font-size="14" lengthAdjust="spacing" textLength="164" x="692" y="26.5332">PROYECTOS_ABIERTOS</text></g><path d="M617.5,118 L930.5,118 A12.5,12.5 0 0 1 943,130.5 L943,145.6094 L605,145.6094 L605,130.5 A12.5,12.5 0 0 1 617.5,118 " fill="#F1F1F1" style="stroke:#F1F1F1;stroke-width:1.0;"/><rect fill="none" height="520.6094" rx="12.5" ry="12.5" style="stroke:#181818;stroke-width:0.5;" width="338" x="605" y="118"/><line style="stroke:#181818;stroke-width:0.5;" x1="605" x2="943" y1="145.6094" y2="145.6094"/><text fill="#000000" font-family="sans-serif" font-size="14" lengthAdjust="spacing" textLength="99" x="724.5" y="137.5332">crearProyecto()</text><g id="crearProyecto.SolicitandoDatos"><rect fill="#F1F1F1" height="50" rx="12.5" ry="12.5" style="stroke:#181818;stroke-width:0.5;" width="50" x="617" y="248.6094"/><line style="stroke:#181818;stroke-width:0.5;" x1="617" x2="667" y1="276.2188" y2="276.2188"/><text fill="#000000" font-family="sans-serif" font-size="14" lengthAdjust="spacing" textLength="4" x="640" y="268.1426">&#160;</text></g><g id="crearProyecto.RegistrandoProyecto"><rect fill="#F1F1F1" height="50" rx="12.5" ry="12.5" style="stroke:#181818;stroke-width:0.5;" width="50" x="617" y="468.6094"/><line style="stroke:#181818;stroke-width:0.5;" x1="617" x2="667" y1="496.2188" y2="496.2188"/><text fill="#000000" font-family="sans-serif" font-size="14" lengthAdjust="spacing" textLength="4" x="640" y="488.1426">&#160;</text></g><ellipse cx="642" cy="166.6094" fill="#222222" rx="10" ry="10" style="stroke:#222222;stroke-width:1.0;"/><ellipse cx="642" cy="617.6094" fill="none" rx="11" ry="11" style="stroke:#222222;stroke-width:1.0;"/><ellipse cx="642" cy="617.6094" fill="#222222" rx="6" ry="6" style="stroke:#222222;stroke-width:1.0;"/><!--link *start*crearProyecto to SolicitandoDatos--><g id="link_*start*crearProyecto_SolicitandoDatos"><path d="M642,176.9294 C642,192.7894 642,219.5194 642,242.2494 " fill="none" id="*start*crearProyecto-to-SolicitandoDatos" style="stroke:#008000;stroke-width:1.0;"/><polygon fill="#008000" points="642,248.2494,646,239.2494,642,243.2494,638,239.2494,642,248.2494" style="stroke:#008000;stroke-width:1.0;"/><path d="M647,199.6094 L647,225.6094 L934,225.6094 L934,209.6094 L924,199.6094 L647,199.6094 " fill="#FEFFDD" style="stroke:#181818;stroke-width:0.5;"/><path d="M924,199.6094 L924,209.6094 L934,209.6094 L924,199.6094 " fill="#FEFFDD" style="stroke:#181818;stroke-width:0.5;"/><text fill="#000000" font-family="sans-serif" font-size="13" font-weight="bold" lengthAdjust="spacing" textLength="79" x="653" y="218.1045">Coordinador</text><text fill="#000000" font-family="sans-serif" font-size="13" lengthAdjust="spacing" textLength="183" x="736" y="218.1045">solicita crear un nuevo proyecto</text></g><!--link SolicitandoDatos to RegistrandoProyecto--><g id="link_SolicitandoDatos_RegistrandoProyecto"><path d="M642,298.7694 C642,340.6794 642,420.3594 642,462.3394 " fill="none" id="SolicitandoDatos-to-RegistrandoProyecto" style="stroke:#008000;stroke-width:1.0;"/><polygon fill="#008000" points="642,468.3394,646,459.3394,642,463.3394,638,459.3394,642,468.3394" style="stroke:#008000;stroke-width:1.0;"/><path d="M647,321.6094 L647,445.6094 L900,445.6094 L900,331.6094 L890,321.6094 L647,321.6094 " fill="#FEFFDD" style="stroke:#181818;stroke-width:0.5;"/><path d="M890,321.6094 L890,331.6094 L900,331.6094 L890,321.6094 " fill="#FEFFDD" style="stroke:#181818;stroke-width:0.5;"/><text fill="#000000" font-family="sans-serif" font-size="13" font-weight="bold" lengthAdjust="spacing" textLength="51" x="653" y="340.1045">Sistema</text><text fill="#000000" font-family="sans-serif" font-size="13" lengthAdjust="spacing" textLength="177" x="708" y="340.1045">solicita los datos del proyecto:</text><text fill="#000000" font-family="sans-serif" font-size="13" lengthAdjust="spacing" textLength="96" x="653" y="356.4561">&#8226; ID del proyecto</text><text fill="#000000" font-family="sans-serif" font-size="13" lengthAdjust="spacing" textLength="40" x="653" y="372.8076">&#8226; T&#237;tulo</text><text fill="#000000" font-family="sans-serif" font-size="13" lengthAdjust="spacing" textLength="87" x="653" y="389.1592">&#8226; Estado inicial</text><text fill="#000000" font-family="sans-serif" font-size="13" lengthAdjust="spacing" textLength="146" x="653" y="405.5107">&#8226; Nombre del coordinador</text><text fill="#000000" font-family="sans-serif" font-size="13" lengthAdjust="spacing" textLength="132" x="653" y="421.8623">&#8226; Fechas de inicio y fin</text><text fill="#000000" font-family="sans-serif" font-size="13" lengthAdjust="spacing" textLength="77" x="653" y="438.2139">&#8226; Descripci&#243;n</text></g><!--link RegistrandoProyecto to *end*crearProyecto--><g id="link_RegistrandoProyecto_*end*crearProyecto"><path d="M642,518.7094 C642,545.3794 642,581.1094 642,600.3094 " fill="none" id="RegistrandoProyecto-to-*end*crearProyecto" style="stroke:#008000;stroke-width:1.0;"/><polygon fill="#008000" points="642,606.3094,646,597.3094,642,601.3094,638,597.3094,642,606.3094" style="stroke:#008000;stroke-width:1.0;"/><path d="M647,541.6094 L647,583.6094 L927,583.6094 L927,551.6094 L917,541.6094 L647,541.6094 " fill="#FEFFDD" style="stroke:#181818;stroke-width:0.5;"/><path d="M917,541.6094 L917,551.6094 L927,551.6094 L917,541.6094 " fill="#FEFFDD" style="stroke:#181818;stroke-width:0.5;"/><text fill="#000000" font-family="sans-serif" font-size="13" font-weight="bold" lengthAdjust="spacing" textLength="79" x="653" y="560.1045">Coordinador</text><text fill="#000000" font-family="sans-serif" font-size="13" lengthAdjust="spacing" textLength="176" x="736" y="560.1045">introduce los datos solicitados</text><text fill="#000000" font-family="sans-serif" font-size="13" font-weight="bold" lengthAdjust="spacing" textLength="51" x="653" y="576.4561">Sistema</text><text fill="#000000" font-family="sans-serif" font-size="13" lengthAdjust="spacing" textLength="148" x="708" y="576.4561">registra el nuevo proyecto</text></g><g id="PROYECTO_ABIERTO"><rect fill="#F1F1F1" height="50" rx="12.5" ry="12.5" style="stroke:#181818;stroke-width:0.5;" width="166" x="228" y="735"/><line style="stroke:#181818;stroke-width:0.5;" x1="228" x2="394" y1="762.6094" y2="762.6094"/><text fill="#000000" font-family="sans-serif" font-size="14" lengthAdjust="spacing" textLength="146" x="238" y="754.5332">PROYECTO_ABIERTO</text></g><g id="PROYECTOS_ABIERTOS"><rect fill="#F1F1F1" height="50" rx="12.5" ry="12.5" style="stroke:#181818;stroke-width:0.5;" width="184" x="738" y="735"/><line style="stroke:#181818;stroke-width:0.5;" x1="738" x2="922" y1="762.6094" y2="762.6094"/><text fill="#000000" font-family="sans-serif" font-size="14" lengthAdjust="spacing" textLength="164" x="748" y="754.5332">PROYECTOS_ABIERTOS</text></g><g id="ENTREGABLES_ABIERTOS"><rect fill="#F1F1F1" height="50" rx="12.5" ry="12.5" style="stroke:#181818;stroke-width:0.5;" width="198" x="1064" y="735"/><line style="stroke:#181818;stroke-width:0.5;" x1="1064" x2="1262" y1="762.6094" y2="762.6094"/><text fill="#000000" font-family="sans-serif" font-size="14" lengthAdjust="spacing" textLength="178" x="1074" y="754.5332">ENTREGABLES_ABIERTOS</text></g><g id="INVESTIGADORES_ABIERTOS"><rect fill="#F1F1F1" height="50" rx="12.5" ry="12.5" style="stroke:#181818;stroke-width:0.5;" width="217" x="1347.5" y="735"/><line style="stroke:#181818;stroke-width:0.5;" x1="1347.5" x2="1564.5" y1="762.6094" y2="762.6094"/><text fill="#000000" font-family="sans-serif" font-size="14" lengthAdjust="spacing" textLength="197" x="1357.5" y="754.5332">INVESTIGADORES_ABIERTOS</text></g><!--link in1 to crearProyecto--><g id="link_in1_crearProyecto"><path d="M774,57.22 C774,72.31 774,87.45 774,111.74 " fill="none" id="in1-to-crearProyecto" style="stroke:#008000;stroke-width:1.0;"/><polygon fill="#008000" points="774,117.74,778,108.74,774,112.74,770,108.74,774,117.74" style="stroke:#008000;stroke-width:1.0;"/></g><!--link crearProyecto to PROYECTO_ABIERTO--><g id="link_crearProyecto_PROYECTO_ABIERTO"><path d="M604.98,443.21 C378.86,528.45 6,669 6,669 C6,669 6,705 6,705 C6,705 131.4418,727.2146 221.7518,743.1946 " fill="none" id="crearProyecto-to-PROYECTO_ABIERTO" style="stroke:#008000;stroke-width:1.0;"/><polygon fill="#008000" points="227.66,744.24,219.4946,738.733,222.7365,743.3688,218.1007,746.6107,227.66,744.24" style="stroke:#008000;stroke-width:1.0;"/><path d="M11,674 L11,700 L181,700 L181,684 L171,674 L11,674 " fill="#FEFFDD" style="stroke:#181818;stroke-width:0.5;"/><path d="M171,674 L171,684 L181,684 L171,674 " fill="#FEFFDD" style="stroke:#181818;stroke-width:0.5;"/><text fill="#000000" font-family="sans-serif" font-size="13" lengthAdjust="spacing" textLength="149" x="17" y="692.4951">Proyecto creado y abierto</text></g><!--link crearProyecto to PROYECTO_ABIERTO--><g id="link_crearProyecto_PROYECTO_ABIERTO"><path d="M604.74,468.92 C443.76,553.96 226,669 226,669 C226,669 226,705 226,705 C226,705 245.2743,717.2547 267.9143,731.6247 " fill="none" id="crearProyecto-to-PROYECTO_ABIERTO-1" style="stroke:#008000;stroke-width:1.0;"/><polygon fill="#008000" points="272.98,734.84,267.5249,726.6399,268.7585,732.1606,263.2378,733.3942,272.98,734.84" style="stroke:#008000;stroke-width:1.0;"/><path d="M231,674 L231,700 L344,700 L344,684 L334,674 L231,674 " fill="#FEFFDD" style="stroke:#181818;stroke-width:0.5;"/><path d="M334,674 L334,684 L344,684 L334,674 " fill="#FEFFDD" style="stroke:#181818;stroke-width:0.5;"/><text fill="#000000" font-family="sans-serif" font-size="13" lengthAdjust="spacing" textLength="92" x="237" y="692.4951">editarProyecto()</text></g><!--link crearProyecto to PROYECTO_ABIERTO--><g id="link_crearProyecto_PROYECTO_ABIERTO"><path d="M604.85,506.69 C501.49,584.42 389,669 389,669 C389,669 358.94,703.6863 335.83,730.3463 " fill="none" id="crearProyecto-to-PROYECTO_ABIERTO-2" style="stroke:#008000;stroke-width:1.0;"/><polygon fill="#008000" points="331.9,734.88,340.8175,730.6994,335.175,731.1019,334.7726,725.4594,331.9,734.88" style="stroke:#008000;stroke-width:1.0;"/><path d="M394,674 L394,700 L534,700 L534,684 L524,674 L394,674 " fill="#FEFFDD" style="stroke:#181818;stroke-width:0.5;"/><path d="M524,674 L524,684 L534,684 L524,674 " fill="#FEFFDD" style="stroke:#181818;stroke-width:0.5;"/><text fill="#000000" font-family="sans-serif" font-size="13" lengthAdjust="spacing" textLength="119" x="400" y="692.4951">agregarInvestigador()</text></g><!--link crearProyecto to PROYECTO_ABIERTO--><g id="link_crearProyecto_PROYECTO_ABIERTO"><path d="M604.9,617.77 C569.68,667.41 543,705 543,705 C543,705 466.5137,722.7994 399.9437,738.2994 " fill="none" id="crearProyecto-to-PROYECTO_ABIERTO-3" style="stroke:#008000;stroke-width:1.0;"/><polygon fill="#008000" points="394.1,739.66,403.7726,741.5148,398.9697,738.5261,401.9584,733.7233,394.1,739.66" style="stroke:#008000;stroke-width:1.0;"/><path d="M573,674 L573,700 L715,700 L715,684 L705,674 L573,674 " fill="#FEFFDD" style="stroke:#181818;stroke-width:0.5;"/><path d="M705,674 L705,684 L715,684 L705,674 " fill="#FEFFDD" style="stroke:#181818;stroke-width:0.5;"/><text fill="#000000" font-family="sans-serif" font-size="13" lengthAdjust="spacing" textLength="121" x="579" y="692.4951">eliminarInvestigador()</text></g><!--link crearProyecto to PROYECTOS_ABIERTOS--><g id="link_crearProyecto_PROYECTOS_ABIERTOS"><path d="M771.31,639.11 C771.12,657.51 771,669 771,669 C771,669 771,705 771,705 C771,705 783.4727,716.4204 799.1827,730.7904 " fill="none" id="crearProyecto-to-PROYECTOS_ABIERTOS" style="stroke:#008000;stroke-width:1.0;"/><polygon fill="#008000" points="803.61,734.84,799.6689,725.8141,799.9206,731.4653,794.2694,731.7171,803.61,734.84" style="stroke:#008000;stroke-width:1.0;"/><path d="M776,674 L776,700 L902,700 L902,684 L892,674 L776,674 " fill="#FEFFDD" style="stroke:#181818;stroke-width:0.5;"/><path d="M892,674 L892,684 L902,684 L892,674 " fill="#FEFFDD" style="stroke:#181818;stroke-width:0.5;"/><text fill="#000000" font-family="sans-serif" font-size="13" lengthAdjust="spacing" textLength="105" x="782" y="692.4951">eliminarProyecto()</text></g><!--link crearProyecto to PROYECTOS_ABIERTOS--><g id="link_crearProyecto_PROYECTOS_ABIERTOS"><path d="M896.85,639.11 C905.56,657.51 911,669 911,669 C911,669 911,705 911,705 C911,705 892.7927,717.1423 871.2327,731.5123 " fill="none" id="crearProyecto-to-PROYECTOS_ABIERTOS-1" style="stroke:#008000;stroke-width:1.0;"/><polygon fill="#008000" points="866.24,734.84,875.9474,733.1769,870.4005,732.0669,871.5105,726.5201,866.24,734.84" style="stroke:#008000;stroke-width:1.0;"/><path d="M916,674 L916,700 L1029,700 L1029,684 L1019,674 L916,674 " fill="#FEFFDD" style="stroke:#181818;stroke-width:0.5;"/><path d="M1019,674 L1019,684 L1029,684 L1019,674 " fill="#FEFFDD" style="stroke:#181818;stroke-width:0.5;"/><text fill="#000000" font-family="sans-serif" font-size="13" lengthAdjust="spacing" textLength="92" x="922" y="692.4951">abrirProyectos()</text></g><!--link crearProyecto to ENTREGABLES_ABIERTOS--><g id="link_crearProyecto_ENTREGABLES_ABIERTOS"><path d="M943.21,544.57 C1018.4,617.93 1094.4354,692.1099 1133.8954,730.6099 " fill="none" id="crearProyecto-to-ENTREGABLES_ABIERTOS" style="stroke:#008000;stroke-width:1.0;"/><polygon fill="#008000" points="1138.19,734.8,1134.5415,725.6518,1134.6112,731.3083,1128.9548,731.3779,1138.19,734.8" style="stroke:#008000;stroke-width:1.0;"/><path d="M1112,674 L1112,700 L1235,700 L1235,684 L1225,674 L1112,674 " fill="#FEFFDD" style="stroke:#181818;stroke-width:0.5;"/><path d="M1225,674 L1225,684 L1235,684 L1225,674 " fill="#FEFFDD" style="stroke:#181818;stroke-width:0.5;"/><text fill="#000000" font-family="sans-serif" font-size="13" lengthAdjust="spacing" textLength="102" x="1118" y="692.4951">abrirEntregables()</text></g><!--link crearProyecto to ENTREGABLES_ABIERTOS--><g id="link_crearProyecto_ENTREGABLES_ABIERTOS"><path d="M943.09,482.99 C1078.87,566.1 1247,669 1247,669 C1247,669 1247,705 1247,705 C1247,705 1227.9875,717.2261 1205.6275,731.5961 " fill="none" id="crearProyecto-to-ENTREGABLES_ABIERTOS-1" style="stroke:#008000;stroke-width:1.0;"/><polygon fill="#008000" points="1200.58,734.84,1210.3138,733.3392,1204.7863,732.1368,1205.9887,726.6092,1200.58,734.84" style="stroke:#008000;stroke-width:1.0;"/><path d="M1252,674 L1252,700 L1372,700 L1372,684 L1362,674 L1252,674 " fill="#FEFFDD" style="stroke:#181818;stroke-width:0.5;"/><path d="M1362,674 L1362,684 L1372,684 L1362,674 " fill="#FEFFDD" style="stroke:#181818;stroke-width:0.5;"/><text fill="#000000" font-family="sans-serif" font-size="13" lengthAdjust="spacing" textLength="99" x="1258" y="692.4951">crearEntregable()</text></g><!--link crearProyecto to INVESTIGADORES_ABIERTOS--><g id="link_crearProyecto_INVESTIGADORES_ABIERTOS"><path d="M943.39,459.76 C1124.21,545.43 1385,669 1385,669 C1385,669 1412.224,703.5092 1433.254,730.1692 " fill="none" id="crearProyecto-to-INVESTIGADORES_ABIERTOS" style="stroke:#008000;stroke-width:1.0;"/><polygon fill="#008000" points="1436.97,734.88,1434.5366,725.3365,1433.8734,730.9543,1428.2555,730.2911,1436.97,734.88" style="stroke:#008000;stroke-width:1.0;"/><path d="M1417,674 L1417,700 L1553,700 L1553,684 L1543,674 L1417,674 " fill="#FEFFDD" style="stroke:#181818;stroke-width:0.5;"/><path d="M1543,674 L1543,684 L1553,684 L1543,674 " fill="#FEFFDD" style="stroke:#181818;stroke-width:0.5;"/><text fill="#000000" font-family="sans-serif" font-size="13" lengthAdjust="spacing" textLength="115" x="1423" y="692.4951">abrirInvestigadores()</text></g><!--SRC=[hPFHIiCm58Rl-nHXtgWmn5kHmTog56IJRWWYGzBcE8DPKf9C62BuBDvxvIFiJNmIJxgrNMQTSzZUj2VdVEVFVnBpo6L6DPqGmINOMGOaKsBcVeB0M6g1S7bCg26DgxX_4tQ6_S5T-omAO_ne16wjURitrW1or6oHL0FLLrhD8BMg07Z17EL5zWyQv3a823wB_0Q-c3LGWgVSKibKbrfblcV4CER6QfTHzNHPjuSZJrOjIYeaAUas_fW7JfDMHodDkAHCwTEZf4NCid2n1pALH4xXIP6iQEVgGB8SjkYztiiJKgVu9oq3p8G9zNK81B8Soq2KCaxoci_NDn9rlOKoFfo_swce_aCqaYcSBMAfACCzDKaqv8Yqig9SFeVqWRhMYq95PkIUotAv2oRLF4lv_4FME5EpUSySdDhMW-7IQiMcAQmuKfZ4bWDUyr0lsnFStAOflWI1Vs9NDHQNeBW3WIUsB740vkoX2GUD7IedTcK3mwsjN9e_8QixkmOLV8AkxegjLqenRqnr99_0M3vsC_iNRY5s1t3O6yRXHVliClp92PfehaCyLIWz4M3-3PpNLk0jkL7lEXmCeujsjnzlrhpgnjQoVpiNERcezA1V]--></g></svg>