<svg xmlns="http://www.w3.org/2000/svg" xmlns:xlink="http://www.w3.org/1999/xlink" contentStyleType="text/css" data-diagram-type="STATE" height="635px" preserveAspectRatio="none" style="width:592px;height:635px;background:#FFFFFF;" version="1.1" viewBox="0 0 592 635" width="592px" zoomAndPan="magnify"><defs/><g><path d="M99.5,7 L493.5,7 A12.5,12.5 0 0 1 506,19.5 L506,33.2969 L87,33.2969 L87,19.5 A12.5,12.5 0 0 1 99.5,7" fill="#F1F1F1"/><rect fill="none" height="477.2969" rx="12.5" ry="12.5" style="stroke:#181818;stroke-width:0.5;" width="419" x="87" y="7"/><line style="stroke:#181818;stroke-width:0.5;" x1="87" x2="506" y1="33.2969" y2="33.2969"/><text fill="#000000" font-family="sans-serif" font-size="14" lengthAdjust="spacing" textLength="127.5176" x="232.7412" y="24.9951">abrirEntregables()</text><g id="abrirEntregable.MostrandoEntregable"><rect fill="#F1F1F1" height="50" rx="12.5" ry="12.5" style="stroke:#181818;stroke-width:0.5;" width="50" x="99" y="135.2969"/><line style="stroke:#181818;stroke-width:0.5;" x1="99" x2="149" y1="161.5938" y2="161.5938"/><text fill="#000000" font-family="sans-serif" font-size="14" lengthAdjust="spacing" textLength="4.4502" x="121.7749" y="153.292">&#160;</text></g><g id="abrirEntregable.FiltrandoEntregable"><rect fill="#F1F1F1" height="50" rx="12.5" ry="12.5" style="stroke:#181818;stroke-width:0.5;" width="50" x="99" y="331.2969"/><line style="stroke:#181818;stroke-width:0.5;" x1="99" x2="149" y1="357.5938" y2="357.5938"/><text fill="#000000" font-family="sans-serif" font-size="14" lengthAdjust="spacing" textLength="4.4502" x="121.7749" y="349.292">&#160;</text></g><ellipse cx="124" cy="54.2969" fill="#222222" rx="10" ry="10" style="stroke:#222222;stroke-width:1;"/><ellipse cx="124" cy="463.2969" fill="none" rx="11" ry="11" style="stroke:#222222;stroke-width:1;"/><ellipse cx="124" cy="463.2969" fill="#222222" rx="6" ry="6" style="stroke:#222222;stroke-width:1;"/><!--link *start*abrirEntregable to MostrandoEntregable--><g class="link" data-entity-1=".start.abrirEntregable" data-entity-2="MostrandoEntregable" data-source-line="8" data-uid="lnk3" id="link_.start.abrirEntregable_MostrandoEntregable"><path d="M124,64.5269 C124,80.2369 124,106.6569 124,129.1669" fill="none" id="*start*abrirEntregable-to-MostrandoEntregable" style="stroke:#008000;stroke-width:1;"/><polygon fill="#008000" points="124,135.1669,128,126.1669,124,130.1669,120,126.1669,124,135.1669" style="stroke:#008000;stroke-width:1;"/><path d="M129,87.2969 L129,112.2969 L408,112.2969 L408,97.2969 L398,87.2969 L129,87.2969" fill="#FEFFDD" style="stroke:#181818;stroke-width:0.5;"/><path d="M398,87.2969 L398,97.2969 L408,97.2969 L398,87.2969" fill="#FEFFDD" style="stroke:#181818;stroke-width:0.5;"/><text fill="#000000" font-family="sans-serif" font-size="13" font-weight="bold" lengthAdjust="spacing" textLength="92.5171" x="135" y="104.3638">Investigador</text><text fill="#000000" font-family="sans-serif" font-size="13" lengthAdjust="spacing" textLength="162.0874" x="231.6494" y="104.3638">solicita abrir entregables</text></g><!--link MostrandoEntregable to FiltrandoEntregable--><g class="link" data-entity-1="MostrandoEntregable" data-entity-2="FiltrandoEntregable" data-source-line="13" data-uid="lnk4" id="link_MostrandoEntregable_FiltrandoEntregable"><path d="M124,185.4769 C124,222.7569 124,287.8469 124,325.1169" fill="none" id="MostrandoEntregable-to-FiltrandoEntregable" style="stroke:#008000;stroke-width:1;"/><polygon fill="#008000" points="124,331.1169,128,322.1169,124,326.1169,120,322.1169,124,331.1169" style="stroke:#008000;stroke-width:1;"/><path d="M129,208.2969 L129,308.2969 L407,308.2969 L407,218.2969 L397,208.2969 L129,208.2969" fill="#FEFFDD" style="stroke:#181818;stroke-width:0.5;"/><path d="M397,208.2969 L397,218.2969 L407,218.2969 L397,208.2969" fill="#FEFFDD" style="stroke:#181818;stroke-width:0.5;"/><text fill="#000000" font-family="sans-serif" font-size="13" font-weight="bold" lengthAdjust="spacing" textLength="58.9063" x="135" y="225.3638">Sistema</text><text fill="#000000" font-family="sans-serif" font-size="13" lengthAdjust="spacing" textLength="190.9058" x="198.0386" y="225.3638">presenta lista de entregables</text><text fill="#000000" font-family="sans-serif" font-size="13" lengthAdjust="spacing" textLength="257.0737" x="135" y="240.4966">&#8226; ID, t&#237;tulo, estado, coordinador, fechas</text><text fill="#000000" font-family="sans-serif" font-size="13" lengthAdjust="spacing" textLength="227.1445" x="135" y="255.6294">&#8226; Permite solicitar abrir entregable</text><text fill="#000000" font-family="sans-serif" font-size="13" lengthAdjust="spacing" textLength="227.1445" x="135" y="270.7622">&#8226; Permite solicitar abrir entregable</text><text fill="#000000" font-family="sans-serif" font-size="13" lengthAdjust="spacing" textLength="227.1445" x="135" y="285.895">&#8226; Permite solicitar abrir entregable</text><text fill="#000000" font-family="sans-serif" font-size="13" lengthAdjust="spacing" textLength="188.481" x="135" y="301.0278">&#8226; Permite solicitar filtrar lista</text></g><!--link FiltrandoEntregable to FiltrandoEntregable--><g class="link" data-entity-1="FiltrandoEntregable" data-entity-2="FiltrandoEntregable" data-source-line="23" data-uid="lnk5" id="link_FiltrandoEntregable_FiltrandoEntregable"><path d="M149.18,345.0869 C158.91,344.5969 167,348.3269 167,356.2969 C167,364.2669 164.9024,368.2987 155.1724,367.8087" fill="none" id="FiltrandoEntregable-to-FiltrandoEntregable" style="stroke:#008000;stroke-width:1;"/><polygon fill="#008000" points="149.18,367.5069,157.9674,371.9545,154.1737,367.7584,158.3698,363.9646,149.18,367.5069" style="stroke:#008000;stroke-width:1;"/><path d="M172,336.2969 L172,376.2969 L497,376.2969 L497,346.2969 L487,336.2969 L172,336.2969" fill="#FEFFDD" style="stroke:#181818;stroke-width:0.5;"/><path d="M487,336.2969 L487,346.2969 L497,346.2969 L487,336.2969" fill="#FEFFDD" style="stroke:#181818;stroke-width:0.5;"/><text fill="#000000" font-family="sans-serif" font-size="13" font-weight="bold" lengthAdjust="spacing" textLength="92.5171" x="178" y="353.3638">Investigador</text><text fill="#000000" font-family="sans-serif" font-size="13" lengthAdjust="spacing" textLength="116.6509" x="274.6494" y="353.3638">solicita filtrar lista</text><text fill="#000000" font-family="sans-serif" font-size="13" font-weight="bold" lengthAdjust="spacing" textLength="58.9063" x="178" y="368.4966">Sistema</text><text fill="#000000" font-family="sans-serif" font-size="13" lengthAdjust="spacing" textLength="241.4648" x="241.0386" y="368.4966">presenta lista filtrada de entregables</text></g><!--link FiltrandoEntregable to *end*abrirEntregable--><g class="link" data-entity-1="FiltrandoEntregable" data-entity-2=".end.abrirEntregable" data-source-line="29" data-uid="lnk7" id="link_FiltrandoEntregable_.end.abrirEntregable"><path d="M124,381.3869 C124,403.7869 124,430.0669 124,446.2469" fill="none" id="FiltrandoEntregable-to-*end*abrirEntregable" style="stroke:#008000;stroke-width:1;"/><polygon fill="#008000" points="124,452.2469,128,443.2469,124,447.2469,120,443.2469,124,452.2469" style="stroke:#008000;stroke-width:1;"/><path d="M129,404.2969 L129,429.2969 L425,429.2969 L425,414.2969 L415,404.2969 L129,404.2969" fill="#FEFFDD" style="stroke:#181818;stroke-width:0.5;"/><path d="M415,404.2969 L415,414.2969 L425,414.2969 L415,404.2969" fill="#FEFFDD" style="stroke:#181818;stroke-width:0.5;"/><text fill="#000000" font-family="sans-serif" font-size="13" font-weight="bold" lengthAdjust="spacing" textLength="92.5171" x="135" y="421.3638">Investigador</text><text fill="#000000" font-family="sans-serif" font-size="13" lengthAdjust="spacing" textLength="179.2769" x="231.6494" y="421.3638">solicita una de las opciones</text></g><g id="ENTREGABLES_ABIERTOS"><rect fill="#F1F1F1" height="50" rx="12.5" ry="12.5" style="stroke:#181818;stroke-width:0.5;" width="199.3477" x="7" y="579"/><line style="stroke:#181818;stroke-width:0.5;" x1="7" x2="206.3477" y1="605.2969" y2="605.2969"/><text fill="#000000" font-family="sans-serif" font-size="14" lengthAdjust="spacing" textLength="179.3477" x="17" y="596.9951">ENTREGABLES_ABIERTOS</text></g><g id="PROYECTO_ABIERTO"><rect fill="#F1F1F1" height="50" rx="12.5" ry="12.5" style="stroke:#181818;stroke-width:0.5;" width="164.3887" x="330.5" y="579"/><line style="stroke:#181818;stroke-width:0.5;" x1="330.5" x2="494.8887" y1="605.2969" y2="605.2969"/><text fill="#000000" font-family="sans-serif" font-size="14" lengthAdjust="spacing" textLength="144.3887" x="340.5" y="596.9951">PROYECTO_ABIERTO</text></g><!--link abrirEntregable to ENTREGABLES_ABIERTOS--><g class="link" data-entity-1="abrirEntregable" data-entity-2="ENTREGABLES_ABIERTOS" data-source-line="35" data-uid="lnk9" id="link_abrirEntregable_ENTREGABLES_ABIERTOS"><path d="M153.5,484.09 C142.47,502.43 135.5,514 135.5,514 C135.5,514 124.8697,546.6255 116.2797,572.9755" fill="none" id="abrirEntregable-to-ENTREGABLES_ABIERTOS" style="stroke:#008000;stroke-width:1;"/><polygon fill="#008000" points="114.42,578.68,121.0125,571.363,115.9697,573.9262,113.4065,568.8834,114.42,578.68" style="stroke:#008000;stroke-width:1;"/><path d="M140.5,519 L140.5,544 L280.5,544 L280.5,529 L270.5,519 L140.5,519" fill="#FEFFDD" style="stroke:#181818;stroke-width:0.5;"/><path d="M270.5,519 L270.5,529 L280.5,529 L270.5,519" fill="#FEFFDD" style="stroke:#181818;stroke-width:0.5;"/><text fill="#000000" font-family="sans-serif" font-size="13" lengthAdjust="spacing" textLength="119.3867" x="146.5" y="536.0669">editarEntregable()</text></g><!--link abrirEntregable to PROYECTO_ABIERTO--><g class="link" data-entity-1="abrirEntregable" data-entity-2="PROYECTO_ABIERTO" data-source-line="40" data-uid="lnk11" id="link_abrirEntregable_PROYECTO_ABIERTO"><path d="M293.84,484.09 C293.63,502.43 293.5,514 293.5,514 C293.5,514 293.5,549 293.5,549 C293.5,549 322.1156,561.9921 353.8056,576.3621" fill="none" id="abrirEntregable-to-PROYECTO_ABIERTO" style="stroke:#008000;stroke-width:1;"/><polygon fill="#008000" points="359.27,578.84,352.7253,571.4802,354.7163,576.7751,349.4214,578.7661,359.27,578.84" style="stroke:#008000;stroke-width:1;"/><path d="M298.5,519 L298.5,544 L453.5,544 L453.5,529 L443.5,519 L298.5,519" fill="#FEFFDD" style="stroke:#181818;stroke-width:0.5;"/><path d="M443.5,519 L443.5,529 L453.5,529 L443.5,519" fill="#FEFFDD" style="stroke:#181818;stroke-width:0.5;"/><text fill="#000000" font-family="sans-serif" font-size="13" lengthAdjust="spacing" textLength="134.1641" x="304.5" y="536.0669">eliminarEntregable()</text></g><!--link abrirEntregable to PROYECTO_ABIERTO--><g class="link" data-entity-1="abrirEntregable" data-entity-2="PROYECTO_ABIERTO" data-source-line="45" data-uid="lnk12" id="link_abrirEntregable_PROYECTO_ABIERTO"><path d="M443.94,484.09 C455.32,502.43 462.5,514 462.5,514 C462.5,514 462.5,549 462.5,549 C462.5,549 452.2572,560.0681 438.9472,574.4381" fill="none" id="abrirEntregable-to-PROYECTO_ABIERTO-1" style="stroke:#008000;stroke-width:1;"/><polygon fill="#008000" points="434.87,578.84,443.9204,574.9553,438.2677,575.1718,438.0512,569.5191,434.87,578.84" style="stroke:#008000;stroke-width:1;"/><path d="M467.5,519 L467.5,544 L585.5,544 L585.5,529 L575.5,519 L467.5,519" fill="#FEFFDD" style="stroke:#181818;stroke-width:0.5;"/><path d="M575.5,519 L575.5,529 L585.5,529 L575.5,519" fill="#FEFFDD" style="stroke:#181818;stroke-width:0.5;"/><text fill="#000000" font-family="sans-serif" font-size="13" lengthAdjust="spacing" textLength="97.6904" x="473.5" y="536.0669">abrirProyecto()</text></g><!--SRC=[lLFHQi8m57tFLrpSYuxAVa04tReXR5FKbo4oqkRgWcbIaZYGCTYtx7rViJ_PbonDqMhR2PEn50e9vvvxphc9MN6PKaqJ45oYtQG8gHARR4E8iTGYq4Xp7KghSKaZuVO66gKpqsmru8KGS2ilQhZF0U-KiPfAfWfi5NJDHGNaKRFpERHdPqkDAEVjRXqRUA1KZat9pCFA7tIYxa0-ex5yIPdIdOke2qO97dDBSqE0XNfVWfBbF6wHtQ-kvRwaEkq_APfmOp6XNaogqJW5r05S5i2mekVhxHq6Lm7Opm-x5Ye0vyPv2I1MIZCkCry1B31-eaN127N2NUUjLrqn- -_GXKz8vqOFaYvIhadnv9H_ddjLoV6Xv7XMEvtVUt2N-GJDQ-dR2_TCL1fp9SlzNmafFz3zhk7zT1pUzFgtuUInrn-4u-bmGWua8Cl6L9GtMsH7VfHwD1u-X9VJuPQtH2juuYxftnFxof5M6uojskFy1W00]--></g></svg>