<svg xmlns="http://www.w3.org/2000/svg" xmlns:xlink="http://www.w3.org/1999/xlink" contentStyleType="text/css" data-diagram-type="STATE" height="795px" preserveAspectRatio="none" style="width:430px;height:795px;background:#FFFFFF;" version="1.1" viewBox="0 0 430 795" width="430px" zoomAndPan="magnify"><title>Agregar colaborador a proyecto</title><defs/><g><g class="title" data-source-line="1"><text fill="#000000" font-family="sans-serif" font-size="14" font-weight="bold" lengthAdjust="spacing" textLength="252.1709" x="78.9146" y="22.9951">Agregar colaborador a proyecto</text></g><g id="PROYECTO_ABIERTO_INICIAL"><rect fill="#F1F1F1" height="50" rx="12.5" ry="12.5" style="stroke:#181818;stroke-width:0.5;" width="164.3887" x="130" y="44.2969"/><line style="stroke:#181818;stroke-width:0.5;" x1="130" x2="294.3887" y1="70.5938" y2="70.5938"/><text fill="#000000" font-family="sans-serif" font-size="14" lengthAdjust="spacing" textLength="144.3887" x="140" y="62.292">PROYECTO_ABIERTO</text></g><g id="PROYECTO_ABIERTO_FINAL"><rect fill="#F1F1F1" height="50" rx="12.5" ry="12.5" style="stroke:#181818;stroke-width:0.5;" width="164.3887" x="130" y="739.2969"/><line style="stroke:#181818;stroke-width:0.5;" x1="130" x2="294.3887" y1="765.5938" y2="765.5938"/><text fill="#000000" font-family="sans-serif" font-size="14" lengthAdjust="spacing" textLength="144.3887" x="140" y="757.292">PROYECTO_ABIERTO</text></g><path d="M19.5,155.2969 L404.5,155.2969 A12.5,12.5 0 0 1 417,167.7969 L417,181.5938 L7,181.5938 L7,167.7969 A12.5,12.5 0 0 1 19.5,155.2969" fill="#F1F1F1"/><rect fill="none" height="507.2969" rx="12.5" ry="12.5" style="stroke:#181818;stroke-width:0.5;" width="410" x="7" y="155.2969"/><line style="stroke:#181818;stroke-width:0.5;" x1="7" x2="417" y1="181.5938" y2="181.5938"/><text fill="#000000" font-family="sans-serif" font-size="14" lengthAdjust="spacing" textLength="151.7852" x="136.1074" y="173.292">agregarColaborador()</text><g id="agregarColaborador.SeleccionarPersona"><rect fill="#F1F1F1" height="50" rx="12.5" ry="12.5" style="stroke:#181818;stroke-width:0.5;" width="50" x="19" y="298.5938"/><line style="stroke:#181818;stroke-width:0.5;" x1="19" x2="69" y1="324.8906" y2="324.8906"/><text fill="#000000" font-family="sans-serif" font-size="14" lengthAdjust="spacing" textLength="4.4502" x="41.7749" y="316.5889">&#160;</text></g><g id="agregarColaborador.ConfirmarAlta"><rect fill="#F1F1F1" height="50" rx="12.5" ry="12.5" style="stroke:#181818;stroke-width:0.5;" width="50" x="19" y="494.5938"/><line style="stroke:#181818;stroke-width:0.5;" x1="19" x2="69" y1="520.8906" y2="520.8906"/><text fill="#000000" font-family="sans-serif" font-size="14" lengthAdjust="spacing" textLength="4.4502" x="41.7749" y="512.5889">&#160;</text></g><ellipse cx="44" cy="202.5938" fill="#222222" rx="10" ry="10" style="stroke:#222222;stroke-width:1;"/><ellipse cx="44" cy="641.5938" fill="none" rx="11" ry="11" style="stroke:#222222;stroke-width:1;"/><ellipse cx="44" cy="641.5938" fill="#222222" rx="6" ry="6" style="stroke:#222222;stroke-width:1;"/><!--link *start*agregarColaborador to SeleccionarPersona--><g class="link" data-entity-1=".start.agregarColaborador" data-entity-2="SeleccionarPersona" data-source-line="14" data-uid="lnk4" id="link_.start.agregarColaborador_SeleccionarPersona"><path d="M44,212.9337 C44,231.1237 44,265.8338 44,292.2038" fill="none" id="*start*agregarColaborador-to-SeleccionarPersona" style="stroke:#008000;stroke-width:1;"/><polygon fill="#008000" points="44,298.2038,48,289.2038,44,293.2038,40,289.2038,44,298.2038" style="stroke:#008000;stroke-width:1;"/><path d="M49,235.5938 L49,275.5938 L408,275.5938 L408,245.5938 L398,235.5938 L49,235.5938" fill="#FEFFDD" style="stroke:#181818;stroke-width:0.5;"/><path d="M398,235.5938 L398,245.5938 L408,245.5938 L398,235.5938" fill="#FEFFDD" style="stroke:#181818;stroke-width:0.5;"/><text fill="#000000" font-family="sans-serif" font-size="13" font-weight="bold" lengthAdjust="spacing" textLength="90.251" x="55" y="252.6606">Coordinador</text><text fill="#000000" font-family="sans-serif" font-size="13" lengthAdjust="spacing" textLength="243.75" x="149.3833" y="252.6606">se encuentra en PROYECTO_ABIERTO</text><text fill="#000000" font-family="sans-serif" font-size="13" lengthAdjust="spacing" textLength="297.4258" x="55" y="267.7935">y selecciona la opci&#243;n "Agregar colaborador".</text></g><!--link SeleccionarPersona to ConfirmarAlta--><g class="link" data-entity-1="SeleccionarPersona" data-entity-2="ConfirmarAlta" data-source-line="20" data-uid="lnk5" id="link_SeleccionarPersona_ConfirmarAlta"><path d="M44,348.7738 C44,386.0538 44,451.1438 44,488.4138" fill="none" id="SeleccionarPersona-to-ConfirmarAlta" style="stroke:#008000;stroke-width:1;"/><polygon fill="#008000" points="44,494.4138,48,485.4138,44,489.4138,40,485.4138,44,494.4138" style="stroke:#008000;stroke-width:1;"/><path d="M49,371.5938 L49,471.5938 L369,471.5938 L369,381.5938 L359,371.5938 L49,371.5938" fill="#FEFFDD" style="stroke:#181818;stroke-width:0.5;"/><path d="M359,371.5938 L359,381.5938 L369,381.5938 L359,371.5938" fill="#FEFFDD" style="stroke:#181818;stroke-width:0.5;"/><text fill="#000000" font-family="sans-serif" font-size="13" font-weight="bold" lengthAdjust="spacing" textLength="58.9063" x="55" y="388.6606">Sistema</text><text fill="#000000" font-family="sans-serif" font-size="13" lengthAdjust="spacing" textLength="206.7813" x="118.0386" y="388.6606">muestra un listado/buscador de</text><text fill="#000000" font-family="sans-serif" font-size="13" lengthAdjust="spacing" textLength="258.7749" x="55" y="403.7935">posibles colaboradores (investigadores,</text><text fill="#000000" font-family="sans-serif" font-size="13" lengthAdjust="spacing" textLength="231.8164" x="55" y="418.9263">docentes u otros perfiles externos).</text><text fill="#000000" font-family="sans-serif" font-size="13" lengthAdjust="spacing" textLength="4.1323" x="55" y="434.0591">&#160;</text><text fill="#000000" font-family="sans-serif" font-size="13" font-weight="bold" lengthAdjust="spacing" textLength="90.251" x="55" y="449.1919">Coordinador</text><text fill="#000000" font-family="sans-serif" font-size="13" lengthAdjust="spacing" textLength="205.2007" x="149.3833" y="449.1919">selecciona la persona a asignar</text><text fill="#000000" font-family="sans-serif" font-size="13" lengthAdjust="spacing" textLength="229.4043" x="55" y="464.3247">y define su rol dentro del proyecto.</text></g><!--link ConfirmarAlta to *end*agregarColaborador--><g class="link" data-entity-1="ConfirmarAlta" data-entity-2=".end.agregarColaborador" data-source-line="30" data-uid="lnk7" id="link_ConfirmarAlta_.end.agregarColaborador"><path d="M44,544.8738 C44,571.1737 44,605.8638 44,624.5738" fill="none" id="ConfirmarAlta-to-*end*agregarColaborador" style="stroke:#008000;stroke-width:1;"/><polygon fill="#008000" points="44,630.5738,48,621.5738,44,625.5738,40,621.5738,44,630.5738" style="stroke:#008000;stroke-width:1;"/><path d="M49,567.5938 L49,607.5938 L353,607.5938 L353,577.5938 L343,567.5938 L49,567.5938" fill="#FEFFDD" style="stroke:#181818;stroke-width:0.5;"/><path d="M343,567.5938 L343,577.5938 L353,577.5938 L343,567.5938" fill="#FEFFDD" style="stroke:#181818;stroke-width:0.5;"/><text fill="#000000" font-family="sans-serif" font-size="13" font-weight="bold" lengthAdjust="spacing" textLength="58.9063" x="55" y="584.6606">Sistema</text><text fill="#000000" font-family="sans-serif" font-size="13" lengthAdjust="spacing" textLength="204.5786" x="118.0386" y="584.6606">asigna el colaborador al equipo</text><text fill="#000000" font-family="sans-serif" font-size="13" lengthAdjust="spacing" textLength="283.1309" x="55" y="599.7935">del proyecto y actualiza la ficha del mismo.</text></g><!--link PROYECTO_ABIERTO_INICIAL to agregarColaborador--><g class="link" data-entity-1="PROYECTO_ABIERTO_INICIAL" data-entity-2="agregarColaborador" data-source-line="7" data-uid="lnk2" id="link_PROYECTO_ABIERTO_INICIAL_agregarColaborador"><path d="M212,94.2969 C212,109.4369 212,124.7069 212,149.1269" fill="none" id="PROYECTO_ABIERTO_INICIAL-to-agregarColaborador" style="stroke:#008000;stroke-width:1;"/><polygon fill="#008000" points="212,155.1269,216,146.1269,212,150.1269,208,146.1269,212,155.1269" style="stroke:#008000;stroke-width:1;"/></g><!--link agregarColaborador to PROYECTO_ABIERTO_FINAL--><g class="link" data-entity-1="agregarColaborador" data-entity-2="PROYECTO_ABIERTO_FINAL" data-source-line="37" data-uid="lnk8" id="link_agregarColaborador_PROYECTO_ABIERTO_FINAL"><path d="M212,662.4669 C212,693.5869 212,714.8169 212,733.1169" fill="none" id="agregarColaborador-to-PROYECTO_ABIERTO_FINAL" style="stroke:#008000;stroke-width:1;"/><polygon fill="#008000" points="212,739.1169,216,730.1169,212,734.1169,208,730.1169,212,739.1169" style="stroke:#008000;stroke-width:1;"/><text fill="#000000" font-family="sans-serif" font-size="13" lengthAdjust="spacing" textLength="150.8013" x="213" y="705.3638">colaboradorAgregado()</text></g><!--SRC=[ZPF1Qjmm48RlUeh1lUoM9hcNiB0rAHXA4f9UIWXbBCzkHMIDAicbszAdwYFqnJgMazIErr1ya2NDh_dcboQPP0cs-q1x3A3POiq16mw0u0CVI2TMyS4uZm5RiCPHEdW2p_RGJvIA2HF1zStLfulouzNdxRlguaR6wh8gg-q7m0Z5oyrYIVI-kXG9B8ZKOfAJkrTI0RdxamtWK4lvhvGdnlbEJZHVNgqB-AcKWC2WBEIJq5kofBLXX-6QGfHn7bEosvdGOjZQXCCPTw_l9uGBnpYMKzZr7Z_aXVDwKpA7nhWUwloita0a8ASxSYcW_CqSpBg3X3rb08l0Nfi_lnqKHwwvECqISatEFm3F0IVyqnANq6zDJDHYncuxYZrnruU8NGsVrLtK-GeQoWhFqTIMuXXEPYlZledMx8VvcnpRi1O7PBS3Je4ZU0exqulfUwBWEAvFrRA5Os_yOttoHRENWXyTR6WdhnjY1u6jpCHmbi4-DyKntoR6J2oJ9_1VHWqG87achMY1ldR6yr3zY498KQSEhVcHozaP_GLpH6jY-nBobr97Uc3CkT2HRySumojgUBN-2m00]--></g></svg>