<svg xmlns="http://www.w3.org/2000/svg" xmlns:xlink="http://www.w3.org/1999/xlink" contentStyleType="text/css" data-diagram-type="STATE" height="629px" preserveAspectRatio="none" style="width:416px;height:629px;background:#FFFFFF;" version="1.1" viewBox="0 0 416 629" width="416px" zoomAndPan="magnify"><title>Archivar propuesta rechazada</title><defs/><g><g class="title" data-source-line="1"><text fill="#000000" font-family="sans-serif" font-size="14" font-weight="bold" lengthAdjust="spacing" textLength="237.7061" x="79.147" y="22.9951">Archivar propuesta rechazada</text></g><g id="PROPUESTA_ABIERTA_INICIAL"><rect fill="#F1F1F1" height="50" rx="12.5" ry="12.5" style="stroke:#181818;stroke-width:0.5;" width="170.7529" x="119.5" y="44.2969"/><line style="stroke:#181818;stroke-width:0.5;" x1="119.5" x2="290.2529" y1="70.5938" y2="70.5938"/><text fill="#000000" font-family="sans-serif" font-size="14" lengthAdjust="spacing" textLength="150.7529" x="129.5" y="62.292">PROPUESTA_ABIERTA</text></g><g id="PROPUESTAS_ABIERTAS_FINAL"><rect fill="#F1F1F1" height="50" rx="12.5" ry="12.5" style="stroke:#181818;stroke-width:0.5;" width="188.5264" x="110.5" y="573.2969"/><line style="stroke:#181818;stroke-width:0.5;" x1="110.5" x2="299.0264" y1="599.5938" y2="599.5938"/><text fill="#000000" font-family="sans-serif" font-size="14" lengthAdjust="spacing" textLength="168.5264" x="120.5" y="591.292">PROPUESTAS_ABIERTAS</text></g><path d="M19.5,155.2969 L390.5,155.2969 A12.5,12.5 0 0 1 403,167.7969 L403,181.5938 L7,181.5938 L7,167.7969 A12.5,12.5 0 0 1 19.5,155.2969" fill="#F1F1F1"/><rect fill="none" height="341.2969" rx="12.5" ry="12.5" style="stroke:#181818;stroke-width:0.5;" width="396" x="7" y="155.2969"/><line style="stroke:#181818;stroke-width:0.5;" x1="7" x2="403" y1="181.5938" y2="181.5938"/><text fill="#000000" font-family="sans-serif" font-size="14" lengthAdjust="spacing" textLength="215.7217" x="97.1392" y="173.292">archivarPropuestaRechazada()</text><g id="archivarPropuestaRechazada.ConfirmarArchivado"><rect fill="#F1F1F1" height="50" rx="12.5" ry="12.5" style="stroke:#181818;stroke-width:0.5;" width="50" x="19" y="313.5938"/><line style="stroke:#181818;stroke-width:0.5;" x1="19" x2="69" y1="339.8906" y2="339.8906"/><text fill="#000000" font-family="sans-serif" font-size="14" lengthAdjust="spacing" textLength="4.4502" x="41.7749" y="331.5889">&#160;</text></g><ellipse cx="44" cy="202.5938" fill="#222222" rx="10" ry="10" style="stroke:#222222;stroke-width:1;"/><ellipse cx="44" cy="475.5938" fill="none" rx="11" ry="11" style="stroke:#222222;stroke-width:1;"/><ellipse cx="44" cy="475.5938" fill="#222222" rx="6" ry="6" style="stroke:#222222;stroke-width:1;"/><!--link *start*archivarPropuestaRechazada to ConfirmarArchivado--><g class="link" data-entity-1=".start.archivarPropuestaRechazada" data-entity-2="ConfirmarArchivado" data-source-line="13" data-uid="lnk4" id="link_.start.archivarPropuestaRechazada_ConfirmarArchivado"><path d="M44,212.8037 C44,233.3238 44,277.3438 44,307.4638" fill="none" id="*start*archivarPropuestaRechazada-to-ConfirmarArchivado" style="stroke:#008000;stroke-width:1;"/><polygon fill="#008000" points="44,313.4638,48,304.4638,44,308.4638,40,304.4638,44,313.4638" style="stroke:#008000;stroke-width:1;"/><path d="M49,235.5938 L49,290.5938 L345,290.5938 L345,245.5938 L335,235.5938 L49,235.5938" fill="#FEFFDD" style="stroke:#181818;stroke-width:0.5;"/><path d="M335,235.5938 L335,245.5938 L345,245.5938 L335,235.5938" fill="#FEFFDD" style="stroke:#181818;stroke-width:0.5;"/><text fill="#000000" font-family="sans-serif" font-size="13" font-weight="bold" lengthAdjust="spacing" textLength="90.251" x="55" y="252.6606">Coordinador</text><text fill="#000000" font-family="sans-serif" font-size="13" lengthAdjust="spacing" textLength="181.0859" x="149.3833" y="252.6606">consulta una propuesta con</text><text fill="#000000" font-family="sans-serif" font-size="13" lengthAdjust="spacing" textLength="215.9282" x="55" y="267.7935">estado "Rechazada" y selecciona</text><text fill="#000000" font-family="sans-serif" font-size="13" lengthAdjust="spacing" textLength="140.3403" x="55" y="282.9263">"Archivar propuesta".</text></g><!--link ConfirmarArchivado to *end*archivarPropuestaRechazada--><g class="link" data-entity-1="ConfirmarArchivado" data-entity-2=".end.archivarPropuestaRechazada" data-source-line="20" data-uid="lnk6" id="link_ConfirmarArchivado_.end.archivarPropuestaRechazada"><path d="M44,363.7338 C44,393.6138 44,437.1538 44,458.4038" fill="none" id="ConfirmarArchivado-to-*end*archivarPropuestaRechazada" style="stroke:#008000;stroke-width:1;"/><polygon fill="#008000" points="44,464.4038,48,455.4038,44,459.4038,40,455.4038,44,464.4038" style="stroke:#008000;stroke-width:1;"/><path d="M49,386.5938 L49,441.5938 L394,441.5938 L394,396.5938 L384,386.5938 L49,386.5938" fill="#FEFFDD" style="stroke:#181818;stroke-width:0.5;"/><path d="M384,386.5938 L384,396.5938 L394,396.5938 L384,386.5938" fill="#FEFFDD" style="stroke:#181818;stroke-width:0.5;"/><text fill="#000000" font-family="sans-serif" font-size="13" font-weight="bold" lengthAdjust="spacing" textLength="58.9063" x="55" y="403.6606">Sistema</text><text fill="#000000" font-family="sans-serif" font-size="13" lengthAdjust="spacing" textLength="210.0186" x="118.0386" y="403.6606">mueve la propuesta al hist&#243;rico,</text><text fill="#000000" font-family="sans-serif" font-size="13" lengthAdjust="spacing" textLength="308.877" x="55" y="418.7935">la marca como "Archivada" y deja de mostrarla</text><text fill="#000000" font-family="sans-serif" font-size="13" lengthAdjust="spacing" textLength="324.6826" x="55" y="433.9263">en el listado principal de PROPUESTAS_ABIERTAS.</text></g><!--link PROPUESTA_ABIERTA_INICIAL to archivarPropuestaRechazada--><g class="link" data-entity-1="PROPUESTA_ABIERTA_INICIAL" data-entity-2="archivarPropuestaRechazada" data-source-line="7" data-uid="lnk2" id="link_PROPUESTA_ABIERTA_INICIAL_archivarPropuestaRechazada"><path d="M205,94.6969 C205,110.1269 205,125.5769 205,149.2269" fill="none" id="PROPUESTA_ABIERTA_INICIAL-to-archivarPropuestaRechazada" style="stroke:#008000;stroke-width:1;"/><polygon fill="#008000" points="205,155.2269,209,146.2269,205,150.2269,201,146.2269,205,155.2269" style="stroke:#008000;stroke-width:1;"/></g><!--link archivarPropuestaRechazada to PROPUESTAS_ABIERTAS_FINAL--><g class="link" data-entity-1="archivarPropuestaRechazada" data-entity-2="PROPUESTAS_ABIERTAS_FINAL" data-source-line="28" data-uid="lnk7" id="link_archivarPropuestaRechazada_PROPUESTAS_ABIERTAS_FINAL"><path d="M205,496.5769 C205,526.7169 205,548.4169 205,567.0969" fill="none" id="archivarPropuestaRechazada-to-PROPUESTAS_ABIERTAS_FINAL" style="stroke:#008000;stroke-width:1;"/><polygon fill="#008000" points="205,573.0969,209,564.0969,205,568.0969,201,564.0969,205,573.0969" style="stroke:#008000;stroke-width:1;"/><text fill="#000000" font-family="sans-serif" font-size="13" lengthAdjust="spacing" textLength="141.1338" x="206" y="539.3638">propuestaArchivada()</text></g><!--SRC=[VPBVIiCm5CRlynI7UBE9qtiPWpec56IELQ_666TfT75fKj9sCCMdyX5yCK_JhljRMsX9pdVE-NqvoLMk9GHEhDG67QJEfeNCSWGdnGe_CKQMhPL9qM42MXcPRrC9gTNRSi4OINC9a-dpv7KKlGIBu24SJUaVZiDX63m1Pi3FelmqBTf5eiLZE3vDsqSvO-sjUhEhToUbcVS6WBMXoSxFjB5JzsvN-ERjuKwNmnTZG4zLYTDBAKDhtfHBqDM76TjADBkU7w5Tq9KoOwcKDUKPh_r6VpaOMkjYPKZY-dVB0GXhiaBJS0g31wEYRPzHBc8Bl47bi8LCQYc4iWQzXf-FcjzMsIRs41NrEUMH2JBLIXsfB9S9UkAaa1i9-f0MDQn8yVlZbB0tFedYr4cKJXBR85RyiVn0-a1YizoXqrZ3WjJKjNASEcM4IgboVF5IdHZyPkoVwH_QRB-Wztj73Mwd-mS0]--></g></svg>