<svg xmlns="http://www.w3.org/2000/svg" xmlns:xlink="http://www.w3.org/1999/xlink" contentStyleType="text/css" data-diagram-type="STATE" height="841px" preserveAspectRatio="none" style="width:430px;height:841px;background:#FFFFFF;" version="1.1" viewBox="0 0 430 841" width="430px" zoomAndPan="magnify"><title>Configurar entregables de proyecto</title><defs/><g><g class="title" data-source-line="1"><text fill="#000000" font-family="sans-serif" font-size="14" font-weight="bold" lengthAdjust="spacing" textLength="282.5771" x="63.7114" y="22.9951">Configurar entregables de proyecto</text></g><g id="PROYECTO_ABIERTO_INICIAL"><rect fill="#F1F1F1" height="50" rx="12.5" ry="12.5" style="stroke:#181818;stroke-width:0.5;" width="164.3887" x="130" y="44.2969"/><line style="stroke:#181818;stroke-width:0.5;" x1="130" x2="294.3887" y1="70.5938" y2="70.5938"/><text fill="#000000" font-family="sans-serif" font-size="14" lengthAdjust="spacing" textLength="144.3887" x="140" y="62.292">PROYECTO_ABIERTO</text></g><g id="PROYECTO_ABIERTO_FINAL"><rect fill="#F1F1F1" height="50" rx="12.5" ry="12.5" style="stroke:#181818;stroke-width:0.5;" width="164.3887" x="130" y="785.2969"/><line style="stroke:#181818;stroke-width:0.5;" x1="130" x2="294.3887" y1="811.5938" y2="811.5938"/><text fill="#000000" font-family="sans-serif" font-size="14" lengthAdjust="spacing" textLength="144.3887" x="140" y="803.292">PROYECTO_ABIERTO</text></g><path d="M19.5,155.2969 L404.5,155.2969 A12.5,12.5 0 0 1 417,167.7969 L417,181.5938 L7,181.5938 L7,167.7969 A12.5,12.5 0 0 1 19.5,155.2969" fill="#F1F1F1"/><rect fill="none" height="553.2969" rx="12.5" ry="12.5" style="stroke:#181818;stroke-width:0.5;" width="410" x="7" y="155.2969"/><line style="stroke:#181818;stroke-width:0.5;" x1="7" x2="417" y1="181.5938" y2="181.5938"/><text fill="#000000" font-family="sans-serif" font-size="14" lengthAdjust="spacing" textLength="166.4551" x="128.7725" y="173.292">configurarEntregables()</text><g id="configurarEntregables.VerListaEntregables"><rect fill="#F1F1F1" height="50" rx="12.5" ry="12.5" style="stroke:#181818;stroke-width:0.5;" width="50" x="19" y="298.5938"/><line style="stroke:#181818;stroke-width:0.5;" x1="19" x2="69" y1="324.8906" y2="324.8906"/><text fill="#000000" font-family="sans-serif" font-size="14" lengthAdjust="spacing" textLength="4.4502" x="41.7749" y="316.5889">&#160;</text></g><g id="configurarEntregables.EditarEntregables"><rect fill="#F1F1F1" height="50" rx="12.5" ry="12.5" style="stroke:#181818;stroke-width:0.5;" width="50" x="19" y="525.5938"/><line style="stroke:#181818;stroke-width:0.5;" x1="19" x2="69" y1="551.8906" y2="551.8906"/><text fill="#000000" font-family="sans-serif" font-size="14" lengthAdjust="spacing" textLength="4.4502" x="41.7749" y="543.5889">&#160;</text></g><ellipse cx="44" cy="202.5938" fill="#222222" rx="10" ry="10" style="stroke:#222222;stroke-width:1;"/><ellipse cx="44" cy="687.5938" fill="none" rx="11" ry="11" style="stroke:#222222;stroke-width:1;"/><ellipse cx="44" cy="687.5938" fill="#222222" rx="6" ry="6" style="stroke:#222222;stroke-width:1;"/><!--link *start*configurarEntregables to VerListaEntregables--><g class="link" data-entity-1=".start.configurarEntregables" data-entity-2="VerListaEntregables" data-source-line="14" data-uid="lnk4" id="link_.start.configurarEntregables_VerListaEntregables"><path d="M44,212.9337 C44,231.1237 44,265.8338 44,292.2038" fill="none" id="*start*configurarEntregables-to-VerListaEntregables" style="stroke:#008000;stroke-width:1;"/><polygon fill="#008000" points="44,298.2038,48,289.2038,44,293.2038,40,289.2038,44,298.2038" style="stroke:#008000;stroke-width:1;"/><path d="M49,235.5938 L49,275.5938 L408,275.5938 L408,245.5938 L398,235.5938 L49,235.5938" fill="#FEFFDD" style="stroke:#181818;stroke-width:0.5;"/><path d="M398,235.5938 L398,245.5938 L408,245.5938 L398,235.5938" fill="#FEFFDD" style="stroke:#181818;stroke-width:0.5;"/><text fill="#000000" font-family="sans-serif" font-size="13" font-weight="bold" lengthAdjust="spacing" textLength="90.251" x="55" y="252.6606">Coordinador</text><text fill="#000000" font-family="sans-serif" font-size="13" lengthAdjust="spacing" textLength="243.75" x="149.3833" y="252.6606">se encuentra en PROYECTO_ABIERTO</text><text fill="#000000" font-family="sans-serif" font-size="13" lengthAdjust="spacing" textLength="178.2422" x="55" y="267.7935">y selecciona "Entregables".</text></g><!--link VerListaEntregables to EditarEntregables--><g class="link" data-entity-1="VerListaEntregables" data-entity-2="EditarEntregables" data-source-line="20" data-uid="lnk5" id="link_VerListaEntregables_EditarEntregables"><path d="M44,348.6738 C44,391.8638 44,476.0338 44,519.3438" fill="none" id="VerListaEntregables-to-EditarEntregables" style="stroke:#008000;stroke-width:1;"/><polygon fill="#008000" points="44,525.3438,48,516.3438,44,520.3438,40,516.3438,44,525.3438" style="stroke:#008000;stroke-width:1;"/><path d="M49,371.5938 L49,502.5938 L354,502.5938 L354,381.5938 L344,371.5938 L49,371.5938" fill="#FEFFDD" style="stroke:#181818;stroke-width:0.5;"/><path d="M344,371.5938 L344,381.5938 L354,381.5938 L344,371.5938" fill="#FEFFDD" style="stroke:#181818;stroke-width:0.5;"/><text fill="#000000" font-family="sans-serif" font-size="13" font-weight="bold" lengthAdjust="spacing" textLength="58.9063" x="55" y="388.6606">Sistema</text><text fill="#000000" font-family="sans-serif" font-size="13" lengthAdjust="spacing" textLength="203.0298" x="118.0386" y="388.6606">muestra la lista de entregables</text><text fill="#000000" font-family="sans-serif" font-size="13" lengthAdjust="spacing" textLength="274.5996" x="55" y="403.7935">definidos para el proyecto, con sus fechas</text><text fill="#000000" font-family="sans-serif" font-size="13" lengthAdjust="spacing" textLength="142.6191" x="55" y="418.9263">l&#237;mite y responsables.</text><text fill="#000000" font-family="sans-serif" font-size="13" lengthAdjust="spacing" textLength="4.1323" x="55" y="434.0591">&#160;</text><text fill="#000000" font-family="sans-serif" font-size="13" font-weight="bold" lengthAdjust="spacing" textLength="90.251" x="55" y="449.1919">Coordinador</text><text fill="#000000" font-family="sans-serif" font-size="13" lengthAdjust="spacing" textLength="45.1191" x="149.3833" y="449.1919">puede:</text><text fill="#000000" font-family="sans-serif" font-size="13" lengthAdjust="spacing" textLength="197.0693" x="55" y="464.3247">&#8226; a&#241;adir un nuevo entregable,</text><text fill="#000000" font-family="sans-serif" font-size="13" lengthAdjust="spacing" textLength="219.7559" x="55" y="479.4575">&#8226; modificar fecha o descripci&#243;n, o</text><text fill="#000000" font-family="sans-serif" font-size="13" lengthAdjust="spacing" textLength="284.6162" x="55" y="494.5903">&#8226; eliminar un entregable a&#250;n no entregado.</text></g><!--link EditarEntregables to *end*configurarEntregables--><g class="link" data-entity-1="EditarEntregables" data-entity-2=".end.configurarEntregables" data-source-line="32" data-uid="lnk7" id="link_EditarEntregables_.end.configurarEntregables"><path d="M44,575.7338 C44,605.6138 44,649.1538 44,670.4038" fill="none" id="EditarEntregables-to-*end*configurarEntregables" style="stroke:#008000;stroke-width:1;"/><polygon fill="#008000" points="44,676.4038,48,667.4038,44,671.4038,40,667.4038,44,676.4038" style="stroke:#008000;stroke-width:1;"/><path d="M49,598.5938 L49,653.5938 L330,653.5938 L330,608.5938 L320,598.5938 L49,598.5938" fill="#FEFFDD" style="stroke:#181818;stroke-width:0.5;"/><path d="M320,598.5938 L320,608.5938 L330,608.5938 L320,598.5938" fill="#FEFFDD" style="stroke:#181818;stroke-width:0.5;"/><text fill="#000000" font-family="sans-serif" font-size="13" font-weight="bold" lengthAdjust="spacing" textLength="58.9063" x="55" y="615.6606">Sistema</text><text fill="#000000" font-family="sans-serif" font-size="13" lengthAdjust="spacing" textLength="197.4248" x="118.0386" y="615.6606">guarda los cambios realizados</text><text fill="#000000" font-family="sans-serif" font-size="13" lengthAdjust="spacing" textLength="210.1709" x="55" y="630.7935">y actualiza las alertas asociadas</text><text fill="#000000" font-family="sans-serif" font-size="13" lengthAdjust="spacing" textLength="80.082" x="55" y="645.9263">a los plazos.</text></g><!--link PROYECTO_ABIERTO_INICIAL to configurarEntregables--><g class="link" data-entity-1="PROYECTO_ABIERTO_INICIAL" data-entity-2="configurarEntregables" data-source-line="7" data-uid="lnk2" id="link_PROYECTO_ABIERTO_INICIAL_configurarEntregables"><path d="M212,94.5069 C212,109.5869 212,124.7369 212,149.1769" fill="none" id="PROYECTO_ABIERTO_INICIAL-to-configurarEntregables" style="stroke:#008000;stroke-width:1;"/><polygon fill="#008000" points="212,155.1769,216,146.1769,212,150.1769,208,146.1769,212,155.1769" style="stroke:#008000;stroke-width:1;"/></g><!--link configurarEntregables to PROYECTO_ABIERTO_FINAL--><g class="link" data-entity-1="configurarEntregables" data-entity-2="PROYECTO_ABIERTO_FINAL" data-source-line="40" data-uid="lnk8" id="link_configurarEntregables_PROYECTO_ABIERTO_FINAL"><path d="M212,708.3969 C212,739.7969 212,761.0269 212,779.2669" fill="none" id="configurarEntregables-to-PROYECTO_ABIERTO_FINAL" style="stroke:#008000;stroke-width:1;"/><polygon fill="#008000" points="212,785.2669,216,776.2669,212,780.2669,208,776.2669,212,785.2669" style="stroke:#008000;stroke-width:1;"/><text fill="#000000" font-family="sans-serif" font-size="13" lengthAdjust="spacing" textLength="170.0093" x="213" y="751.3638">entregablesActualizados()</text></g><!--SRC=[ZLF1Qjmm4BthAmRtafHDUWzXORjimH2IafP22Q5efTdD45aoabnmIg7VqdiFfRTUzq_w9Hrf4yUxQqEmGRPcvhsdDwD8qI3CdLtHkl7I0zheSIsN1WDeXDgx5bLq8joJhQMN5HYo6DkQOywqwKU846L4U7zzzNan_tZrPVQsN5ppMbwMyt9s0J90iHyinehUbPTS0YD5OfJavERLsYFQsvCfgEuyY-VZFCaS36QwmSZHSG7VX615iAql-E7iJ-WlY7Vw30T92qrnJqJAkNbzkwDt3CiwXd8sMNwVDywNqxbpNfELsldpDyif1EIUgIRrJVBNWQ6vhkKqWqgHinAA7arnckDeTIRRoXkGioFty5HZOZym35Oo2wqQ34cZuJUXf_72FGoDAxAaNO0qQu2c6y19wXk49i0ArPtSfflDhugOjGMFeNOsPAHJCUPLtQ36inpzz-CdoCrlgSb3Oy4s-DNrv4owfCffMf7Ygv69mR78e3pLYZP_x0HSbuc6AYRBUCz8pFANyJjmxOOiFx1qnt2UbnTPl6warsml-wTajIHUFKf33ymQ7WT1gjZaBMu4Zxr17zCQd2Af7ttTGjH6FhYmf_Qx4CCNgAztv5AVzVizUzB1qewE_mC0]--></g></svg>