<svg xmlns="http://www.w3.org/2000/svg" xmlns:xlink="http://www.w3.org/1999/xlink" contentStyleType="text/css" data-diagram-type="STATE" height="829px" preserveAspectRatio="none" style="width:655px;height:829px;background:#FFFFFF;" version="1.1" viewBox="0 0 655 829" width="655px" zoomAndPan="magnify"><title>Crear proyecto</title><defs/><g><g class="title" data-source-line="1"><text fill="#000000" font-family="sans-serif" font-size="14" font-weight="bold" lengthAdjust="spacing" textLength="117.6738" x="258.6631" y="22.9951">Crear proyecto</text></g><g id="PROYECTOS_ABIERTOS_INICIAL"><rect fill="#F1F1F1" height="50" rx="12.5" ry="12.5" style="stroke:#181818;stroke-width:0.5;" width="182.1621" x="233.5" y="44.2969"/><line style="stroke:#181818;stroke-width:0.5;" x1="233.5" x2="415.6621" y1="70.5938" y2="70.5938"/><text fill="#000000" font-family="sans-serif" font-size="14" lengthAdjust="spacing" textLength="162.1621" x="243.5" y="62.292">PROYECTOS_ABIERTOS</text></g><g id="PROYECTO_ABIERTO_FINAL"><rect fill="#F1F1F1" height="50" rx="12.5" ry="12.5" style="stroke:#181818;stroke-width:0.5;" width="164.3887" x="242.5" y="773.2969"/><line style="stroke:#181818;stroke-width:0.5;" x1="242.5" x2="406.8887" y1="799.5938" y2="799.5938"/><text fill="#000000" font-family="sans-serif" font-size="14" lengthAdjust="spacing" textLength="144.3887" x="252.5" y="791.292">PROYECTO_ABIERTO</text></g><path d="M19.5,155.2969 L629.5,155.2969 A12.5,12.5 0 0 1 642,167.7969 L642,181.5938 L7,181.5938 L7,167.7969 A12.5,12.5 0 0 1 19.5,155.2969" fill="#F1F1F1"/><rect fill="none" height="541.2969" rx="12.5" ry="12.5" style="stroke:#181818;stroke-width:0.5;" width="635" x="7" y="155.2969"/><line style="stroke:#181818;stroke-width:0.5;" x1="7" x2="642" y1="181.5938" y2="181.5938"/><text fill="#000000" font-family="sans-serif" font-size="14" lengthAdjust="spacing" textLength="108.7393" x="270.1304" y="173.292">crearProyecto()</text><g id="crearProyecto.FormularioProyecto"><rect fill="#F1F1F1" height="50" rx="12.5" ry="12.5" style="stroke:#181818;stroke-width:0.5;" width="50" x="164" y="313.5938"/><line style="stroke:#181818;stroke-width:0.5;" x1="164" x2="214" y1="339.8906" y2="339.8906"/><text fill="#000000" font-family="sans-serif" font-size="14" lengthAdjust="spacing" textLength="4.4502" x="186.7749" y="331.5889">&#160;</text></g><g class="entity" data-entity="DecisionUsuario" data-uid="ent0006" id="entity_DecisionUsuario"><polygon fill="#F1F1F1" points="189,524.5938,201,536.5938,189,548.5938,177,536.5938,189,524.5938" style="stroke:#181818;stroke-width:0.5;"/></g><ellipse cx="189" cy="202.5938" fill="#222222" rx="10" ry="10" style="stroke:#222222;stroke-width:1;"/><ellipse cx="189" cy="675.5938" fill="none" rx="11" ry="11" style="stroke:#222222;stroke-width:1;"/><ellipse cx="189" cy="675.5938" fill="#222222" rx="6" ry="6" style="stroke:#222222;stroke-width:1;"/><!--link *start*crearProyecto to FormularioProyecto--><g class="link" data-entity-1=".start.crearProyecto" data-entity-2="FormularioProyecto" data-source-line="14" data-uid="lnk4" id="link_.start.crearProyecto_FormularioProyecto"><path d="M189,212.8037 C189,233.3238 189,277.3438 189,307.4638" fill="none" id="*start*crearProyecto-to-FormularioProyecto" style="stroke:#008000;stroke-width:1;"/><polygon fill="#008000" points="189,313.4638,193,304.4638,189,308.4638,185,304.4638,189,313.4638" style="stroke:#008000;stroke-width:1;"/><path d="M194,235.5938 L194,290.5938 L569,290.5938 L569,245.5938 L559,235.5938 L194,235.5938" fill="#FEFFDD" style="stroke:#181818;stroke-width:0.5;"/><path d="M559,235.5938 L559,245.5938 L569,245.5938 L559,235.5938" fill="#FEFFDD" style="stroke:#181818;stroke-width:0.5;"/><text fill="#000000" font-family="sans-serif" font-size="13" font-weight="bold" lengthAdjust="spacing" textLength="90.251" x="200" y="252.6606">Coordinador</text><text fill="#000000" font-family="sans-serif" font-size="13" lengthAdjust="spacing" textLength="260.2539" x="294.3833" y="252.6606">se encuentra en PROYECTOS_ABIERTOS</text><text fill="#000000" font-family="sans-serif" font-size="13" lengthAdjust="spacing" textLength="226.5415" x="200" y="267.7935">(listado de proyectos) y selecciona</text><text fill="#000000" font-family="sans-serif" font-size="13" lengthAdjust="spacing" textLength="119.2725" x="200" y="282.9263">"Nuevo proyecto".</text></g><!--link FormularioProyecto to DecisionUsuario--><g class="link" data-entity-1="FormularioProyecto" data-entity-2="DecisionUsuario" data-source-line="21" data-uid="lnk5" id="link_FormularioProyecto_DecisionUsuario"><path d="M189,363.6238 C189,406.1538 189,487.0938 189,518.2138" fill="none" id="FormularioProyecto-to-DecisionUsuario" style="stroke:#008000;stroke-width:1;"/><polygon fill="#008000" points="189,524.2138,193,515.2138,189,519.2138,185,515.2138,189,524.2138" style="stroke:#008000;stroke-width:1;"/><path d="M194,386.5938 L194,501.5938 L518,501.5938 L518,396.5938 L508,386.5938 L194,386.5938" fill="#FEFFDD" style="stroke:#181818;stroke-width:0.5;"/><path d="M508,386.5938 L508,396.5938 L518,396.5938 L508,386.5938" fill="#FEFFDD" style="stroke:#181818;stroke-width:0.5;"/><text fill="#000000" font-family="sans-serif" font-size="13" font-weight="bold" lengthAdjust="spacing" textLength="58.9063" x="200" y="403.6606">Sistema</text><text fill="#000000" font-family="sans-serif" font-size="13" lengthAdjust="spacing" textLength="221.4824" x="263.0386" y="403.6606">presenta un formulario en blanco.</text><text fill="#000000" font-family="sans-serif" font-size="13" lengthAdjust="spacing" textLength="4.1323" x="200" y="418.7935">&#160;</text><text fill="#000000" font-family="sans-serif" font-size="13" font-weight="bold" lengthAdjust="spacing" textLength="90.251" x="200" y="433.9263">Coordinador</text><text fill="#000000" font-family="sans-serif" font-size="13" lengthAdjust="spacing" textLength="198.4277" x="294.3833" y="433.9263">introduce los datos requeridos</text><text fill="#000000" font-family="sans-serif" font-size="13" lengthAdjust="spacing" textLength="303.6782" x="200" y="449.0591">(t&#237;tulo, objetivos, fechas, entidad financiadora,</text><text fill="#000000" font-family="sans-serif" font-size="13" lengthAdjust="spacing" textLength="256.623" x="200" y="464.1919">equipo inicial, etc.) y al finalizar puede:</text><text fill="#000000" font-family="sans-serif" font-size="13" lengthAdjust="spacing" textLength="146.5547" x="200" y="479.3247">&#8226; guardarProyecto(), o</text><text fill="#000000" font-family="sans-serif" font-size="13" lengthAdjust="spacing" textLength="138.8359" x="200" y="494.4575">&#8226; cancelarCreacion().</text></g><!--link DecisionUsuario to *end*crearProyecto--><g class="link" data-entity-1="DecisionUsuario" data-entity-2=".end.crearProyecto" data-source-line="33" data-uid="lnk7" id="link_DecisionUsuario_.end.crearProyecto"><path d="M179.56,539.1938 C143.71,545.2738 18,566.5938 18,566.5938 C18,566.5938 18,646.5938 18,646.5938 C18,646.5938 134.9489,665.744 172.3789,671.874" fill="none" id="DecisionUsuario-to-*end*crearProyecto" style="stroke:#008000;stroke-width:1;"/><polygon fill="#008000" points="178.3,672.8438,170.0648,667.4418,173.3657,672.0357,168.7718,675.3366,178.3,672.8438" style="stroke:#008000;stroke-width:1;"/><path d="M23,586.5938 L23,626.5938 L335,626.5938 L335,596.5938 L325,586.5938 L23,586.5938" fill="#FEFFDD" style="stroke:#181818;stroke-width:0.5;"/><path d="M325,586.5938 L325,596.5938 L335,596.5938 L325,586.5938" fill="#FEFFDD" style="stroke:#181818;stroke-width:0.5;"/><text fill="#000000" font-family="sans-serif" font-size="13" font-weight="bold" lengthAdjust="spacing" textLength="58.9063" x="29" y="603.6606">Sistema</text><text fill="#000000" font-family="sans-serif" font-size="13" lengthAdjust="spacing" textLength="228.3442" x="92.0386" y="603.6606">valida los datos y, si son correctos,</text><text fill="#000000" font-family="sans-serif" font-size="13" lengthAdjust="spacing" textLength="248.2314" x="29" y="618.7935">crea el proyecto con estado "Creado".</text></g><!--link DecisionUsuario to *end*crearProyecto--><g class="link" data-entity-1="DecisionUsuario" data-entity-2=".end.crearProyecto" data-source-line="40" data-uid="lnk8" id="link_DecisionUsuario_.end.crearProyecto"><path d="M198.45,539.4038 C231.5,545.7538 340,566.5938 340,566.5938 C340,566.5938 340,646.5938 340,646.5938 C340,646.5938 240.3794,665.0697 205.7594,671.4897" fill="none" id="DecisionUsuario-to-*end*crearProyecto-1" style="stroke:#FF0000;stroke-width:1;"/><polygon fill="#FF0000" points="199.86,672.5838,209.4385,674.8757,204.7762,671.6721,207.9798,667.0098,199.86,672.5838" style="stroke:#FF0000;stroke-width:1;"/><path d="M345,571.5938 L345,641.5938 L633,641.5938 L633,581.5938 L623,571.5938 L345,571.5938" fill="#FEFFDD" style="stroke:#181818;stroke-width:0.5;"/><path d="M623,571.5938 L623,581.5938 L633,581.5938 L623,571.5938" fill="#FEFFDD" style="stroke:#181818;stroke-width:0.5;"/><text fill="#000000" font-family="sans-serif" font-size="13" font-weight="bold" lengthAdjust="spacing" textLength="267.376" x="351" y="588.6606">Si el Coordinador cancelaCreacion():</text><text fill="#000000" font-family="sans-serif" font-size="13" lengthAdjust="spacing" textLength="208.8062" x="351" y="603.7935">el caso de uso termina sin crear</text><text fill="#000000" font-family="sans-serif" font-size="13" lengthAdjust="spacing" textLength="218.8101" x="351" y="618.9263">ning&#250;n proyecto y se mantiene el</text><text fill="#000000" font-family="sans-serif" font-size="13" lengthAdjust="spacing" textLength="222.4917" x="351" y="634.0591">listado de PROYECTOS_ABIERTOS.</text></g><!--link PROYECTOS_ABIERTOS_INICIAL to crearProyecto--><g class="link" data-entity-1="PROYECTOS_ABIERTOS_INICIAL" data-entity-2="crearProyecto" data-source-line="7" data-uid="lnk2" id="link_PROYECTOS_ABIERTOS_INICIAL_crearProyecto"><path d="M324.5,94.3869 C324.5,109.4969 324.5,124.7469 324.5,149.2669" fill="none" id="PROYECTOS_ABIERTOS_INICIAL-to-crearProyecto" style="stroke:#008000;stroke-width:1;"/><polygon fill="#008000" points="324.5,155.2669,328.5,146.2669,324.5,150.2669,320.5,146.2669,324.5,155.2669" style="stroke:#008000;stroke-width:1;"/></g><!--link crearProyecto to PROYECTO_ABIERTO_FINAL--><g class="link" data-entity-1="crearProyecto" data-entity-2="PROYECTO_ABIERTO_FINAL" data-source-line="49" data-uid="lnk9" id="link_crearProyecto_PROYECTO_ABIERTO_FINAL"><path d="M324.5,696.5469 C324.5,727.8369 324.5,749.0369 324.5,767.2569" fill="none" id="crearProyecto-to-PROYECTO_ABIERTO_FINAL" style="stroke:#008000;stroke-width:1;"/><polygon fill="#008000" points="324.5,773.2569,328.5,764.2569,324.5,768.2569,320.5,764.2569,324.5,773.2569" style="stroke:#008000;stroke-width:1;"/><text fill="#000000" font-family="sans-serif" font-size="13" lengthAdjust="spacing" textLength="254.084" x="325.5" y="739.3638">guardarProyecto() / cancelarCreacion()</text></g><!--SRC=[ZPJDRjD04CVlVegHEP2YDBr7KQGI6YaIIgiM3gYggitk9Drsi-FkUYC5XCIhm9qNu9etuKcONTU9ymNuOdldy_VtZ4jT6eI1G-6WSBH4MLBcdxGjX1DpCDfYkImG2ZBB-99blXGbmjNrvQUBmOVBc_lpjwEBw_Wm6ey6e_Ft0C93lc_FTo9hm_rmD8vHyMf6rlOyo_vIxFJsrSmXshlJFiX8SLL3l9JREam5javQ9pbyoR9OlF8Vafi78vochI386pxlK6gloNxq8Jf2hoSVI4lizwjCjs_kjXhRpvdSB74kib7aftJGc_G7H4vfAnIvtjca3nu1hGneIoVuwO3kAR9bDBUc21IkFwC_WIN76vIIUnN9Bny7ND3Q9U-aKxGgDLDrVq219imE_56I6-u8vo9H50uz8mW85gRhz95dOeILrCcEyMi69nKaWY4FIZ0ME7mEwBGYNx6NgvzbCDG6cZnYgHVasp15-I3upbMr4WgcdDDA7VEATWNz77H1N43piM7FKdQYOi8aPwC_nvK8gB2R_7z_-m4pHbRDuU6QQwFa0iXWSPcYugsJG-g-Xg49ZmIJrNUl9NLVScwMBphj3bXJVnwk_z9ymGYSToFRiWrUW-SGISwb2QcKY0i1QDOjiDq2LlEKHnfrU51g565AT5P4vRkr2iSm7Af_GyHc6eDGvzm8sus4LKU6hJxDVU0RDpBd80QrrUPNLRIThNxP3M3S2vWBdWsql60cUJLMQ7_BTlY_PjdsZwNvXOxyuRhxumDd1wRc3m00]--></g></svg>