<svg xmlns="http://www.w3.org/2000/svg" xmlns:xlink="http://www.w3.org/1999/xlink" contentStyleType="text/css" data-diagram-type="STATE" height="795px" preserveAspectRatio="none" style="width:464px;height:795px;background:#FFFFFF;" version="1.1" viewBox="0 0 464 795" width="464px" zoomAndPan="magnify"><title>Gestionar investigadores de convocatoria</title><defs/><g><g class="title" data-source-line="1"><text fill="#000000" font-family="sans-serif" font-size="14" font-weight="bold" lengthAdjust="spacing" textLength="329.7725" x="57.1138" y="22.9951">Gestionar investigadores de convocatoria</text></g><g id="CONVOCATORIA_ABIERTA_INICIAL"><rect fill="#F1F1F1" height="50" rx="12.5" ry="12.5" style="stroke:#181818;stroke-width:0.5;" width="201.2344" x="128.5" y="44.2969"/><line style="stroke:#181818;stroke-width:0.5;" x1="128.5" x2="329.7344" y1="70.5938" y2="70.5938"/><text fill="#000000" font-family="sans-serif" font-size="14" lengthAdjust="spacing" textLength="181.2344" x="138.5" y="62.292">CONVOCATORIA_ABIERTA</text></g><g id="CONVOCATORIA_ABIERTA_FINAL"><rect fill="#F1F1F1" height="50" rx="12.5" ry="12.5" style="stroke:#181818;stroke-width:0.5;" width="201.2344" x="128.5" y="739.2969"/><line style="stroke:#181818;stroke-width:0.5;" x1="128.5" x2="329.7344" y1="765.5938" y2="765.5938"/><text fill="#000000" font-family="sans-serif" font-size="14" lengthAdjust="spacing" textLength="181.2344" x="138.5" y="757.292">CONVOCATORIA_ABIERTA</text></g><path d="M19.5,155.2969 L438.5,155.2969 A12.5,12.5 0 0 1 451,167.7969 L451,181.5938 L7,181.5938 L7,167.7969 A12.5,12.5 0 0 1 19.5,155.2969" fill="#F1F1F1"/><rect fill="none" height="507.2969" rx="12.5" ry="12.5" style="stroke:#181818;stroke-width:0.5;" width="444" x="7" y="155.2969"/><line style="stroke:#181818;stroke-width:0.5;" x1="7" x2="451" y1="181.5938" y2="181.5938"/><text fill="#000000" font-family="sans-serif" font-size="14" lengthAdjust="spacing" textLength="272.6445" x="92.6777" y="173.292">gestionarConvocatoriaInvestigadores()</text><g id="gestionarConvocatoriaInvestigadores.SeleccionarPerfiles"><rect fill="#F1F1F1" height="50" rx="12.5" ry="12.5" style="stroke:#181818;stroke-width:0.5;" width="50" x="19" y="298.5938"/><line style="stroke:#181818;stroke-width:0.5;" x1="19" x2="69" y1="324.8906" y2="324.8906"/><text fill="#000000" font-family="sans-serif" font-size="14" lengthAdjust="spacing" textLength="4.4502" x="41.7749" y="316.5889">&#160;</text></g><g id="gestionarConvocatoriaInvestigadores.ConfirmarAsignacion"><rect fill="#F1F1F1" height="50" rx="12.5" ry="12.5" style="stroke:#181818;stroke-width:0.5;" width="50" x="19" y="494.5938"/><line style="stroke:#181818;stroke-width:0.5;" x1="19" x2="69" y1="520.8906" y2="520.8906"/><text fill="#000000" font-family="sans-serif" font-size="14" lengthAdjust="spacing" textLength="4.4502" x="41.7749" y="512.5889">&#160;</text></g><ellipse cx="44" cy="202.5938" fill="#222222" rx="10" ry="10" style="stroke:#222222;stroke-width:1;"/><ellipse cx="44" cy="641.5938" fill="none" rx="11" ry="11" style="stroke:#222222;stroke-width:1;"/><ellipse cx="44" cy="641.5938" fill="#222222" rx="6" ry="6" style="stroke:#222222;stroke-width:1;"/><!--link *start*gestionarConvocatoriaInvestigadores to SeleccionarPerfiles--><g class="link" data-entity-1=".start.gestionarConvocatoriaInvestigadores" data-entity-2="SeleccionarPerfiles" data-source-line="14" data-uid="lnk4" id="link_.start.gestionarConvocatoriaInvestigadores_SeleccionarPerfiles"><path d="M44,212.9337 C44,231.1237 44,265.8338 44,292.2038" fill="none" id="*start*gestionarConvocatoriaInvestigadores-to-SeleccionarPerfiles" style="stroke:#008000;stroke-width:1;"/><polygon fill="#008000" points="44,298.2038,48,289.2038,44,293.2038,40,289.2038,44,298.2038" style="stroke:#008000;stroke-width:1;"/><path d="M49,235.5938 L49,275.5938 L442,275.5938 L442,245.5938 L432,235.5938 L49,235.5938" fill="#FEFFDD" style="stroke:#181818;stroke-width:0.5;"/><path d="M432,235.5938 L432,245.5938 L442,245.5938 L432,235.5938" fill="#FEFFDD" style="stroke:#181818;stroke-width:0.5;"/><text fill="#000000" font-family="sans-serif" font-size="13" font-weight="bold" lengthAdjust="spacing" textLength="90.251" x="55" y="252.6606">Coordinador</text><text fill="#000000" font-family="sans-serif" font-size="13" lengthAdjust="spacing" textLength="277.9639" x="149.3833" y="252.6606">se encuentra en CONVOCATORIA_ABIERTA</text><text fill="#000000" font-family="sans-serif" font-size="13" lengthAdjust="spacing" textLength="263.25" x="55" y="267.7935">y selecciona "Gestionar investigadores".</text></g><!--link SeleccionarPerfiles to ConfirmarAsignacion--><g class="link" data-entity-1="SeleccionarPerfiles" data-entity-2="ConfirmarAsignacion" data-source-line="20" data-uid="lnk5" id="link_SeleccionarPerfiles_ConfirmarAsignacion"><path d="M44,348.7738 C44,386.0538 44,451.1438 44,488.4138" fill="none" id="SeleccionarPerfiles-to-ConfirmarAsignacion" style="stroke:#008000;stroke-width:1;"/><polygon fill="#008000" points="44,494.4138,48,485.4138,44,489.4138,40,485.4138,44,494.4138" style="stroke:#008000;stroke-width:1;"/><path d="M49,371.5938 L49,471.5938 L362,471.5938 L362,381.5938 L352,371.5938 L49,371.5938" fill="#FEFFDD" style="stroke:#181818;stroke-width:0.5;"/><path d="M352,371.5938 L352,381.5938 L362,381.5938 L352,371.5938" fill="#FEFFDD" style="stroke:#181818;stroke-width:0.5;"/><text fill="#000000" font-family="sans-serif" font-size="13" font-weight="bold" lengthAdjust="spacing" textLength="58.9063" x="55" y="388.6606">Sistema</text><text fill="#000000" font-family="sans-serif" font-size="13" lengthAdjust="spacing" textLength="186.5322" x="118.0386" y="388.6606">muestra una lista de perfiles</text><text fill="#000000" font-family="sans-serif" font-size="13" lengthAdjust="spacing" textLength="279.5952" x="55" y="403.7935">compatibles con la convocatoria, junto con</text><text fill="#000000" font-family="sans-serif" font-size="13" lengthAdjust="spacing" textLength="245.686" x="55" y="418.9263">filtros por sede, &#225;rea y disponibilidad.</text><text fill="#000000" font-family="sans-serif" font-size="13" lengthAdjust="spacing" textLength="4.1323" x="55" y="434.0591">&#160;</text><text fill="#000000" font-family="sans-serif" font-size="13" font-weight="bold" lengthAdjust="spacing" textLength="90.251" x="55" y="449.1919">Coordinador</text><text fill="#000000" font-family="sans-serif" font-size="13" lengthAdjust="spacing" textLength="191.877" x="149.3833" y="449.1919">marca los investigadores que</text><text fill="#000000" font-family="sans-serif" font-size="13" lengthAdjust="spacing" textLength="292.9761" x="55" y="464.3247">quiere asociar y activa la opci&#243;n de notificar.</text></g><!--link ConfirmarAsignacion to *end*gestionarConvocatoriaInvestigadores--><g class="link" data-entity-1="ConfirmarAsignacion" data-entity-2=".end.gestionarConvocatoriaInvestigadores" data-source-line="30" data-uid="lnk7" id="link_ConfirmarAsignacion_.end.gestionarConvocatoriaInvestigadores"><path d="M44,544.8738 C44,571.1737 44,605.8638 44,624.5738" fill="none" id="ConfirmarAsignacion-to-*end*gestionarConvocatoriaInvestigadores" style="stroke:#008000;stroke-width:1;"/><polygon fill="#008000" points="44,630.5738,48,621.5738,44,625.5738,40,621.5738,44,630.5738" style="stroke:#008000;stroke-width:1;"/><path d="M49,567.5938 L49,607.5938 L439,607.5938 L439,577.5938 L429,567.5938 L49,567.5938" fill="#FEFFDD" style="stroke:#181818;stroke-width:0.5;"/><path d="M429,567.5938 L429,577.5938 L439,577.5938 L429,567.5938" fill="#FEFFDD" style="stroke:#181818;stroke-width:0.5;"/><text fill="#000000" font-family="sans-serif" font-size="13" font-weight="bold" lengthAdjust="spacing" textLength="58.9063" x="55" y="584.6606">Sistema</text><text fill="#000000" font-family="sans-serif" font-size="13" lengthAdjust="spacing" textLength="306.1982" x="118.0386" y="584.6606">guarda la relaci&#243;n investigadores-convocatoria</text><text fill="#000000" font-family="sans-serif" font-size="13" lengthAdjust="spacing" textLength="275.6533" x="55" y="599.7935">y env&#237;a notificaciones a los seleccionados.</text></g><!--link CONVOCATORIA_ABIERTA_INICIAL to gestionarConvocatoriaInvestigadores--><g class="link" data-entity-1="CONVOCATORIA_ABIERTA_INICIAL" data-entity-2="gestionarConvocatoriaInvestigadores" data-source-line="7" data-uid="lnk2" id="link_CONVOCATORIA_ABIERTA_INICIAL_gestionarConvocatoriaInvestigadores"><path d="M229,94.2969 C229,109.4369 229,124.7069 229,149.1269" fill="none" id="CONVOCATORIA_ABIERTA_INICIAL-to-gestionarConvocatoriaInvestigadores" style="stroke:#008000;stroke-width:1;"/><polygon fill="#008000" points="229,155.1269,233,146.1269,229,150.1269,225,146.1269,229,155.1269" style="stroke:#008000;stroke-width:1;"/></g><!--link gestionarConvocatoriaInvestigadores to CONVOCATORIA_ABIERTA_FINAL--><g class="link" data-entity-1="gestionarConvocatoriaInvestigadores" data-entity-2="CONVOCATORIA_ABIERTA_FINAL" data-source-line="37" data-uid="lnk8" id="link_gestionarConvocatoriaInvestigadores_CONVOCATORIA_ABIERTA_FINAL"><path d="M229,662.4669 C229,693.5869 229,714.8169 229,733.1169" fill="none" id="gestionarConvocatoriaInvestigadores-to-CONVOCATORIA_ABIERTA_FINAL" style="stroke:#008000;stroke-width:1;"/><polygon fill="#008000" points="229,739.1169,233,730.1169,229,734.1169,225,730.1169,229,739.1169" style="stroke:#008000;stroke-width:1;"/><text fill="#000000" font-family="sans-serif" font-size="13" lengthAdjust="spacing" textLength="177.0234" x="230" y="705.3638">asignacionesActualizadas()</text></g><!--SRC=[ZLJ1Qjmm4BtxAmRtqfPiUYzXmJL9CPJTaeHUGWYpqgoPnYivahomBVsOVa1F_OJziOvajerJUrbyaSMyUU-DdXGuD0GVoGUs1XsmsSPrZTewyg09b3LRgp1OnvZvHpOjEjn0muR2hYLeRREBFrdc0mQ2ShduiYoBs-LrLJmK7whBwzlYeLfKPLLy0lIGZnNany1NrKAWS0IS7IMTtRsg7P6vdysXFZWjdzcg1gOFHaueJP9Eg7lz9eVlMIOUeE-TooVO6sf8gGJ-J6xDZR3_LoHjr-msw0hFjS5OthUwUti_y3RLpLXfPaqyiiUqSR6QbzOwpIRAktYtceCd8ACwCi6Xh4OF8c5tKdgWWNmgEFbvAYQZ4tklTqJVGF-OqIdzD-m3RJ1fttJ2BB8xKTJ8FiROjiydeEocnS2hoAXY9np4-Wo-TYROk9VA1HYSzH9j9surdS7-foCKxvfzQmslk66D-ZoR6gUOK296UhouK4yT9SnJn-H8ZjSgbkdj05NWBKPbjbMy_ssY2N7EQrReniOvCgx1E2KU9uslxj3fnEoemPvxg7esU0Fw593Pxd_XNuMHFTw7vFbVGhJrBwJ_oB9JBjOW5zEFmdkPuC4y-KA53Xl-XXhbolq1]--></g></svg>