<svg xmlns="http://www.w3.org/2000/svg" xmlns:xlink="http://www.w3.org/1999/xlink" contentStyleType="text/css" data-diagram-type="STATE" height="856px" preserveAspectRatio="none" style="width:410px;height:856px;background:#FFFFFF;" version="1.1" viewBox="0 0 410 856" width="410px" zoomAndPan="magnify"><title>Registrar compensaciones de proyecto</title><defs/><g><g class="title" data-source-line="1"><text fill="#000000" font-family="sans-serif" font-size="14" font-weight="bold" lengthAdjust="spacing" textLength="307.5693" x="42.6787" y="22.9951">Registrar compensaciones de proyecto</text></g><g id="PROYECTO_ABIERTO_INICIAL"><rect fill="#F1F1F1" height="50" rx="12.5" ry="12.5" style="stroke:#181818;stroke-width:0.5;" width="164.3887" x="120" y="44.2969"/><line style="stroke:#181818;stroke-width:0.5;" x1="120" x2="284.3887" y1="70.5938" y2="70.5938"/><text fill="#000000" font-family="sans-serif" font-size="14" lengthAdjust="spacing" textLength="144.3887" x="130" y="62.292">PROYECTO_ABIERTO</text></g><g id="PROYECTO_ABIERTO_FINAL"><rect fill="#F1F1F1" height="50" rx="12.5" ry="12.5" style="stroke:#181818;stroke-width:0.5;" width="164.3887" x="120" y="800.2969"/><line style="stroke:#181818;stroke-width:0.5;" x1="120" x2="284.3887" y1="826.5938" y2="826.5938"/><text fill="#000000" font-family="sans-serif" font-size="14" lengthAdjust="spacing" textLength="144.3887" x="130" y="818.292">PROYECTO_ABIERTO</text></g><path d="M19.5,155.2969 L384.5,155.2969 A12.5,12.5 0 0 1 397,167.7969 L397,181.5938 L7,181.5938 L7,167.7969 A12.5,12.5 0 0 1 19.5,155.2969" fill="#F1F1F1"/><rect fill="none" height="568.2969" rx="12.5" ry="12.5" style="stroke:#181818;stroke-width:0.5;" width="390" x="7" y="155.2969"/><line style="stroke:#181818;stroke-width:0.5;" x1="7" x2="397" y1="181.5938" y2="181.5938"/><text fill="#000000" font-family="sans-serif" font-size="14" lengthAdjust="spacing" textLength="190.1006" x="106.9497" y="173.292">registrarCompensaciones()</text><g id="registrarCompensaciones.VerParticipantes"><rect fill="#F1F1F1" height="50" rx="12.5" ry="12.5" style="stroke:#181818;stroke-width:0.5;" width="50" x="19" y="313.5938"/><line style="stroke:#181818;stroke-width:0.5;" x1="19" x2="69" y1="339.8906" y2="339.8906"/><text fill="#000000" font-family="sans-serif" font-size="14" lengthAdjust="spacing" textLength="4.4502" x="41.7749" y="331.5889">&#160;</text></g><g id="registrarCompensaciones.GrabarCompensacion"><rect fill="#F1F1F1" height="50" rx="12.5" ry="12.5" style="stroke:#181818;stroke-width:0.5;" width="50" x="19" y="540.5938"/><line style="stroke:#181818;stroke-width:0.5;" x1="19" x2="69" y1="566.8906" y2="566.8906"/><text fill="#000000" font-family="sans-serif" font-size="14" lengthAdjust="spacing" textLength="4.4502" x="41.7749" y="558.5889">&#160;</text></g><ellipse cx="44" cy="202.5938" fill="#222222" rx="10" ry="10" style="stroke:#222222;stroke-width:1;"/><ellipse cx="44" cy="702.5938" fill="none" rx="11" ry="11" style="stroke:#222222;stroke-width:1;"/><ellipse cx="44" cy="702.5938" fill="#222222" rx="6" ry="6" style="stroke:#222222;stroke-width:1;"/><!--link *start*registrarCompensaciones to VerParticipantes--><g class="link" data-entity-1=".start.registrarCompensaciones" data-entity-2="VerParticipantes" data-source-line="14" data-uid="lnk4" id="link_.start.registrarCompensaciones_VerParticipantes"><path d="M44,212.8037 C44,233.3238 44,277.3438 44,307.4638" fill="none" id="*start*registrarCompensaciones-to-VerParticipantes" style="stroke:#008000;stroke-width:1;"/><polygon fill="#008000" points="44,313.4638,48,304.4638,44,308.4638,40,304.4638,44,313.4638" style="stroke:#008000;stroke-width:1;"/><path d="M49,235.5938 L49,290.5938 L342,290.5938 L342,245.5938 L332,235.5938 L49,235.5938" fill="#FEFFDD" style="stroke:#181818;stroke-width:0.5;"/><path d="M332,235.5938 L332,245.5938 L342,245.5938 L332,235.5938" fill="#FEFFDD" style="stroke:#181818;stroke-width:0.5;"/><text fill="#000000" font-family="sans-serif" font-size="13" font-weight="bold" lengthAdjust="spacing" textLength="90.251" x="55" y="252.6606">Coordinador</text><text fill="#000000" font-family="sans-serif" font-size="13" lengthAdjust="spacing" textLength="178.4897" x="149.3833" y="252.6606">abre un proyecto finalizado</text><text fill="#000000" font-family="sans-serif" font-size="13" lengthAdjust="spacing" textLength="238.8496" x="55" y="267.7935">en PROYECTO_ABIERTO y selecciona</text><text fill="#000000" font-family="sans-serif" font-size="13" lengthAdjust="spacing" textLength="188.3604" x="55" y="282.9263">"Registrar compensaciones".</text></g><!--link VerParticipantes to GrabarCompensacion--><g class="link" data-entity-1="VerParticipantes" data-entity-2="GrabarCompensacion" data-source-line="21" data-uid="lnk5" id="link_VerParticipantes_GrabarCompensacion"><path d="M44,363.6738 C44,406.8638 44,491.0338 44,534.3438" fill="none" id="VerParticipantes-to-GrabarCompensacion" style="stroke:#008000;stroke-width:1;"/><polygon fill="#008000" points="44,540.3438,48,531.3438,44,535.3438,40,531.3438,44,540.3438" style="stroke:#008000;stroke-width:1;"/><path d="M49,386.5938 L49,517.5938 L388,517.5938 L388,396.5938 L378,386.5938 L49,386.5938" fill="#FEFFDD" style="stroke:#181818;stroke-width:0.5;"/><path d="M378,386.5938 L378,396.5938 L388,396.5938 L378,386.5938" fill="#FEFFDD" style="stroke:#181818;stroke-width:0.5;"/><text fill="#000000" font-family="sans-serif" font-size="13" font-weight="bold" lengthAdjust="spacing" textLength="58.9063" x="55" y="403.6606">Sistema</text><text fill="#000000" font-family="sans-serif" font-size="13" lengthAdjust="spacing" textLength="227.0938" x="118.0386" y="403.6606">muestra el listado de participantes</text><text fill="#000000" font-family="sans-serif" font-size="13" lengthAdjust="spacing" textLength="318.6523" x="55" y="418.7935">(investigadores y docentes-investigadores) junto</text><text fill="#000000" font-family="sans-serif" font-size="13" lengthAdjust="spacing" textLength="230.4771" x="55" y="433.9263">con las opciones de compensaci&#243;n.</text><text fill="#000000" font-family="sans-serif" font-size="13" lengthAdjust="spacing" textLength="4.1323" x="55" y="449.0591">&#160;</text><text fill="#000000" font-family="sans-serif" font-size="13" font-weight="bold" lengthAdjust="spacing" textLength="90.251" x="55" y="464.1919">Coordinador</text><text fill="#000000" font-family="sans-serif" font-size="13" lengthAdjust="spacing" textLength="163.9536" x="149.3833" y="464.1919">introduce para cada uno:</text><text fill="#000000" font-family="sans-serif" font-size="13" lengthAdjust="spacing" textLength="153.9624" x="55" y="479.3247">&#8226; Importe econ&#243;mico, o</text><text fill="#000000" font-family="sans-serif" font-size="13" lengthAdjust="spacing" textLength="312.0952" x="55" y="494.4575">&#8226; Reducci&#243;n de horas docentes (solo docentes),</text><text fill="#000000" font-family="sans-serif" font-size="13" lengthAdjust="spacing" textLength="143.7109" x="55" y="509.5903">y confirma el registro.</text></g><!--link GrabarCompensacion to *end*registrarCompensaciones--><g class="link" data-entity-1="GrabarCompensacion" data-entity-2=".end.registrarCompensaciones" data-source-line="33" data-uid="lnk7" id="link_GrabarCompensacion_.end.registrarCompensaciones"><path d="M44,590.7338 C44,620.6138 44,664.1538 44,685.4038" fill="none" id="GrabarCompensacion-to-*end*registrarCompensaciones" style="stroke:#008000;stroke-width:1;"/><polygon fill="#008000" points="44,691.4038,48,682.4038,44,686.4038,40,682.4038,44,691.4038" style="stroke:#008000;stroke-width:1;"/><path d="M49,613.5938 L49,668.5938 L314,668.5938 L314,623.5938 L304,613.5938 L49,613.5938" fill="#FEFFDD" style="stroke:#181818;stroke-width:0.5;"/><path d="M304,613.5938 L304,623.5938 L314,623.5938 L304,613.5938" fill="#FEFFDD" style="stroke:#181818;stroke-width:0.5;"/><text fill="#000000" font-family="sans-serif" font-size="13" font-weight="bold" lengthAdjust="spacing" textLength="58.9063" x="55" y="630.6606">Sistema</text><text fill="#000000" font-family="sans-serif" font-size="13" lengthAdjust="spacing" textLength="181.3525" x="118.0386" y="630.6606">guarda las compensaciones</text><text fill="#000000" font-family="sans-serif" font-size="13" lengthAdjust="spacing" textLength="216.0806" x="55" y="645.7935">asociadas al proyecto y actualiza</text><text fill="#000000" font-family="sans-serif" font-size="13" lengthAdjust="spacing" textLength="210.647" x="55" y="660.9263">el historial de cada participante.</text></g><!--link PROYECTO_ABIERTO_INICIAL to registrarCompensaciones--><g class="link" data-entity-1="PROYECTO_ABIERTO_INICIAL" data-entity-2="registrarCompensaciones" data-source-line="7" data-uid="lnk2" id="link_PROYECTO_ABIERTO_INICIAL_registrarCompensaciones"><path d="M202,94.4469 C202,109.4769 202,124.5769 202,149.0169" fill="none" id="PROYECTO_ABIERTO_INICIAL-to-registrarCompensaciones" style="stroke:#008000;stroke-width:1;"/><polygon fill="#008000" points="202,155.0169,206,146.0169,202,150.0169,198,146.0169,202,155.0169" style="stroke:#008000;stroke-width:1;"/></g><!--link registrarCompensaciones to PROYECTO_ABIERTO_FINAL--><g class="link" data-entity-1="registrarCompensaciones" data-entity-2="PROYECTO_ABIERTO_FINAL" data-source-line="41" data-uid="lnk8" id="link_registrarCompensaciones_PROYECTO_ABIERTO_FINAL"><path d="M202,723.4069 C202,754.6569 202,775.7169 202,793.9169" fill="none" id="registrarCompensaciones-to-PROYECTO_ABIERTO_FINAL" style="stroke:#008000;stroke-width:1;"/><polygon fill="#008000" points="202,799.9169,206,790.9169,202,794.9169,198,790.9169,202,799.9169" style="stroke:#008000;stroke-width:1;"/><text fill="#000000" font-family="sans-serif" font-size="13" lengthAdjust="spacing" textLength="195.9268" x="203" y="766.3638">compensacionesRegistradas()</text></g><!--SRC=[ZLHTQjj047xVKmpAYrtYv3q4GsgI8WX9S4gXX536gucpZRGZLgk0MWezIw-G8-GcFKbdLx4TsLueVZ3oV3FVpupiZIy9vhGqZNVeG7DLasrG6xRKG45GE-v8UrRDax4rEgoWD9PyLqkDoouyADLuz0Gty-klvxFFrz_EFkRdS_dEh_9PVdO9s42sNSnIJHVvbRH0eaabIIPt1qj7PEydKt0hHxE1ePNGH3bI9cgZSGO_bH9TqC_8v2FuB-Hkq7cZJOtM2yKEufF3nN1QF-Rkm_r0yzv9bcKGsv3vK_pXT36TCRl2M2pOdHulfe0BHz3QzQhWGOgb-I60s49s9sJeeA6IT5234PIbZY0xUXjIH36zzcsj0oDx3AUit0ebLHXjL2q5Vg1I899WmV7-TY8P6ViiIBCC0GXr1mLh2kN9i3A6xwtrVGOw4CiokDwSziRdwuizKgbuZVMEYrP7BGWQ2vIq-IJY__x-0tbLinDl92IlBvNHV0Yyhiv9UYD5u7na9ofMWc7KSCdhn_5XxEg2sWVZgfZ5sptolZNi9ZrOX5pOVoM_RD69gP3FSFSHZ0rh8wRbzIWtDzO1Qj_6C-k5bV0e8zaPGOLmGqplbxUb_vTIgRVmlON4lyF9bj3LyOhAqVWV]--></g></svg>