<svg xmlns="http://www.w3.org/2000/svg" xmlns:xlink="http://www.w3.org/1999/xlink" contentStyleType="text/css" data-diagram-type="STATE" height="795px" preserveAspectRatio="none" style="width:724px;height:795px;background:#FFFFFF;" version="1.1" viewBox="0 0 724 795" width="724px" zoomAndPan="magnify"><defs/><g><path d="M144.5,152 L475.5,152 A12.5,12.5 0 0 1 488,164.5 L488,178.2969 L132,178.2969 L132,164.5 A12.5,12.5 0 0 1 144.5,152" fill="#F1F1F1"/><rect fill="none" height="492.2969" rx="12.5" ry="12.5" style="stroke:#181818;stroke-width:0.5;" width="356" x="132" y="152"/><line style="stroke:#181818;stroke-width:0.5;" x1="132" x2="488" y1="178.2969" y2="178.2969"/><text fill="#000000" font-family="sans-serif" font-size="14" lengthAdjust="spacing" textLength="146.9453" x="236.5273" y="169.9951">abrirInvestigadores()</text><g><rect fill="#F1F1F1" height="50" rx="12.5" ry="12.5" style="stroke:#181818;stroke-width:0.5;" width="50" x="144" y="280.2969"/><line style="stroke:#181818;stroke-width:0.5;" x1="144" x2="194" y1="306.5938" y2="306.5938"/><text fill="#000000" font-family="sans-serif" font-size="14" lengthAdjust="spacing" textLength="4.4502" x="166.7749" y="298.292">&#160;</text></g><g><rect fill="#F1F1F1" height="50" rx="12.5" ry="12.5" style="stroke:#181818;stroke-width:0.5;" width="50" x="144" y="491.2969"/><line style="stroke:#181818;stroke-width:0.5;" x1="144" x2="194" y1="517.5938" y2="517.5938"/><text fill="#000000" font-family="sans-serif" font-size="14" lengthAdjust="spacing" textLength="4.4502" x="166.7749" y="509.292">&#160;</text></g><ellipse cx="169" cy="199.2969" fill="#222222" rx="10" ry="10" style="stroke:#222222;stroke-width:1;"/><ellipse cx="169" cy="623.2969" fill="none" rx="11" ry="11" style="stroke:#222222;stroke-width:1;"/><ellipse cx="169" cy="623.2969" fill="#222222" rx="6" ry="6" style="stroke:#222222;stroke-width:1;"/><!--link *start*abrirInvestigadores to MostrandoLista--><g class="link" data-entity-1="ent0002" data-entity-2="ent0003" data-link-type="dependency" data-source-line="8" id="lnk3"><path d="M169,209.5269 C169,225.2369 169,251.6569 169,274.1669" fill="none" id="*start*abrirInvestigadores-to-MostrandoLista" style="stroke:#008000;stroke-width:1;"/><polygon fill="#008000" points="169,280.1669,173,271.1669,169,275.1669,165,271.1669,169,280.1669" style="stroke:#008000;stroke-width:1;"/><path d="M174,232.2969 L174,257.2969 L469,257.2969 L469,242.2969 L459,232.2969 L174,232.2969" fill="#FEFFDD" style="stroke:#181818;stroke-width:0.5;"/><path d="M459,232.2969 L459,242.2969 L469,242.2969 L459,232.2969" fill="#FEFFDD" style="stroke:#181818;stroke-width:0.5;"/><text fill="#000000" font-family="sans-serif" font-size="13" font-weight="bold" lengthAdjust="spacing" textLength="90.251" x="180" y="249.3638">Coordinador</text><text fill="#000000" font-family="sans-serif" font-size="13" lengthAdjust="spacing" textLength="180.1211" x="274.3833" y="249.3638">solicita abrir investigadores</text></g><!--link MostrandoLista to FiltrandoLista--><g class="link" data-entity-1="ent0003" data-entity-2="ent0004" data-link-type="dependency" data-source-line="13" id="lnk4"><path d="M169,330.6769 C169,370.9569 169,444.8969 169,485.0669" fill="none" id="MostrandoLista-to-FiltrandoLista" style="stroke:#008000;stroke-width:1;"/><polygon fill="#008000" points="169,491.0669,173,482.0669,169,486.0669,165,482.0669,169,491.0669" style="stroke:#008000;stroke-width:1;"/><path d="M174,353.2969 L174,468.2969 L479,468.2969 L479,363.2969 L469,353.2969 L174,353.2969" fill="#FEFFDD" style="stroke:#181818;stroke-width:0.5;"/><path d="M469,353.2969 L469,363.2969 L479,363.2969 L469,353.2969" fill="#FEFFDD" style="stroke:#181818;stroke-width:0.5;"/><text fill="#000000" font-family="sans-serif" font-size="13" font-weight="bold" lengthAdjust="spacing" textLength="58.9063" x="180" y="370.3638">Sistema</text><text fill="#000000" font-family="sans-serif" font-size="13" lengthAdjust="spacing" textLength="208.9395" x="243.0386" y="370.3638">presenta lista de investigadores</text><text fill="#000000" font-family="sans-serif" font-size="13" lengthAdjust="spacing" textLength="277.3799" x="180" y="385.4966">&#8226; ID, nombre, campo de cada investigador</text><text fill="#000000" font-family="sans-serif" font-size="13" lengthAdjust="spacing" textLength="188.481" x="180" y="400.6294">&#8226; Permite solicitar filtrar lista</text><text fill="#000000" font-family="sans-serif" font-size="13" lengthAdjust="spacing" textLength="237.1802" x="180" y="415.7622">&#8226; Permite solicitar abrir investigador</text><text fill="#000000" font-family="sans-serif" font-size="13" lengthAdjust="spacing" textLength="284.7178" x="180" y="430.895">&#8226; Permite solicitar crear investigador nuevo</text><text fill="#000000" font-family="sans-serif" font-size="13" lengthAdjust="spacing" textLength="252.624" x="180" y="446.0278">&#8226; Permite solicitar abrir panel principal</text><text fill="#000000" font-family="sans-serif" font-size="13" lengthAdjust="spacing" textLength="4.1323" x="180" y="461.1606">&#160;</text></g><!--link FiltrandoLista to FiltrandoLista--><g class="link" data-entity-1="ent0004" data-entity-2="ent0004" data-link-type="dependency" data-source-line="24" id="lnk5"><path d="M194.18,504.9969 C203.91,504.4969 212,508.2569 212,516.2969 C212,524.3369 209.9021,528.4048 200.1721,527.9048" fill="none" id="FiltrandoLista-to-FiltrandoLista" style="stroke:#008000;stroke-width:1;"/><polygon fill="#008000" points="194.18,527.5969,202.9629,532.0535,199.1734,527.8535,203.3734,524.064,194.18,527.5969" style="stroke:#008000;stroke-width:1;"/><path d="M217,496.2969 L217,536.2969 L449,536.2969 L449,506.2969 L439,496.2969 L217,496.2969" fill="#FEFFDD" style="stroke:#181818;stroke-width:0.5;"/><path d="M439,496.2969 L439,506.2969 L449,506.2969 L439,496.2969" fill="#FEFFDD" style="stroke:#181818;stroke-width:0.5;"/><text fill="#000000" font-family="sans-serif" font-size="13" font-weight="bold" lengthAdjust="spacing" textLength="90.251" x="223" y="513.3638">Coordinador</text><text fill="#000000" font-family="sans-serif" font-size="13" lengthAdjust="spacing" textLength="116.6509" x="317.3833" y="513.3638">solicita filtrar lista</text><text fill="#000000" font-family="sans-serif" font-size="13" font-weight="bold" lengthAdjust="spacing" textLength="58.9063" x="223" y="528.4966">Sistema</text><text fill="#000000" font-family="sans-serif" font-size="13" lengthAdjust="spacing" textLength="139.4199" x="286.0386" y="528.4966">presenta lista filtrada</text></g><!--link FiltrandoLista to *end*abrirInvestigadores--><g class="link" data-entity-1="ent0004" data-entity-2="ent0006" data-link-type="dependency" data-source-line="30" id="lnk7"><path d="M169,541.6469 C169,563.9469 169,589.8569 169,606.0369" fill="none" id="FiltrandoLista-to-*end*abrirInvestigadores" style="stroke:#008000;stroke-width:1;"/><polygon fill="#008000" points="169,612.0369,173,603.0369,169,607.0369,165,603.0369,169,612.0369" style="stroke:#008000;stroke-width:1;"/><path d="M174,564.2969 L174,589.2969 L468,589.2969 L468,574.2969 L458,564.2969 L174,564.2969" fill="#FEFFDD" style="stroke:#181818;stroke-width:0.5;"/><path d="M458,564.2969 L458,574.2969 L468,574.2969 L458,564.2969" fill="#FEFFDD" style="stroke:#181818;stroke-width:0.5;"/><text fill="#000000" font-family="sans-serif" font-size="13" font-weight="bold" lengthAdjust="spacing" textLength="90.251" x="180" y="581.3638">Coordinador</text><text fill="#000000" font-family="sans-serif" font-size="13" lengthAdjust="spacing" textLength="179.2769" x="274.3833" y="581.3638">solicita una de las opciones</text></g><g><rect fill="#F1F1F1" height="50" rx="12.5" ry="12.5" style="stroke:#181818;stroke-width:0.5;" width="164.3887" x="227.81" y="7"/><line style="stroke:#181818;stroke-width:0.5;" x1="227.81" x2="392.1987" y1="33.2969" y2="33.2969"/><text fill="#000000" font-family="sans-serif" font-size="14" lengthAdjust="spacing" textLength="144.3887" x="237.81" y="24.9951">PROYECTO_ABIERTO</text></g><g><rect fill="#F1F1F1" height="50" rx="12.5" ry="12.5" style="stroke:#181818;stroke-width:0.5;" width="213.0879" x="41.46" y="739.3"/><line style="stroke:#181818;stroke-width:0.5;" x1="41.46" x2="254.5479" y1="765.5969" y2="765.5969"/><text fill="#000000" font-family="sans-serif" font-size="14" lengthAdjust="spacing" textLength="193.0879" x="51.46" y="757.2951">PANEL_PRINCIPAL_ABIERTO</text></g><g><rect fill="#F1F1F1" height="50" rx="12.5" ry="12.5" style="stroke:#181818;stroke-width:0.5;" width="195" x="374.5" y="739.3"/><line style="stroke:#181818;stroke-width:0.5;" x1="374.5" x2="569.5" y1="765.5969" y2="765.5969"/><text fill="#000000" font-family="sans-serif" font-size="14" lengthAdjust="spacing" textLength="175" x="384.5" y="757.2951">INVESTIGADOR_ABIERTO</text></g><!--link PROYECTO_ABIERTO to abrirInvestigadores--><g class="link" data-entity-1="ent0008" data-entity-2="ent0002" data-link-type="dependency" data-source-line="37" id="lnk9"><path d="M310,57.46 C310,79.15 310,107.28 310,145.72" fill="none" id="PROYECTO_ABIERTO-to-abrirInvestigadores" style="stroke:#008000;stroke-width:1;"/><polygon fill="#008000" points="310,151.72,314,142.72,310,146.72,306,142.72,310,151.72" style="stroke:#008000;stroke-width:1;"/><path d="M315,92 L315,117 L472,117 L472,102 L462,92 L315,92" fill="#FEFFDD" style="stroke:#181818;stroke-width:0.5;"/><path d="M462,92 L462,102 L472,102 L462,92" fill="#FEFFDD" style="stroke:#181818;stroke-width:0.5;"/><text fill="#000000" font-family="sans-serif" font-size="13" lengthAdjust="spacing" textLength="136.4492" x="321" y="109.0669">abrirInvestigadores()</text></g><!--link PANEL_PRINCIPAL_ABIERTO to abrirInvestigadores--><g class="link" data-entity-1="ent0010" data-entity-2="ent0002" data-link-type="dependency" data-source-line="42" id="lnk11"><path d="M158.87,738.87 C168.52,717.18 181.2712,688.512 198.3812,650.052" fill="none" id="PANEL_PRINCIPAL_ABIERTO-to-abrirInvestigadores" style="stroke:#008000;stroke-width:1;"/><polygon fill="#008000" points="200.82,644.57,193.5071,651.1671,198.7877,649.1383,200.8164,654.4189,200.82,644.57" style="stroke:#008000;stroke-width:1;"/><path d="M193,679.3 L193,704.3 L350,704.3 L350,689.3 L340,679.3 L193,679.3" fill="#FEFFDD" style="stroke:#181818;stroke-width:0.5;"/><path d="M340,679.3 L340,689.3 L350,689.3 L340,679.3" fill="#FEFFDD" style="stroke:#181818;stroke-width:0.5;"/><text fill="#000000" font-family="sans-serif" font-size="13" lengthAdjust="spacing" textLength="136.4492" x="199" y="696.3669">abrirInvestigadores()</text></g><!--link abrirInvestigadores to PANEL_PRINCIPAL_ABIERTO--><g class="link" data-entity-1="ent0002" data-entity-2="ent0010" data-link-type="dependency" data-source-line="59" id="lnk15"><path d="M131.84,560.4 C65.49,620.45 6,674.3 6,674.3 C6,674.3 6,709.3 6,709.3 C6,709.3 40.472,722.4069 78.042,736.6969" fill="none" id="abrirInvestigadores-to-PANEL_PRINCIPAL_ABIERTO" style="stroke:#008000;stroke-width:1;"/><polygon fill="#008000" points="83.65,738.83,76.66,731.8917,78.9766,737.0525,73.8159,739.3691,83.65,738.83" style="stroke:#008000;stroke-width:1;"/><path d="M11,679.3 L11,704.3 L163,704.3 L163,689.3 L153,679.3 L11,679.3" fill="#FEFFDD" style="stroke:#181818;stroke-width:0.5;"/><path d="M153,679.3 L153,689.3 L163,689.3 L153,679.3" fill="#FEFFDD" style="stroke:#181818;stroke-width:0.5;"/><text fill="#000000" font-family="sans-serif" font-size="13" lengthAdjust="spacing" textLength="131.9424" x="17" y="696.3669">abrirPanelPrincipal()</text></g><!--link abrirInvestigadores to INVESTIGADOR_ABIERTO--><g class="link" data-entity-1="ent0002" data-entity-2="ent0012" data-link-type="dependency" data-source-line="48" id="lnk13"><path d="M389.95,644.66 C402.27,682.5 411,709.3 411,709.3 C411,709.3 423.7277,720.5626 439.8677,734.8526" fill="none" id="abrirInvestigadores-to-INVESTIGADOR_ABIERTO" style="stroke:#008000;stroke-width:1;"/><polygon fill="#008000" points="444.36,738.83,440.2732,729.8691,440.6164,735.5155,434.97,735.8588,444.36,738.83" style="stroke:#008000;stroke-width:1;"/><path d="M416,679.3 L416,704.3 L558,704.3 L558,689.3 L548,679.3 L416,679.3" fill="#FEFFDD" style="stroke:#181818;stroke-width:0.5;"/><path d="M548,679.3 L548,689.3 L558,689.3 L548,679.3" fill="#FEFFDD" style="stroke:#181818;stroke-width:0.5;"/><text fill="#000000" font-family="sans-serif" font-size="13" lengthAdjust="spacing" textLength="121.6782" x="422" y="696.3669">abrirInvestigador()</text></g><!--link abrirInvestigadores to INVESTIGADOR_ABIERTO--><g class="link" data-entity-1="ent0002" data-entity-2="ent0012" data-link-type="dependency" data-source-line="53" id="lnk14"><path d="M488.5,590.25 C532.35,637.2 567,674.3 567,674.3 C567,674.3 567,709.3 567,709.3 C567,709.3 545.4062,721.575 520.2662,735.865" fill="none" id="abrirInvestigadores-to-INVESTIGADOR_ABIERTO-1" style="stroke:#008000;stroke-width:1;"/><polygon fill="#008000" points="515.05,738.83,524.851,737.86,519.3968,736.3592,520.8977,730.9051,515.05,738.83" style="stroke:#008000;stroke-width:1;"/><path d="M572,679.3 L572,704.3 L717,704.3 L717,689.3 L707,679.3 L572,679.3" fill="#FEFFDD" style="stroke:#181818;stroke-width:0.5;"/><path d="M707,679.3 L707,689.3 L717,689.3 L707,679.3" fill="#FEFFDD" style="stroke:#181818;stroke-width:0.5;"/><text fill="#000000" font-family="sans-serif" font-size="13" lengthAdjust="spacing" textLength="124.96" x="578" y="696.3669">crearInvestigador()</text></g><!--SRC=[jLFHQi8m57tFLmJtiWrbFo12fzqeE5kg3COGITix2QP9IAiWOx1lsQVjIvQcL4rj5JUMGY4tvvvpSdDljg9S4aLIp2Y7V2i1Iy6snGQXB2SvO18fgZo-WIodIv881Hac6UuqnAzlElWT8QnNcTlHdyO-YInNX2TYJ7Ny-Fo1iiDp0tYzdUFUwzLI0V1vRr3Zm0R3XUOGlF2-Ce5-D1WAeHBA2qFzksY0Cy5eJ7M6yOkfPTWa0KzA9htGxbVJExHIizlcPAfF8IN6XTHYm3KFCsm9D1dv_lp2tgYhoT98GHV799MYmCOa8LR23Xw0IgcMhcwfy9infqgX4xZZSfm0nmg83SPy3HjnbbyI3apVdlAOIiBsvQsAle_OLVrDmLkV_hWcfv-dn2VaSgUwQo-tj-Qc8vYU125ZAdYjCT47GYW8_HTtEFCNphtdXZFVacsOHMHPQ1nMj1D0WJDnnuiWz2P3Bt36_oFI1B0KlCcpEvrvZyx83oiBPoGiWR_pcqPlvJyhq5B6XZi4nM04rLmSgFm0]--></g></svg>