<svg xmlns="http://www.w3.org/2000/svg" xmlns:xlink="http://www.w3.org/1999/xlink" contentStyleType="text/css" data-diagram-type="STATE" height="666px" preserveAspectRatio="none" style="width:571px;height:666px;background:#FFFFFF;" version="1.1" viewBox="0 0 571 666" width="571px" zoomAndPan="magnify"><defs/><g><path d="M19.5,7 L545.5,7 A12.5,12.5 0 0 1 558,19.5 L558,33.2969 L7,33.2969 L7,19.5 A12.5,12.5 0 0 1 19.5,7" fill="#F1F1F1"/><rect fill="none" height="508.2969" rx="12.5" ry="12.5" style="stroke:#181818;stroke-width:0.5;" width="551" x="7" y="7"/><line style="stroke:#181818;stroke-width:0.5;" x1="7" x2="558" y1="33.2969" y2="33.2969"/><text fill="#000000" font-family="sans-serif" font-size="14" lengthAdjust="spacing" textLength="131.0381" x="216.981" y="24.9951">abrirInvestigador()</text><g><rect fill="#F1F1F1" height="50" rx="12.5" ry="12.5" style="stroke:#181818;stroke-width:0.5;" width="50" x="19" y="135.2969"/><line style="stroke:#181818;stroke-width:0.5;" x1="19" x2="69" y1="161.5938" y2="161.5938"/><text fill="#000000" font-family="sans-serif" font-size="14" lengthAdjust="spacing" textLength="4.4502" x="41.7749" y="153.292">&#160;</text></g><g><rect fill="#F1F1F1" height="50" rx="12.5" ry="12.5" style="stroke:#181818;stroke-width:0.5;" width="50" x="19" y="362.2969"/><line style="stroke:#181818;stroke-width:0.5;" x1="19" x2="69" y1="388.5938" y2="388.5938"/><text fill="#000000" font-family="sans-serif" font-size="14" lengthAdjust="spacing" textLength="4.4502" x="41.7749" y="380.292">&#160;</text></g><ellipse cx="44" cy="54.2969" fill="#222222" rx="10" ry="10" style="stroke:#222222;stroke-width:1;"/><ellipse cx="44" cy="494.2969" fill="none" rx="11" ry="11" style="stroke:#222222;stroke-width:1;"/><ellipse cx="44" cy="494.2969" fill="#222222" rx="6" ry="6" style="stroke:#222222;stroke-width:1;"/><!--link *start*abrirInvestigador to MostrandoLista--><g class="link" data-entity-1="ent0002" data-entity-2="ent0003" data-link-type="dependency" data-source-line="8" id="lnk3"><path d="M44,64.5269 C44,80.2369 44,106.6569 44,129.1669" fill="none" id="*start*abrirInvestigador-to-MostrandoLista" style="stroke:#008000;stroke-width:1;"/><polygon fill="#008000" points="44,135.1669,48,126.1669,44,130.1669,40,126.1669,44,135.1669" style="stroke:#008000;stroke-width:1;"/><path d="M49,87.2969 L49,112.2969 L329,112.2969 L329,97.2969 L319,87.2969 L49,87.2969" fill="#FEFFDD" style="stroke:#181818;stroke-width:0.5;"/><path d="M319,87.2969 L319,97.2969 L329,97.2969 L319,87.2969" fill="#FEFFDD" style="stroke:#181818;stroke-width:0.5;"/><text fill="#000000" font-family="sans-serif" font-size="13" font-weight="bold" lengthAdjust="spacing" textLength="90.251" x="55" y="104.3638">Coordinador</text><text fill="#000000" font-family="sans-serif" font-size="13" lengthAdjust="spacing" textLength="165.3501" x="149.3833" y="104.3638">solicita abrir investigador</text></g><!--link MostrandoLista to FiltrandoLista--><g class="link" data-entity-1="ent0003" data-entity-2="ent0004" data-link-type="dependency" data-source-line="13" id="lnk4"><path d="M44,185.3769 C44,228.5669 44,312.7369 44,356.0469" fill="none" id="MostrandoLista-to-FiltrandoLista" style="stroke:#008000;stroke-width:1;"/><polygon fill="#008000" points="44,362.0469,48,353.0469,44,357.0469,40,353.0469,44,362.0469" style="stroke:#008000;stroke-width:1;"/><path d="M49,208.2969 L49,339.2969 L549,339.2969 L549,218.2969 L539,208.2969 L49,208.2969" fill="#FEFFDD" style="stroke:#181818;stroke-width:0.5;"/><path d="M539,208.2969 L539,218.2969 L549,218.2969 L539,208.2969" fill="#FEFFDD" style="stroke:#181818;stroke-width:0.5;"/><text fill="#000000" font-family="sans-serif" font-size="13" font-weight="bold" lengthAdjust="spacing" textLength="58.9063" x="55" y="225.3638">Sistema</text><text fill="#000000" font-family="sans-serif" font-size="13" lengthAdjust="spacing" textLength="200.5034" x="118.0386" y="225.3638">presenta perfil de investigador</text><text fill="#000000" font-family="sans-serif" font-size="13" lengthAdjust="spacing" textLength="479.2544" x="55" y="240.4966">&#8226; ID, nombre, apellido, campo, carrera, master y rol de cada investigador</text><text fill="#000000" font-family="sans-serif" font-size="13" lengthAdjust="spacing" textLength="197.5327" x="55" y="255.6294">&#8226; Permite solicitar editar perfil</text><text fill="#000000" font-family="sans-serif" font-size="13" lengthAdjust="spacing" textLength="248.041" x="55" y="270.7622">&#8226; Permite solicitar abrirInvestigadores</text><text fill="#000000" font-family="sans-serif" font-size="13" lengthAdjust="spacing" textLength="4.1323" x="55" y="285.895">&#160;</text><text fill="#000000" font-family="sans-serif" font-size="13" lengthAdjust="spacing" textLength="4.1323" x="55" y="301.0278">&#160;</text><text fill="#000000" font-family="sans-serif" font-size="13" lengthAdjust="spacing" textLength="4.1323" x="55" y="316.1606">&#160;</text><text fill="#000000" font-family="sans-serif" font-size="13" lengthAdjust="spacing" textLength="4.1323" x="55" y="331.2935">&#160;</text></g><!--link FiltrandoLista to *end*abrirInvestigador--><g class="link" data-entity-1="ent0004" data-entity-2="ent0005" data-link-type="dependency" data-source-line="24" id="lnk6"><path d="M44,412.6469 C44,434.9469 44,460.8569 44,477.0369" fill="none" id="FiltrandoLista-to-*end*abrirInvestigador" style="stroke:#008000;stroke-width:1;"/><polygon fill="#008000" points="44,483.0369,48,474.0369,44,478.0369,40,474.0369,44,483.0369" style="stroke:#008000;stroke-width:1;"/><path d="M49,435.2969 L49,460.2969 L343,460.2969 L343,445.2969 L333,435.2969 L49,435.2969" fill="#FEFFDD" style="stroke:#181818;stroke-width:0.5;"/><path d="M333,435.2969 L333,445.2969 L343,445.2969 L333,435.2969" fill="#FEFFDD" style="stroke:#181818;stroke-width:0.5;"/><text fill="#000000" font-family="sans-serif" font-size="13" font-weight="bold" lengthAdjust="spacing" textLength="90.251" x="55" y="452.3638">Coordinador</text><text fill="#000000" font-family="sans-serif" font-size="13" lengthAdjust="spacing" textLength="179.2769" x="149.3833" y="452.3638">solicita una de las opciones</text></g><g><rect fill="#F1F1F1" height="50" rx="12.5" ry="12.5" style="stroke:#181818;stroke-width:0.5;" width="215.043" x="48.98" y="610.3"/><line style="stroke:#181818;stroke-width:0.5;" x1="48.98" x2="264.023" y1="636.5969" y2="636.5969"/><text fill="#000000" font-family="sans-serif" font-size="14" lengthAdjust="spacing" textLength="195.043" x="58.98" y="628.2951">OPCIONES_PERFIL_ABIERTO</text></g><g><rect fill="#F1F1F1" height="50" rx="12.5" ry="12.5" style="stroke:#181818;stroke-width:0.5;" width="221.6191" x="298.69" y="610.3"/><line style="stroke:#181818;stroke-width:0.5;" x1="298.69" x2="520.3091" y1="636.5969" y2="636.5969"/><text fill="#000000" font-family="sans-serif" font-size="14" lengthAdjust="spacing" textLength="201.6191" x="308.69" y="628.2951">INVESTIGADORES_ABIERTOS</text></g><!--link abrirInvestigador to OPCIONES_PERFIL_ABIERTO--><g class="link" data-entity-1="ent0002" data-entity-2="ent0007" data-link-type="dependency" data-source-line="30" id="lnk8"><path d="M196.63,515.78 C183.58,554.32 173.9634,582.7066 166.6534,604.3066" fill="none" id="abrirInvestigador-to-OPCIONES_PERFIL_ABIERTO" style="stroke:#008000;stroke-width:1;"/><polygon fill="#008000" points="164.73,609.99,171.404,602.7472,166.3328,605.2539,163.8262,600.1827,164.73,609.99" style="stroke:#008000;stroke-width:1;"/><path d="M189.5,550.3 L189.5,575.3 L343.5,575.3 L343.5,560.3 L333.5,550.3 L189.5,550.3" fill="#FEFFDD" style="stroke:#181818;stroke-width:0.5;"/><path d="M333.5,550.3 L333.5,560.3 L343.5,560.3 L333.5,550.3" fill="#FEFFDD" style="stroke:#181818;stroke-width:0.5;"/><text fill="#000000" font-family="sans-serif" font-size="13" lengthAdjust="spacing" textLength="133.853" x="195.5" y="567.3669">abrirOpcionesPerfil()</text></g><!--link abrirInvestigador to INVESTIGADORES_ABIERTOS--><g class="link" data-entity-1="ent0002" data-entity-2="ent0009" data-link-type="dependency" data-source-line="35" id="lnk10"><path d="M369.05,515.78 C382.21,554.32 391.8925,582.7115 399.2625,604.3115" fill="none" id="abrirInvestigador-to-INVESTIGADORES_ABIERTOS" style="stroke:#008000;stroke-width:1;"/><polygon fill="#008000" points="401.2,609.99,402.0794,600.1805,399.5854,605.2579,394.508,602.7639,401.2,609.99" style="stroke:#008000;stroke-width:1;"/><path d="M395.5,550.3 L395.5,575.3 L552.5,575.3 L552.5,560.3 L542.5,550.3 L395.5,550.3" fill="#FEFFDD" style="stroke:#181818;stroke-width:0.5;"/><path d="M542.5,550.3 L542.5,560.3 L552.5,560.3 L542.5,550.3" fill="#FEFFDD" style="stroke:#181818;stroke-width:0.5;"/><text fill="#000000" font-family="sans-serif" font-size="13" lengthAdjust="spacing" textLength="136.4492" x="401.5" y="567.3669">abrirInvestigadores()</text></g><!--SRC=[bLBjQi8m5FsVfxYuFpegUm4HdDPHSBPOsH-HaRPt4aoJSjCDP0psB7kqFSdIr4bhtSOIQCZzEEVqt9YzK0KddeCK2ij3WL1eUQWkZ9cIbmWy8K61Ua5JYXtFD04tqEj4-uCUl386TjLzFRjjvRqs9N6LwOMmyMv-BcGpxmesrriORgvsXAYsm_4P1hWQfIs6LfNklGkCal5KQyg4gkICRf8n62r5Aco7KmkY8TUreCfg7BlOwNF6rXHo9lOd7R7DOiwTXeBGeB8u1TAJa91XLyVd-mS4CyzYvGcX1xn0AKMcFKXvNhY328bxa7EBJ700qWugvHc_Z1SXvS9A-_Q003Dtr3f-gUkC5aqrbjgWbc_kqlQaPPUTu_zdzQnuzMVIlWrTf48hIzyYVMEi-oQRj64q3SAb7pz6_ceUB1udju6_MeUi9SD1X4U2o7dI7x0JoHyKmVB1ZzV1tMGMhYpHaI6-GD4sia7n1G00]--></g></svg>