<svg xmlns="http://www.w3.org/2000/svg" xmlns:xlink="http://www.w3.org/1999/xlink" contentStyleType="text/css" data-diagram-type="STATE" height="666px" preserveAspectRatio="none" style="width:592px;height:666px;background:#FFFFFF;" version="1.1" viewBox="0 0 592 666" width="592px" zoomAndPan="magnify"><defs/><g><path d="M19.5,7 L505.5,7 A12.5,12.5 0 0 1 518,19.5 L518,33.2969 L7,33.2969 L7,19.5 A12.5,12.5 0 0 1 19.5,7" fill="#F1F1F1"/><rect fill="none" height="508.2969" rx="12.5" ry="12.5" style="stroke:#181818;stroke-width:0.5;" width="511" x="7" y="7"/><line style="stroke:#181818;stroke-width:0.5;" x1="7" x2="518" y1="33.2969" y2="33.2969"/><text fill="#000000" font-family="sans-serif" font-size="14" lengthAdjust="spacing" textLength="131.0381" x="196.981" y="24.9951">abrirInvestigador()</text><g><rect fill="#F1F1F1" height="50" rx="12.5" ry="12.5" style="stroke:#181818;stroke-width:0.5;" width="50" x="19" y="135.2969"/><line style="stroke:#181818;stroke-width:0.5;" x1="19" x2="69" y1="161.5938" y2="161.5938"/><text fill="#000000" font-family="sans-serif" font-size="14" lengthAdjust="spacing" textLength="4.4502" x="41.7749" y="153.292">&#160;</text></g><g><rect fill="#F1F1F1" height="50" rx="12.5" ry="12.5" style="stroke:#181818;stroke-width:0.5;" width="50" x="19" y="362.2969"/><line style="stroke:#181818;stroke-width:0.5;" x1="19" x2="69" y1="388.5938" y2="388.5938"/><text fill="#000000" font-family="sans-serif" font-size="14" lengthAdjust="spacing" textLength="4.4502" x="41.7749" y="380.292">&#160;</text></g><ellipse cx="44" cy="54.2969" fill="#222222" rx="10" ry="10" style="stroke:#222222;stroke-width:1;"/><ellipse cx="44" cy="494.2969" fill="none" rx="11" ry="11" style="stroke:#222222;stroke-width:1;"/><ellipse cx="44" cy="494.2969" fill="#222222" rx="6" ry="6" style="stroke:#222222;stroke-width:1;"/><!--link *start*abrirInvestigador to MostrandoLista--><g class="link" data-entity-1="ent0002" data-entity-2="ent0003" data-link-type="dependency" data-source-line="9" id="lnk3"><path d="M44,64.5269 C44,80.2369 44,106.6569 44,129.1669" fill="none" id="*start*abrirInvestigador-to-MostrandoLista" style="stroke:#008000;stroke-width:1;"/><polygon fill="#008000" points="44,135.1669,48,126.1669,44,130.1669,40,126.1669,44,135.1669" style="stroke:#008000;stroke-width:1;"/><path d="M49,87.2969 L49,112.2969 L329,112.2969 L329,97.2969 L319,87.2969 L49,87.2969" fill="#FEFFDD" style="stroke:#181818;stroke-width:0.5;"/><path d="M319,87.2969 L319,97.2969 L329,97.2969 L319,87.2969" fill="#FEFFDD" style="stroke:#181818;stroke-width:0.5;"/><text fill="#000000" font-family="sans-serif" font-size="13" font-weight="bold" lengthAdjust="spacing" textLength="90.251" x="55" y="104.3638">Coordinador</text><text fill="#000000" font-family="sans-serif" font-size="13" lengthAdjust="spacing" textLength="165.3501" x="149.3833" y="104.3638">solicita abrir investigador</text></g><!--link MostrandoLista to FiltrandoLista--><g class="link" data-entity-1="ent0003" data-entity-2="ent0004" data-link-type="dependency" data-source-line="14" id="lnk4"><path d="M44,185.3769 C44,228.5669 44,312.7369 44,356.0469" fill="none" id="MostrandoLista-to-FiltrandoLista" style="stroke:#008000;stroke-width:1;"/><polygon fill="#008000" points="44,362.0469,48,353.0469,44,357.0469,40,353.0469,44,362.0469" style="stroke:#008000;stroke-width:1;"/><path d="M49,208.2969 L49,339.2969 L509,339.2969 L509,218.2969 L499,208.2969 L49,208.2969" fill="#FEFFDD" style="stroke:#181818;stroke-width:0.5;"/><path d="M499,208.2969 L499,218.2969 L509,218.2969 L499,208.2969" fill="#FEFFDD" style="stroke:#181818;stroke-width:0.5;"/><text fill="#000000" font-family="sans-serif" font-size="13" font-weight="bold" lengthAdjust="spacing" textLength="58.9063" x="55" y="225.3638">Sistema</text><text fill="#000000" font-family="sans-serif" font-size="13" lengthAdjust="spacing" textLength="200.5034" x="118.0386" y="225.3638">presenta perfil de investigador</text><text fill="#000000" font-family="sans-serif" font-size="13" lengthAdjust="spacing" textLength="439.2896" x="55" y="240.4966">&#8226; ID, nombre, apellido, campo, dni, carrera, master de investigador</text><text fill="#000000" font-family="sans-serif" font-size="13" lengthAdjust="spacing" textLength="197.5327" x="55" y="255.6294">&#8226; Permite solicitar editar perfil</text><text fill="#000000" font-family="sans-serif" font-size="13" lengthAdjust="spacing" textLength="251.9512" x="55" y="270.7622">&#8226; Permite solicitar abrir investigadores</text><text fill="#000000" font-family="sans-serif" font-size="13" lengthAdjust="spacing" textLength="4.1323" x="55" y="285.895">&#160;</text><text fill="#000000" font-family="sans-serif" font-size="13" lengthAdjust="spacing" textLength="4.1323" x="55" y="301.0278">&#160;</text><text fill="#000000" font-family="sans-serif" font-size="13" lengthAdjust="spacing" textLength="4.1323" x="55" y="316.1606">&#160;</text><text fill="#000000" font-family="sans-serif" font-size="13" lengthAdjust="spacing" textLength="4.1323" x="55" y="331.2935">&#160;</text></g><!--link FiltrandoLista to *end*abrirInvestigador--><g class="link" data-entity-1="ent0004" data-entity-2="ent0005" data-link-type="dependency" data-source-line="25" id="lnk6"><path d="M44,412.6469 C44,434.9469 44,460.8569 44,477.0369" fill="none" id="FiltrandoLista-to-*end*abrirInvestigador" style="stroke:#008000;stroke-width:1;"/><polygon fill="#008000" points="44,483.0369,48,474.0369,44,478.0369,40,474.0369,44,483.0369" style="stroke:#008000;stroke-width:1;"/><path d="M49,435.2969 L49,460.2969 L343,460.2969 L343,445.2969 L333,435.2969 L49,435.2969" fill="#FEFFDD" style="stroke:#181818;stroke-width:0.5;"/><path d="M333,435.2969 L333,445.2969 L343,445.2969 L333,435.2969" fill="#FEFFDD" style="stroke:#181818;stroke-width:0.5;"/><text fill="#000000" font-family="sans-serif" font-size="13" font-weight="bold" lengthAdjust="spacing" textLength="90.251" x="55" y="452.3638">Coordinador</text><text fill="#000000" font-family="sans-serif" font-size="13" lengthAdjust="spacing" textLength="179.2769" x="149.3833" y="452.3638">solicita una de las opciones</text></g><g><rect fill="#F1F1F1" height="50" rx="12.5" ry="12.5" style="stroke:#181818;stroke-width:0.5;" width="221.6191" x="17.69" y="610.3"/><line style="stroke:#181818;stroke-width:0.5;" x1="17.69" x2="239.3091" y1="636.5969" y2="636.5969"/><text fill="#000000" font-family="sans-serif" font-size="14" lengthAdjust="spacing" textLength="201.6191" x="27.69" y="628.2951">INVESTIGADORES_ABIERTOS</text></g><g><rect fill="#F1F1F1" height="50" rx="12.5" ry="12.5" style="stroke:#181818;stroke-width:0.5;" width="215.043" x="346.98" y="610.3"/><line style="stroke:#181818;stroke-width:0.5;" x1="346.98" x2="562.023" y1="636.5969" y2="636.5969"/><text fill="#000000" font-family="sans-serif" font-size="14" lengthAdjust="spacing" textLength="195.043" x="356.98" y="628.2951">OPCIONES_PERFIL_ABIERTO</text></g><!--link INVESTIGADORES_ABIERTOS to abrirInvestigador--><g class="link" data-entity-1="ent0007" data-entity-2="ent0002" data-link-type="dependency" data-source-line="32" id="lnk8"><path d="M171.55,609.83 C196.69,595.54 223.5,580.3 223.5,580.3 C223.5,580.3 226.0499,559.4954 230.7099,521.4854" fill="none" id="INVESTIGADORES_ABIERTOS-to-abrirInvestigador" style="stroke:#008000;stroke-width:1;"/><polygon fill="#008000" points="231.44,515.53,226.3745,523.9764,230.8316,520.4928,234.3151,524.9499,231.44,515.53" style="stroke:#008000;stroke-width:1;"/><path d="M232.5,550.3 L232.5,575.3 L374.5,575.3 L374.5,560.3 L364.5,550.3 L232.5,550.3" fill="#FEFFDD" style="stroke:#181818;stroke-width:0.5;"/><path d="M364.5,550.3 L364.5,560.3 L374.5,560.3 L364.5,550.3" fill="#FEFFDD" style="stroke:#181818;stroke-width:0.5;"/><text fill="#000000" font-family="sans-serif" font-size="13" lengthAdjust="spacing" textLength="121.6782" x="238.5" y="567.3669">abrirInvestigador()</text></g><!--link abrirInvestigador to INVESTIGADORES_ABIERTOS--><g class="link" data-entity-1="ent0002" data-entity-2="ent0007" data-link-type="dependency" data-source-line="42" id="lnk11"><path d="M70.8,515.8 C57.08,533.95 48.5,545.3 48.5,545.3 C48.5,545.3 48.5,580.3 48.5,580.3 C48.5,580.3 66.1069,592.1831 87.2769,606.4731" fill="none" id="abrirInvestigador-to-INVESTIGADORES_ABIERTOS" style="stroke:#008000;stroke-width:1;"/><polygon fill="#008000" points="92.25,609.83,87.0283,601.4793,88.1058,607.0326,82.5525,608.1101,92.25,609.83" style="stroke:#008000;stroke-width:1;"/><path d="M53.5,550.3 L53.5,575.3 L210.5,575.3 L210.5,560.3 L200.5,550.3 L53.5,550.3" fill="#FEFFDD" style="stroke:#181818;stroke-width:0.5;"/><path d="M200.5,550.3 L200.5,560.3 L210.5,560.3 L200.5,550.3" fill="#FEFFDD" style="stroke:#181818;stroke-width:0.5;"/><text fill="#000000" font-family="sans-serif" font-size="13" lengthAdjust="spacing" textLength="136.4492" x="59.5" y="567.3669">abrirInvestigadores()</text></g><!--link abrirInvestigador to OPCIONES_PERFIL_ABIERTO--><g class="link" data-entity-1="ent0002" data-entity-2="ent0009" data-link-type="dependency" data-source-line="37" id="lnk10"><path d="M393.35,515.78 C413.24,554.32 428.0578,583.0584 439.2078,604.6584" fill="none" id="abrirInvestigador-to-OPCIONES_PERFIL_ABIERTO" style="stroke:#008000;stroke-width:1;"/><polygon fill="#008000" points="441.96,609.99,441.3861,600.1579,439.6665,605.547,434.2774,603.8274,441.96,609.99" style="stroke:#008000;stroke-width:1;"/><path d="M431.5,550.3 L431.5,575.3 L585.5,575.3 L585.5,560.3 L575.5,550.3 L431.5,550.3" fill="#FEFFDD" style="stroke:#181818;stroke-width:0.5;"/><path d="M575.5,550.3 L575.5,560.3 L585.5,560.3 L575.5,550.3" fill="#FEFFDD" style="stroke:#181818;stroke-width:0.5;"/><text fill="#000000" font-family="sans-serif" font-size="13" lengthAdjust="spacing" textLength="133.853" x="437.5" y="567.3669">abrirOpcionesPerfil()</text></g><!--SRC=[bLBRQi9047tFLmpsfIsH_e08LcC9M1ECz4MaRDofB6vsbzsq8ANGR-cdzKiwMQiaHblSGFOoC-USkRYDK8PPLe0K2ikjGJ1QRgjB40IkP2K2owsmiNf3Lueruze2Sz1flLxVTE0z283MBgv37ta-QbTQfhYU27flsyT2rktUON6xXExYQcqHrRBRFy80xwCqOMXL2T_uXrxU7sfjkL2LdDvTtWUdfLW9Yl1gGTJa-X1KV8T3ApZyZjZgGex4djEHaHKBvZKOYmuLuHYqBq82nxQExyylY4SXOHMvnH2OGIa5ro6iM65euqfKPslHiX0AHl3sB5AAjX0aQf-z1UH-sodumwzT9dHLHtQrQPJCNvhbQ5IAMdXvcruLgxAID1RQh8HMHDyW_Q2fZATFKJQF7mQZP1PbpuFxE9hDawp1tfhEeA7ZnF061uwsjG6TfCCucH9n6it6yMJFVu8W-KqXzMM_WE9CXl_aWAv6yGC0]--></g></svg>