<svg xmlns="http://www.w3.org/2000/svg" xmlns:xlink="http://www.w3.org/1999/xlink" contentStyleType="text/css" data-diagram-type="STATE" height="650px" preserveAspectRatio="none" style="width:698px;height:650px;background:#FFFFFF;" version="1.1" viewBox="0 0 698 650" width="698px" zoomAndPan="magnify"><defs/><g><path d="M19.5,7 L474.5,7 A12.5,12.5 0 0 1 487,19.5 L487,33.2969 L7,33.2969 L7,19.5 A12.5,12.5 0 0 1 19.5,7" fill="#F1F1F1"/><rect fill="none" height="492.2969" rx="12.5" ry="12.5" style="stroke:#181818;stroke-width:0.5;" width="480" x="7" y="7"/><line style="stroke:#181818;stroke-width:0.5;" x1="7" x2="487" y1="33.2969" y2="33.2969"/><text fill="#000000" font-family="sans-serif" font-size="14" lengthAdjust="spacing" textLength="134.5723" x="179.7139" y="24.9951">crearInvestigador()</text><g><rect fill="#F1F1F1" height="50" rx="12.5" ry="12.5" style="stroke:#181818;stroke-width:0.5;" width="50" x="19" y="135.2969"/><line style="stroke:#181818;stroke-width:0.5;" x1="19" x2="69" y1="161.5938" y2="161.5938"/><text fill="#000000" font-family="sans-serif" font-size="14" lengthAdjust="spacing" textLength="4.4502" x="41.7749" y="153.292">&#160;</text></g><g><rect fill="#F1F1F1" height="50" rx="12.5" ry="12.5" style="stroke:#181818;stroke-width:0.5;" width="50" x="19" y="331.2969"/><line style="stroke:#181818;stroke-width:0.5;" x1="19" x2="69" y1="357.5938" y2="357.5938"/><text fill="#000000" font-family="sans-serif" font-size="14" lengthAdjust="spacing" textLength="4.4502" x="41.7749" y="349.292">&#160;</text></g><ellipse cx="44" cy="54.2969" fill="#222222" rx="10" ry="10" style="stroke:#222222;stroke-width:1;"/><ellipse cx="44" cy="478.2969" fill="none" rx="11" ry="11" style="stroke:#222222;stroke-width:1;"/><ellipse cx="44" cy="478.2969" fill="#222222" rx="6" ry="6" style="stroke:#222222;stroke-width:1;"/><!--link *start*crearInvestigador to SolicitandoDatos--><g class="link" data-entity-1="ent0002" data-entity-2="ent0003" data-link-type="dependency" data-source-line="8" id="lnk3"><path d="M44,64.5269 C44,80.2369 44,106.6569 44,129.1669" fill="none" id="*start*crearInvestigador-to-SolicitandoDatos" style="stroke:#008000;stroke-width:1;"/><polygon fill="#008000" points="44,135.1669,48,126.1669,44,130.1669,40,126.1669,44,135.1669" style="stroke:#008000;stroke-width:1;"/><path d="M49,87.2969 L49,112.2969 L377,112.2969 L377,97.2969 L367,87.2969 L49,87.2969" fill="#FEFFDD" style="stroke:#181818;stroke-width:0.5;"/><path d="M367,87.2969 L367,97.2969 L377,97.2969 L367,87.2969" fill="#FEFFDD" style="stroke:#181818;stroke-width:0.5;"/><text fill="#000000" font-family="sans-serif" font-size="13" font-weight="bold" lengthAdjust="spacing" textLength="90.251" x="55" y="104.3638">Coordinador</text><text fill="#000000" font-family="sans-serif" font-size="13" lengthAdjust="spacing" textLength="212.8877" x="149.3833" y="104.3638">solicita crear investigador nuevo</text></g><!--link SolicitandoDatos to CreandoInvestigador--><g class="link" data-entity-1="ent0003" data-entity-2="ent0004" data-link-type="dependency" data-source-line="13" id="lnk4"><path d="M44,185.4769 C44,222.6469 44,287.4569 44,324.8169" fill="none" id="SolicitandoDatos-to-CreandoInvestigador" style="stroke:#008000;stroke-width:1;"/><polygon fill="#008000" points="44,330.8169,48,321.8169,44,325.8169,40,321.8169,44,330.8169" style="stroke:#008000;stroke-width:1;"/><path d="M49,208.2969 L49,308.2969 L478,308.2969 L478,218.2969 L468,208.2969 L49,208.2969" fill="#FEFFDD" style="stroke:#181818;stroke-width:0.5;"/><path d="M468,208.2969 L468,218.2969 L478,218.2969 L468,208.2969" fill="#FEFFDD" style="stroke:#181818;stroke-width:0.5;"/><text fill="#000000" font-family="sans-serif" font-size="13" font-weight="bold" lengthAdjust="spacing" textLength="58.9063" x="55" y="225.3638">Sistema</text><text fill="#000000" font-family="sans-serif" font-size="13" lengthAdjust="spacing" textLength="345.2236" x="118.0386" y="225.3638">presenta solicitud de datos m&#237;nimos del investigador</text><text fill="#000000" font-family="sans-serif" font-size="13" lengthAdjust="spacing" textLength="218.4482" x="55" y="240.4966">&#8226; ID del investigador (obligatorio)</text><text fill="#000000" font-family="sans-serif" font-size="13" lengthAdjust="spacing" textLength="256.5405" x="55" y="255.6294">&#8226; Nombre del investigador (obligatorio)</text><text fill="#000000" font-family="sans-serif" font-size="13" lengthAdjust="spacing" textLength="250.5166" x="55" y="270.7622">&#8226; Campo del investigador (obligatorio)</text><text fill="#000000" font-family="sans-serif" font-size="13" lengthAdjust="spacing" textLength="240.4619" x="55" y="285.895">&#8226; Permite solicitar crear investigador</text><text fill="#000000" font-family="sans-serif" font-size="13" lengthAdjust="spacing" textLength="236.6978" x="55" y="301.0278">&#8226; Permite solicitar cancelar creaci&#243;n</text></g><!--link CreandoInvestigador to *end*crearInvestigador--><g class="link" data-entity-1="ent0004" data-entity-2="ent0005" data-link-type="dependency" data-source-line="23" id="lnk6"><path d="M44,381.5769 C44,407.7469 44,442.1469 44,460.9769" fill="none" id="CreandoInvestigador-to-*end*crearInvestigador" style="stroke:#008000;stroke-width:1;"/><polygon fill="#008000" points="44,466.9769,48,457.9769,44,461.9769,40,457.9769,44,466.9769" style="stroke:#008000;stroke-width:1;"/><path d="M49,404.2969 L49,444.2969 L388,444.2969 L388,414.2969 L378,404.2969 L49,404.2969" fill="#FEFFDD" style="stroke:#181818;stroke-width:0.5;"/><path d="M378,404.2969 L378,414.2969 L388,414.2969 L378,404.2969" fill="#FEFFDD" style="stroke:#181818;stroke-width:0.5;"/><text fill="#000000" font-family="sans-serif" font-size="13" font-weight="bold" lengthAdjust="spacing" textLength="90.251" x="55" y="421.3638">Coordinador</text><text fill="#000000" font-family="sans-serif" font-size="13" lengthAdjust="spacing" textLength="177.8423" x="149.3833" y="421.3638">proporciona datos m&#237;nimos</text><text fill="#000000" font-family="sans-serif" font-size="13" font-weight="bold" lengthAdjust="spacing" textLength="58.9063" x="55" y="436.4966">Sistema</text><text fill="#000000" font-family="sans-serif" font-size="13" lengthAdjust="spacing" textLength="255.3345" x="118.0386" y="436.4966">crea investigador y transfiere a edici&#243;n</text></g><g><rect fill="#F1F1F1" height="50" rx="12.5" ry="12.5" style="stroke:#181818;stroke-width:0.5;" width="221.6191" x="14.19" y="594.3"/><line style="stroke:#181818;stroke-width:0.5;" x1="14.19" x2="235.8091" y1="620.5969" y2="620.5969"/><text fill="#000000" font-family="sans-serif" font-size="14" lengthAdjust="spacing" textLength="201.6191" x="24.19" y="612.2951">INVESTIGADORES_ABIERTOS</text></g><g><rect fill="#F1F1F1" height="50" rx="12.5" ry="12.5" style="stroke:#181818;stroke-width:0.5;" width="215.043" x="334.48" y="594.3"/><line style="stroke:#181818;stroke-width:0.5;" x1="334.48" x2="549.523" y1="620.5969" y2="620.5969"/><text fill="#000000" font-family="sans-serif" font-size="14" lengthAdjust="spacing" textLength="195.043" x="344.48" y="612.2951">OPCIONES_PERFIL_ABIERTO</text></g><!--link INVESTIGADORES_ABIERTOS to crearInvestigador--><g class="link" data-entity-1="ent0007" data-entity-2="ent0002" data-link-type="dependency" data-source-line="30" id="lnk8"><path d="M162.61,593.83 C184.58,579.54 208,564.3 208,564.3 C208,564.3 210.6211,543.4531 215.3811,505.6131" fill="none" id="INVESTIGADORES_ABIERTOS-to-crearInvestigador" style="stroke:#0000FF;stroke-width:1;"/><polygon fill="#0000FF" points="216.13,499.66,211.038,508.0904,215.506,504.6209,218.9754,509.0889,216.13,499.66" style="stroke:#0000FF;stroke-width:1;"/><path d="M217,534.3 L217,559.3 L362,559.3 L362,544.3 L352,534.3 L217,534.3" fill="#FEFFDD" style="stroke:#181818;stroke-width:0.5;"/><path d="M352,534.3 L352,544.3 L362,544.3 L352,534.3" fill="#FEFFDD" style="stroke:#181818;stroke-width:0.5;"/><text fill="#000000" font-family="sans-serif" font-size="13" lengthAdjust="spacing" textLength="124.96" x="223" y="551.3669">crearInvestigador()</text></g><!--link crearInvestigador to INVESTIGADORES_ABIERTOS--><g class="link" data-entity-1="ent0002" data-entity-2="ent0007" data-link-type="dependency" data-source-line="40" id="lnk11"><path d="M75.73,499.59 C63,517.84 55,529.3 55,529.3 C55,529.3 55,564.3 55,564.3 C55,564.3 70.0097,575.8747 88.5297,590.1647" fill="none" id="crearInvestigador-to-INVESTIGADORES_ABIERTOS" style="stroke:#0000FF;stroke-width:1;"/><polygon fill="#0000FF" points="93.28,593.83,88.5981,585.1651,89.3214,590.7756,83.711,591.4989,93.28,593.83" style="stroke:#0000FF;stroke-width:1;"/><path d="M60,534.3 L60,559.3 L195,559.3 L195,544.3 L185,534.3 L60,534.3" fill="#FEFFDD" style="stroke:#181818;stroke-width:0.5;"/><path d="M185,534.3 L185,544.3 L195,544.3 L185,534.3" fill="#FEFFDD" style="stroke:#181818;stroke-width:0.5;"/><text fill="#000000" font-family="sans-serif" font-size="13" lengthAdjust="spacing" textLength="114.9624" x="66" y="551.3669">cancelar creaci&#243;n</text></g><!--link crearInvestigador to OPCIONES_PERFIL_ABIERTO--><g class="link" data-entity-1="ent0002" data-entity-2="ent0009" data-link-type="dependency" data-source-line="35" id="lnk10"><path d="M378.42,499.57 C399.02,538.03 414.4666,566.8912 426.0866,588.5812" fill="none" id="crearInvestigador-to-OPCIONES_PERFIL_ABIERTO" style="stroke:#008000;stroke-width:1;"/><polygon fill="#008000" points="428.92,593.87,428.1958,584.0478,426.5588,589.4626,421.144,587.8257,428.92,593.87" style="stroke:#008000;stroke-width:1;"/><path d="M414,534.3 L414,559.3 L691,559.3 L691,544.3 L681,534.3 L414,534.3" fill="#FEFFDD" style="stroke:#181818;stroke-width:0.5;"/><path d="M681,534.3 L681,544.3 L691,544.3 L681,534.3" fill="#FEFFDD" style="stroke:#181818;stroke-width:0.5;"/><text fill="#000000" font-family="sans-serif" font-size="13" lengthAdjust="spacing" textLength="256.2549" x="420" y="551.3669">abrirOpcionesPerfil(investigadorNuevo)</text></g><!--SRC=[ZLFRIiD047tVhnZgInMAFr0AsbO9I5CQyQKKsMJ7CfZiXDrjeOZWj_Zkav_GF_5BtAGNcoPgDn3sCdFcd3ExzfbqBetC82MDRfKZv9okYeKGrac7a1YK9j1Bj8xcKh41QQ5LsssVj-152F1ZazVodu-CEAM4dDIA1zAnhKVqFPG_FGJRu4mlPj2PdiqDefvrUZKeAACqUoZMXO3dSgCRz_hCHf4keBgNSG_iDdCZ1kXGZLxWaij4r6g3veVO_sfL3oarSV-DL4JMOIPBGhb1YzeJsZ9RA508giJFrX-QCZzHc5Qeba1VR-yG36fdqEOuzLF7XlXy7pdYB3PuQdHVPZcV6Zn6av5NkVFMD9ZxLx3K2QRRh8JMdxhIWn__6ookjC3VafFlGMuuPvCGQtbaTbEJ2cPL9rRWZDJsYT2RAW4LDJ1_5I8OFGoZ- -3sQX1EXj7ZrNKmdDo7KS4xJXTOqAuz854HqF2-nBv2_RJYI3Zk1-78rnqF9pV1tQvyjO2C3PamBxn0wzlpH6dxKEkeU1R_rjof-KNmaQPwotVmtm00]--></g></svg>