<?xml version="1.0" encoding="us-ascii" standalone="no"?><svg xmlns="http://www.w3.org/2000/svg" xmlns:xlink="http://www.w3.org/1999/xlink" contentStyleType="text/css" height="791px" preserveAspectRatio="none" style="width:630px;height:791px;background:#FFFFFF;" version="1.1" viewBox="0 0 630 791" width="630px" zoomAndPan="magnify"><defs/><g><g id="PROYECTO_ABIERTO"><rect fill="#F1F1F1" height="50" rx="12.5" ry="12.5" style="stroke:#181818;stroke-width:0.5;" width="166" x="229" y="7"/><line style="stroke:#181818;stroke-width:0.5;" x1="229" x2="395" y1="34.6094" y2="34.6094"/><text fill="#000000" font-family="sans-serif" font-size="14" lengthAdjust="spacing" textLength="146" x="239" y="26.5332">PROYECTO_ABIERTO</text></g><path d="M19.5,118 L604.5,118 A12.5,12.5 0 0 1 617,130.5 L617,145.6094 L7,145.6094 L7,130.5 A12.5,12.5 0 0 1 19.5,118 " fill="#F1F1F1" style="stroke:#F1F1F1;stroke-width:1.0;"/><rect fill="none" height="520.6094" rx="12.5" ry="12.5" style="stroke:#181818;stroke-width:0.5;" width="610" x="7" y="118"/><line style="stroke:#181818;stroke-width:0.5;" x1="7" x2="617" y1="145.6094" y2="145.6094"/><text fill="#000000" font-family="sans-serif" font-size="14" lengthAdjust="spacing" textLength="115" x="254.5" y="137.5332">eliminarProyecto()</text><g id="eliminarProyecto.MostrandoProyecto"><rect fill="#F1F1F1" height="50" rx="12.5" ry="12.5" style="stroke:#181818;stroke-width:0.5;" width="50" x="160" y="264.6094"/><line style="stroke:#181818;stroke-width:0.5;" x1="160" x2="210" y1="292.2188" y2="292.2188"/><text fill="#000000" font-family="sans-serif" font-size="14" lengthAdjust="spacing" textLength="4" x="183" y="284.1426">&#160;</text></g><g id="eliminarProyecto.ConfirmandoEliminacion"><rect fill="#F1F1F1" height="50" rx="12.5" ry="12.5" style="stroke:#181818;stroke-width:0.5;" width="50" x="160" y="419.6094"/><line style="stroke:#181818;stroke-width:0.5;" x1="160" x2="210" y1="447.2188" y2="447.2188"/><text fill="#000000" font-family="sans-serif" font-size="14" lengthAdjust="spacing" textLength="4" x="183" y="439.1426">&#160;</text></g><ellipse cx="185" cy="166.6094" fill="#222222" rx="10" ry="10" style="stroke:#222222;stroke-width:1.0;"/><ellipse cx="185" cy="617.6094" fill="none" rx="11" ry="11" style="stroke:#222222;stroke-width:1.0;"/><ellipse cx="185" cy="617.6094" fill="#222222" rx="6" ry="6" style="stroke:#222222;stroke-width:1.0;"/><!--link *start*eliminarProyecto to MostrandoProyecto--><g id="link_*start*eliminarProyecto_MostrandoProyecto"><path d="M185,176.6994 C185,195.1694 185,231.5894 185,258.5794 " fill="none" id="*start*eliminarProyecto-to-MostrandoProyecto" style="stroke:#008000;stroke-width:1.0;"/><polygon fill="#008000" points="185,264.5794,189,255.5794,185,259.5794,181,255.5794,185,264.5794" style="stroke:#008000;stroke-width:1.0;"/><path d="M190,199.6094 L190,241.6094 L438,241.6094 L438,209.6094 L428,199.6094 L190,199.6094 " fill="#FEFFDD" style="stroke:#181818;stroke-width:0.5;"/><path d="M428,199.6094 L428,209.6094 L438,209.6094 L428,199.6094 " fill="#FEFFDD" style="stroke:#181818;stroke-width:0.5;"/><text fill="#000000" font-family="sans-serif" font-size="13" font-weight="bold" lengthAdjust="spacing" textLength="79" x="196" y="218.1045">Coordinador</text><text fill="#000000" font-family="sans-serif" font-size="13" lengthAdjust="spacing" textLength="143" x="279" y="218.1045">tiene un proyecto abierto</text><text fill="#000000" font-family="sans-serif" font-size="13" font-weight="bold" lengthAdjust="spacing" textLength="79" x="196" y="234.4561">Coordinador</text><text fill="#000000" font-family="sans-serif" font-size="13" lengthAdjust="spacing" textLength="144" x="279" y="234.4561">solicita eliminar proyecto</text></g><!--link MostrandoProyecto to ConfirmandoEliminacion--><g id="link_MostrandoProyecto_ConfirmandoEliminacion"><path d="M160,296.8994 C113.41,308.6094 18,332.6094 18,332.6094 C18,332.6094 18,401.6094 18,401.6094 C18,401.6094 107.591,424.1468 154.181,435.8568 " fill="none" id="MostrandoProyecto-to-ConfirmandoEliminacion" style="stroke:#008000;stroke-width:1.0;"/><polygon fill="#008000" points="160,437.3194,152.2465,431.2462,155.1508,436.1006,150.2964,439.0049,160,437.3194" style="stroke:#008000;stroke-width:1.0;"/><path d="M23,337.6094 L23,396.6094 L327,396.6094 L327,347.6094 L317,337.6094 L23,337.6094 " fill="#FEFFDD" style="stroke:#181818;stroke-width:0.5;"/><path d="M317,337.6094 L317,347.6094 L327,347.6094 L317,337.6094 " fill="#FEFFDD" style="stroke:#181818;stroke-width:0.5;"/><text fill="#000000" font-family="sans-serif" font-size="13" font-weight="bold" lengthAdjust="spacing" textLength="51" x="29" y="356.1045">Sistema</text><text fill="#000000" font-family="sans-serif" font-size="13" lengthAdjust="spacing" textLength="118" x="84" y="356.1045">solicita confirmaci&#243;n</text><text fill="#000000" font-family="sans-serif" font-size="13" lengthAdjust="spacing" textLength="229" x="29" y="372.4561">&#8226; &#191;Est&#225; seguro de eliminar el proyecto?</text><text fill="#000000" font-family="sans-serif" font-size="13" lengthAdjust="spacing" textLength="283" x="29" y="388.8076">&#8226; Advertencia: esta acci&#243;n no se puede deshacer</text></g><!--link ConfirmandoEliminacion to *end*eliminarProyecto--><g id="link_ConfirmandoEliminacion_*end*eliminarProyecto"><path d="M185,469.7494 C185,507.6794 185,573.6594 185,600.3294 " fill="none" id="ConfirmandoEliminacion-to-*end*eliminarProyecto" style="stroke:#008000;stroke-width:1.0;"/><polygon fill="#008000" points="185,606.3294,189,597.3294,185,601.3294,181,597.3294,185,606.3294" style="stroke:#008000;stroke-width:1.0;"/><path d="M190,492.6094 L190,583.6094 L454,583.6094 L454,502.6094 L444,492.6094 L190,492.6094 " fill="#FEFFDD" style="stroke:#181818;stroke-width:0.5;"/><path d="M444,492.6094 L444,502.6094 L454,502.6094 L444,492.6094 " fill="#FEFFDD" style="stroke:#181818;stroke-width:0.5;"/><text fill="#000000" font-family="sans-serif" font-size="13" font-weight="bold" lengthAdjust="spacing" textLength="79" x="196" y="511.1045">Coordinador</text><text fill="#000000" font-family="sans-serif" font-size="13" lengthAdjust="spacing" textLength="118" x="279" y="511.1045">confirma eliminaci&#243;n</text><text fill="#000000" font-family="sans-serif" font-size="13" font-weight="bold" lengthAdjust="spacing" textLength="51" x="196" y="527.4561">Sistema</text><text fill="#000000" font-family="sans-serif" font-size="13" lengthAdjust="spacing" textLength="109" x="251" y="527.4561">elimina el proyecto</text><text fill="#000000" font-family="sans-serif" font-size="13" lengthAdjust="spacing" textLength="186" x="196" y="543.8076">&#8226; Elimina entregables asociados</text><text fill="#000000" font-family="sans-serif" font-size="13" lengthAdjust="spacing" textLength="243" x="196" y="560.1592">&#8226; Elimina asociaciones con investigadores</text><text fill="#000000" font-family="sans-serif" font-size="13" lengthAdjust="spacing" textLength="198" x="196" y="576.5107">&#8226; Actualiza el listado de proyectos</text></g><!--link ConfirmandoEliminacion to MostrandoProyecto--><g id="link_ConfirmandoEliminacion_MostrandoProyecto"><path d="M210.27,436.3894 C252.3,424.3794 332,401.6094 332,401.6094 C332,401.6094 332,332.6094 332,332.6094 C332,332.6094 258.0691,311.4879 216.0391,299.4779 " fill="none" id="ConfirmandoEliminacion-to-MostrandoProyecto" style="stroke:#FF0000;stroke-width:1.0;"/><polygon fill="#FF0000" points="210.27,297.8294,217.8246,304.1482,215.0776,299.2031,220.0226,296.4561,210.27,297.8294" style="stroke:#FF0000;stroke-width:1.0;"/><path d="M337,346.1094 L337,388.1094 L608,388.1094 L608,356.1094 L598,346.1094 L337,346.1094 " fill="#FEFFDD" style="stroke:#181818;stroke-width:0.5;"/><path d="M598,346.1094 L598,356.1094 L608,356.1094 L598,346.1094 " fill="#FEFFDD" style="stroke:#181818;stroke-width:0.5;"/><text fill="#000000" font-family="sans-serif" font-size="13" font-weight="bold" lengthAdjust="spacing" textLength="79" x="343" y="364.6045">Coordinador</text><text fill="#000000" font-family="sans-serif" font-size="13" lengthAdjust="spacing" textLength="114" x="426" y="364.6045">cancela eliminaci&#243;n</text><text fill="#000000" font-family="sans-serif" font-size="13" font-weight="bold" lengthAdjust="spacing" textLength="51" x="343" y="380.9561">Sistema</text><text fill="#000000" font-family="sans-serif" font-size="13" lengthAdjust="spacing" textLength="195" x="398" y="380.9561">mantiene el proyecto sin cambios</text></g><g id="PROYECTOS_ABIERTOS"><rect fill="#F1F1F1" height="50" rx="12.5" ry="12.5" style="stroke:#181818;stroke-width:0.5;" width="184" x="220" y="735"/><line style="stroke:#181818;stroke-width:0.5;" x1="220" x2="404" y1="762.6094" y2="762.6094"/><text fill="#000000" font-family="sans-serif" font-size="14" lengthAdjust="spacing" textLength="164" x="230" y="754.5332">PROYECTOS_ABIERTOS</text></g><!--link PROYECTO_ABIERTO to eliminarProyecto--><g id="link_PROYECTO_ABIERTO_eliminarProyecto"><path d="M312,57.22 C312,72.31 312,87.45 312,111.74 " fill="none" id="PROYECTO_ABIERTO-to-eliminarProyecto" style="stroke:#008000;stroke-width:1.0;"/><polygon fill="#008000" points="312,117.74,316,108.74,312,112.74,308,108.74,312,117.74" style="stroke:#008000;stroke-width:1.0;"/></g><!--link eliminarProyecto to PROYECTOS_ABIERTOS--><g id="link_eliminarProyecto_PROYECTOS_ABIERTOS"><path d="M312,639.18 C312,678.46 312,707.09 312,728.89 " fill="none" id="eliminarProyecto-to-PROYECTOS_ABIERTOS" style="stroke:#008000;stroke-width:1.0;"/><polygon fill="#008000" points="312,734.89,316,725.89,312,729.89,308,725.89,312,734.89" style="stroke:#008000;stroke-width:1.0;"/><path d="M317,674 L317,700 L430,700 L430,684 L420,674 L317,674 " fill="#FEFFDD" style="stroke:#181818;stroke-width:0.5;"/><path d="M420,674 L420,684 L430,684 L420,674 " fill="#FEFFDD" style="stroke:#181818;stroke-width:0.5;"/><text fill="#000000" font-family="sans-serif" font-size="13" lengthAdjust="spacing" textLength="92" x="323" y="692.4951">abrirProyectos()</text></g><!--SRC=[fLJ1Qjj04BtlLmpE9Ic4taDmSOqEEHI7E9SIGbdjJfmXqgpONGVSKiYlfB-G3mWqVz8lwKYorfRbq9H85sddpPltPdOtt15NskiI2cACgmgXSiMg_b7g_6BsDPjUphvDFfzb5vSpEBuwM7X4lZuU0nPK4cj_xjqAJNHAXQWZ3jP11nZjBXuUZU27KY1FcpMILu1VN8XUitM9TG2PEhuXNzQWh6KrvBZbklfmtTEuduwTi3ck7Tyr2wVvUEgSjy9bdJ_zc8yX4ZB2ag5ADd92lsROan1SGOQYJlvJPfE1R9kwhSw1hfxgLno-9drE8MAf-ohCciFGorER-kVX5_n-pa9yUOI0YwLtO3VJaeya-5F2J-ozU4Osf4y0PGoWJSCeGeG4gYKAXyLmgmtwFKRtM-cvbPczUIgTgqxsnjrE7zRnRLV9LDR5E7fSwBp08FlAYKVhmW3LHchL0fFwG7mldQ15BGet-8c9IrtGzwPc8L8aNZUuAn_-gpiUxVlshz5iiFXtewHukzMtEWM1M0ZAd7PL_rHgSBotPzbT6FFknfYhdbYTUqgPuV189UQ_]--></g></svg>