<?xml version="1.0" encoding="us-ascii" standalone="no"?><svg xmlns="http://www.w3.org/2000/svg" xmlns:xlink="http://www.w3.org/1999/xlink" contentStyleType="text/css" height="680px" preserveAspectRatio="none" style="width:630px;height:680px;background:#FFFFFF;" version="1.1" viewBox="0 0 630 680" width="630px" zoomAndPan="magnify"><defs/><g><path d="M19.5,7 L604.5,7 A12.5,12.5 0 0 1 617,19.5 L617,34.6094 L7,34.6094 L7,19.5 A12.5,12.5 0 0 1 19.5,7 " fill="#F1F1F1" style="stroke:#F1F1F1;stroke-width:1.0;"/><rect fill="none" height="520.6094" rx="12.5" ry="12.5" style="stroke:#181818;stroke-width:0.5;" width="610" x="7" y="7"/><line style="stroke:#181818;stroke-width:0.5;" x1="7" x2="617" y1="34.6094" y2="34.6094"/><text fill="#000000" font-family="sans-serif" font-size="14" lengthAdjust="spacing" textLength="115" x="254.5" y="26.5332">eliminarProyecto()</text><g id="eliminarProyecto.MostrandoProyecto"><rect fill="#F1F1F1" height="50" rx="12.5" ry="12.5" style="stroke:#181818;stroke-width:0.5;" width="50" x="160" y="153.6094"/><line style="stroke:#181818;stroke-width:0.5;" x1="160" x2="210" y1="181.2188" y2="181.2188"/><text fill="#000000" font-family="sans-serif" font-size="14" lengthAdjust="spacing" textLength="4" x="183" y="173.1426">&#160;</text></g><g id="eliminarProyecto.ConfirmandoEliminacion"><rect fill="#F1F1F1" height="50" rx="12.5" ry="12.5" style="stroke:#181818;stroke-width:0.5;" width="50" x="160" y="308.6094"/><line style="stroke:#181818;stroke-width:0.5;" x1="160" x2="210" y1="336.2188" y2="336.2188"/><text fill="#000000" font-family="sans-serif" font-size="14" lengthAdjust="spacing" textLength="4" x="183" y="328.1426">&#160;</text></g><ellipse cx="185" cy="55.6094" fill="#222222" rx="10" ry="10" style="stroke:#222222;stroke-width:1.0;"/><ellipse cx="185" cy="506.6094" fill="none" rx="11" ry="11" style="stroke:#222222;stroke-width:1.0;"/><ellipse cx="185" cy="506.6094" fill="#222222" rx="6" ry="6" style="stroke:#222222;stroke-width:1.0;"/><!--link *start*eliminarProyecto to MostrandoProyecto--><g id="link_*start*eliminarProyecto_MostrandoProyecto"><path d="M185,65.6994 C185,84.1694 185,120.5894 185,147.5794 " fill="none" id="*start*eliminarProyecto-to-MostrandoProyecto" style="stroke:#008000;stroke-width:1.0;"/><polygon fill="#008000" points="185,153.5794,189,144.5794,185,148.5794,181,144.5794,185,153.5794" style="stroke:#008000;stroke-width:1.0;"/><path d="M190,88.6094 L190,130.6094 L438,130.6094 L438,98.6094 L428,88.6094 L190,88.6094 " fill="#FEFFDD" style="stroke:#181818;stroke-width:0.5;"/><path d="M428,88.6094 L428,98.6094 L438,98.6094 L428,88.6094 " fill="#FEFFDD" style="stroke:#181818;stroke-width:0.5;"/><text fill="#000000" font-family="sans-serif" font-size="13" font-weight="bold" lengthAdjust="spacing" textLength="79" x="196" y="107.1045">Coordinador</text><text fill="#000000" font-family="sans-serif" font-size="13" lengthAdjust="spacing" textLength="143" x="279" y="107.1045">tiene un proyecto abierto</text><text fill="#000000" font-family="sans-serif" font-size="13" font-weight="bold" lengthAdjust="spacing" textLength="79" x="196" y="123.4561">Coordinador</text><text fill="#000000" font-family="sans-serif" font-size="13" lengthAdjust="spacing" textLength="144" x="279" y="123.4561">solicita eliminar proyecto</text></g><!--link MostrandoProyecto to ConfirmandoEliminacion--><g id="link_MostrandoProyecto_ConfirmandoEliminacion"><path d="M160,185.8994 C113.41,197.6094 18,221.6094 18,221.6094 C18,221.6094 18,290.6094 18,290.6094 C18,290.6094 107.591,313.1468 154.181,324.8568 " fill="none" id="MostrandoProyecto-to-ConfirmandoEliminacion" style="stroke:#008000;stroke-width:1.0;"/><polygon fill="#008000" points="160,326.3194,152.2465,320.2462,155.1508,325.1006,150.2964,328.0049,160,326.3194" style="stroke:#008000;stroke-width:1.0;"/><path d="M23,226.6094 L23,285.6094 L327,285.6094 L327,236.6094 L317,226.6094 L23,226.6094 " fill="#FEFFDD" style="stroke:#181818;stroke-width:0.5;"/><path d="M317,226.6094 L317,236.6094 L327,236.6094 L317,226.6094 " fill="#FEFFDD" style="stroke:#181818;stroke-width:0.5;"/><text fill="#000000" font-family="sans-serif" font-size="13" font-weight="bold" lengthAdjust="spacing" textLength="51" x="29" y="245.1045">Sistema</text><text fill="#000000" font-family="sans-serif" font-size="13" lengthAdjust="spacing" textLength="118" x="84" y="245.1045">solicita confirmaci&#243;n</text><text fill="#000000" font-family="sans-serif" font-size="13" lengthAdjust="spacing" textLength="229" x="29" y="261.4561">&#8226; &#191;Est&#225; seguro de eliminar el proyecto?</text><text fill="#000000" font-family="sans-serif" font-size="13" lengthAdjust="spacing" textLength="283" x="29" y="277.8076">&#8226; Advertencia: esta acci&#243;n no se puede deshacer</text></g><!--link ConfirmandoEliminacion to *end*eliminarProyecto--><g id="link_ConfirmandoEliminacion_*end*eliminarProyecto"><path d="M185,358.7494 C185,396.6794 185,462.6594 185,489.3294 " fill="none" id="ConfirmandoEliminacion-to-*end*eliminarProyecto" style="stroke:#008000;stroke-width:1.0;"/><polygon fill="#008000" points="185,495.3294,189,486.3294,185,490.3294,181,486.3294,185,495.3294" style="stroke:#008000;stroke-width:1.0;"/><path d="M190,381.6094 L190,472.6094 L442,472.6094 L442,391.6094 L432,381.6094 L190,381.6094 " fill="#FEFFDD" style="stroke:#181818;stroke-width:0.5;"/><path d="M432,381.6094 L432,391.6094 L442,391.6094 L432,381.6094 " fill="#FEFFDD" style="stroke:#181818;stroke-width:0.5;"/><text fill="#000000" font-family="sans-serif" font-size="13" font-weight="bold" lengthAdjust="spacing" textLength="79" x="196" y="400.1045">Coordinador</text><text fill="#000000" font-family="sans-serif" font-size="13" lengthAdjust="spacing" textLength="118" x="279" y="400.1045">confirma eliminaci&#243;n</text><text fill="#000000" font-family="sans-serif" font-size="13" font-weight="bold" lengthAdjust="spacing" textLength="51" x="196" y="416.4561">Sistema</text><text fill="#000000" font-family="sans-serif" font-size="13" lengthAdjust="spacing" textLength="109" x="251" y="416.4561">elimina el proyecto</text><text fill="#000000" font-family="sans-serif" font-size="13" lengthAdjust="spacing" textLength="186" x="196" y="432.8076">&#8226; Elimina entregables asociados</text><text fill="#000000" font-family="sans-serif" font-size="13" lengthAdjust="spacing" textLength="231" x="196" y="449.1592">&#8226; Quita asociaciones con investigadores</text><text fill="#000000" font-family="sans-serif" font-size="13" lengthAdjust="spacing" textLength="218" x="196" y="465.5107">&#8226; Actualiza vista general de proyectos</text></g><!--link ConfirmandoEliminacion to MostrandoProyecto--><g id="link_ConfirmandoEliminacion_MostrandoProyecto"><path d="M210.27,325.3894 C252.3,313.3794 332,290.6094 332,290.6094 C332,290.6094 332,221.6094 332,221.6094 C332,221.6094 258.0691,200.4879 216.0391,188.4779 " fill="none" id="ConfirmandoEliminacion-to-MostrandoProyecto" style="stroke:#FF0000;stroke-width:1.0;"/><polygon fill="#FF0000" points="210.27,186.8294,217.8246,193.1482,215.0776,188.2031,220.0226,185.4561,210.27,186.8294" style="stroke:#FF0000;stroke-width:1.0;"/><path d="M337,235.1094 L337,277.1094 L608,277.1094 L608,245.1094 L598,235.1094 L337,235.1094 " fill="#FEFFDD" style="stroke:#181818;stroke-width:0.5;"/><path d="M598,235.1094 L598,245.1094 L608,245.1094 L598,235.1094 " fill="#FEFFDD" style="stroke:#181818;stroke-width:0.5;"/><text fill="#000000" font-family="sans-serif" font-size="13" font-weight="bold" lengthAdjust="spacing" textLength="79" x="343" y="253.6045">Coordinador</text><text fill="#000000" font-family="sans-serif" font-size="13" lengthAdjust="spacing" textLength="114" x="426" y="253.6045">cancela eliminaci&#243;n</text><text fill="#000000" font-family="sans-serif" font-size="13" font-weight="bold" lengthAdjust="spacing" textLength="51" x="343" y="269.9561">Sistema</text><text fill="#000000" font-family="sans-serif" font-size="13" lengthAdjust="spacing" textLength="195" x="398" y="269.9561">mantiene el proyecto sin cambios</text></g><g id="PROYECTOS_ABIERTOS"><rect fill="#F1F1F1" height="50" rx="12.5" ry="12.5" style="stroke:#181818;stroke-width:0.5;" width="184" x="220" y="624"/><line style="stroke:#181818;stroke-width:0.5;" x1="220" x2="404" y1="651.6094" y2="651.6094"/><text fill="#000000" font-family="sans-serif" font-size="14" lengthAdjust="spacing" textLength="164" x="230" y="643.5332">PROYECTOS_ABIERTOS</text></g><!--link eliminarProyecto to PROYECTOS_ABIERTOS--><g id="link_eliminarProyecto_PROYECTOS_ABIERTOS"><path d="M312,528.18 C312,567.46 312,596.09 312,617.89 " fill="none" id="eliminarProyecto-to-PROYECTOS_ABIERTOS" style="stroke:#008000;stroke-width:1.0;"/><polygon fill="#008000" points="312,623.89,316,614.89,312,618.89,308,614.89,312,623.89" style="stroke:#008000;stroke-width:1.0;"/><path d="M317,563 L317,589 L430,589 L430,573 L420,563 L317,563 " fill="#FEFFDD" style="stroke:#181818;stroke-width:0.5;"/><path d="M420,563 L420,573 L430,573 L420,563 " fill="#FEFFDD" style="stroke:#181818;stroke-width:0.5;"/><text fill="#000000" font-family="sans-serif" font-size="13" lengthAdjust="spacing" textLength="92" x="323" y="581.4951">abrirProyectos()</text></g><!--SRC=[fLDBQjn04Dth5CLuOmTCzi5Cc0nQP17isDu4OqAfkwmKbgf5TsjW70AvIdA5720GtoGdIMaqwldZ64kRLlUhL- -zQeLxbWOzrb2nK9mt18shvjr7beM8aO0ghbdGNtWt9nCTO83HzkRnoGY-PXdeqrUDz5NW1nUYHx5k0Ev2faxksDSTAEzP3JlfkMvUtSBfpL7fYUJsT7o0JfooEUait2yspehnr3blbSiwV_Qw64Da4e9Me4as2YQ_PDXJ45p5XYCc_wboKK5Y5trxdJkwDbGVS7X8-XM7I3LkgZ1B3iEFl_hIlzz_mf_VUOYFFo1GsNe7TZKjNIJ1RnD-OcVgcSGmlW7ICG2Q1QCAKH9eMb8EI-4B6l9xZEwtik5MP_RVKnbS3R9NxhPoM9wlkqgcyk5CegSIYug2tYkd7gqB2VMnxMBizplD2jBkm3BJ7BZi9D4AFJ6nnOeV46RSnLJgxV5OTGaF_SEpul5aNtQ13OgXwkcaj7b_rzUYWi2Y17N1swg_PTdE_xq-p8lByq_vzFhywlFatVlyKXVPXbWiFAVAS7oI9UP_]--></g></svg>