<?xml version="1.0" encoding="us-ascii" standalone="no"?><svg xmlns="http://www.w3.org/2000/svg" xmlns:xlink="http://www.w3.org/1999/xlink" contentStyleType="text/css" height="942px" preserveAspectRatio="none" style="width:667px;height:942px;background:#FFFFFF;" version="1.1" viewBox="0 0 667 942" width="667px" zoomAndPan="magnify"><defs/><g><path d="M19.5,7 L641.1127,7 A12.5,12.5 0 0 1 653.6127,19.5 L653.6127,34.6094 L7,34.6094 L7,19.5 A12.5,12.5 0 0 1 19.5,7 " fill="#F1F1F1" style="stroke:#F1F1F1;stroke-width:1.0;"/><rect fill="none" height="782.6094" rx="12.5" ry="12.5" style="stroke:#181818;stroke-width:0.5;" width="646.6127" x="7" y="7"/><line style="stroke:#181818;stroke-width:0.5;" x1="7" x2="653.6127" y1="34.6094" y2="34.6094"/><text fill="#000000" font-family="sans-serif" font-size="14" lengthAdjust="spacing" textLength="136" x="262.3063" y="26.5332">eliminarInvestigador()</text><g id="eliminarInvestigador.MostrandoProyecto"><rect fill="#F1F1F1" height="50" rx="12.5" ry="12.5" style="stroke:#181818;stroke-width:0.5;" width="50" x="178.6127" y="153.6094"/><line style="stroke:#181818;stroke-width:0.5;" x1="178.6127" x2="228.6127" y1="181.2188" y2="181.2188"/><text fill="#000000" font-family="sans-serif" font-size="14" lengthAdjust="spacing" textLength="4" x="201.6127" y="173.1426">&#160;</text></g><g id="eliminarInvestigador.SeleccionandoInvestigador"><rect fill="#F1F1F1" height="50" rx="12.5" ry="12.5" style="stroke:#181818;stroke-width:0.5;" width="50" x="23.6127" y="292.6094"/><line style="stroke:#181818;stroke-width:0.5;" x1="23.6127" x2="73.6127" y1="320.2188" y2="320.2188"/><text fill="#000000" font-family="sans-serif" font-size="14" lengthAdjust="spacing" textLength="4" x="46.6127" y="312.1426">&#160;</text></g><g id="eliminarInvestigador.ConfirmandoEliminacion"><rect fill="#F1F1F1" height="50" rx="12.5" ry="12.5" style="stroke:#181818;stroke-width:0.5;" width="50" x="202.6127" y="448.6094"/><line style="stroke:#181818;stroke-width:0.5;" x1="202.6127" x2="252.6127" y1="476.2188" y2="476.2188"/><text fill="#000000" font-family="sans-serif" font-size="14" lengthAdjust="spacing" textLength="4" x="225.6127" y="468.1426">&#160;</text></g><g id="eliminarInvestigador.ValidandoEliminacion"><rect fill="#F1F1F1" height="50" rx="12.5" ry="12.5" style="stroke:#181818;stroke-width:0.5;" width="50" x="202.6127" y="586.6094"/><line style="stroke:#181818;stroke-width:0.5;" x1="202.6127" x2="252.6127" y1="614.2188" y2="614.2188"/><text fill="#000000" font-family="sans-serif" font-size="14" lengthAdjust="spacing" textLength="4" x="225.6127" y="606.1426">&#160;</text></g><ellipse cx="203.6127" cy="55.6094" fill="#222222" rx="10" ry="10" style="stroke:#222222;stroke-width:1.0;"/><ellipse cx="227.6127" cy="768.6094" fill="none" rx="11" ry="11" style="stroke:#222222;stroke-width:1.0;"/><ellipse cx="227.6127" cy="768.6094" fill="#222222" rx="6" ry="6" style="stroke:#222222;stroke-width:1.0;"/><!--link *start*eliminarInvestigador to MostrandoProyecto--><g id="link_*start*eliminarInvestigador_MostrandoProyecto"><path d="M203.6127,65.6994 C203.6127,84.1694 203.6127,120.5894 203.6127,147.5794 " fill="none" id="*start*eliminarInvestigador-to-MostrandoProyecto" style="stroke:#008000;stroke-width:1.0;"/><polygon fill="#008000" points="203.6127,153.5794,207.6127,144.5794,203.6127,148.5794,199.6127,144.5794,203.6127,153.5794" style="stroke:#008000;stroke-width:1.0;"/><path d="M208.6127,88.6094 L208.6127,130.6094 L549.6127,130.6094 L549.6127,98.6094 L539.6127,88.6094 L208.6127,88.6094 " fill="#FEFFDD" style="stroke:#181818;stroke-width:0.5;"/><path d="M539.6127,88.6094 L539.6127,98.6094 L549.6127,98.6094 L539.6127,88.6094 " fill="#FEFFDD" style="stroke:#181818;stroke-width:0.5;"/><text fill="#000000" font-family="sans-serif" font-size="13" font-weight="bold" lengthAdjust="spacing" textLength="79" x="214.6127" y="107.1045">Coordinador</text><text fill="#000000" font-family="sans-serif" font-size="13" lengthAdjust="spacing" textLength="143" x="297.6127" y="107.1045">tiene un proyecto abierto</text><text fill="#000000" font-family="sans-serif" font-size="13" font-weight="bold" lengthAdjust="spacing" textLength="79" x="214.6127" y="123.4561">Coordinador</text><text fill="#000000" font-family="sans-serif" font-size="13" lengthAdjust="spacing" textLength="237" x="297.6127" y="123.4561">solicita eliminar investigador del proyecto</text></g><!--link MostrandoProyecto to SeleccionandoInvestigador--><g id="link_MostrandoProyecto_SeleccionandoInvestigador"><path d="M178.4827,185.5394 C129.4227,197.1194 25.6127,221.6094 25.6127,221.6094 C25.6127,221.6094 25.6127,273.6094 25.6127,273.6094 C25.6127,273.6094 27.6722,277.459 32.9422,287.309 " fill="none" id="MostrandoProyecto-to-SeleccionandoInvestigador" style="stroke:#008000;stroke-width:1.0;"/><polygon fill="#008000" points="35.7727,292.5994,35.0539,282.7768,33.4139,288.1907,28,286.5508,35.7727,292.5994" style="stroke:#008000;stroke-width:1.0;"/><path d="M30.6127,226.6094 L30.6127,268.6094 L363.6127,268.6094 L363.6127,236.6094 L353.6127,226.6094 L30.6127,226.6094 " fill="#FEFFDD" style="stroke:#181818;stroke-width:0.5;"/><path d="M353.6127,226.6094 L353.6127,236.6094 L363.6127,236.6094 L353.6127,226.6094 " fill="#FEFFDD" style="stroke:#181818;stroke-width:0.5;"/><text fill="#000000" font-family="sans-serif" font-size="13" font-weight="bold" lengthAdjust="spacing" textLength="51" x="36.6127" y="245.1045">Sistema</text><text fill="#000000" font-family="sans-serif" font-size="13" lengthAdjust="spacing" textLength="257" x="91.6127" y="245.1045">presenta lista de investigadores del proyecto</text><text fill="#000000" font-family="sans-serif" font-size="13" lengthAdjust="spacing" textLength="256" x="36.6127" y="261.4561">&#8226; Permite seleccionar investigador a eliminar</text></g><!--link SeleccionandoInvestigador to ConfirmandoEliminacion--><g id="link_SeleccionandoInvestigador_ConfirmandoEliminacion"><path d="M63.8427,342.6394 C84.7027,375.5494 119.6127,430.6094 119.6127,430.6094 C119.6127,430.6094 165.0709,448.284 196.9709,460.694 " fill="none" id="SeleccionandoInvestigador-to-ConfirmandoEliminacion" style="stroke:#008000;stroke-width:1.0;"/><polygon fill="#008000" points="202.5627,462.8694,195.6253,455.8785,197.9029,461.0566,192.7248,463.3342,202.5627,462.8694" style="stroke:#008000;stroke-width:1.0;"/><path d="M124.6127,366.6094 L124.6127,425.6094 L363.6127,425.6094 L363.6127,376.6094 L353.6127,366.6094 L124.6127,366.6094 " fill="#FEFFDD" style="stroke:#181818;stroke-width:0.5;"/><path d="M353.6127,366.6094 L353.6127,376.6094 L363.6127,376.6094 L353.6127,366.6094 " fill="#FEFFDD" style="stroke:#181818;stroke-width:0.5;"/><text fill="#000000" font-family="sans-serif" font-size="13" font-weight="bold" lengthAdjust="spacing" textLength="51" x="130.6127" y="385.1045">Sistema</text><text fill="#000000" font-family="sans-serif" font-size="13" lengthAdjust="spacing" textLength="118" x="185.6127" y="385.1045">solicita confirmaci&#243;n</text><text fill="#000000" font-family="sans-serif" font-size="13" lengthAdjust="spacing" textLength="218" x="130.6127" y="401.4561">&#8226; &#191;Eliminar investigador del proyecto?</text><text fill="#000000" font-family="sans-serif" font-size="13" lengthAdjust="spacing" textLength="203" x="130.6127" y="417.8076">&#8226; Se actualizar&#225; la carga de trabajo</text></g><!--link ConfirmandoEliminacion to MostrandoProyecto--><g id="link_ConfirmandoEliminacion_MostrandoProyecto"><path d="M252.8227,465.0994 C293.3727,453.0194 368.6127,430.6094 368.6127,430.6094 C368.6127,430.6094 368.6127,221.6094 368.6127,221.6094 C368.6127,221.6094 280.6473,199.2195 234.4873,187.4695 " fill="none" id="ConfirmandoEliminacion-to-MostrandoProyecto" style="stroke:#FF0000;stroke-width:1.0;"/><polygon fill="#FF0000" points="228.6727,185.9894,236.4078,192.0859,233.5182,187.2228,238.3813,184.3331,228.6727,185.9894" style="stroke:#FF0000;stroke-width:1.0;"/><path d="M373.6127,296.6094 L373.6127,338.6094 L644.6127,338.6094 L644.6127,306.6094 L634.6127,296.6094 L373.6127,296.6094 " fill="#FEFFDD" style="stroke:#181818;stroke-width:0.5;"/><path d="M634.6127,296.6094 L634.6127,306.6094 L644.6127,306.6094 L634.6127,296.6094 " fill="#FEFFDD" style="stroke:#181818;stroke-width:0.5;"/><text fill="#000000" font-family="sans-serif" font-size="13" font-weight="bold" lengthAdjust="spacing" textLength="79" x="379.6127" y="315.1045">Coordinador</text><text fill="#000000" font-family="sans-serif" font-size="13" lengthAdjust="spacing" textLength="128" x="462.6127" y="315.1045">cancela la eliminaci&#243;n</text><text fill="#000000" font-family="sans-serif" font-size="13" font-weight="bold" lengthAdjust="spacing" textLength="51" x="379.6127" y="331.4561">Sistema</text><text fill="#000000" font-family="sans-serif" font-size="13" lengthAdjust="spacing" textLength="195" x="434.6127" y="331.4561">mantiene el proyecto sin cambios</text></g><!--link ConfirmandoEliminacion to ValidandoEliminacion--><g id="link_ConfirmandoEliminacion_ValidandoEliminacion"><path d="M227.6127,498.6094 C227.6127,523.3194 227.6127,555.6094 227.6127,580.3894 " fill="none" id="ConfirmandoEliminacion-to-ValidandoEliminacion" style="stroke:#008000;stroke-width:1.0;"/><polygon fill="#008000" points="227.6127,586.3894,231.6127,577.3894,227.6127,581.3894,223.6127,577.3894,227.6127,586.3894" style="stroke:#008000;stroke-width:1.0;"/><path d="M232.6127,521.6094 L232.6127,563.6094 L454.6127,563.6094 L454.6127,531.6094 L444.6127,521.6094 L232.6127,521.6094 " fill="#FEFFDD" style="stroke:#181818;stroke-width:0.5;"/><path d="M444.6127,521.6094 L444.6127,531.6094 L454.6127,531.6094 L444.6127,521.6094 " fill="#FEFFDD" style="stroke:#181818;stroke-width:0.5;"/><text fill="#000000" font-family="sans-serif" font-size="13" font-weight="bold" lengthAdjust="spacing" textLength="79" x="238.6127" y="540.1045">Coordinador</text><text fill="#000000" font-family="sans-serif" font-size="13" lengthAdjust="spacing" textLength="118" x="321.6127" y="540.1045">confirma eliminaci&#243;n</text><text fill="#000000" font-family="sans-serif" font-size="13" font-weight="bold" lengthAdjust="spacing" textLength="51" x="238.6127" y="556.4561">Sistema</text><text fill="#000000" font-family="sans-serif" font-size="13" lengthAdjust="spacing" textLength="106" x="293.6127" y="556.4561">valida la operaci&#243;n</text></g><!--link ValidandoEliminacion to *end*eliminarInvestigador--><g id="link_ValidandoEliminacion_*end*eliminarInvestigador"><path d="M227.6127,636.8294 C227.6127,671.3994 227.6127,727.3794 227.6127,751.5594 " fill="none" id="ValidandoEliminacion-to-*end*eliminarInvestigador" style="stroke:#008000;stroke-width:1.0;"/><polygon fill="#008000" points="227.6127,757.5594,231.6127,748.5594,227.6127,752.5594,223.6127,748.5594,227.6127,757.5594" style="stroke:#008000;stroke-width:1.0;"/><path d="M232.6127,659.6094 L232.6127,734.6094 L523.6127,734.6094 L523.6127,669.6094 L513.6127,659.6094 L232.6127,659.6094 " fill="#FEFFDD" style="stroke:#181818;stroke-width:0.5;"/><path d="M513.6127,659.6094 L513.6127,669.6094 L523.6127,669.6094 L513.6127,659.6094 " fill="#FEFFDD" style="stroke:#181818;stroke-width:0.5;"/><text fill="#000000" font-family="sans-serif" font-size="13" lengthAdjust="spacing" textLength="103" x="238.6127" y="678.1045">Eliminaci&#243;n v&#225;lida</text><text fill="#000000" font-family="sans-serif" font-size="13" font-weight="bold" lengthAdjust="spacing" textLength="51" x="238.6127" y="694.4561">Sistema</text><text fill="#000000" font-family="sans-serif" font-size="13" lengthAdjust="spacing" textLength="202" x="293.6127" y="694.4561">elimina al investigador del proyecto</text><text fill="#000000" font-family="sans-serif" font-size="13" lengthAdjust="spacing" textLength="270" x="238.6127" y="710.8076">&#8226; Actualiza lista de investigadores del proyecto</text><text fill="#000000" font-family="sans-serif" font-size="13" lengthAdjust="spacing" textLength="253" x="238.6127" y="727.1592">&#8226; Actualiza carga de trabajo del investigador</text></g><g id="PROYECTO_ABIERTO"><rect fill="#F1F1F1" height="50" rx="12.5" ry="12.5" style="stroke:#181818;stroke-width:0.5;" width="166" x="247.5" y="886"/><line style="stroke:#181818;stroke-width:0.5;" x1="247.5" x2="413.5" y1="913.6094" y2="913.6094"/><text fill="#000000" font-family="sans-serif" font-size="14" lengthAdjust="spacing" textLength="146" x="257.5" y="905.5332">PROYECTO_ABIERTO</text></g><!--link eliminarInvestigador to PROYECTO_ABIERTO--><g id="link_eliminarInvestigador_PROYECTO_ABIERTO"><path d="M330.5,790.31 C330.5,830.59 330.5,858.53 330.5,879.86 " fill="none" id="eliminarInvestigador-to-PROYECTO_ABIERTO" style="stroke:#008000;stroke-width:1.0;"/><polygon fill="#008000" points="330.5,885.86,334.5,876.86,330.5,880.86,326.5,876.86,330.5,885.86" style="stroke:#008000;stroke-width:1.0;"/><path d="M335.5,825 L335.5,851 L615.5,851 L615.5,835 L605.5,825 L335.5,825 " fill="#FEFFDD" style="stroke:#181818;stroke-width:0.5;"/><path d="M605.5,825 L605.5,835 L615.5,835 L605.5,825 " fill="#FEFFDD" style="stroke:#181818;stroke-width:0.5;"/><text fill="#000000" font-family="sans-serif" font-size="13" lengthAdjust="spacing" textLength="259" x="341.5" y="843.4951">proyecto actualizado (investigador eliminado)</text></g><!--SRC=[fPHTQXin58NVPnKNzoKfX6mWkAHc7l9GRE9GA26KEwCRSnkDD4YAmIs5RYNTGXTGg7VIbLGQJ-JvKUA4sayU7nrzv-Xgx1sh6WrM85cHszG4jPQRy2FBh4D7G98hLcWkr9giunKARG0jJ59_71rFu5kMWV_iLa_yrui_QEiCAg4NHc-eT7eiMPAaicIjWgphEPREjBfbKmLXleC8wyQwZoXP35MDxFhj3PnSlraP8dLpCds2JsdlfLNevgvvS5PCPreRuRqysDbfCGN7f0Zk5TJjIi22oRGEYGLMIoxPOImMkDki81cj6WjIeW7PWOz0Up6Uxp0LPydMKOKDMMt8al9aqZz4Jz8Z8pjc-_lZ9op8LEoDRTnxa6YVD97dIU9UhcSE_52eM7VPUfIy_QKY_P_V-S5ZU1VLIm8itRqVgwzejWyWlIsQLTELFvO2lwJEB4qV0XeI_pTz9QgIF8MC9U_Z3Ohm- -zcjPCCB2llKHMixQl0uyaahzYBwLl_W-phPfUGKjTaEhe-RmgcH-klVHekxm30UliGV58WBIYWF71hmxISFuxAwoxKVjbmjXez3wzrxE1xbYLVrjq65fVpJ_diQlxv_Fr5VdarptfLxDzXZmn2mr4lQRk3qCTPtFWV]--></g></svg>