<?xml version="1.0" encoding="us-ascii" standalone="no"?><svg xmlns="http://www.w3.org/2000/svg" xmlns:xlink="http://www.w3.org/1999/xlink" contentStyleType="text/css" height="1060px" preserveAspectRatio="none" style="width:632px;height:1060px;background:#FFFFFF;" version="1.1" viewBox="0 0 632 1060" width="632px" zoomAndPan="magnify"><defs/><g><text fill="#000000" font-family="sans-serif" font-size="14" font-weight="bold" lengthAdjust="spacing" textLength="312" x="153.25" y="24.5332">Diagrama de estados - Investigador/Docente</text><ellipse cx="309.5" cy="54.6094" fill="#222222" rx="10" ry="10" style="stroke:#222222;stroke-width:1.0;"/><g id="SinProyecto"><rect fill="#F1F1F1" height="50" rx="12.5" ry="12.5" style="stroke:#181818;stroke-width:0.5;" width="96" x="261.5" y="125.6094"/><line style="stroke:#181818;stroke-width:0.5;" x1="261.5" x2="357.5" y1="153.2188" y2="153.2188"/><text fill="#000000" font-family="sans-serif" font-size="14" lengthAdjust="spacing" textLength="76" x="271.5" y="145.1426">SinProyecto</text></g><g id="AnalizandoConvocatoria"><rect fill="#F1F1F1" height="50" rx="12.5" ry="12.5" style="stroke:#181818;stroke-width:0.5;" width="173" x="72" y="253.6094"/><line style="stroke:#181818;stroke-width:0.5;" x1="72" x2="245" y1="281.2188" y2="281.2188"/><text fill="#000000" font-family="sans-serif" font-size="14" lengthAdjust="spacing" textLength="153" x="82" y="273.1426">AnalizandoConvocatoria</text></g><g id="PreparandoPropuesta"><rect fill="#F1F1F1" height="50" rx="12.5" ry="12.5" style="stroke:#181818;stroke-width:0.5;" width="160" x="78.5" y="381.6094"/><line style="stroke:#181818;stroke-width:0.5;" x1="78.5" x2="238.5" y1="409.2188" y2="409.2188"/><text fill="#000000" font-family="sans-serif" font-size="14" lengthAdjust="spacing" textLength="140" x="88.5" y="401.1426">PreparandoPropuesta</text></g><g id="PropuestaEnviada"><rect fill="#F1F1F1" height="50" rx="12.5" ry="12.5" style="stroke:#181818;stroke-width:0.5;" width="136" x="90.5" y="509.6094"/><line style="stroke:#181818;stroke-width:0.5;" x1="90.5" x2="226.5" y1="537.2188" y2="537.2188"/><text fill="#000000" font-family="sans-serif" font-size="14" lengthAdjust="spacing" textLength="116" x="100.5" y="529.1426">PropuestaEnviada</text></g><g id="PropuestaAceptada"><rect fill="#F1F1F1" height="50" rx="12.5" ry="12.5" style="stroke:#181818;stroke-width:0.5;" width="145" x="7" y="637.6094"/><line style="stroke:#181818;stroke-width:0.5;" x1="7" x2="152" y1="665.2188" y2="665.2188"/><text fill="#000000" font-family="sans-serif" font-size="14" lengthAdjust="spacing" textLength="125" x="17" y="657.1426">PropuestaAceptada</text></g><g id="PropuestaRechazada"><rect fill="#F1F1F1" height="50" rx="12.5" ry="12.5" style="stroke:#181818;stroke-width:0.5;" width="156" x="218.5" y="637.6094"/><line style="stroke:#181818;stroke-width:0.5;" x1="218.5" x2="374.5" y1="665.2188" y2="665.2188"/><text fill="#000000" font-family="sans-serif" font-size="14" lengthAdjust="spacing" textLength="136" x="228.5" y="657.1426">PropuestaRechazada</text></g><g id="ProyectoEnCurso"><rect fill="#F1F1F1" height="50" rx="12.5" ry="12.5" style="stroke:#181818;stroke-width:0.5;" width="131" x="50" y="748.6094"/><line style="stroke:#181818;stroke-width:0.5;" x1="50" x2="181" y1="776.2188" y2="776.2188"/><text fill="#000000" font-family="sans-serif" font-size="14" lengthAdjust="spacing" textLength="111" x="60" y="768.1426">ProyectoEnCurso</text></g><g id="RevisandoEntregables"><rect fill="#F1F1F1" height="50" rx="12.5" ry="12.5" style="stroke:#181818;stroke-width:0.5;" width="163" x="211" y="876.6094"/><line style="stroke:#181818;stroke-width:0.5;" x1="211" x2="374" y1="904.2188" y2="904.2188"/><text fill="#000000" font-family="sans-serif" font-size="14" lengthAdjust="spacing" textLength="143" x="221" y="896.1426">RevisandoEntregables</text></g><g id="ProyectoFinalizado"><rect fill="#F1F1F1" height="50" rx="12.5" ry="12.5" style="stroke:#181818;stroke-width:0.5;" width="140" x="306.5" y="1004.6094"/><line style="stroke:#181818;stroke-width:0.5;" x1="306.5" x2="446.5" y1="1032.2188" y2="1032.2188"/><text fill="#000000" font-family="sans-serif" font-size="14" lengthAdjust="spacing" textLength="120" x="316.5" y="1024.1426">ProyectoFinalizado</text></g><!--link *start* to SinProyecto--><g id="link_*start*_SinProyecto"><path d="M309.5,64.6194 C309.5,78.4994 309.5,99.5794 309.5,119.4494 " fill="none" id="*start*-to-SinProyecto" style="stroke:#181818;stroke-width:1.0;"/><polygon fill="#181818" points="309.5,125.4494,313.5,116.4494,309.5,120.4494,305.5,116.4494,309.5,125.4494" style="stroke:#181818;stroke-width:1.0;"/></g><!--link SinProyecto to AnalizandoConvocatoria--><g id="link_SinProyecto_AnalizandoConvocatoria"><path d="M261.43,155.9894 C200.8,162.6194 101.76,177.5194 79.5,205.6094 C65.5,223.2794 77.4359,237.311 99.2559,250.411 " fill="none" id="SinProyecto-to-AnalizandoConvocatoria" style="stroke:#181818;stroke-width:1.0;"/><polygon fill="#181818" points="104.4,253.4994,98.7427,245.4374,100.1132,250.9257,94.6249,252.2963,104.4,253.4994" style="stroke:#181818;stroke-width:1.0;"/><text fill="#000000" font-family="sans-serif" font-size="13" lengthAdjust="spacing" textLength="109" x="80.5" y="220.1045">nueva convocatoria</text></g><!--link AnalizandoConvocatoria to SinProyecto--><g id="link_AnalizandoConvocatoria_SinProyecto"><path d="M180.49,253.4494 C194.24,238.8994 212.68,220.3994 230.5,205.6094 C243.16,195.1094 252.8541,187.9871 266.1041,179.1171 " fill="none" id="AnalizandoConvocatoria-to-SinProyecto" style="stroke:#181818;stroke-width:1.0;"/><polygon fill="#181818" points="271.09,175.7794,261.3859,177.462,266.9351,178.5608,265.8363,184.1099,271.09,175.7794" style="stroke:#181818;stroke-width:1.0;"/><text fill="#000000" font-family="sans-serif" font-size="13" lengthAdjust="spacing" textLength="128" x="231.5" y="220.1045">descarta Convocatoria</text></g><!--link AnalizandoConvocatoria to PreparandoPropuesta--><g id="link_AnalizandoConvocatoria_PreparandoPropuesta"><path d="M158.5,303.8994 C158.5,326.2194 158.5,353.0994 158.5,375.3894 " fill="none" id="AnalizandoConvocatoria-to-PreparandoPropuesta" style="stroke:#181818;stroke-width:1.0;"/><polygon fill="#181818" points="158.5,381.3894,162.5,372.3894,158.5,376.3894,154.5,372.3894,158.5,381.3894" style="stroke:#181818;stroke-width:1.0;"/><text fill="#000000" font-family="sans-serif" font-size="13" lengthAdjust="spacing" textLength="95" x="159.5" y="348.1045">decide participar</text></g><!--link PreparandoPropuesta to PropuestaEnviada--><g id="link_PreparandoPropuesta_PropuestaEnviada"><path d="M158.5,431.8994 C158.5,454.2194 158.5,481.0994 158.5,503.3894 " fill="none" id="PreparandoPropuesta-to-PropuestaEnviada" style="stroke:#181818;stroke-width:1.0;"/><polygon fill="#181818" points="158.5,509.3894,162.5,500.3894,158.5,504.3894,154.5,500.3894,158.5,509.3894" style="stroke:#181818;stroke-width:1.0;"/><text fill="#000000" font-family="sans-serif" font-size="13" lengthAdjust="spacing" textLength="114" x="159.5" y="476.1045">propuesta generada</text></g><!--link PropuestaEnviada to PropuestaAceptada--><g id="link_PropuestaEnviada_PropuestaAceptada"><path d="M101.68,559.8794 C90.01,567.6094 79.24,577.4194 72.5,589.6094 C64.48,604.1194 65.0403,617.0129 68.9703,631.7129 " fill="none" id="PropuestaEnviada-to-PropuestaAceptada" style="stroke:#181818;stroke-width:1.0;"/><polygon fill="#181818" points="70.52,637.5094,72.0598,627.7816,69.2286,632.679,64.3312,629.8478,70.52,637.5094" style="stroke:#181818;stroke-width:1.0;"/><text fill="#000000" font-family="sans-serif" font-size="13" lengthAdjust="spacing" textLength="122" x="73.5" y="604.1045">convocatoria aprueba</text></g><!--link PropuestaEnviada to PropuestaRechazada--><g id="link_PropuestaEnviada_PropuestaRechazada"><path d="M184.42,559.6894 C199.57,573.7194 219.07,591.7194 236.5,607.6094 C247.27,617.4294 254.7272,624.1689 265.0872,633.4789 " fill="none" id="PropuestaEnviada-to-PropuestaRechazada" style="stroke:#181818;stroke-width:1.0;"/><polygon fill="#181818" points="269.55,637.4894,265.5295,628.4985,265.831,634.1473,260.1822,634.4489,269.55,637.4894" style="stroke:#181818;stroke-width:1.0;"/><text fill="#000000" font-family="sans-serif" font-size="13" lengthAdjust="spacing" textLength="122" x="237.5" y="604.1045">convocatoria rechaza</text></g><!--link PropuestaRechazada to SinProyecto--><g id="link_PropuestaRechazada_SinProyecto"><path d="M335.2,637.3594 C345.95,629.0494 356.78,618.9494 364.5,607.6094 C383.34,579.9594 386.5,569.0694 386.5,535.6094 C386.5,277.6094 386.5,277.6094 386.5,277.6094 C386.5,244.1494 381.86,234.2094 364.5,205.6094 C357.83,194.6294 352.7926,188.4086 343.6526,179.7786 " fill="none" id="PropuestaRechazada-to-SinProyecto" style="stroke:#181818;stroke-width:1.0;"/><polygon fill="#181818" points="339.29,175.6594,343.0878,184.7466,342.9255,179.092,348.58,178.9297,339.29,175.6594" style="stroke:#181818;stroke-width:1.0;"/></g><!--link PropuestaAceptada to ProyectoEnCurso--><g id="link_PropuestaAceptada_ProyectoEnCurso"><path d="M87.49,687.7994 C93.46,705.8594 99.6887,724.7419 105.6487,742.7919 " fill="none" id="PropuestaAceptada-to-ProyectoEnCurso" style="stroke:#181818;stroke-width:1.0;"/><polygon fill="#181818" points="107.53,748.4894,108.5064,738.689,105.9623,743.7415,100.9098,741.1974,107.53,748.4894" style="stroke:#181818;stroke-width:1.0;"/></g><!--link ProyectoEnCurso to RevisandoEntregables--><g id="link_ProyectoEnCurso_RevisandoEntregables"><path d="M107.29,798.9194 C103.78,814.0594 102.49,833.1594 112.5,846.6094 C124.87,863.2294 163.4048,875.3393 205.0148,884.6493 " fill="none" id="ProyectoEnCurso-to-RevisandoEntregables" style="stroke:#181818;stroke-width:1.0;"/><polygon fill="#181818" points="210.87,885.9594,202.9605,880.0908,205.9906,884.8676,201.2138,887.8977,210.87,885.9594" style="stroke:#181818;stroke-width:1.0;"/><text fill="#000000" font-family="sans-serif" font-size="13" lengthAdjust="spacing" textLength="135" x="113.5" y="843.1045">entregables preparados</text></g><!--link RevisandoEntregables to ProyectoEnCurso--><g id="link_RevisandoEntregables_ProyectoEnCurso"><path d="M284.38,876.4194 C278.09,860.9294 267.99,841.4094 253.5,828.6094 C233.06,810.5494 211.581,800.0902 186.761,791.8002 " fill="none" id="RevisandoEntregables-to-ProyectoEnCurso" style="stroke:#181818;stroke-width:1.0;"/><polygon fill="#181818" points="181.07,789.8994,188.3392,796.5446,185.8125,791.4834,190.8736,788.9566,181.07,789.8994" style="stroke:#181818;stroke-width:1.0;"/><text fill="#000000" font-family="sans-serif" font-size="13" lengthAdjust="spacing" textLength="102" x="269.5" y="843.1045">necesita cambios</text></g><!--link RevisandoEntregables to ProyectoFinalizado--><g id="link_RevisandoEntregables_ProyectoFinalizado"><path d="M289.53,926.8294 C288.88,941.5794 290.21,960.2794 298.5,974.6094 C305.42,986.5894 311.2822,993.0821 322.6422,1001.0221 " fill="none" id="RevisandoEntregables-to-ProyectoFinalizado" style="stroke:#181818;stroke-width:1.0;"/><polygon fill="#181818" points="327.56,1004.4594,322.4748,996.0249,323.4618,1001.595,317.8917,1002.582,327.56,1004.4594" style="stroke:#181818;stroke-width:1.0;"/><text fill="#000000" font-family="sans-serif" font-size="13" lengthAdjust="spacing" textLength="131" x="299.5" y="971.1045">entregables aceptados</text></g><!--link ProyectoFinalizado to SinProyecto--><g id="link_ProyectoFinalizado_SinProyecto"><path d="M409.11,1004.3694 C418.73,995.8594 428.53,985.6494 435.5,974.6094 C453.36,946.3194 457.5,936.0694 457.5,902.6094 C457.5,277.6094 457.5,277.6094 457.5,277.6094 C457.5,224.1194 406.2472,191.019 363.0272,171.689 " fill="none" id="ProyectoFinalizado-to-SinProyecto" style="stroke:#181818;stroke-width:1.0;"/><polygon fill="#181818" points="357.55,169.2394,364.1326,176.5653,362.1143,171.2807,367.3988,169.2624,357.55,169.2394" style="stroke:#181818;stroke-width:1.0;"/><text fill="#000000" font-family="sans-serif" font-size="13" lengthAdjust="spacing" textLength="166" x="458.5" y="604.1045">listo para nueva convocatoria</text></g><!--SRC=[XLAnQWCn3Dtz5PeBH_SEXP2aq2qaO-cWiyLLSB6DxJjelhxoERHkpcqc8-azlITPYTD8i6CS0fuH3075XCP5wE3LpXBm865ut3bDDf5IRm_lq7NFS69x2EwJT79ALS5It5WS-OBMkAspizEON6249x0JpGYwIge_iBdD8P37a4lItK_PclGmf5cCIYMnPdd-Qr4xozIeXOPGuvHgwHJzQxItCwF9uluRC92b8CbClu7zucuq-LJ8zTo0FapKuntsaVG7NXhqK0gL-WzqzJzhCrUHfRwtsod40giJ2-X8CyUychrDWGRiHuhYXQh8b_N9rIZLX3V4yYsGfiYoIOtddeLyb_l2vQEDkt60PQnie85Tty78KTvikdMHNm00]--></g></svg>