<?xml version="1.0" encoding="us-ascii" standalone="no"?><svg xmlns="http://www.w3.org/2000/svg" xmlns:xlink="http://www.w3.org/1999/xlink" contentStyleType="text/css" height="311px" preserveAspectRatio="none" style="width:569px;height:311px;background:#FFFFFF;" version="1.1" viewBox="0 0 569 311" width="569px" zoomAndPan="magnify"><defs/><g><line style="stroke:#AAAAAA;stroke-width:1.0;" x1="6" x2="562" y1="8.5" y2="8.5"/><line style="stroke:#AAAAAA;stroke-width:1.0;" x1="6" x2="562" y1="10.5" y2="10.5"/><text fill="#000000" font-family="sans-serif" font-size="12" lengthAdjust="spacing" textLength="119" x="6" y="26.457">GIPF - Panel principal</text><line style="stroke:#AAAAAA;stroke-width:1.0;" x1="6" x2="562" y1="33.5938" y2="33.5938"/><line style="stroke:#AAAAAA;stroke-width:1.0;" x1="6" x2="562" y1="35.5938" y2="35.5938"/><text fill="#000000" font-family="sans-serif" font-size="12" lengthAdjust="spacing" textLength="136" x="7" y="67.6445">Bienvenido, Coordinador</text><text fill="#000000" font-family="sans-serif" font-size="12" lengthAdjust="spacing" textLength="114" x="7" y="101.832">Accesos principales:</text><rect fill="#EEEEEE" height="19.0938" rx="5" ry="5" style="stroke:#000000;stroke-width:2.5;" width="76" x="10.5" y="109.9688"/><text fill="#000000" font-family="sans-serif" font-size="12" lengthAdjust="spacing" textLength="54" x="21.5" y="124.4258">Proyectos</text><rect fill="#EEEEEE" height="19.0938" rx="5" ry="5" style="stroke:#000000;stroke-width:2.5;" width="116" x="93.5" y="109.9688"/><text fill="#000000" font-family="sans-serif" font-size="12" lengthAdjust="spacing" textLength="81" x="111" y="124.4258">Investigadores</text><rect fill="#EEEEEE" height="19.0938" rx="5" ry="5" style="stroke:#000000;stroke-width:2.5;" width="108" x="216.5" y="109.9688"/><text fill="#000000" font-family="sans-serif" font-size="12" lengthAdjust="spacing" textLength="79" x="231" y="124.4258">Convocatorias</text><rect fill="#EEEEEE" height="19.0938" rx="5" ry="5" style="stroke:#000000;stroke-width:2.5;" width="92" x="331.5" y="109.9688"/><text fill="#000000" font-family="sans-serif" font-size="12" lengthAdjust="spacing" textLength="82" x="336.5" y="124.4258">Recompensas</text><text fill="#000000" font-family="sans-serif" font-size="12" lengthAdjust="spacing" textLength="81" x="7" y="164.1133">Publicaciones:</text><rect fill="#EEEEEE" height="19.0938" rx="5" ry="5" style="stroke:#000000;stroke-width:2.5;" width="140" x="10.5" y="172.25"/><text fill="#000000" font-family="sans-serif" font-size="12" lengthAdjust="spacing" textLength="99" x="31" y="186.707">Mis publicaciones</text><rect fill="#EEEEEE" height="19.0938" rx="5" ry="5" style="stroke:#000000;stroke-width:2.5;" width="108" x="157.5" y="172.25"/><text fill="#000000" font-family="sans-serif" font-size="12" lengthAdjust="spacing" textLength="78" x="172.5" y="186.707">Publicaciones</text><text fill="#000000" font-family="sans-serif" font-size="12" lengthAdjust="spacing" textLength="44" x="7" y="226.3945">Ajustes:</text><rect fill="#EEEEEE" height="19.0938" rx="5" ry="5" style="stroke:#000000;stroke-width:2.5;" width="148" x="10.5" y="234.5313"/><text fill="#000000" font-family="sans-serif" font-size="12" lengthAdjust="spacing" textLength="100" x="34.5" y="248.9883">Opciones de perfil</text><rect fill="#EEEEEE" height="19.0938" rx="5" ry="5" style="stroke:#000000;stroke-width:2.5;" width="276" x="165.5" y="234.5313"/><text fill="#000000" font-family="sans-serif" font-size="12" lengthAdjust="spacing" textLength="193" x="207" y="248.9883">Carga de trabajo de investigadores</text><rect fill="#EEEEEE" height="19.0938" rx="5" ry="5" style="stroke:#000000;stroke-width:2.5;" width="108" x="448.5" y="234.5313"/><text fill="#000000" font-family="sans-serif" font-size="12" lengthAdjust="spacing" textLength="76" x="464.5" y="248.9883">Cerrar sesi&#243;n</text><line style="stroke:#000000;stroke-width:1.0;" x1="6" x2="561" y1="46.6406" y2="46.6406"/><line style="stroke:#000000;stroke-width:1.0;" x1="6" x2="561" y1="258.125" y2="258.125"/><line style="stroke:#000000;stroke-width:1.0;" x1="6" x2="6" y1="46.6406" y2="71.2813"/><line style="stroke:#000000;stroke-width:1.0;" x1="561" x2="561" y1="46.6406" y2="71.2813"/><line style="stroke:#000000;stroke-width:1.0;" x1="6" x2="6" y1="230.0313" y2="258.125"/><line style="stroke:#000000;stroke-width:1.0;" x1="561" x2="561" y1="230.0313" y2="258.125"/><line style="stroke:#000000;stroke-width:1.0;" x1="6" x2="6" y1="195.8438" y2="212.9375"/><line style="stroke:#000000;stroke-width:1.0;" x1="561" x2="561" y1="195.8438" y2="212.9375"/><line style="stroke:#000000;stroke-width:1.0;" x1="6" x2="6" y1="150.6563" y2="167.75"/><line style="stroke:#000000;stroke-width:1.0;" x1="561" x2="561" y1="150.6563" y2="167.75"/><line style="stroke:#000000;stroke-width:1.0;" x1="6" x2="6" y1="105.4688" y2="133.5625"/><line style="stroke:#000000;stroke-width:1.0;" x1="561" x2="561" y1="105.4688" y2="133.5625"/><line style="stroke:#000000;stroke-width:1.0;" x1="6" x2="6" y1="71.2813" y2="88.375"/><line style="stroke:#000000;stroke-width:1.0;" x1="561" x2="561" y1="71.2813" y2="88.375"/><line style="stroke:#000000;stroke-width:1.0;" x1="6" x2="6" y1="212.9375" y2="230.0313"/><line style="stroke:#000000;stroke-width:1.0;" x1="561" x2="561" y1="212.9375" y2="230.0313"/><line style="stroke:#000000;stroke-width:1.0;" x1="6" x2="6" y1="167.75" y2="195.8438"/><line style="stroke:#000000;stroke-width:1.0;" x1="561" x2="561" y1="167.75" y2="195.8438"/><line style="stroke:#000000;stroke-width:1.0;" x1="6" x2="6" y1="133.5625" y2="150.6563"/><line style="stroke:#000000;stroke-width:1.0;" x1="561" x2="561" y1="133.5625" y2="150.6563"/><line style="stroke:#000000;stroke-width:1.0;" x1="6" x2="6" y1="88.375" y2="105.4688"/><line style="stroke:#000000;stroke-width:1.0;" x1="561" x2="561" y1="88.375" y2="105.4688"/><rect fill="#FFFFFF" height="15.0938" style="stroke:#FFFFFF;stroke-width:1.0;" width="88" x="12" y="39.0938"/><text fill="#000000" font-family="sans-serif" font-size="12" lengthAdjust="spacing" textLength="82" x="15" y="51.5508">Panel principal</text><line style="stroke:#AAAAAA;stroke-width:1.0;" x1="6" x2="562" y1="277.7188" y2="277.7188"/><line style="stroke:#AAAAAA;stroke-width:1.0;" x1="6" x2="562" y1="279.7188" y2="279.7188"/><text fill="#000000" font-family="sans-serif" font-size="12" lengthAdjust="spacing" textLength="83" x="6" y="295.6758">Sistema: Activo</text><line style="stroke:#AAAAAA;stroke-width:1.0;" x1="6" x2="562" y1="302.8125" y2="302.8125"/><line style="stroke:#AAAAAA;stroke-width:1.0;" x1="6" x2="562" y1="304.8125" y2="304.8125"/><!--SRC=[VLB1Jjj04BtlLumuWTH48GrLPGa920aYJOH50XVKIkFrn1raxrgpQrSevAlw2VsnhXFX48GofzcPj- -zqSo5yoZUOUu14s69qL0U2nlD9UQTFooq52n8hHI4E0-nIMvkup5qO0E7yWs_ZrdzEle8WADDfuah9bEJuTH-WQ6rahB1r8fg0TqskzIQd7Kx6d9HsrorMHDFiTWNqjwwd_0AJxT1mddE6cRQbeRMr5QZjyAuhToJjaL9neLtIxR-n4TS9Jbhr6pD0GSp3axV8pSYUtyForm-LyuV4BWhjooG4fGaIywtWw5asDIyO8BFjadva_b910KSEVxtrtnqijvVuPo3amAZi0BFjTqrr-g2JDhSZL9nZiO_pAPGaxZW34wx_Lv_qFrwlFXTmPWIE3s3VYyQzABU6Gn72sZQ9-hu9fxMVN2s4asG1YdXfFA1uKHDi4QuhupdWYAu2zkPNFzuAy38r2pM56IycZpETe1lWyuLUvYJ12_mE5FNjCGg7FV8Q1ikB8lWOJ7kV5TJD5c5MU0cfuOsyCfB1AFvVm00]--></g></svg>