<svg xmlns="http://www.w3.org/2000/svg" xmlns:xlink="http://www.w3.org/1999/xlink" contentStyleType="text/css" data-diagram-type="STATE" height="620px" preserveAspectRatio="none" style="width:731px;height:620px;background:#FFFFFF;" version="1.1" viewBox="0 0 731 620" width="731px" zoomAndPan="magnify"><defs/><g><path d="M19.5,7 L705.5,7 A12.5,12.5 0 0 1 718,19.5 L718,33.2969 L7,33.2969 L7,19.5 A12.5,12.5 0 0 1 19.5,7" fill="#F1F1F1"/><rect fill="none" height="462.2969" rx="12.5" ry="12.5" style="stroke:#181818;stroke-width:0.5;" width="711" x="7" y="7"/><line style="stroke:#181818;stroke-width:0.5;" x1="7" x2="718" y1="33.2969" y2="33.2969"/><text fill="#000000" font-family="sans-serif" font-size="14" lengthAdjust="spacing" textLength="146.5215" x="289.2393" y="24.9951">editarCargaTrabajo()</text><g id="editarCargaTrabajo.AbrirCargaDeTrabajo"><rect fill="#F1F1F1" height="50" rx="12.5" ry="12.5" style="stroke:#181818;stroke-width:0.5;" width="50" x="205" y="135.2969"/><line style="stroke:#181818;stroke-width:0.5;" x1="205" x2="255" y1="161.5938" y2="161.5938"/><text fill="#000000" font-family="sans-serif" font-size="14" lengthAdjust="spacing" textLength="4.4502" x="227.7749" y="153.292">&#160;</text></g><g id="editarCargaTrabajo.ValidandoDatos"><rect fill="#F1F1F1" height="50" rx="12.5" ry="12.5" style="stroke:#181818;stroke-width:0.5;" width="50" x="205" y="301.2969"/><line style="stroke:#181818;stroke-width:0.5;" x1="205" x2="255" y1="327.5938" y2="327.5938"/><text fill="#000000" font-family="sans-serif" font-size="14" lengthAdjust="spacing" textLength="4.4502" x="227.7749" y="319.292">&#160;</text></g><ellipse cx="230" cy="54.2969" fill="#222222" rx="10" ry="10" style="stroke:#222222;stroke-width:1;"/><ellipse cx="230" cy="448.2969" fill="none" rx="11" ry="11" style="stroke:#222222;stroke-width:1;"/><ellipse cx="230" cy="448.2969" fill="#222222" rx="6" ry="6" style="stroke:#222222;stroke-width:1;"/><!--link *start*editarCargaTrabajo to AbrirCargaDeTrabajo--><g class="link" data-entity-1=".start.editarCargaTrabajo" data-entity-2="AbrirCargaDeTrabajo" data-source-line="8" data-uid="lnk3" id="link_.start.editarCargaTrabajo_AbrirCargaDeTrabajo"><path d="M230,64.5269 C230,80.2369 230,106.6569 230,129.1669" fill="none" id="*start*editarCargaTrabajo-to-AbrirCargaDeTrabajo" style="stroke:#008000;stroke-width:1;"/><polygon fill="#008000" points="230,135.1669,234,126.1669,230,130.1669,226,126.1669,230,135.1669" style="stroke:#008000;stroke-width:1;"/><path d="M235,87.2969 L235,112.2969 L571,112.2969 L571,97.2969 L561,87.2969 L235,87.2969" fill="#FEFFDD" style="stroke:#181818;stroke-width:0.5;"/><path d="M561,87.2969 L561,97.2969 L571,97.2969 L561,87.2969" fill="#FEFFDD" style="stroke:#181818;stroke-width:0.5;"/><text fill="#000000" font-family="sans-serif" font-size="13" font-weight="bold" lengthAdjust="spacing" textLength="92.5171" x="241" y="104.3638">Investigador</text><text fill="#000000" font-family="sans-serif" font-size="13" lengthAdjust="spacing" textLength="218.8354" x="337.6494" y="104.3638">solicita editar su carga de trabajo</text></g><!--link AbrirCargaDeTrabajo to ValidandoDatos--><g class="link" data-entity-1="AbrirCargaDeTrabajo" data-entity-2="ValidandoDatos" data-source-line="13" data-uid="lnk4" id="link_AbrirCargaDeTrabajo_ValidandoDatos"><path d="M204.85,166.2769 C148.69,177.4069 18,203.2969 18,203.2969 C18,203.2969 18,283.2969 18,283.2969 C18,283.2969 142.8045,308.0205 198.9645,319.1505" fill="none" id="AbrirCargaDeTrabajo-to-ValidandoDatos" style="stroke:#008000;stroke-width:1;"/><polygon fill="#008000" points="204.85,320.3169,196.7993,314.6436,199.9454,319.3449,195.2441,322.4909,204.85,320.3169" style="stroke:#008000;stroke-width:1;"/><path d="M23,223.2969 L23,263.2969 L416,263.2969 L416,233.2969 L406,223.2969 L23,223.2969" fill="#FEFFDD" style="stroke:#181818;stroke-width:0.5;"/><path d="M406,223.2969 L406,233.2969 L416,233.2969 L406,223.2969" fill="#FEFFDD" style="stroke:#181818;stroke-width:0.5;"/><text fill="#000000" font-family="sans-serif" font-size="13" font-weight="bold" lengthAdjust="spacing" textLength="92.5171" x="29" y="240.3638">Investigador</text><text fill="#000000" font-family="sans-serif" font-size="13" lengthAdjust="spacing" textLength="276.1992" x="125.6494" y="240.3638">solicita guardar su nueva carga de trabajo</text><text fill="#000000" font-family="sans-serif" font-size="13" font-weight="bold" lengthAdjust="spacing" textLength="58.9063" x="29" y="255.4966">Sistema</text><text fill="#000000" font-family="sans-serif" font-size="13" lengthAdjust="spacing" textLength="186.3545" x="92.0386" y="255.4966">valida los datos introducidos</text></g><!--link ValidandoDatos to AbrirCargaDeTrabajo--><g class="link" data-entity-1="ValidandoDatos" data-entity-2="AbrirCargaDeTrabajo" data-source-line="19" data-uid="lnk5" id="link_ValidandoDatos_AbrirCargaDeTrabajo"><path d="M255.36,319.7169 C307.32,308.2969 421,283.2969 421,283.2969 C421,283.2969 421,203.2969 421,203.2969 C421,203.2969 313.1801,179.5848 261.2201,168.1648" fill="none" id="ValidandoDatos-to-AbrirCargaDeTrabajo" style="stroke:#FF0000;stroke-width:1;"/><polygon fill="#FF0000" points="255.36,166.8769,263.2916,172.7156,260.2434,167.9502,265.0088,164.9021,255.36,166.8769" style="stroke:#FF0000;stroke-width:1;"/><path d="M426,208.2969 L426,278.2969 L709,278.2969 L709,218.2969 L699,208.2969 L426,208.2969" fill="#FEFFDD" style="stroke:#181818;stroke-width:0.5;"/><path d="M699,208.2969 L699,218.2969 L709,218.2969 L699,208.2969" fill="#FEFFDD" style="stroke:#181818;stroke-width:0.5;"/><text fill="#000000" font-family="sans-serif" font-size="13" lengthAdjust="spacing" textLength="240.0176" x="432" y="225.3638">Datos de carga de trabajo no v&#225;lidos</text><text fill="#000000" font-family="sans-serif" font-size="13" font-weight="bold" lengthAdjust="spacing" textLength="58.9063" x="432" y="240.4966">Sistema</text><text fill="#000000" font-family="sans-serif" font-size="13" lengthAdjust="spacing" textLength="176.7378" x="495.0386" y="240.4966">muestra mensajes de error</text><text fill="#000000" font-family="sans-serif" font-size="13" lengthAdjust="spacing" textLength="262.3677" x="432" y="255.6294">&#8226; Carga de trabajo menor a lo requerido</text><text fill="#000000" font-family="sans-serif" font-size="13" lengthAdjust="spacing" textLength="261.79" x="432" y="270.7622">&#8226; Carga de trabajo mayor a lo requerido</text></g><!--link ValidandoDatos to *end*editarCargaTrabajo--><g class="link" data-entity-1="ValidandoDatos" data-entity-2=".end.editarCargaTrabajo" data-source-line="27" data-uid="lnk7" id="link_ValidandoDatos_.end.editarCargaTrabajo"><path d="M230,351.5769 C230,377.8769 230,412.5669 230,431.2769" fill="none" id="ValidandoDatos-to-*end*editarCargaTrabajo" style="stroke:#008000;stroke-width:1;"/><polygon fill="#008000" points="230,437.2769,234,428.2769,230,432.2769,226,428.2769,230,437.2769" style="stroke:#008000;stroke-width:1;"/><path d="M235,374.2969 L235,414.2969 L573,414.2969 L573,384.2969 L563,374.2969 L235,374.2969" fill="#FEFFDD" style="stroke:#181818;stroke-width:0.5;"/><path d="M563,374.2969 L563,384.2969 L573,384.2969 L563,374.2969" fill="#FEFFDD" style="stroke:#181818;stroke-width:0.5;"/><text fill="#000000" font-family="sans-serif" font-size="13" lengthAdjust="spacing" textLength="152.5342" x="241" y="391.3638">Carga de trabajo v&#225;lido</text><text fill="#000000" font-family="sans-serif" font-size="13" font-weight="bold" lengthAdjust="spacing" textLength="58.9063" x="241" y="406.4966">Sistema</text><text fill="#000000" font-family="sans-serif" font-size="13" lengthAdjust="spacing" textLength="254.7251" x="304.0386" y="406.4966">gurarda la carga de trabajo modificada</text></g><g id="OPCIONES_CARGA_TRABAJO_ABIERTAS"><rect fill="#F1F1F1" height="50" rx="12.5" ry="12.5" style="stroke:#181818;stroke-width:0.5;" width="294.1826" x="71.5" y="564"/><line style="stroke:#181818;stroke-width:0.5;" x1="71.5" x2="365.6826" y1="590.2969" y2="590.2969"/><text fill="#000000" font-family="sans-serif" font-size="14" lengthAdjust="spacing" textLength="274.1826" x="81.5" y="581.9951">OPCIONES_CARGA_TRABAJO_ABIERTAS</text></g><g id="PANEL_PRINCIPAL_ABIERTO"><rect fill="#F1F1F1" height="50" rx="12.5" ry="12.5" style="stroke:#181818;stroke-width:0.5;" width="213.0879" x="401" y="564"/><line style="stroke:#181818;stroke-width:0.5;" x1="401" x2="614.0879" y1="590.2969" y2="590.2969"/><text fill="#000000" font-family="sans-serif" font-size="14" lengthAdjust="spacing" textLength="193.0879" x="411" y="581.9951">PANEL_PRINCIPAL_ABIERTO</text></g><!--link editarCargaTrabajo to OPCIONES_CARGA_TRABAJO_ABIERTAS--><g class="link" data-entity-1="editarCargaTrabajo" data-entity-2="OPCIONES_CARGA_TRABAJO_ABIERTAS" data-source-line="34" data-uid="lnk9" id="link_editarCargaTrabajo_OPCIONES_CARGA_TRABAJO_ABIERTAS"><path d="M267.45,469.36 C251.6,507.77 239.7094,536.6039 230.7394,558.3339" fill="none" id="editarCargaTrabajo-to-OPCIONES_CARGA_TRABAJO_ABIERTAS" style="stroke:#008000;stroke-width:1;"/><polygon fill="#008000" points="228.45,563.88,235.5814,557.0872,230.3578,559.2583,228.1867,554.0347,228.45,563.88" style="stroke:#008000;stroke-width:1;"/><path d="M258.5,504 L258.5,529 L439.5,529 L439.5,514 L429.5,504 L258.5,504" fill="#FEFFDD" style="stroke:#181818;stroke-width:0.5;"/><path d="M429.5,504 L429.5,514 L439.5,514 L429.5,504" fill="#FEFFDD" style="stroke:#181818;stroke-width:0.5;"/><text fill="#000000" font-family="sans-serif" font-size="13" lengthAdjust="spacing" textLength="160.6592" x="264.5" y="521.0669">carga de trabajo editada</text></g><!--link editarCargaTrabajo to PANEL_PRINCIPAL_ABIERTO--><g class="link" data-entity-1="editarCargaTrabajo" data-entity-2="PANEL_PRINCIPAL_ABIERTO" data-source-line="39" data-uid="lnk11" id="link_editarCargaTrabajo_PANEL_PRINCIPAL_ABIERTO"><path d="M458.21,469.36 C474.17,507.77 486.1476,536.6094 495.1776,558.3394" fill="none" id="editarCargaTrabajo-to-PANEL_PRINCIPAL_ABIERTO" style="stroke:#008000;stroke-width:1;"/><polygon fill="#008000" points="497.48,563.88,497.7201,554.0341,495.5613,559.2628,490.3326,557.104,497.48,563.88" style="stroke:#008000;stroke-width:1;"/><path d="M487.5,504 L487.5,529 L639.5,529 L639.5,514 L629.5,504 L487.5,504" fill="#FEFFDD" style="stroke:#181818;stroke-width:0.5;"/><path d="M629.5,504 L629.5,514 L639.5,514 L629.5,504" fill="#FEFFDD" style="stroke:#181818;stroke-width:0.5;"/><text fill="#000000" font-family="sans-serif" font-size="13" lengthAdjust="spacing" textLength="131.9424" x="493.5" y="521.0669">abrirPanelPrincipal()</text></g><!--SRC=[bPDTQkCm58NVlOfB-j8Eb6wW15Gt59UIc2JCIodXnherQcKflP83eGpCLcQsqfrq9IF_aCQnfwNsayMvvtn7ajspCXjaB40hGtwt8TXOlQi-eiXvz0GabKUEaNDSCgxnoG8w6FMNJyz6y1f549vcSXJU81LhLetmcbffN_GJjP9efBr6RrtZSl_Z0SxlJt8cCW_du_yQ6HjyhAagFDSBb-jnOhRalCfHMhwyM8_1MQsoWDps0LT2Lbc19F07PcHaRTWW34Hsa8wmlq-JbyYomJ4bRN4OAbWibFDKO3szhLD1MmUooWLbF5jPPags4DqMNSgg09FyreusWu7g62z8OVlsH- -JZr2BCXHdX8ACmoUgFOZPSYr-__qNucF78BKCLJrWUYc9W_SdQjmDgx_QWlqPXcisNBgNrHOTwfcNN1qawFu9Gc6bUbGPIko2_OgYWP_h46sMnibiEbciOZ6_4QlbN5o9szbAN2MJ-L8ieWvoBxSs3w4VE_55N2gcaxjLEa-cSPAAkpPdret1wiwaQ4Ydh4ocDgXFp_OP_m00]--></g></svg>