<?xml version="1.0" encoding="us-ascii" standalone="no"?><svg xmlns="http://www.w3.org/2000/svg" xmlns:xlink="http://www.w3.org/1999/xlink" contentStyleType="text/css" height="818px" preserveAspectRatio="none" style="width:544px;height:818px;background:#FFFFFF;" version="1.1" viewBox="0 0 544 818" width="544px" zoomAndPan="magnify"><defs/><g><path d="M19.5,7 L518.5,7 A12.5,12.5 0 0 1 531,19.5 L531,34.6094 L7,34.6094 L7,19.5 A12.5,12.5 0 0 1 19.5,7 " fill="#F1F1F1" style="stroke:#F1F1F1;stroke-width:1.0;"/><rect fill="none" height="658.6094" rx="12.5" ry="12.5" style="stroke:#181818;stroke-width:0.5;" width="524" x="7" y="7"/><line style="stroke:#181818;stroke-width:0.5;" x1="7" x2="531" y1="34.6094" y2="34.6094"/><text fill="#000000" font-family="sans-serif" font-size="14" lengthAdjust="spacing" textLength="144" x="197" y="26.5332">modificarInvestigador()</text><g id="modificarInvestigador.MostrandoInvestigador"><rect fill="#F1F1F1" height="50" rx="12.5" ry="12.5" style="stroke:#181818;stroke-width:0.5;" width="50" x="137" y="153.6094"/><line style="stroke:#181818;stroke-width:0.5;" x1="137" x2="187" y1="181.2188" y2="181.2188"/><text fill="#000000" font-family="sans-serif" font-size="14" lengthAdjust="spacing" textLength="4" x="160" y="173.1426">&#160;</text></g><g id="modificarInvestigador.EditandoInvestigador"><rect fill="#F1F1F1" height="50" rx="12.5" ry="12.5" style="stroke:#181818;stroke-width:0.5;" width="50" x="137" y="291.6094"/><line style="stroke:#181818;stroke-width:0.5;" x1="137" x2="187" y1="319.2188" y2="319.2188"/><text fill="#000000" font-family="sans-serif" font-size="14" lengthAdjust="spacing" textLength="4" x="160" y="311.1426">&#160;</text></g><g id="modificarInvestigador.ValidandoCambios"><rect fill="#F1F1F1" height="50" rx="12.5" ry="12.5" style="stroke:#181818;stroke-width:0.5;" width="50" x="137" y="462.6094"/><line style="stroke:#181818;stroke-width:0.5;" x1="137" x2="187" y1="490.2188" y2="490.2188"/><text fill="#000000" font-family="sans-serif" font-size="14" lengthAdjust="spacing" textLength="4" x="160" y="482.1426">&#160;</text></g><ellipse cx="162" cy="55.6094" fill="#222222" rx="10" ry="10" style="stroke:#222222;stroke-width:1.0;"/><ellipse cx="162" cy="644.6094" fill="none" rx="11" ry="11" style="stroke:#222222;stroke-width:1.0;"/><ellipse cx="162" cy="644.6094" fill="#222222" rx="6" ry="6" style="stroke:#222222;stroke-width:1.0;"/><!--link *start*modificarInvestigador to MostrandoInvestigador--><g id="link_*start*modificarInvestigador_MostrandoInvestigador"><path d="M162,65.6994 C162,84.1694 162,120.5894 162,147.5794 " fill="none" id="*start*modificarInvestigador-to-MostrandoInvestigador" style="stroke:#008000;stroke-width:1.0;"/><polygon fill="#008000" points="162,153.5794,166,144.5794,162,148.5794,158,144.5794,162,153.5794" style="stroke:#008000;stroke-width:1.0;"/><path d="M167,88.6094 L167,130.6094 L440,130.6094 L440,98.6094 L430,88.6094 L167,88.6094 " fill="#FEFFDD" style="stroke:#181818;stroke-width:0.5;"/><path d="M430,88.6094 L430,98.6094 L440,98.6094 L430,88.6094 " fill="#FEFFDD" style="stroke:#181818;stroke-width:0.5;"/><text fill="#000000" font-family="sans-serif" font-size="13" font-weight="bold" lengthAdjust="spacing" textLength="79" x="173" y="107.1045">Coordinador</text><text fill="#000000" font-family="sans-serif" font-size="13" lengthAdjust="spacing" textLength="161" x="256" y="107.1045">tiene un investigador abierto</text><text fill="#000000" font-family="sans-serif" font-size="13" font-weight="bold" lengthAdjust="spacing" textLength="79" x="173" y="123.4561">Coordinador</text><text fill="#000000" font-family="sans-serif" font-size="13" lengthAdjust="spacing" textLength="169" x="256" y="123.4561">solicita modificar investigador</text></g><!--link MostrandoInvestigador to EditandoInvestigador--><g id="link_MostrandoInvestigador_EditandoInvestigador"><path d="M162,203.6094 C162,228.3194 162,260.6094 162,285.3894 " fill="none" id="MostrandoInvestigador-to-EditandoInvestigador" style="stroke:#008000;stroke-width:1.0;"/><polygon fill="#008000" points="162,291.3894,166,282.3894,162,286.3894,158,282.3894,162,291.3894" style="stroke:#008000;stroke-width:1.0;"/><path d="M167,226.6094 L167,268.6094 L475,268.6094 L475,236.6094 L465,226.6094 L167,226.6094 " fill="#FEFFDD" style="stroke:#181818;stroke-width:0.5;"/><path d="M465,226.6094 L465,236.6094 L475,236.6094 L465,226.6094 " fill="#FEFFDD" style="stroke:#181818;stroke-width:0.5;"/><text fill="#000000" font-family="sans-serif" font-size="13" font-weight="bold" lengthAdjust="spacing" textLength="51" x="173" y="245.1045">Sistema</text><text fill="#000000" font-family="sans-serif" font-size="13" lengthAdjust="spacing" textLength="232" x="228" y="245.1045">presenta datos actuales del investigador</text><text fill="#000000" font-family="sans-serif" font-size="13" lengthAdjust="spacing" textLength="237" x="173" y="261.4561">&#8226; Permite modificar los campos editables</text></g><!--link EditandoInvestigador to ValidandoCambios--><g id="link_EditandoInvestigador_ValidandoCambios"><path d="M136.92,324.9294 C95.66,336.9594 18,359.6094 18,359.6094 C18,359.6094 18,444.6094 18,444.6094 C18,444.6094 89.8998,465.5799 131.1598,477.6099 " fill="none" id="EditandoInvestigador-to-ValidandoCambios" style="stroke:#008000;stroke-width:1.0;"/><polygon fill="#008000" points="136.92,479.2894,129.3994,472.9301,132.1199,477.8898,127.1601,480.6103,136.92,479.2894" style="stroke:#008000;stroke-width:1.0;"/><path d="M23,381.1094 L23,423.1094 L281,423.1094 L281,391.1094 L271,381.1094 L23,381.1094 " fill="#FEFFDD" style="stroke:#181818;stroke-width:0.5;"/><path d="M271,381.1094 L271,391.1094 L281,391.1094 L271,381.1094 " fill="#FEFFDD" style="stroke:#181818;stroke-width:0.5;"/><text fill="#000000" font-family="sans-serif" font-size="13" font-weight="bold" lengthAdjust="spacing" textLength="79" x="29" y="399.6045">Coordinador</text><text fill="#000000" font-family="sans-serif" font-size="13" lengthAdjust="spacing" textLength="141" x="112" y="399.6045">solicita guardar cambios</text><text fill="#000000" font-family="sans-serif" font-size="13" font-weight="bold" lengthAdjust="spacing" textLength="51" x="29" y="415.9561">Sistema</text><text fill="#000000" font-family="sans-serif" font-size="13" lengthAdjust="spacing" textLength="182" x="84" y="415.9561">valida la informaci&#243;n modificada</text></g><!--link ValidandoCambios to EditandoInvestigador--><g id="link_ValidandoCambios_EditandoInvestigador"><path d="M187.09,478.1094 C223.33,465.8394 286,444.6094 286,444.6094 C286,444.6094 286,359.6094 286,359.6094 C286,359.6094 229.0131,340.3035 192.7731,328.0335 " fill="none" id="ValidandoCambios-to-EditandoInvestigador" style="stroke:#008000;stroke-width:1.0;"/><polygon fill="#008000" points="187.09,326.1094,194.3319,332.7843,191.8259,327.7128,196.8974,325.2069,187.09,326.1094" style="stroke:#008000;stroke-width:1.0;"/><path d="M291,364.6094 L291,439.6094 L522,439.6094 L522,374.6094 L512,364.6094 L291,364.6094 " fill="#FEFFDD" style="stroke:#181818;stroke-width:0.5;"/><path d="M512,364.6094 L512,374.6094 L522,374.6094 L512,364.6094 " fill="#FEFFDD" style="stroke:#181818;stroke-width:0.5;"/><text fill="#000000" font-family="sans-serif" font-size="13" lengthAdjust="spacing" textLength="112" x="297" y="383.1045">Cambios no v&#225;lidos</text><text fill="#000000" font-family="sans-serif" font-size="13" font-weight="bold" lengthAdjust="spacing" textLength="51" x="297" y="399.4561">Sistema</text><text fill="#000000" font-family="sans-serif" font-size="13" lengthAdjust="spacing" textLength="155" x="352" y="399.4561">muestra mensajes de error</text><text fill="#000000" font-family="sans-serif" font-size="13" lengthAdjust="spacing" textLength="167" x="297" y="415.8076">&#8226; Campos obligatorios vac&#237;os</text><text fill="#000000" font-family="sans-serif" font-size="13" lengthAdjust="spacing" textLength="118" x="297" y="432.1592">&#8226; Formato incorrecto</text></g><!--link ValidandoCambios to *end*modificarInvestigador--><g id="link_ValidandoCambios_*end*modificarInvestigador"><path d="M162,512.8294 C162,547.3994 162,603.3794 162,627.5594 " fill="none" id="ValidandoCambios-to-*end*modificarInvestigador" style="stroke:#008000;stroke-width:1.0;"/><polygon fill="#008000" points="162,633.5594,166,624.5594,162,628.5594,158,624.5594,162,633.5594" style="stroke:#008000;stroke-width:1.0;"/><path d="M167,535.6094 L167,610.6094 L400,610.6094 L400,545.6094 L390,535.6094 L167,535.6094 " fill="#FEFFDD" style="stroke:#181818;stroke-width:0.5;"/><path d="M390,535.6094 L390,545.6094 L400,545.6094 L390,535.6094 " fill="#FEFFDD" style="stroke:#181818;stroke-width:0.5;"/><text fill="#000000" font-family="sans-serif" font-size="13" lengthAdjust="spacing" textLength="94" x="173" y="554.1045">Cambios v&#225;lidos</text><text fill="#000000" font-family="sans-serif" font-size="13" font-weight="bold" lengthAdjust="spacing" textLength="51" x="173" y="570.4561">Sistema</text><text fill="#000000" font-family="sans-serif" font-size="13" lengthAdjust="spacing" textLength="138" x="228" y="570.4561">actualiza el investigador</text><text fill="#000000" font-family="sans-serif" font-size="13" lengthAdjust="spacing" textLength="172" x="173" y="586.8076">&#8226; Guarda la nueva informaci&#243;n</text><text fill="#000000" font-family="sans-serif" font-size="13" lengthAdjust="spacing" textLength="212" x="173" y="603.1592">&#8226; Muestra el investigador actualizado</text></g><g id="INVESTIGADOR_ABIERTO"><rect fill="#F1F1F1" height="50" rx="12.5" ry="12.5" style="stroke:#181818;stroke-width:0.5;" width="190" x="55" y="762"/><line style="stroke:#181818;stroke-width:0.5;" x1="55" x2="245" y1="789.6094" y2="789.6094"/><text fill="#000000" font-family="sans-serif" font-size="14" lengthAdjust="spacing" textLength="170" x="65" y="781.5332">INVESTIGADOR_ABIERTO</text></g><g id="INVESTIGADORES_ABIERTOS"><rect fill="#F1F1F1" height="50" rx="12.5" ry="12.5" style="stroke:#181818;stroke-width:0.5;" width="217" x="280.5" y="762"/><line style="stroke:#181818;stroke-width:0.5;" x1="280.5" x2="497.5" y1="789.6094" y2="789.6094"/><text fill="#000000" font-family="sans-serif" font-size="14" lengthAdjust="spacing" textLength="197" x="290.5" y="781.5332">INVESTIGADORES_ABIERTOS</text></g><!--link modificarInvestigador to INVESTIGADOR_ABIERTO--><g id="link_modificarInvestigador_INVESTIGADOR_ABIERTO"><path d="M181.81,666.1 C171.2,706.09 163.6374,734.5803 157.9274,756.1203 " fill="none" id="modificarInvestigador-to-INVESTIGADOR_ABIERTO" style="stroke:#008000;stroke-width:1.0;"/><polygon fill="#008000" points="156.39,761.92,162.5626,754.2454,157.6712,757.0869,154.8297,752.1955,156.39,761.92" style="stroke:#008000;stroke-width:1.0;"/><path d="M178,701 L178,727 L337,727 L337,711 L327,701 L178,701 " fill="#FEFFDD" style="stroke:#181818;stroke-width:0.5;"/><path d="M327,701 L327,711 L337,711 L327,701 " fill="#FEFFDD" style="stroke:#181818;stroke-width:0.5;"/><text fill="#000000" font-family="sans-serif" font-size="13" lengthAdjust="spacing" textLength="138" x="184" y="719.4951">investigador actualizado</text></g><!--link modificarInvestigador to INVESTIGADORES_ABIERTOS--><g id="link_modificarInvestigador_INVESTIGADORES_ABIERTOS"><path d="M356.92,666.1 C367.62,706.09 375.2375,734.5843 381.0075,756.1243 " fill="none" id="modificarInvestigador-to-INVESTIGADORES_ABIERTOS" style="stroke:#008000;stroke-width:1.0;"/><polygon fill="#008000" points="382.56,761.92,384.095,752.1915,381.2662,757.0903,376.3675,754.2615,382.56,761.92" style="stroke:#008000;stroke-width:1.0;"/><path d="M379,701 L379,727 L515,727 L515,711 L505,701 L379,701 " fill="#FEFFDD" style="stroke:#181818;stroke-width:0.5;"/><path d="M505,701 L505,711 L515,711 L505,701 " fill="#FEFFDD" style="stroke:#181818;stroke-width:0.5;"/><text fill="#000000" font-family="sans-serif" font-size="13" lengthAdjust="spacing" textLength="115" x="385" y="719.4951">abrirInvestigadores()</text></g><!--SRC=[dPJ1RjD048RlVefHkBH85IzGHIeXhN8eHKtLIrMXiNSQ3TtTiNRNbWf2ubNWpeb7o9lm9EpQQM8dJg0u1yl9pFp_D__6_f5jYGuDQBOKdag2KlHJUiWo7p0G657ym0MwcQt91rwW4WVeOJJuoz7n2Bva6SIhxH_5Jwo-51ySMYNTujsogUBmzwfRrAnIsGHDpk9RlRlNzt1ozshXYEpzoVY0f9KuIso2Vco-ECt74n6dsAQQqpVv60AJ9QWiS8yxPt91zZLvqLn4WitMUkrD6rdL66XD3vhiOUnToH35d7qWWusPqf4d6yqe3E81Yr2X9W-AzAwhtzz-m0ToXhkHWuvz1PeotYZPo6F_0CIGnHx3Jc3_ci9weOiAdOgEYiw0BTww4G6DaUv1dC62bx_icaRXWFDjO_-v-UTkAr0llyUHmmvDHIbjC6GzVcgY07Ak4y6aNRRaEie5SMbeZSNovsfWgZbFR44YPI7EKR4wZYy0Y_-Kmno78Dfpn9yHzfsZYoQh58IjgEx7iIwwNErYQyXclDh2-ffbm- -YBjdi_UrqVZExE7jtTVtnxEriUdrpbVKmzufjzlSocUdyMMZULyBSSMy4-QFZZSmV]--></g></svg>