<?xml version="1.0" encoding="us-ascii" standalone="no"?><svg xmlns="http://www.w3.org/2000/svg" xmlns:xlink="http://www.w3.org/1999/xlink" contentStyleType="text/css" height="695px" preserveAspectRatio="none" style="width:803px;height:695px;background:#FFFFFF;" version="1.1" viewBox="0 0 803 695" width="803px" zoomAndPan="magnify"><defs/><g><g id="in1"><rect fill="#F1F1F1" height="50" rx="12.5" ry="12.5" style="stroke:#181818;stroke-width:0.5;" width="210" x="174.5" y="7"/><line style="stroke:#181818;stroke-width:0.5;" x1="174.5" x2="384.5" y1="34.6094" y2="34.6094"/><text fill="#000000" font-family="sans-serif" font-size="14" lengthAdjust="spacing" textLength="190" x="184.5" y="26.5332">PANEL_PRINCIPAL_ABIERTO</text></g><path d="M19.5,118 L777.5,118 A12.5,12.5 0 0 1 790,130.5 L790,145.6094 L7,145.6094 L7,130.5 A12.5,12.5 0 0 1 19.5,118 " fill="#F1F1F1" style="stroke:#F1F1F1;stroke-width:1.0;"/><rect fill="none" height="424.6094" rx="12.5" ry="12.5" style="stroke:#181818;stroke-width:0.5;" width="783" x="7" y="118"/><line style="stroke:#181818;stroke-width:0.5;" x1="7" x2="790" y1="145.6094" y2="145.6094"/><text fill="#000000" font-family="sans-serif" font-size="14" lengthAdjust="spacing" textLength="130" x="333.5" y="137.5332">abrirConvocatorias()</text><g id="abrirConvocatorias.CargandoListado"><rect fill="#F1F1F1" height="50" rx="12.5" ry="12.5" style="stroke:#181818;stroke-width:0.5;" width="50" x="200" y="248.6094"/><line style="stroke:#181818;stroke-width:0.5;" x1="200" x2="250" y1="276.2188" y2="276.2188"/><text fill="#000000" font-family="sans-serif" font-size="14" lengthAdjust="spacing" textLength="4" x="223" y="268.1426">&#160;</text></g><g id="abrirConvocatorias.MostrandoConvocatorias"><rect fill="#F1F1F1" height="50" rx="12.5" ry="12.5" style="stroke:#181818;stroke-width:0.5;" width="50" x="29" y="387.6094"/><line style="stroke:#181818;stroke-width:0.5;" x1="29" x2="79" y1="415.2188" y2="415.2188"/><text fill="#000000" font-family="sans-serif" font-size="14" lengthAdjust="spacing" textLength="4" x="52" y="407.1426">&#160;</text></g><ellipse cx="225" cy="166.6094" fill="#222222" rx="10" ry="10" style="stroke:#222222;stroke-width:1.0;"/><ellipse cx="207" cy="521.6094" fill="none" rx="11" ry="11" style="stroke:#222222;stroke-width:1.0;"/><ellipse cx="207" cy="521.6094" fill="#222222" rx="6" ry="6" style="stroke:#222222;stroke-width:1.0;"/><!--link *start*abrirConvocatorias to CargandoListado--><g id="link_*start*abrirConvocatorias_CargandoListado"><path d="M225,176.9294 C225,192.7894 225,219.5194 225,242.2494 " fill="none" id="*start*abrirConvocatorias-to-CargandoListado" style="stroke:#008000;stroke-width:1.0;"/><polygon fill="#008000" points="225,248.2494,229,239.2494,225,243.2494,221,239.2494,225,248.2494" style="stroke:#008000;stroke-width:1.0;"/><path d="M230,199.6094 L230,225.6094 L491,225.6094 L491,209.6094 L481,199.6094 L230,199.6094 " fill="#FEFFDD" style="stroke:#181818;stroke-width:0.5;"/><path d="M481,199.6094 L481,209.6094 L491,209.6094 L481,199.6094 " fill="#FEFFDD" style="stroke:#181818;stroke-width:0.5;"/><text fill="#000000" font-family="sans-serif" font-size="13" font-weight="bold" lengthAdjust="spacing" textLength="79" x="236" y="218.1045">Coordinador</text><text fill="#000000" font-family="sans-serif" font-size="13" lengthAdjust="spacing" textLength="157" x="319" y="218.1045">selecciona "Convocatorias"</text></g><!--link CargandoListado to MostrandoConvocatorias--><g id="link_CargandoListado_MostrandoConvocatorias"><path d="M199.86,282.6094 C161.56,294.7894 93,316.6094 93,316.6094 C93,316.6094 77.8792,353.4491 66.3192,381.5991 " fill="none" id="CargandoListado-to-MostrandoConvocatorias" style="stroke:#008000;stroke-width:1.0;"/><polygon fill="#008000" points="64.04,387.1494,71.159,380.3435,65.9394,382.5242,63.7587,377.3045,64.04,387.1494" style="stroke:#008000;stroke-width:1.0;"/><path d="M98,321.6094 L98,363.6094 L378,363.6094 L378,331.6094 L368,321.6094 L98,321.6094 " fill="#FEFFDD" style="stroke:#181818;stroke-width:0.5;"/><path d="M368,321.6094 L368,331.6094 L378,331.6094 L368,321.6094 " fill="#FEFFDD" style="stroke:#181818;stroke-width:0.5;"/><text fill="#000000" font-family="sans-serif" font-size="13" font-weight="bold" lengthAdjust="spacing" textLength="51" x="104" y="340.1045">Sistema</text><text fill="#000000" font-family="sans-serif" font-size="13" lengthAdjust="spacing" textLength="115" x="159" y="340.1045">carga convocatorias</text><text fill="#000000" font-family="sans-serif" font-size="13" font-weight="bold" lengthAdjust="spacing" textLength="51" x="104" y="356.4561">Sistema</text><text fill="#000000" font-family="sans-serif" font-size="13" lengthAdjust="spacing" textLength="204" x="159" y="356.4561">muestra el listado de convocatorias</text></g><!--link CargandoListado to *end*abrirConvocatorias--><g id="link_CargandoListado_*end*abrirConvocatorias"><path d="M250.04,281.2694 C294.59,293.1094 383,316.6094 383,316.6094 C383,316.6094 383,492.6094 383,492.6094 C383,492.6094 261.8855,511.8768 223.6655,517.9568 " fill="none" id="CargandoListado-to-*end*abrirConvocatorias" style="stroke:#FF0000;stroke-width:1.0;"/><polygon fill="#FF0000" points="217.74,518.8994,227.2567,521.4358,222.6779,518.1139,225.9998,513.5351,217.74,518.8994" style="stroke:#FF0000;stroke-width:1.0;"/><path d="M388,391.6094 L388,433.6094 L781,433.6094 L781,401.6094 L771,391.6094 L388,391.6094 " fill="#FEFFDD" style="stroke:#181818;stroke-width:0.5;"/><path d="M771,391.6094 L771,401.6094 L781,401.6094 L771,391.6094 " fill="#FEFFDD" style="stroke:#181818;stroke-width:0.5;"/><text fill="#000000" font-family="sans-serif" font-size="13" font-weight="bold" lengthAdjust="spacing" textLength="51" x="394" y="410.1045">Sistema</text><text fill="#000000" font-family="sans-serif" font-size="13" lengthAdjust="spacing" textLength="187" x="449" y="410.1045">no puede cargar el listado (error)</text><text fill="#000000" font-family="sans-serif" font-size="13" font-weight="bold" lengthAdjust="spacing" textLength="51" x="394" y="426.4561">Sistema</text><text fill="#000000" font-family="sans-serif" font-size="13" lengthAdjust="spacing" textLength="317" x="449" y="426.4561">informa del problema y mantiene la navegaci&#243;n anterior</text></g><!--link MostrandoConvocatorias to *end*abrirConvocatorias--><g id="link_MostrandoConvocatorias_*end*abrirConvocatorias"><path d="M33.89,437.6194 C25.65,447.4694 18,456.6094 18,456.6094 C18,456.6094 18,492.6094 18,492.6094 C18,492.6094 150.3847,512.2205 190.3647,518.1405 " fill="none" id="MostrandoConvocatorias-to-*end*abrirConvocatorias" style="stroke:#008000;stroke-width:1.0;"/><polygon fill="#008000" points="196.3,519.0194,187.983,513.7442,191.3539,518.287,186.8112,521.6579,196.3,519.0194" style="stroke:#008000;stroke-width:1.0;"/><path d="M23,461.6094 L23,487.6094 L378,487.6094 L378,471.6094 L368,461.6094 L23,461.6094 " fill="#FEFFDD" style="stroke:#181818;stroke-width:0.5;"/><path d="M368,461.6094 L368,471.6094 L378,471.6094 L368,461.6094 " fill="#FEFFDD" style="stroke:#181818;stroke-width:0.5;"/><text fill="#000000" font-family="sans-serif" font-size="13" font-weight="bold" lengthAdjust="spacing" textLength="79" x="29" y="480.1045">Coordinador</text><text fill="#000000" font-family="sans-serif" font-size="13" lengthAdjust="spacing" textLength="251" x="112" y="480.1045">puede filtrar/buscar o abrir una convocatoria</text></g><g id="in2"><rect fill="#F1F1F1" height="50" rx="12.5" ry="12.5" style="stroke:#181818;stroke-width:0.5;" width="197" x="420" y="7"/><line style="stroke:#181818;stroke-width:0.5;" x1="420" x2="617" y1="34.6094" y2="34.6094"/><text fill="#000000" font-family="sans-serif" font-size="14" lengthAdjust="spacing" textLength="177" x="430" y="26.5332">CONVOCATORIA_ABIERTA</text></g><g id="CONVOCATORIAS_ABIERTAS"><rect fill="#F1F1F1" height="50" rx="12.5" ry="12.5" style="stroke:#181818;stroke-width:0.5;" width="215" x="19" y="639"/><line style="stroke:#181818;stroke-width:0.5;" x1="19" x2="234" y1="666.6094" y2="666.6094"/><text fill="#000000" font-family="sans-serif" font-size="14" lengthAdjust="spacing" textLength="195" x="29" y="658.5332">CONVOCATORIAS_ABIERTAS</text></g><g id="CONVOCATORIA_ABIERTA"><rect fill="#F1F1F1" height="50" rx="12.5" ry="12.5" style="stroke:#181818;stroke-width:0.5;" width="197" x="300" y="639"/><line style="stroke:#181818;stroke-width:0.5;" x1="300" x2="497" y1="666.6094" y2="666.6094"/><text fill="#000000" font-family="sans-serif" font-size="14" lengthAdjust="spacing" textLength="177" x="310" y="658.5332">CONVOCATORIA_ABIERTA</text></g><g id="PANEL_PRINCIPAL_ABIERTO"><rect fill="#F1F1F1" height="50" rx="12.5" ry="12.5" style="stroke:#181818;stroke-width:0.5;" width="210" x="532.5" y="639"/><line style="stroke:#181818;stroke-width:0.5;" x1="532.5" x2="742.5" y1="666.6094" y2="666.6094"/><text fill="#000000" font-family="sans-serif" font-size="14" lengthAdjust="spacing" textLength="190" x="542.5" y="658.5332">PANEL_PRINCIPAL_ABIERTO</text></g><!--link in1 to abrirConvocatorias--><g id="link_in1_abrirConvocatorias"><path d="M289.14,57.01 C295.25,72.25 301.5845,88.032 311.2645,112.142 " fill="none" id="in1-to-abrirConvocatorias" style="stroke:#008000;stroke-width:1.0;"/><polygon fill="#008000" points="313.5,117.71,313.8587,107.8677,311.6371,113.07,306.4347,110.8484,313.5,117.71" style="stroke:#008000;stroke-width:1.0;"/></g><!--link in2 to abrirConvocatorias--><g id="link_in2_abrirConvocatorias"><path d="M508.78,57.01 C502.62,72.25 496.2334,88.0392 486.4634,112.1492 " fill="none" id="in2-to-abrirConvocatorias" style="stroke:#008000;stroke-width:1.0;"/><polygon fill="#008000" points="484.21,117.71,491.2972,110.8711,486.0878,113.076,483.8829,107.8666,484.21,117.71" style="stroke:#008000;stroke-width:1.0;"/></g><!--link abrirConvocatorias to CONVOCATORIAS_ABIERTAS--><g id="link_abrirConvocatorias_CONVOCATORIAS_ABIERTAS"><path d="M187.93,543.39 C169.98,561.44 158.5,573 158.5,573 C158.5,573 146.5583,606.5661 137.0883,633.2261 " fill="none" id="abrirConvocatorias-to-CONVOCATORIAS_ABIERTAS" style="stroke:#008000;stroke-width:1.0;"/><polygon fill="#008000" points="135.08,638.88,141.8618,631.738,136.7536,634.1684,134.3232,629.0603,135.08,638.88" style="stroke:#008000;stroke-width:1.0;"/><path d="M163.5,578 L163.5,604 L385.5,604 L385.5,588 L375.5,578 L163.5,578 " fill="#FEFFDD" style="stroke:#181818;stroke-width:0.5;"/><path d="M375.5,578 L375.5,588 L385.5,588 L375.5,578 " fill="#FEFFDD" style="stroke:#181818;stroke-width:0.5;"/><text fill="#000000" font-family="sans-serif" font-size="13" lengthAdjust="spacing" textLength="201" x="169.5" y="596.4951">Listado de convocatorias mostrado</text></g><!--link abrirConvocatorias to CONVOCATORIA_ABIERTA--><g id="link_abrirConvocatorias_CONVOCATORIA_ABIERTA"><path d="M398.5,543.32 C398.5,581.9 398.5,610.85 398.5,632.89 " fill="none" id="abrirConvocatorias-to-CONVOCATORIA_ABIERTA" style="stroke:#008000;stroke-width:1.0;"/><polygon fill="#008000" points="398.5,638.89,402.5,629.89,398.5,633.89,394.5,629.89,398.5,638.89" style="stroke:#008000;stroke-width:1.0;"/><path d="M403.5,578 L403.5,604 L531.5,604 L531.5,588 L521.5,578 L403.5,578 " fill="#FEFFDD" style="stroke:#181818;stroke-width:0.5;"/><path d="M521.5,578 L521.5,588 L531.5,588 L521.5,578 " fill="#FEFFDD" style="stroke:#181818;stroke-width:0.5;"/><text fill="#000000" font-family="sans-serif" font-size="13" lengthAdjust="spacing" textLength="107" x="409.5" y="596.4951">abrirConvocatoria()</text></g><!--link abrirConvocatorias to PANEL_PRINCIPAL_ABIERTO--><g id="link_abrirConvocatorias_PANEL_PRINCIPAL_ABIERTO"><path d="M551.22,543.32 C579.03,581.9 600.7211,611.983 616.6111,634.023 " fill="none" id="abrirConvocatorias-to-PANEL_PRINCIPAL_ABIERTO" style="stroke:#008000;stroke-width:1.0;"/><polygon fill="#008000" points="620.12,638.89,618.1013,629.2502,617.1959,634.8342,611.612,633.9288,620.12,638.89" style="stroke:#008000;stroke-width:1.0;"/><path d="M601.5,578 L601.5,604 L738.5,604 L738.5,588 L728.5,578 L601.5,578 " fill="#FEFFDD" style="stroke:#181818;stroke-width:0.5;"/><path d="M728.5,578 L728.5,588 L738.5,588 L728.5,578 " fill="#FEFFDD" style="stroke:#181818;stroke-width:0.5;"/><text fill="#000000" font-family="sans-serif" font-size="13" lengthAdjust="spacing" textLength="116" x="607.5" y="596.4951">abrirPanelPrincipal()</text></g><!--SRC=[bPJHIkj048RlynH3paqh53bUIo46BmezRMZ56n6P96DPtCo4IIgKWq_b8_XYxYQAJPDgJQuoE_Fz_ypkfdeoNA9Y0TOmrRkIe1Ixynz1KDLO4nZ-2rX1c4IBw_b3ifejubaIpH-YgzdrwcOP1ZvXSlTdeqHyFva2fceq5dwM36jHWzKNwg91nSl5xJAERfQhMVJ1YJpduaHEVwN1ziEZSGZ_Wm3SqrQ6xdMfCUe6EPUvSU5S-Wd_fAhLPnpe-yIxi_kEpo4OYsC9-wa-DO7BT1gBQ6xOfUZbUJg5YYnbcH56Dv5zcR2f8CuRJ2jw8D8nSCJiCHzhXw026m-PnqBMgpj8AxRa9O2i8xK6SXee-z6pKkuTkn6UP8y5oYrvAO_IVVqHgOgEXweCFueMw2nQA5LIwnPW1mLoROW9B0BZCsqmCs-l32vCQaG7EXYUR6VutxLokEDjBu_6EgYUfzlAjGNI7cVOSdSZkdPUWc3Wr7UEuTwbMd_UgdNGyJK_idbGD8swm_lL_o_aFjMwOZt0Q7mw_iZVPa0XGIQRgE7Cb6ZtDTu1]--></g></svg>