<?xml version="1.0" encoding="us-ascii" standalone="no"?><svg xmlns="http://www.w3.org/2000/svg" xmlns:xlink="http://www.w3.org/1999/xlink" contentStyleType="text/css" height="730px" preserveAspectRatio="none" style="width:803px;height:730px;background:#FFFFFF;" version="1.1" viewBox="0 0 803 730" width="803px" zoomAndPan="magnify"><defs/><g><path d="M19.5,153 L777.5,153 A12.5,12.5 0 0 1 790,165.5 L790,180.6094 L7,180.6094 L7,165.5 A12.5,12.5 0 0 1 19.5,153 " fill="#F1F1F1" style="stroke:#F1F1F1;stroke-width:1.0;"/><rect fill="none" height="424.6094" rx="12.5" ry="12.5" style="stroke:#181818;stroke-width:0.5;" width="783" x="7" y="153"/><line style="stroke:#181818;stroke-width:0.5;" x1="7" x2="790" y1="180.6094" y2="180.6094"/><text fill="#000000" font-family="sans-serif" font-size="14" lengthAdjust="spacing" textLength="130" x="333.5" y="172.5332">abrirConvocatorias()</text><g id="abrirConvocatorias.CargandoListado"><rect fill="#F1F1F1" height="50" rx="12.5" ry="12.5" style="stroke:#181818;stroke-width:0.5;" width="50" x="200" y="283.6094"/><line style="stroke:#181818;stroke-width:0.5;" x1="200" x2="250" y1="311.2188" y2="311.2188"/><text fill="#000000" font-family="sans-serif" font-size="14" lengthAdjust="spacing" textLength="4" x="223" y="303.1426">&#160;</text></g><g id="abrirConvocatorias.MostrandoConvocatorias"><rect fill="#F1F1F1" height="50" rx="12.5" ry="12.5" style="stroke:#181818;stroke-width:0.5;" width="50" x="29" y="422.6094"/><line style="stroke:#181818;stroke-width:0.5;" x1="29" x2="79" y1="450.2188" y2="450.2188"/><text fill="#000000" font-family="sans-serif" font-size="14" lengthAdjust="spacing" textLength="4" x="52" y="442.1426">&#160;</text></g><ellipse cx="225" cy="201.6094" fill="#222222" rx="10" ry="10" style="stroke:#222222;stroke-width:1.0;"/><ellipse cx="207" cy="556.6094" fill="none" rx="11" ry="11" style="stroke:#222222;stroke-width:1.0;"/><ellipse cx="207" cy="556.6094" fill="#222222" rx="6" ry="6" style="stroke:#222222;stroke-width:1.0;"/><!--link *start*abrirConvocatorias to CargandoListado--><g id="link_*start*abrirConvocatorias_CargandoListado"><path d="M225,211.9294 C225,227.7894 225,254.5194 225,277.2494 " fill="none" id="*start*abrirConvocatorias-to-CargandoListado" style="stroke:#008000;stroke-width:1.0;"/><polygon fill="#008000" points="225,283.2494,229,274.2494,225,278.2494,221,274.2494,225,283.2494" style="stroke:#008000;stroke-width:1.0;"/><path d="M230,234.6094 L230,260.6094 L491,260.6094 L491,244.6094 L481,234.6094 L230,234.6094 " fill="#FEFFDD" style="stroke:#181818;stroke-width:0.5;"/><path d="M481,234.6094 L481,244.6094 L491,244.6094 L481,234.6094 " fill="#FEFFDD" style="stroke:#181818;stroke-width:0.5;"/><text fill="#000000" font-family="sans-serif" font-size="13" font-weight="bold" lengthAdjust="spacing" textLength="79" x="236" y="253.1045">Coordinador</text><text fill="#000000" font-family="sans-serif" font-size="13" lengthAdjust="spacing" textLength="157" x="319" y="253.1045">selecciona "Convocatorias"</text></g><!--link CargandoListado to MostrandoConvocatorias--><g id="link_CargandoListado_MostrandoConvocatorias"><path d="M199.86,317.6094 C161.56,329.7894 93,351.6094 93,351.6094 C93,351.6094 77.8792,388.4491 66.3192,416.5991 " fill="none" id="CargandoListado-to-MostrandoConvocatorias" style="stroke:#008000;stroke-width:1.0;"/><polygon fill="#008000" points="64.04,422.1494,71.159,415.3435,65.9394,417.5242,63.7587,412.3045,64.04,422.1494" style="stroke:#008000;stroke-width:1.0;"/><path d="M98,356.6094 L98,398.6094 L378,398.6094 L378,366.6094 L368,356.6094 L98,356.6094 " fill="#FEFFDD" style="stroke:#181818;stroke-width:0.5;"/><path d="M368,356.6094 L368,366.6094 L378,366.6094 L368,356.6094 " fill="#FEFFDD" style="stroke:#181818;stroke-width:0.5;"/><text fill="#000000" font-family="sans-serif" font-size="13" font-weight="bold" lengthAdjust="spacing" textLength="51" x="104" y="375.1045">Sistema</text><text fill="#000000" font-family="sans-serif" font-size="13" lengthAdjust="spacing" textLength="115" x="159" y="375.1045">carga convocatorias</text><text fill="#000000" font-family="sans-serif" font-size="13" font-weight="bold" lengthAdjust="spacing" textLength="51" x="104" y="391.4561">Sistema</text><text fill="#000000" font-family="sans-serif" font-size="13" lengthAdjust="spacing" textLength="204" x="159" y="391.4561">muestra el listado de convocatorias</text></g><!--link CargandoListado to *end*abrirConvocatorias--><g id="link_CargandoListado_*end*abrirConvocatorias"><path d="M250.04,316.2694 C294.59,328.1094 383,351.6094 383,351.6094 C383,351.6094 383,527.6094 383,527.6094 C383,527.6094 261.8855,546.8768 223.6655,552.9568 " fill="none" id="CargandoListado-to-*end*abrirConvocatorias" style="stroke:#FF0000;stroke-width:1.0;"/><polygon fill="#FF0000" points="217.74,553.8994,227.2567,556.4358,222.6779,553.1139,225.9998,548.5351,217.74,553.8994" style="stroke:#FF0000;stroke-width:1.0;"/><path d="M388,426.6094 L388,468.6094 L781,468.6094 L781,436.6094 L771,426.6094 L388,426.6094 " fill="#FEFFDD" style="stroke:#181818;stroke-width:0.5;"/><path d="M771,426.6094 L771,436.6094 L781,436.6094 L771,426.6094 " fill="#FEFFDD" style="stroke:#181818;stroke-width:0.5;"/><text fill="#000000" font-family="sans-serif" font-size="13" font-weight="bold" lengthAdjust="spacing" textLength="51" x="394" y="445.1045">Sistema</text><text fill="#000000" font-family="sans-serif" font-size="13" lengthAdjust="spacing" textLength="187" x="449" y="445.1045">no puede cargar el listado (error)</text><text fill="#000000" font-family="sans-serif" font-size="13" font-weight="bold" lengthAdjust="spacing" textLength="51" x="394" y="461.4561">Sistema</text><text fill="#000000" font-family="sans-serif" font-size="13" lengthAdjust="spacing" textLength="317" x="449" y="461.4561">informa del problema y mantiene la navegaci&#243;n anterior</text></g><!--link MostrandoConvocatorias to *end*abrirConvocatorias--><g id="link_MostrandoConvocatorias_*end*abrirConvocatorias"><path d="M33.89,472.6194 C25.65,482.4694 18,491.6094 18,491.6094 C18,491.6094 18,527.6094 18,527.6094 C18,527.6094 150.3847,547.2205 190.3647,553.1405 " fill="none" id="MostrandoConvocatorias-to-*end*abrirConvocatorias" style="stroke:#008000;stroke-width:1.0;"/><polygon fill="#008000" points="196.3,554.0194,187.983,548.7442,191.3539,553.287,186.8112,556.6579,196.3,554.0194" style="stroke:#008000;stroke-width:1.0;"/><path d="M23,496.6094 L23,522.6094 L378,522.6094 L378,506.6094 L368,496.6094 L23,496.6094 " fill="#FEFFDD" style="stroke:#181818;stroke-width:0.5;"/><path d="M368,496.6094 L368,506.6094 L378,506.6094 L368,496.6094 " fill="#FEFFDD" style="stroke:#181818;stroke-width:0.5;"/><text fill="#000000" font-family="sans-serif" font-size="13" font-weight="bold" lengthAdjust="spacing" textLength="79" x="29" y="515.1045">Coordinador</text><text fill="#000000" font-family="sans-serif" font-size="13" lengthAdjust="spacing" textLength="251" x="112" y="515.1045">puede filtrar/buscar o abrir una convocatoria</text></g><g id="PANEL_PRINCIPAL_ABIERTO"><rect fill="#F1F1F1" height="50" rx="12.5" ry="12.5" style="stroke:#181818;stroke-width:0.5;" width="210" x="293.5" y="7"/><line style="stroke:#181818;stroke-width:0.5;" x1="293.5" x2="503.5" y1="34.6094" y2="34.6094"/><text fill="#000000" font-family="sans-serif" font-size="14" lengthAdjust="spacing" textLength="190" x="303.5" y="26.5332">PANEL_PRINCIPAL_ABIERTO</text></g><g id="CONVOCATORIAS_ABIERTAS"><rect fill="#F1F1F1" height="50" rx="12.5" ry="12.5" style="stroke:#181818;stroke-width:0.5;" width="215" x="291" y="674"/><line style="stroke:#181818;stroke-width:0.5;" x1="291" x2="506" y1="701.6094" y2="701.6094"/><text fill="#000000" font-family="sans-serif" font-size="14" lengthAdjust="spacing" textLength="195" x="301" y="693.5332">CONVOCATORIAS_ABIERTAS</text></g><!--link PANEL_PRINCIPAL_ABIERTO to abrirConvocatorias--><g id="link_PANEL_PRINCIPAL_ABIERTO_abrirConvocatorias"><path d="M398.5,57.11 C398.5,79.16 398.5,108.15 398.5,146.75 " fill="none" id="PANEL_PRINCIPAL_ABIERTO-to-abrirConvocatorias" style="stroke:#008000;stroke-width:1.0;"/><polygon fill="#008000" points="398.5,152.75,402.5,143.75,398.5,147.75,394.5,143.75,398.5,152.75" style="stroke:#008000;stroke-width:1.0;"/><path d="M403.5,92 L403.5,118 L538.5,118 L538.5,102 L528.5,92 L403.5,92 " fill="#FEFFDD" style="stroke:#181818;stroke-width:0.5;"/><path d="M528.5,92 L528.5,102 L538.5,102 L528.5,92 " fill="#FEFFDD" style="stroke:#181818;stroke-width:0.5;"/><text fill="#000000" font-family="sans-serif" font-size="13" lengthAdjust="spacing" textLength="114" x="409.5" y="110.4951">abrirConvocatorias()</text></g><!--link abrirConvocatorias to CONVOCATORIAS_ABIERTAS--><g id="link_abrirConvocatorias_CONVOCATORIAS_ABIERTAS"><path d="M398.5,578.32 C398.5,616.9 398.5,645.85 398.5,667.89 " fill="none" id="abrirConvocatorias-to-CONVOCATORIAS_ABIERTAS" style="stroke:#008000;stroke-width:1.0;"/><polygon fill="#008000" points="398.5,673.89,402.5,664.89,398.5,668.89,394.5,664.89,398.5,673.89" style="stroke:#008000;stroke-width:1.0;"/><path d="M403.5,613 L403.5,639 L625.5,639 L625.5,623 L615.5,613 L403.5,613 " fill="#FEFFDD" style="stroke:#181818;stroke-width:0.5;"/><path d="M615.5,613 L615.5,623 L625.5,623 L615.5,613 " fill="#FEFFDD" style="stroke:#181818;stroke-width:0.5;"/><text fill="#000000" font-family="sans-serif" font-size="13" lengthAdjust="spacing" textLength="201" x="409.5" y="631.4951">Listado de convocatorias mostrado</text></g><!--SRC=[ZLFDQeD04Bxx58Ez98MG5mW1Apq8DeOaz192M7KIbkYCZ1e8fK_LH-YBTTNITgDfgrvsdFb-PcVAawP2YSeXquJLfK0eEBiq1ySfArKXg5Yq-4ndJbJ5ebK9vdFxuT7OXHV70VDqbQvvJQglvAWevL2RSChzX2SkAsaoBBWEQNk_WydsxYY8j9lC1y683HPJO-7K1cRnt6UML9D9aTaqdaE96IQ9PbBWMZHkMu6KjZ0TwHM99U26s5iwrWO2SzLgI1fOI7frLsbvZGq5O6QGEW4f3fJzgLamRHIR5lvB7Z4KDJPK3PJyv1-X2Cjug4hJWILNHc86XN2ScHzmWLnHfP4GCWMapdXKYNv_8p1X5Cqou62uirRpVxDoVUETbuFE3AXCuxeqje2xSOQQx8kmvRmwpj9RF8RxvIfO-C7I2_VUG_2usaIMcluAE9QmeHLnlZqFB9OrwT7YEVAzJRGAlFKdlxUs6S8Rym5vsqkp7rzq7m00]--></g></svg>