<?xml version="1.0" encoding="us-ascii" standalone="no"?><svg xmlns="http://www.w3.org/2000/svg" xmlns:xlink="http://www.w3.org/1999/xlink" contentStyleType="text/css" height="346px" preserveAspectRatio="none" style="width:840px;height:346px;background:#FFFFFF;" version="1.1" viewBox="0 0 840 346" width="840px" zoomAndPan="magnify"><defs/><g><line style="stroke:#AAAAAA;stroke-width:1.0;" x1="6" x2="833" y1="8.5" y2="8.5"/><line style="stroke:#AAAAAA;stroke-width:1.0;" x1="6" x2="833" y1="10.5" y2="10.5"/><text fill="#000000" font-family="sans-serif" font-size="12" font-weight="bold" lengthAdjust="spacing" textLength="152" x="6" y="26.457">GIPF - MIS PUBLICACIONES</text><line style="stroke:#AAAAAA;stroke-width:1.0;" x1="6" x2="833" y1="33.5938" y2="33.5938"/><line style="stroke:#AAAAAA;stroke-width:1.0;" x1="6" x2="833" y1="35.5938" y2="35.5938"/><text fill="#000000" font-family="sans-serif" font-size="12" font-weight="bold" lengthAdjust="spacing" textLength="164" x="7" y="52.5508">Filtrar / buscar publicaciones</text><line style="stroke:#AAAAAA;stroke-width:1.0;" x1="7" x2="297" y1="60.6875" y2="60.6875"/><text fill="#000000" font-family="sans-serif" font-size="12" font-weight="bold" lengthAdjust="spacing" textLength="34" x="9" y="79.6445">T&#237;tulo:</text><rect fill="#EEEEEE" height="19.0938" rx="5" ry="5" style="stroke:#000000;stroke-width:2.5;" width="244" x="47.5" y="69.6875"/><text fill="#000000" font-family="sans-serif" font-size="12" lengthAdjust="spacing" textLength="3" x="168" y="84.1445">&#160;</text><text fill="#000000" font-family="sans-serif" font-size="12" font-weight="bold" lengthAdjust="spacing" textLength="42" x="9" y="107.7383">Estado:</text><text fill="#000000" font-family="sans-serif" font-size="12" lengthAdjust="spacing" textLength="35" x="98" y="108.7383">Todas</text><line style="stroke:#000000;stroke-width:1.0;" x1="96" x2="139" y1="111.375" y2="111.375"/><line style="stroke:#000000;stroke-width:1.0;" x1="96" x2="96" y1="108.375" y2="110.375"/><line style="stroke:#000000;stroke-width:1.0;" x1="139" x2="139" y1="108.375" y2="110.375"/><text fill="#000000" font-family="sans-serif" font-size="12" lengthAdjust="spacing" textLength="48" x="146" y="108.7383">Borrador</text><line style="stroke:#000000;stroke-width:1.0;" x1="144" x2="211" y1="111.375" y2="111.375"/><line style="stroke:#000000;stroke-width:1.0;" x1="144" x2="144" y1="108.375" y2="110.375"/><line style="stroke:#000000;stroke-width:1.0;" x1="211" x2="211" y1="108.375" y2="110.375"/><text fill="#000000" font-family="sans-serif" font-size="12" lengthAdjust="spacing" textLength="55" x="218" y="108.7383">Publicada</text><line style="stroke:#000000;stroke-width:1.0;" x1="216" x2="291" y1="111.375" y2="111.375"/><line style="stroke:#000000;stroke-width:1.0;" x1="216" x2="216" y1="108.375" y2="110.375"/><line style="stroke:#000000;stroke-width:1.0;" x1="291" x2="291" y1="108.375" y2="110.375"/><text fill="#000000" font-family="sans-serif" font-size="12" font-weight="bold" lengthAdjust="spacing" textLength="83" x="9" y="128.832">Fecha (desde):</text><rect fill="#EEEEEE" height="19.0938" rx="5" ry="5" style="stroke:#000000;stroke-width:2.5;" width="100" x="96.5" y="118.875"/><text fill="#000000" font-family="sans-serif" font-size="12" lengthAdjust="spacing" textLength="3" x="145" y="133.332">&#160;</text><text fill="#000000" font-family="sans-serif" font-size="12" font-weight="bold" lengthAdjust="spacing" textLength="80" x="9" y="156.9258">Fecha (hasta):</text><rect fill="#EEEEEE" height="19.0938" rx="5" ry="5" style="stroke:#000000;stroke-width:2.5;" width="100" x="93.5" y="146.9688"/><text fill="#000000" font-family="sans-serif" font-size="12" lengthAdjust="spacing" textLength="3" x="142" y="161.4258">&#160;</text><text fill="#000000" font-family="sans-serif" font-size="12" font-weight="bold" lengthAdjust="spacing" textLength="3" x="9" y="183.0195">&#160;</text><text fill="#000000" font-family="sans-serif" font-size="12" lengthAdjust="spacing" textLength="3" x="94" y="183.0195">&#160;</text><line style="stroke:#000000;stroke-width:1.0;" x1="92" x2="103" y1="185.6563" y2="185.6563"/><line style="stroke:#000000;stroke-width:1.0;" x1="92" x2="92" y1="182.6563" y2="184.6563"/><line style="stroke:#000000;stroke-width:1.0;" x1="103" x2="103" y1="182.6563" y2="184.6563"/><line style="stroke:#AAAAAA;stroke-width:1.5;" x1="6" x2="833" y1="196.1563" y2="196.1563"/><text fill="#000000" font-family="sans-serif" font-size="12" font-weight="bold" lengthAdjust="spacing" textLength="165" x="6" y="213.1133">Listado de mis publicaciones</text><line style="stroke:#AAAAAA;stroke-width:1.0;" x1="6" x2="833" y1="221.25" y2="221.25"/><text fill="#000000" font-family="sans-serif" font-size="12" font-weight="bold" lengthAdjust="spacing" textLength="11" x="8" y="240.207">ID</text><text fill="#000000" font-family="sans-serif" font-size="12" font-weight="bold" lengthAdjust="spacing" textLength="31" x="21" y="240.207">T&#237;tulo</text><text fill="#000000" font-family="sans-serif" font-size="12" font-weight="bold" lengthAdjust="spacing" textLength="39" x="54" y="240.207">Estado</text><text fill="#000000" font-family="sans-serif" font-size="12" font-weight="bold" lengthAdjust="spacing" textLength="34" x="95" y="240.207">Fecha</text><text fill="#000000" font-family="sans-serif" font-size="12" font-weight="bold" lengthAdjust="spacing" textLength="54" x="131" y="240.207">Resumen</text><text fill="#000000" font-family="sans-serif" font-size="12" lengthAdjust="spacing" textLength="50" x="11" y="259.3008">PUB-031</text><line style="stroke:#000000;stroke-width:1.0;" x1="9" x2="68" y1="261.9375" y2="261.9375"/><line style="stroke:#000000;stroke-width:1.0;" x1="9" x2="9" y1="258.9375" y2="260.9375"/><line style="stroke:#000000;stroke-width:1.0;" x1="68" x2="68" y1="258.9375" y2="260.9375"/><text fill="#000000" font-family="sans-serif" font-size="12" lengthAdjust="spacing" textLength="215" x="75" y="259.3008">Resultados preliminares del proyecto...</text><line style="stroke:#000000;stroke-width:1.0;" x1="73" x2="388" y1="261.9375" y2="261.9375"/><line style="stroke:#000000;stroke-width:1.0;" x1="73" x2="73" y1="258.9375" y2="260.9375"/><line style="stroke:#000000;stroke-width:1.0;" x1="388" x2="388" y1="258.9375" y2="260.9375"/><text fill="#000000" font-family="sans-serif" font-size="12" lengthAdjust="spacing" textLength="48" x="395" y="259.3008">Borrador</text><line style="stroke:#000000;stroke-width:1.0;" x1="393" x2="460" y1="261.9375" y2="261.9375"/><line style="stroke:#000000;stroke-width:1.0;" x1="393" x2="393" y1="258.9375" y2="260.9375"/><line style="stroke:#000000;stroke-width:1.0;" x1="460" x2="460" y1="258.9375" y2="260.9375"/><text fill="#000000" font-family="sans-serif" font-size="12" lengthAdjust="spacing" textLength="64" x="467" y="259.3008">12-01-2025</text><line style="stroke:#000000;stroke-width:1.0;" x1="465" x2="548" y1="261.9375" y2="261.9375"/><line style="stroke:#000000;stroke-width:1.0;" x1="465" x2="465" y1="258.9375" y2="260.9375"/><line style="stroke:#000000;stroke-width:1.0;" x1="548" x2="548" y1="258.9375" y2="260.9375"/><text fill="#000000" font-family="sans-serif" font-size="12" lengthAdjust="spacing" textLength="176" x="555" y="259.3008">S&#237;ntesis de hallazgos iniciales...</text><line style="stroke:#000000;stroke-width:1.0;" x1="553" x2="828" y1="261.9375" y2="261.9375"/><line style="stroke:#000000;stroke-width:1.0;" x1="553" x2="553" y1="258.9375" y2="260.9375"/><line style="stroke:#000000;stroke-width:1.0;" x1="828" x2="828" y1="258.9375" y2="260.9375"/><text fill="#000000" font-family="sans-serif" font-size="12" lengthAdjust="spacing" textLength="50" x="11" y="280.3945">PUB-028</text><line style="stroke:#000000;stroke-width:1.0;" x1="9" x2="68" y1="283.0313" y2="283.0313"/><line style="stroke:#000000;stroke-width:1.0;" x1="9" x2="9" y1="280.0313" y2="282.0313"/><line style="stroke:#000000;stroke-width:1.0;" x1="68" x2="68" y1="280.0313" y2="282.0313"/><text fill="#000000" font-family="sans-serif" font-size="12" lengthAdjust="spacing" textLength="203" x="75" y="280.3945">Informe final de innovaci&#243;n docente...</text><line style="stroke:#000000;stroke-width:1.0;" x1="73" x2="380" y1="283.0313" y2="283.0313"/><line style="stroke:#000000;stroke-width:1.0;" x1="73" x2="73" y1="280.0313" y2="282.0313"/><line style="stroke:#000000;stroke-width:1.0;" x1="380" x2="380" y1="280.0313" y2="282.0313"/><text fill="#000000" font-family="sans-serif" font-size="12" lengthAdjust="spacing" textLength="55" x="387" y="280.3945">Publicada</text><line style="stroke:#000000;stroke-width:1.0;" x1="385" x2="460" y1="283.0313" y2="283.0313"/><line style="stroke:#000000;stroke-width:1.0;" x1="385" x2="385" y1="280.0313" y2="282.0313"/><line style="stroke:#000000;stroke-width:1.0;" x1="460" x2="460" y1="280.0313" y2="282.0313"/><text fill="#000000" font-family="sans-serif" font-size="12" lengthAdjust="spacing" textLength="64" x="467" y="280.3945">20-12-2024</text><line style="stroke:#000000;stroke-width:1.0;" x1="465" x2="548" y1="283.0313" y2="283.0313"/><line style="stroke:#000000;stroke-width:1.0;" x1="465" x2="465" y1="280.0313" y2="282.0313"/><line style="stroke:#000000;stroke-width:1.0;" x1="548" x2="548" y1="280.0313" y2="282.0313"/><text fill="#000000" font-family="sans-serif" font-size="12" lengthAdjust="spacing" textLength="197" x="555" y="280.3945">Conclusiones y recomendaciones...</text><line style="stroke:#000000;stroke-width:1.0;" x1="553" x2="820" y1="283.0313" y2="283.0313"/><line style="stroke:#000000;stroke-width:1.0;" x1="553" x2="553" y1="280.0313" y2="282.0313"/><line style="stroke:#000000;stroke-width:1.0;" x1="820" x2="820" y1="280.0313" y2="282.0313"/><text fill="#000000" font-family="sans-serif" font-size="12" lengthAdjust="spacing" textLength="50" x="11" y="301.4883">PUB-024</text><line style="stroke:#000000;stroke-width:1.0;" x1="9" x2="68" y1="304.125" y2="304.125"/><line style="stroke:#000000;stroke-width:1.0;" x1="9" x2="9" y1="301.125" y2="303.125"/><line style="stroke:#000000;stroke-width:1.0;" x1="68" x2="68" y1="301.125" y2="303.125"/><text fill="#000000" font-family="sans-serif" font-size="12" lengthAdjust="spacing" textLength="201" x="75" y="301.4883">Avances en colaboraci&#243;n intersede...</text><line style="stroke:#000000;stroke-width:1.0;" x1="73" x2="364" y1="304.125" y2="304.125"/><line style="stroke:#000000;stroke-width:1.0;" x1="73" x2="73" y1="301.125" y2="303.125"/><line style="stroke:#000000;stroke-width:1.0;" x1="364" x2="364" y1="301.125" y2="303.125"/><text fill="#000000" font-family="sans-serif" font-size="12" lengthAdjust="spacing" textLength="55" x="371" y="301.4883">Publicada</text><line style="stroke:#000000;stroke-width:1.0;" x1="369" x2="444" y1="304.125" y2="304.125"/><line style="stroke:#000000;stroke-width:1.0;" x1="369" x2="369" y1="301.125" y2="303.125"/><line style="stroke:#000000;stroke-width:1.0;" x1="444" x2="444" y1="301.125" y2="303.125"/><text fill="#000000" font-family="sans-serif" font-size="12" lengthAdjust="spacing" textLength="64" x="451" y="301.4883">05-11-2024</text><line style="stroke:#000000;stroke-width:1.0;" x1="449" x2="532" y1="304.125" y2="304.125"/><line style="stroke:#000000;stroke-width:1.0;" x1="449" x2="449" y1="301.125" y2="303.125"/><line style="stroke:#000000;stroke-width:1.0;" x1="532" x2="532" y1="301.125" y2="303.125"/><text fill="#000000" font-family="sans-serif" font-size="12" lengthAdjust="spacing" textLength="187" x="539" y="301.4883">Logros y metodolog&#237;a empleada...</text><line style="stroke:#000000;stroke-width:1.0;" x1="537" x2="796" y1="304.125" y2="304.125"/><line style="stroke:#000000;stroke-width:1.0;" x1="537" x2="537" y1="301.125" y2="303.125"/><line style="stroke:#000000;stroke-width:1.0;" x1="796" x2="796" y1="301.125" y2="303.125"/><line style="stroke:#AAAAAA;stroke-width:1.5;" x1="6" x2="833" y1="313.625" y2="313.625"/><rect fill="#EEEEEE" height="19.0938" rx="5" ry="5" style="stroke:#000000;stroke-width:2.5;" width="124" x="9.5" y="321.625"/><text fill="#000000" font-family="sans-serif" font-size="12" lengthAdjust="spacing" textLength="70" x="36.5" y="336.082">Aplicar filtros</text><rect fill="#EEEEEE" height="19.0938" rx="5" ry="5" style="stroke:#000000;stroke-width:2.5;" width="124" x="140.5" y="321.625"/><text fill="#000000" font-family="sans-serif" font-size="12" lengthAdjust="spacing" textLength="75" x="165" y="336.082">Limpiar filtros</text><rect fill="#EEEEEE" height="19.0938" rx="5" ry="5" style="stroke:#000000;stroke-width:2.5;" width="140" x="271.5" y="321.625"/><text fill="#000000" font-family="sans-serif" font-size="12" lengthAdjust="spacing" textLength="91" x="296" y="336.082">Abrir publicaci&#243;n</text><rect fill="#EEEEEE" height="19.0938" rx="5" ry="5" style="stroke:#000000;stroke-width:2.5;" width="140" x="418.5" y="321.625"/><text fill="#000000" font-family="sans-serif" font-size="12" lengthAdjust="spacing" textLength="97" x="440" y="336.082">Crear publicaci&#243;n</text><rect fill="#EEEEEE" height="19.0938" rx="5" ry="5" style="stroke:#000000;stroke-width:2.5;" width="52" x="565.5" y="321.625"/><text fill="#000000" font-family="sans-serif" font-size="12" lengthAdjust="spacing" textLength="33" x="575" y="336.082">Volver</text><!--SRC=[dLJ1Kjim4BthAtPoWeE3OqY7oL26418cr2aP4hWm76HxasX6bZAIdGwauOyuzHFoOrqvBYPfwA4wQLVxtZuzhNrXCsuoosK6F3B238GTvf4KCO-5LcYz7yBWnF0KsP81hQ-qYirPT7xT7_R0Wq5_1CFxox3VQNVwjz-xexEZw7oxU8CjOJqXCyCD746KsvWsyuyTty5kUTxxjgBuEoBIyVejowLkEJZyX4VuvtfQiMqwOkYI5SaxmH9gOvrmMwDzxL8RGsUc24f_4bw3rQwA7iOp3WS9sWGFzshPrxb4pJWf-0IrsmZAgXhiggYY3vrUNzd75mX5SLT8459X_yj_OkbVbI8g-wl4niqgBkvOXNTeynILIspBNzPeb3p_k55uxSga8oAH1gL8XU86BGcNbD3F66UwNg_lF9AB6e7dDxp03vh5uMZzfZAqma5XngNaBrCY5Kh4WakqZcIlaE2qmFVLH9iKOK82fECGIka5MRR-fI3HCH9x8MHdGYWAV8_4a9AJ8kne5SlS5bx3CnYCDHcHbEv_hcE3RY-uYWc82c8jUQHDgK6G06CnALNiqU4tlKQZqX7ggT5EGOgPJhJKq_KR1qpd4WcnhUEJILe-jkUkWI5Rw9FMzidDRIZIkTZ9jTs_fPep4boaEmRvdlI3bWiqJvl-AxPY5sIG-qSnDfHSPVU34AZ0UGYDkhjH_VXWFCkXXn4qcX3uhHE_vJUXqns3Epva1zV3S160rRc94HAQVoEYF2E6GtR35npkSfM955jmEqTrS_NjJmAwQY6CLlH66Rjv65G5NqwyIv7120rfWOS1ky89fsabHAmJeQOjk1_tl5CMSZND-PIuqRAE9bxpt8Bkw3S0]--></g></svg>