<?xml version="1.0" encoding="us-ascii" standalone="no"?><svg xmlns="http://www.w3.org/2000/svg" xmlns:xlink="http://www.w3.org/1999/xlink" contentStyleType="text/css" height="712px" preserveAspectRatio="none" style="width:606px;height:712px;background:#FFFFFF;" version="1.1" viewBox="0 0 606 712" width="606px" zoomAndPan="magnify"><defs/><g><g id="PROYECTO_ABIERTO"><rect fill="#F1F1F1" height="50" rx="12.5" ry="12.5" style="stroke:#181818;stroke-width:0.5;" width="166" x="217" y="7"/><line style="stroke:#181818;stroke-width:0.5;" x1="217" x2="383" y1="34.6094" y2="34.6094"/><text fill="#000000" font-family="sans-serif" font-size="14" lengthAdjust="spacing" textLength="146" x="227" y="26.5332">PROYECTO_ABIERTO</text></g><path d="M19.5,153 L580.5,153 A12.5,12.5 0 0 1 593,165.5 L593,180.6094 L7,180.6094 L7,165.5 A12.5,12.5 0 0 1 19.5,153 " fill="#F1F1F1" style="stroke:#F1F1F1;stroke-width:1.0;"/><rect fill="none" height="553.6094" rx="12.5" ry="12.5" style="stroke:#181818;stroke-width:0.5;" width="586" x="7" y="153"/><line style="stroke:#181818;stroke-width:0.5;" x1="7" x2="593" y1="180.6094" y2="180.6094"/><text fill="#000000" font-family="sans-serif" font-size="14" lengthAdjust="spacing" textLength="102" x="249" y="172.5332">editarProyecto()</text><g id="editarProyecto.EditandoDatos"><rect fill="#F1F1F1" height="50" rx="12.5" ry="12.5" style="stroke:#181818;stroke-width:0.5;" width="50" x="158" y="283.6094"/><line style="stroke:#181818;stroke-width:0.5;" x1="158" x2="208" y1="311.2188" y2="311.2188"/><text fill="#000000" font-family="sans-serif" font-size="14" lengthAdjust="spacing" textLength="4" x="181" y="303.1426">&#160;</text></g><g id="editarProyecto.GuardandoDatos"><rect fill="#F1F1F1" height="50" rx="12.5" ry="12.5" style="stroke:#181818;stroke-width:0.5;" width="50" x="158" y="552.6094"/><line style="stroke:#181818;stroke-width:0.5;" x1="158" x2="208" y1="580.2188" y2="580.2188"/><text fill="#000000" font-family="sans-serif" font-size="14" lengthAdjust="spacing" textLength="4" x="181" y="572.1426">&#160;</text></g><ellipse cx="183" cy="201.6094" fill="#222222" rx="10" ry="10" style="stroke:#222222;stroke-width:1.0;"/><ellipse cx="183" cy="685.6094" fill="none" rx="11" ry="11" style="stroke:#222222;stroke-width:1.0;"/><ellipse cx="183" cy="685.6094" fill="#222222" rx="6" ry="6" style="stroke:#222222;stroke-width:1.0;"/><!--link *start*editarProyecto to EditandoDatos--><g id="link_*start*editarProyecto_EditandoDatos"><path d="M183,211.9294 C183,227.7894 183,254.5194 183,277.2494 " fill="none" id="*start*editarProyecto-to-EditandoDatos" style="stroke:#008000;stroke-width:1.0;"/><polygon fill="#008000" points="183,283.2494,187,274.2494,183,278.2494,179,274.2494,183,283.2494" style="stroke:#008000;stroke-width:1.0;"/><path d="M188,234.6094 L188,260.6094 L423,260.6094 L423,244.6094 L413,234.6094 L188,234.6094 " fill="#FEFFDD" style="stroke:#181818;stroke-width:0.5;"/><path d="M413,234.6094 L413,244.6094 L423,244.6094 L413,234.6094 " fill="#FEFFDD" style="stroke:#181818;stroke-width:0.5;"/><text fill="#000000" font-family="sans-serif" font-size="13" font-weight="bold" lengthAdjust="spacing" textLength="79" x="194" y="253.1045">Coordinador</text><text fill="#000000" font-family="sans-serif" font-size="13" lengthAdjust="spacing" textLength="131" x="277" y="253.1045">solicita editar proyecto</text></g><!--link EditandoDatos to GuardandoDatos--><g id="link_EditandoDatos_GuardandoDatos"><path d="M157.94,315.9894 C111.78,327.7394 18,351.6094 18,351.6094 C18,351.6094 18,534.6094 18,534.6094 C18,534.6094 105.9654,556.9993 152.1254,568.7493 " fill="none" id="EditandoDatos-to-GuardandoDatos" style="stroke:#008000;stroke-width:1.0;"/><polygon fill="#008000" points="157.94,570.2294,150.2049,564.1328,153.0945,568.996,148.2314,571.8856,157.94,570.2294" style="stroke:#008000;stroke-width:1.0;"/><path d="M23,356.6094 L23,529.6094 L323,529.6094 L323,366.6094 L313,356.6094 L23,356.6094 " fill="#FEFFDD" style="stroke:#181818;stroke-width:0.5;"/><path d="M313,356.6094 L313,366.6094 L323,366.6094 L313,356.6094 " fill="#FEFFDD" style="stroke:#181818;stroke-width:0.5;"/><text fill="#000000" font-family="sans-serif" font-size="13" font-weight="bold" lengthAdjust="spacing" textLength="51" x="29" y="375.1045">Sistema</text><text fill="#000000" font-family="sans-serif" font-size="13" lengthAdjust="spacing" textLength="224" x="84" y="375.1045">presenta datos de edici&#243;n del proyecto</text><text fill="#000000" font-family="sans-serif" font-size="13" lengthAdjust="spacing" textLength="40" x="29" y="391.4561">&#8226; T&#237;tulo</text><text fill="#000000" font-family="sans-serif" font-size="13" lengthAdjust="spacing" textLength="77" x="29" y="407.8076">&#8226; Descripci&#243;n</text><text fill="#000000" font-family="sans-serif" font-size="13" lengthAdjust="spacing" textLength="132" x="29" y="424.1592">&#8226; Fechas de inicio y fin</text><text fill="#000000" font-family="sans-serif" font-size="13" lengthAdjust="spacing" textLength="125" x="29" y="440.5107">&#8226; Estado del proyecto</text><text fill="#000000" font-family="sans-serif" font-size="13" lengthAdjust="spacing" textLength="4" x="29" y="456.8623">&#160;</text><text fill="#000000" font-family="sans-serif" font-size="13" font-weight="bold" lengthAdjust="spacing" textLength="51" x="29" y="473.2139">Sistema</text><text fill="#000000" font-family="sans-serif" font-size="13" lengthAdjust="spacing" textLength="96" x="84" y="473.2139">permite solicitar:</text><text fill="#000000" font-family="sans-serif" font-size="13" lengthAdjust="spacing" textLength="111" x="29" y="489.5654">&#8226; modificar campos</text><text fill="#000000" font-family="sans-serif" font-size="13" lengthAdjust="spacing" textLength="106" x="29" y="505.917">&#8226; guardar proyecto</text><text fill="#000000" font-family="sans-serif" font-size="13" lengthAdjust="spacing" textLength="103" x="29" y="522.2686">&#8226; cancelar edici&#243;n</text></g><!--link GuardandoDatos to EditandoDatos--><g id="link_GuardandoDatos_EditandoDatos"><path d="M208.26,569.2894 C249.8,557.2594 328,534.6094 328,534.6094 C328,534.6094 328,351.6094 328,351.6094 C328,351.6094 255.5632,330.6284 214.0232,318.5984 " fill="none" id="GuardandoDatos-to-EditandoDatos" style="stroke:#008000;stroke-width:1.0;"/><polygon fill="#008000" points="208.26,316.9294,215.7921,323.275,213.0627,318.3202,218.0175,315.5908,208.26,316.9294" style="stroke:#008000;stroke-width:1.0;"/><path d="M333,430.1094 L333,456.1094 L584,456.1094 L584,440.1094 L574,430.1094 L333,430.1094 " fill="#FEFFDD" style="stroke:#181818;stroke-width:0.5;"/><path d="M574,430.1094 L574,440.1094 L584,440.1094 L574,430.1094 " fill="#FEFFDD" style="stroke:#181818;stroke-width:0.5;"/><text fill="#000000" font-family="sans-serif" font-size="13" font-weight="bold" lengthAdjust="spacing" textLength="79" x="339" y="448.6045">Coordinador</text><text fill="#000000" font-family="sans-serif" font-size="13" lengthAdjust="spacing" textLength="147" x="422" y="448.6045">solicita modificar campos</text></g><!--link GuardandoDatos to *end*editarProyecto--><g id="link_GuardandoDatos_*end*editarProyecto"><path d="M157.74,586.7094 C119.67,598.9094 52,620.6094 52,620.6094 C52,620.6094 52,656.6094 52,656.6094 C52,656.6094 135.1226,674.3749 166.4126,681.0649 " fill="none" id="GuardandoDatos-to-*end*editarProyecto" style="stroke:#008000;stroke-width:1.0;"/><polygon fill="#008000" points="172.28,682.3194,164.3152,676.5261,167.3905,681.274,162.6426,684.3492,172.28,682.3194" style="stroke:#008000;stroke-width:1.0;"/><path d="M57,625.6094 L57,651.6094 L288,651.6094 L288,635.6094 L278,625.6094 L57,625.6094 " fill="#FEFFDD" style="stroke:#181818;stroke-width:0.5;"/><path d="M278,625.6094 L278,635.6094 L288,635.6094 L278,625.6094 " fill="#FEFFDD" style="stroke:#181818;stroke-width:0.5;"/><text fill="#000000" font-family="sans-serif" font-size="13" font-weight="bold" lengthAdjust="spacing" textLength="79" x="63" y="644.1045">Coordinador</text><text fill="#000000" font-family="sans-serif" font-size="13" lengthAdjust="spacing" textLength="127" x="146" y="644.1045">solicita guardar y salir</text></g><!--link GuardandoDatos to *end*editarProyecto--><g id="link_GuardandoDatos_*end*editarProyecto"><path d="M208.24,588.2494 C240.71,600.6494 293,620.6094 293,620.6094 C293,620.6094 293,656.6094 293,656.6094 C293,656.6094 226.8945,673.4388 199.3645,680.4488 " fill="none" id="GuardandoDatos-to-*end*editarProyecto-1" style="stroke:#FF0000;stroke-width:1.0;"/><polygon fill="#FF0000" points="193.55,681.9294,203.2587,683.5849,198.3954,680.6956,201.2847,675.8322,193.55,681.9294" style="stroke:#FF0000;stroke-width:1.0;"/><path d="M298,625.6094 L298,651.6094 L541,651.6094 L541,635.6094 L531,625.6094 L298,625.6094 " fill="#FEFFDD" style="stroke:#181818;stroke-width:0.5;"/><path d="M531,625.6094 L531,635.6094 L541,635.6094 L531,625.6094 " fill="#FEFFDD" style="stroke:#181818;stroke-width:0.5;"/><text fill="#000000" font-family="sans-serif" font-size="13" font-weight="bold" lengthAdjust="spacing" textLength="79" x="304" y="644.1045">Coordinador</text><text fill="#000000" font-family="sans-serif" font-size="13" lengthAdjust="spacing" textLength="139" x="387" y="644.1045">solicita cancelar edici&#243;n</text></g><!--link PROYECTO_ABIERTO to editarProyecto--><g id="link_PROYECTO_ABIERTO_editarProyecto"><path d="M283.9,57.16 C274.31,71.53 264,87 264,87 C264,87 264,123 264,123 C264,123 264.6495,128.481 266.8195,146.941 " fill="none" id="PROYECTO_ABIERTO-to-editarProyecto" style="stroke:#008000;stroke-width:1.0;"/><polygon fill="#008000" points="267.52,152.9,270.4419,143.4946,266.9363,147.9342,262.4966,144.4285,267.52,152.9" style="stroke:#008000;stroke-width:1.0;"/></g><!--link editarProyecto to PROYECTO_ABIERTO--><g id="link_editarProyecto_PROYECTO_ABIERTO"><path d="M297.29,152.9 C297.11,134.44 297,123 297,123 C297,123 297,87 297,87 C297,87 297.5265,77.5207 298.3265,63.1507 " fill="none" id="editarProyecto-to-PROYECTO_ABIERTO" style="stroke:#008000;stroke-width:1.0;"/><polygon fill="#008000" points="298.66,57.16,294.1659,65.9237,298.3821,62.1523,302.1535,66.3684,298.66,57.16" style="stroke:#008000;stroke-width:1.0;"/><path d="M302,92 L302,118 L443,118 L443,102 L433,92 L302,92 " fill="#FEFFDD" style="stroke:#181818;stroke-width:0.5;"/><path d="M433,92 L433,102 L443,102 L433,92 " fill="#FEFFDD" style="stroke:#181818;stroke-width:0.5;"/><text fill="#000000" font-family="sans-serif" font-size="13" lengthAdjust="spacing" textLength="120" x="308" y="110.4951">proyecto actualizado</text></g><!--link editarProyecto to PROYECTO_ABIERTO--><g id="link_editarProyecto_PROYECTO_ABIERTO"><path d="M437.15,152.9 C446.32,134.44 452,123 452,123 C452,123 452,87 452,87 C452,87 414.1241,73.5377 373.6541,59.1677 " fill="none" id="editarProyecto-to-PROYECTO_ABIERTO-1" style="stroke:#FF0000;stroke-width:1.0;"/><polygon fill="#FF0000" points="368,57.16,375.1428,63.9409,372.7118,58.833,377.8197,56.4021,368,57.16" style="stroke:#FF0000;stroke-width:1.0;"/><path d="M457,92 L457,118 L582,118 L582,102 L572,92 L457,92 " fill="#FEFFDD" style="stroke:#181818;stroke-width:0.5;"/><path d="M572,92 L572,102 L582,102 L572,92 " fill="#FEFFDD" style="stroke:#181818;stroke-width:0.5;"/><text fill="#000000" font-family="sans-serif" font-size="13" lengthAdjust="spacing" textLength="104" x="463" y="110.4951">edici&#243;n cancelada</text></g><!--SRC=[hLCzJiCm5Dvz2giiW5IneweIq82OMfKkgAgGQxyMguvjsUuG419dOMVY2Bq99y5nyuEJ0WMHBF5xpzzVRBlYKXD3KYou19Tfm5g9B5yWD1eFRvEBoV3kxFmw6K-6k3izM1e0EUlsCJ3kY1aPbG5r2Y7hY8D65HEBEt7fyAY37n72_jdkwFZNZoNvb6HgG9ooxVRLcXXMzyF0z7WMAMf3IEKHbCozhKAXD-zVA6KObuGfqpkPzx5LWbE_iP2ETUaedmV90iYMC2A8g1lolkA-uTP1IWAlDc11UbuMq5Z8ZlBDc_JV8fRn_lo29vjNjnRrUW2M6gx3Zgfu2VIU130kFPZ26LxmkftuJ9cAyNTg0vDoBx_CnfnM4AbYVC6f3ugIL1TUyyOoH63QmYcH58JlbFvs91ldzvz_TQVUlSdz4VizPPb4XYqHtEp5Q83zcU-7W9yGQjpApmwRTnn5rBgwoDIjlPa7puvgBstSmiVtgDL1BvGpKcD-0000]--></g></svg>