<?xml version="1.0" encoding="us-ascii" standalone="no"?><svg xmlns="http://www.w3.org/2000/svg" xmlns:xlink="http://www.w3.org/1999/xlink" contentStyleType="text/css" height="745px" preserveAspectRatio="none" style="width:606px;height:745px;background:#FFFFFF;" version="1.1" viewBox="0 0 606 745" width="606px" zoomAndPan="magnify"><defs/><g><g id="PROYECTO_ABIERTO"><rect fill="#F1F1F1" height="50" rx="12.5" ry="12.5" style="stroke:#181818;stroke-width:0.5;" width="166" x="217" y="7"/><line style="stroke:#181818;stroke-width:0.5;" x1="217" x2="383" y1="34.6094" y2="34.6094"/><text fill="#000000" font-family="sans-serif" font-size="14" lengthAdjust="spacing" textLength="146" x="227" y="26.5332">PROYECTO_ABIERTO</text></g><path d="M19.5,153 L580.5,153 A12.5,12.5 0 0 1 593,165.5 L593,180.6094 L7,180.6094 L7,165.5 A12.5,12.5 0 0 1 19.5,153 " fill="#F1F1F1" style="stroke:#F1F1F1;stroke-width:1.0;"/><rect fill="none" height="586.6094" rx="12.5" ry="12.5" style="stroke:#181818;stroke-width:0.5;" width="586" x="7" y="153"/><line style="stroke:#181818;stroke-width:0.5;" x1="7" x2="593" y1="180.6094" y2="180.6094"/><text fill="#000000" font-family="sans-serif" font-size="14" lengthAdjust="spacing" textLength="102" x="249" y="172.5332">editarProyecto()</text><g id="editarProyecto.EditandoDatos"><rect fill="#F1F1F1" height="50" rx="12.5" ry="12.5" style="stroke:#181818;stroke-width:0.5;" width="50" x="158" y="283.6094"/><line style="stroke:#181818;stroke-width:0.5;" x1="158" x2="208" y1="311.2188" y2="311.2188"/><text fill="#000000" font-family="sans-serif" font-size="14" lengthAdjust="spacing" textLength="4" x="181" y="303.1426">&#160;</text></g><g id="editarProyecto.GuardandoDatos"><rect fill="#F1F1F1" height="50" rx="12.5" ry="12.5" style="stroke:#181818;stroke-width:0.5;" width="50" x="158" y="585.6094"/><line style="stroke:#181818;stroke-width:0.5;" x1="158" x2="208" y1="613.2188" y2="613.2188"/><text fill="#000000" font-family="sans-serif" font-size="14" lengthAdjust="spacing" textLength="4" x="181" y="605.1426">&#160;</text></g><ellipse cx="183" cy="201.6094" fill="#222222" rx="10" ry="10" style="stroke:#222222;stroke-width:1.0;"/><ellipse cx="183" cy="718.6094" fill="none" rx="11" ry="11" style="stroke:#222222;stroke-width:1.0;"/><ellipse cx="183" cy="718.6094" fill="#222222" rx="6" ry="6" style="stroke:#222222;stroke-width:1.0;"/><!--link *start*editarProyecto to EditandoDatos--><g id="link_*start*editarProyecto_EditandoDatos"><path d="M183,211.9294 C183,227.7894 183,254.5194 183,277.2494 " fill="none" id="*start*editarProyecto-to-EditandoDatos" style="stroke:#008000;stroke-width:1.0;"/><polygon fill="#008000" points="183,283.2494,187,274.2494,183,278.2494,179,274.2494,183,283.2494" style="stroke:#008000;stroke-width:1.0;"/><path d="M188,234.6094 L188,260.6094 L423,260.6094 L423,244.6094 L413,234.6094 L188,234.6094 " fill="#FEFFDD" style="stroke:#181818;stroke-width:0.5;"/><path d="M413,234.6094 L413,244.6094 L423,244.6094 L413,234.6094 " fill="#FEFFDD" style="stroke:#181818;stroke-width:0.5;"/><text fill="#000000" font-family="sans-serif" font-size="13" font-weight="bold" lengthAdjust="spacing" textLength="79" x="194" y="253.1045">Coordinador</text><text fill="#000000" font-family="sans-serif" font-size="13" lengthAdjust="spacing" textLength="131" x="277" y="253.1045">solicita editar proyecto</text></g><!--link EditandoDatos to GuardandoDatos--><g id="link_EditandoDatos_GuardandoDatos"><path d="M157.94,315.9894 C111.78,327.7394 18,351.6094 18,351.6094 C18,351.6094 18,567.6094 18,567.6094 C18,567.6094 105.9654,589.9993 152.1254,601.7493 " fill="none" id="EditandoDatos-to-GuardandoDatos" style="stroke:#008000;stroke-width:1.0;"/><polygon fill="#008000" points="157.94,603.2294,150.2049,597.1328,153.0945,601.996,148.2314,604.8856,157.94,603.2294" style="stroke:#008000;stroke-width:1.0;"/><path d="M23,356.6094 L23,562.6094 L323,562.6094 L323,366.6094 L313,356.6094 L23,356.6094 " fill="#FEFFDD" style="stroke:#181818;stroke-width:0.5;"/><path d="M313,356.6094 L313,366.6094 L323,366.6094 L313,356.6094 " fill="#FEFFDD" style="stroke:#181818;stroke-width:0.5;"/><text fill="#000000" font-family="sans-serif" font-size="13" font-weight="bold" lengthAdjust="spacing" textLength="51" x="29" y="375.1045">Sistema</text><text fill="#000000" font-family="sans-serif" font-size="13" lengthAdjust="spacing" textLength="224" x="84" y="375.1045">presenta datos de edici&#243;n del proyecto</text><text fill="#000000" font-family="sans-serif" font-size="13" lengthAdjust="spacing" textLength="21" x="29" y="391.4561">&#8226; ID</text><text fill="#000000" font-family="sans-serif" font-size="13" lengthAdjust="spacing" textLength="40" x="29" y="407.8076">&#8226; T&#237;tulo</text><text fill="#000000" font-family="sans-serif" font-size="13" lengthAdjust="spacing" textLength="125" x="29" y="424.1592">&#8226; Estado del proyecto</text><text fill="#000000" font-family="sans-serif" font-size="13" lengthAdjust="spacing" textLength="143" x="29" y="440.5107">&#8226; Nombre de coordinador</text><text fill="#000000" font-family="sans-serif" font-size="13" lengthAdjust="spacing" textLength="132" x="29" y="456.8623">&#8226; Fechas de inicio y fin</text><text fill="#000000" font-family="sans-serif" font-size="13" lengthAdjust="spacing" textLength="77" x="29" y="473.2139">&#8226; Descripci&#243;n</text><text fill="#000000" font-family="sans-serif" font-size="13" lengthAdjust="spacing" textLength="4" x="29" y="489.5654">&#160;</text><text fill="#000000" font-family="sans-serif" font-size="13" font-weight="bold" lengthAdjust="spacing" textLength="51" x="29" y="505.917">Sistema</text><text fill="#000000" font-family="sans-serif" font-size="13" lengthAdjust="spacing" textLength="96" x="84" y="505.917">permite solicitar:</text><text fill="#000000" font-family="sans-serif" font-size="13" lengthAdjust="spacing" textLength="111" x="29" y="522.2686">&#8226; modificar campos</text><text fill="#000000" font-family="sans-serif" font-size="13" lengthAdjust="spacing" textLength="106" x="29" y="538.6201">&#8226; guardar proyecto</text><text fill="#000000" font-family="sans-serif" font-size="13" lengthAdjust="spacing" textLength="103" x="29" y="554.9717">&#8226; cancelar edici&#243;n</text></g><!--link GuardandoDatos to EditandoDatos--><g id="link_GuardandoDatos_EditandoDatos"><path d="M208.26,602.2894 C249.8,590.2594 328,567.6094 328,567.6094 C328,567.6094 328,351.6094 328,351.6094 C328,351.6094 255.5632,330.6284 214.0232,318.5984 " fill="none" id="GuardandoDatos-to-EditandoDatos" style="stroke:#008000;stroke-width:1.0;"/><polygon fill="#008000" points="208.26,316.9294,215.7921,323.275,213.0627,318.3202,218.0175,315.5908,208.26,316.9294" style="stroke:#008000;stroke-width:1.0;"/><path d="M333,446.6094 L333,472.6094 L584,472.6094 L584,456.6094 L574,446.6094 L333,446.6094 " fill="#FEFFDD" style="stroke:#181818;stroke-width:0.5;"/><path d="M574,446.6094 L574,456.6094 L584,456.6094 L574,446.6094 " fill="#FEFFDD" style="stroke:#181818;stroke-width:0.5;"/><text fill="#000000" font-family="sans-serif" font-size="13" font-weight="bold" lengthAdjust="spacing" textLength="79" x="339" y="465.1045">Coordinador</text><text fill="#000000" font-family="sans-serif" font-size="13" lengthAdjust="spacing" textLength="147" x="422" y="465.1045">solicita modificar campos</text></g><!--link GuardandoDatos to *end*editarProyecto--><g id="link_GuardandoDatos_*end*editarProyecto"><path d="M157.74,619.7094 C119.67,631.9094 52,653.6094 52,653.6094 C52,653.6094 52,689.6094 52,689.6094 C52,689.6094 135.1226,707.3749 166.4126,714.0649 " fill="none" id="GuardandoDatos-to-*end*editarProyecto" style="stroke:#008000;stroke-width:1.0;"/><polygon fill="#008000" points="172.28,715.3194,164.3152,709.5261,167.3905,714.274,162.6426,717.3492,172.28,715.3194" style="stroke:#008000;stroke-width:1.0;"/><path d="M57,658.6094 L57,684.6094 L288,684.6094 L288,668.6094 L278,658.6094 L57,658.6094 " fill="#FEFFDD" style="stroke:#181818;stroke-width:0.5;"/><path d="M278,658.6094 L278,668.6094 L288,668.6094 L278,658.6094 " fill="#FEFFDD" style="stroke:#181818;stroke-width:0.5;"/><text fill="#000000" font-family="sans-serif" font-size="13" font-weight="bold" lengthAdjust="spacing" textLength="79" x="63" y="677.1045">Coordinador</text><text fill="#000000" font-family="sans-serif" font-size="13" lengthAdjust="spacing" textLength="127" x="146" y="677.1045">solicita guardar y salir</text></g><!--link GuardandoDatos to *end*editarProyecto--><g id="link_GuardandoDatos_*end*editarProyecto"><path d="M208.24,621.2494 C240.71,633.6494 293,653.6094 293,653.6094 C293,653.6094 293,689.6094 293,689.6094 C293,689.6094 226.8945,706.4388 199.3645,713.4488 " fill="none" id="GuardandoDatos-to-*end*editarProyecto-1" style="stroke:#FF0000;stroke-width:1.0;"/><polygon fill="#FF0000" points="193.55,714.9294,203.2587,716.5849,198.3954,713.6956,201.2847,708.8322,193.55,714.9294" style="stroke:#FF0000;stroke-width:1.0;"/><path d="M298,658.6094 L298,684.6094 L541,684.6094 L541,668.6094 L531,658.6094 L298,658.6094 " fill="#FEFFDD" style="stroke:#181818;stroke-width:0.5;"/><path d="M531,658.6094 L531,668.6094 L541,668.6094 L531,658.6094 " fill="#FEFFDD" style="stroke:#181818;stroke-width:0.5;"/><text fill="#000000" font-family="sans-serif" font-size="13" font-weight="bold" lengthAdjust="spacing" textLength="79" x="304" y="677.1045">Coordinador</text><text fill="#000000" font-family="sans-serif" font-size="13" lengthAdjust="spacing" textLength="139" x="387" y="677.1045">solicita cancelar edici&#243;n</text></g><!--link PROYECTO_ABIERTO to editarProyecto--><g id="link_PROYECTO_ABIERTO_editarProyecto"><path d="M283.9,57.16 C274.31,71.53 264,87 264,87 C264,87 264,123 264,123 C264,123 264.6063,128.3768 266.6563,146.7968 " fill="none" id="PROYECTO_ABIERTO-to-editarProyecto" style="stroke:#008000;stroke-width:1.0;"/><polygon fill="#008000" points="267.32,152.76,270.3,143.3728,266.767,147.7907,262.3491,144.2577,267.32,152.76" style="stroke:#008000;stroke-width:1.0;"/></g><!--link editarProyecto to PROYECTO_ABIERTO--><g id="link_editarProyecto_PROYECTO_ABIERTO"><path d="M297.28,152.76 C297.11,134.34 297,123 297,123 C297,123 297,87 297,87 C297,87 297.5265,77.5207 298.3265,63.1507 " fill="none" id="editarProyecto-to-PROYECTO_ABIERTO" style="stroke:#008000;stroke-width:1.0;"/><polygon fill="#008000" points="298.66,57.16,294.1659,65.9237,298.3821,62.1523,302.1535,66.3684,298.66,57.16" style="stroke:#008000;stroke-width:1.0;"/><path d="M302,92 L302,118 L443,118 L443,102 L433,92 L302,92 " fill="#FEFFDD" style="stroke:#181818;stroke-width:0.5;"/><path d="M433,92 L433,102 L443,102 L433,92 " fill="#FEFFDD" style="stroke:#181818;stroke-width:0.5;"/><text fill="#000000" font-family="sans-serif" font-size="13" lengthAdjust="spacing" textLength="120" x="308" y="110.4951">proyecto actualizado</text></g><!--link editarProyecto to PROYECTO_ABIERTO--><g id="link_editarProyecto_PROYECTO_ABIERTO"><path d="M437.97,152.76 C446.66,134.34 452,123 452,123 C452,123 452,87 452,87 C452,87 414.1241,73.5377 373.6541,59.1677 " fill="none" id="editarProyecto-to-PROYECTO_ABIERTO-1" style="stroke:#FF0000;stroke-width:1.0;"/><polygon fill="#FF0000" points="368,57.16,375.1428,63.9409,372.7118,58.833,377.8197,56.4021,368,57.16" style="stroke:#FF0000;stroke-width:1.0;"/><path d="M457,92 L457,118 L582,118 L582,102 L572,92 L457,92 " fill="#FEFFDD" style="stroke:#181818;stroke-width:0.5;"/><path d="M572,92 L572,102 L582,102 L572,92 " fill="#FEFFDD" style="stroke:#181818;stroke-width:0.5;"/><text fill="#000000" font-family="sans-serif" font-size="13" lengthAdjust="spacing" textLength="104" x="463" y="110.4951">edici&#243;n cancelada</text></g><!--SRC=[hLGzJiCm5Dvz2giiW5IneweIq82wqAfqGLM5NFkrM7LiotQ7W90u2piJH-XDE0cEcn_o0nH4iYH-xtr_ZcFNN6fYI8m5b-0I3LWhaQGl28qdezleOZgwEpiVHfFf27Td1oi38EVTFWR67J5ZenAWJY5a7N5GMyN4uavrwV2eWnyHmlxQJNJyxTkYj4ioDI1EsMRvQaCCA-kXONOyhoXgGaZb4PHClQt3Gc_Hlr3AC2u9KwPtikXZgmIdVZ2JZdNkAEq7oGB8Zh12KA6koVkA-uPR1p49lDg01UbvMK1Z8JlAjs_IFukgZFVd5pmS58_JxQlRYB8K-QYOQX-xLl72G0fFI-D5zHBeFGdaN7foXHEyvB8e3y1ImtLGXLfDW8cvzvc7Q4wBsLWnlkJK9qf9hBDGqi8gP6MQKYcH58Ilv46qR44rwF_S_bQzUvFxR_7tb7aI2RP4SBCNem7sPxuV0dv2g7PyFpki_mnGXLeN9vwwZJVpuDbHwQM9c_du7hKu4PboHahC3m00]--></g></svg>