<?xml version="1.0" encoding="us-ascii" standalone="no"?><svg xmlns="http://www.w3.org/2000/svg" xmlns:xlink="http://www.w3.org/1999/xlink" contentStyleType="text/css" height="857px" preserveAspectRatio="none" style="width:1721px;height:857px;background:#FFFFFF;" version="1.1" viewBox="0 0 1721 857" width="1721px" zoomAndPan="magnify"><defs/><g><g id="in1"><rect fill="#F1F1F1" height="50" rx="12.5" ry="12.5" style="stroke:#181818;stroke-width:0.5;" width="166" x="745" y="7"/><line style="stroke:#181818;stroke-width:0.5;" x1="745" x2="911" y1="34.6094" y2="34.6094"/><text fill="#000000" font-family="sans-serif" font-size="14" lengthAdjust="spacing" textLength="146" x="755" y="26.5332">PROYECTO_ABIERTO</text></g><path d="M547.5,118 L1108.5,118 A12.5,12.5 0 0 1 1121,130.5 L1121,145.6094 L535,145.6094 L535,130.5 A12.5,12.5 0 0 1 547.5,118 " fill="#F1F1F1" style="stroke:#F1F1F1;stroke-width:1.0;"/><rect fill="none" height="586.6094" rx="12.5" ry="12.5" style="stroke:#181818;stroke-width:0.5;" width="586" x="535" y="118"/><line style="stroke:#181818;stroke-width:0.5;" x1="535" x2="1121" y1="145.6094" y2="145.6094"/><text fill="#000000" font-family="sans-serif" font-size="14" lengthAdjust="spacing" textLength="102" x="777" y="137.5332">editarProyecto()</text><g id="editarProyecto.EditandoDatos"><rect fill="#F1F1F1" height="50" rx="12.5" ry="12.5" style="stroke:#181818;stroke-width:0.5;" width="50" x="686" y="248.6094"/><line style="stroke:#181818;stroke-width:0.5;" x1="686" x2="736" y1="276.2188" y2="276.2188"/><text fill="#000000" font-family="sans-serif" font-size="14" lengthAdjust="spacing" textLength="4" x="709" y="268.1426">&#160;</text></g><g id="editarProyecto.GuardandoDatos"><rect fill="#F1F1F1" height="50" rx="12.5" ry="12.5" style="stroke:#181818;stroke-width:0.5;" width="50" x="686" y="550.6094"/><line style="stroke:#181818;stroke-width:0.5;" x1="686" x2="736" y1="578.2188" y2="578.2188"/><text fill="#000000" font-family="sans-serif" font-size="14" lengthAdjust="spacing" textLength="4" x="709" y="570.1426">&#160;</text></g><ellipse cx="711" cy="166.6094" fill="#222222" rx="10" ry="10" style="stroke:#222222;stroke-width:1.0;"/><ellipse cx="711" cy="683.6094" fill="none" rx="11" ry="11" style="stroke:#222222;stroke-width:1.0;"/><ellipse cx="711" cy="683.6094" fill="#222222" rx="6" ry="6" style="stroke:#222222;stroke-width:1.0;"/><!--link *start*editarProyecto to EditandoDatos--><g id="link_*start*editarProyecto_EditandoDatos"><path d="M711,176.9294 C711,192.7894 711,219.5194 711,242.2494 " fill="none" id="*start*editarProyecto-to-EditandoDatos" style="stroke:#008000;stroke-width:1.0;"/><polygon fill="#008000" points="711,248.2494,715,239.2494,711,243.2494,707,239.2494,711,248.2494" style="stroke:#008000;stroke-width:1.0;"/><path d="M716,199.6094 L716,225.6094 L951,225.6094 L951,209.6094 L941,199.6094 L716,199.6094 " fill="#FEFFDD" style="stroke:#181818;stroke-width:0.5;"/><path d="M941,199.6094 L941,209.6094 L951,209.6094 L941,199.6094 " fill="#FEFFDD" style="stroke:#181818;stroke-width:0.5;"/><text fill="#000000" font-family="sans-serif" font-size="13" font-weight="bold" lengthAdjust="spacing" textLength="79" x="722" y="218.1045">Coordinador</text><text fill="#000000" font-family="sans-serif" font-size="13" lengthAdjust="spacing" textLength="131" x="805" y="218.1045">solicita editar proyecto</text></g><!--link EditandoDatos to GuardandoDatos--><g id="link_EditandoDatos_GuardandoDatos"><path d="M685.94,280.9894 C639.78,292.7394 546,316.6094 546,316.6094 C546,316.6094 546,532.6094 546,532.6094 C546,532.6094 633.9654,554.9993 680.1254,566.7493 " fill="none" id="EditandoDatos-to-GuardandoDatos" style="stroke:#008000;stroke-width:1.0;"/><polygon fill="#008000" points="685.94,568.2294,678.2049,562.1328,681.0945,566.996,676.2314,569.8856,685.94,568.2294" style="stroke:#008000;stroke-width:1.0;"/><path d="M551,321.6094 L551,527.6094 L851,527.6094 L851,331.6094 L841,321.6094 L551,321.6094 " fill="#FEFFDD" style="stroke:#181818;stroke-width:0.5;"/><path d="M841,321.6094 L841,331.6094 L851,331.6094 L841,321.6094 " fill="#FEFFDD" style="stroke:#181818;stroke-width:0.5;"/><text fill="#000000" font-family="sans-serif" font-size="13" font-weight="bold" lengthAdjust="spacing" textLength="51" x="557" y="340.1045">Sistema</text><text fill="#000000" font-family="sans-serif" font-size="13" lengthAdjust="spacing" textLength="224" x="612" y="340.1045">presenta datos de edici&#243;n del proyecto</text><text fill="#000000" font-family="sans-serif" font-size="13" lengthAdjust="spacing" textLength="21" x="557" y="356.4561">&#8226; ID</text><text fill="#000000" font-family="sans-serif" font-size="13" lengthAdjust="spacing" textLength="40" x="557" y="372.8076">&#8226; T&#237;tulo</text><text fill="#000000" font-family="sans-serif" font-size="13" lengthAdjust="spacing" textLength="125" x="557" y="389.1592">&#8226; Estado del proyecto</text><text fill="#000000" font-family="sans-serif" font-size="13" lengthAdjust="spacing" textLength="143" x="557" y="405.5107">&#8226; Nombre de coordinador</text><text fill="#000000" font-family="sans-serif" font-size="13" lengthAdjust="spacing" textLength="132" x="557" y="421.8623">&#8226; Fechas de inicio y fin</text><text fill="#000000" font-family="sans-serif" font-size="13" lengthAdjust="spacing" textLength="77" x="557" y="438.2139">&#8226; Descripci&#243;n</text><text fill="#000000" font-family="sans-serif" font-size="13" lengthAdjust="spacing" textLength="4" x="557" y="454.5654">&#160;</text><text fill="#000000" font-family="sans-serif" font-size="13" font-weight="bold" lengthAdjust="spacing" textLength="51" x="557" y="470.917">Sistema</text><text fill="#000000" font-family="sans-serif" font-size="13" lengthAdjust="spacing" textLength="96" x="612" y="470.917">permite solicitar:</text><text fill="#000000" font-family="sans-serif" font-size="13" lengthAdjust="spacing" textLength="111" x="557" y="487.2686">&#8226; modificar campos</text><text fill="#000000" font-family="sans-serif" font-size="13" lengthAdjust="spacing" textLength="106" x="557" y="503.6201">&#8226; guardar proyecto</text><text fill="#000000" font-family="sans-serif" font-size="13" lengthAdjust="spacing" textLength="103" x="557" y="519.9717">&#8226; cancelar edici&#243;n</text></g><!--link GuardandoDatos to EditandoDatos--><g id="link_GuardandoDatos_EditandoDatos"><path d="M736.26,567.2894 C777.8,555.2594 856,532.6094 856,532.6094 C856,532.6094 856,316.6094 856,316.6094 C856,316.6094 783.5632,295.6284 742.0232,283.5984 " fill="none" id="GuardandoDatos-to-EditandoDatos" style="stroke:#008000;stroke-width:1.0;"/><polygon fill="#008000" points="736.26,281.9294,743.7921,288.275,741.0627,283.3202,746.0175,280.5908,736.26,281.9294" style="stroke:#008000;stroke-width:1.0;"/><path d="M861,411.6094 L861,437.6094 L1112,437.6094 L1112,421.6094 L1102,411.6094 L861,411.6094 " fill="#FEFFDD" style="stroke:#181818;stroke-width:0.5;"/><path d="M1102,411.6094 L1102,421.6094 L1112,421.6094 L1102,411.6094 " fill="#FEFFDD" style="stroke:#181818;stroke-width:0.5;"/><text fill="#000000" font-family="sans-serif" font-size="13" font-weight="bold" lengthAdjust="spacing" textLength="79" x="867" y="430.1045">Coordinador</text><text fill="#000000" font-family="sans-serif" font-size="13" lengthAdjust="spacing" textLength="147" x="950" y="430.1045">solicita modificar campos</text></g><!--link GuardandoDatos to *end*editarProyecto--><g id="link_GuardandoDatos_*end*editarProyecto"><path d="M685.74,584.7094 C647.67,596.9094 580,618.6094 580,618.6094 C580,618.6094 580,654.6094 580,654.6094 C580,654.6094 663.1226,672.3749 694.4126,679.0649 " fill="none" id="GuardandoDatos-to-*end*editarProyecto" style="stroke:#008000;stroke-width:1.0;"/><polygon fill="#008000" points="700.28,680.3194,692.3152,674.5261,695.3905,679.274,690.6426,682.3492,700.28,680.3194" style="stroke:#008000;stroke-width:1.0;"/><path d="M585,623.6094 L585,649.6094 L816,649.6094 L816,633.6094 L806,623.6094 L585,623.6094 " fill="#FEFFDD" style="stroke:#181818;stroke-width:0.5;"/><path d="M806,623.6094 L806,633.6094 L816,633.6094 L806,623.6094 " fill="#FEFFDD" style="stroke:#181818;stroke-width:0.5;"/><text fill="#000000" font-family="sans-serif" font-size="13" font-weight="bold" lengthAdjust="spacing" textLength="79" x="591" y="642.1045">Coordinador</text><text fill="#000000" font-family="sans-serif" font-size="13" lengthAdjust="spacing" textLength="127" x="674" y="642.1045">solicita guardar y salir</text></g><!--link GuardandoDatos to *end*editarProyecto--><g id="link_GuardandoDatos_*end*editarProyecto"><path d="M736.24,586.2494 C768.71,598.6494 821,618.6094 821,618.6094 C821,618.6094 821,654.6094 821,654.6094 C821,654.6094 754.8945,671.4388 727.3645,678.4488 " fill="none" id="GuardandoDatos-to-*end*editarProyecto-1" style="stroke:#FF0000;stroke-width:1.0;"/><polygon fill="#FF0000" points="721.55,679.9294,731.2587,681.5849,726.3954,678.6956,729.2847,673.8322,721.55,679.9294" style="stroke:#FF0000;stroke-width:1.0;"/><path d="M826,623.6094 L826,649.6094 L1069,649.6094 L1069,633.6094 L1059,623.6094 L826,623.6094 " fill="#FEFFDD" style="stroke:#181818;stroke-width:0.5;"/><path d="M1059,623.6094 L1059,633.6094 L1069,633.6094 L1059,623.6094 " fill="#FEFFDD" style="stroke:#181818;stroke-width:0.5;"/><text fill="#000000" font-family="sans-serif" font-size="13" font-weight="bold" lengthAdjust="spacing" textLength="79" x="832" y="642.1045">Coordinador</text><text fill="#000000" font-family="sans-serif" font-size="13" lengthAdjust="spacing" textLength="139" x="915" y="642.1045">solicita cancelar edici&#243;n</text></g><g id="PROYECTO_ABIERTO"><rect fill="#F1F1F1" height="50" rx="12.5" ry="12.5" style="stroke:#181818;stroke-width:0.5;" width="166" x="296" y="801"/><line style="stroke:#181818;stroke-width:0.5;" x1="296" x2="462" y1="828.6094" y2="828.6094"/><text fill="#000000" font-family="sans-serif" font-size="14" lengthAdjust="spacing" textLength="146" x="306" y="820.5332">PROYECTO_ABIERTO</text></g><g id="PROYECTOS_ABIERTOS"><rect fill="#F1F1F1" height="50" rx="12.5" ry="12.5" style="stroke:#181818;stroke-width:0.5;" width="184" x="888" y="801"/><line style="stroke:#181818;stroke-width:0.5;" x1="888" x2="1072" y1="828.6094" y2="828.6094"/><text fill="#000000" font-family="sans-serif" font-size="14" lengthAdjust="spacing" textLength="164" x="898" y="820.5332">PROYECTOS_ABIERTOS</text></g><g id="ENTREGABLES_ABIERTOS"><rect fill="#F1F1F1" height="50" rx="12.5" ry="12.5" style="stroke:#181818;stroke-width:0.5;" width="198" x="1214" y="801"/><line style="stroke:#181818;stroke-width:0.5;" x1="1214" x2="1412" y1="828.6094" y2="828.6094"/><text fill="#000000" font-family="sans-serif" font-size="14" lengthAdjust="spacing" textLength="178" x="1224" y="820.5332">ENTREGABLES_ABIERTOS</text></g><g id="INVESTIGADORES_ABIERTOS"><rect fill="#F1F1F1" height="50" rx="12.5" ry="12.5" style="stroke:#181818;stroke-width:0.5;" width="217" x="1497.5" y="801"/><line style="stroke:#181818;stroke-width:0.5;" x1="1497.5" x2="1714.5" y1="828.6094" y2="828.6094"/><text fill="#000000" font-family="sans-serif" font-size="14" lengthAdjust="spacing" textLength="197" x="1507.5" y="820.5332">INVESTIGADORES_ABIERTOS</text></g><!--link in1 to editarProyecto--><g id="link_in1_editarProyecto"><path d="M828,57.19 C828,72.24 828,87.39 828,111.93 " fill="none" id="in1-to-editarProyecto" style="stroke:#008000;stroke-width:1.0;"/><polygon fill="#008000" points="828,117.93,832,108.93,828,112.93,824,108.93,828,117.93" style="stroke:#008000;stroke-width:1.0;"/></g><!--link editarProyecto to PROYECTO_ABIERTO--><g id="link_editarProyecto_PROYECTO_ABIERTO"><path d="M534.72,527.56 C298.65,620.18 6,735 6,735 C6,735 6,771 6,771 C6,771 179.8819,796.1701 289.8219,812.0901 " fill="none" id="editarProyecto-to-PROYECTO_ABIERTO" style="stroke:#008000;stroke-width:1.0;"/><polygon fill="#008000" points="295.76,812.95,287.4261,807.7015,290.8116,812.2334,286.2797,815.6189,295.76,812.95" style="stroke:#008000;stroke-width:1.0;"/><path d="M11,740 L11,766 L154,766 L154,750 L144,740 L11,740 " fill="#FEFFDD" style="stroke:#181818;stroke-width:0.5;"/><path d="M144,740 L144,750 L154,750 L144,740 " fill="#FEFFDD" style="stroke:#181818;stroke-width:0.5;"/><text fill="#000000" font-family="sans-serif" font-size="13" lengthAdjust="spacing" textLength="122" x="17" y="758.4951">Proyecto actualizado</text></g><!--link editarProyecto to PROYECTO_ABIERTO--><g id="link_editarProyecto_PROYECTO_ABIERTO"><path d="M534.68,562.89 C370.7,646.97 199,735 199,735 C199,735 199,771 199,771 C199,771 244.993,784.7959 292.993,799.1959 " fill="none" id="editarProyecto-to-PROYECTO_ABIERTO-1" style="stroke:#FF0000;stroke-width:1.0;"/><polygon fill="#FF0000" points="298.74,800.92,291.269,794.5026,293.9509,799.4833,288.9702,802.1652,298.74,800.92" style="stroke:#FF0000;stroke-width:1.0;"/><path d="M204,740 L204,766 L331,766 L331,750 L321,740 L204,740 " fill="#FEFFDD" style="stroke:#181818;stroke-width:0.5;"/><path d="M321,740 L321,750 L331,750 L321,740 " fill="#FEFFDD" style="stroke:#181818;stroke-width:0.5;"/><text fill="#000000" font-family="sans-serif" font-size="13" lengthAdjust="spacing" textLength="106" x="210" y="758.4951">Edici&#243;n cancelada</text></g><!--link editarProyecto to PROYECTO_ABIERTO--><g id="link_editarProyecto_PROYECTO_ABIERTO"><path d="M534.72,621.75 C448.11,683.55 376,735 376,735 C376,735 376,771 376,771 C376,771 376.5265,780.4793 377.3265,794.8493 " fill="none" id="editarProyecto-to-PROYECTO_ABIERTO-2" style="stroke:#008000;stroke-width:1.0;"/><polygon fill="#008000" points="377.66,800.84,381.1535,791.6316,377.3821,795.8477,373.1659,792.0763,377.66,800.84" style="stroke:#008000;stroke-width:1.0;"/><path d="M381,740 L381,766 L494,766 L494,750 L484,740 L381,740 " fill="#FEFFDD" style="stroke:#181818;stroke-width:0.5;"/><path d="M484,740 L484,750 L494,750 L484,740 " fill="#FEFFDD" style="stroke:#181818;stroke-width:0.5;"/><text fill="#000000" font-family="sans-serif" font-size="13" lengthAdjust="spacing" textLength="92" x="387" y="758.4951">editarProyecto()</text></g><!--link editarProyecto to PROYECTO_ABIERTO--><g id="link_editarProyecto_PROYECTO_ABIERTO"><path d="M562.61,705.25 C527.3,744.2 503,771 503,771 C503,771 472.9916,784.0758 439.9716,798.4458 " fill="none" id="editarProyecto-to-PROYECTO_ABIERTO-3" style="stroke:#008000;stroke-width:1.0;"/><polygon fill="#008000" points="434.47,800.84,444.3186,800.9164,439.0547,798.8448,441.1262,793.5809,434.47,800.84" style="stroke:#008000;stroke-width:1.0;"/><path d="M536,740 L536,766 L676,766 L676,750 L666,740 L536,740 " fill="#FEFFDD" style="stroke:#181818;stroke-width:0.5;"/><path d="M666,740 L666,750 L676,750 L666,740 " fill="#FEFFDD" style="stroke:#181818;stroke-width:0.5;"/><text fill="#000000" font-family="sans-serif" font-size="13" lengthAdjust="spacing" textLength="119" x="542" y="758.4951">agregarInvestigador()</text></g><!--link editarProyecto to PROYECTO_ABIERTO--><g id="link_editarProyecto_PROYECTO_ABIERTO"><path d="M714.49,705.25 C699.39,744.2 689,771 689,771 C689,771 559.8109,793.5001 467.9809,809.5001 " fill="none" id="editarProyecto-to-PROYECTO_ABIERTO-4" style="stroke:#008000;stroke-width:1.0;"/><polygon fill="#008000" points="462.07,810.53,471.623,812.9258,466.9958,809.6718,470.2498,805.0445,462.07,810.53" style="stroke:#008000;stroke-width:1.0;"/><path d="M706,740 L706,766 L848,766 L848,750 L838,740 L706,740 " fill="#FEFFDD" style="stroke:#181818;stroke-width:0.5;"/><path d="M838,740 L838,750 L848,750 L838,740 " fill="#FEFFDD" style="stroke:#181818;stroke-width:0.5;"/><text fill="#000000" font-family="sans-serif" font-size="13" lengthAdjust="spacing" textLength="121" x="712" y="758.4951">eliminarInvestigador()</text></g><!--link editarProyecto to PROYECTOS_ABIERTOS--><g id="link_editarProyecto_PROYECTOS_ABIERTOS"><path d="M903.94,705.25 C914.05,744.2 921,771 921,771 C921,771 933.4727,782.4204 949.1827,796.7904 " fill="none" id="editarProyecto-to-PROYECTOS_ABIERTOS" style="stroke:#008000;stroke-width:1.0;"/><polygon fill="#008000" points="953.61,800.84,949.6689,791.8141,949.9206,797.4653,944.2694,797.7171,953.61,800.84" style="stroke:#008000;stroke-width:1.0;"/><path d="M926,740 L926,766 L1052,766 L1052,750 L1042,740 L926,740 " fill="#FEFFDD" style="stroke:#181818;stroke-width:0.5;"/><path d="M1042,740 L1042,750 L1052,750 L1042,740 " fill="#FEFFDD" style="stroke:#181818;stroke-width:0.5;"/><text fill="#000000" font-family="sans-serif" font-size="13" lengthAdjust="spacing" textLength="105" x="932" y="758.4951">eliminarProyecto()</text></g><!--link editarProyecto to PROYECTOS_ABIERTOS--><g id="link_editarProyecto_PROYECTOS_ABIERTOS"><path d="M1039.5,705.24 C1052.81,723.66 1061,735 1061,735 C1061,735 1061,771 1061,771 C1061,771 1042.7927,783.1423 1021.2327,797.5123 " fill="none" id="editarProyecto-to-PROYECTOS_ABIERTOS-1" style="stroke:#008000;stroke-width:1.0;"/><polygon fill="#008000" points="1016.24,800.84,1025.9474,799.1769,1020.4005,798.0669,1021.5105,792.5201,1016.24,800.84" style="stroke:#008000;stroke-width:1.0;"/><path d="M1066,740 L1066,766 L1179,766 L1179,750 L1169,740 L1066,740 " fill="#FEFFDD" style="stroke:#181818;stroke-width:0.5;"/><path d="M1169,740 L1169,750 L1179,750 L1169,740 " fill="#FEFFDD" style="stroke:#181818;stroke-width:0.5;"/><text fill="#000000" font-family="sans-serif" font-size="13" lengthAdjust="spacing" textLength="92" x="1072" y="758.4951">abrirProyectos()</text></g><!--link editarProyecto to ENTREGABLES_ABIERTOS--><g id="link_editarProyecto_ENTREGABLES_ABIERTOS"><path d="M1121.32,661.97 C1188.54,719.15 1245.7494,767.8029 1280.1194,797.0329 " fill="none" id="editarProyecto-to-ENTREGABLES_ABIERTOS" style="stroke:#008000;stroke-width:1.0;"/><polygon fill="#008000" points="1284.69,800.92,1280.4255,792.0423,1280.8812,797.6808,1275.2427,798.1364,1284.69,800.92" style="stroke:#008000;stroke-width:1.0;"/><path d="M1248,740 L1248,766 L1371,766 L1371,750 L1361,740 L1248,740 " fill="#FEFFDD" style="stroke:#181818;stroke-width:0.5;"/><path d="M1361,740 L1361,750 L1371,750 L1361,740 " fill="#FEFFDD" style="stroke:#181818;stroke-width:0.5;"/><text fill="#000000" font-family="sans-serif" font-size="13" lengthAdjust="spacing" textLength="102" x="1254" y="758.4951">abrirEntregables()</text></g><!--link editarProyecto to ENTREGABLES_ABIERTOS--><g id="link_editarProyecto_ENTREGABLES_ABIERTOS"><path d="M1121.06,582.49 C1254.86,660.1 1384,735 1384,735 C1384,735 1384,771 1384,771 C1384,771 1368.4472,782.8398 1349.5372,797.2098 " fill="none" id="editarProyecto-to-ENTREGABLES_ABIERTOS-1" style="stroke:#008000;stroke-width:1.0;"/><polygon fill="#008000" points="1344.76,800.84,1354.3459,798.5794,1348.741,797.8148,1349.5056,792.2099,1344.76,800.84" style="stroke:#008000;stroke-width:1.0;"/><path d="M1389,740 L1389,766 L1509,766 L1509,750 L1499,740 L1389,740 " fill="#FEFFDD" style="stroke:#181818;stroke-width:0.5;"/><path d="M1499,740 L1499,750 L1509,750 L1499,740 " fill="#FEFFDD" style="stroke:#181818;stroke-width:0.5;"/><text fill="#000000" font-family="sans-serif" font-size="13" lengthAdjust="spacing" textLength="99" x="1395" y="758.4951">crearEntregable()</text></g><!--link editarProyecto to INVESTIGADORES_ABIERTOS--><g id="link_editarProyecto_INVESTIGADORES_ABIERTOS"><path d="M1121.06,548.68 C1310.53,636.73 1522,735 1522,735 C1522,735 1554.5163,769.8334 1579.3963,796.4934 " fill="none" id="editarProyecto-to-INVESTIGADORES_ABIERTOS" style="stroke:#008000;stroke-width:1.0;"/><polygon fill="#008000" points="1583.49,800.88,1580.2739,791.5711,1580.0786,797.2245,1574.4251,797.0293,1583.49,800.88" style="stroke:#008000;stroke-width:1.0;"/><path d="M1559,740 L1559,766 L1695,766 L1695,750 L1685,740 L1559,740 " fill="#FEFFDD" style="stroke:#181818;stroke-width:0.5;"/><path d="M1685,740 L1685,750 L1695,750 L1685,740 " fill="#FEFFDD" style="stroke:#181818;stroke-width:0.5;"/><text fill="#000000" font-family="sans-serif" font-size="13" lengthAdjust="spacing" textLength="115" x="1565" y="758.4951">abrirInvestigadores()</text></g><!--SRC=[hPJHQjim58RlzHGYk-a6PUnsb43QgC4mafAOmIYboD9f9cfBvaWfU6EmPzdzhlO8VPCzIMKrZcF7JTsGvCRMqVd-__osRE-LpZdoZAPAWojoeBb9Y_A64Eku0whq9yej7LpDPz_OHJox7Pr7R1xF1gIid5w_MoA0lZaTKf3ASRn2Ku1mfkflhWPKS-da_O3-98JwttF7mF_zDbRkqjACkJDsjpnPSPHrFMou_d3JSBIBqCOJZ2x7lGyBPydmmXYKIdDfyEnZCgJMf4hunhLrcbSJbVj1om1v5cm8DAHRzbxINYZh8ED1DqUmeBsk33GPiXFgyP_srsdJnl_VVsWqtbp6Zt_TAgrBp4SbJNVRr6G9GeaNzU2RwYM8xpo8A-t53ItedTARyXYiG9K7LwHp2C1C-Jch4F7pfZSpKjqfuHCLFClNePI5PSWATwqAhWMalb85qV48ca4Vy_5t-kqjxj_5jqjMIHJKybHXBqK4UR3UAm7_8gHrVBSdR7yHI4EwFl72hVmmFxmwgMVPvQxds4zbrObOEvTyBxEdr_O7wMtCHGLTjAYfodpe1tExlNA_RyanqWzWdLgMp_GuuChk8MGsZUTiCZh_mbuAWoUea6bNcazIiCSZ2mI-HUuBZgPVsIAE9gFnRBxVzNOW_Os_zdO4TDNPe3u1]--></g></svg>