<svg xmlns="http://www.w3.org/2000/svg" xmlns:xlink="http://www.w3.org/1999/xlink" contentStyleType="text/css" data-diagram-type="STATE" height="635px" preserveAspectRatio="none" style="width:405px;height:635px;background:#FFFFFF;" version="1.1" viewBox="0 0 405 635" width="405px" zoomAndPan="magnify"><defs/><g><path d="M19.5,7 L353.5,7 A12.5,12.5 0 0 1 366,19.5 L366,33.2969 L7,33.2969 L7,19.5 A12.5,12.5 0 0 1 19.5,7" fill="#F1F1F1"/><rect fill="none" height="477.2969" rx="12.5" ry="12.5" style="stroke:#181818;stroke-width:0.5;" width="359" x="7" y="7"/><line style="stroke:#181818;stroke-width:0.5;" x1="7" x2="366" y1="33.2969" y2="33.2969"/><text fill="#000000" font-family="sans-serif" font-size="14" lengthAdjust="spacing" textLength="141.5723" x="115.7139" y="24.9951">abrirRecompensas()</text><g><rect fill="#F1F1F1" height="50" rx="12.5" ry="12.5" style="stroke:#181818;stroke-width:0.5;" width="50" x="19" y="135.2969"/><line style="stroke:#181818;stroke-width:0.5;" x1="19" x2="69" y1="161.5938" y2="161.5938"/><text fill="#000000" font-family="sans-serif" font-size="14" lengthAdjust="spacing" textLength="4.4502" x="41.7749" y="153.292">&#160;</text></g><g><rect fill="#F1F1F1" height="50" rx="12.5" ry="12.5" style="stroke:#181818;stroke-width:0.5;" width="50" x="19" y="331.2969"/><line style="stroke:#181818;stroke-width:0.5;" x1="19" x2="69" y1="357.5938" y2="357.5938"/><text fill="#000000" font-family="sans-serif" font-size="14" lengthAdjust="spacing" textLength="4.4502" x="41.7749" y="349.292">&#160;</text></g><ellipse cx="44" cy="54.2969" fill="#222222" rx="10" ry="10" style="stroke:#222222;stroke-width:1;"/><ellipse cx="44" cy="463.2969" fill="none" rx="11" ry="11" style="stroke:#222222;stroke-width:1;"/><ellipse cx="44" cy="463.2969" fill="#222222" rx="6" ry="6" style="stroke:#222222;stroke-width:1;"/><!--link *start*abrirRecompensas to MostrandoListado--><g class="link" data-entity-1="ent0002" data-entity-2="ent0003" data-link-type="dependency" data-source-line="8" id="lnk3"><path d="M44,64.5269 C44,80.2369 44,106.6569 44,129.1669" fill="none" id="*start*abrirRecompensas-to-MostrandoListado" style="stroke:#008000;stroke-width:1;"/><polygon fill="#008000" points="44,135.1669,48,126.1669,44,130.1669,40,126.1669,44,135.1669" style="stroke:#008000;stroke-width:1;"/><path d="M49,87.2969 L49,112.2969 L336,112.2969 L336,97.2969 L326,87.2969 L49,87.2969" fill="#FEFFDD" style="stroke:#181818;stroke-width:0.5;"/><path d="M326,87.2969 L326,97.2969 L336,97.2969 L326,87.2969" fill="#FEFFDD" style="stroke:#181818;stroke-width:0.5;"/><text fill="#000000" font-family="sans-serif" font-size="13" font-weight="bold" lengthAdjust="spacing" textLength="90.251" x="55" y="104.3638">Coordinador</text><text fill="#000000" font-family="sans-serif" font-size="13" lengthAdjust="spacing" textLength="171.666" x="149.3833" y="104.3638">solicita abrir recompensas</text></g><!--link MostrandoListado to FiltrandoListado--><g class="link" data-entity-1="ent0003" data-entity-2="ent0004" data-link-type="dependency" data-source-line="13" id="lnk4"><path d="M44,185.4769 C44,222.6469 44,287.4569 44,324.8169" fill="none" id="MostrandoListado-to-FiltrandoListado" style="stroke:#008000;stroke-width:1;"/><polygon fill="#008000" points="44,330.8169,48,321.8169,44,325.8169,40,321.8169,44,330.8169" style="stroke:#008000;stroke-width:1;"/><path d="M49,208.2969 L49,308.2969 L349,308.2969 L349,218.2969 L339,208.2969 L49,208.2969" fill="#FEFFDD" style="stroke:#181818;stroke-width:0.5;"/><path d="M339,208.2969 L339,218.2969 L349,218.2969 L339,208.2969" fill="#FEFFDD" style="stroke:#181818;stroke-width:0.5;"/><text fill="#000000" font-family="sans-serif" font-size="13" font-weight="bold" lengthAdjust="spacing" textLength="58.9063" x="55" y="225.3638">Sistema</text><text fill="#000000" font-family="sans-serif" font-size="13" lengthAdjust="spacing" textLength="216.6899" x="118.0386" y="225.3638">presenta listado de recompensas</text><text fill="#000000" font-family="sans-serif" font-size="13" lengthAdjust="spacing" textLength="39.5586" x="55" y="240.4966">&#8226; Tipo</text><text fill="#000000" font-family="sans-serif" font-size="13" lengthAdjust="spacing" textLength="70.2622" x="55" y="255.6294">&#8226; Cantidad</text><text fill="#000000" font-family="sans-serif" font-size="13" font-weight="bold" lengthAdjust="spacing" textLength="58.9063" x="55" y="270.7622">Sistema</text><text fill="#000000" font-family="sans-serif" font-size="13" lengthAdjust="spacing" textLength="110.5952" x="118.0386" y="270.7622">permite solicitar:</text><text fill="#000000" font-family="sans-serif" font-size="13" lengthAdjust="spacing" textLength="126.7881" x="55" y="285.895">&#8226; abrir recompensa</text><text fill="#000000" font-family="sans-serif" font-size="13" lengthAdjust="spacing" textLength="130.0698" x="55" y="301.0278">&#8226; crear recompensa</text></g><!--link FiltrandoListado to *end*abrirRecompensas--><g class="link" data-entity-1="ent0004" data-entity-2="ent0005" data-link-type="dependency" data-source-line="23" id="lnk6"><path d="M44,381.6469 C44,403.9469 44,429.8569 44,446.0369" fill="none" id="FiltrandoListado-to-*end*abrirRecompensas" style="stroke:#008000;stroke-width:1;"/><polygon fill="#008000" points="44,452.0369,48,443.0369,44,447.0369,40,443.0369,44,452.0369" style="stroke:#008000;stroke-width:1;"/><path d="M49,404.2969 L49,429.2969 L357,429.2969 L357,414.2969 L347,404.2969 L49,404.2969" fill="#FEFFDD" style="stroke:#181818;stroke-width:0.5;"/><path d="M347,404.2969 L347,414.2969 L357,414.2969 L347,404.2969" fill="#FEFFDD" style="stroke:#181818;stroke-width:0.5;"/><text fill="#000000" font-family="sans-serif" font-size="13" font-weight="bold" lengthAdjust="spacing" textLength="90.251" x="55" y="421.3638">Coordinador</text><text fill="#000000" font-family="sans-serif" font-size="13" lengthAdjust="spacing" textLength="193.0322" x="149.3833" y="421.3638">solicita una opci&#243;n del listado</text></g><g><rect fill="#F1F1F1" height="50" rx="12.5" ry="12.5" style="stroke:#181818;stroke-width:0.5;" width="202.458" x="85.27" y="579.3"/><line style="stroke:#181818;stroke-width:0.5;" x1="85.27" x2="287.728" y1="605.5969" y2="605.5969"/><text fill="#000000" font-family="sans-serif" font-size="14" lengthAdjust="spacing" textLength="182.458" x="95.27" y="597.2951">RECOMPENSAS_ABIERTAS</text></g><!--link abrirRecompensas to RECOMPENSAS_ABIERTAS--><g class="link" data-entity-1="ent0002" data-entity-2="ent0007" data-link-type="dependency" data-source-line="29" id="lnk8"><path d="M97.58,484.63 C90.79,502.83 86.5,514.3 86.5,514.3 C86.5,514.3 86.5,549.3 86.5,549.3 C86.5,549.3 109.4407,561.6889 135.9007,575.9789" fill="none" id="abrirRecompensas-to-RECOMPENSAS_ABIERTAS" style="stroke:#008000;stroke-width:1;"/><polygon fill="#008000" points="141.18,578.83,135.1618,571.0338,136.7806,576.454,131.3603,578.0728,141.18,578.83" style="stroke:#008000;stroke-width:1;"/><path d="M91.5,519.3 L91.5,544.3 L236.5,544.3 L236.5,529.3 L226.5,519.3 L91.5,519.3" fill="#FEFFDD" style="stroke:#181818;stroke-width:0.5;"/><path d="M226.5,519.3 L226.5,529.3 L236.5,529.3 L226.5,519.3" fill="#FEFFDD" style="stroke:#181818;stroke-width:0.5;"/><text fill="#000000" font-family="sans-serif" font-size="13" lengthAdjust="spacing" textLength="124.687" x="97.5" y="536.3669">abrirRecompensa()</text></g><!--link abrirRecompensas to RECOMPENSAS_ABIERTAS--><g class="link" data-entity-1="ent0002" data-entity-2="ent0007" data-link-type="dependency" data-source-line="34" id="lnk9"><path d="M238.96,484.63 C242.97,502.83 245.5,514.3 245.5,514.3 C245.5,514.3 245.5,549.3 245.5,549.3 C245.5,549.3 233.2756,560.4886 217.6656,574.7786" fill="none" id="abrirRecompensas-to-RECOMPENSAS_ABIERTAS-1" style="stroke:#008000;stroke-width:1;"/><polygon fill="#008000" points="213.24,578.83,222.5794,575.7033,216.928,575.4538,217.1775,569.8025,213.24,578.83" style="stroke:#008000;stroke-width:1;"/><path d="M250.5,519.3 L250.5,544.3 L398.5,544.3 L398.5,529.3 L388.5,519.3 L250.5,519.3" fill="#FEFFDD" style="stroke:#181818;stroke-width:0.5;"/><path d="M388.5,519.3 L388.5,529.3 L398.5,529.3 L388.5,519.3" fill="#FEFFDD" style="stroke:#181818;stroke-width:0.5;"/><text fill="#000000" font-family="sans-serif" font-size="13" lengthAdjust="spacing" textLength="127.9688" x="256.5" y="536.3669">crearRecompensa()</text></g><!--SRC=[fLBTIiCm5BxFKuHvimd3Unc5MYe8JgNTtHYIDWS9Iqz24Y-623wBh-0Z-2O-YLdgkgMj5sBJcvppdU_dj7OhK3F36Ye5Wjjfe5h9tVv2Y7NC0MML4QQ0MZKQq39B_Jlf5wUp2NqXXFgddPhuuu5BPPrXoDMjy7MkXeXh8MD4WApFDtI-Fdio0BYP9-Cyg3oDmhtrRIWigYHJod217c8M5rL2hPAY5ewrCQWvMWuJW3pGjAfzbSZ2mEXl5ahVXuO5UMt00dfv-SF8OU3Xw-sTheHMtILZw0HdV9GGJ2EyvY6NkUp6-WcxHcs03HfnydwuABd_67_VzpCogdGjFZ_GXvQ71SJQhuGCVgzJvIBFxfSF-LsPbe_frKrUhDAIH3PwuzCPEGRx9tLOsoZrDm00]--></g></svg>