<svg xmlns="http://www.w3.org/2000/svg" xmlns:xlink="http://www.w3.org/1999/xlink" contentStyleType="text/css" data-diagram-type="STATE" height="680px" preserveAspectRatio="none" style="width:614px;height:680px;background:#FFFFFF;" version="1.1" viewBox="0 0 614 680" width="614px" zoomAndPan="magnify"><defs/><g><path d="M19.5,7 L588.5,7 A12.5,12.5 0 0 1 601,19.5 L601,33.2969 L7,33.2969 L7,19.5 A12.5,12.5 0 0 1 19.5,7" fill="#F1F1F1"/><rect fill="none" height="522.2969" rx="12.5" ry="12.5" style="stroke:#181818;stroke-width:0.5;" width="594" x="7" y="7"/><line style="stroke:#181818;stroke-width:0.5;" x1="7" x2="601" y1="33.2969" y2="33.2969"/><text fill="#000000" font-family="sans-serif" font-size="14" lengthAdjust="spacing" textLength="123.7578" x="242.1211" y="24.9951">crearEntregable()</text><g id="crearEntregable.RellenandoEntregable"><rect fill="#F1F1F1" height="50" rx="12.5" ry="12.5" style="stroke:#181818;stroke-width:0.5;" width="50" x="155" y="135.2969"/><line style="stroke:#181818;stroke-width:0.5;" x1="155" x2="205" y1="161.5938" y2="161.5938"/><text fill="#000000" font-family="sans-serif" font-size="14" lengthAdjust="spacing" textLength="4.4502" x="177.7749" y="153.292">&#160;</text></g><g id="crearEntregable.ValidandoDatos"><rect fill="#F1F1F1" height="50" rx="12.5" ry="12.5" style="stroke:#181818;stroke-width:0.5;" width="50" x="155" y="316.2969"/><line style="stroke:#181818;stroke-width:0.5;" x1="155" x2="205" y1="342.5938" y2="342.5938"/><text fill="#000000" font-family="sans-serif" font-size="14" lengthAdjust="spacing" textLength="4.4502" x="177.7749" y="334.292">&#160;</text></g><ellipse cx="180" cy="54.2969" fill="#222222" rx="10" ry="10" style="stroke:#222222;stroke-width:1;"/><ellipse cx="180" cy="508.2969" fill="none" rx="11" ry="11" style="stroke:#222222;stroke-width:1;"/><ellipse cx="180" cy="508.2969" fill="#222222" rx="6" ry="6" style="stroke:#222222;stroke-width:1;"/><!--link *start*crearEntregable to RellenandoEntregable--><g class="link" data-entity-1=".start.crearEntregable" data-entity-2="RellenandoEntregable" data-source-line="8" data-uid="lnk3" id="link_.start.crearEntregable_RellenandoEntregable"><path d="M180,64.5269 C180,80.2369 180,106.6569 180,129.1669" fill="none" id="*start*crearEntregable-to-RellenandoEntregable" style="stroke:#008000;stroke-width:1;"/><polygon fill="#008000" points="180,135.1669,184,126.1669,180,130.1669,176,126.1669,180,135.1669" style="stroke:#008000;stroke-width:1;"/><path d="M185,87.2969 L185,112.2969 L505,112.2969 L505,97.2969 L495,87.2969 L185,87.2969" fill="#FEFFDD" style="stroke:#181818;stroke-width:0.5;"/><path d="M495,87.2969 L495,97.2969 L505,97.2969 L495,87.2969" fill="#FEFFDD" style="stroke:#181818;stroke-width:0.5;"/><text fill="#000000" font-family="sans-serif" font-size="13" font-weight="bold" lengthAdjust="spacing" textLength="92.5171" x="191" y="104.3638">Investigador</text><text fill="#000000" font-family="sans-serif" font-size="13" lengthAdjust="spacing" textLength="202.8521" x="287.6494" y="104.3638">solicita crear entregable nuevo</text></g><!--link RellenandoEntregable to ValidandoDatos--><g class="link" data-entity-1="RellenandoEntregable" data-entity-2="ValidandoDatos" data-source-line="13" data-uid="lnk4" id="link_RellenandoEntregable_ValidandoDatos"><path d="M154.69,167.8569 C109.12,179.6769 18,203.2969 18,203.2969 C18,203.2969 18,298.2969 18,298.2969 C18,298.2969 103.3122,320.4104 148.8822,332.2304" fill="none" id="RellenandoEntregable-to-ValidandoDatos" style="stroke:#008000;stroke-width:1;"/><polygon fill="#008000" points="154.69,333.7369,146.9826,327.6053,149.8502,332.4815,144.974,335.3491,154.69,333.7369" style="stroke:#008000;stroke-width:1;"/><path d="M23,230.7969 L23,270.7969 L316,270.7969 L316,240.7969 L306,230.7969 L23,230.7969" fill="#FEFFDD" style="stroke:#181818;stroke-width:0.5;"/><path d="M306,230.7969 L306,240.7969 L316,240.7969 L306,230.7969" fill="#FEFFDD" style="stroke:#181818;stroke-width:0.5;"/><text fill="#000000" font-family="sans-serif" font-size="13" font-weight="bold" lengthAdjust="spacing" textLength="92.5171" x="29" y="247.8638">Investigador</text><text fill="#000000" font-family="sans-serif" font-size="13" lengthAdjust="spacing" textLength="176.1602" x="125.6494" y="247.8638">solicita guardar entregable</text><text fill="#000000" font-family="sans-serif" font-size="13" font-weight="bold" lengthAdjust="spacing" textLength="58.9063" x="29" y="262.9966">Sistema</text><text fill="#000000" font-family="sans-serif" font-size="13" lengthAdjust="spacing" textLength="186.3545" x="92.0386" y="262.9966">valida los datos introducidos</text></g><!--link ValidandoDatos to RellenandoEntregable--><g class="link" data-entity-1="ValidandoDatos" data-entity-2="RellenandoEntregable" data-source-line="19" data-uid="lnk5" id="link_ValidandoDatos_RellenandoEntregable"><path d="M205.21,332.7869 C245.76,320.7069 321,298.2969 321,298.2969 C321,298.2969 321,203.2969 321,203.2969 C321,203.2969 251.5103,182.5999 210.9603,170.5199" fill="none" id="ValidandoDatos-to-RellenandoEntregable" style="stroke:#FF0000;stroke-width:1;"/><polygon fill="#FF0000" points="205.21,168.8069,212.6934,175.2099,210.0019,170.2344,214.9774,167.5429,205.21,168.8069" style="stroke:#FF0000;stroke-width:1;"/><path d="M326,208.2969 L326,293.2969 L592,293.2969 L592,218.2969 L582,208.2969 L326,208.2969" fill="#FEFFDD" style="stroke:#181818;stroke-width:0.5;"/><path d="M582,208.2969 L582,218.2969 L592,218.2969 L582,208.2969" fill="#FEFFDD" style="stroke:#181818;stroke-width:0.5;"/><text fill="#000000" font-family="sans-serif" font-size="13" lengthAdjust="spacing" textLength="207.0034" x="332" y="225.3638">Datos del entregable no v&#225;lidos</text><text fill="#000000" font-family="sans-serif" font-size="13" font-weight="bold" lengthAdjust="spacing" textLength="58.9063" x="332" y="240.4966">Sistema</text><text fill="#000000" font-family="sans-serif" font-size="13" lengthAdjust="spacing" textLength="176.7378" x="395.0386" y="240.4966">muestra mensajes de error</text><text fill="#000000" font-family="sans-serif" font-size="13" lengthAdjust="spacing" textLength="190.2773" x="332" y="255.6294">&#8226; Campos obligatorios vac&#237;os</text><text fill="#000000" font-family="sans-serif" font-size="13" lengthAdjust="spacing" textLength="146.1738" x="332" y="270.7622">&#8226; Fechas incoherentes</text><text fill="#000000" font-family="sans-serif" font-size="13" lengthAdjust="spacing" textLength="245.1528" x="332" y="285.895">&#8226; Formato incorrecto en alg&#250;n campo</text></g><!--link ValidandoDatos to *end*crearEntregable--><g class="link" data-entity-1="ValidandoDatos" data-entity-2=".end.crearEntregable" data-source-line="28" data-uid="lnk7" id="link_ValidandoDatos_.end.crearEntregable"><path d="M180,366.6469 C180,403.3969 180,465.4769 180,491.1469" fill="none" id="ValidandoDatos-to-*end*crearEntregable" style="stroke:#008000;stroke-width:1;"/><polygon fill="#008000" points="180,497.1469,184,488.1469,180,492.1469,176,488.1469,180,497.1469" style="stroke:#008000;stroke-width:1;"/><path d="M185,389.2969 L185,474.2969 L526,474.2969 L526,399.2969 L516,389.2969 L185,389.2969" fill="#FEFFDD" style="stroke:#181818;stroke-width:0.5;"/><path d="M516,389.2969 L516,399.2969 L526,399.2969 L516,389.2969" fill="#FEFFDD" style="stroke:#181818;stroke-width:0.5;"/><text fill="#000000" font-family="sans-serif" font-size="13" lengthAdjust="spacing" textLength="186.6782" x="191" y="406.3638">Datos del entregable v&#225;lidos</text><text fill="#000000" font-family="sans-serif" font-size="13" font-weight="bold" lengthAdjust="spacing" textLength="58.9063" x="191" y="421.4966">Sistema</text><text fill="#000000" font-family="sans-serif" font-size="13" lengthAdjust="spacing" textLength="105.771" x="254.0386" y="421.4966">crea el proyecto</text><text fill="#000000" font-family="sans-serif" font-size="13" lengthAdjust="spacing" textLength="223.2852" x="191" y="436.6294">&#8226; Asigna identificador de proyecto</text><text fill="#000000" font-family="sans-serif" font-size="13" lengthAdjust="spacing" textLength="320.2266" x="191" y="451.7622">&#8226; Guarda t&#237;tulo, descripci&#243;n, fechas, Investigador</text><text fill="#000000" font-family="sans-serif" font-size="13" lengthAdjust="spacing" textLength="188.1191" x="191" y="466.895">&#8226; Muestra entregable creado</text></g><g id="ENTREGABLES_ABIERTOS"><rect fill="#F1F1F1" height="50" rx="12.5" ry="12.5" style="stroke:#181818;stroke-width:0.5;" width="199.3477" x="14.5" y="624"/><line style="stroke:#181818;stroke-width:0.5;" x1="14.5" x2="213.8477" y1="650.2969" y2="650.2969"/><text fill="#000000" font-family="sans-serif" font-size="14" lengthAdjust="spacing" textLength="179.3477" x="24.5" y="641.9951">ENTREGABLES_ABIERTOS</text></g><g id="PROYECTO_ABIERTO"><rect fill="#F1F1F1" height="50" rx="12.5" ry="12.5" style="stroke:#181818;stroke-width:0.5;" width="164.3887" x="338" y="624"/><line style="stroke:#181818;stroke-width:0.5;" x1="338" x2="502.3887" y1="650.2969" y2="650.2969"/><text fill="#000000" font-family="sans-serif" font-size="14" lengthAdjust="spacing" textLength="144.3887" x="348" y="641.9951">PROYECTO_ABIERTO</text></g><!--link crearEntregable to ENTREGABLES_ABIERTOS--><g class="link" data-entity-1="crearEntregable" data-entity-2="ENTREGABLES_ABIERTOS" data-source-line="38" data-uid="lnk9" id="link_crearEntregable_ENTREGABLES_ABIERTOS"><path d="M159.62,529.06 C149.39,547.49 143,559 143,559 C143,559 132.3697,591.6255 123.7797,617.9755" fill="none" id="crearEntregable-to-ENTREGABLES_ABIERTOS" style="stroke:#008000;stroke-width:1;"/><polygon fill="#008000" points="121.92,623.68,128.5125,616.363,123.4697,618.9262,120.9065,613.8834,121.92,623.68" style="stroke:#008000;stroke-width:1;"/><path d="M148,564 L148,589 L288,589 L288,574 L278,564 L148,564" fill="#FEFFDD" style="stroke:#181818;stroke-width:0.5;"/><path d="M278,564 L278,574 L288,574 L278,564" fill="#FEFFDD" style="stroke:#181818;stroke-width:0.5;"/><text fill="#000000" font-family="sans-serif" font-size="13" lengthAdjust="spacing" textLength="119.3867" x="154" y="581.0669">editarEntregable()</text></g><!--link crearEntregable to PROYECTO_ABIERTO--><g class="link" data-entity-1="crearEntregable" data-entity-2="PROYECTO_ABIERTO" data-source-line="43" data-uid="lnk11" id="link_crearEntregable_PROYECTO_ABIERTO"><path d="M301.31,529.06 C301.12,547.49 301,559 301,559 C301,559 301,594 301,594 C301,594 329.6156,606.9921 361.3056,621.3621" fill="none" id="crearEntregable-to-PROYECTO_ABIERTO" style="stroke:#008000;stroke-width:1;"/><polygon fill="#008000" points="366.77,623.84,360.2253,616.4802,362.2163,621.7751,356.9214,623.7661,366.77,623.84" style="stroke:#008000;stroke-width:1;"/><path d="M306,564 L306,589 L461,589 L461,574 L451,564 L306,564" fill="#FEFFDD" style="stroke:#181818;stroke-width:0.5;"/><path d="M451,564 L451,574 L461,574 L451,564" fill="#FEFFDD" style="stroke:#181818;stroke-width:0.5;"/><text fill="#000000" font-family="sans-serif" font-size="13" lengthAdjust="spacing" textLength="134.1641" x="312" y="581.0669">eliminarEntregable()</text></g><!--link crearEntregable to PROYECTO_ABIERTO--><g class="link" data-entity-1="crearEntregable" data-entity-2="PROYECTO_ABIERTO" data-source-line="48" data-uid="lnk12" id="link_crearEntregable_PROYECTO_ABIERTO"><path d="M452.86,529.06 C463.41,547.49 470,559 470,559 C470,559 470,594 470,594 C470,594 459.7572,605.0681 446.4472,619.4381" fill="none" id="crearEntregable-to-PROYECTO_ABIERTO-1" style="stroke:#008000;stroke-width:1;"/><polygon fill="#008000" points="442.37,623.84,451.4204,619.9553,445.7677,620.1718,445.5512,614.5191,442.37,623.84" style="stroke:#008000;stroke-width:1;"/><path d="M475,564 L475,589 L593,589 L593,574 L583,564 L475,564" fill="#FEFFDD" style="stroke:#181818;stroke-width:0.5;"/><path d="M583,564 L583,574 L593,574 L583,564" fill="#FEFFDD" style="stroke:#181818;stroke-width:0.5;"/><text fill="#000000" font-family="sans-serif" font-size="13" lengthAdjust="spacing" textLength="97.6904" x="481" y="581.0669">abrirProyecto()</text></g><!--SRC=[jLF1RjGm4BtdAqRB1T1M_42rqhQ4gXAmrUuA2LKLcjZJrDInex4JQOMG-1MuzyIDQ_waNuATR7UJ52hsG7A9xJVllNaPkrjbIcGiG2j3VbCIb5PluY99d4TF89YGK-EPSimq0JgOZFQUlvZ0boI1y7Gra_06t9Aq9eD6sZtsCUe3QYKZw3LwwpgQovTNS7JvB6SYStKq-pkJiO78ccZ_jjqupcRdfYRdLOxIyl6hR0REQYMKnwuNe7qpfgBQjdLaP4lMwVz9Rs1ePFfmAtc5B0Tc7cfModagi8NNhGnewq168L01RcKbbDog3dqFRKN7JFAm0BjAINgGauMw-QvtgYERHHMwP8I2ZCFF5Ck1c2stuFjlF-0KYpBGsao7CBnb5HOrYkPkInWnRqZSO6nHs1lYe4wzCyj5g6iFcKc4JpA0Ecz-6H2H_9_IsFs_C607jFzKxt6c8C1BjfleQsTvxbHk49GCHEfQYJW3CPX7mBDs5C0tTxxITXemJh0gXMf-cYbSjwbCeJzAkz9ts-1xNgCVEKhZQvACht4_ZFJzUfcUpK_UfgjFyvFpTBbUh991CYJ3p0vkVBAF-YdgY-NYOtgwNZpmZcYrAfJv3yIOiUABRT0zpjy0]--></g></svg>