<svg xmlns="http://www.w3.org/2000/svg" xmlns:xlink="http://www.w3.org/1999/xlink" contentStyleType="text/css" data-diagram-type="STATE" height="635px" preserveAspectRatio="none" style="width:548px;height:635px;background:#FFFFFF;" version="1.1" viewBox="0 0 548 635" width="548px" zoomAndPan="magnify"><defs/><g><path d="M57,7 L388,7 A12.5,12.5 0 0 1 400.5,19.5 L400.5,33.2969 L44.5,33.2969 L44.5,19.5 A12.5,12.5 0 0 1 57,7" fill="#F1F1F1"/><rect fill="none" height="477.2969" rx="12.5" ry="12.5" style="stroke:#181818;stroke-width:0.5;" width="356" x="44.5" y="7"/><line style="stroke:#181818;stroke-width:0.5;" x1="44.5" x2="400.5" y1="33.2969" y2="33.2969"/><text fill="#000000" font-family="sans-serif" font-size="14" lengthAdjust="spacing" textLength="146.9453" x="149.0273" y="24.9951">abrirInvestigadores()</text><g><rect fill="#F1F1F1" height="50" rx="12.5" ry="12.5" style="stroke:#181818;stroke-width:0.5;" width="50" x="56.5" y="135.2969"/><line style="stroke:#181818;stroke-width:0.5;" x1="56.5" x2="106.5" y1="161.5938" y2="161.5938"/><text fill="#000000" font-family="sans-serif" font-size="14" lengthAdjust="spacing" textLength="4.4502" x="79.2749" y="153.292">&#160;</text></g><g><rect fill="#F1F1F1" height="50" rx="12.5" ry="12.5" style="stroke:#181818;stroke-width:0.5;" width="50" x="56.5" y="331.2969"/><line style="stroke:#181818;stroke-width:0.5;" x1="56.5" x2="106.5" y1="357.5938" y2="357.5938"/><text fill="#000000" font-family="sans-serif" font-size="14" lengthAdjust="spacing" textLength="4.4502" x="79.2749" y="349.292">&#160;</text></g><ellipse cx="81.5" cy="54.2969" fill="#222222" rx="10" ry="10" style="stroke:#222222;stroke-width:1;"/><ellipse cx="81.5" cy="463.2969" fill="none" rx="11" ry="11" style="stroke:#222222;stroke-width:1;"/><ellipse cx="81.5" cy="463.2969" fill="#222222" rx="6" ry="6" style="stroke:#222222;stroke-width:1;"/><!--link *start*abrirInvestigadores to MostrandoLista--><g class="link" data-entity-1="ent0002" data-entity-2="ent0003" data-link-type="dependency" data-source-line="8" id="lnk3"><path d="M81.5,64.5269 C81.5,80.2369 81.5,106.6569 81.5,129.1669" fill="none" id="*start*abrirInvestigadores-to-MostrandoLista" style="stroke:#008000;stroke-width:1;"/><polygon fill="#008000" points="81.5,135.1669,85.5,126.1669,81.5,130.1669,77.5,126.1669,81.5,135.1669" style="stroke:#008000;stroke-width:1;"/><path d="M86.5,87.2969 L86.5,112.2969 L381.5,112.2969 L381.5,97.2969 L371.5,87.2969 L86.5,87.2969" fill="#FEFFDD" style="stroke:#181818;stroke-width:0.5;"/><path d="M371.5,87.2969 L371.5,97.2969 L381.5,97.2969 L371.5,87.2969" fill="#FEFFDD" style="stroke:#181818;stroke-width:0.5;"/><text fill="#000000" font-family="sans-serif" font-size="13" font-weight="bold" lengthAdjust="spacing" textLength="90.251" x="92.5" y="104.3638">Coordinador</text><text fill="#000000" font-family="sans-serif" font-size="13" lengthAdjust="spacing" textLength="180.1211" x="186.8833" y="104.3638">solicita abrir investigadores</text></g><!--link MostrandoLista to FiltrandoLista--><g class="link" data-entity-1="ent0003" data-entity-2="ent0004" data-link-type="dependency" data-source-line="13" id="lnk4"><path d="M81.5,185.4769 C81.5,222.6469 81.5,287.4569 81.5,324.8169" fill="none" id="MostrandoLista-to-FiltrandoLista" style="stroke:#008000;stroke-width:1;"/><polygon fill="#008000" points="81.5,330.8169,85.5,321.8169,81.5,325.8169,77.5,321.8169,81.5,330.8169" style="stroke:#008000;stroke-width:1;"/><path d="M86.5,208.2969 L86.5,308.2969 L391.5,308.2969 L391.5,218.2969 L381.5,208.2969 L86.5,208.2969" fill="#FEFFDD" style="stroke:#181818;stroke-width:0.5;"/><path d="M381.5,208.2969 L381.5,218.2969 L391.5,218.2969 L381.5,208.2969" fill="#FEFFDD" style="stroke:#181818;stroke-width:0.5;"/><text fill="#000000" font-family="sans-serif" font-size="13" font-weight="bold" lengthAdjust="spacing" textLength="58.9063" x="92.5" y="225.3638">Sistema</text><text fill="#000000" font-family="sans-serif" font-size="13" lengthAdjust="spacing" textLength="208.9395" x="155.5386" y="225.3638">presenta lista de investigadores</text><text fill="#000000" font-family="sans-serif" font-size="13" lengthAdjust="spacing" textLength="277.3799" x="92.5" y="240.4966">&#8226; ID, nombre, campo de cada investigador</text><text fill="#000000" font-family="sans-serif" font-size="13" lengthAdjust="spacing" textLength="188.481" x="92.5" y="255.6294">&#8226; Permite solicitar filtrar lista</text><text fill="#000000" font-family="sans-serif" font-size="13" lengthAdjust="spacing" textLength="237.1802" x="92.5" y="270.7622">&#8226; Permite solicitar abrir investigador</text><text fill="#000000" font-family="sans-serif" font-size="13" lengthAdjust="spacing" textLength="284.7178" x="92.5" y="285.895">&#8226; Permite solicitar crear investigador nuevo</text><text fill="#000000" font-family="sans-serif" font-size="13" lengthAdjust="spacing" textLength="4.1323" x="92.5" y="301.0278">&#160;</text></g><!--link FiltrandoLista to FiltrandoLista--><g class="link" data-entity-1="ent0004" data-entity-2="ent0004" data-link-type="dependency" data-source-line="23" id="lnk5"><path d="M106.68,344.9969 C116.41,344.4969 124.5,348.2569 124.5,356.2969 C124.5,364.3369 122.4021,368.4048 112.6721,367.9048" fill="none" id="FiltrandoLista-to-FiltrandoLista" style="stroke:#008000;stroke-width:1;"/><polygon fill="#008000" points="106.68,367.5969,115.4629,372.0535,111.6734,367.8535,115.8734,364.064,106.68,367.5969" style="stroke:#008000;stroke-width:1;"/><path d="M129.5,336.2969 L129.5,376.2969 L361.5,376.2969 L361.5,346.2969 L351.5,336.2969 L129.5,336.2969" fill="#FEFFDD" style="stroke:#181818;stroke-width:0.5;"/><path d="M351.5,336.2969 L351.5,346.2969 L361.5,346.2969 L351.5,336.2969" fill="#FEFFDD" style="stroke:#181818;stroke-width:0.5;"/><text fill="#000000" font-family="sans-serif" font-size="13" font-weight="bold" lengthAdjust="spacing" textLength="90.251" x="135.5" y="353.3638">Coordinador</text><text fill="#000000" font-family="sans-serif" font-size="13" lengthAdjust="spacing" textLength="116.6509" x="229.8833" y="353.3638">solicita filtrar lista</text><text fill="#000000" font-family="sans-serif" font-size="13" font-weight="bold" lengthAdjust="spacing" textLength="58.9063" x="135.5" y="368.4966">Sistema</text><text fill="#000000" font-family="sans-serif" font-size="13" lengthAdjust="spacing" textLength="139.4199" x="198.5386" y="368.4966">presenta lista filtrada</text></g><!--link FiltrandoLista to *end*abrirInvestigadores--><g class="link" data-entity-1="ent0004" data-entity-2="ent0006" data-link-type="dependency" data-source-line="29" id="lnk7"><path d="M81.5,381.6469 C81.5,403.9469 81.5,429.8569 81.5,446.0369" fill="none" id="FiltrandoLista-to-*end*abrirInvestigadores" style="stroke:#008000;stroke-width:1;"/><polygon fill="#008000" points="81.5,452.0369,85.5,443.0369,81.5,447.0369,77.5,443.0369,81.5,452.0369" style="stroke:#008000;stroke-width:1;"/><path d="M86.5,404.2969 L86.5,429.2969 L380.5,429.2969 L380.5,414.2969 L370.5,404.2969 L86.5,404.2969" fill="#FEFFDD" style="stroke:#181818;stroke-width:0.5;"/><path d="M370.5,404.2969 L370.5,414.2969 L380.5,414.2969 L370.5,404.2969" fill="#FEFFDD" style="stroke:#181818;stroke-width:0.5;"/><text fill="#000000" font-family="sans-serif" font-size="13" font-weight="bold" lengthAdjust="spacing" textLength="90.251" x="92.5" y="421.3638">Coordinador</text><text fill="#000000" font-family="sans-serif" font-size="13" lengthAdjust="spacing" textLength="179.2769" x="186.8833" y="421.3638">solicita una de las opciones</text></g><g><rect fill="#F1F1F1" height="50" rx="12.5" ry="12.5" style="stroke:#181818;stroke-width:0.5;" width="195" x="7" y="579.3"/><line style="stroke:#181818;stroke-width:0.5;" x1="7" x2="202" y1="605.5969" y2="605.5969"/><text fill="#000000" font-family="sans-serif" font-size="14" lengthAdjust="spacing" textLength="175" x="17" y="597.2951">INVESTIGADOR_ABIERTO</text></g><g><rect fill="#F1F1F1" height="50" rx="12.5" ry="12.5" style="stroke:#181818;stroke-width:0.5;" width="213.0879" x="310.96" y="579.3"/><line style="stroke:#181818;stroke-width:0.5;" x1="310.96" x2="524.0479" y1="605.5969" y2="605.5969"/><text fill="#000000" font-family="sans-serif" font-size="14" lengthAdjust="spacing" textLength="193.0879" x="320.96" y="597.2951">PANEL_PRINCIPAL_ABIERTO</text></g><!--link abrirInvestigadores to INVESTIGADOR_ABIERTO--><g class="link" data-entity-1="ent0002" data-entity-2="ent0008" data-link-type="dependency" data-source-line="35" id="lnk9"><path d="M49.11,484.63 C35.86,502.83 27.5,514.3 27.5,514.3 C27.5,514.3 27.5,549.3 27.5,549.3 C27.5,549.3 44.3181,561.0942 64.6881,575.3842" fill="none" id="abrirInvestigadores-to-INVESTIGADOR_ABIERTO" style="stroke:#008000;stroke-width:1;"/><polygon fill="#008000" points="69.6,578.83,64.5294,570.3867,65.5068,575.9585,59.935,576.9359,69.6,578.83" style="stroke:#008000;stroke-width:1;"/><path d="M32.5,519.3 L32.5,544.3 L174.5,544.3 L174.5,529.3 L164.5,519.3 L32.5,519.3" fill="#FEFFDD" style="stroke:#181818;stroke-width:0.5;"/><path d="M164.5,519.3 L164.5,529.3 L174.5,529.3 L164.5,519.3" fill="#FEFFDD" style="stroke:#181818;stroke-width:0.5;"/><text fill="#000000" font-family="sans-serif" font-size="13" lengthAdjust="spacing" textLength="121.6782" x="38.5" y="536.3669">abrirInvestigador()</text></g><!--link abrirInvestigadores to INVESTIGADOR_ABIERTO--><g class="link" data-entity-1="ent0002" data-entity-2="ent0008" data-link-type="dependency" data-source-line="40" id="lnk10"><path d="M191.82,484.75 C186.96,522.45 183.5,549.3 183.5,549.3 C183.5,549.3 166.1529,561.1535 145.2529,575.4435" fill="none" id="abrirInvestigadores-to-INVESTIGADOR_ABIERTO-1" style="stroke:#008000;stroke-width:1;"/><polygon fill="#008000" points="140.3,578.83,149.9871,577.0522,144.4275,576.0079,145.4718,570.4483,140.3,578.83" style="stroke:#008000;stroke-width:1;"/><path d="M192.5,519.3 L192.5,544.3 L337.5,544.3 L337.5,529.3 L327.5,519.3 L192.5,519.3" fill="#FEFFDD" style="stroke:#181818;stroke-width:0.5;"/><path d="M327.5,519.3 L327.5,529.3 L337.5,529.3 L327.5,519.3" fill="#FEFFDD" style="stroke:#181818;stroke-width:0.5;"/><text fill="#000000" font-family="sans-serif" font-size="13" lengthAdjust="spacing" textLength="124.96" x="198.5" y="536.3669">crearInvestigador()</text></g><!--link abrirInvestigadores to PANEL_PRINCIPAL_ABIERTO--><g class="link" data-entity-1="ent0002" data-entity-2="ent0011" data-link-type="dependency" data-source-line="46" id="lnk12"><path d="M352.57,484.54 C373.67,523.13 389.5926,552.2449 401.4626,573.9649" fill="none" id="abrirInvestigadores-to-PANEL_PRINCIPAL_ABIERTO" style="stroke:#008000;stroke-width:1;"/><polygon fill="#008000" points="404.34,579.23,403.534,569.4142,401.9422,574.8425,396.5139,573.2507,404.34,579.23" style="stroke:#008000;stroke-width:1;"/><path d="M389.5,519.3 L389.5,544.3 L541.5,544.3 L541.5,529.3 L531.5,519.3 L389.5,519.3" fill="#FEFFDD" style="stroke:#181818;stroke-width:0.5;"/><path d="M531.5,519.3 L531.5,529.3 L541.5,529.3 L531.5,519.3" fill="#FEFFDD" style="stroke:#181818;stroke-width:0.5;"/><text fill="#000000" font-family="sans-serif" font-size="13" lengthAdjust="spacing" textLength="131.9424" x="395.5" y="536.3669">abrirPanelPrincipal()</text></g><!--SRC=[hLDjQi904Fs_fnZi7orABo12ghO4h0QL_X6HIJALnSrks4H1Ig5dwT5wacvMr7neYgKR26JcpNjlPYV9XiiODKOWkAHq7nF4Ikop3yQI55C2z3NNhjnHal8rXafJ0fX0uqAysMh0EsDWpg6sOHw3VL59gb66QiHDl9f_uYAVju35_H8wYxkr9fBBJg_40HOZbU5GClE-iO6kt-ihfKCkCqFT1xy7YH8yuAR2-WLUC6oBI8O79dFOwLNIorifsRtcP6Qo5A5r4HinaeP7MBQGBXdv_lm2Tz0sP96lgGq1Hh7Ai066M2WumJtI4JVInourl5bp-Y1KWwkEemOSQC8Y6EIMTkeyhkCGpv7YbFuomAjNMUsnVjm7V8YtEpLRUBkzhRGtBCncgpZWIfOMZNqmTkcloWkxuzVXREu-EuF9TEKykiFfVC8ABYeCpHOxAVm3lxtpg_o_2dZEU3XQULDtt7SzPrJJWuUIXAUv37YC8gVo0m00]--></g></svg>