<svg xmlns="http://www.w3.org/2000/svg" xmlns:xlink="http://www.w3.org/1999/xlink" contentStyleType="text/css" data-diagram-type="CLASS" height="843px" preserveAspectRatio="none" style="width:1770px;height:843px;background:#FFFFFF;" version="1.1" viewBox="0 0 1770 843" width="1770px" zoomAndPan="magnify"><title>Objetos del Sistema de Gesti&#243;n de Proyectos</title><defs/><g><g class="title" data-source-line="1"><text fill="#000000" font-family="sans-serif" font-size="14" font-weight="bold" lengthAdjust="spacing" textLength="355.6328" x="700.5672" y="22.9951">Objetos del Sistema de Gesti&#243;n de Proyectos</text></g><g class="entity" data-entity="Convocatoria_2025" data-source-line="3" data-uid="ent0002" id="entity_Convocatoria_2025"><rect fill="#F1F1F1" height="44.5938" rx="2.5" ry="2.5" style="stroke:#181818;stroke-width:0.5;" width="313.3213" x="173.32" y="166.2969"/><text fill="#000000" font-family="sans-serif" font-size="14" lengthAdjust="spacing" textLength="135.249" x="262.3561" y="181.292">Convocatoria_2025</text><line style="stroke:#181818;stroke-width:0.5;" x1="174.32" x2="485.6413" y1="186.5938" y2="186.5938"/><text fill="#000000" font-family="sans-serif" font-size="14" lengthAdjust="spacing" textLength="301.3213" x="179.32" y="203.5889">nombre = "Convocatoria Innovaci&#243;n 2025"</text></g><g class="entity" data-entity="Propuesta_IA" data-source-line="7" data-uid="ent0003" id="entity_Propuesta_IA"><rect fill="#F1F1F1" height="44.5938" rx="2.5" ry="2.5" style="stroke:#181818;stroke-width:0.5;" width="229.8271" x="246.82" y="288.2969"/><text fill="#000000" font-family="sans-serif" font-size="14" lengthAdjust="spacing" textLength="91.2051" x="316.131" y="303.292">Propuesta_IA</text><line style="stroke:#181818;stroke-width:0.5;" x1="247.82" x2="475.6471" y1="308.5938" y2="308.5938"/><text fill="#000000" font-family="sans-serif" font-size="14" lengthAdjust="spacing" textLength="217.8271" x="252.82" y="325.5889">titulo = "Sistema IA Educativa"</text></g><g class="entity" data-entity="Proyecto_IA" data-source-line="11" data-uid="ent0004" id="entity_Proyecto_IA"><rect fill="#F1F1F1" height="60.8906" rx="2.5" ry="2.5" style="stroke:#181818;stroke-width:0.5;" width="315.8438" x="450.82" y="410.2969"/><text fill="#000000" font-family="sans-serif" font-size="14" lengthAdjust="spacing" textLength="82.1201" x="567.6818" y="425.292">Proyecto_IA</text><line style="stroke:#181818;stroke-width:0.5;" x1="451.82" x2="765.6637" y1="430.5938" y2="430.5938"/><text fill="#000000" font-family="sans-serif" font-size="14" lengthAdjust="spacing" textLength="303.8438" x="456.82" y="447.5889">nombre = "IA para aprendizaje adaptativo"</text><text fill="#000000" font-family="sans-serif" font-size="14" lengthAdjust="spacing" textLength="172.9014" x="456.82" y="463.8857">estado = "En desarrollo"</text></g><g class="entity" data-entity="Investigador_Principal" data-source-line="16" data-uid="ent0005" id="entity_Investigador_Principal"><rect fill="#F1F1F1" height="44.5938" rx="2.5" ry="2.5" style="stroke:#181818;stroke-width:0.5;" width="211.3633" x="105.32" y="670.2969"/><text fill="#000000" font-family="sans-serif" font-size="14" lengthAdjust="spacing" textLength="154.1504" x="133.9264" y="685.292">Investigador_Principal</text><line style="stroke:#181818;stroke-width:0.5;" x1="106.32" x2="315.6833" y1="690.5938" y2="690.5938"/><text fill="#000000" font-family="sans-serif" font-size="14" lengthAdjust="spacing" textLength="199.3633" x="111.32" y="707.5889">nombre = "Dr. Carlos Rivas"</text></g><g class="entity" data-entity="Investigador_Apoyo" data-source-line="19" data-uid="ent0006" id="entity_Investigador_Apoyo"><rect fill="#F1F1F1" height="44.5938" rx="2.5" ry="2.5" style="stroke:#181818;stroke-width:0.5;" width="221.6445" x="725.82" y="670.2969"/><text fill="#000000" font-family="sans-serif" font-size="14" lengthAdjust="spacing" textLength="138.127" x="767.5788" y="685.292">Investigador_Apoyo</text><line style="stroke:#181818;stroke-width:0.5;" x1="726.82" x2="946.4645" y1="690.5938" y2="690.5938"/><text fill="#000000" font-family="sans-serif" font-size="14" lengthAdjust="spacing" textLength="209.6445" x="731.82" y="707.5889">nombre = "Dra. Elena Torres"</text></g><g class="entity" data-entity="Coordinador_General" data-source-line="23" data-uid="ent0007" id="entity_Coordinador_General"><rect fill="#F1F1F1" height="44.5938" rx="2.5" ry="2.5" style="stroke:#181818;stroke-width:0.5;" width="233.8193" x="317.82" y="44.2969"/><text fill="#000000" font-family="sans-serif" font-size="14" lengthAdjust="spacing" textLength="148.2715" x="360.5939" y="59.292">Coordinador_General</text><line style="stroke:#181818;stroke-width:0.5;" x1="318.82" x2="550.6393" y1="64.5938" y2="64.5938"/><text fill="#000000" font-family="sans-serif" font-size="14" lengthAdjust="spacing" textLength="221.8193" x="323.82" y="81.5889">nombre = "Mtro. Jos&#233; M&#225;rquez"</text></g><g class="entity" data-entity="Colaborador1" data-source-line="27" data-uid="ent0008" id="entity_Colaborador1"><rect fill="#F1F1F1" height="44.5938" rx="2.5" ry="2.5" style="stroke:#181818;stroke-width:0.5;" width="170.9219" x="593.32" y="288.2969"/><text fill="#000000" font-family="sans-serif" font-size="14" lengthAdjust="spacing" textLength="94.7119" x="631.425" y="303.292">Colaborador1</text><line style="stroke:#181818;stroke-width:0.5;" x1="594.32" x2="763.2419" y1="308.5938" y2="308.5938"/><text fill="#000000" font-family="sans-serif" font-size="14" lengthAdjust="spacing" textLength="158.9219" x="599.32" y="325.5889">nombre = "Luis P&#233;rez"</text></g><g class="entity" data-entity="Colaborador2" data-source-line="30" data-uid="ent0009" id="entity_Colaborador2"><rect fill="#F1F1F1" height="44.5938" rx="2.5" ry="2.5" style="stroke:#181818;stroke-width:0.5;" width="184.3887" x="799.82" y="288.2969"/><text fill="#000000" font-family="sans-serif" font-size="14" lengthAdjust="spacing" textLength="94.7119" x="844.6584" y="303.292">Colaborador2</text><line style="stroke:#181818;stroke-width:0.5;" x1="800.82" x2="983.2087" y1="308.5938" y2="308.5938"/><text fill="#000000" font-family="sans-serif" font-size="14" lengthAdjust="spacing" textLength="172.3887" x="805.82" y="325.5889">nombre = "Mar&#237;a L&#243;pez"</text></g><g class="entity" data-entity="Entregable_Demo" data-source-line="34" data-uid="ent0010" id="entity_Entregable_Demo"><rect fill="#F1F1F1" height="44.5938" rx="2.5" ry="2.5" style="stroke:#181818;stroke-width:0.5;" width="257.8271" x="1200.82" y="548.2969"/><text fill="#000000" font-family="sans-serif" font-size="14" lengthAdjust="spacing" textLength="125.0293" x="1267.2189" y="563.292">Entregable_Demo</text><line style="stroke:#181818;stroke-width:0.5;" x1="1201.82" x2="1457.6471" y1="568.5938" y2="568.5938"/><text fill="#000000" font-family="sans-serif" font-size="14" lengthAdjust="spacing" textLength="245.8271" x="1206.82" y="585.5889">descripcion = "Prototipo funcional"</text></g><g class="entity" data-entity="Entregable_Informe" data-source-line="37" data-uid="ent0011" id="entity_Entregable_Informe"><rect fill="#F1F1F1" height="44.5938" rx="2.5" ry="2.5" style="stroke:#181818;stroke-width:0.5;" width="269.9473" x="1493.82" y="548.2969"/><text fill="#000000" font-family="sans-serif" font-size="14" lengthAdjust="spacing" textLength="137.9355" x="1559.8259" y="563.292">Entregable_Informe</text><line style="stroke:#181818;stroke-width:0.5;" x1="1494.82" x2="1762.7673" y1="568.5938" y2="568.5938"/><text fill="#000000" font-family="sans-serif" font-size="14" lengthAdjust="spacing" textLength="257.9473" x="1499.82" y="585.5889">descripcion = "Informe t&#233;cnico final"</text></g><g class="entity" data-entity="CargaTrabajo_Principal" data-source-line="41" data-uid="ent0012" id="entity_CargaTrabajo_Principal"><rect fill="#F1F1F1" height="44.5938" rx="2.5" ry="2.5" style="stroke:#181818;stroke-width:0.5;" width="175.2871" x="123.32" y="792.2969"/><text fill="#000000" font-family="sans-serif" font-size="14" lengthAdjust="spacing" textLength="161.2871" x="130.32" y="807.292">CargaTrabajo_Principal</text><line style="stroke:#181818;stroke-width:0.5;" x1="124.32" x2="297.6071" y1="812.5938" y2="812.5938"/><text fill="#000000" font-family="sans-serif" font-size="14" lengthAdjust="spacing" textLength="77.5127" x="129.32" y="829.5889">horas = 40</text></g><g class="entity" data-entity="CargaTrabajo_Apoyo" data-source-line="44" data-uid="ent0013" id="entity_CargaTrabajo_Apoyo"><rect fill="#F1F1F1" height="44.5938" rx="2.5" ry="2.5" style="stroke:#181818;stroke-width:0.5;" width="159.2637" x="757.32" y="792.2969"/><text fill="#000000" font-family="sans-serif" font-size="14" lengthAdjust="spacing" textLength="145.2637" x="764.32" y="807.292">CargaTrabajo_Apoyo</text><line style="stroke:#181818;stroke-width:0.5;" x1="758.32" x2="915.5837" y1="812.5938" y2="812.5938"/><text fill="#000000" font-family="sans-serif" font-size="14" lengthAdjust="spacing" textLength="77.5127" x="763.32" y="829.5889">horas = 30</text></g><g class="entity" data-entity="Recompensa_Monetaria_1" data-source-line="48" data-uid="ent0014" id="entity_Recompensa_Monetaria_1"><rect fill="#F1F1F1" height="44.5938" rx="2.5" ry="2.5" style="stroke:#181818;stroke-width:0.5;" width="197.8184" x="313.82" y="548.2969"/><text fill="#000000" font-family="sans-serif" font-size="14" lengthAdjust="spacing" textLength="183.8184" x="320.82" y="563.292">Recompensa_Monetaria_1</text><line style="stroke:#181818;stroke-width:0.5;" x1="314.82" x2="510.6384" y1="568.5938" y2="568.5938"/><text fill="#000000" font-family="sans-serif" font-size="14" lengthAdjust="spacing" textLength="183.5586" x="319.82" y="585.5889">tipo = "Pago de 20.000 &#8364;"</text></g><g class="entity" data-entity="Recompensa_Monetaria_2" data-source-line="51" data-uid="ent0015" id="entity_Recompensa_Monetaria_2"><rect fill="#F1F1F1" height="44.5938" rx="2.5" ry="2.5" style="stroke:#181818;stroke-width:0.5;" width="225.4795" x="940.32" y="548.2969"/><text fill="#000000" font-family="sans-serif" font-size="14" lengthAdjust="spacing" textLength="183.8184" x="961.1506" y="563.292">Recompensa_Monetaria_2</text><line style="stroke:#181818;stroke-width:0.5;" x1="941.32" x2="1164.7995" y1="568.5938" y2="568.5938"/><text fill="#000000" font-family="sans-serif" font-size="14" lengthAdjust="spacing" textLength="213.4795" x="946.32" y="585.5889">tipo = "Dos pagos de 3.000 &#8364;"</text></g><!--link Convocatoria_2025 to Propuesta_IA--><g class="link" data-entity-1="Convocatoria_2025" data-entity-2="Propuesta_IA" data-source-line="56" data-uid="lnk16" id="link_Convocatoria_2025_Propuesta_IA"><path codeLine="56" d="M335.62,211.5269 C341.42,233.2769 348.745,260.7392 354.525,282.4292" fill="none" id="Convocatoria_2025-to-Propuesta_IA" style="stroke:#181818;stroke-width:1;"/><polygon fill="#181818" points="356.07,288.2269,357.6177,278.5004,354.7825,283.3955,349.8874,280.5603,356.07,288.2269" style="stroke:#181818;stroke-width:1;"/><text fill="#000000" font-family="sans-serif" font-size="13" lengthAdjust="spacing" textLength="45.7983" x="348.82" y="254.3638">genera</text></g><!--link Propuesta_IA to Proyecto_IA--><g class="link" data-entity-1="Propuesta_IA" data-entity-2="Proyecto_IA" data-source-line="57" data-uid="lnk17" id="link_Propuesta_IA_Proyecto_IA"><path codeLine="57" d="M391.72,333.3869 C412.26,347.6969 440.48,366.3269 466.82,380.2969 C487.13,391.0669 504.2857,398.9892 525.4657,407.8592" fill="none" id="Propuesta_IA-to-Proyecto_IA" style="stroke:#181818;stroke-width:1;"/><polygon fill="#181818" points="531,410.1769,524.2437,403.0108,526.3881,408.2455,521.1534,410.3898,531,410.1769" style="stroke:#181818;stroke-width:1;"/><text fill="#000000" font-family="sans-serif" font-size="13" lengthAdjust="spacing" textLength="45.7983" x="467.82" y="376.3638">genera</text></g><!--reverse link Proyecto_IA to Investigador_Principal--><g class="link" data-entity-1="Proyecto_IA" data-entity-2="Investigador_Principal" data-source-line="59" data-uid="lnk18" id="link_Proyecto_IA_Investigador_Principal"><path codeLine="59" d="M438.5686,449.3655 C290.9186,459.5855 98.81,484.3569 53.82,548.2969 C18.28,598.8069 96.19,644.5669 154.48,670.2269" fill="none" id="Proyecto_IA-backto-Investigador_Principal" style="stroke:#181818;stroke-width:1;"/><polygon fill="none" points="450.54,448.5369,444.2781,444.9607,438.5686,449.3655,444.8305,452.9416,450.54,448.5369" style="stroke:#181818;stroke-width:1;"/><text fill="#000000" font-family="sans-serif" font-size="13" lengthAdjust="spacing" textLength="112.3599" x="54.82" y="575.3638">est&#225; formado por</text></g><!--reverse link Investigador_Principal to Proyecto_IA--><g class="link" data-entity-1="Investigador_Principal" data-entity-2="Proyecto_IA" data-source-line="80" data-uid="lnk32" id="link_Investigador_Principal_Proyecto_IA"><path codeLine="80" d="M204.83,658.3111 C200.17,627.4211 198.54,582.5069 227.82,548.2969 C257.61,513.5069 359.78,486.0569 450.82,467.7469" fill="none" id="Investigador_Principal-backto-Proyecto_IA" style="stroke:#181818;stroke-width:1;"/><polygon fill="none" points="206.62,670.1769,209.6802,663.6473,204.83,658.3111,201.7697,664.8407,206.62,670.1769" style="stroke:#181818;stroke-width:1;"/><text fill="#000000" font-family="sans-serif" font-size="13" lengthAdjust="spacing" textLength="66.5742" x="228.82" y="575.3638">trabaja en</text></g><!--reverse link Proyecto_IA to Investigador_Apoyo--><g class="link" data-entity-1="Proyecto_IA" data-entity-2="Investigador_Apoyo" data-source-line="60" data-uid="lnk19" id="link_Proyecto_IA_Investigador_Apoyo"><path codeLine="60" d="M620.7484,482.8583 C631.1184,515.6483 647.87,557.1869 679.82,593.2969 C709.67,627.0369 753.83,653.3269 787.72,670.2369" fill="none" id="Proyecto_IA-backto-Investigador_Apoyo" style="stroke:#181818;stroke-width:1;"/><polygon fill="none" points="617.13,471.4169,615.1254,478.3437,620.7484,482.8583,622.753,475.9315,617.13,471.4169" style="stroke:#181818;stroke-width:1;"/><text fill="#000000" font-family="sans-serif" font-size="13" lengthAdjust="spacing" textLength="112.3599" x="680.82" y="575.3638">est&#225; formado por</text></g><!--reverse link Investigador_Apoyo to Proyecto_IA--><g class="link" data-entity-1="Investigador_Apoyo" data-entity-2="Proyecto_IA" data-source-line="81" data-uid="lnk33" id="link_Investigador_Apoyo_Proyecto_IA"><path codeLine="81" d="M835.1801,658.077 C833.0301,627.797 826.05,584.5569 797.82,548.2969 C770.87,513.6769 729.31,488.5069 692.01,471.3569" fill="none" id="Investigador_Apoyo-backto-Proyecto_IA" style="stroke:#181818;stroke-width:1;"/><polygon fill="none" points="836.03,670.0469,839.595,663.7786,835.1801,658.077,831.6151,664.3452,836.03,670.0469" style="stroke:#181818;stroke-width:1;"/><text fill="#000000" font-family="sans-serif" font-size="13" lengthAdjust="spacing" textLength="66.5742" x="820.82" y="575.3638">trabaja en</text></g><!--reverse link Proyecto_IA to Entregable_Demo--><g class="link" data-entity-1="Proyecto_IA" data-entity-2="Entregable_Demo" data-source-line="62" data-uid="lnk20" id="link_Proyecto_IA_Entregable_Demo"><path codeLine="62" d="M778.9637,468.9477 C842.0837,479.2377 903.53,489.5269 969.82,501.2969 C1054.08,516.2569 1149.17,534.4069 1220.46,548.2569" fill="none" id="Proyecto_IA-backto-Entregable_Demo" style="stroke:#181818;stroke-width:1;"/><polygon fill="#181818" points="767.12,467.0169,772.3982,471.9302,778.9637,468.9477,773.6854,464.0344,767.12,467.0169" style="stroke:#181818;stroke-width:1;"/><text fill="#000000" font-family="sans-serif" font-size="13" lengthAdjust="spacing" textLength="32.9443" x="1059.82" y="514.3638">tiene</text></g><!--reverse link Proyecto_IA to Entregable_Informe--><g class="link" data-entity-1="Proyecto_IA" data-entity-2="Entregable_Informe" data-source-line="63" data-uid="lnk21" id="link_Proyecto_IA_Entregable_Informe"><path codeLine="63" d="M778.8576,461.6004 C952.9276,482.1004 1229.07,515.2969 1476.82,548.2969 C1482.37,549.0369 1488.03,549.7969 1493.75,550.5769" fill="none" id="Proyecto_IA-backto-Entregable_Informe" style="stroke:#181818;stroke-width:1;"/><polygon fill="#181818" points="766.94,460.1969,772.431,464.8712,778.8576,461.6004,773.3667,456.9261,766.94,460.1969" style="stroke:#181818;stroke-width:1;"/><text fill="#000000" font-family="sans-serif" font-size="13" lengthAdjust="spacing" textLength="32.9443" x="1238.82" y="514.3638">tiene</text></g><!--reverse link Proyecto_IA to CargaTrabajo_Principal--><g class="link" data-entity-1="Proyecto_IA" data-entity-2="CargaTrabajo_Principal" data-source-line="65" data-uid="lnk22" id="link_Proyecto_IA_CargaTrabajo_Principal"><path codeLine="65" d="M438.6996,449.0024 C308.4996,456.4524 147.5,471.0769 84.82,501.2969 C58.21,514.1269 52.09,522.4269 37.82,548.2969 C17.74,584.7069 6,601.4469 20.82,640.2969 C47.9,711.2469 122.8,764.4769 170.07,792.2369" fill="none" id="Proyecto_IA-backto-CargaTrabajo_Principal" style="stroke:#181818;stroke-width:1;"/><polygon fill="#181818" points="450.68,448.3169,444.4613,444.6662,438.6996,449.0024,444.9183,452.6531,450.68,448.3169" style="stroke:#181818;stroke-width:1;"/><text fill="#000000" font-family="sans-serif" font-size="13" lengthAdjust="spacing" textLength="45.7983" x="21.82" y="636.3638">genera</text></g><!--reverse link Proyecto_IA to CargaTrabajo_Apoyo--><g class="link" data-entity-1="Proyecto_IA" data-entity-2="CargaTrabajo_Apoyo" data-source-line="66" data-uid="lnk23" id="link_Proyecto_IA_CargaTrabajo_Apoyo"><path codeLine="66" d="M613.3754,483.3433 C618.4054,523.3933 629.26,584.3169 656.82,640.2969 C674.74,676.6869 680.86,685.9169 708.82,715.2969 C737.53,745.4669 776,773.7769 803.25,792.2369" fill="none" id="Proyecto_IA-backto-CargaTrabajo_Apoyo" style="stroke:#181818;stroke-width:1;"/><polygon fill="#181818" points="611.88,471.4369,608.6589,477.8886,613.3754,483.3433,616.5965,476.8917,611.88,471.4369" style="stroke:#181818;stroke-width:1;"/><text fill="#000000" font-family="sans-serif" font-size="13" lengthAdjust="spacing" textLength="45.7983" x="657.82" y="636.3638">genera</text></g><!--reverse link Proyecto_IA to Recompensa_Monetaria_1--><g class="link" data-entity-1="Proyecto_IA" data-entity-2="Recompensa_Monetaria_1" data-source-line="68" data-uid="lnk24" id="link_Proyecto_IA_Recompensa_Monetaria_1"><path codeLine="68" d="M533.0703,476.7799 C515.7003,485.5999 507.99,490.4169 491.82,501.2969 C471.19,515.1869 450.02,533.8269 434.79,548.1569" fill="none" id="Proyecto_IA-backto-Recompensa_Monetaria_1" style="stroke:#181818;stroke-width:1;"/><polygon fill="#181818" points="543.77,471.3469,536.6092,470.4968,533.0703,476.7799,540.2312,477.6299,543.77,471.3469" style="stroke:#181818;stroke-width:1;"/><text fill="#000000" font-family="sans-serif" font-size="13" lengthAdjust="spacing" textLength="45.7983" x="492.82" y="514.3638">genera</text></g><!--reverse link Proyecto_IA to Recompensa_Monetaria_2--><g class="link" data-entity-1="Proyecto_IA" data-entity-2="Recompensa_Monetaria_2" data-source-line="69" data-uid="lnk25" id="link_Proyecto_IA_Recompensa_Monetaria_2"><path codeLine="69" d="M759.6835,474.0748 C797.1935,482.8648 825.91,490.3569 862.82,501.2969 C909.05,514.9969 960.43,533.7369 998.09,548.1569" fill="none" id="Proyecto_IA-backto-Recompensa_Monetaria_2" style="stroke:#181818;stroke-width:1;"/><polygon fill="#181818" points="748,471.3369,752.9291,476.6003,759.6835,474.0748,754.7544,468.8113,748,471.3369" style="stroke:#181818;stroke-width:1;"/><text fill="#000000" font-family="sans-serif" font-size="13" lengthAdjust="spacing" textLength="45.7983" x="915.82" y="514.3638">genera</text></g><!--reverse link Coordinador_General to Proyecto_IA--><g class="link" data-entity-1="Coordinador_General" data-entity-2="Proyecto_IA" data-source-line="71" data-uid="lnk26" id="link_Coordinador_General_Proyecto_IA"><path codeLine="71" d="M459.7283,98.9583 C474.7583,118.2783 488.92,138.2769 503.82,166.2969 C548.72,250.7169 584.3,358.6469 600.04,410.0269" fill="none" id="Coordinador_General-backto-Proyecto_IA" style="stroke:#181818;stroke-width:1;"/><polygon fill="none" points="452.36,89.4869,452.887,96.6787,459.7283,98.9583,459.2013,91.7665,452.36,89.4869" style="stroke:#181818;stroke-width:1;"/><text fill="#000000" font-family="sans-serif" font-size="13" lengthAdjust="spacing" textLength="56.4688" x="546.82" y="254.3638">coordina</text></g><!--reverse link Coordinador_General to Convocatoria_2025--><g class="link" data-entity-1="Coordinador_General" data-entity-2="Convocatoria_2025" data-source-line="72" data-uid="lnk27" id="link_Coordinador_General_Convocatoria_2025"><path codeLine="72" d="M407.9082,98.5581 C388.8782,120.3081 367.68,144.5369 348.7,166.2269" fill="none" id="Coordinador_General-backto-Convocatoria_2025" style="stroke:#181818;stroke-width:1;"/><polygon fill="none" points="415.81,89.5269,408.8487,91.4085,407.9082,98.5581,414.8695,96.6764,415.81,89.5269" style="stroke:#181818;stroke-width:1;"/><text fill="#000000" font-family="sans-serif" font-size="13" lengthAdjust="spacing" textLength="38.3779" x="389.82" y="132.3638">busca</text></g><!--reverse link Colaborador1 to Proyecto_IA--><g class="link" data-entity-1="Colaborador1" data-entity-2="Proyecto_IA" data-source-line="74" data-uid="lnk28" id="link_Colaborador1_Proyecto_IA"><path codeLine="74" d="M661.1923,344.0353 C649.6423,365.1553 637.78,386.8469 624.97,410.2769" fill="none" id="Colaborador1-backto-Proyecto_IA" style="stroke:#181818;stroke-width:1;"/><polygon fill="none" points="666.95,333.5069,660.5616,336.8519,661.1923,344.0353,667.5806,340.6904,666.95,333.5069" style="stroke:#181818;stroke-width:1;"/><text fill="#000000" font-family="sans-serif" font-size="13" lengthAdjust="spacing" textLength="57.2495" x="651.82" y="376.3638">participa</text></g><!--reverse link Colaborador2 to Proyecto_IA--><g class="link" data-entity-1="Colaborador2" data-entity-2="Proyecto_IA" data-source-line="75" data-uid="lnk29" id="link_Colaborador2_Proyecto_IA"><path codeLine="75" d="M833.2063,338.312 C786.5763,359.402 726.15,386.7369 674.23,410.2169" fill="none" id="Colaborador2-backto-Proyecto_IA" style="stroke:#181818;stroke-width:1;"/><polygon fill="none" points="844.14,333.3669,837.0248,332.1949,833.2063,338.312,840.3215,339.484,844.14,333.3669" style="stroke:#181818;stroke-width:1;"/><text fill="#000000" font-family="sans-serif" font-size="13" lengthAdjust="spacing" textLength="57.2495" x="775.82" y="376.3638">participa</text></g><!--link Investigador_Principal to CargaTrabajo_Principal--><g class="link" data-entity-1="Investigador_Principal" data-entity-2="CargaTrabajo_Principal" data-source-line="77" data-uid="lnk30" id="link_Investigador_Principal_CargaTrabajo_Principal"><path codeLine="77" d="M210.82,715.5269 C210.82,737.2769 210.82,764.5369 210.82,786.2269" fill="none" id="Investigador_Principal-to-CargaTrabajo_Principal" style="stroke:#181818;stroke-width:1;"/><polygon fill="#181818" points="210.82,792.2269,214.82,783.2269,210.82,787.2269,206.82,783.2269,210.82,792.2269" style="stroke:#181818;stroke-width:1;"/><text fill="#000000" font-family="sans-serif" font-size="13" lengthAdjust="spacing" textLength="32.9443" x="211.82" y="758.3638">tiene</text></g><!--link Investigador_Apoyo to CargaTrabajo_Apoyo--><g class="link" data-entity-1="Investigador_Apoyo" data-entity-2="CargaTrabajo_Apoyo" data-source-line="78" data-uid="lnk31" id="link_Investigador_Apoyo_CargaTrabajo_Apoyo"><path codeLine="78" d="M836.82,715.5269 C836.82,737.2769 836.82,764.5369 836.82,786.2269" fill="none" id="Investigador_Apoyo-to-CargaTrabajo_Apoyo" style="stroke:#181818;stroke-width:1;"/><polygon fill="#181818" points="836.82,792.2269,840.82,783.2269,836.82,787.2269,832.82,783.2269,836.82,792.2269" style="stroke:#181818;stroke-width:1;"/><text fill="#000000" font-family="sans-serif" font-size="13" lengthAdjust="spacing" textLength="32.9443" x="837.82" y="758.3638">tiene</text></g><!--link Recompensa_Monetaria_1 to Investigador_Principal--><g class="link" data-entity-1="Recompensa_Monetaria_1" data-entity-2="Investigador_Principal" data-source-line="83" data-uid="lnk34" id="link_Recompensa_Monetaria_1_Investigador_Principal"><path codeLine="83" d="M367.92,593.5269 C350.47,602.3369 330.48,612.8669 312.82,623.2969 C288.03,637.9369 265.9369,652.7482 245.9469,666.7282" fill="none" id="Recompensa_Monetaria_1-to-Investigador_Principal" style="stroke:#181818;stroke-width:1;"/><polygon fill="#181818" points="241.03,670.1669,250.6978,668.2869,245.1274,667.3014,246.1129,661.731,241.03,670.1669" style="stroke:#181818;stroke-width:1;"/><text fill="#000000" font-family="sans-serif" font-size="13" lengthAdjust="spacing" textLength="59.4014" x="313.82" y="636.3638">beneficia</text></g><!--link Recompensa_Monetaria_2 to Investigador_Apoyo--><g class="link" data-entity-1="Recompensa_Monetaria_2" data-entity-2="Investigador_Apoyo" data-source-line="84" data-uid="lnk35" id="link_Recompensa_Monetaria_2_Investigador_Apoyo"><path codeLine="84" d="M1006.33,593.4069 C987.9,602.2769 966.66,612.8969 947.82,623.2969 C921.06,638.0769 896.7162,653.0866 874.8962,667.0266" fill="none" id="Recompensa_Monetaria_2-to-Investigador_Apoyo" style="stroke:#181818;stroke-width:1;"/><polygon fill="#181818" points="869.84,670.2569,879.5779,668.7823,874.0535,667.565,875.2709,662.0407,869.84,670.2569" style="stroke:#181818;stroke-width:1;"/><text fill="#000000" font-family="sans-serif" font-size="13" lengthAdjust="spacing" textLength="59.4014" x="948.82" y="636.3638">beneficia</text></g><!--link Recompensa_Monetaria_1 to CargaTrabajo_Principal--><g class="link" data-entity-1="Recompensa_Monetaria_1" data-entity-2="CargaTrabajo_Principal" data-source-line="86" data-uid="lnk36" id="link_Recompensa_Monetaria_1_CargaTrabajo_Principal"><path codeLine="86" d="M402.11,593.5569 C395.34,607.1069 386.3,624.8369 377.82,640.2969 C359.25,674.1869 359.1,686.0669 333.82,715.2969 C307.43,745.8169 275.5562,770.4561 249.0862,788.7461" fill="none" id="Recompensa_Monetaria_1-to-CargaTrabajo_Principal" style="stroke:#181818;stroke-width:1;"/><polygon fill="#181818" points="244.15,792.1569,253.8282,790.3315,248.2635,789.3145,249.2805,783.7499,244.15,792.1569" style="stroke:#181818;stroke-width:1;"/><text fill="#000000" font-family="sans-serif" font-size="13" lengthAdjust="spacing" textLength="44.9795" x="363.82" y="697.3638">reduce</text></g><!--link Recompensa_Monetaria_2 to CargaTrabajo_Apoyo--><g class="link" data-entity-1="Recompensa_Monetaria_2" data-entity-2="CargaTrabajo_Apoyo" data-source-line="87" data-uid="lnk37" id="link_Recompensa_Monetaria_2_CargaTrabajo_Apoyo"><path codeLine="87" d="M1040.38,593.4969 C1032.57,607.0169 1022.23,624.7469 1012.82,640.2969 C992.46,673.9569 992.33,686.2269 965.82,715.2969 C937.82,746.0069 904.2684,770.723 876.6184,788.963" fill="none" id="Recompensa_Monetaria_2-to-CargaTrabajo_Apoyo" style="stroke:#181818;stroke-width:1;"/><polygon fill="#181818" points="871.61,792.2669,881.3252,790.6499,875.7837,789.5136,876.92,783.9721,871.61,792.2669" style="stroke:#181818;stroke-width:1;"/><text fill="#000000" font-family="sans-serif" font-size="13" lengthAdjust="spacing" textLength="44.9795" x="996.82" y="697.3638">reduce</text></g><!--SRC=[VLNDQjj04BxhAOPS2WKRnMalXXP2Oe9BGasQknb96tU3lAFEhWn9wQLlacEWFVNMgzwaJz9PsR9NaMIVXFJzp7upitRQvMeAdvC7vSX2fdBuegrJQvHdk5BMwUgFySyBfaUL2YYAID2fWmio6qhH4MjSJkB9U_WUWVmChHDMy05EGWJCZQ4DfhMUHvz4F_PI8bwKOeRB-VbEnMbNvkHLceBaqomhHKvly1Mvhkp0FLGWhmfa12nOcKm_uOC2pB1mNeLEQhJtpMgdcJ-fHMRASmejvcRZerW9ZfSBrYRL1UOTjqiUmmLoBadUIf7MI_Gfd1VqI3ri7CCiLmRXZfYL3Iku8E9Ccvf-fOpY7liRnpI6JsIh5xYfdlbRgPxQ6Zacn5xZj4E-BhM5HVN2MqwNCkdw8LU_4QwhFqNRQ6OSgnKckLfUgdLpKeasPLsacendIziSELqGt9V6lyGyC0uavkQUUAtwLPgFhdf9ZKv5JE-4zaT0Nk4TOu8FrEdTLpcR5PrtSN3ca12sgW6VnO7yhKffNIXZSNb3HZdqst2w7-AY7gm5hiWlqIGUnt4C_tx-2exQgp1vfN0fCrM8YjzHE0jLeZUYaACFH5cmQbNzDI1xd6bSCMuNEStHAXjrDtOq-jXUlYciwkcAMcztiFsQxL5H-9P6ew5DcVejgvx1DyilMq5ydBhDlO_MuhqLtkjfcqfeKjqnN3Cr3RI37HYQC9rXV5DxNqOUF30oW-830t8mwBiSVABjbgKxr22yEnvJI4gRrWx1rT6LbZlMQHzHrBemZW6ZWKdnepQO_hPRFOFIOJKzsFLtmAnReAlv2ChqsHp5HmDzzRKDhaKYvTrB8XWDTBd3RavsO1up7eoIbVoNgcEklNbkQVy1]--></g></svg>