<svg xmlns="http://www.w3.org/2000/svg" xmlns:xlink="http://www.w3.org/1999/xlink" contentStyleType="text/css" data-diagram-type="CLASS" height="530px" preserveAspectRatio="none" style="width:598px;height:530px;background:#FFFFFF;" version="1.1" viewBox="0 0 598 530" width="598px" zoomAndPan="magnify"><defs/><g><!--class Usuario--><g class="entity" data-entity="Usuario" data-source-line="1" data-uid="ent0002" id="entity_Usuario"><rect fill="#F1F1F1" height="48" rx="2.5" ry="2.5" style="stroke:#181818;stroke-width:0.5;" width="85.2041" x="178" y="132"/><ellipse cx="193" cy="148" fill="#A9DCDF" rx="11" ry="11" style="stroke:#181818;stroke-width:1;"/><path d="M193.1094,143.3438 L191.9531,148.4219 L194.2813,148.4219 L193.1094,143.3438 Z M191.625,141.1094 L194.6094,141.1094 L197.9688,153.5 L195.5156,153.5 L194.75,150.4375 L191.4688,150.4375 L190.7188,153.5 L188.2813,153.5 L191.625,141.1094 Z " fill="#000000"/><text fill="#000000" font-family="sans-serif" font-size="14" font-style="italic" lengthAdjust="spacing" textLength="53.2041" x="207" y="152.8467">Usuario</text><line style="stroke:#181818;stroke-width:0.5;" x1="179" x2="262.2041" y1="164" y2="164"/><line style="stroke:#181818;stroke-width:0.5;" x1="179" x2="262.2041" y1="172" y2="172"/></g><!--class Propuestas--><g class="entity" data-entity="Propuestas" data-source-line="2" data-uid="ent0003" id="entity_Propuestas"><rect fill="#F1F1F1" height="48" rx="2.5" ry="2.5" style="stroke:#181818;stroke-width:0.5;" width="109.793" x="481.5" y="257"/><ellipse cx="496.5" cy="273" fill="#ADD1B2" rx="11" ry="11" style="stroke:#181818;stroke-width:1;"/><path d="M499.4688,278.6406 Q498.8906,278.9375 498.25,279.0781 Q497.6094,279.2344 496.9063,279.2344 Q494.4063,279.2344 493.0781,277.5938 Q491.7656,275.9375 491.7656,272.8125 Q491.7656,269.6875 493.0781,268.0313 Q494.4063,266.375 496.9063,266.375 Q497.6094,266.375 498.25,266.5313 Q498.9063,266.6875 499.4688,266.9844 L499.4688,269.7031 Q498.8438,269.125 498.25,268.8594 Q497.6563,268.5781 497.0313,268.5781 Q495.6875,268.5781 495,269.6563 Q494.3125,270.7188 494.3125,272.8125 Q494.3125,274.9063 495,275.9844 Q495.6875,277.0469 497.0313,277.0469 Q497.6563,277.0469 498.25,276.7813 Q498.8438,276.5 499.4688,275.9219 L499.4688,278.6406 Z " fill="#000000"/><text fill="#000000" font-family="sans-serif" font-size="14" lengthAdjust="spacing" textLength="77.793" x="510.5" y="277.8467">Propuestas</text><line style="stroke:#181818;stroke-width:0.5;" x1="482.5" x2="590.293" y1="289" y2="289"/><line style="stroke:#181818;stroke-width:0.5;" x1="482.5" x2="590.293" y1="297" y2="297"/></g><!--class Investigador--><g class="entity" data-entity="Investigador" data-source-line="3" data-uid="ent0004" id="entity_Investigador"><rect fill="#F1F1F1" height="48" rx="2.5" ry="2.5" style="stroke:#181818;stroke-width:0.5;" width="119.2471" x="7" y="257"/><ellipse cx="22" cy="273" fill="#ADD1B2" rx="11" ry="11" style="stroke:#181818;stroke-width:1;"/><path d="M24.9688,278.6406 Q24.3906,278.9375 23.75,279.0781 Q23.1094,279.2344 22.4063,279.2344 Q19.9063,279.2344 18.5781,277.5938 Q17.2656,275.9375 17.2656,272.8125 Q17.2656,269.6875 18.5781,268.0313 Q19.9063,266.375 22.4063,266.375 Q23.1094,266.375 23.75,266.5313 Q24.4063,266.6875 24.9688,266.9844 L24.9688,269.7031 Q24.3438,269.125 23.75,268.8594 Q23.1563,268.5781 22.5313,268.5781 Q21.1875,268.5781 20.5,269.6563 Q19.8125,270.7188 19.8125,272.8125 Q19.8125,274.9063 20.5,275.9844 Q21.1875,277.0469 22.5313,277.0469 Q23.1563,277.0469 23.75,276.7813 Q24.3438,276.5 24.9688,275.9219 L24.9688,278.6406 Z " fill="#000000"/><text fill="#000000" font-family="sans-serif" font-size="14" lengthAdjust="spacing" textLength="87.2471" x="36" y="277.8467">Investigador</text><line style="stroke:#181818;stroke-width:0.5;" x1="8" x2="125.2471" y1="289" y2="289"/><line style="stroke:#181818;stroke-width:0.5;" x1="8" x2="125.2471" y1="297" y2="297"/></g><!--class Docente--><g class="entity" data-entity="Docente" data-source-line="4" data-uid="ent0005" id="entity_Docente"><rect fill="#F1F1F1" height="48" rx="2.5" ry="2.5" style="stroke:#181818;stroke-width:0.5;" width="90.6318" x="175" y="257"/><ellipse cx="190" cy="273" fill="#ADD1B2" rx="11" ry="11" style="stroke:#181818;stroke-width:1;"/><path d="M192.9688,278.6406 Q192.3906,278.9375 191.75,279.0781 Q191.1094,279.2344 190.4063,279.2344 Q187.9063,279.2344 186.5781,277.5938 Q185.2656,275.9375 185.2656,272.8125 Q185.2656,269.6875 186.5781,268.0313 Q187.9063,266.375 190.4063,266.375 Q191.1094,266.375 191.75,266.5313 Q192.4063,266.6875 192.9688,266.9844 L192.9688,269.7031 Q192.3438,269.125 191.75,268.8594 Q191.1563,268.5781 190.5313,268.5781 Q189.1875,268.5781 188.5,269.6563 Q187.8125,270.7188 187.8125,272.8125 Q187.8125,274.9063 188.5,275.9844 Q189.1875,277.0469 190.5313,277.0469 Q191.1563,277.0469 191.75,276.7813 Q192.3438,276.5 192.9688,275.9219 L192.9688,278.6406 Z " fill="#000000"/><text fill="#000000" font-family="sans-serif" font-size="14" lengthAdjust="spacing" textLength="58.6318" x="204" y="277.8467">Docente</text><line style="stroke:#181818;stroke-width:0.5;" x1="176" x2="264.6318" y1="289" y2="289"/><line style="stroke:#181818;stroke-width:0.5;" x1="176" x2="264.6318" y1="297" y2="297"/></g><!--class DatosPersonales--><g class="entity" data-entity="DatosPersonales" data-source-line="5" data-uid="ent0006" id="entity_DatosPersonales"><rect fill="#F1F1F1" height="48" rx="2.5" ry="2.5" style="stroke:#181818;stroke-width:0.5;" width="148.6279" x="59" y="475"/><ellipse cx="74" cy="491" fill="#ADD1B2" rx="11" ry="11" style="stroke:#181818;stroke-width:1;"/><path d="M76.9688,496.6406 Q76.3906,496.9375 75.75,497.0781 Q75.1094,497.2344 74.4063,497.2344 Q71.9063,497.2344 70.5781,495.5938 Q69.2656,493.9375 69.2656,490.8125 Q69.2656,487.6875 70.5781,486.0313 Q71.9063,484.375 74.4063,484.375 Q75.1094,484.375 75.75,484.5313 Q76.4063,484.6875 76.9688,484.9844 L76.9688,487.7031 Q76.3438,487.125 75.75,486.8594 Q75.1563,486.5781 74.5313,486.5781 Q73.1875,486.5781 72.5,487.6563 Q71.8125,488.7188 71.8125,490.8125 Q71.8125,492.9063 72.5,493.9844 Q73.1875,495.0469 74.5313,495.0469 Q75.1563,495.0469 75.75,494.7813 Q76.3438,494.5 76.9688,493.9219 L76.9688,496.6406 Z " fill="#000000"/><text fill="#000000" font-family="sans-serif" font-size="14" lengthAdjust="spacing" textLength="116.6279" x="88" y="495.8467">DatosPersonales</text><line style="stroke:#181818;stroke-width:0.5;" x1="60" x2="206.6279" y1="507" y2="507"/><line style="stroke:#181818;stroke-width:0.5;" x1="60" x2="206.6279" y1="515" y2="515"/></g><!--class DepaProyectos--><g class="entity" data-entity="DepaProyectos" data-source-line="6" data-uid="ent0007" id="entity_DepaProyectos"><rect fill="#F1F1F1" height="48" rx="2.5" ry="2.5" style="stroke:#181818;stroke-width:0.5;" width="137.5674" x="308.5" y="257"/><ellipse cx="323.5" cy="273" fill="#ADD1B2" rx="11" ry="11" style="stroke:#181818;stroke-width:1;"/><path d="M326.4688,278.6406 Q325.8906,278.9375 325.25,279.0781 Q324.6094,279.2344 323.9063,279.2344 Q321.4063,279.2344 320.0781,277.5938 Q318.7656,275.9375 318.7656,272.8125 Q318.7656,269.6875 320.0781,268.0313 Q321.4063,266.375 323.9063,266.375 Q324.6094,266.375 325.25,266.5313 Q325.9063,266.6875 326.4688,266.9844 L326.4688,269.7031 Q325.8438,269.125 325.25,268.8594 Q324.6563,268.5781 324.0313,268.5781 Q322.6875,268.5781 322,269.6563 Q321.3125,270.7188 321.3125,272.8125 Q321.3125,274.9063 322,275.9844 Q322.6875,277.0469 324.0313,277.0469 Q324.6563,277.0469 325.25,276.7813 Q325.8438,276.5 326.4688,275.9219 L326.4688,278.6406 Z " fill="#000000"/><text fill="#000000" font-family="sans-serif" font-size="14" lengthAdjust="spacing" textLength="105.5674" x="337.5" y="277.8467">DepaProyectos</text><line style="stroke:#181818;stroke-width:0.5;" x1="309.5" x2="445.0674" y1="289" y2="289"/><line style="stroke:#181818;stroke-width:0.5;" x1="309.5" x2="445.0674" y1="297" y2="297"/></g><!--class Antena--><g class="entity" data-entity="Antena" data-source-line="7" data-uid="ent0008" id="entity_Antena"><rect fill="#F1F1F1" height="48" rx="2.5" ry="2.5" style="stroke:#181818;stroke-width:0.5;" width="82.0049" x="433.5" y="132"/><ellipse cx="448.5" cy="148" fill="#ADD1B2" rx="11" ry="11" style="stroke:#181818;stroke-width:1;"/><path d="M451.4688,153.6406 Q450.8906,153.9375 450.25,154.0781 Q449.6094,154.2344 448.9063,154.2344 Q446.4063,154.2344 445.0781,152.5938 Q443.7656,150.9375 443.7656,147.8125 Q443.7656,144.6875 445.0781,143.0313 Q446.4063,141.375 448.9063,141.375 Q449.6094,141.375 450.25,141.5313 Q450.9063,141.6875 451.4688,141.9844 L451.4688,144.7031 Q450.8438,144.125 450.25,143.8594 Q449.6563,143.5781 449.0313,143.5781 Q447.6875,143.5781 447,144.6563 Q446.3125,145.7188 446.3125,147.8125 Q446.3125,149.9063 447,150.9844 Q447.6875,152.0469 449.0313,152.0469 Q449.6563,152.0469 450.25,151.7813 Q450.8438,151.5 451.4688,150.9219 L451.4688,153.6406 Z " fill="#000000"/><text fill="#000000" font-family="sans-serif" font-size="14" lengthAdjust="spacing" textLength="50.0049" x="462.5" y="152.8467">Antena</text><line style="stroke:#181818;stroke-width:0.5;" x1="434.5" x2="514.5049" y1="164" y2="164"/><line style="stroke:#181818;stroke-width:0.5;" x1="434.5" x2="514.5049" y1="172" y2="172"/></g><!--class RedDeInvestigadores--><g class="entity" data-entity="RedDeInvestigadores" data-source-line="8" data-uid="ent0009" id="entity_RedDeInvestigadores"><rect fill="#F1F1F1" height="48" rx="2.5" ry="2.5" style="stroke:#181818;stroke-width:0.5;" width="181.7754" x="129.5" y="7"/><ellipse cx="144.5" cy="23" fill="#ADD1B2" rx="11" ry="11" style="stroke:#181818;stroke-width:1;"/><path d="M147.4688,28.6406 Q146.8906,28.9375 146.25,29.0781 Q145.6094,29.2344 144.9063,29.2344 Q142.4063,29.2344 141.0781,27.5938 Q139.7656,25.9375 139.7656,22.8125 Q139.7656,19.6875 141.0781,18.0313 Q142.4063,16.375 144.9063,16.375 Q145.6094,16.375 146.25,16.5313 Q146.9063,16.6875 147.4688,16.9844 L147.4688,19.7031 Q146.8438,19.125 146.25,18.8594 Q145.6563,18.5781 145.0313,18.5781 Q143.6875,18.5781 143,19.6563 Q142.3125,20.7188 142.3125,22.8125 Q142.3125,24.9063 143,25.9844 Q143.6875,27.0469 145.0313,27.0469 Q145.6563,27.0469 146.25,26.7813 Q146.8438,26.5 147.4688,25.9219 L147.4688,28.6406 Z " fill="#000000"/><text fill="#000000" font-family="sans-serif" font-size="14" lengthAdjust="spacing" textLength="149.7754" x="158.5" y="27.8467">RedDeInvestigadores</text><line style="stroke:#181818;stroke-width:0.5;" x1="130.5" x2="310.2754" y1="39" y2="39"/><line style="stroke:#181818;stroke-width:0.5;" x1="130.5" x2="310.2754" y1="47" y2="47"/></g><g class="entity" data-entity="GMN10" data-source-line="9" data-uid="ent0011" id="entity_GMN10"><path d="M346.5,11 L346.5,27 L311.77,31 L346.5,35 L346.5,51.2656 A0,0 0 0 0 346.5,51.2656 L490.3335,51.2656 A0,0 0 0 0 490.3335,51.2656 L490.3335,21 L480.3335,11 L346.5,11 A0,0 0 0 0 346.5,11" fill="#FEFFDD" style="stroke:#181818;stroke-width:0.5;"/><path d="M480.3335,11 L480.3335,21 L490.3335,21 L480.3335,11" fill="#FEFFDD" style="stroke:#181818;stroke-width:0.5;"/><text fill="#000000" font-family="sans-serif" font-size="13" lengthAdjust="spacing" textLength="122.8335" x="352.5" y="28.0669">Todavia por definir</text><text fill="#000000" font-family="sans-serif" font-size="13" lengthAdjust="spacing" textLength="108.8052" x="356.6323" y="43.1997">el nombre oficial</text></g><!--class Id--><g class="entity" data-entity="Id" data-source-line="15" data-uid="ent0017" id="entity_Id"><rect fill="#F1F1F1" height="48" rx="2.5" ry="2.5" style="stroke:#181818;stroke-width:0.5;" width="45.0156" x="298" y="132"/><ellipse cx="313" cy="148" fill="#ADD1B2" rx="11" ry="11" style="stroke:#181818;stroke-width:1;"/><path d="M315.9688,153.6406 Q315.3906,153.9375 314.75,154.0781 Q314.1094,154.2344 313.4063,154.2344 Q310.9063,154.2344 309.5781,152.5938 Q308.2656,150.9375 308.2656,147.8125 Q308.2656,144.6875 309.5781,143.0313 Q310.9063,141.375 313.4063,141.375 Q314.1094,141.375 314.75,141.5313 Q315.4063,141.6875 315.9688,141.9844 L315.9688,144.7031 Q315.3438,144.125 314.75,143.8594 Q314.1563,143.5781 313.5313,143.5781 Q312.1875,143.5781 311.5,144.6563 Q310.8125,145.7188 310.8125,147.8125 Q310.8125,149.9063 311.5,150.9844 Q312.1875,152.0469 313.5313,152.0469 Q314.1563,152.0469 314.75,151.7813 Q315.3438,151.5 315.9688,150.9219 L315.9688,153.6406 Z " fill="#000000"/><text fill="#000000" font-family="sans-serif" font-size="14" lengthAdjust="spacing" textLength="13.0156" x="327" y="152.8467">Id</text><line style="stroke:#181818;stroke-width:0.5;" x1="299" x2="342.0156" y1="164" y2="164"/><line style="stroke:#181818;stroke-width:0.5;" x1="299" x2="342.0156" y1="172" y2="172"/></g><!--class HorasLaborales--><g class="entity" data-entity="HorasLaborales" data-source-line="19" data-uid="ent0022" id="entity_HorasLaborales"><rect fill="#F1F1F1" height="48" rx="2.5" ry="2.5" style="stroke:#181818;stroke-width:0.5;" width="140.6846" x="187" y="366"/><ellipse cx="202" cy="382" fill="#ADD1B2" rx="11" ry="11" style="stroke:#181818;stroke-width:1;"/><path d="M204.9688,387.6406 Q204.3906,387.9375 203.75,388.0781 Q203.1094,388.2344 202.4063,388.2344 Q199.9063,388.2344 198.5781,386.5938 Q197.2656,384.9375 197.2656,381.8125 Q197.2656,378.6875 198.5781,377.0313 Q199.9063,375.375 202.4063,375.375 Q203.1094,375.375 203.75,375.5313 Q204.4063,375.6875 204.9688,375.9844 L204.9688,378.7031 Q204.3438,378.125 203.75,377.8594 Q203.1563,377.5781 202.5313,377.5781 Q201.1875,377.5781 200.5,378.6563 Q199.8125,379.7188 199.8125,381.8125 Q199.8125,383.9063 200.5,384.9844 Q201.1875,386.0469 202.5313,386.0469 Q203.1563,386.0469 203.75,385.7813 Q204.3438,385.5 204.9688,384.9219 L204.9688,387.6406 Z " fill="#000000"/><text fill="#000000" font-family="sans-serif" font-size="14" lengthAdjust="spacing" textLength="108.6846" x="216" y="386.8467">HorasLaborales</text><line style="stroke:#181818;stroke-width:0.5;" x1="188" x2="326.6846" y1="398" y2="398"/><line style="stroke:#181818;stroke-width:0.5;" x1="188" x2="326.6846" y1="406" y2="406"/></g><!--reverse link RedDeInvestigadores to Usuario--><g class="link" data-entity-1="RedDeInvestigadores" data-entity-2="Usuario" data-source-line="11" data-uid="lnk13" id="link_RedDeInvestigadores_Usuario"><path codeLine="11" d="M220.5,67.14 C220.5,89.13 220.5,110.01 220.5,131.97" fill="none" id="RedDeInvestigadores-backto-Usuario" style="stroke:#181818;stroke-width:1;"/><polygon fill="#181818" points="220.5,55.14,216.5,61.14,220.5,67.14,224.5,61.14,220.5,55.14" style="stroke:#181818;stroke-width:1;"/><text fill="#000000" font-family="sans-serif" font-size="13" lengthAdjust="spacing" textLength="77.2954" x="221.5" y="98.0669">forma parte</text></g><!--reverse link Usuario to Investigador--><g class="link" data-entity-1="Usuario" data-entity-2="Investigador" data-source-line="12" data-uid="lnk14" id="link_Usuario_Investigador"><path codeLine="12" d="M182.1539,187.6293 C154.6239,209.6193 122.83,235.01 95.34,256.97" fill="none" id="Usuario-backto-Investigador" style="stroke:#181818;stroke-width:1;stroke-dasharray:7.0,7.0;"/><polygon fill="#181818" points="191.53,180.14,184.3455,180.7593,182.1539,187.6293,189.3384,187.01,191.53,180.14" style="stroke:#181818;stroke-width:1;"/></g><!--reverse link Usuario to Docente--><g class="link" data-entity-1="Usuario" data-entity-2="Docente" data-source-line="13" data-uid="lnk15" id="link_Usuario_Docente"><path codeLine="13" d="M220.5,192.14 C220.5,214.13 220.5,235.01 220.5,256.97" fill="none" id="Usuario-backto-Docente" style="stroke:#181818;stroke-width:1;stroke-dasharray:7.0,7.0;"/><polygon fill="#181818" points="220.5,180.14,216.5,186.14,220.5,192.14,224.5,186.14,220.5,180.14" style="stroke:#181818;stroke-width:1;"/></g><!--reverse link Usuario to DepaProyectos--><g class="link" data-entity-1="Usuario" data-entity-2="DepaProyectos" data-source-line="14" data-uid="lnk16" id="link_Usuario_DepaProyectos"><path codeLine="14" d="M259.4764,187.5403 C287.5464,209.5303 320.08,235.01 348.1,256.97" fill="none" id="Usuario-backto-DepaProyectos" style="stroke:#181818;stroke-width:1;stroke-dasharray:7.0,7.0;"/><polygon fill="#181818" points="250.03,180.14,252.2864,186.989,259.4764,187.5403,257.22,180.6914,250.03,180.14" style="stroke:#181818;stroke-width:1;"/></g><!--link Usuario to Id--><g class="link" data-entity-1="Usuario" data-entity-2="Id" data-source-line="15" data-uid="lnk18" id="link_Usuario_Id"><path codeLine="15" d="M263.08,156 C274.59,156 280.11,156 291.62,156" fill="none" id="Usuario-to-Id" style="stroke:#181818;stroke-width:1;"/><polygon fill="#181818" points="297.62,156,288.62,152,292.62,156,288.62,160,297.62,156" style="stroke:#181818;stroke-width:1;"/></g><!--link DepaProyectos to DatosPersonales--><g class="link" data-entity-1="DepaProyectos" data-entity-2="DatosPersonales" data-source-line="16" data-uid="lnk19" id="link_DepaProyectos_DatosPersonales"><path codeLine="16" d="M378.02,305.42 C377.41,334.33 372.11,383.39 345.5,414 C310.63,454.11 259.864,473.8483 213.914,484.8883" fill="none" id="DepaProyectos-to-DatosPersonales" style="stroke:#181818;stroke-width:1;"/><polygon fill="#181818" points="208.08,486.29,217.7654,488.0768,212.9416,485.1219,215.8965,480.2982,208.08,486.29" style="stroke:#181818;stroke-width:1;"/></g><!--link Docente to DatosPersonales--><g class="link" data-entity-1="Docente" data-entity-2="DatosPersonales" data-source-line="17" data-uid="lnk20" id="link_Docente_DatosPersonales"><path codeLine="17" d="M203.91,305.3 C192.89,321.65 178.8,344.37 169.5,366 C153.74,402.66 144.3438,442.168 138.9338,469.048" fill="none" id="Docente-to-DatosPersonales" style="stroke:#181818;stroke-width:1;"/><polygon fill="#181818" points="137.75,474.93,143.4471,466.8962,138.7365,470.0283,135.6044,465.3177,137.75,474.93" style="stroke:#181818;stroke-width:1;"/></g><!--link Investigador to DatosPersonales--><g class="link" data-entity-1="Investigador" data-entity-2="DatosPersonales" data-source-line="18" data-uid="lnk21" id="link_Investigador_DatosPersonales"><path codeLine="18" d="M70.73,305.13 C76.93,337.15 89.73,396.5 107.5,445 C111.2,455.1 113.5147,460.4947 118.1747,469.6347" fill="none" id="Investigador-to-DatosPersonales" style="stroke:#181818;stroke-width:1;"/><polygon fill="#181818" points="120.9,474.98,120.3756,465.1451,118.6289,470.5255,113.2485,468.7789,120.9,474.98" style="stroke:#181818;stroke-width:1;"/></g><!--reverse link Docente to HorasLaborales--><g class="link" data-entity-1="Docente" data-entity-2="HorasLaborales" data-source-line="19" data-uid="lnk23" id="link_Docente_HorasLaborales"><path codeLine="19" d="M232.4497,316.5618 C238.6497,334.5018 243.29,347.89 249.49,365.83" fill="none" id="Docente-backto-HorasLaborales" style="stroke:#181818;stroke-width:1;"/><polygon fill="#181818" points="228.53,305.22,226.7092,312.1975,232.4497,316.5618,234.2704,309.5843,228.53,305.22" style="stroke:#181818;stroke-width:1;"/></g><!--reverse link Antena to DepaProyectos--><g class="link" data-entity-1="Antena" data-entity-2="DepaProyectos" data-source-line="20" data-uid="lnk24" id="link_Antena_DepaProyectos"><path codeLine="20" d="M434.9436,187.9299 C424.7736,196.5899 423.01,199.19 414.5,210 C403.19,224.37 393.65,242.7 387.09,257" fill="none" id="Antena-backto-DepaProyectos" style="stroke:#181818;stroke-width:1;"/><polygon fill="#181818" points="444.08,180.15,436.9185,180.9945,434.9436,187.9299,442.1051,187.0854,444.08,180.15" style="stroke:#181818;stroke-width:1;"/><text fill="#000000" font-family="sans-serif" font-size="13" lengthAdjust="spacing" textLength="77.2954" x="415.5" y="223.0669">forma parte</text></g><!--link Antena to Propuestas--><g class="link" data-entity-1="Antena" data-entity-2="Propuestas" data-source-line="21" data-uid="lnk25" id="link_Antena_Propuestas"><path codeLine="21" d="M486.16,180.14 C497.25,202.13 511.1192,229.6522 522.1892,251.6122" fill="none" id="Antena-to-Propuestas" style="stroke:#181818;stroke-width:1;"/><polygon fill="#181818" points="524.89,256.97,524.4106,247.1328,522.6393,252.5052,517.2669,250.7339,524.89,256.97" style="stroke:#181818;stroke-width:1;"/><text fill="#000000" font-family="sans-serif" font-size="13" lengthAdjust="spacing" textLength="47.2837" x="509.5" y="223.0669">Buscan</text></g><!--SRC=[VL51QiCm4Bph5OkF0UK1EHHQV6YWXr3QMozhQPqA7AtPbGFzVULMebO8FOcPsHbsLZXe4dG9tdL12MpSXAfm4fuNqeHQY6EyPXZEw5aArREZcAWYJAmd4kM84rLRJpFch2zoMItSOpP5BE2LV4_Ry6oDd0Wad3_J0TxOupKWp2pWQGmno4S4cY3oPH027eCBE1bp9mXsrjPUS81kPBda99H4dQdyRhzloss5Mh7XcafLiGzmzARHmDhCtjwbHC8zRRl7_-wrsJCBwWiE-LcbtxF-AEqQjytBu1h_zythrDEY3cFt3G00]--></g></svg>