<svg xmlns="http://www.w3.org/2000/svg" xmlns:xlink="http://www.w3.org/1999/xlink" contentStyleType="text/css" data-diagram-type="CLASS" height="671px" preserveAspectRatio="none" style="width:758px;height:671px;background:#FFFFFF;" version="1.1" viewBox="0 0 758 671" width="758px" zoomAndPan="magnify"><defs/><g><!--class Antena--><g class="entity" data-entity="Antena" data-source-line="1" data-uid="ent0002" id="entity_Antena"><rect fill="#F1F1F1" height="48" rx="2.5" ry="2.5" style="stroke:#181818;stroke-width:0.5;" width="82.0049" x="465" y="241"/><ellipse cx="480" cy="257" fill="#ADD1B2" rx="11" ry="11" style="stroke:#181818;stroke-width:1;"/><path d="M482.9688,262.6406 Q482.3906,262.9375 481.75,263.0781 Q481.1094,263.2344 480.4063,263.2344 Q477.9063,263.2344 476.5781,261.5938 Q475.2656,259.9375 475.2656,256.8125 Q475.2656,253.6875 476.5781,252.0313 Q477.9063,250.375 480.4063,250.375 Q481.1094,250.375 481.75,250.5313 Q482.4063,250.6875 482.9688,250.9844 L482.9688,253.7031 Q482.3438,253.125 481.75,252.8594 Q481.1563,252.5781 480.5313,252.5781 Q479.1875,252.5781 478.5,253.6563 Q477.8125,254.7188 477.8125,256.8125 Q477.8125,258.9063 478.5,259.9844 Q479.1875,261.0469 480.5313,261.0469 Q481.1563,261.0469 481.75,260.7813 Q482.3438,260.5 482.9688,259.9219 L482.9688,262.6406 Z " fill="#000000"/><text fill="#000000" font-family="sans-serif" font-size="14" lengthAdjust="spacing" textLength="50.0049" x="494" y="261.8467">Antena</text><line style="stroke:#181818;stroke-width:0.5;" x1="466" x2="546.0049" y1="273" y2="273"/><line style="stroke:#181818;stroke-width:0.5;" x1="466" x2="546.0049" y1="281" y2="281"/></g><!--class Convocatorias--><g class="entity" data-entity="Convocatorias" data-source-line="2" data-uid="ent0003" id="entity_Convocatorias"><rect fill="#F1F1F1" height="48" rx="2.5" ry="2.5" style="stroke:#181818;stroke-width:0.5;" width="131.9141" x="506" y="366"/><ellipse cx="521" cy="382" fill="#ADD1B2" rx="11" ry="11" style="stroke:#181818;stroke-width:1;"/><path d="M523.9688,387.6406 Q523.3906,387.9375 522.75,388.0781 Q522.1094,388.2344 521.4063,388.2344 Q518.9063,388.2344 517.5781,386.5938 Q516.2656,384.9375 516.2656,381.8125 Q516.2656,378.6875 517.5781,377.0313 Q518.9063,375.375 521.4063,375.375 Q522.1094,375.375 522.75,375.5313 Q523.4063,375.6875 523.9688,375.9844 L523.9688,378.7031 Q523.3438,378.125 522.75,377.8594 Q522.1563,377.5781 521.5313,377.5781 Q520.1875,377.5781 519.5,378.6563 Q518.8125,379.7188 518.8125,381.8125 Q518.8125,383.9063 519.5,384.9844 Q520.1875,386.0469 521.5313,386.0469 Q522.1563,386.0469 522.75,385.7813 Q523.3438,385.5 523.9688,384.9219 L523.9688,387.6406 Z " fill="#000000"/><text fill="#000000" font-family="sans-serif" font-size="14" lengthAdjust="spacing" textLength="99.9141" x="535" y="386.8467">Convocatorias</text><line style="stroke:#181818;stroke-width:0.5;" x1="507" x2="636.9141" y1="398" y2="398"/><line style="stroke:#181818;stroke-width:0.5;" x1="507" x2="636.9141" y1="406" y2="406"/></g><!--class DatosPersonales--><g class="entity" data-entity="DatosPersonales" data-source-line="3" data-uid="ent0004" id="entity_DatosPersonales"><rect fill="#F1F1F1" height="48" rx="2.5" ry="2.5" style="stroke:#181818;stroke-width:0.5;" width="148.6279" x="132.5" y="132"/><ellipse cx="147.5" cy="148" fill="#ADD1B2" rx="11" ry="11" style="stroke:#181818;stroke-width:1;"/><path d="M150.4688,153.6406 Q149.8906,153.9375 149.25,154.0781 Q148.6094,154.2344 147.9063,154.2344 Q145.4063,154.2344 144.0781,152.5938 Q142.7656,150.9375 142.7656,147.8125 Q142.7656,144.6875 144.0781,143.0313 Q145.4063,141.375 147.9063,141.375 Q148.6094,141.375 149.25,141.5313 Q149.9063,141.6875 150.4688,141.9844 L150.4688,144.7031 Q149.8438,144.125 149.25,143.8594 Q148.6563,143.5781 148.0313,143.5781 Q146.6875,143.5781 146,144.6563 Q145.3125,145.7188 145.3125,147.8125 Q145.3125,149.9063 146,150.9844 Q146.6875,152.0469 148.0313,152.0469 Q148.6563,152.0469 149.25,151.7813 Q149.8438,151.5 150.4688,150.9219 L150.4688,153.6406 Z " fill="#000000"/><text fill="#000000" font-family="sans-serif" font-size="14" lengthAdjust="spacing" textLength="116.6279" x="161.5" y="152.8467">DatosPersonales</text><line style="stroke:#181818;stroke-width:0.5;" x1="133.5" x2="280.1279" y1="164" y2="164"/><line style="stroke:#181818;stroke-width:0.5;" x1="133.5" x2="280.1279" y1="172" y2="172"/></g><!--class DepaProyectos--><g class="entity" data-entity="DepaProyectos" data-source-line="4" data-uid="ent0005" id="entity_DepaProyectos"><rect fill="#F1F1F1" height="48" rx="2.5" ry="2.5" style="stroke:#181818;stroke-width:0.5;" width="137.5674" x="437" y="132"/><ellipse cx="452" cy="148" fill="#ADD1B2" rx="11" ry="11" style="stroke:#181818;stroke-width:1;"/><path d="M454.9688,153.6406 Q454.3906,153.9375 453.75,154.0781 Q453.1094,154.2344 452.4063,154.2344 Q449.9063,154.2344 448.5781,152.5938 Q447.2656,150.9375 447.2656,147.8125 Q447.2656,144.6875 448.5781,143.0313 Q449.9063,141.375 452.4063,141.375 Q453.1094,141.375 453.75,141.5313 Q454.4063,141.6875 454.9688,141.9844 L454.9688,144.7031 Q454.3438,144.125 453.75,143.8594 Q453.1563,143.5781 452.5313,143.5781 Q451.1875,143.5781 450.5,144.6563 Q449.8125,145.7188 449.8125,147.8125 Q449.8125,149.9063 450.5,150.9844 Q451.1875,152.0469 452.5313,152.0469 Q453.1563,152.0469 453.75,151.7813 Q454.3438,151.5 454.9688,150.9219 L454.9688,153.6406 Z " fill="#000000"/><text fill="#000000" font-family="sans-serif" font-size="14" lengthAdjust="spacing" textLength="105.5674" x="466" y="152.8467">DepaProyectos</text><line style="stroke:#181818;stroke-width:0.5;" x1="438" x2="573.5674" y1="164" y2="164"/><line style="stroke:#181818;stroke-width:0.5;" x1="438" x2="573.5674" y1="172" y2="172"/></g><!--class HabilidadesTecnicas--><g class="entity" data-entity="HabilidadesTecnicas" data-source-line="5" data-uid="ent0006" id="entity_HabilidadesTecnicas"><rect fill="#F1F1F1" height="48" rx="2.5" ry="2.5" style="stroke:#181818;stroke-width:0.5;" width="175.1172" x="113.5" y="491"/><ellipse cx="128.5" cy="507" fill="#ADD1B2" rx="11" ry="11" style="stroke:#181818;stroke-width:1;"/><path d="M131.4688,512.6406 Q130.8906,512.9375 130.25,513.0781 Q129.6094,513.2344 128.9063,513.2344 Q126.4063,513.2344 125.0781,511.5938 Q123.7656,509.9375 123.7656,506.8125 Q123.7656,503.6875 125.0781,502.0313 Q126.4063,500.375 128.9063,500.375 Q129.6094,500.375 130.25,500.5313 Q130.9063,500.6875 131.4688,500.9844 L131.4688,503.7031 Q130.8438,503.125 130.25,502.8594 Q129.6563,502.5781 129.0313,502.5781 Q127.6875,502.5781 127,503.6563 Q126.3125,504.7188 126.3125,506.8125 Q126.3125,508.9063 127,509.9844 Q127.6875,511.0469 129.0313,511.0469 Q129.6563,511.0469 130.25,510.7813 Q130.8438,510.5 131.4688,509.9219 L131.4688,512.6406 Z " fill="#000000"/><text fill="#000000" font-family="sans-serif" font-size="14" lengthAdjust="spacing" textLength="143.1172" x="142.5" y="511.8467">HabilidadesTecnicas</text><line style="stroke:#181818;stroke-width:0.5;" x1="114.5" x2="287.6172" y1="523" y2="523"/><line style="stroke:#181818;stroke-width:0.5;" x1="114.5" x2="287.6172" y1="531" y2="531"/></g><!--class Investigador/Docente--><g class="entity" data-entity="Investigador.Docente" data-source-line="6" data-uid="ent0007" id="entity_Investigador.Docente"><rect fill="#F1F1F1" height="48" rx="2.5" ry="2.5" style="stroke:#181818;stroke-width:0.5;" width="182.5957" x="267.5" y="366"/><ellipse cx="282.5" cy="382" fill="#ADD1B2" rx="11" ry="11" style="stroke:#181818;stroke-width:1;"/><path d="M285.4688,387.6406 Q284.8906,387.9375 284.25,388.0781 Q283.6094,388.2344 282.9063,388.2344 Q280.4063,388.2344 279.0781,386.5938 Q277.7656,384.9375 277.7656,381.8125 Q277.7656,378.6875 279.0781,377.0313 Q280.4063,375.375 282.9063,375.375 Q283.6094,375.375 284.25,375.5313 Q284.9063,375.6875 285.4688,375.9844 L285.4688,378.7031 Q284.8438,378.125 284.25,377.8594 Q283.6563,377.5781 283.0313,377.5781 Q281.6875,377.5781 281,378.6563 Q280.3125,379.7188 280.3125,381.8125 Q280.3125,383.9063 281,384.9844 Q281.6875,386.0469 283.0313,386.0469 Q283.6563,386.0469 284.25,385.7813 Q284.8438,385.5 285.4688,384.9219 L285.4688,387.6406 Z " fill="#000000"/><text fill="#000000" font-family="sans-serif" font-size="14" lengthAdjust="spacing" textLength="150.5957" x="296.5" y="386.8467">Investigador/Docente</text><line style="stroke:#181818;stroke-width:0.5;" x1="268.5" x2="449.0957" y1="398" y2="398"/><line style="stroke:#181818;stroke-width:0.5;" x1="268.5" x2="449.0957" y1="406" y2="406"/></g><g class="entity" data-entity="GMN8" data-source-line="7" data-uid="ent0009" id="entity_GMN8"><path d="M6,370 L6,410.2656 A0,0 0 0 0 6,410.2656 L232.3403,410.2656 A0,0 0 0 0 232.3403,410.2656 L232.3403,394 L267.04,390 L232.3403,386 L232.3403,380 L222.3403,370 L6,370 A0,0 0 0 0 6,370" fill="#FEFFDD" style="stroke:#181818;stroke-width:0.5;"/><path d="M222.3403,370 L222.3403,380 L232.3403,380 L222.3403,370" fill="#FEFFDD" style="stroke:#181818;stroke-width:0.5;"/><text fill="#000000" font-family="sans-serif" font-size="13" lengthAdjust="spacing" textLength="181.0859" x="12" y="387.0669">Son 2 clases diferentes, por</text><text fill="#000000" font-family="sans-serif" font-size="13" lengthAdjust="spacing" textLength="205.3403" x="12" y="402.1997">tema de simplicidad se deja asi</text></g><!--class Propuestas--><g class="entity" data-entity="Propuestas" data-source-line="8" data-uid="ent0011" id="entity_Propuestas"><rect fill="#F1F1F1" height="48" rx="2.5" ry="2.5" style="stroke:#181818;stroke-width:0.5;" width="109.793" x="517" y="491"/><ellipse cx="532" cy="507" fill="#ADD1B2" rx="11" ry="11" style="stroke:#181818;stroke-width:1;"/><path d="M534.9688,512.6406 Q534.3906,512.9375 533.75,513.0781 Q533.1094,513.2344 532.4063,513.2344 Q529.9063,513.2344 528.5781,511.5938 Q527.2656,509.9375 527.2656,506.8125 Q527.2656,503.6875 528.5781,502.0313 Q529.9063,500.375 532.4063,500.375 Q533.1094,500.375 533.75,500.5313 Q534.4063,500.6875 534.9688,500.9844 L534.9688,503.7031 Q534.3438,503.125 533.75,502.8594 Q533.1563,502.5781 532.5313,502.5781 Q531.1875,502.5781 530.5,503.6563 Q529.8125,504.7188 529.8125,506.8125 Q529.8125,508.9063 530.5,509.9844 Q531.1875,511.0469 532.5313,511.0469 Q533.1563,511.0469 533.75,510.7813 Q534.3438,510.5 534.9688,509.9219 L534.9688,512.6406 Z " fill="#000000"/><text fill="#000000" font-family="sans-serif" font-size="14" lengthAdjust="spacing" textLength="77.793" x="546" y="511.8467">Propuestas</text><line style="stroke:#181818;stroke-width:0.5;" x1="518" x2="625.793" y1="523" y2="523"/><line style="stroke:#181818;stroke-width:0.5;" x1="518" x2="625.793" y1="531" y2="531"/></g><!--class Proyecto--><g class="entity" data-entity="Proyecto" data-source-line="9" data-uid="ent0012" id="entity_Proyecto"><rect fill="#F1F1F1" height="48" rx="2.5" ry="2.5" style="stroke:#181818;stroke-width:0.5;" width="93.4141" x="379.5" y="616"/><ellipse cx="394.5" cy="632" fill="#ADD1B2" rx="11" ry="11" style="stroke:#181818;stroke-width:1;"/><path d="M397.4688,637.6406 Q396.8906,637.9375 396.25,638.0781 Q395.6094,638.2344 394.9063,638.2344 Q392.4063,638.2344 391.0781,636.5938 Q389.7656,634.9375 389.7656,631.8125 Q389.7656,628.6875 391.0781,627.0313 Q392.4063,625.375 394.9063,625.375 Q395.6094,625.375 396.25,625.5313 Q396.9063,625.6875 397.4688,625.9844 L397.4688,628.7031 Q396.8438,628.125 396.25,627.8594 Q395.6563,627.5781 395.0313,627.5781 Q393.6875,627.5781 393,628.6563 Q392.3125,629.7188 392.3125,631.8125 Q392.3125,633.9063 393,634.9844 Q393.6875,636.0469 395.0313,636.0469 Q395.6563,636.0469 396.25,635.7813 Q396.8438,635.5 397.4688,634.9219 L397.4688,637.6406 Z " fill="#000000"/><text fill="#000000" font-family="sans-serif" font-size="14" lengthAdjust="spacing" textLength="61.4141" x="408.5" y="636.8467">Proyecto</text><line style="stroke:#181818;stroke-width:0.5;" x1="380.5" x2="471.9141" y1="648" y2="648"/><line style="stroke:#181818;stroke-width:0.5;" x1="380.5" x2="471.9141" y1="656" y2="656"/></g><!--class RedDeInvestigadores--><g class="entity" data-entity="RedDeInvestigadores" data-source-line="10" data-uid="ent0013" id="entity_RedDeInvestigadores"><rect fill="#F1F1F1" height="48" rx="2.5" ry="2.5" style="stroke:#181818;stroke-width:0.5;" width="181.7754" x="268" y="7"/><ellipse cx="283" cy="23" fill="#ADD1B2" rx="11" ry="11" style="stroke:#181818;stroke-width:1;"/><path d="M285.9688,28.6406 Q285.3906,28.9375 284.75,29.0781 Q284.1094,29.2344 283.4063,29.2344 Q280.9063,29.2344 279.5781,27.5938 Q278.2656,25.9375 278.2656,22.8125 Q278.2656,19.6875 279.5781,18.0313 Q280.9063,16.375 283.4063,16.375 Q284.1094,16.375 284.75,16.5313 Q285.4063,16.6875 285.9688,16.9844 L285.9688,19.7031 Q285.3438,19.125 284.75,18.8594 Q284.1563,18.5781 283.5313,18.5781 Q282.1875,18.5781 281.5,19.6563 Q280.8125,20.7188 280.8125,22.8125 Q280.8125,24.9063 281.5,25.9844 Q282.1875,27.0469 283.5313,27.0469 Q284.1563,27.0469 284.75,26.7813 Q285.3438,26.5 285.9688,25.9219 L285.9688,28.6406 Z " fill="#000000"/><text fill="#000000" font-family="sans-serif" font-size="14" lengthAdjust="spacing" textLength="149.7754" x="297" y="27.8467">RedDeInvestigadores</text><line style="stroke:#181818;stroke-width:0.5;" x1="269" x2="448.7754" y1="39" y2="39"/><line style="stroke:#181818;stroke-width:0.5;" x1="269" x2="448.7754" y1="47" y2="47"/></g><g class="entity" data-entity="GMN14" data-source-line="11" data-uid="ent0015" id="entity_GMN14"><path d="M485,11 L485,27 L450.27,31 L485,35 L485,51.2656 A0,0 0 0 0 485,51.2656 L628.8335,51.2656 A0,0 0 0 0 628.8335,51.2656 L628.8335,21 L618.8335,11 L485,11 A0,0 0 0 0 485,11" fill="#FEFFDD" style="stroke:#181818;stroke-width:0.5;"/><path d="M618.8335,11 L618.8335,21 L628.8335,21 L618.8335,11" fill="#FEFFDD" style="stroke:#181818;stroke-width:0.5;"/><text fill="#000000" font-family="sans-serif" font-size="13" lengthAdjust="spacing" textLength="122.8335" x="491" y="28.0669">Todavia por definir</text><text fill="#000000" font-family="sans-serif" font-size="13" lengthAdjust="spacing" textLength="108.8052" x="491" y="43.1997">el nombre oficial</text></g><!--class Usuario--><g class="entity" data-entity="Usuario" data-source-line="12" data-uid="ent0017" id="entity_Usuario"><rect fill="#F1F1F1" height="48" rx="2.5" ry="2.5" style="stroke:#181818;stroke-width:0.5;" width="85.2041" x="316.5" y="132"/><ellipse cx="331.5" cy="148" fill="#A9DCDF" rx="11" ry="11" style="stroke:#181818;stroke-width:1;"/><path d="M331.6094,143.3438 L330.4531,148.4219 L332.7813,148.4219 L331.6094,143.3438 Z M330.125,141.1094 L333.1094,141.1094 L336.4688,153.5 L334.0156,153.5 L333.25,150.4375 L329.9688,150.4375 L329.2188,153.5 L326.7813,153.5 L330.125,141.1094 Z " fill="#000000"/><text fill="#000000" font-family="sans-serif" font-size="14" font-style="italic" lengthAdjust="spacing" textLength="53.2041" x="345.5" y="152.8467">Usuario</text><line style="stroke:#181818;stroke-width:0.5;" x1="317.5" x2="400.7041" y1="164" y2="164"/><line style="stroke:#181818;stroke-width:0.5;" x1="317.5" x2="400.7041" y1="172" y2="172"/></g><!--class ColaboradorExterno--><g class="entity" data-entity="ColaboradorExterno" data-source-line="13" data-uid="ent0018" id="entity_ColaboradorExterno"><rect fill="#F1F1F1" height="48" rx="2.5" ry="2.5" style="stroke:#181818;stroke-width:0.5;" width="172.2324" x="89" y="616"/><ellipse cx="104" cy="632" fill="#ADD1B2" rx="11" ry="11" style="stroke:#181818;stroke-width:1;"/><path d="M108.1094,638 L100.3906,638 L100.3906,625.6094 L108.1094,625.6094 L108.1094,627.7656 L102.8438,627.7656 L102.8438,630.4375 L107.6094,630.4375 L107.6094,632.5938 L102.8438,632.5938 L102.8438,635.8438 L108.1094,635.8438 L108.1094,638 Z " fill="#000000"/><text fill="#000000" font-family="sans-serif" font-size="14" lengthAdjust="spacing" textLength="140.2324" x="118" y="636.8467">ColaboradorExterno</text><line style="stroke:#181818;stroke-width:0.5;" x1="90" x2="260.2324" y1="648" y2="648"/><line style="stroke:#181818;stroke-width:0.5;" x1="90" x2="260.2324" y1="656" y2="656"/></g><!--class EntidadConvocante--><g class="entity" data-entity="EntidadConvocante" data-source-line="14" data-uid="ent0019" id="entity_EntidadConvocante"><rect fill="#F1F1F1" height="48" rx="2.5" ry="2.5" style="stroke:#181818;stroke-width:0.5;" width="168.7666" x="582.5" y="241"/><ellipse cx="597.5" cy="257" fill="#ADD1B2" rx="11" ry="11" style="stroke:#181818;stroke-width:1;"/><path d="M601.6094,263 L593.8906,263 L593.8906,250.6094 L601.6094,250.6094 L601.6094,252.7656 L596.3438,252.7656 L596.3438,255.4375 L601.1094,255.4375 L601.1094,257.5938 L596.3438,257.5938 L596.3438,260.8438 L601.6094,260.8438 L601.6094,263 Z " fill="#000000"/><text fill="#000000" font-family="sans-serif" font-size="14" lengthAdjust="spacing" textLength="136.7666" x="611.5" y="261.8467">EntidadConvocante</text><line style="stroke:#181818;stroke-width:0.5;" x1="583.5" x2="750.2666" y1="273" y2="273"/><line style="stroke:#181818;stroke-width:0.5;" x1="583.5" x2="750.2666" y1="281" y2="281"/></g><!--class Financiador--><g class="entity" data-entity="Financiador" data-source-line="15" data-uid="ent0020" id="entity_Financiador"><rect fill="#F1F1F1" height="48" rx="2.5" ry="2.5" style="stroke:#181818;stroke-width:0.5;" width="113.6416" x="595" y="616"/><ellipse cx="610" cy="632" fill="#ADD1B2" rx="11" ry="11" style="stroke:#181818;stroke-width:1;"/><path d="M614.1094,638 L606.3906,638 L606.3906,625.6094 L614.1094,625.6094 L614.1094,627.7656 L608.8438,627.7656 L608.8438,630.4375 L613.6094,630.4375 L613.6094,632.5938 L608.8438,632.5938 L608.8438,635.8438 L614.1094,635.8438 L614.1094,638 Z " fill="#000000"/><text fill="#000000" font-family="sans-serif" font-size="14" lengthAdjust="spacing" textLength="81.6416" x="624" y="636.8467">Financiador</text><line style="stroke:#181818;stroke-width:0.5;" x1="596" x2="707.6416" y1="648" y2="648"/><line style="stroke:#181818;stroke-width:0.5;" x1="596" x2="707.6416" y1="656" y2="656"/></g><!--reverse link RedDeInvestigadores to Usuario--><g class="link" data-entity-1="RedDeInvestigadores" data-entity-2="Usuario" data-source-line="17" data-uid="lnk21" id="link_RedDeInvestigadores_Usuario"><path codeLine="17" d="M359,67.14 C359,89.13 359,110.01 359,131.97" fill="none" id="RedDeInvestigadores-backto-Usuario" style="stroke:#181818;stroke-width:1;"/><polygon fill="#181818" points="359,55.14,355,61.14,359,67.14,363,61.14,359,55.14" style="stroke:#181818;stroke-width:1;"/><text fill="#000000" font-family="sans-serif" font-size="13" lengthAdjust="spacing" textLength="77.2954" x="360" y="98.0669">forma parte</text></g><!--reverse link Usuario to Investigador/Docente--><g class="link" data-entity-1="Usuario" data-entity-2="Investigador.Docente" data-source-line="19" data-uid="lnk22" id="link_Usuario_Investigador.Docente"><path codeLine="19" d="M359,186.09 C359,230.45 359,321.1 359,365.66" fill="none" id="Usuario-backto-Investigador/Docente" style="stroke:#181818;stroke-width:1;"/><polygon fill="#181818" points="359,180.09,355,189.09,359,185.09,363,189.09,359,180.09" style="stroke:#181818;stroke-width:1;"/></g><!--reverse link Usuario to DepaProyectos--><g class="link" data-entity-1="Usuario" data-entity-2="DepaProyectos" data-source-line="20" data-uid="lnk23" id="link_Usuario_DepaProyectos"><path codeLine="20" d="M407.78,156 C419.45,156 425.12,156 436.79,156" fill="none" id="Usuario-backto-DepaProyectos" style="stroke:#181818;stroke-width:1;"/><polygon fill="#181818" points="401.78,156,410.78,160,406.78,156,410.78,152,401.78,156" style="stroke:#181818;stroke-width:1;"/></g><!--link DatosPersonales to Usuario--><g class="link" data-entity-1="DatosPersonales" data-entity-2="Usuario" data-source-line="21" data-uid="lnk25" id="link_DatosPersonales_Usuario"><path codeLine="21" d="M281.52,156 C293.12,156 292.72,156 304.32,156" fill="none" id="DatosPersonales-to-Usuario" style="stroke:#181818;stroke-width:1;"/><polygon fill="#181818" points="316.32,156,310.32,152,304.32,156,310.32,160,316.32,156" style="stroke:#181818;stroke-width:1;"/></g><!--reverse link Investigador/Docente to HabilidadesTecnicas--><g class="link" data-entity-1="Investigador.Docente" data-entity-2="HabilidadesTecnicas" data-source-line="23" data-uid="lnk26" id="link_Investigador.Docente_HabilidadesTecnicas"><path codeLine="23" d="M319.8107,421.511 C291.5607,443.501 258.79,469.01 230.59,490.97" fill="none" id="Investigador/Docente-backto-HabilidadesTecnicas" style="stroke:#181818;stroke-width:1;"/><polygon fill="#181818" points="329.28,414.14,322.0883,414.6691,319.8107,421.511,327.0023,420.9819,329.28,414.14" style="stroke:#181818;stroke-width:1;"/></g><!--reverse link Investigador/Docente to Proyecto--><g class="link" data-entity-1="Investigador.Docente" data-entity-2="Proyecto" data-source-line="24" data-uid="lnk27" id="link_Investigador.Docente_Proyecto"><path codeLine="24" d="M359.5008,426.0557 C360.2908,455.5957 363.25,496.11 376,539 C384.24,566.72 399.83,596.05 411.42,615.72" fill="none" id="Investigador/Docente-backto-Proyecto" style="stroke:#181818;stroke-width:1;"/><polygon fill="#181818" points="359.18,414.06,355.3418,420.1648,359.5008,426.0557,363.339,419.9509,359.18,414.06" style="stroke:#181818;stroke-width:1;"/><text fill="#000000" font-family="sans-serif" font-size="13" lengthAdjust="spacing" textLength="121.1895" x="377" y="519.5669">Forma parte de un</text></g><!--reverse link Investigador/Docente to Propuestas--><g class="link" data-entity-1="Investigador.Docente" data-entity-2="Propuestas" data-source-line="25" data-uid="lnk28" id="link_Investigador.Docente_Propuestas"><path codeLine="25" d="M409.4518,420.1409 C447.5318,442.1309 494.09,469.01 532.12,490.97" fill="none" id="Investigador/Docente-backto-Propuestas" style="stroke:#181818;stroke-width:1;"/><polygon fill="#181818" points="399.06,414.14,402.2556,420.6044,409.4518,420.1409,406.2562,413.6765,399.06,414.14" style="stroke:#181818;stroke-width:1;"/><text fill="#000000" font-family="sans-serif" font-size="13" lengthAdjust="spacing" textLength="61.4644" x="480" y="457.0669">Hace una</text></g><!--reverse link DepaProyectos to Antena--><g class="link" data-entity-1="DepaProyectos" data-entity-2="Antena" data-source-line="27" data-uid="lnk29" id="link_DepaProyectos_Antena"><path codeLine="27" d="M506,192.22 C506,210.16 506,222.89 506,240.83" fill="none" id="DepaProyectos-backto-Antena" style="stroke:#181818;stroke-width:1;"/><polygon fill="#181818" points="506,180.22,502,186.22,506,192.22,510,186.22,506,180.22" style="stroke:#181818;stroke-width:1;"/></g><!--reverse link Antena to Convocatorias--><g class="link" data-entity-1="Antena" data-entity-2="Convocatorias" data-source-line="28" data-uid="lnk30" id="link_Antena_Convocatorias"><path codeLine="28" d="M524.084,299.7138 C535.884,321.7038 547.86,344.01 559.64,365.97" fill="none" id="Antena-backto-Convocatorias" style="stroke:#181818;stroke-width:1;"/><polygon fill="#181818" points="518.41,289.14,517.7224,296.3182,524.084,299.7138,524.7716,292.5356,518.41,289.14" style="stroke:#181818;stroke-width:1;"/><text fill="#000000" font-family="sans-serif" font-size="13" lengthAdjust="spacing" textLength="39.0444" x="544" y="332.0669">Busca</text></g><!--reverse link EntidadConvocante to Convocatorias--><g class="link" data-entity-1="EntidadConvocante" data-entity-2="Convocatorias" data-source-line="29" data-uid="lnk31" id="link_EntidadConvocante_Convocatorias"><path codeLine="29" d="M641.7959,298.638 C624.8159,320.628 606.75,344.01 589.79,365.97" fill="none" id="EntidadConvocante-backto-Convocatorias" style="stroke:#181818;stroke-width:1;"/><polygon fill="#181818" points="649.13,289.14,642.297,291.4443,641.7959,298.638,648.629,296.3337,649.13,289.14" style="stroke:#181818;stroke-width:1;"/><text fill="#000000" font-family="sans-serif" font-size="13" lengthAdjust="spacing" textLength="66.6758" x="627" y="332.0669">Organizan</text></g><!--link Convocatorias to Propuestas--><g class="link" data-entity-1="Convocatorias" data-entity-2="Propuestas" data-source-line="30" data-uid="lnk32" id="link_Convocatorias_Propuestas"><path codeLine="30" d="M572,414.14 C572,436.13 572,463.01 572,484.97" fill="none" id="Convocatorias-to-Propuestas" style="stroke:#181818;stroke-width:1;"/><polygon fill="#181818" points="572,490.97,576,481.97,572,485.97,568,481.97,572,490.97" style="stroke:#181818;stroke-width:1;"/><text fill="#000000" font-family="sans-serif" font-size="13" lengthAdjust="spacing" textLength="59.9727" x="573" y="457.0669">Se hacen</text></g><!--link Propuestas to Proyecto--><g class="link" data-entity-1="Propuestas" data-entity-2="Proyecto" data-source-line="31" data-uid="lnk33" id="link_Propuestas_Proyecto"><path codeLine="31" d="M544.54,539.14 C518.44,561.13 483.9882,590.1437 457.9282,612.1037" fill="none" id="Propuestas-to-Proyecto" style="stroke:#181818;stroke-width:1;"/><polygon fill="#181818" points="453.34,615.97,462.7998,613.2293,457.1635,612.7481,457.6447,607.1117,453.34,615.97" style="stroke:#181818;stroke-width:1;"/><text fill="#000000" font-family="sans-serif" font-size="13" lengthAdjust="spacing" textLength="107.0342" x="509" y="582.0669">De ser aceptada</text></g><!--link ColaboradorExterno to Proyecto--><g class="link" data-entity-1="ColaboradorExterno" data-entity-2="Proyecto" data-source-line="33" data-uid="lnk35" id="link_ColaboradorExterno_Proyecto"><path codeLine="33" d="M261.03,640 C300.62,640 334.05,640 367.2,640" fill="none" id="ColaboradorExterno-to-Proyecto" style="stroke:#181818;stroke-width:1;"/><polygon fill="#181818" points="379.2,640,373.2,636,367.2,640,373.2,644,379.2,640" style="stroke:#181818;stroke-width:1;"/><text fill="#000000" font-family="sans-serif" font-size="13" lengthAdjust="spacing" textLength="82.0244" x="279.25" y="633.0669">Ayuda en un</text></g><!--reverse link Proyecto to Financiador--><g class="link" data-entity-1="Proyecto" data-entity-2="Financiador" data-source-line="34" data-uid="lnk36" id="link_Proyecto_Financiador"><path codeLine="34" d="M484.55,640 C519.96,640 556.86,640 594.68,640" fill="none" id="Proyecto-backto-Financiador" style="stroke:#181818;stroke-width:1;"/><polygon fill="#181818" points="472.55,640,478.55,644,484.55,640,478.55,636,472.55,640" style="stroke:#181818;stroke-width:1;"/><text fill="#000000" font-family="sans-serif" font-size="13" lengthAdjust="spacing" textLength="86.6836" x="490.75" y="633.0669">Es financiado</text></g><!--SRC=[XL9DJyCm3BtdLrWz8YeaZWWX0Hk24uYF6nSlSJUZBAcIT6ByUfoIbWugEBMnt_Dx_j0MOuHBbyYXqltZshkTrvXyO8mbjf1dVA0GlKDBOvHQV0X-Jrgo9NQBAxPiq51y9krOZpNkt8vYuZKQ7quMNfE8AkSJWQKcdS6JTt0A6KiH33SKCY8UG-l3g_nj4Gn1v6rhMMS5Y2IHDmICN3J4JTk9oYWws2lFHp8BcXgHNdeBWTSRyV3i3UuOiwIKRjYnI9C5vxUhGE0RKKQhS1LJG9tW9NOOs2jnocalexEuyY4NNhud2cxCBEKZbijiS-SbSSCEdHGLYb8pzk2ehWSPE8EgyK46qM98L2ar9CvhgERcMqqHX-iQ4aUr_RLUDL-izpAtu3_WWs3sVlFjFQ-oSzK_pBBBpBr5dHaeJH_qqKFB_Nvz-iZ14MV-LHUra7_jOHvz7zRe-0F5uM6khYz-67iYs8WtGKxY1JPslf33fG22QnEQtCIObVdNCuUJMPVxpY2GwoSr8KoF9kEM4PenKdq2]--></g></svg>