<svg xmlns="http://www.w3.org/2000/svg" xmlns:xlink="http://www.w3.org/1999/xlink" contentStyleType="text/css" data-diagram-type="CLASS" height="687px" preserveAspectRatio="none" style="width:676px;height:687px;background:#FFFFFF;" version="1.1" viewBox="0 0 676 687" width="676px" zoomAndPan="magnify"><defs/><g><!--class Antena--><g class="entity" data-entity="Antena" data-source-line="1" data-uid="ent0002" id="entity_Antena"><rect fill="#F1F1F1" height="48" rx="2.5" ry="2.5" style="stroke:#181818;stroke-width:0.5;" width="82.0049" x="383" y="241"/><ellipse cx="398" cy="257" fill="#ADD1B2" rx="11" ry="11" style="stroke:#181818;stroke-width:1;"/><path d="M400.9688,262.6406 Q400.3906,262.9375 399.75,263.0781 Q399.1094,263.2344 398.4063,263.2344 Q395.9063,263.2344 394.5781,261.5938 Q393.2656,259.9375 393.2656,256.8125 Q393.2656,253.6875 394.5781,252.0313 Q395.9063,250.375 398.4063,250.375 Q399.1094,250.375 399.75,250.5313 Q400.4063,250.6875 400.9688,250.9844 L400.9688,253.7031 Q400.3438,253.125 399.75,252.8594 Q399.1563,252.5781 398.5313,252.5781 Q397.1875,252.5781 396.5,253.6563 Q395.8125,254.7188 395.8125,256.8125 Q395.8125,258.9063 396.5,259.9844 Q397.1875,261.0469 398.5313,261.0469 Q399.1563,261.0469 399.75,260.7813 Q400.3438,260.5 400.9688,259.9219 L400.9688,262.6406 Z " fill="#000000"/><text fill="#000000" font-family="sans-serif" font-size="14" lengthAdjust="spacing" textLength="50.0049" x="412" y="261.8467">Antena</text><line style="stroke:#181818;stroke-width:0.5;" x1="384" x2="464.0049" y1="273" y2="273"/><line style="stroke:#181818;stroke-width:0.5;" x1="384" x2="464.0049" y1="281" y2="281"/></g><!--class Convocatorias--><g class="entity" data-entity="Convocatorias" data-source-line="2" data-uid="ent0003" id="entity_Convocatorias"><rect fill="#F1F1F1" height="48" rx="2.5" ry="2.5" style="stroke:#181818;stroke-width:0.5;" width="131.9141" x="424" y="374"/><ellipse cx="439" cy="390" fill="#ADD1B2" rx="11" ry="11" style="stroke:#181818;stroke-width:1;"/><path d="M441.9688,395.6406 Q441.3906,395.9375 440.75,396.0781 Q440.1094,396.2344 439.4063,396.2344 Q436.9063,396.2344 435.5781,394.5938 Q434.2656,392.9375 434.2656,389.8125 Q434.2656,386.6875 435.5781,385.0313 Q436.9063,383.375 439.4063,383.375 Q440.1094,383.375 440.75,383.5313 Q441.4063,383.6875 441.9688,383.9844 L441.9688,386.7031 Q441.3438,386.125 440.75,385.8594 Q440.1563,385.5781 439.5313,385.5781 Q438.1875,385.5781 437.5,386.6563 Q436.8125,387.7188 436.8125,389.8125 Q436.8125,391.9063 437.5,392.9844 Q438.1875,394.0469 439.5313,394.0469 Q440.1563,394.0469 440.75,393.7813 Q441.3438,393.5 441.9688,392.9219 L441.9688,395.6406 Z " fill="#000000"/><text fill="#000000" font-family="sans-serif" font-size="14" lengthAdjust="spacing" textLength="99.9141" x="453" y="394.8467">Convocatorias</text><line style="stroke:#181818;stroke-width:0.5;" x1="425" x2="554.9141" y1="406" y2="406"/><line style="stroke:#181818;stroke-width:0.5;" x1="425" x2="554.9141" y1="414" y2="414"/></g><!--class DatosPersonales--><g class="entity" data-entity="DatosPersonales" data-source-line="3" data-uid="ent0004" id="entity_DatosPersonales"><rect fill="#F1F1F1" height="48" rx="2.5" ry="2.5" style="stroke:#181818;stroke-width:0.5;" width="148.6279" x="50.5" y="132"/><ellipse cx="65.5" cy="148" fill="#ADD1B2" rx="11" ry="11" style="stroke:#181818;stroke-width:1;"/><path d="M68.4688,153.6406 Q67.8906,153.9375 67.25,154.0781 Q66.6094,154.2344 65.9063,154.2344 Q63.4063,154.2344 62.0781,152.5938 Q60.7656,150.9375 60.7656,147.8125 Q60.7656,144.6875 62.0781,143.0313 Q63.4063,141.375 65.9063,141.375 Q66.6094,141.375 67.25,141.5313 Q67.9063,141.6875 68.4688,141.9844 L68.4688,144.7031 Q67.8438,144.125 67.25,143.8594 Q66.6563,143.5781 66.0313,143.5781 Q64.6875,143.5781 64,144.6563 Q63.3125,145.7188 63.3125,147.8125 Q63.3125,149.9063 64,150.9844 Q64.6875,152.0469 66.0313,152.0469 Q66.6563,152.0469 67.25,151.7813 Q67.8438,151.5 68.4688,150.9219 L68.4688,153.6406 Z " fill="#000000"/><text fill="#000000" font-family="sans-serif" font-size="14" lengthAdjust="spacing" textLength="116.6279" x="79.5" y="152.8467">DatosPersonales</text><line style="stroke:#181818;stroke-width:0.5;" x1="51.5" x2="198.1279" y1="164" y2="164"/><line style="stroke:#181818;stroke-width:0.5;" x1="51.5" x2="198.1279" y1="172" y2="172"/></g><!--class DepaProyectos--><g class="entity" data-entity="DepaProyectos" data-source-line="4" data-uid="ent0005" id="entity_DepaProyectos"><rect fill="#F1F1F1" height="48" rx="2.5" ry="2.5" style="stroke:#181818;stroke-width:0.5;" width="137.5674" x="355" y="132"/><ellipse cx="370" cy="148" fill="#ADD1B2" rx="11" ry="11" style="stroke:#181818;stroke-width:1;"/><path d="M372.9688,153.6406 Q372.3906,153.9375 371.75,154.0781 Q371.1094,154.2344 370.4063,154.2344 Q367.9063,154.2344 366.5781,152.5938 Q365.2656,150.9375 365.2656,147.8125 Q365.2656,144.6875 366.5781,143.0313 Q367.9063,141.375 370.4063,141.375 Q371.1094,141.375 371.75,141.5313 Q372.4063,141.6875 372.9688,141.9844 L372.9688,144.7031 Q372.3438,144.125 371.75,143.8594 Q371.1563,143.5781 370.5313,143.5781 Q369.1875,143.5781 368.5,144.6563 Q367.8125,145.7188 367.8125,147.8125 Q367.8125,149.9063 368.5,150.9844 Q369.1875,152.0469 370.5313,152.0469 Q371.1563,152.0469 371.75,151.7813 Q372.3438,151.5 372.9688,150.9219 L372.9688,153.6406 Z " fill="#000000"/><text fill="#000000" font-family="sans-serif" font-size="14" lengthAdjust="spacing" textLength="105.5674" x="384" y="152.8467">DepaProyectos</text><line style="stroke:#181818;stroke-width:0.5;" x1="356" x2="491.5674" y1="164" y2="164"/><line style="stroke:#181818;stroke-width:0.5;" x1="356" x2="491.5674" y1="172" y2="172"/></g><!--class HabilidadesTecnicas--><g class="entity" data-entity="HabilidadesTecnicas" data-source-line="5" data-uid="ent0006" id="entity_HabilidadesTecnicas"><rect fill="#F1F1F1" height="48" rx="2.5" ry="2.5" style="stroke:#181818;stroke-width:0.5;" width="175.1172" x="31.5" y="507"/><ellipse cx="46.5" cy="523" fill="#ADD1B2" rx="11" ry="11" style="stroke:#181818;stroke-width:1;"/><path d="M49.4688,528.6406 Q48.8906,528.9375 48.25,529.0781 Q47.6094,529.2344 46.9063,529.2344 Q44.4063,529.2344 43.0781,527.5938 Q41.7656,525.9375 41.7656,522.8125 Q41.7656,519.6875 43.0781,518.0313 Q44.4063,516.375 46.9063,516.375 Q47.6094,516.375 48.25,516.5313 Q48.9063,516.6875 49.4688,516.9844 L49.4688,519.7031 Q48.8438,519.125 48.25,518.8594 Q47.6563,518.5781 47.0313,518.5781 Q45.6875,518.5781 45,519.6563 Q44.3125,520.7188 44.3125,522.8125 Q44.3125,524.9063 45,525.9844 Q45.6875,527.0469 47.0313,527.0469 Q47.6563,527.0469 48.25,526.7813 Q48.8438,526.5 49.4688,525.9219 L49.4688,528.6406 Z " fill="#000000"/><text fill="#000000" font-family="sans-serif" font-size="14" lengthAdjust="spacing" textLength="143.1172" x="60.5" y="527.8467">HabilidadesTecnicas</text><line style="stroke:#181818;stroke-width:0.5;" x1="32.5" x2="205.6172" y1="539" y2="539"/><line style="stroke:#181818;stroke-width:0.5;" x1="32.5" x2="205.6172" y1="547" y2="547"/></g><!--class Investigador--><g class="entity" data-entity="Investigador" data-source-line="6" data-uid="ent0007" id="entity_Investigador"><rect fill="#F1F1F1" height="48" rx="2.5" ry="2.5" style="stroke:#181818;stroke-width:0.5;" width="119.2471" x="217.5" y="374"/><ellipse cx="232.5" cy="390" fill="#ADD1B2" rx="11" ry="11" style="stroke:#181818;stroke-width:1;"/><path d="M235.4688,395.6406 Q234.8906,395.9375 234.25,396.0781 Q233.6094,396.2344 232.9063,396.2344 Q230.4063,396.2344 229.0781,394.5938 Q227.7656,392.9375 227.7656,389.8125 Q227.7656,386.6875 229.0781,385.0313 Q230.4063,383.375 232.9063,383.375 Q233.6094,383.375 234.25,383.5313 Q234.9063,383.6875 235.4688,383.9844 L235.4688,386.7031 Q234.8438,386.125 234.25,385.8594 Q233.6563,385.5781 233.0313,385.5781 Q231.6875,385.5781 231,386.6563 Q230.3125,387.7188 230.3125,389.8125 Q230.3125,391.9063 231,392.9844 Q231.6875,394.0469 233.0313,394.0469 Q233.6563,394.0469 234.25,393.7813 Q234.8438,393.5 235.4688,392.9219 L235.4688,395.6406 Z " fill="#000000"/><text fill="#000000" font-family="sans-serif" font-size="14" lengthAdjust="spacing" textLength="87.2471" x="246.5" y="394.8467">Investigador</text><line style="stroke:#181818;stroke-width:0.5;" x1="218.5" x2="335.7471" y1="406" y2="406"/><line style="stroke:#181818;stroke-width:0.5;" x1="218.5" x2="335.7471" y1="414" y2="414"/></g><!--class Docente--><g class="entity" data-entity="Docente" data-source-line="7" data-uid="ent0008" id="entity_Docente"><rect fill="#F1F1F1" height="64.2969" rx="2.5" ry="2.5" style="stroke:#181818;stroke-width:0.5;" width="120.6846" x="61.5" y="366"/><ellipse cx="90.0237" cy="382" fill="#ADD1B2" rx="11" ry="11" style="stroke:#181818;stroke-width:1;"/><path d="M92.9925,387.6406 Q92.4144,387.9375 91.7737,388.0781 Q91.1331,388.2344 90.43,388.2344 Q87.93,388.2344 86.6019,386.5938 Q85.2894,384.9375 85.2894,381.8125 Q85.2894,378.6875 86.6019,377.0313 Q87.93,375.375 90.43,375.375 Q91.1331,375.375 91.7737,375.5313 Q92.43,375.6875 92.9925,375.9844 L92.9925,378.7031 Q92.3675,378.125 91.7737,377.8594 Q91.18,377.5781 90.555,377.5781 Q89.2112,377.5781 88.5237,378.6563 Q87.8362,379.7188 87.8362,381.8125 Q87.8362,383.9063 88.5237,384.9844 Q89.2112,386.0469 90.555,386.0469 Q91.18,386.0469 91.7737,385.7813 Q92.3675,385.5 92.9925,384.9219 L92.9925,387.6406 Z " fill="#000000"/><text fill="#000000" font-family="sans-serif" font-size="14" lengthAdjust="spacing" textLength="58.6318" x="107.029" y="386.8467">Docente</text><line style="stroke:#181818;stroke-width:0.5;" x1="62.5" x2="181.1846" y1="398" y2="398"/><text fill="#000000" font-family="sans-serif" font-size="14" lengthAdjust="spacing" textLength="108.6846" x="67.5" y="414.9951">HorasLaborales</text><line style="stroke:#181818;stroke-width:0.5;" x1="62.5" x2="181.1846" y1="422.2969" y2="422.2969"/></g><!--class Propuestas--><g class="entity" data-entity="Propuestas" data-source-line="10" data-uid="ent0009" id="entity_Propuestas"><rect fill="#F1F1F1" height="48" rx="2.5" ry="2.5" style="stroke:#181818;stroke-width:0.5;" width="109.793" x="435" y="507"/><ellipse cx="450" cy="523" fill="#ADD1B2" rx="11" ry="11" style="stroke:#181818;stroke-width:1;"/><path d="M452.9688,528.6406 Q452.3906,528.9375 451.75,529.0781 Q451.1094,529.2344 450.4063,529.2344 Q447.9063,529.2344 446.5781,527.5938 Q445.2656,525.9375 445.2656,522.8125 Q445.2656,519.6875 446.5781,518.0313 Q447.9063,516.375 450.4063,516.375 Q451.1094,516.375 451.75,516.5313 Q452.4063,516.6875 452.9688,516.9844 L452.9688,519.7031 Q452.3438,519.125 451.75,518.8594 Q451.1563,518.5781 450.5313,518.5781 Q449.1875,518.5781 448.5,519.6563 Q447.8125,520.7188 447.8125,522.8125 Q447.8125,524.9063 448.5,525.9844 Q449.1875,527.0469 450.5313,527.0469 Q451.1563,527.0469 451.75,526.7813 Q452.3438,526.5 452.9688,525.9219 L452.9688,528.6406 Z " fill="#000000"/><text fill="#000000" font-family="sans-serif" font-size="14" lengthAdjust="spacing" textLength="77.793" x="464" y="527.8467">Propuestas</text><line style="stroke:#181818;stroke-width:0.5;" x1="436" x2="543.793" y1="539" y2="539"/><line style="stroke:#181818;stroke-width:0.5;" x1="436" x2="543.793" y1="547" y2="547"/></g><!--class Proyecto--><g class="entity" data-entity="Proyecto" data-source-line="11" data-uid="ent0010" id="entity_Proyecto"><rect fill="#F1F1F1" height="48" rx="2.5" ry="2.5" style="stroke:#181818;stroke-width:0.5;" width="93.4141" x="297.5" y="632"/><ellipse cx="312.5" cy="648" fill="#ADD1B2" rx="11" ry="11" style="stroke:#181818;stroke-width:1;"/><path d="M315.4688,653.6406 Q314.8906,653.9375 314.25,654.0781 Q313.6094,654.2344 312.9063,654.2344 Q310.4063,654.2344 309.0781,652.5938 Q307.7656,650.9375 307.7656,647.8125 Q307.7656,644.6875 309.0781,643.0313 Q310.4063,641.375 312.9063,641.375 Q313.6094,641.375 314.25,641.5313 Q314.9063,641.6875 315.4688,641.9844 L315.4688,644.7031 Q314.8438,644.125 314.25,643.8594 Q313.6563,643.5781 313.0313,643.5781 Q311.6875,643.5781 311,644.6563 Q310.3125,645.7188 310.3125,647.8125 Q310.3125,649.9063 311,650.9844 Q311.6875,652.0469 313.0313,652.0469 Q313.6563,652.0469 314.25,651.7813 Q314.8438,651.5 315.4688,650.9219 L315.4688,653.6406 Z " fill="#000000"/><text fill="#000000" font-family="sans-serif" font-size="14" lengthAdjust="spacing" textLength="61.4141" x="326.5" y="652.8467">Proyecto</text><line style="stroke:#181818;stroke-width:0.5;" x1="298.5" x2="389.9141" y1="664" y2="664"/><line style="stroke:#181818;stroke-width:0.5;" x1="298.5" x2="389.9141" y1="672" y2="672"/></g><!--class RedDeInvestigadores--><g class="entity" data-entity="RedDeInvestigadores" data-source-line="12" data-uid="ent0011" id="entity_RedDeInvestigadores"><rect fill="#F1F1F1" height="48" rx="2.5" ry="2.5" style="stroke:#181818;stroke-width:0.5;" width="181.7754" x="186" y="7"/><ellipse cx="201" cy="23" fill="#ADD1B2" rx="11" ry="11" style="stroke:#181818;stroke-width:1;"/><path d="M203.9688,28.6406 Q203.3906,28.9375 202.75,29.0781 Q202.1094,29.2344 201.4063,29.2344 Q198.9063,29.2344 197.5781,27.5938 Q196.2656,25.9375 196.2656,22.8125 Q196.2656,19.6875 197.5781,18.0313 Q198.9063,16.375 201.4063,16.375 Q202.1094,16.375 202.75,16.5313 Q203.4063,16.6875 203.9688,16.9844 L203.9688,19.7031 Q203.3438,19.125 202.75,18.8594 Q202.1563,18.5781 201.5313,18.5781 Q200.1875,18.5781 199.5,19.6563 Q198.8125,20.7188 198.8125,22.8125 Q198.8125,24.9063 199.5,25.9844 Q200.1875,27.0469 201.5313,27.0469 Q202.1563,27.0469 202.75,26.7813 Q203.3438,26.5 203.9688,25.9219 L203.9688,28.6406 Z " fill="#000000"/><text fill="#000000" font-family="sans-serif" font-size="14" lengthAdjust="spacing" textLength="149.7754" x="215" y="27.8467">RedDeInvestigadores</text><line style="stroke:#181818;stroke-width:0.5;" x1="187" x2="366.7754" y1="39" y2="39"/><line style="stroke:#181818;stroke-width:0.5;" x1="187" x2="366.7754" y1="47" y2="47"/></g><g class="entity" data-entity="GMN12" data-source-line="13" data-uid="ent0013" id="entity_GMN12"><path d="M403,11 L403,27 L368.27,31 L403,35 L403,51.2656 A0,0 0 0 0 403,51.2656 L546.8335,51.2656 A0,0 0 0 0 546.8335,51.2656 L546.8335,21 L536.8335,11 L403,11 A0,0 0 0 0 403,11" fill="#FEFFDD" style="stroke:#181818;stroke-width:0.5;"/><path d="M536.8335,11 L536.8335,21 L546.8335,21 L536.8335,11" fill="#FEFFDD" style="stroke:#181818;stroke-width:0.5;"/><text fill="#000000" font-family="sans-serif" font-size="13" lengthAdjust="spacing" textLength="122.8335" x="409" y="28.0669">Todavia por definir</text><text fill="#000000" font-family="sans-serif" font-size="13" lengthAdjust="spacing" textLength="108.8052" x="409" y="43.1997">el nombre oficial</text></g><!--class Usuario--><g class="entity" data-entity="Usuario" data-source-line="14" data-uid="ent0015" id="entity_Usuario"><rect fill="#F1F1F1" height="48" rx="2.5" ry="2.5" style="stroke:#181818;stroke-width:0.5;" width="85.2041" x="234.5" y="132"/><ellipse cx="249.5" cy="148" fill="#A9DCDF" rx="11" ry="11" style="stroke:#181818;stroke-width:1;"/><path d="M249.6094,143.3438 L248.4531,148.4219 L250.7813,148.4219 L249.6094,143.3438 Z M248.125,141.1094 L251.1094,141.1094 L254.4688,153.5 L252.0156,153.5 L251.25,150.4375 L247.9688,150.4375 L247.2188,153.5 L244.7813,153.5 L248.125,141.1094 Z " fill="#000000"/><text fill="#000000" font-family="sans-serif" font-size="14" font-style="italic" lengthAdjust="spacing" textLength="53.2041" x="263.5" y="152.8467">Usuario</text><line style="stroke:#181818;stroke-width:0.5;" x1="235.5" x2="318.7041" y1="164" y2="164"/><line style="stroke:#181818;stroke-width:0.5;" x1="235.5" x2="318.7041" y1="172" y2="172"/></g><!--class ColaboradorExterno--><g class="entity" data-entity="ColaboradorExterno" data-source-line="15" data-uid="ent0016" id="entity_ColaboradorExterno"><rect fill="#F1F1F1" height="48" rx="2.5" ry="2.5" style="stroke:#181818;stroke-width:0.5;" width="172.2324" x="7" y="632"/><ellipse cx="22" cy="648" fill="#ADD1B2" rx="11" ry="11" style="stroke:#181818;stroke-width:1;"/><path d="M26.1094,654 L18.3906,654 L18.3906,641.6094 L26.1094,641.6094 L26.1094,643.7656 L20.8438,643.7656 L20.8438,646.4375 L25.6094,646.4375 L25.6094,648.5938 L20.8438,648.5938 L20.8438,651.8438 L26.1094,651.8438 L26.1094,654 Z " fill="#000000"/><text fill="#000000" font-family="sans-serif" font-size="14" lengthAdjust="spacing" textLength="140.2324" x="36" y="652.8467">ColaboradorExterno</text><line style="stroke:#181818;stroke-width:0.5;" x1="8" x2="178.2324" y1="664" y2="664"/><line style="stroke:#181818;stroke-width:0.5;" x1="8" x2="178.2324" y1="672" y2="672"/></g><!--class EntidadConvocante--><g class="entity" data-entity="EntidadConvocante" data-source-line="16" data-uid="ent0017" id="entity_EntidadConvocante"><rect fill="#F1F1F1" height="48" rx="2.5" ry="2.5" style="stroke:#181818;stroke-width:0.5;" width="168.7666" x="500.5" y="241"/><ellipse cx="515.5" cy="257" fill="#ADD1B2" rx="11" ry="11" style="stroke:#181818;stroke-width:1;"/><path d="M519.6094,263 L511.8906,263 L511.8906,250.6094 L519.6094,250.6094 L519.6094,252.7656 L514.3438,252.7656 L514.3438,255.4375 L519.1094,255.4375 L519.1094,257.5938 L514.3438,257.5938 L514.3438,260.8438 L519.6094,260.8438 L519.6094,263 Z " fill="#000000"/><text fill="#000000" font-family="sans-serif" font-size="14" lengthAdjust="spacing" textLength="136.7666" x="529.5" y="261.8467">EntidadConvocante</text><line style="stroke:#181818;stroke-width:0.5;" x1="501.5" x2="668.2666" y1="273" y2="273"/><line style="stroke:#181818;stroke-width:0.5;" x1="501.5" x2="668.2666" y1="281" y2="281"/></g><!--class Financiador--><g class="entity" data-entity="Financiador" data-source-line="17" data-uid="ent0018" id="entity_Financiador"><rect fill="#F1F1F1" height="48" rx="2.5" ry="2.5" style="stroke:#181818;stroke-width:0.5;" width="113.6416" x="513" y="632"/><ellipse cx="528" cy="648" fill="#ADD1B2" rx="11" ry="11" style="stroke:#181818;stroke-width:1;"/><path d="M532.1094,654 L524.3906,654 L524.3906,641.6094 L532.1094,641.6094 L532.1094,643.7656 L526.8438,643.7656 L526.8438,646.4375 L531.6094,646.4375 L531.6094,648.5938 L526.8438,648.5938 L526.8438,651.8438 L532.1094,651.8438 L532.1094,654 Z " fill="#000000"/><text fill="#000000" font-family="sans-serif" font-size="14" lengthAdjust="spacing" textLength="81.6416" x="542" y="652.8467">Financiador</text><line style="stroke:#181818;stroke-width:0.5;" x1="514" x2="625.6416" y1="664" y2="664"/><line style="stroke:#181818;stroke-width:0.5;" x1="514" x2="625.6416" y1="672" y2="672"/></g><!--reverse link RedDeInvestigadores to Usuario--><g class="link" data-entity-1="RedDeInvestigadores" data-entity-2="Usuario" data-source-line="19" data-uid="lnk19" id="link_RedDeInvestigadores_Usuario"><path codeLine="19" d="M277,67.14 C277,89.13 277,110.01 277,131.97" fill="none" id="RedDeInvestigadores-backto-Usuario" style="stroke:#181818;stroke-width:1;"/><polygon fill="#181818" points="277,55.14,273,61.14,277,67.14,281,61.14,277,55.14" style="stroke:#181818;stroke-width:1;"/><text fill="#000000" font-family="sans-serif" font-size="13" lengthAdjust="spacing" textLength="77.2954" x="278" y="98.0669">forma parte</text></g><!--reverse link Usuario to Investigador--><g class="link" data-entity-1="Usuario" data-entity-2="Investigador" data-source-line="21" data-uid="lnk20" id="link_Usuario_Investigador"><path codeLine="21" d="M277,186.01 C277,231.77 277,327.72 277,373.7" fill="none" id="Usuario-backto-Investigador" style="stroke:#181818;stroke-width:1;"/><polygon fill="#181818" points="277,180.01,273,189.01,277,185.01,281,189.01,277,180.01" style="stroke:#181818;stroke-width:1;"/></g><!--reverse link Usuario to DepaProyectos--><g class="link" data-entity-1="Usuario" data-entity-2="DepaProyectos" data-source-line="22" data-uid="lnk21" id="link_Usuario_DepaProyectos"><path codeLine="22" d="M325.78,156 C337.45,156 343.12,156 354.79,156" fill="none" id="Usuario-backto-DepaProyectos" style="stroke:#181818;stroke-width:1;"/><polygon fill="#181818" points="319.78,156,328.78,160,324.78,156,328.78,152,319.78,156" style="stroke:#181818;stroke-width:1;"/></g><!--link DatosPersonales to Usuario--><g class="link" data-entity-1="DatosPersonales" data-entity-2="Usuario" data-source-line="23" data-uid="lnk23" id="link_DatosPersonales_Usuario"><path codeLine="23" d="M199.52,156 C211.12,156 210.72,156 222.32,156" fill="none" id="DatosPersonales-to-Usuario" style="stroke:#181818;stroke-width:1;"/><polygon fill="#181818" points="234.32,156,228.32,152,222.32,156,228.32,160,234.32,156" style="stroke:#181818;stroke-width:1;"/></g><!--reverse link Investigador to HabilidadesTecnicas--><g class="link" data-entity-1="Investigador" data-entity-2="HabilidadesTecnicas" data-source-line="25" data-uid="lnk24" id="link_Investigador_HabilidadesTecnicas"><path codeLine="25" d="M239.8809,429.7776 C211.0809,453.6476 175.66,483.02 146.87,506.89" fill="none" id="Investigador-backto-HabilidadesTecnicas" style="stroke:#181818;stroke-width:1;"/><polygon fill="#181818" points="249.12,422.12,241.9479,422.8691,239.8809,429.7776,247.053,429.0285,249.12,422.12" style="stroke:#181818;stroke-width:1;"/></g><!--reverse link Investigador to Proyecto--><g class="link" data-entity-1="Investigador" data-entity-2="Proyecto" data-source-line="26" data-uid="lnk25" id="link_Investigador_Proyecto"><path codeLine="26" d="M277.2034,434.2281 C277.7534,465.1581 280.55,509.26 294,555 C302.16,582.75 317.76,612.07 329.37,631.74" fill="none" id="Investigador-backto-Proyecto" style="stroke:#181818;stroke-width:1;"/><polygon fill="#181818" points="276.99,422.23,273.0973,428.3002,277.2034,434.2281,281.096,428.1579,276.99,422.23" style="stroke:#181818;stroke-width:1;"/><text fill="#000000" font-family="sans-serif" font-size="13" lengthAdjust="spacing" textLength="121.1895" x="295" y="535.5669">Forma parte de un</text></g><!--reverse link Investigador to Propuestas--><g class="link" data-entity-1="Investigador" data-entity-2="Propuestas" data-source-line="27" data-uid="lnk26" id="link_Investigador_Propuestas"><path codeLine="27" d="M324.8114,428.4067 C363.6214,452.2767 413.62,483.02 452.43,506.89" fill="none" id="Investigador-backto-Propuestas" style="stroke:#181818;stroke-width:1;"/><polygon fill="#181818" points="314.59,422.12,317.6052,428.6705,324.8114,428.4067,321.7963,421.8562,314.59,422.12" style="stroke:#181818;stroke-width:1;"/><text fill="#000000" font-family="sans-serif" font-size="13" lengthAdjust="spacing" textLength="61.4644" x="404" y="473.0669">Hace una</text></g><!--link Docente to Investigador--><g class="link" data-entity-1="Docente" data-entity-2="Investigador" data-source-line="28" data-uid="lnk28" id="link_Docente_Investigador"><path codeLine="28" d="M182.55,398 C194.11,398 199.67,398 211.23,398" fill="none" id="Docente-to-Investigador" style="stroke:#181818;stroke-width:1;"/><polygon fill="#181818" points="217.23,398,208.23,394,212.23,398,208.23,402,217.23,398" style="stroke:#181818;stroke-width:1;"/></g><!--reverse link DepaProyectos to Antena--><g class="link" data-entity-1="DepaProyectos" data-entity-2="Antena" data-source-line="30" data-uid="lnk29" id="link_DepaProyectos_Antena"><path codeLine="30" d="M424,192.22 C424,210.16 424,222.89 424,240.83" fill="none" id="DepaProyectos-backto-Antena" style="stroke:#181818;stroke-width:1;"/><polygon fill="#181818" points="424,180.22,420,186.22,424,192.22,428,186.22,424,180.22" style="stroke:#181818;stroke-width:1;"/></g><!--reverse link Antena to Convocatorias--><g class="link" data-entity-1="Antena" data-entity-2="Convocatorias" data-source-line="31" data-uid="lnk30" id="link_Antena_Convocatorias"><path codeLine="31" d="M441.049,299.8369 C453.039,323.6369 466.22,349.8 478.25,373.67" fill="none" id="Antena-backto-Convocatorias" style="stroke:#181818;stroke-width:1;"/><polygon fill="#181818" points="435.65,289.12,434.7772,296.2781,441.049,299.8369,441.9218,292.6788,435.65,289.12" style="stroke:#181818;stroke-width:1;"/><text fill="#000000" font-family="sans-serif" font-size="13" lengthAdjust="spacing" textLength="39.0444" x="460" y="332.0669">Busca</text></g><!--reverse link EntidadConvocante to Convocatorias--><g class="link" data-entity-1="EntidadConvocante" data-entity-2="Convocatorias" data-source-line="32" data-uid="lnk31" id="link_EntidadConvocante_Convocatorias"><path codeLine="32" d="M561.1877,298.8363 C543.9377,322.6363 524.23,349.8 506.92,373.67" fill="none" id="EntidadConvocante-backto-Convocatorias" style="stroke:#181818;stroke-width:1;"/><polygon fill="#181818" points="568.23,289.12,561.4701,291.6307,561.1877,298.8363,567.9476,296.3256,568.23,289.12" style="stroke:#181818;stroke-width:1;"/><text fill="#000000" font-family="sans-serif" font-size="13" lengthAdjust="spacing" textLength="66.6758" x="548" y="332.0669">Organizan</text></g><!--link Convocatorias to Propuestas--><g class="link" data-entity-1="Convocatorias" data-entity-2="Propuestas" data-source-line="33" data-uid="lnk32" id="link_Convocatorias_Propuestas"><path codeLine="33" d="M490,422.12 C490,445.92 490,476.8 490,500.67" fill="none" id="Convocatorias-to-Propuestas" style="stroke:#181818;stroke-width:1;"/><polygon fill="#181818" points="490,506.67,494,497.67,490,501.67,486,497.67,490,506.67" style="stroke:#181818;stroke-width:1;"/><text fill="#000000" font-family="sans-serif" font-size="13" lengthAdjust="spacing" textLength="59.9727" x="491" y="473.0669">Se hacen</text></g><!--link Propuestas to Proyecto--><g class="link" data-entity-1="Propuestas" data-entity-2="Proyecto" data-source-line="34" data-uid="lnk33" id="link_Propuestas_Proyecto"><path codeLine="34" d="M462.54,555.14 C436.44,577.13 401.9882,606.1437 375.9282,628.1037" fill="none" id="Propuestas-to-Proyecto" style="stroke:#181818;stroke-width:1;"/><polygon fill="#181818" points="371.34,631.97,380.7998,629.2293,375.1635,628.7481,375.6447,623.1117,371.34,631.97" style="stroke:#181818;stroke-width:1;"/><text fill="#000000" font-family="sans-serif" font-size="13" lengthAdjust="spacing" textLength="107.0342" x="427" y="598.0669">De ser aceptada</text></g><!--link ColaboradorExterno to Proyecto--><g class="link" data-entity-1="ColaboradorExterno" data-entity-2="Proyecto" data-source-line="36" data-uid="lnk35" id="link_ColaboradorExterno_Proyecto"><path codeLine="36" d="M179.03,656 C218.62,656 252.05,656 285.2,656" fill="none" id="ColaboradorExterno-to-Proyecto" style="stroke:#181818;stroke-width:1;"/><polygon fill="#181818" points="297.2,656,291.2,652,285.2,656,291.2,660,297.2,656" style="stroke:#181818;stroke-width:1;"/><text fill="#000000" font-family="sans-serif" font-size="13" lengthAdjust="spacing" textLength="82.0244" x="197.25" y="649.0669">Ayuda en un</text></g><!--reverse link Proyecto to Financiador--><g class="link" data-entity-1="Proyecto" data-entity-2="Financiador" data-source-line="37" data-uid="lnk36" id="link_Proyecto_Financiador"><path codeLine="37" d="M402.55,656 C437.96,656 474.86,656 512.68,656" fill="none" id="Proyecto-backto-Financiador" style="stroke:#181818;stroke-width:1;"/><polygon fill="#181818" points="390.55,656,396.55,660,402.55,656,396.55,652,390.55,656" style="stroke:#181818;stroke-width:1;"/><text fill="#000000" font-family="sans-serif" font-size="13" lengthAdjust="spacing" textLength="86.6836" x="408.75" y="649.0669">Es financiado</text></g><!--SRC=[RLB1QiCm3BtxAqIEXVn06ODkRUbWiB9rjrqKMsaDgHrifwmR-_V9gPCcRKx6qjFJqvDaXTx3mWGoA6JxURRcP2K6wpJw55lors_9UMkmeZvADMwTFPFaR8fjiD2LLgZ8xqWQBNkE5tCY7_GUbNKTWPN4hU5N06oiG_-A1J-nmr-2C7_TS5rFqpLCttTIInfISwsnpEdq_X3ciBCAJngXjWuKbTfezsMe0cEFXIEmfPOQAu653mvbW4_VeDDMi2uTpcn6rKfYujLt86Vwp8eV7ZEvnLDqYRKsQ9WqZYacvC4ipxisC8UijEx8-j05oeJe4WyC6ZbsJTputYLcUNMt9p6aQ1jFxUSEr957UUkhF3OG6fDDujEIOiK6PSJX3V0XwhiiN8ZH22r7ki7BqqP6XnY9dnelcVNE-MdqczkZqJ_8WiUvF7-yKVn1S63HZ1p44wmtOadWoG7Zwe2ATOW-ozRd4wSIgnRdHY6GQOqR50pF9E9M7ie-alq3]--></g></svg>