<?xml version="1.0" encoding="us-ascii" standalone="no"?><svg xmlns="http://www.w3.org/2000/svg" xmlns:xlink="http://www.w3.org/1999/xlink" contentStyleType="text/css" height="666px" preserveAspectRatio="none" style="width:600px;height:666px;background:#FFFFFF;" version="1.1" viewBox="0 0 600 666" width="600px" zoomAndPan="magnify"><defs/><g><path d="M105,7 L449,7 A12.5,12.5 0 0 1 461.5,19.5 L461.5,34.6094 L92.5,34.6094 L92.5,19.5 A12.5,12.5 0 0 1 105,7 " fill="#F1F1F1" style="stroke:#F1F1F1;stroke-width:1.0;"/><rect fill="none" height="506.6094" rx="12.5" ry="12.5" style="stroke:#181818;stroke-width:0.5;" width="369" x="92.5" y="7"/><line style="stroke:#181818;stroke-width:0.5;" x1="92.5" x2="461.5" y1="34.6094" y2="34.6094"/><text fill="#000000" font-family="sans-serif" font-size="14" lengthAdjust="spacing" textLength="95" x="229.5" y="26.5332">abrirProyecto()</text><g id="abrirProyecto.MostrandoLista"><rect fill="#F1F1F1" height="50" rx="12.5" ry="12.5" style="stroke:#181818;stroke-width:0.5;" width="50" x="104.5" y="137.6094"/><line style="stroke:#181818;stroke-width:0.5;" x1="104.5" x2="154.5" y1="165.2188" y2="165.2188"/><text fill="#000000" font-family="sans-serif" font-size="14" lengthAdjust="spacing" textLength="4" x="127.5" y="157.1426">&#160;</text></g><g id="abrirProyecto.FiltrandoLista"><rect fill="#F1F1F1" height="50" rx="12.5" ry="12.5" style="stroke:#181818;stroke-width:0.5;" width="50" x="104.5" y="358.6094"/><line style="stroke:#181818;stroke-width:0.5;" x1="104.5" x2="154.5" y1="386.2188" y2="386.2188"/><text fill="#000000" font-family="sans-serif" font-size="14" lengthAdjust="spacing" textLength="4" x="127.5" y="378.1426">&#160;</text></g><ellipse cx="129.5" cy="55.6094" fill="#222222" rx="10" ry="10" style="stroke:#222222;stroke-width:1.0;"/><ellipse cx="129.5" cy="492.6094" fill="none" rx="11" ry="11" style="stroke:#222222;stroke-width:1.0;"/><ellipse cx="129.5" cy="492.6094" fill="#222222" rx="6" ry="6" style="stroke:#222222;stroke-width:1.0;"/><!--link *start*abrirProyecto to MostrandoLista--><g id="link_*start*abrirProyecto_MostrandoLista"><path d="M129.5,65.9294 C129.5,81.7894 129.5,108.5194 129.5,131.2494 " fill="none" id="*start*abrirProyecto-to-MostrandoLista" style="stroke:#008000;stroke-width:1.0;"/><polygon fill="#008000" points="129.5,137.2494,133.5,128.2494,129.5,132.2494,125.5,128.2494,129.5,137.2494" style="stroke:#008000;stroke-width:1.0;"/><path d="M134.5,88.6094 L134.5,114.6094 L369.5,114.6094 L369.5,98.6094 L359.5,88.6094 L134.5,88.6094 " fill="#FEFFDD" style="stroke:#181818;stroke-width:0.5;"/><path d="M359.5,88.6094 L359.5,98.6094 L369.5,98.6094 L359.5,88.6094 " fill="#FEFFDD" style="stroke:#181818;stroke-width:0.5;"/><text fill="#000000" font-family="sans-serif" font-size="13" font-weight="bold" lengthAdjust="spacing" textLength="79" x="140.5" y="107.1045">Coordinador</text><text fill="#000000" font-family="sans-serif" font-size="13" lengthAdjust="spacing" textLength="131" x="223.5" y="107.1045">solicita abrir proyectos</text></g><!--link MostrandoLista to FiltrandoLista--><g id="link_MostrandoLista_FiltrandoLista"><path d="M129.5,187.8794 C129.5,230.0894 129.5,310.5094 129.5,352.5594 " fill="none" id="MostrandoLista-to-FiltrandoLista" style="stroke:#008000;stroke-width:1.0;"/><polygon fill="#008000" points="129.5,358.5594,133.5,349.5594,129.5,353.5594,125.5,349.5594,129.5,358.5594" style="stroke:#008000;stroke-width:1.0;"/><path d="M134.5,210.6094 L134.5,334.6094 L382.5,334.6094 L382.5,220.6094 L372.5,210.6094 L134.5,210.6094 " fill="#FEFFDD" style="stroke:#181818;stroke-width:0.5;"/><path d="M372.5,210.6094 L372.5,220.6094 L382.5,220.6094 L372.5,210.6094 " fill="#FEFFDD" style="stroke:#181818;stroke-width:0.5;"/><text fill="#000000" font-family="sans-serif" font-size="13" font-weight="bold" lengthAdjust="spacing" textLength="51" x="140.5" y="229.1045">Sistema</text><text fill="#000000" font-family="sans-serif" font-size="13" lengthAdjust="spacing" textLength="157" x="195.5" y="229.1045">presenta lista de proyectos</text><text fill="#000000" font-family="sans-serif" font-size="13" lengthAdjust="spacing" textLength="225" x="140.5" y="245.4561">&#8226; ID, t&#237;tulo, estado, coordinador, fechas</text><text fill="#000000" font-family="sans-serif" font-size="13" lengthAdjust="spacing" textLength="163" x="140.5" y="261.8076">&#8226; Permite solicitar filtrar lista</text><text fill="#000000" font-family="sans-serif" font-size="13" lengthAdjust="spacing" textLength="227" x="140.5" y="278.1592">&#8226; Permite solicitar crear proyecto nuevo</text><text fill="#000000" font-family="sans-serif" font-size="13" lengthAdjust="spacing" textLength="206" x="140.5" y="294.5107">&#8226; Permite solicitar eliminar proyecto</text><text fill="#000000" font-family="sans-serif" font-size="13" lengthAdjust="spacing" textLength="193" x="140.5" y="310.8623">&#8226; Permite solicitar editar proyecto</text><text fill="#000000" font-family="sans-serif" font-size="13" lengthAdjust="spacing" textLength="186" x="140.5" y="327.2139">&#8226; Permite solicitar abrir proyecto</text></g><!--link FiltrandoLista to FiltrandoLista--><g id="link_FiltrandoLista_FiltrandoLista"><path d="M154.68,372.0294 C164.41,371.5194 172.5,375.3794 172.5,383.6094 C172.5,391.8394 170.4018,396.0134 160.6718,395.5034 " fill="none" id="FiltrandoLista-to-FiltrandoLista" style="stroke:#008000;stroke-width:1.0;"/><polygon fill="#008000" points="154.68,395.1894,163.4583,399.655,159.6731,395.4511,163.877,391.6659,154.68,395.1894" style="stroke:#008000;stroke-width:1.0;"/><path d="M177.5,362.6094 L177.5,404.6094 L452.5,404.6094 L452.5,372.6094 L442.5,362.6094 L177.5,362.6094 " fill="#FEFFDD" style="stroke:#181818;stroke-width:0.5;"/><path d="M442.5,362.6094 L442.5,372.6094 L452.5,372.6094 L442.5,362.6094 " fill="#FEFFDD" style="stroke:#181818;stroke-width:0.5;"/><text fill="#000000" font-family="sans-serif" font-size="13" font-weight="bold" lengthAdjust="spacing" textLength="79" x="183.5" y="381.1045">Coordinador</text><text fill="#000000" font-family="sans-serif" font-size="13" lengthAdjust="spacing" textLength="101" x="266.5" y="381.1045">solicita filtrar lista</text><text fill="#000000" font-family="sans-serif" font-size="13" font-weight="bold" lengthAdjust="spacing" textLength="51" x="183.5" y="397.4561">Sistema</text><text fill="#000000" font-family="sans-serif" font-size="13" lengthAdjust="spacing" textLength="199" x="238.5" y="397.4561">presenta lista filtrada de proyectos</text></g><!--link FiltrandoLista to *end*abrirProyecto--><g id="link_FiltrandoLista_*end*abrirProyecto"><path d="M129.5,408.6194 C129.5,431.5394 129.5,458.9694 129.5,475.5294 " fill="none" id="FiltrandoLista-to-*end*abrirProyecto" style="stroke:#008000;stroke-width:1.0;"/><polygon fill="#008000" points="129.5,481.5294,133.5,472.5294,129.5,476.5294,125.5,472.5294,129.5,481.5294" style="stroke:#008000;stroke-width:1.0;"/><path d="M134.5,432.6094 L134.5,458.6094 L399.5,458.6094 L399.5,442.6094 L389.5,432.6094 L134.5,432.6094 " fill="#FEFFDD" style="stroke:#181818;stroke-width:0.5;"/><path d="M389.5,432.6094 L389.5,442.6094 L399.5,442.6094 L389.5,432.6094 " fill="#FEFFDD" style="stroke:#181818;stroke-width:0.5;"/><text fill="#000000" font-family="sans-serif" font-size="13" font-weight="bold" lengthAdjust="spacing" textLength="79" x="140.5" y="451.1045">Coordinador</text><text fill="#000000" font-family="sans-serif" font-size="13" lengthAdjust="spacing" textLength="161" x="223.5" y="451.1045">solicita una de las opciones</text></g><g id="PROYECTO_ABIERTO"><rect fill="#F1F1F1" height="50" rx="12.5" ry="12.5" style="stroke:#181818;stroke-width:0.5;" width="166" x="7" y="610"/><line style="stroke:#181818;stroke-width:0.5;" x1="7" x2="173" y1="637.6094" y2="637.6094"/><text fill="#000000" font-family="sans-serif" font-size="14" lengthAdjust="spacing" textLength="146" x="17" y="629.5332">PROYECTO_ABIERTO</text></g><g id="PROYECTOS_ABIERTOS"><rect fill="#F1F1F1" height="50" rx="12.5" ry="12.5" style="stroke:#181818;stroke-width:0.5;" width="184" x="265" y="610"/><line style="stroke:#181818;stroke-width:0.5;" x1="265" x2="449" y1="637.6094" y2="637.6094"/><text fill="#000000" font-family="sans-serif" font-size="14" lengthAdjust="spacing" textLength="164" x="275" y="629.5332">PROYECTOS_ABIERTOS</text></g><g id="PERFIL"><rect fill="#F1F1F1" height="50" rx="12.5" ry="12.5" style="stroke:#181818;stroke-width:0.5;" width="68" x="499" y="610"/><line style="stroke:#181818;stroke-width:0.5;" x1="499" x2="567" y1="637.6094" y2="637.6094"/><text fill="#000000" font-family="sans-serif" font-size="14" lengthAdjust="spacing" textLength="48" x="509" y="629.5332">PERFIL</text></g><!--link abrirProyecto to PROYECTO_ABIERTO--><g id="link_abrirProyecto_PROYECTO_ABIERTO"><path d="M92.44,473.44 C57.17,513.95 31,544 31,544 C31,544 31,580 31,580 C31,580 43.4727,591.4204 59.1827,605.7904 " fill="none" id="abrirProyecto-to-PROYECTO_ABIERTO" style="stroke:#008000;stroke-width:1.0;"/><polygon fill="#008000" points="63.61,609.84,59.6689,600.8141,59.9206,606.4653,54.2694,606.7171,63.61,609.84" style="stroke:#008000;stroke-width:1.0;"/><path d="M36,549 L36,575 L149,575 L149,559 L139,549 L36,549 " fill="#FEFFDD" style="stroke:#181818;stroke-width:0.5;"/><path d="M139,549 L139,559 L149,559 L139,549 " fill="#FEFFDD" style="stroke:#181818;stroke-width:0.5;"/><text fill="#000000" font-family="sans-serif" font-size="13" lengthAdjust="spacing" textLength="92" x="42" y="567.4951">editarProyecto()</text></g><!--link abrirProyecto to PROYECTO_ABIERTO--><g id="link_abrirProyecto_PROYECTO_ABIERTO"><path d="M182.66,514.01 C168.21,552.66 158,580 158,580 C158,580 143.2301,591.7405 125.1201,606.1105 " fill="none" id="abrirProyecto-to-PROYECTO_ABIERTO-1" style="stroke:#008000;stroke-width:1.0;"/><polygon fill="#008000" points="120.42,609.84,129.9565,607.3792,124.3368,606.7321,124.9839,601.1124,120.42,609.84" style="stroke:#008000;stroke-width:1.0;"/><path d="M175,549 L175,575 L285,575 L285,559 L275,549 L175,549 " fill="#FEFFDD" style="stroke:#181818;stroke-width:0.5;"/><path d="M275,549 L275,559 L285,559 L275,549 " fill="#FEFFDD" style="stroke:#181818;stroke-width:0.5;"/><text fill="#000000" font-family="sans-serif" font-size="13" lengthAdjust="spacing" textLength="89" x="181" y="567.4951">crearProyecto()</text></g><!--link abrirProyecto to PROYECTOS_ABIERTOS--><g id="link_abrirProyecto_PROYECTOS_ABIERTOS"><path d="M331.25,514.09 C339.66,553.27 345.8514,582.0835 350.5414,603.9435 " fill="none" id="abrirProyecto-to-PROYECTOS_ABIERTOS" style="stroke:#008000;stroke-width:1.0;"/><polygon fill="#008000" points="351.8,609.81,353.823,600.1712,350.7511,604.9212,346.001,601.8493,351.8,609.81" style="stroke:#008000;stroke-width:1.0;"/><path d="M350,549 L350,575 L476,575 L476,559 L466,549 L350,549 " fill="#FEFFDD" style="stroke:#181818;stroke-width:0.5;"/><path d="M466,549 L466,559 L476,559 L466,549 " fill="#FEFFDD" style="stroke:#181818;stroke-width:0.5;"/><text fill="#000000" font-family="sans-serif" font-size="13" lengthAdjust="spacing" textLength="105" x="356" y="567.4951">eliminarProyecto()</text></g><!--link abrirProyecto to PERFIL--><g id="link_abrirProyecto_PERFIL"><path d="M461.5,507.36 C478.21,529.62 489,544 489,544 C489,544 505.5454,577.8294 518.5754,604.4894 " fill="none" id="abrirProyecto-to-PERFIL" style="stroke:#008000;stroke-width:1.0;"/><polygon fill="#008000" points="521.21,609.88,520.8518,600.0377,519.0145,605.3878,513.6643,603.5505,521.21,609.88" style="stroke:#008000;stroke-width:1.0;"/><path d="M510,549 L510,575 L593,575 L593,559 L583,549 L510,549 " fill="#FEFFDD" style="stroke:#181818;stroke-width:0.5;"/><path d="M583,549 L583,559 L593,559 L583,549 " fill="#FEFFDD" style="stroke:#181818;stroke-width:0.5;"/><text fill="#000000" font-family="sans-serif" font-size="13" lengthAdjust="spacing" textLength="62" x="516" y="567.4951">abrirPerfil()</text></g><!--SRC=[dLDRQW8n5FtFAYxsforADo12QnK4YwB-594I9zSscCaTCcD1Ig5hwNzNqPrq9Rrcr7bOXse69YGvEUSavoPUQXj99qCmscAoZX0YCklDG8WuaGc2d3ljXexM62G4CePQOURogWPlGW2t55_ZZr4F52TEMaLzpVE7wrrjykiUCBsUGMDwyUmGxQpHAd60nrXY3h8Rlqi_qPotsaHEQIiLkURDl0Kn6Hretk6TGhIr6diyMfMIS1FxNqagxwBaz9Y9CQzYABs1o66CbdcCPrDOyl3pyGcz-peatr_9ob0Ta66A-o0xIHqM6Bp8RCCGNQXPTtSw1mllpAKg5RZ0eSok0UmANwa2ZaQ7x27RKOLLlli7ifX58OeiXk9TdnF3qLeulApgq5Ay-YEzasnpJP_kTMMzhE5tGb6WoM99-Ls8uhlCImv7WyTEUp9ukhthTKQJWIXefubbprViIS-czFLr9kDuHpaksTmMuQcqdL6trozIfMXqd6YUvHS0]--></g></svg>