<svg xmlns="http://www.w3.org/2000/svg" xmlns:xlink="http://www.w3.org/1999/xlink" contentStyleType="text/css" data-diagram-type="STATE" height="605px" preserveAspectRatio="none" style="width:731px;height:605px;background:#FFFFFF;" version="1.1" viewBox="0 0 731 605" width="731px" zoomAndPan="magnify"><defs/><g><path d="M19.5,7 L705.5,7 A12.5,12.5 0 0 1 718,19.5 L718,33.2969 L7,33.2969 L7,19.5 A12.5,12.5 0 0 1 19.5,7" fill="#F1F1F1"/><rect fill="none" height="447.2969" rx="12.5" ry="12.5" style="stroke:#181818;stroke-width:0.5;" width="711" x="7" y="7"/><line style="stroke:#181818;stroke-width:0.5;" x1="7" x2="718" y1="33.2969" y2="33.2969"/><text fill="#000000" font-family="sans-serif" font-size="14" lengthAdjust="spacing" textLength="146.5215" x="289.2393" y="24.9951">editarCargaTrabajo()</text><g id="editarCargaTrabajo.AbrirCargaDeTrabajo"><rect fill="#F1F1F1" height="50" rx="12.5" ry="12.5" style="stroke:#181818;stroke-width:0.5;" width="50" x="205" y="135.2969"/><line style="stroke:#181818;stroke-width:0.5;" x1="205" x2="255" y1="161.5938" y2="161.5938"/><text fill="#000000" font-family="sans-serif" font-size="14" lengthAdjust="spacing" textLength="4.4502" x="227.7749" y="153.292">&#160;</text></g><g id="editarCargaTrabajo.ValidandoDatos"><rect fill="#F1F1F1" height="50" rx="12.5" ry="12.5" style="stroke:#181818;stroke-width:0.5;" width="50" x="205" y="286.2969"/><line style="stroke:#181818;stroke-width:0.5;" x1="205" x2="255" y1="312.5938" y2="312.5938"/><text fill="#000000" font-family="sans-serif" font-size="14" lengthAdjust="spacing" textLength="4.4502" x="227.7749" y="304.292">&#160;</text></g><ellipse cx="230" cy="54.2969" fill="#222222" rx="10" ry="10" style="stroke:#222222;stroke-width:1;"/><ellipse cx="230" cy="433.2969" fill="none" rx="11" ry="11" style="stroke:#222222;stroke-width:1;"/><ellipse cx="230" cy="433.2969" fill="#222222" rx="6" ry="6" style="stroke:#222222;stroke-width:1;"/><!--link *start*editarCargaTrabajo to AbrirCargaDeTrabajo--><g class="link" data-entity-1=".start.editarCargaTrabajo" data-entity-2="AbrirCargaDeTrabajo" data-source-line="8" data-uid="lnk3" id="link_.start.editarCargaTrabajo_AbrirCargaDeTrabajo"><path d="M230,64.5269 C230,80.2369 230,106.6569 230,129.1669" fill="none" id="*start*editarCargaTrabajo-to-AbrirCargaDeTrabajo" style="stroke:#008000;stroke-width:1;"/><polygon fill="#008000" points="230,135.1669,234,126.1669,230,130.1669,226,126.1669,230,135.1669" style="stroke:#008000;stroke-width:1;"/><path d="M235,87.2969 L235,112.2969 L571,112.2969 L571,97.2969 L561,87.2969 L235,87.2969" fill="#FEFFDD" style="stroke:#181818;stroke-width:0.5;"/><path d="M561,87.2969 L561,97.2969 L571,97.2969 L561,87.2969" fill="#FEFFDD" style="stroke:#181818;stroke-width:0.5;"/><text fill="#000000" font-family="sans-serif" font-size="13" font-weight="bold" lengthAdjust="spacing" textLength="92.5171" x="241" y="104.3638">Investigador</text><text fill="#000000" font-family="sans-serif" font-size="13" lengthAdjust="spacing" textLength="218.8354" x="337.6494" y="104.3638">solicita editar su carga de trabajo</text></g><!--link AbrirCargaDeTrabajo to ValidandoDatos--><g class="link" data-entity-1="AbrirCargaDeTrabajo" data-entity-2="ValidandoDatos" data-source-line="13" data-uid="lnk4" id="link_AbrirCargaDeTrabajo_ValidandoDatos"><path d="M204.85,166.2769 C148.69,177.4069 18,203.2969 18,203.2969 C18,203.2969 18,268.2969 18,268.2969 C18,268.2969 142.8045,293.0205 198.9645,304.1505" fill="none" id="AbrirCargaDeTrabajo-to-ValidandoDatos" style="stroke:#008000;stroke-width:1;"/><polygon fill="#008000" points="204.85,305.3169,196.7993,299.6436,199.9454,304.3449,195.2441,307.4909,204.85,305.3169" style="stroke:#008000;stroke-width:1;"/><path d="M23,215.7969 L23,255.7969 L416,255.7969 L416,225.7969 L406,215.7969 L23,215.7969" fill="#FEFFDD" style="stroke:#181818;stroke-width:0.5;"/><path d="M406,215.7969 L406,225.7969 L416,225.7969 L406,215.7969" fill="#FEFFDD" style="stroke:#181818;stroke-width:0.5;"/><text fill="#000000" font-family="sans-serif" font-size="13" font-weight="bold" lengthAdjust="spacing" textLength="92.5171" x="29" y="232.8638">Investigador</text><text fill="#000000" font-family="sans-serif" font-size="13" lengthAdjust="spacing" textLength="276.1992" x="125.6494" y="232.8638">solicita guardar su nueva carga de trabajo</text><text fill="#000000" font-family="sans-serif" font-size="13" font-weight="bold" lengthAdjust="spacing" textLength="58.9063" x="29" y="247.9966">Sistema</text><text fill="#000000" font-family="sans-serif" font-size="13" lengthAdjust="spacing" textLength="186.3545" x="92.0386" y="247.9966">valida los datos introducidos</text></g><!--link ValidandoDatos to AbrirCargaDeTrabajo--><g class="link" data-entity-1="ValidandoDatos" data-entity-2="AbrirCargaDeTrabajo" data-source-line="19" data-uid="lnk5" id="link_ValidandoDatos_AbrirCargaDeTrabajo"><path d="M255.36,304.7169 C307.32,293.2969 421,268.2969 421,268.2969 C421,268.2969 421,203.2969 421,203.2969 C421,203.2969 313.1801,179.5848 261.2201,168.1648" fill="none" id="ValidandoDatos-to-AbrirCargaDeTrabajo" style="stroke:#FF0000;stroke-width:1;"/><polygon fill="#FF0000" points="255.36,166.8769,263.2916,172.7156,260.2434,167.9502,265.0088,164.9021,255.36,166.8769" style="stroke:#FF0000;stroke-width:1;"/><path d="M426,208.2969 L426,263.2969 L709,263.2969 L709,218.2969 L699,208.2969 L426,208.2969" fill="#FEFFDD" style="stroke:#181818;stroke-width:0.5;"/><path d="M699,208.2969 L699,218.2969 L709,218.2969 L699,208.2969" fill="#FEFFDD" style="stroke:#181818;stroke-width:0.5;"/><text fill="#000000" font-family="sans-serif" font-size="13" lengthAdjust="spacing" textLength="240.0176" x="432" y="225.3638">Datos de carga de trabajo no v&#225;lidos</text><text fill="#000000" font-family="sans-serif" font-size="13" font-weight="bold" lengthAdjust="spacing" textLength="58.9063" x="432" y="240.4966">Sistema</text><text fill="#000000" font-family="sans-serif" font-size="13" lengthAdjust="spacing" textLength="176.7378" x="495.0386" y="240.4966">muestra mensajes de error</text><text fill="#000000" font-family="sans-serif" font-size="13" lengthAdjust="spacing" textLength="262.3677" x="432" y="255.6294">&#8226; Carga de trabajo menor a lo requerido</text></g><!--link ValidandoDatos to *end*editarCargaTrabajo--><g class="link" data-entity-1="ValidandoDatos" data-entity-2=".end.editarCargaTrabajo" data-source-line="26" data-uid="lnk7" id="link_ValidandoDatos_.end.editarCargaTrabajo"><path d="M230,336.5769 C230,362.8769 230,397.5669 230,416.2769" fill="none" id="ValidandoDatos-to-*end*editarCargaTrabajo" style="stroke:#008000;stroke-width:1;"/><polygon fill="#008000" points="230,422.2769,234,413.2769,230,417.2769,226,413.2769,230,422.2769" style="stroke:#008000;stroke-width:1;"/><path d="M235,359.2969 L235,399.2969 L573,399.2969 L573,369.2969 L563,359.2969 L235,359.2969" fill="#FEFFDD" style="stroke:#181818;stroke-width:0.5;"/><path d="M563,359.2969 L563,369.2969 L573,369.2969 L563,359.2969" fill="#FEFFDD" style="stroke:#181818;stroke-width:0.5;"/><text fill="#000000" font-family="sans-serif" font-size="13" lengthAdjust="spacing" textLength="152.5342" x="241" y="376.3638">Carga de trabajo v&#225;lido</text><text fill="#000000" font-family="sans-serif" font-size="13" font-weight="bold" lengthAdjust="spacing" textLength="58.9063" x="241" y="391.4966">Sistema</text><text fill="#000000" font-family="sans-serif" font-size="13" lengthAdjust="spacing" textLength="254.7251" x="304.0386" y="391.4966">gurarda la carga de trabajo modificada</text></g><g id="OPCIONES_CARGA_TRABAJO_ABIERTAS"><rect fill="#F1F1F1" height="50" rx="12.5" ry="12.5" style="stroke:#181818;stroke-width:0.5;" width="294.1826" x="100.5" y="549"/><line style="stroke:#181818;stroke-width:0.5;" x1="100.5" x2="394.6826" y1="575.2969" y2="575.2969"/><text fill="#000000" font-family="sans-serif" font-size="14" lengthAdjust="spacing" textLength="274.1826" x="110.5" y="566.9951">OPCIONES_CARGA_TRABAJO_ABIERTAS</text></g><g id="PERFIL"><rect fill="#F1F1F1" height="50" rx="12.5" ry="12.5" style="stroke:#181818;stroke-width:0.5;" width="66.9971" x="445" y="549"/><line style="stroke:#181818;stroke-width:0.5;" x1="445" x2="511.9971" y1="575.2969" y2="575.2969"/><text fill="#000000" font-family="sans-serif" font-size="14" lengthAdjust="spacing" textLength="46.9971" x="455" y="566.9951">PERFIL</text></g><!--link editarCargaTrabajo to OPCIONES_CARGA_TRABAJO_ABIERTAS--><g class="link" data-entity-1="editarCargaTrabajo" data-entity-2="OPCIONES_CARGA_TRABAJO_ABIERTAS" data-source-line="33" data-uid="lnk9" id="link_editarCargaTrabajo_OPCIONES_CARGA_TRABAJO_ABIERTAS"><path d="M258.5,454.04 C249.95,472.35 244.5,484 244.5,484 C244.5,484 244.5,519 244.5,519 C244.5,519 245.0265,528.4793 245.8265,542.8493" fill="none" id="editarCargaTrabajo-to-OPCIONES_CARGA_TRABAJO_ABIERTAS" style="stroke:#008000;stroke-width:1;"/><polygon fill="#008000" points="246.16,548.84,249.6535,539.6316,245.8821,543.8477,241.6659,540.0763,246.16,548.84" style="stroke:#008000;stroke-width:1;"/><path d="M249.5,489 L249.5,514 L430.5,514 L430.5,499 L420.5,489 L249.5,489" fill="#FEFFDD" style="stroke:#181818;stroke-width:0.5;"/><path d="M420.5,489 L420.5,499 L430.5,499 L420.5,489" fill="#FEFFDD" style="stroke:#181818;stroke-width:0.5;"/><text fill="#000000" font-family="sans-serif" font-size="13" lengthAdjust="spacing" textLength="160.6592" x="255.5" y="506.0669">carga de trabajo editada</text></g><!--link editarCargaTrabajo to PERFIL--><g class="link" data-entity-1="editarCargaTrabajo" data-entity-2="PERFIL" data-source-line="38" data-uid="lnk11" id="link_editarCargaTrabajo_PERFIL"><path d="M438.09,454.04 C451.12,492.39 460.9107,521.1987 468.3307,543.0487" fill="none" id="editarCargaTrabajo-to-PERFIL" style="stroke:#008000;stroke-width:1;"/><polygon fill="#008000" points="470.26,548.73,471.1536,538.9218,468.6522,543.9955,463.5785,541.4942,470.26,548.73" style="stroke:#008000;stroke-width:1;"/><path d="M463.5,489 L463.5,514 L557.5,514 L557.5,499 L547.5,489 L463.5,489" fill="#FEFFDD" style="stroke:#181818;stroke-width:0.5;"/><path d="M547.5,489 L547.5,499 L557.5,499 L547.5,489" fill="#FEFFDD" style="stroke:#181818;stroke-width:0.5;"/><text fill="#000000" font-family="sans-serif" font-size="13" lengthAdjust="spacing" textLength="73.6455" x="469.5" y="506.0669">abrirPerfil()</text></g><!--SRC=[bPDTQi9058NViugBVT62T0CYn9yMIwcYqXSHkMQkOJIPiNScWfH2jz9kfJlfIZf9n1gJqffvod3cdE_CJSn6gYqonX19HNQ_9TZgQ9- -U9wnQ0b8I8lSHGvnohZ4jGOqK2jlrnirUF4yS4z-ikQMa_fBbhcmHmTfMVI4aHIeXEwXrIPtcLtFeJcx2fb8pPljNusKTZvQfHKssKPhsHwe7HahGnIQMpVBDXWToS0X7_g0II18hK0Gs1CpKY8pp14g8Wj8PzYNquG9iiXnL48xh8Po5XDfBCMOdTvbgH1f0oBD1QaiQv44KXmWYYsAb6a19d7HZUO77TKvdfF2xlCzEYQVeSQ9Ayu8CIc3QyeyY5bp9lvw-u3kkQEJQeQq7Z0z9yJE-r-bZbDn7qvrZLBM0RsAF4mu7Gr4vPb0h8LSoG055i5UFQ_YTpb56uwwW-5ZVxBe-kCxVp4T-nt_VhZmEuF-UEfFl09oAJSpTw4_D_57tAW_lXqy55qn7Vg8U2MZUkDezGq0]--></g></svg>