<?xml version="1.0" encoding="us-ascii" standalone="no"?><svg xmlns="http://www.w3.org/2000/svg" xmlns:xlink="http://www.w3.org/1999/xlink" contentStyleType="text/css" height="666px" preserveAspectRatio="none" style="width:668px;height:666px;background:#FFFFFF;" version="1.1" viewBox="0 0 668 666" width="668px" zoomAndPan="magnify"><defs/><g><path d="M136.5,7 L505.5,7 A12.5,12.5 0 0 1 518,19.5 L518,34.6094 L124,34.6094 L124,19.5 A12.5,12.5 0 0 1 136.5,7 " fill="#F1F1F1" style="stroke:#F1F1F1;stroke-width:1.0;"/><rect fill="none" height="506.6094" rx="12.5" ry="12.5" style="stroke:#181818;stroke-width:0.5;" width="394" x="124" y="7"/><line style="stroke:#181818;stroke-width:0.5;" x1="124" x2="518" y1="34.6094" y2="34.6094"/><text fill="#000000" font-family="sans-serif" font-size="14" lengthAdjust="spacing" textLength="122" x="260" y="26.5332">verInvestigadores()</text><g id="verInvestigadores.MostrandoLista"><rect fill="#F1F1F1" height="50" rx="12.5" ry="12.5" style="stroke:#181818;stroke-width:0.5;" width="50" x="136" y="137.6094"/><line style="stroke:#181818;stroke-width:0.5;" x1="136" x2="186" y1="165.2188" y2="165.2188"/><text fill="#000000" font-family="sans-serif" font-size="14" lengthAdjust="spacing" textLength="4" x="159" y="157.1426">&#160;</text></g><g id="verInvestigadores.FiltrandoLista"><rect fill="#F1F1F1" height="50" rx="12.5" ry="12.5" style="stroke:#181818;stroke-width:0.5;" width="50" x="136" y="358.6094"/><line style="stroke:#181818;stroke-width:0.5;" x1="136" x2="186" y1="386.2188" y2="386.2188"/><text fill="#000000" font-family="sans-serif" font-size="14" lengthAdjust="spacing" textLength="4" x="159" y="378.1426">&#160;</text></g><ellipse cx="161" cy="55.6094" fill="#222222" rx="10" ry="10" style="stroke:#222222;stroke-width:1.0;"/><ellipse cx="161" cy="492.6094" fill="none" rx="11" ry="11" style="stroke:#222222;stroke-width:1.0;"/><ellipse cx="161" cy="492.6094" fill="#222222" rx="6" ry="6" style="stroke:#222222;stroke-width:1.0;"/><!--link *start*verInvestigadores to MostrandoLista--><g id="link_*start*verInvestigadores_MostrandoLista"><path d="M161,65.9294 C161,81.7894 161,108.5194 161,131.2494 " fill="none" id="*start*verInvestigadores-to-MostrandoLista" style="stroke:#008000;stroke-width:1.0;"/><polygon fill="#008000" points="161,137.2494,165,128.2494,161,132.2494,157,128.2494,161,137.2494" style="stroke:#008000;stroke-width:1.0;"/><path d="M166,88.6094 L166,114.6094 L417,114.6094 L417,98.6094 L407,88.6094 L166,88.6094 " fill="#FEFFDD" style="stroke:#181818;stroke-width:0.5;"/><path d="M407,88.6094 L407,98.6094 L417,98.6094 L407,88.6094 " fill="#FEFFDD" style="stroke:#181818;stroke-width:0.5;"/><text fill="#000000" font-family="sans-serif" font-size="13" font-weight="bold" lengthAdjust="spacing" textLength="79" x="172" y="107.1045">Coordinador</text><text fill="#000000" font-family="sans-serif" font-size="13" lengthAdjust="spacing" textLength="147" x="255" y="107.1045">solicita ver investigadores</text></g><!--link MostrandoLista to FiltrandoLista--><g id="link_MostrandoLista_FiltrandoLista"><path d="M161,187.8794 C161,230.0894 161,310.5094 161,352.5594 " fill="none" id="MostrandoLista-to-FiltrandoLista" style="stroke:#008000;stroke-width:1.0;"/><polygon fill="#008000" points="161,358.5594,165,349.5594,161,353.5594,157,349.5594,161,358.5594" style="stroke:#008000;stroke-width:1.0;"/><path d="M166,210.6094 L166,334.6094 L424,334.6094 L424,220.6094 L414,210.6094 L166,210.6094 " fill="#FEFFDD" style="stroke:#181818;stroke-width:0.5;"/><path d="M414,210.6094 L414,220.6094 L424,220.6094 L414,210.6094 " fill="#FEFFDD" style="stroke:#181818;stroke-width:0.5;"/><text fill="#000000" font-family="sans-serif" font-size="13" font-weight="bold" lengthAdjust="spacing" textLength="51" x="172" y="229.1045">Sistema</text><text fill="#000000" font-family="sans-serif" font-size="13" lengthAdjust="spacing" textLength="182" x="227" y="229.1045">presenta lista de investigadores</text><text fill="#000000" font-family="sans-serif" font-size="13" lengthAdjust="spacing" textLength="72" x="172" y="245.4561">&#8226; ID, nombre</text><text fill="#000000" font-family="sans-serif" font-size="13" lengthAdjust="spacing" textLength="104" x="172" y="261.8076">&#8226; Carga de trabajo</text><text fill="#000000" font-family="sans-serif" font-size="13" lengthAdjust="spacing" textLength="163" x="172" y="278.1592">&#8226; Permite solicitar filtrar lista</text><text fill="#000000" font-family="sans-serif" font-size="13" lengthAdjust="spacing" textLength="222" x="172" y="294.5107">&#8226; Permite solicitar agregar investigador</text><text fill="#000000" font-family="sans-serif" font-size="13" lengthAdjust="spacing" textLength="231" x="172" y="310.8623">&#8226; Permite solicitar modificar investigador</text><text fill="#000000" font-family="sans-serif" font-size="13" lengthAdjust="spacing" textLength="224" x="172" y="327.2139">&#8226; Permite solicitar eliminar investigador</text></g><!--link FiltrandoLista to FiltrandoLista--><g id="link_FiltrandoLista_FiltrandoLista"><path d="M186.18,372.0294 C195.91,371.5194 204,375.3794 204,383.6094 C204,391.8394 201.9018,396.0134 192.1718,395.5034 " fill="none" id="FiltrandoLista-to-FiltrandoLista" style="stroke:#008000;stroke-width:1.0;"/><polygon fill="#008000" points="186.18,395.1894,194.9583,399.655,191.1731,395.4511,195.377,391.6659,186.18,395.1894" style="stroke:#008000;stroke-width:1.0;"/><path d="M209,362.6094 L209,404.6094 L509,404.6094 L509,372.6094 L499,362.6094 L209,362.6094 " fill="#FEFFDD" style="stroke:#181818;stroke-width:0.5;"/><path d="M499,362.6094 L499,372.6094 L509,372.6094 L499,362.6094 " fill="#FEFFDD" style="stroke:#181818;stroke-width:0.5;"/><text fill="#000000" font-family="sans-serif" font-size="13" font-weight="bold" lengthAdjust="spacing" textLength="79" x="215" y="381.1045">Coordinador</text><text fill="#000000" font-family="sans-serif" font-size="13" lengthAdjust="spacing" textLength="101" x="298" y="381.1045">solicita filtrar lista</text><text fill="#000000" font-family="sans-serif" font-size="13" font-weight="bold" lengthAdjust="spacing" textLength="51" x="215" y="397.4561">Sistema</text><text fill="#000000" font-family="sans-serif" font-size="13" lengthAdjust="spacing" textLength="224" x="270" y="397.4561">presenta lista filtrada de investigadores</text></g><!--link FiltrandoLista to *end*verInvestigadores--><g id="link_FiltrandoLista_*end*verInvestigadores"><path d="M161,408.6194 C161,431.5394 161,458.9694 161,475.5294 " fill="none" id="FiltrandoLista-to-*end*verInvestigadores" style="stroke:#008000;stroke-width:1.0;"/><polygon fill="#008000" points="161,481.5294,165,472.5294,161,476.5294,157,472.5294,161,481.5294" style="stroke:#008000;stroke-width:1.0;"/><path d="M166,432.6094 L166,458.6094 L401,458.6094 L401,442.6094 L391,432.6094 L166,432.6094 " fill="#FEFFDD" style="stroke:#181818;stroke-width:0.5;"/><path d="M391,432.6094 L391,442.6094 L401,442.6094 L391,432.6094 " fill="#FEFFDD" style="stroke:#181818;stroke-width:0.5;"/><text fill="#000000" font-family="sans-serif" font-size="13" font-weight="bold" lengthAdjust="spacing" textLength="79" x="172" y="451.1045">Coordinador</text><text fill="#000000" font-family="sans-serif" font-size="13" lengthAdjust="spacing" textLength="131" x="255" y="451.1045">solicita un investigador</text></g><g id="INVESTIGADOR_ABIERTO"><rect fill="#F1F1F1" height="50" rx="12.5" ry="12.5" style="stroke:#181818;stroke-width:0.5;" width="190" x="7" y="610"/><line style="stroke:#181818;stroke-width:0.5;" x1="7" x2="197" y1="637.6094" y2="637.6094"/><text fill="#000000" font-family="sans-serif" font-size="14" lengthAdjust="spacing" textLength="170" x="17" y="629.5332">INVESTIGADOR_ABIERTO</text></g><g id="INVESTIGADORES_ABIERTOS"><rect fill="#F1F1F1" height="50" rx="12.5" ry="12.5" style="stroke:#181818;stroke-width:0.5;" width="217" x="300.5" y="610"/><line style="stroke:#181818;stroke-width:0.5;" x1="300.5" x2="517.5" y1="637.6094" y2="637.6094"/><text fill="#000000" font-family="sans-serif" font-size="14" lengthAdjust="spacing" textLength="197" x="310.5" y="629.5332">INVESTIGADORES_ABIERTOS</text></g><g id="PERFIL"><rect fill="#F1F1F1" height="50" rx="12.5" ry="12.5" style="stroke:#181818;stroke-width:0.5;" width="68" x="567" y="610"/><line style="stroke:#181818;stroke-width:0.5;" x1="567" x2="635" y1="637.6094" y2="637.6094"/><text fill="#000000" font-family="sans-serif" font-size="14" lengthAdjust="spacing" textLength="48" x="577" y="629.5332">PERFIL</text></g><!--link verInvestigadores to INVESTIGADOR_ABIERTO--><g id="link_verInvestigadores_INVESTIGADOR_ABIERTO"><path d="M123.95,453.45 C72.42,503.65 31,544 31,544 C31,544 31,580 31,580 C31,580 46.5528,591.8398 65.4628,606.2098 " fill="none" id="verInvestigadores-to-INVESTIGADOR_ABIERTO" style="stroke:#008000;stroke-width:1.0;"/><polygon fill="#008000" points="70.24,609.84,65.4944,601.2099,66.259,606.8148,60.6541,607.5794,70.24,609.84" style="stroke:#008000;stroke-width:1.0;"/><path d="M36,549 L36,575 L185,575 L185,559 L175,549 L36,549 " fill="#FEFFDD" style="stroke:#181818;stroke-width:0.5;"/><path d="M175,549 L175,559 L185,559 L175,549 " fill="#FEFFDD" style="stroke:#181818;stroke-width:0.5;"/><text fill="#000000" font-family="sans-serif" font-size="13" lengthAdjust="spacing" textLength="128" x="42" y="567.4951">modificarInvestigador()</text></g><!--link verInvestigadores to INVESTIGADOR_ABIERTO--><g id="link_verInvestigadores_INVESTIGADOR_ABIERTO"><path d="M220.31,514.01 C204.9,552.66 194,580 194,580 C194,580 172.8249,592.4335 148.3349,606.8035 " fill="none" id="verInvestigadores-to-INVESTIGADOR_ABIERTO-1" style="stroke:#008000;stroke-width:1.0;"/><polygon fill="#008000" points="143.16,609.84,152.9467,608.7352,147.4724,607.3096,148.898,601.8353,143.16,609.84" style="stroke:#008000;stroke-width:1.0;"/><path d="M213,549 L213,575 L339,575 L339,559 L329,549 L213,549 " fill="#FEFFDD" style="stroke:#181818;stroke-width:0.5;"/><path d="M329,549 L329,559 L339,559 L329,549 " fill="#FEFFDD" style="stroke:#181818;stroke-width:0.5;"/><text fill="#000000" font-family="sans-serif" font-size="13" lengthAdjust="spacing" textLength="105" x="219" y="567.4951">crearInvestigador()</text></g><!--link verInvestigadores to INVESTIGADORES_ABIERTOS--><g id="link_verInvestigadores_INVESTIGADORES_ABIERTOS"><path d="M380.67,514.09 C389.93,553.27 396.7416,582.1105 401.9016,603.9705 " fill="none" id="verInvestigadores-to-INVESTIGADORES_ABIERTOS" style="stroke:#008000;stroke-width:1.0;"/><polygon fill="#008000" points="403.28,609.81,405.1054,600.1318,402.1313,604.9437,397.3194,601.9697,403.28,609.81" style="stroke:#008000;stroke-width:1.0;"/><path d="M402,549 L402,575 L544,575 L544,559 L534,549 L402,549 " fill="#FEFFDD" style="stroke:#181818;stroke-width:0.5;"/><path d="M534,549 L534,559 L544,559 L534,549 " fill="#FEFFDD" style="stroke:#181818;stroke-width:0.5;"/><text fill="#000000" font-family="sans-serif" font-size="13" lengthAdjust="spacing" textLength="121" x="408" y="567.4951">eliminarInvestigador()</text></g><!--link verInvestigadores to PERFIL--><g id="link_verInvestigadores_PERFIL"><path d="M518.03,497.35 C541.31,525.22 557,544 557,544 C557,544 573.5454,577.8294 586.5754,604.4894 " fill="none" id="verInvestigadores-to-PERFIL" style="stroke:#008000;stroke-width:1.0;"/><polygon fill="#008000" points="589.21,609.88,588.8518,600.0377,587.0145,605.3878,581.6643,603.5505,589.21,609.88" style="stroke:#008000;stroke-width:1.0;"/><path d="M578,549 L578,575 L661,575 L661,559 L651,549 L578,549 " fill="#FEFFDD" style="stroke:#181818;stroke-width:0.5;"/><path d="M651,549 L651,559 L661,559 L651,549 " fill="#FEFFDD" style="stroke:#181818;stroke-width:0.5;"/><text fill="#000000" font-family="sans-serif" font-size="13" lengthAdjust="spacing" textLength="62" x="584" y="567.4951">abrirPerfil()</text></g><!--SRC=[hLFRQi9047tVhrZiYvPAVq04gx44R1KZVH6HZJk6hSbks4q5AOL-Ip-jNzB91cssqM1jawVCvPmpPoPc8sJAD4jeB2HaknHegk9T_a68oLW6T0lQbrimcOWOLneCPOOsAj5cgq5V2Q7u57qDVB7oGPbCCydLI62ycX-Ak9ot1VFh1MtFho8D81VjxZ4CgH12oLpsnWOwORUlbEP2vdewjs6N6XMBbSXOFW8LZbhR0f9Rd8BK9N7uVsWynHzW5X9ckLCa0OauiKNZS4p0v_i7zGSt29Q46WwXFjEHRK7Ia3shGs82EX78knzCqxLLfWkMcZg6iqJCTQ6cF55ShCNg_0Q8HOBE7wbtJNQTlCJaaqkkMb6_agAUdzhDsRhnM7ylzaNMEFL6IFMdArFwZqzUCFFlUuFnTDcxyxtfR4mS_iC2ooZD5lcUwgyCAmt_Wku5U_p09TYVr8KS4sywz4Sk90krq7YykFeoqXS0]--></g></svg>