<?xml version="1.0" encoding="us-ascii" standalone="no"?><svg xmlns="http://www.w3.org/2000/svg" xmlns:xlink="http://www.w3.org/1999/xlink" contentStyleType="text/css" height="899px" preserveAspectRatio="none" style="width:1517px;height:899px;background:#FFFFFF;" version="1.1" viewBox="0 0 1517 899" width="1517px" zoomAndPan="magnify"><defs/><g><g id="in1"><rect fill="#F1F1F1" height="50" rx="12.5" ry="12.5" style="stroke:#181818;stroke-width:0.5;" width="184" x="515" y="7"/><line style="stroke:#181818;stroke-width:0.5;" x1="515" x2="699" y1="34.6094" y2="34.6094"/><text fill="#000000" font-family="sans-serif" font-size="14" lengthAdjust="spacing" textLength="164" x="525" y="26.5332">PROYECTOS_ABIERTOS</text></g><path d="M401.5,118 L1038.5,118 A12.5,12.5 0 0 1 1051,130.5 L1051,145.6094 L389,145.6094 L389,130.5 A12.5,12.5 0 0 1 401.5,118 " fill="#F1F1F1" style="stroke:#F1F1F1;stroke-width:1.0;"/><rect fill="none" height="628.6094" rx="12.5" ry="12.5" style="stroke:#181818;stroke-width:0.5;" width="662" x="389" y="118"/><line style="stroke:#181818;stroke-width:0.5;" x1="389" x2="1051" y1="145.6094" y2="145.6094"/><text fill="#000000" font-family="sans-serif" font-size="14" lengthAdjust="spacing" textLength="95" x="672.5" y="137.5332">abrirProyecto()</text><g id="abrirProyecto.MostrandoListaProyectos"><rect fill="#F1F1F1" height="50" rx="12.5" ry="12.5" style="stroke:#181818;stroke-width:0.5;" width="50" x="563" y="248.6094"/><line style="stroke:#181818;stroke-width:0.5;" x1="563" x2="613" y1="276.2188" y2="276.2188"/><text fill="#000000" font-family="sans-serif" font-size="14" lengthAdjust="spacing" textLength="4" x="586" y="268.1426">&#160;</text></g><g id="abrirProyecto.FiltrandoBuscando"><rect fill="#F1F1F1" height="50" rx="12.5" ry="12.5" style="stroke:#181818;stroke-width:0.5;" width="50" x="401" y="469.6094"/><line style="stroke:#181818;stroke-width:0.5;" x1="401" x2="451" y1="497.2188" y2="497.2188"/><text fill="#000000" font-family="sans-serif" font-size="14" lengthAdjust="spacing" textLength="4" x="424" y="489.1426">&#160;</text></g><g id="abrirProyecto.SeleccionandoProyecto"><rect fill="#F1F1F1" height="50" rx="12.5" ry="12.5" style="stroke:#181818;stroke-width:0.5;" width="50" x="562" y="592.6094"/><line style="stroke:#181818;stroke-width:0.5;" x1="562" x2="612" y1="620.2188" y2="620.2188"/><text fill="#000000" font-family="sans-serif" font-size="14" lengthAdjust="spacing" textLength="4" x="585" y="612.1426">&#160;</text></g><ellipse cx="588" cy="166.6094" fill="#222222" rx="10" ry="10" style="stroke:#222222;stroke-width:1.0;"/><ellipse cx="587" cy="725.6094" fill="none" rx="11" ry="11" style="stroke:#222222;stroke-width:1.0;"/><ellipse cx="587" cy="725.6094" fill="#222222" rx="6" ry="6" style="stroke:#222222;stroke-width:1.0;"/><!--link *start*abrirProyecto to MostrandoListaProyectos--><g id="link_*start*abrirProyecto_MostrandoListaProyectos"><path d="M588,176.9294 C588,192.7894 588,219.5194 588,242.2494 " fill="none" id="*start*abrirProyecto-to-MostrandoListaProyectos" style="stroke:#008000;stroke-width:1.0;"/><polygon fill="#008000" points="588,248.2494,592,239.2494,588,243.2494,584,239.2494,588,248.2494" style="stroke:#008000;stroke-width:1.0;"/><path d="M593,199.6094 L593,225.6094 L839,225.6094 L839,209.6094 L829,199.6094 L593,199.6094 " fill="#FEFFDD" style="stroke:#181818;stroke-width:0.5;"/><path d="M829,199.6094 L829,209.6094 L839,209.6094 L829,199.6094 " fill="#FEFFDD" style="stroke:#181818;stroke-width:0.5;"/><text fill="#000000" font-family="sans-serif" font-size="13" font-weight="bold" lengthAdjust="spacing" textLength="79" x="599" y="218.1045">Coordinador</text><text fill="#000000" font-family="sans-serif" font-size="13" lengthAdjust="spacing" textLength="142" x="682" y="218.1045">solicita abrir un proyecto</text></g><!--link MostrandoListaProyectos to FiltrandoBuscando--><g id="link_MostrandoListaProyectos_FiltrandoBuscando"><path d="M562.76,285.3194 C533.43,297.7594 489,316.6094 489,316.6094 C489,316.6094 453.8914,415.2366 436.6414,463.7166 " fill="none" id="MostrandoListaProyectos-to-FiltrandoBuscando" style="stroke:#008000;stroke-width:1.0;"/><polygon fill="#008000" points="434.63,469.3694,441.4156,462.2311,436.3061,464.6587,433.8785,459.5492,434.63,469.3694" style="stroke:#008000;stroke-width:1.0;"/><path d="M494,321.6094 L494,445.6094 L731,445.6094 L731,331.6094 L721,321.6094 L494,321.6094 " fill="#FEFFDD" style="stroke:#181818;stroke-width:0.5;"/><path d="M721,321.6094 L721,331.6094 L731,331.6094 L721,321.6094 " fill="#FEFFDD" style="stroke:#181818;stroke-width:0.5;"/><text fill="#000000" font-family="sans-serif" font-size="13" font-weight="bold" lengthAdjust="spacing" textLength="51" x="500" y="340.1045">Sistema</text><text fill="#000000" font-family="sans-serif" font-size="13" lengthAdjust="spacing" textLength="161" x="555" y="340.1045">presenta lista de proyectos:</text><text fill="#000000" font-family="sans-serif" font-size="13" lengthAdjust="spacing" textLength="104" x="500" y="356.4561">&#8226; ID, t&#237;tulo, estado</text><text fill="#000000" font-family="sans-serif" font-size="13" lengthAdjust="spacing" textLength="152" x="500" y="372.8076">&#8226; Coordinador responsable</text><text fill="#000000" font-family="sans-serif" font-size="13" lengthAdjust="spacing" textLength="103" x="500" y="389.1592">&#8226; Fechas inicio/fin</text><text fill="#000000" font-family="sans-serif" font-size="13" lengthAdjust="spacing" textLength="77" x="500" y="405.5107">&#8226; Descripci&#243;n</text><text fill="#000000" font-family="sans-serif" font-size="13" lengthAdjust="spacing" textLength="129" x="500" y="421.8623">&#8226; Permite filtrar/buscar</text><text fill="#000000" font-family="sans-serif" font-size="13" lengthAdjust="spacing" textLength="196" x="500" y="438.2139">&#8226; Permite seleccionar un proyecto</text></g><!--link FiltrandoBuscando to FiltrandoBuscando--><g id="link_FiltrandoBuscando_FiltrandoBuscando"><path d="M451.18,483.0294 C460.91,482.5194 469,486.3794 469,494.6094 C469,502.8394 466.9018,507.0134 457.1718,506.5034 " fill="none" id="FiltrandoBuscando-to-FiltrandoBuscando" style="stroke:#008000;stroke-width:1.0;"/><polygon fill="#008000" points="451.18,506.1894,459.9583,510.655,456.1731,506.4511,460.377,502.6659,451.18,506.1894" style="stroke:#008000;stroke-width:1.0;"/><path d="M474,473.6094 L474,515.6094 L707,515.6094 L707,483.6094 L697,473.6094 L474,473.6094 " fill="#FEFFDD" style="stroke:#181818;stroke-width:0.5;"/><path d="M697,473.6094 L697,483.6094 L707,483.6094 L697,473.6094 " fill="#FEFFDD" style="stroke:#181818;stroke-width:0.5;"/><text fill="#000000" font-family="sans-serif" font-size="13" font-weight="bold" lengthAdjust="spacing" textLength="79" x="480" y="492.1045">Coordinador</text><text fill="#000000" font-family="sans-serif" font-size="13" lengthAdjust="spacing" textLength="129" x="563" y="492.1045">aplica filtros/b&#250;squeda</text><text fill="#000000" font-family="sans-serif" font-size="13" font-weight="bold" lengthAdjust="spacing" textLength="51" x="480" y="508.4561">Sistema</text><text fill="#000000" font-family="sans-serif" font-size="13" lengthAdjust="spacing" textLength="131" x="535" y="508.4561">muestra la lista filtrada</text></g><!--link FiltrandoBuscando to SeleccionandoProyecto--><g id="link_FiltrandoBuscando_SeleccionandoProyecto"><path d="M425.44,519.6194 C425.21,529.4694 425,538.6094 425,538.6094 C425,538.6094 425,574.6094 425,574.6094 C425,574.6094 510.3122,596.7229 555.8822,608.5429 " fill="none" id="FiltrandoBuscando-to-SeleccionandoProyecto" style="stroke:#008000;stroke-width:1.0;"/><polygon fill="#008000" points="561.69,610.0494,553.9826,603.9178,556.8502,608.794,551.974,611.6616,561.69,610.0494" style="stroke:#008000;stroke-width:1.0;"/><path d="M430,543.6094 L430,569.6094 L731,569.6094 L731,553.6094 L721,543.6094 L430,543.6094 " fill="#FEFFDD" style="stroke:#181818;stroke-width:0.5;"/><path d="M721,543.6094 L721,553.6094 L731,553.6094 L721,543.6094 " fill="#FEFFDD" style="stroke:#181818;stroke-width:0.5;"/><text fill="#000000" font-family="sans-serif" font-size="13" font-weight="bold" lengthAdjust="spacing" textLength="79" x="436" y="562.1045">Coordinador</text><text fill="#000000" font-family="sans-serif" font-size="13" lengthAdjust="spacing" textLength="197" x="519" y="562.1045">selecciona un proyecto del listado</text></g><!--link MostrandoListaProyectos to SeleccionandoProyecto--><g id="link_MostrandoListaProyectos_SeleccionandoProyecto"><path d="M613.11,281.7294 C655.33,293.7194 736,316.6094 736,316.6094 C736,316.6094 736,574.6094 736,574.6094 C736,574.6094 660.5647,595.8706 618.0547,607.8606 " fill="none" id="MostrandoListaProyectos-to-SeleccionandoProyecto" style="stroke:#008000;stroke-width:1.0;"/><polygon fill="#008000" points="612.28,609.4894,622.0279,610.896,617.0922,608.1321,619.8562,603.1964,612.28,609.4894" style="stroke:#008000;stroke-width:1.0;"/><path d="M741,481.6094 L741,507.6094 L1042,507.6094 L1042,491.6094 L1032,481.6094 L741,481.6094 " fill="#FEFFDD" style="stroke:#181818;stroke-width:0.5;"/><path d="M1032,481.6094 L1032,491.6094 L1042,491.6094 L1032,481.6094 " fill="#FEFFDD" style="stroke:#181818;stroke-width:0.5;"/><text fill="#000000" font-family="sans-serif" font-size="13" font-weight="bold" lengthAdjust="spacing" textLength="79" x="747" y="500.1045">Coordinador</text><text fill="#000000" font-family="sans-serif" font-size="13" lengthAdjust="spacing" textLength="197" x="830" y="500.1045">selecciona un proyecto del listado</text></g><!--link SeleccionandoProyecto to *end*abrirProyecto--><g id="link_SeleccionandoProyecto_*end*abrirProyecto"><path d="M587,642.6594 C587,665.2594 587,691.9894 587,708.4094 " fill="none" id="SeleccionandoProyecto-to-*end*abrirProyecto" style="stroke:#008000;stroke-width:1.0;"/><polygon fill="#008000" points="587,714.4094,591,705.4094,587,709.4094,583,705.4094,587,714.4094" style="stroke:#008000;stroke-width:1.0;"/><path d="M592,665.6094 L592,691.6094 L848,691.6094 L848,675.6094 L838,665.6094 L592,665.6094 " fill="#FEFFDD" style="stroke:#181818;stroke-width:0.5;"/><path d="M838,665.6094 L838,675.6094 L848,675.6094 L838,665.6094 " fill="#FEFFDD" style="stroke:#181818;stroke-width:0.5;"/><text fill="#000000" font-family="sans-serif" font-size="13" font-weight="bold" lengthAdjust="spacing" textLength="51" x="598" y="684.1045">Sistema</text><text fill="#000000" font-family="sans-serif" font-size="13" lengthAdjust="spacing" textLength="180" x="653" y="684.1045">carga el proyecto seleccionado</text></g><g id="in2"><rect fill="#F1F1F1" height="50" rx="12.5" ry="12.5" style="stroke:#181818;stroke-width:0.5;" width="198" x="734" y="7"/><line style="stroke:#181818;stroke-width:0.5;" x1="734" x2="932" y1="34.6094" y2="34.6094"/><text fill="#000000" font-family="sans-serif" font-size="14" lengthAdjust="spacing" textLength="178" x="744" y="26.5332">ENTREGABLES_ABIERTOS</text></g><g id="PROYECTO_ABIERTO"><rect fill="#F1F1F1" height="50" rx="12.5" ry="12.5" style="stroke:#181818;stroke-width:0.5;" width="166" x="174" y="843"/><line style="stroke:#181818;stroke-width:0.5;" x1="174" x2="340" y1="870.6094" y2="870.6094"/><text fill="#000000" font-family="sans-serif" font-size="14" lengthAdjust="spacing" textLength="146" x="184" y="862.5332">PROYECTO_ABIERTO</text></g><g id="PROYECTOS_ABIERTOS"><rect fill="#F1F1F1" height="50" rx="12.5" ry="12.5" style="stroke:#181818;stroke-width:0.5;" width="184" x="684" y="843"/><line style="stroke:#181818;stroke-width:0.5;" x1="684" x2="868" y1="870.6094" y2="870.6094"/><text fill="#000000" font-family="sans-serif" font-size="14" lengthAdjust="spacing" textLength="164" x="694" y="862.5332">PROYECTOS_ABIERTOS</text></g><g id="ENTREGABLES_ABIERTOS"><rect fill="#F1F1F1" height="50" rx="12.5" ry="12.5" style="stroke:#181818;stroke-width:0.5;" width="198" x="1010" y="843"/><line style="stroke:#181818;stroke-width:0.5;" x1="1010" x2="1208" y1="870.6094" y2="870.6094"/><text fill="#000000" font-family="sans-serif" font-size="14" lengthAdjust="spacing" textLength="178" x="1020" y="862.5332">ENTREGABLES_ABIERTOS</text></g><g id="INVESTIGADORES_ABIERTOS"><rect fill="#F1F1F1" height="50" rx="12.5" ry="12.5" style="stroke:#181818;stroke-width:0.5;" width="217" x="1293.5" y="843"/><line style="stroke:#181818;stroke-width:0.5;" x1="1293.5" x2="1510.5" y1="870.6094" y2="870.6094"/><text fill="#000000" font-family="sans-serif" font-size="14" lengthAdjust="spacing" textLength="197" x="1303.5" y="862.5332">INVESTIGADORES_ABIERTOS</text></g><!--link in1 to abrirProyecto--><g id="link_in1_abrirProyecto"><path d="M613.81,57.03 C618.06,72.01 622.4034,87.3175 629.3834,111.9375 " fill="none" id="in1-to-abrirProyecto" style="stroke:#008000;stroke-width:1.0;"/><polygon fill="#008000" points="631.02,117.71,632.4135,107.9602,629.6562,112.8996,624.7168,110.1423,631.02,117.71" style="stroke:#008000;stroke-width:1.0;"/></g><!--link in2 to abrirProyecto--><g id="link_in2_abrirProyecto"><path d="M826.19,57.03 C821.94,72.01 817.5966,87.3175 810.6166,111.9375 " fill="none" id="in2-to-abrirProyecto" style="stroke:#008000;stroke-width:1.0;"/><polygon fill="#008000" points="808.98,117.71,815.2832,110.1423,810.3438,112.8996,807.5865,107.9602,808.98,117.71" style="stroke:#008000;stroke-width:1.0;"/></g><!--link abrirProyecto to PROYECTO_ABIERTO--><g id="link_abrirProyecto_PROYECTO_ABIERTO"><path d="M388.87,592.81 C202.17,682.62 6,777 6,777 C6,777 6,813 6,813 C6,813 94.8442,832.1079 167.9042,847.8279 " fill="none" id="abrirProyecto-to-PROYECTO_ABIERTO" style="stroke:#008000;stroke-width:1.0;"/><polygon fill="#008000" points="173.77,849.09,165.8128,843.2863,168.8819,848.0382,164.13,851.1073,173.77,849.09" style="stroke:#008000;stroke-width:1.0;"/><path d="M11,782 L11,808 L127,808 L127,792 L117,782 L11,782 " fill="#FEFFDD" style="stroke:#181818;stroke-width:0.5;"/><path d="M117,782 L117,792 L127,792 L117,782 " fill="#FEFFDD" style="stroke:#181818;stroke-width:0.5;"/><text fill="#000000" font-family="sans-serif" font-size="13" lengthAdjust="spacing" textLength="95" x="17" y="800.4951">Proyecto abierto</text></g><!--link abrirProyecto to PROYECTO_ABIERTO--><g id="link_abrirProyecto_PROYECTO_ABIERTO"><path d="M388.98,640.99 C273.41,713.43 172,777 172,777 C172,777 172,813 172,813 C172,813 191.2743,825.2547 213.9143,839.6247 " fill="none" id="abrirProyecto-to-PROYECTO_ABIERTO-1" style="stroke:#008000;stroke-width:1.0;"/><polygon fill="#008000" points="218.98,842.84,213.5249,834.6399,214.7585,840.1606,209.2378,841.3942,218.98,842.84" style="stroke:#008000;stroke-width:1.0;"/><path d="M177,782 L177,808 L290,808 L290,792 L280,782 L177,782 " fill="#FEFFDD" style="stroke:#181818;stroke-width:0.5;"/><path d="M280,782 L280,792 L290,792 L280,782 " fill="#FEFFDD" style="stroke:#181818;stroke-width:0.5;"/><text fill="#000000" font-family="sans-serif" font-size="13" lengthAdjust="spacing" textLength="92" x="183" y="800.4951">editarProyecto()</text></g><!--link abrirProyecto to PROYECTO_ABIERTO--><g id="link_abrirProyecto_PROYECTO_ABIERTO"><path d="M388.94,728.88 C356.33,757.97 335,777 335,777 C335,777 304.94,811.6863 281.83,838.3463 " fill="none" id="abrirProyecto-to-PROYECTO_ABIERTO-2" style="stroke:#008000;stroke-width:1.0;"/><polygon fill="#008000" points="277.9,842.88,286.8175,838.6994,281.175,839.1019,280.7726,833.4594,277.9,842.88" style="stroke:#008000;stroke-width:1.0;"/><path d="M340,782 L340,808 L480,808 L480,792 L470,782 L340,782 " fill="#FEFFDD" style="stroke:#181818;stroke-width:0.5;"/><path d="M470,782 L470,792 L480,792 L470,782 " fill="#FEFFDD" style="stroke:#181818;stroke-width:0.5;"/><text fill="#000000" font-family="sans-serif" font-size="13" lengthAdjust="spacing" textLength="119" x="346" y="800.4951">agregarInvestigador()</text></g><!--link abrirProyecto to PROYECTO_ABIERTO--><g id="link_abrirProyecto_PROYECTO_ABIERTO"><path d="M528.97,747.33 C505.18,786.42 489,813 489,813 C489,813 412.5137,830.7994 345.9437,846.2994 " fill="none" id="abrirProyecto-to-PROYECTO_ABIERTO-3" style="stroke:#008000;stroke-width:1.0;"/><polygon fill="#008000" points="340.1,847.66,349.7726,849.5148,344.9697,846.5261,347.9584,841.7233,340.1,847.66" style="stroke:#008000;stroke-width:1.0;"/><path d="M514,782 L514,808 L656,808 L656,792 L646,782 L514,782 " fill="#FEFFDD" style="stroke:#181818;stroke-width:0.5;"/><path d="M646,782 L646,792 L656,792 L646,782 " fill="#FEFFDD" style="stroke:#181818;stroke-width:0.5;"/><text fill="#000000" font-family="sans-serif" font-size="13" lengthAdjust="spacing" textLength="121" x="520" y="800.4951">eliminarInvestigador()</text></g><!--link abrirProyecto to PROYECTOS_ABIERTOS--><g id="link_abrirProyecto_PROYECTOS_ABIERTOS"><path d="M717.26,747.12 C717.1,765.67 717,777 717,777 C717,777 717,813 717,813 C717,813 729.4727,824.4204 745.1827,838.7904 " fill="none" id="abrirProyecto-to-PROYECTOS_ABIERTOS" style="stroke:#008000;stroke-width:1.0;"/><polygon fill="#008000" points="749.61,842.84,745.6689,833.8141,745.9206,839.4653,740.2694,839.7171,749.61,842.84" style="stroke:#008000;stroke-width:1.0;"/><path d="M722,782 L722,808 L848,808 L848,792 L838,782 L722,782 " fill="#FEFFDD" style="stroke:#181818;stroke-width:0.5;"/><path d="M838,782 L838,792 L848,792 L838,782 " fill="#FEFFDD" style="stroke:#181818;stroke-width:0.5;"/><text fill="#000000" font-family="sans-serif" font-size="13" lengthAdjust="spacing" textLength="105" x="728" y="800.4951">eliminarProyecto()</text></g><!--link abrirProyecto to PROYECTOS_ABIERTOS--><g id="link_abrirProyecto_PROYECTOS_ABIERTOS"><path d="M845.08,747.12 C852.48,765.67 857,777 857,777 C857,777 857,813 857,813 C857,813 838.7927,825.1423 817.2327,839.5123 " fill="none" id="abrirProyecto-to-PROYECTOS_ABIERTOS-1" style="stroke:#008000;stroke-width:1.0;"/><polygon fill="#008000" points="812.24,842.84,821.9474,841.1769,816.4005,840.0669,817.5105,834.5201,812.24,842.84" style="stroke:#008000;stroke-width:1.0;"/><path d="M862,782 L862,808 L975,808 L975,792 L965,782 L862,782 " fill="#FEFFDD" style="stroke:#181818;stroke-width:0.5;"/><path d="M965,782 L965,792 L975,792 L965,782 " fill="#FEFFDD" style="stroke:#181818;stroke-width:0.5;"/><text fill="#000000" font-family="sans-serif" font-size="13" lengthAdjust="spacing" textLength="92" x="868" y="800.4951">abrirProyectos()</text></g><!--link abrirProyecto to ENTREGABLES_ABIERTOS--><g id="link_abrirProyecto_ENTREGABLES_ABIERTOS"><path d="M997.86,747.33 C1032.47,786.42 1056,813 1056,813 C1056,813 1066.9763,824.1888 1081.0863,838.5588 " fill="none" id="abrirProyecto-to-ENTREGABLES_ABIERTOS" style="stroke:#008000;stroke-width:1.0;"/><polygon fill="#008000" points="1085.29,842.84,1081.8385,833.6157,1081.7869,839.2723,1076.1303,839.2207,1085.29,842.84" style="stroke:#008000;stroke-width:1.0;"/><path d="M1061,782 L1061,808 L1184,808 L1184,792 L1174,782 L1061,782 " fill="#FEFFDD" style="stroke:#181818;stroke-width:0.5;"/><path d="M1174,782 L1174,792 L1184,792 L1174,782 " fill="#FEFFDD" style="stroke:#181818;stroke-width:0.5;"/><text fill="#000000" font-family="sans-serif" font-size="13" lengthAdjust="spacing" textLength="102" x="1067" y="800.4951">abrirEntregables()</text></g><!--link abrirProyecto to ENTREGABLES_ABIERTOS--><g id="link_abrirProyecto_ENTREGABLES_ABIERTOS"><path d="M1051.08,673.94 C1130.58,731.67 1193,777 1193,777 C1193,777 1193,813 1193,813 C1193,813 1173.9875,825.2261 1151.6275,839.5961 " fill="none" id="abrirProyecto-to-ENTREGABLES_ABIERTOS-1" style="stroke:#008000;stroke-width:1.0;"/><polygon fill="#008000" points="1146.58,842.84,1156.3138,841.3392,1150.7863,840.1368,1151.9887,834.6092,1146.58,842.84" style="stroke:#008000;stroke-width:1.0;"/><path d="M1198,782 L1198,808 L1318,808 L1318,792 L1308,782 L1198,782 " fill="#FEFFDD" style="stroke:#181818;stroke-width:0.5;"/><path d="M1308,782 L1308,792 L1318,792 L1308,782 " fill="#FEFFDD" style="stroke:#181818;stroke-width:0.5;"/><text fill="#000000" font-family="sans-serif" font-size="13" lengthAdjust="spacing" textLength="99" x="1204" y="800.4951">crearEntregable()</text></g><!--link abrirProyecto to INVESTIGADORES_ABIERTOS--><g id="link_abrirProyecto_INVESTIGADORES_ABIERTOS"><path d="M1051.43,619.83 C1195.06,700.58 1331,777 1331,777 C1331,777 1358.224,811.5092 1379.254,838.1692 " fill="none" id="abrirProyecto-to-INVESTIGADORES_ABIERTOS" style="stroke:#008000;stroke-width:1.0;"/><polygon fill="#008000" points="1382.97,842.88,1380.5366,833.3365,1379.8734,838.9543,1374.2555,838.2911,1382.97,842.88" style="stroke:#008000;stroke-width:1.0;"/><path d="M1363,782 L1363,808 L1499,808 L1499,792 L1489,782 L1363,782 " fill="#FEFFDD" style="stroke:#181818;stroke-width:0.5;"/><path d="M1489,782 L1489,792 L1499,792 L1489,782 " fill="#FEFFDD" style="stroke:#181818;stroke-width:0.5;"/><text fill="#000000" font-family="sans-serif" font-size="13" lengthAdjust="spacing" textLength="115" x="1369" y="800.4951">abrirInvestigadores()</text></g><!--SRC=[nLNDQjj04BxhAHRdafG4qnnBCDYn4WH9R6nJA264bJHnbwnsrTrLm9H2dwNtddhhrM_I9-ci5FsihSQE2DGws9hvzfjlVdQi7vb8gQ89uKo0MQL0KibNziNpjA4621Fl2TMaDvrDFlddYydyVZWA_1d-w7dMTt9xi5G0ukvaG6Yec9egkOB8o9hWD2VmRnOp_t8ukl9TYjFT58un9tCiXqSzyjNp27uAV0yVH5rBRHGLiRnYQ2_HUXjumNW176Kwij_Ra3bmY28cXNNN-YpkzjsTay9BOOL4IYbikHzpmrauE9TInKpGMAgpVZWWMd8MCKEBj4acI5h6ioT0n3bD4VmVmHn1xUcrIPaZ2IGqbv4gq21G1hVC98PAXlwGu_zy_q62yJ4nwvycu_AO0EAUoQslaHT1hbGAJKCEbVy2eizOMIOmMzb_OABoZ457YgKHM_-gZLDG2KF93tasgX_QPDIMMrUDsbMwhR9qBDfc_sYA_QE5JgdxuVgt_f91JDkAd6HW-qTuMUOYksVmQ_Is3-ZUCrUTRXODcyuBNN7NsViFibf3EgBmnkvr1N2-bfHWi2foBMWpz3VFSzTKCs2vFCl5vpcHwyqMCb1OdZgVhfGGum9fBCXNKTRxUOEKimIRqvMsNIb5t9AgG3pXJM1Bs_etuIt5TY1k-wVQ46tF-i9OwRZIz9iHHmfeWtXFtk3cepzV19V3yMJsikPcDVQMlMikd9CEwLy0]--></g></svg>