<?xml version="1.0" encoding="us-ascii" standalone="no"?><svg xmlns="http://www.w3.org/2000/svg" xmlns:xlink="http://www.w3.org/1999/xlink" contentStyleType="text/css" height="845px" preserveAspectRatio="none" style="width:431px;height:845px;background:#FFFFFF;" version="1.1" viewBox="0 0 431 845" width="431px" zoomAndPan="magnify"><defs/><g><path d="M34.5,153 L389.5,153 A12.5,12.5 0 0 1 402,165.5 L402,180.6094 L22,180.6094 L22,165.5 A12.5,12.5 0 0 1 34.5,153 " fill="#F1F1F1" style="stroke:#F1F1F1;stroke-width:1.0;"/><rect fill="none" height="539.6094" rx="12.5" ry="12.5" style="stroke:#181818;stroke-width:0.5;" width="380" x="22" y="153"/><line style="stroke:#181818;stroke-width:0.5;" x1="22" x2="402" y1="180.6094" y2="180.6094"/><text fill="#000000" font-family="sans-serif" font-size="14" lengthAdjust="spacing" textLength="95" x="164.5" y="172.5332">abrirProyecto()</text><g id="abrirProyecto.MostrandoListaProyectos"><rect fill="#F1F1F1" height="50" rx="12.5" ry="12.5" style="stroke:#181818;stroke-width:0.5;" width="50" x="34" y="283.6094"/><line style="stroke:#181818;stroke-width:0.5;" x1="34" x2="84" y1="311.2188" y2="311.2188"/><text fill="#000000" font-family="sans-serif" font-size="14" lengthAdjust="spacing" textLength="4" x="57" y="303.1426">&#160;</text></g><g id="abrirProyecto.SeleccionandoProyecto"><rect fill="#F1F1F1" height="50" rx="12.5" ry="12.5" style="stroke:#181818;stroke-width:0.5;" width="50" x="34" y="537.6094"/><line style="stroke:#181818;stroke-width:0.5;" x1="34" x2="84" y1="565.2188" y2="565.2188"/><text fill="#000000" font-family="sans-serif" font-size="14" lengthAdjust="spacing" textLength="4" x="57" y="557.1426">&#160;</text></g><ellipse cx="59" cy="201.6094" fill="#222222" rx="10" ry="10" style="stroke:#222222;stroke-width:1.0;"/><ellipse cx="59" cy="671.6094" fill="none" rx="11" ry="11" style="stroke:#222222;stroke-width:1.0;"/><ellipse cx="59" cy="671.6094" fill="#222222" rx="6" ry="6" style="stroke:#222222;stroke-width:1.0;"/><!--link *start*abrirProyecto to MostrandoListaProyectos--><g id="link_*start*abrirProyecto_MostrandoListaProyectos"><path d="M59,211.9294 C59,227.7894 59,254.5194 59,277.2494 " fill="none" id="*start*abrirProyecto-to-MostrandoListaProyectos" style="stroke:#008000;stroke-width:1.0;"/><polygon fill="#008000" points="59,283.2494,63,274.2494,59,278.2494,55,274.2494,59,283.2494" style="stroke:#008000;stroke-width:1.0;"/><path d="M64,234.6094 L64,260.6094 L299,260.6094 L299,244.6094 L289,234.6094 L64,234.6094 " fill="#FEFFDD" style="stroke:#181818;stroke-width:0.5;"/><path d="M289,234.6094 L289,244.6094 L299,244.6094 L289,234.6094 " fill="#FEFFDD" style="stroke:#181818;stroke-width:0.5;"/><text fill="#000000" font-family="sans-serif" font-size="13" font-weight="bold" lengthAdjust="spacing" textLength="79" x="70" y="253.1045">Coordinador</text><text fill="#000000" font-family="sans-serif" font-size="13" lengthAdjust="spacing" textLength="131" x="153" y="253.1045">solicita abrir proyectos</text></g><!--link MostrandoListaProyectos to SeleccionandoProyecto--><g id="link_MostrandoListaProyectos_SeleccionandoProyecto"><path d="M59,333.7694 C59,381.9394 59,483.4094 59,531.5194 " fill="none" id="MostrandoListaProyectos-to-SeleccionandoProyecto" style="stroke:#008000;stroke-width:1.0;"/><polygon fill="#008000" points="59,537.5194,63,528.5194,59,532.5194,55,528.5194,59,537.5194" style="stroke:#008000;stroke-width:1.0;"/><path d="M64,356.6094 L64,513.6094 L393,513.6094 L393,366.6094 L383,356.6094 L64,356.6094 " fill="#FEFFDD" style="stroke:#181818;stroke-width:0.5;"/><path d="M383,356.6094 L383,366.6094 L393,366.6094 L383,356.6094 " fill="#FEFFDD" style="stroke:#181818;stroke-width:0.5;"/><text fill="#000000" font-family="sans-serif" font-size="13" font-weight="bold" lengthAdjust="spacing" textLength="51" x="70" y="375.1045">Sistema</text><text fill="#000000" font-family="sans-serif" font-size="13" lengthAdjust="spacing" textLength="253" x="125" y="375.1045">presenta lista de proyectos de investigaci&#243;n</text><text fill="#000000" font-family="sans-serif" font-size="13" lengthAdjust="spacing" textLength="21" x="70" y="391.4561">&#8226; ID</text><text fill="#000000" font-family="sans-serif" font-size="13" lengthAdjust="spacing" textLength="40" x="70" y="407.8076">&#8226; T&#237;tulo</text><text fill="#000000" font-family="sans-serif" font-size="13" lengthAdjust="spacing" textLength="125" x="70" y="424.1592">&#8226; Estado del proyecto</text><text fill="#000000" font-family="sans-serif" font-size="13" lengthAdjust="spacing" textLength="146" x="70" y="440.5107">&#8226; Nombre del coordinador</text><text fill="#000000" font-family="sans-serif" font-size="13" lengthAdjust="spacing" textLength="132" x="70" y="456.8623">&#8226; Fechas de inicio y fin</text><text fill="#000000" font-family="sans-serif" font-size="13" lengthAdjust="spacing" textLength="77" x="70" y="473.2139">&#8226; Descripci&#243;n</text><text fill="#000000" font-family="sans-serif" font-size="13" lengthAdjust="spacing" textLength="178" x="70" y="489.5654">&#8226; Permite solicitar filtrar/buscar</text><text fill="#000000" font-family="sans-serif" font-size="13" lengthAdjust="spacing" textLength="204" x="70" y="505.917">&#8226; Permite solicitar abrir un proyecto</text></g><!--link SeleccionandoProyecto to SeleccionandoProyecto--><g id="link_SeleccionandoProyecto_SeleccionandoProyecto"><path d="M84.18,551.0294 C93.91,550.5194 102,554.3794 102,562.6094 C102,570.8394 99.9018,575.0134 90.1718,574.5034 " fill="none" id="SeleccionandoProyecto-to-SeleccionandoProyecto" style="stroke:#008000;stroke-width:1.0;"/><polygon fill="#008000" points="84.18,574.1894,92.9583,578.655,89.1731,574.4511,93.377,570.6659,84.18,574.1894" style="stroke:#008000;stroke-width:1.0;"/><path d="M107,541.6094 L107,583.6094 L388,583.6094 L388,551.6094 L378,541.6094 L107,541.6094 " fill="#FEFFDD" style="stroke:#181818;stroke-width:0.5;"/><path d="M378,541.6094 L378,551.6094 L388,551.6094 L378,541.6094 " fill="#FEFFDD" style="stroke:#181818;stroke-width:0.5;"/><text fill="#000000" font-family="sans-serif" font-size="13" font-weight="bold" lengthAdjust="spacing" textLength="79" x="113" y="560.1045">Coordinador</text><text fill="#000000" font-family="sans-serif" font-size="13" lengthAdjust="spacing" textLength="177" x="196" y="560.1045">solicita filtrar/buscar proyectos</text><text fill="#000000" font-family="sans-serif" font-size="13" font-weight="bold" lengthAdjust="spacing" textLength="51" x="113" y="576.4561">Sistema</text><text fill="#000000" font-family="sans-serif" font-size="13" lengthAdjust="spacing" textLength="120" x="168" y="576.4561">presenta lista filtrada</text></g><!--link SeleccionandoProyecto to *end*abrirProyecto--><g id="link_SeleccionandoProyecto_*end*abrirProyecto"><path d="M59,587.6194 C59,610.5394 59,637.9694 59,654.5294 " fill="none" id="SeleccionandoProyecto-to-*end*abrirProyecto" style="stroke:#008000;stroke-width:1.0;"/><polygon fill="#008000" points="59,660.5294,63,651.5294,59,655.5294,55,651.5294,59,660.5294" style="stroke:#008000;stroke-width:1.0;"/><path d="M64,611.6094 L64,637.6094 L370,637.6094 L370,621.6094 L360,611.6094 L64,611.6094 " fill="#FEFFDD" style="stroke:#181818;stroke-width:0.5;"/><path d="M360,611.6094 L360,621.6094 L370,621.6094 L360,611.6094 " fill="#FEFFDD" style="stroke:#181818;stroke-width:0.5;"/><text fill="#000000" font-family="sans-serif" font-size="13" font-weight="bold" lengthAdjust="spacing" textLength="79" x="70" y="630.1045">Coordinador</text><text fill="#000000" font-family="sans-serif" font-size="13" lengthAdjust="spacing" textLength="202" x="153" y="630.1045">solicita abrir un proyecto de la lista</text></g><g id="PROYECTOS_ABIERTOS"><rect fill="#F1F1F1" height="50" rx="12.5" ry="12.5" style="stroke:#181818;stroke-width:0.5;" width="184" x="7" y="7"/><line style="stroke:#181818;stroke-width:0.5;" x1="7" x2="191" y1="34.6094" y2="34.6094"/><text fill="#000000" font-family="sans-serif" font-size="14" lengthAdjust="spacing" textLength="164" x="17" y="26.5332">PROYECTOS_ABIERTOS</text></g><g id="ENTREGABLES_ABIERTOS"><rect fill="#F1F1F1" height="50" rx="12.5" ry="12.5" style="stroke:#181818;stroke-width:0.5;" width="198" x="226" y="7"/><line style="stroke:#181818;stroke-width:0.5;" x1="226" x2="424" y1="34.6094" y2="34.6094"/><text fill="#000000" font-family="sans-serif" font-size="14" lengthAdjust="spacing" textLength="178" x="236" y="26.5332">ENTREGABLES_ABIERTOS</text></g><g id="PROYECTO_ABIERTO"><rect fill="#F1F1F1" height="50" rx="12.5" ry="12.5" style="stroke:#181818;stroke-width:0.5;" width="166" x="129" y="789"/><line style="stroke:#181818;stroke-width:0.5;" x1="129" x2="295" y1="816.6094" y2="816.6094"/><text fill="#000000" font-family="sans-serif" font-size="14" lengthAdjust="spacing" textLength="146" x="139" y="808.5332">PROYECTO_ABIERTO</text></g><!--link PROYECTOS_ABIERTOS to abrirProyecto--><g id="link_PROYECTOS_ABIERTOS_abrirProyecto"><path d="M105.98,57.04 C112.31,78.82 120.7055,107.7284 132.1855,147.2284 " fill="none" id="PROYECTOS_ABIERTOS-to-abrirProyecto" style="stroke:#008000;stroke-width:1.0;"/><polygon fill="#008000" points="133.86,152.99,135.1893,143.2313,132.4646,148.1887,127.5072,145.4639,133.86,152.99" style="stroke:#008000;stroke-width:1.0;"/><path d="M129,92 L129,118 L235,118 L235,102 L225,92 L129,92 " fill="#FEFFDD" style="stroke:#181818;stroke-width:0.5;"/><path d="M225,92 L225,102 L235,102 L225,92 " fill="#FEFFDD" style="stroke:#181818;stroke-width:0.5;"/><text fill="#000000" font-family="sans-serif" font-size="13" lengthAdjust="spacing" textLength="85" x="135" y="110.4951">abrirProyecto()</text></g><!--link ENTREGABLES_ABIERTOS to abrirProyecto--><g id="link_ENTREGABLES_ABIERTOS_abrirProyecto"><path d="M318.02,57.04 C311.69,78.82 303.2945,107.7284 291.8145,147.2284 " fill="none" id="ENTREGABLES_ABIERTOS-to-abrirProyecto" style="stroke:#008000;stroke-width:1.0;"/><polygon fill="#008000" points="290.14,152.99,296.4928,145.4639,291.5354,148.1887,288.8107,143.2313,290.14,152.99" style="stroke:#008000;stroke-width:1.0;"/><path d="M313,92 L313,118 L419,118 L419,102 L409,92 L313,92 " fill="#FEFFDD" style="stroke:#181818;stroke-width:0.5;"/><path d="M409,92 L409,102 L419,102 L409,92 " fill="#FEFFDD" style="stroke:#181818;stroke-width:0.5;"/><text fill="#000000" font-family="sans-serif" font-size="13" lengthAdjust="spacing" textLength="85" x="319" y="110.4951">abrirProyecto()</text></g><!--link abrirProyecto to PROYECTO_ABIERTO--><g id="link_abrirProyecto_PROYECTO_ABIERTO"><path d="M212,693.11 C212,732.56 212,761.18 212,782.95 " fill="none" id="abrirProyecto-to-PROYECTO_ABIERTO" style="stroke:#008000;stroke-width:1.0;"/><polygon fill="#008000" points="212,788.95,216,779.95,212,783.95,208,779.95,212,788.95" style="stroke:#008000;stroke-width:1.0;"/><path d="M217,728 L217,754 L331,754 L331,738 L321,728 L217,728 " fill="#FEFFDD" style="stroke:#181818;stroke-width:0.5;"/><path d="M321,728 L321,738 L331,738 L321,728 " fill="#FEFFDD" style="stroke:#181818;stroke-width:0.5;"/><text fill="#000000" font-family="sans-serif" font-size="13" lengthAdjust="spacing" textLength="93" x="223" y="746.4951">proyecto abierto</text></g><!--SRC=[hPJVJi8m5CRl-nGDtgW9uGK82N-cCK4Wm8qXn7JT4HkwTZaj9iIO-2pUU-KZy2O-YTt6Deh01RhThEtfxtpdw-dCKgY48Okf50hiEW6QQBbE1uGOoonG5gB04UerSAifCxJcpLnUrUWh8TGzUNpDlIxgNXkBJ4MwBzny4Mr-1qv00kT2gpIuYCk1i-ivhSyk5WYWvlNMIQRI3gbLMiSocsY6hQxM60d58etDHjYYHal1XMLvJJJn0A2Y39AdFfBAatDO-J4n4mU2c6L24WG3oWcHAPr6K6b91qAzWB5YmRZOVAaCyFt-GUzwvUTqysbNKfVZm64YxVRAabIk3NGS8cHhl3AaNBu1_iosQPqxcgxfawYIzi1m58clP0GO2rTYOIYwBTBvXOrmPJZ34u6vzIlbw_JDFsZi7wm_sWU-whs6E7rc-TQ8dINVDVQvJRlZN7fcSgl7b_56o6WyV0Ywq-7aiTsv2yRkmrFWtM7YwTYxtgGgBXXCny5jkzCF_fFg_s1sSKKDHJAVMDh0GW7eyfN87m00]--></g></svg>