<svg xmlns="http://www.w3.org/2000/svg" xmlns:xlink="http://www.w3.org/1999/xlink" contentStyleType="text/css" data-diagram-type="DESCRIPTION" height="760px" preserveAspectRatio="none" style="width:532px;height:760px;background:#FFFFFF;" version="1.1" viewBox="0 0 532 760" width="532px" zoomAndPan="magnify"><title>Casos de uso del Investigador / Docente-Investigador</title><defs/><g><g class="title" data-source-line="1"><text fill="#000000" font-family="sans-serif" font-size="14" font-weight="bold" lengthAdjust="spacing" textLength="422.3789" x="47.8105" y="22.9951">Casos de uso del Investigador / Docente-Investigador</text></g><!--cluster Plataforma FUNIBER--><g class="cluster" data-entity="Plataforma FUNIBER" data-source-line="6" data-uid="ent0003" id="cluster_Plataforma FUNIBER"><rect fill="none" height="710" rx="2.5" ry="2.5" style="stroke:#181818;stroke-width:1;" width="349" x="177" y="44.2969"/><text fill="#000000" font-family="sans-serif" font-size="14" font-weight="bold" lengthAdjust="spacing" textLength="161.041" x="270.9795" y="59.292">Plataforma FUNIBER</text></g><!--cluster Gesti?n de Perfil y Carga--><g class="cluster" data-entity="Gesti.n de Perfil y Carga" data-source-line="8" data-uid="ent0004" id="cluster_Gesti.n de Perfil y Carga"><rect fill="none" height="241" rx="2.5" ry="2.5" style="stroke:#181818;stroke-width:1;" width="227" x="238" y="87.2969"/><text fill="#000000" font-family="sans-serif" font-size="14" font-weight="bold" lengthAdjust="spacing" textLength="196.9775" x="253.0112" y="102.292">Gesti&#243;n de Perfil y Carga</text></g><!--cluster Participaci?n en Convocatorias--><g class="cluster" data-entity="Participaci.n en Convocatorias" data-source-line="14" data-uid="ent0008" id="cluster_Participaci.n en Convocatorias"><rect fill="none" height="111" rx="2.5" ry="2.5" style="stroke:#181818;stroke-width:1;" width="301" x="201" y="352.2969"/><text fill="#000000" font-family="sans-serif" font-size="14" font-weight="bold" lengthAdjust="spacing" textLength="244.7061" x="229.147" y="367.292">Participaci&#243;n en Convocatorias</text></g><!--cluster Participaci?n en Proyectos--><g class="cluster" data-entity="Participaci.n en Proyectos" data-source-line="18" data-uid="ent0010" id="cluster_Participaci.n en Proyectos"><rect fill="none" height="243" rx="2.5" ry="2.5" style="stroke:#181818;stroke-width:1;" width="227" x="238" y="487.2969"/><text fill="#000000" font-family="sans-serif" font-size="14" font-weight="bold" lengthAdjust="spacing" textLength="210.9092" x="246.0454" y="502.292">Participaci&#243;n en Proyectos</text></g><!--entity CU_GestionarPerfil--><g class="entity" data-entity="CU_GestionarPerfil" data-source-line="9" data-uid="ent0005" id="entity_CU_GestionarPerfil"><ellipse cx="351.7068" cy="139.3382" fill="#F1F1F1" rx="73.2068" ry="17.0414" style="stroke:#181818;stroke-width:0.5;"/><text fill="#000000" font-family="sans-serif" font-size="14" lengthAdjust="spacing" textLength="114.3516" x="294.531" y="143.9867">GestionarPerfil()</text></g><!--entity CU_VerCarga--><g class="entity" data-entity="CU_VerCarga" data-source-line="10" data-uid="ent0006" id="entity_CU_VerCarga"><ellipse cx="351.4393" cy="212.1847" fill="#F1F1F1" rx="89.9393" ry="20.3879" style="stroke:#181818;stroke-width:0.5;"/><text fill="#000000" font-family="sans-serif" font-size="14" lengthAdjust="spacing" textLength="153.6035" x="274.6375" y="216.8332">VerCargaAcademica()</text></g><!--entity CU_SolicitarComp--><g class="entity" data-entity="CU_SolicitarComp" data-source-line="11" data-uid="ent0007" id="entity_CU_SolicitarComp"><ellipse cx="351.6282" cy="290.2225" fill="#F1F1F1" rx="97.6282" ry="21.9256" style="stroke:#181818;stroke-width:0.5;"/><text fill="#000000" font-family="sans-serif" font-size="14" lengthAdjust="spacing" textLength="170.8164" x="266.2199" y="294.8709">SolicitarCompensacion()</text></g><!--entity CU_VerConv--><g class="entity" data-entity="CU_VerConv" data-source-line="15" data-uid="ent0009" id="entity_CU_VerConv"><ellipse cx="351.3733" cy="417.0715" fill="#F1F1F1" rx="134.3733" ry="29.2747" style="stroke:#181818;stroke-width:0.5;"/><text fill="#000000" font-family="sans-serif" font-size="14" lengthAdjust="spacing" textLength="249.792" x="226.4773" y="421.72">ConsultarConvocatoriasAsignadas()</text></g><!--entity CU_VerProyectos--><g class="entity" data-entity="CU_VerProyectos" data-source-line="19" data-uid="ent0011" id="entity_CU_VerProyectos"><ellipse cx="351.255" cy="544.1479" fill="#F1F1F1" rx="97.255" ry="21.851" style="stroke:#181818;stroke-width:0.5;"/><text fill="#000000" font-family="sans-serif" font-size="14" lengthAdjust="spacing" textLength="169.9893" x="266.2604" y="548.7963">ConsultarMisProyectos()</text></g><!--entity CU_SubirEntregable--><g class="entity" data-entity="CU_SubirEntregable" data-source-line="20" data-uid="ent0012" id="entity_CU_SubirEntregable"><ellipse cx="351.5416" cy="619.1052" fill="#F1F1F1" rx="77.0416" ry="17.8083" style="stroke:#181818;stroke-width:0.5;"/><text fill="#000000" font-family="sans-serif" font-size="14" lengthAdjust="spacing" textLength="123.6484" x="289.7174" y="623.7536">SubirEntregable()</text></g><!--entity CU_VerEstado--><g class="entity" data-entity="CU_VerEstado" data-source-line="21" data-uid="ent0013" id="entity_CU_VerEstado"><ellipse cx="351.3153" cy="693.1599" fill="#F1F1F1" rx="92.3153" ry="20.8631" style="stroke:#181818;stroke-width:0.5;"/><text fill="#000000" font-family="sans-serif" font-size="14" lengthAdjust="spacing" textLength="158.9629" x="271.8339" y="697.8084">VerEstadoEntregable()</text></g><!--entity Inv--><g class="entity" data-entity="Inv" data-source-line="4" data-uid="ent0002" id="entity_Inv"><ellipse cx="81.4653" cy="379.2969" fill="#F1F1F1" rx="8" ry="8" style="stroke:#181818;stroke-width:0.5;"/><path d="M81.4653,387.2969 L81.4653,414.2969 M68.4653,395.2969 L94.4653,395.2969 M81.4653,414.2969 L68.4653,429.2969 M81.4653,414.2969 L94.4653,429.2969" fill="none" style="stroke:#181818;stroke-width:0.5;"/><text fill="#000000" font-family="sans-serif" font-size="14" lengthAdjust="spacing" textLength="96.4141" x="6" y="443.792">Investigador /</text><text fill="#000000" font-family="sans-serif" font-size="14" lengthAdjust="spacing" textLength="150.9307" x="6" y="460.0889">Docente-Investigador</text></g><!--link Inv to CU_GestionarPerfil--><g class="link" data-entity-1="Inv" data-entity-2="CU_GestionarPerfil" data-source-line="26" data-uid="lnk14" id="link_Inv_CU_GestionarPerfil"><path d="M85.62,370.7369 C91.94,315.3169 111.08,224.0469 169,174.2969 C199.06,148.4769 236.3733,139.8158 273.1433,137.3658" fill="none" id="Inv-to-CU_GestionarPerfil" style="stroke:#181818;stroke-width:1;"/><polygon fill="#181818" points="279.13,136.9669,269.884,133.5741,274.1411,137.2993,270.4158,141.5564,279.13,136.9669" style="stroke:#181818;stroke-width:1;"/></g><!--link Inv to CU_VerCarga--><g class="link" data-entity-1="Inv" data-entity-2="CU_VerCarga" data-source-line="27" data-uid="lnk15" id="link_Inv_CU_VerCarga"><path d="M94.53,370.7269 C106.85,332.5169 129.87,280.0169 169,250.2969 C195.53,230.1369 224.3478,220.9765 256.3278,216.1265" fill="none" id="Inv-to-CU_VerCarga" style="stroke:#181818;stroke-width:1;"/><polygon fill="#181818" points="262.26,215.2269,252.762,212.6216,257.3165,215.9766,253.9615,220.5311,262.26,215.2269" style="stroke:#181818;stroke-width:1;"/></g><!--link Inv to CU_SolicitarComp--><g class="link" data-entity-1="Inv" data-entity-2="CU_SolicitarComp" data-source-line="28" data-uid="lnk16" id="link_Inv_CU_SolicitarComp"><path d="M157.35,377.0869 C161.28,375.1069 165.18,373.1669 169,371.2969 C214.58,349.0369 262.1488,328.009 299.0888,312.109" fill="none" id="Inv-to-CU_SolicitarComp" style="stroke:#181818;stroke-width:1;"/><polygon fill="#181818" points="304.6,309.7369,294.7518,309.621,300.0074,311.7137,297.9147,316.9692,304.6,309.7369" style="stroke:#181818;stroke-width:1;"/></g><!--link Inv to CU_VerConv--><g class="link" data-entity-1="Inv" data-entity-2="CU_VerConv" data-source-line="29" data-uid="lnk17" id="link_Inv_CU_VerConv"><path d="M157.15,417.2969 C175.82,417.2969 190.4,417.2969 210.98,417.2969" fill="none" id="Inv-to-CU_VerConv" style="stroke:#181818;stroke-width:1;"/><polygon fill="#181818" points="216.98,417.2969,207.98,413.2969,211.98,417.2969,207.98,421.2969,216.98,417.2969" style="stroke:#181818;stroke-width:1;"/></g><!--link Inv to CU_VerProyectos--><g class="link" data-entity-1="Inv" data-entity-2="CU_VerProyectos" data-source-line="30" data-uid="lnk18" id="link_Inv_CU_VerProyectos"><path d="M157.35,457.5069 C161.28,459.4869 165.18,461.4269 169,463.2969 C214.58,485.5569 262.1488,506.5847 299.0888,522.4847" fill="none" id="Inv-to-CU_VerProyectos" style="stroke:#181818;stroke-width:1;"/><polygon fill="#181818" points="304.6,524.8569,297.9147,517.6245,300.0074,522.8801,294.7518,524.9727,304.6,524.8569" style="stroke:#181818;stroke-width:1;"/></g><!--link Inv to CU_SubirEntregable--><g class="link" data-entity-1="Inv" data-entity-2="CU_SubirEntregable" data-source-line="31" data-uid="lnk19" id="link_Inv_CU_SubirEntregable"><path d="M94.65,464.0769 C107,502.0969 129.99,554.0669 169,583.2969 C198.95,605.7369 233.2624,614.5945 268.2624,618.2445" fill="none" id="Inv-to-CU_SubirEntregable" style="stroke:#181818;stroke-width:1;"/><polygon fill="#181818" points="274.23,618.8669,265.6934,613.9549,269.257,618.3483,264.8637,621.9118,274.23,618.8669" style="stroke:#181818;stroke-width:1;"/></g><!--link Inv to CU_VerEstado--><g class="link" data-entity-1="Inv" data-entity-2="CU_VerEstado" data-source-line="32" data-uid="lnk20" id="link_Inv_CU_VerEstado"><path d="M86.34,463.9669 C93.35,517.9769 113.17,605.6969 169,654.2969 C193.67,675.7769 221.3819,685.4307 253.0019,690.3707" fill="none" id="Inv-to-CU_VerEstado" style="stroke:#181818;stroke-width:1;"/><polygon fill="#181818" points="258.93,691.2969,250.6553,685.9556,253.9899,690.5251,249.4204,693.8597,258.93,691.2969" style="stroke:#181818;stroke-width:1;"/></g><!--SRC=[ZLBDIWCn4BxdAOOzwQ7u1a9Tg_IWB4ez2JBDJjT0cYb9jb34f_8HV34dBTqcQn6NmC9yFpFV9D54Ir1Zu00jGHzOVXRcRaiXcWvRzd05jwp9HPhaPQKihI941c-wzmYjyQIZOQTGHr5LfSUhEsTI0ORKJAaaHjV9C5LZCUAA_HhXRl4ulvazLV2X5436kKyMtryk3TsGNnaBEudXEqnSaAyFf34SgUpG7tWNb_kczU9j19Ig5_9xkwd6bjP6uqbtX4h1CrkZJKHVytf3Bg0MxvEeW4NvEGhKe8z2s8WinI87DRijQvHT6Wo_KWaQUhltosZJO3g7BOPoMg7ygsNZUISu_z7kmOI1LJGPggErz4lZPovwwd1fALj82VpQ_Yn4UI7db0Duo2H7NX1C9jVdBZM3XdlBQkMrZCXfRMNf53Bt62Kf9OTHVm00]--></g></svg>