<?xml version="1.0" encoding="us-ascii" standalone="no"?><svg xmlns="http://www.w3.org/2000/svg" xmlns:xlink="http://www.w3.org/1999/xlink" contentStyleType="text/css" height="373px" preserveAspectRatio="none" style="width:826px;height:373px;background:#FFFFFF;" version="1.1" viewBox="0 0 826 373" width="826px" zoomAndPan="magnify"><defs/><g><line style="stroke:#AAAAAA;stroke-width:1.0;" x1="6" x2="819" y1="8.5" y2="8.5"/><line style="stroke:#AAAAAA;stroke-width:1.0;" x1="6" x2="819" y1="10.5" y2="10.5"/><text fill="#000000" font-family="sans-serif" font-size="12" font-weight="bold" lengthAdjust="spacing" textLength="136" x="6" y="26.457">GIPF - CONVOCATORIAS</text><line style="stroke:#AAAAAA;stroke-width:1.0;" x1="6" x2="819" y1="33.5938" y2="33.5938"/><line style="stroke:#AAAAAA;stroke-width:1.0;" x1="6" x2="819" y1="35.5938" y2="35.5938"/><text fill="#000000" font-family="sans-serif" font-size="12" font-weight="bold" lengthAdjust="spacing" textLength="166" x="7" y="52.5508">Filtrar / buscar convocatorias</text><line style="stroke:#AAAAAA;stroke-width:1.0;" x1="7" x2="818" y1="60.6875" y2="60.6875"/><text fill="#000000" font-family="sans-serif" font-size="12" font-weight="bold" lengthAdjust="spacing" textLength="14" x="10" y="80.6445">ID:</text><rect fill="#EEEEEE" height="19.0938" rx="5" ry="5" style="stroke:#000000;stroke-width:2.5;" width="100" x="48.5" y="70.6875"/><text fill="#000000" font-family="sans-serif" font-size="12" lengthAdjust="spacing" textLength="3" x="97" y="85.1445">&#160;</text><text fill="#000000" font-family="sans-serif" font-size="12" font-weight="bold" lengthAdjust="spacing" textLength="34" x="10" y="106.7383">T&#237;tulo:</text><rect fill="#EEEEEE" height="19.0938" rx="5" ry="5" style="stroke:#000000;stroke-width:2.5;" width="244" x="48.5" y="96.7813"/><text fill="#000000" font-family="sans-serif" font-size="12" lengthAdjust="spacing" textLength="3" x="169" y="111.2383">&#160;</text><text fill="#000000" font-family="sans-serif" font-size="12" font-weight="bold" lengthAdjust="spacing" textLength="42" x="10" y="134.832">Estado:</text><text fill="#000000" font-family="sans-serif" font-size="12" lengthAdjust="spacing" textLength="35" x="86" y="135.832">Todos</text><line style="stroke:#000000;stroke-width:1.0;" x1="84" x2="127" y1="138.4688" y2="138.4688"/><line style="stroke:#000000;stroke-width:1.0;" x1="84" x2="84" y1="135.4688" y2="137.4688"/><line style="stroke:#000000;stroke-width:1.0;" x1="127" x2="127" y1="135.4688" y2="137.4688"/><text fill="#000000" font-family="sans-serif" font-size="12" lengthAdjust="spacing" textLength="38" x="134" y="135.832">Abierta</text><line style="stroke:#000000;stroke-width:1.0;" x1="132" x2="191" y1="138.4688" y2="138.4688"/><line style="stroke:#000000;stroke-width:1.0;" x1="132" x2="132" y1="135.4688" y2="137.4688"/><line style="stroke:#000000;stroke-width:1.0;" x1="191" x2="191" y1="135.4688" y2="137.4688"/><text fill="#000000" font-family="sans-serif" font-size="12" lengthAdjust="spacing" textLength="45" x="198" y="135.832">Cerrada</text><line style="stroke:#000000;stroke-width:1.0;" x1="196" x2="255" y1="138.4688" y2="138.4688"/><line style="stroke:#000000;stroke-width:1.0;" x1="196" x2="196" y1="135.4688" y2="137.4688"/><line style="stroke:#000000;stroke-width:1.0;" x1="255" x2="255" y1="135.4688" y2="137.4688"/><text fill="#000000" font-family="sans-serif" font-size="12" lengthAdjust="spacing" textLength="77" x="262" y="135.832">En evaluaci&#243;n</text><line style="stroke:#000000;stroke-width:1.0;" x1="260" x2="367" y1="138.4688" y2="138.4688"/><line style="stroke:#000000;stroke-width:1.0;" x1="260" x2="260" y1="135.4688" y2="137.4688"/><line style="stroke:#000000;stroke-width:1.0;" x1="367" x2="367" y1="135.4688" y2="137.4688"/><text fill="#000000" font-family="sans-serif" font-size="12" lengthAdjust="spacing" textLength="50" x="374" y="135.832">Resuelta</text><line style="stroke:#000000;stroke-width:1.0;" x1="372" x2="439" y1="138.4688" y2="138.4688"/><line style="stroke:#000000;stroke-width:1.0;" x1="372" x2="372" y1="135.4688" y2="137.4688"/><line style="stroke:#000000;stroke-width:1.0;" x1="439" x2="439" y1="135.4688" y2="137.4688"/><text fill="#000000" font-family="sans-serif" font-size="12" font-weight="bold" lengthAdjust="spacing" textLength="70" x="10" y="155.9258">Fecha inicio:</text><rect fill="#EEEEEE" height="19.0938" rx="5" ry="5" style="stroke:#000000;stroke-width:2.5;" width="100" x="84.5" y="145.9688"/><text fill="#000000" font-family="sans-serif" font-size="12" lengthAdjust="spacing" textLength="3" x="133" y="160.4258">&#160;</text><text fill="#000000" font-family="sans-serif" font-size="12" font-weight="bold" lengthAdjust="spacing" textLength="54" x="10" y="184.0195">Fecha fin:</text><rect fill="#EEEEEE" height="19.0938" rx="5" ry="5" style="stroke:#000000;stroke-width:2.5;" width="100" x="68.5" y="174.0625"/><text fill="#000000" font-family="sans-serif" font-size="12" lengthAdjust="spacing" textLength="3" x="117" y="188.5195">&#160;</text><text fill="#000000" font-family="sans-serif" font-size="12" font-weight="bold" lengthAdjust="spacing" textLength="3" x="10" y="210.1133">&#160;</text><text fill="#000000" font-family="sans-serif" font-size="12" lengthAdjust="spacing" textLength="3" x="69" y="210.1133">&#160;</text><line style="stroke:#000000;stroke-width:1.0;" x1="67" x2="78" y1="212.75" y2="212.75"/><line style="stroke:#000000;stroke-width:1.0;" x1="67" x2="67" y1="209.75" y2="211.75"/><line style="stroke:#000000;stroke-width:1.0;" x1="78" x2="78" y1="209.75" y2="211.75"/><line style="stroke:#AAAAAA;stroke-width:1.5;" x1="7" x2="818" y1="223.25" y2="223.25"/><text fill="#000000" font-family="sans-serif" font-size="12" font-weight="bold" lengthAdjust="spacing" textLength="143" x="7" y="240.207">Listado de convocatorias</text><line style="stroke:#AAAAAA;stroke-width:1.0;" x1="7" x2="818" y1="248.3438" y2="248.3438"/><text fill="#000000" font-family="sans-serif" font-size="12" font-weight="bold" lengthAdjust="spacing" textLength="11" x="9" y="267.3008">ID</text><text fill="#000000" font-family="sans-serif" font-size="12" font-weight="bold" lengthAdjust="spacing" textLength="31" x="22" y="267.3008">T&#237;tulo</text><text fill="#000000" font-family="sans-serif" font-size="12" font-weight="bold" lengthAdjust="spacing" textLength="39" x="55" y="267.3008">Estado</text><text fill="#000000" font-family="sans-serif" font-size="12" font-weight="bold" lengthAdjust="spacing" textLength="30" x="96" y="267.3008">Inicio</text><text fill="#000000" font-family="sans-serif" font-size="12" font-weight="bold" lengthAdjust="spacing" textLength="16" x="128" y="267.3008">Fin</text><text fill="#000000" font-family="sans-serif" font-size="12" font-weight="bold" lengthAdjust="spacing" textLength="68" x="146" y="267.3008">Descripci&#243;n</text><text fill="#000000" font-family="sans-serif" font-size="12" lengthAdjust="spacing" textLength="59" x="12" y="286.3945">CONV-021</text><line style="stroke:#000000;stroke-width:1.0;" x1="10" x2="77" y1="289.0313" y2="289.0313"/><line style="stroke:#000000;stroke-width:1.0;" x1="10" x2="10" y1="286.0313" y2="288.0313"/><line style="stroke:#000000;stroke-width:1.0;" x1="77" x2="77" y1="286.0313" y2="288.0313"/><text fill="#000000" font-family="sans-serif" font-size="12" lengthAdjust="spacing" textLength="160" x="84" y="286.3945">Convocatoria Proyectos 2025</text><line style="stroke:#000000;stroke-width:1.0;" x1="82" x2="301" y1="289.0313" y2="289.0313"/><line style="stroke:#000000;stroke-width:1.0;" x1="82" x2="82" y1="286.0313" y2="288.0313"/><line style="stroke:#000000;stroke-width:1.0;" x1="301" x2="301" y1="286.0313" y2="288.0313"/><text fill="#000000" font-family="sans-serif" font-size="12" lengthAdjust="spacing" textLength="38" x="308" y="286.3945">Abierta</text><line style="stroke:#000000;stroke-width:1.0;" x1="306" x2="365" y1="289.0313" y2="289.0313"/><line style="stroke:#000000;stroke-width:1.0;" x1="306" x2="306" y1="286.0313" y2="288.0313"/><line style="stroke:#000000;stroke-width:1.0;" x1="365" x2="365" y1="286.0313" y2="288.0313"/><text fill="#000000" font-family="sans-serif" font-size="12" lengthAdjust="spacing" textLength="64" x="372" y="286.3945">01-02-2025</text><line style="stroke:#000000;stroke-width:1.0;" x1="370" x2="453" y1="289.0313" y2="289.0313"/><line style="stroke:#000000;stroke-width:1.0;" x1="370" x2="370" y1="286.0313" y2="288.0313"/><line style="stroke:#000000;stroke-width:1.0;" x1="453" x2="453" y1="286.0313" y2="288.0313"/><text fill="#000000" font-family="sans-serif" font-size="12" lengthAdjust="spacing" textLength="64" x="460" y="286.3945">31-03-2025</text><line style="stroke:#000000;stroke-width:1.0;" x1="458" x2="541" y1="289.0313" y2="289.0313"/><line style="stroke:#000000;stroke-width:1.0;" x1="458" x2="458" y1="286.0313" y2="288.0313"/><line style="stroke:#000000;stroke-width:1.0;" x1="541" x2="541" y1="286.0313" y2="288.0313"/><text fill="#000000" font-family="sans-serif" font-size="12" lengthAdjust="spacing" textLength="163" x="548" y="286.3945">Financiaci&#243;n para proyectos...</text><line style="stroke:#000000;stroke-width:1.0;" x1="546" x2="789" y1="289.0313" y2="289.0313"/><line style="stroke:#000000;stroke-width:1.0;" x1="546" x2="546" y1="286.0313" y2="288.0313"/><line style="stroke:#000000;stroke-width:1.0;" x1="789" x2="789" y1="286.0313" y2="288.0313"/><text fill="#000000" font-family="sans-serif" font-size="12" lengthAdjust="spacing" textLength="59" x="12" y="307.4883">CONV-018</text><line style="stroke:#000000;stroke-width:1.0;" x1="10" x2="77" y1="310.125" y2="310.125"/><line style="stroke:#000000;stroke-width:1.0;" x1="10" x2="10" y1="307.125" y2="309.125"/><line style="stroke:#000000;stroke-width:1.0;" x1="77" x2="77" y1="307.125" y2="309.125"/><text fill="#000000" font-family="sans-serif" font-size="12" lengthAdjust="spacing" textLength="183" x="84" y="307.4883">Ayudas a movilidad investigadora</text><line style="stroke:#000000;stroke-width:1.0;" x1="82" x2="341" y1="310.125" y2="310.125"/><line style="stroke:#000000;stroke-width:1.0;" x1="82" x2="82" y1="307.125" y2="309.125"/><line style="stroke:#000000;stroke-width:1.0;" x1="341" x2="341" y1="307.125" y2="309.125"/><text fill="#000000" font-family="sans-serif" font-size="12" lengthAdjust="spacing" textLength="77" x="348" y="307.4883">En evaluaci&#243;n</text><line style="stroke:#000000;stroke-width:1.0;" x1="346" x2="453" y1="310.125" y2="310.125"/><line style="stroke:#000000;stroke-width:1.0;" x1="346" x2="346" y1="307.125" y2="309.125"/><line style="stroke:#000000;stroke-width:1.0;" x1="453" x2="453" y1="307.125" y2="309.125"/><text fill="#000000" font-family="sans-serif" font-size="12" lengthAdjust="spacing" textLength="64" x="460" y="307.4883">10-10-2024</text><line style="stroke:#000000;stroke-width:1.0;" x1="458" x2="541" y1="310.125" y2="310.125"/><line style="stroke:#000000;stroke-width:1.0;" x1="458" x2="458" y1="307.125" y2="309.125"/><line style="stroke:#000000;stroke-width:1.0;" x1="541" x2="541" y1="307.125" y2="309.125"/><text fill="#000000" font-family="sans-serif" font-size="12" lengthAdjust="spacing" textLength="64" x="548" y="307.4883">15-11-2024</text><line style="stroke:#000000;stroke-width:1.0;" x1="546" x2="629" y1="310.125" y2="310.125"/><line style="stroke:#000000;stroke-width:1.0;" x1="546" x2="546" y1="307.125" y2="309.125"/><line style="stroke:#000000;stroke-width:1.0;" x1="629" x2="629" y1="307.125" y2="309.125"/><text fill="#000000" font-family="sans-serif" font-size="12" lengthAdjust="spacing" textLength="117" x="636" y="307.4883">Apoyo a estancias y...</text><line style="stroke:#000000;stroke-width:1.0;" x1="634" x2="813" y1="310.125" y2="310.125"/><line style="stroke:#000000;stroke-width:1.0;" x1="634" x2="634" y1="307.125" y2="309.125"/><line style="stroke:#000000;stroke-width:1.0;" x1="813" x2="813" y1="307.125" y2="309.125"/><text fill="#000000" font-family="sans-serif" font-size="12" lengthAdjust="spacing" textLength="59" x="12" y="328.582">CONV-015</text><line style="stroke:#000000;stroke-width:1.0;" x1="10" x2="77" y1="331.2188" y2="331.2188"/><line style="stroke:#000000;stroke-width:1.0;" x1="10" x2="10" y1="328.2188" y2="330.2188"/><line style="stroke:#000000;stroke-width:1.0;" x1="77" x2="77" y1="328.2188" y2="330.2188"/><text fill="#000000" font-family="sans-serif" font-size="12" lengthAdjust="spacing" textLength="137" x="84" y="328.582">Innovaci&#243;n docente 2024</text><line style="stroke:#000000;stroke-width:1.0;" x1="82" x2="269" y1="331.2188" y2="331.2188"/><line style="stroke:#000000;stroke-width:1.0;" x1="82" x2="82" y1="328.2188" y2="330.2188"/><line style="stroke:#000000;stroke-width:1.0;" x1="269" x2="269" y1="328.2188" y2="330.2188"/><text fill="#000000" font-family="sans-serif" font-size="12" lengthAdjust="spacing" textLength="50" x="276" y="328.582">Resuelta</text><line style="stroke:#000000;stroke-width:1.0;" x1="274" x2="341" y1="331.2188" y2="331.2188"/><line style="stroke:#000000;stroke-width:1.0;" x1="274" x2="274" y1="328.2188" y2="330.2188"/><line style="stroke:#000000;stroke-width:1.0;" x1="341" x2="341" y1="328.2188" y2="330.2188"/><text fill="#000000" font-family="sans-serif" font-size="12" lengthAdjust="spacing" textLength="64" x="348" y="328.582">01-03-2024</text><line style="stroke:#000000;stroke-width:1.0;" x1="346" x2="429" y1="331.2188" y2="331.2188"/><line style="stroke:#000000;stroke-width:1.0;" x1="346" x2="346" y1="328.2188" y2="330.2188"/><line style="stroke:#000000;stroke-width:1.0;" x1="429" x2="429" y1="328.2188" y2="330.2188"/><text fill="#000000" font-family="sans-serif" font-size="12" lengthAdjust="spacing" textLength="64" x="436" y="328.582">30-04-2024</text><line style="stroke:#000000;stroke-width:1.0;" x1="434" x2="517" y1="331.2188" y2="331.2188"/><line style="stroke:#000000;stroke-width:1.0;" x1="434" x2="434" y1="328.2188" y2="330.2188"/><line style="stroke:#000000;stroke-width:1.0;" x1="517" x2="517" y1="328.2188" y2="330.2188"/><text fill="#000000" font-family="sans-serif" font-size="12" lengthAdjust="spacing" textLength="109" x="524" y="328.582">Convocatoria para...</text><line style="stroke:#000000;stroke-width:1.0;" x1="522" x2="685" y1="331.2188" y2="331.2188"/><line style="stroke:#000000;stroke-width:1.0;" x1="522" x2="522" y1="328.2188" y2="330.2188"/><line style="stroke:#000000;stroke-width:1.0;" x1="685" x2="685" y1="328.2188" y2="330.2188"/><line style="stroke:#AAAAAA;stroke-width:1.5;" x1="7" x2="818" y1="340.7188" y2="340.7188"/><rect fill="#EEEEEE" height="19.0938" rx="5" ry="5" style="stroke:#000000;stroke-width:2.5;" width="124" x="10.5" y="348.7188"/><text fill="#000000" font-family="sans-serif" font-size="12" lengthAdjust="spacing" textLength="70" x="37.5" y="363.1758">Aplicar filtros</text><rect fill="#EEEEEE" height="19.0938" rx="5" ry="5" style="stroke:#000000;stroke-width:2.5;" width="124" x="141.5" y="348.7188"/><text fill="#000000" font-family="sans-serif" font-size="12" lengthAdjust="spacing" textLength="75" x="166" y="363.1758">Limpiar filtros</text><rect fill="#EEEEEE" height="19.0938" rx="5" ry="5" style="stroke:#000000;stroke-width:2.5;" width="148" x="272.5" y="348.7188"/><text fill="#000000" font-family="sans-serif" font-size="12" lengthAdjust="spacing" textLength="97" x="298" y="363.1758">Abrir convocatoria</text><rect fill="#EEEEEE" height="19.0938" rx="5" ry="5" style="stroke:#000000;stroke-width:2.5;" width="52" x="427.5" y="348.7188"/><text fill="#000000" font-family="sans-serif" font-size="12" lengthAdjust="spacing" textLength="33" x="437" y="363.1758">Volver</text><!--SRC=[dLJDRjf04BxlKumu9GSJcvygij8eb9-850fA29U8mzfUo4XcrzfTkqA4l55FVOIyMDSsOI6GgkhAXvdn_7pppMXkbAPIAnfhe854sHOy4o7LGY9rVg9aSqcNZAm9cFVLl4Au2gvl- -CUED0U_PYEsgt9wBxVUhYw2AuF7SkuRKWFOosfX0i8KXKQ8TmhfdR1-NESdMXJdD1Crdx7pqFX1PxsVyqE78tVvEsNJcDnqldupJRag5BNS1Nj4goXCX6HK1KZLre1Cgbf8RUPb3GgvIu7bj4ufI6-_UQ5wPwfbCMvx-OZn1uBdoaWnn1Fupo5gWoQ8_yt6c3hLO6F0AosL-NrbUoFS8051n2n_nfUCQuj03iIQoWPjdg_eCBgFUHMwJ0LIamAPdFhOJVhIhwQZblpog7ieOMn52iMQg6WvjQQHmDqFHFcx7xLZLgtgi50UOZbH26XaaBodgzQhLPEm_0kopAhDA8AA2n5XZ56D3BZpfZIk32Doq-NndCTynaCZL9jEfvdrLOYLi8aDNaAQ0fMVq5Ijj7dN6JR9Y8HCguPx1BQ7TtIKRV5wgxZDgnwG6pEnc7bJrPf_THAOinlm3m_2aBDyiKTu3B13xPMVfKEbgqmJqMSCJah2st8Xjmm7kLdZ91nJBb-70x0E2WK7BngZhPQFviyfz1Z0NXDqwhVS7st2UtkfEZxd9pTZWTP3PH8PSWWCfikCKYroN1ExcX6uJxb6fVCXr72-5td-xi1kZn3AVZIa4ZkfaFhyANXV4CD3qmQB30TaWwRqzJSsYuFHOHyuSFZfETSaW7bYvGkJ6wcI5kOl7BbG_VX3m00]--></g></svg>