<svg xmlns="http://www.w3.org/2000/svg" xmlns:xlink="http://www.w3.org/1999/xlink" contentStyleType="text/css" data-diagram-type="STATE" height="620px" preserveAspectRatio="none" style="width:626px;height:620px;background:#FFFFFF;" version="1.1" viewBox="0 0 626 620" width="626px" zoomAndPan="magnify"><defs/><g><path d="M19.5,7 L550.5,7 A12.5,12.5 0 0 1 563,19.5 L563,33.2969 L7,33.2969 L7,19.5 A12.5,12.5 0 0 1 19.5,7" fill="#F1F1F1"/><rect fill="none" height="462.2969" rx="12.5" ry="12.5" style="stroke:#181818;stroke-width:0.5;" width="556" x="7" y="7"/><line style="stroke:#181818;stroke-width:0.5;" x1="7" x2="563" y1="33.2969" y2="33.2969"/><text fill="#000000" font-family="sans-serif" font-size="14" lengthAdjust="spacing" textLength="139.043" x="215.4785" y="24.9951">abrirMiPublicacion()</text><g id="abrirMiPublicacion.MostrandoMiPublicacion"><rect fill="#F1F1F1" height="50" rx="12.5" ry="12.5" style="stroke:#181818;stroke-width:0.5;" width="50" x="19" y="135.2969"/><line style="stroke:#181818;stroke-width:0.5;" x1="19" x2="69" y1="161.5938" y2="161.5938"/><text fill="#000000" font-family="sans-serif" font-size="14" lengthAdjust="spacing" textLength="4.4502" x="41.7749" y="153.292">&#160;</text></g><g id="abrirMiPublicacion.OpcionSelecionada"><rect fill="#F1F1F1" height="50" rx="12.5" ry="12.5" style="stroke:#181818;stroke-width:0.5;" width="50" x="19" y="316.2969"/><line style="stroke:#181818;stroke-width:0.5;" x1="19" x2="69" y1="342.5938" y2="342.5938"/><text fill="#000000" font-family="sans-serif" font-size="14" lengthAdjust="spacing" textLength="4.4502" x="41.7749" y="334.292">&#160;</text></g><ellipse cx="44" cy="54.2969" fill="#222222" rx="10" ry="10" style="stroke:#222222;stroke-width:1;"/><ellipse cx="44" cy="448.2969" fill="none" rx="11" ry="11" style="stroke:#222222;stroke-width:1;"/><ellipse cx="44" cy="448.2969" fill="#222222" rx="6" ry="6" style="stroke:#222222;stroke-width:1;"/><!--link *start*abrirMiPublicacion to MostrandoMiPublicacion--><g class="link" data-entity-1=".start.abrirMiPublicacion" data-entity-2="MostrandoMiPublicacion" data-source-line="8" data-uid="lnk3" id="link_.start.abrirMiPublicacion_MostrandoMiPublicacion"><path d="M44,64.5269 C44,80.2369 44,106.6569 44,129.1669" fill="none" id="*start*abrirMiPublicacion-to-MostrandoMiPublicacion" style="stroke:#008000;stroke-width:1;"/><polygon fill="#008000" points="44,135.1669,48,126.1669,44,130.1669,40,126.1669,44,135.1669" style="stroke:#008000;stroke-width:1;"/><path d="M49,87.2969 L49,112.2969 L344,112.2969 L344,97.2969 L334,87.2969 L49,87.2969" fill="#FEFFDD" style="stroke:#181818;stroke-width:0.5;"/><path d="M334,87.2969 L334,97.2969 L344,97.2969 L334,87.2969" fill="#FEFFDD" style="stroke:#181818;stroke-width:0.5;"/><text fill="#000000" font-family="sans-serif" font-size="13" font-weight="bold" lengthAdjust="spacing" textLength="92.5171" x="55" y="104.3638">Investigador</text><text fill="#000000" font-family="sans-serif" font-size="13" lengthAdjust="spacing" textLength="177.7344" x="151.6494" y="104.3638">solicita abrir su publicacion</text></g><!--link MostrandoMiPublicacion to OpcionSelecionada--><g class="link" data-entity-1="MostrandoMiPublicacion" data-entity-2="OpcionSelecionada" data-source-line="13" data-uid="lnk4" id="link_MostrandoMiPublicacion_OpcionSelecionada"><path d="M44,185.4369 C44,219.6969 44,276.0469 44,310.2569" fill="none" id="MostrandoMiPublicacion-to-OpcionSelecionada" style="stroke:#008000;stroke-width:1;"/><polygon fill="#008000" points="44,316.2569,48,307.2569,44,311.2569,40,307.2569,44,316.2569" style="stroke:#008000;stroke-width:1;"/><path d="M49,208.2969 L49,293.2969 L554,293.2969 L554,218.2969 L544,208.2969 L49,208.2969" fill="#FEFFDD" style="stroke:#181818;stroke-width:0.5;"/><path d="M544,208.2969 L544,218.2969 L554,218.2969 L544,208.2969" fill="#FEFFDD" style="stroke:#181818;stroke-width:0.5;"/><text fill="#000000" font-family="sans-serif" font-size="13" font-weight="bold" lengthAdjust="spacing" textLength="58.9063" x="55" y="225.3638">Sistema</text><text fill="#000000" font-family="sans-serif" font-size="13" lengthAdjust="spacing" textLength="260.4634" x="118.0386" y="225.3638">presenta la publicacion del investigador</text><text fill="#000000" font-family="sans-serif" font-size="13" lengthAdjust="spacing" textLength="364.8188" x="55" y="240.4966">&#8226; Titulo de publicacion, Descripcion, Respuestas hechas</text><text fill="#000000" font-family="sans-serif" font-size="13" lengthAdjust="spacing" textLength="268.6582" x="55" y="255.6294">&#8226; Permite solicitar eliminar la publicacion</text><text fill="#000000" font-family="sans-serif" font-size="13" lengthAdjust="spacing" textLength="484.6943" x="55" y="270.7622">&#8226; Permite solicitar abrir todas las publicaciones hechas por el investigador</text><text fill="#000000" font-family="sans-serif" font-size="13" lengthAdjust="spacing" textLength="253.8809" x="55" y="285.895">&#8226; Permite solicitar editar la publicacion</text></g><!--link OpcionSelecionada to *end*abrirMiPublicacion--><g class="link" data-entity-1="OpcionSelecionada" data-entity-2=".end.abrirMiPublicacion" data-source-line="22" data-uid="lnk6" id="link_OpcionSelecionada_.end.abrirMiPublicacion"><path d="M44,366.3869 C44,388.7869 44,415.0669 44,431.2469" fill="none" id="OpcionSelecionada-to-*end*abrirMiPublicacion" style="stroke:#008000;stroke-width:1;"/><polygon fill="#008000" points="44,437.2469,48,428.2469,44,432.2469,40,428.2469,44,437.2469" style="stroke:#008000;stroke-width:1;"/><path d="M49,389.2969 L49,414.2969 L345,414.2969 L345,399.2969 L335,389.2969 L49,389.2969" fill="#FEFFDD" style="stroke:#181818;stroke-width:0.5;"/><path d="M335,389.2969 L335,399.2969 L345,399.2969 L335,389.2969" fill="#FEFFDD" style="stroke:#181818;stroke-width:0.5;"/><text fill="#000000" font-family="sans-serif" font-size="13" font-weight="bold" lengthAdjust="spacing" textLength="92.5171" x="55" y="406.3638">Investigador</text><text fill="#000000" font-family="sans-serif" font-size="13" lengthAdjust="spacing" textLength="179.2769" x="151.6494" y="406.3638">solicita una de las opciones</text></g><g id="MIS_PUBLICACIONES_ABIERTAS"><rect fill="#F1F1F1" height="50" rx="12.5" ry="12.5" style="stroke:#181818;stroke-width:0.5;" width="240.6982" x="42.5" y="564"/><line style="stroke:#181818;stroke-width:0.5;" x1="42.5" x2="283.1982" y1="590.2969" y2="590.2969"/><text fill="#000000" font-family="sans-serif" font-size="14" lengthAdjust="spacing" textLength="220.6982" x="52.5" y="581.9951">MIS_PUBLICACIONES_ABIERTAS</text></g><g id="MI_PUBLICACION_ABIERTA"><rect fill="#F1F1F1" height="50" rx="12.5" ry="12.5" style="stroke:#181818;stroke-width:0.5;" width="205.1924" x="403.5" y="564"/><line style="stroke:#181818;stroke-width:0.5;" x1="403.5" x2="608.6924" y1="590.2969" y2="590.2969"/><text fill="#000000" font-family="sans-serif" font-size="14" lengthAdjust="spacing" textLength="185.1924" x="413.5" y="581.9951">MI_PUBLICACION_ABIERTA</text></g><!--link abrirMiPublicacion to MIS_PUBLICACIONES_ABIERTAS--><g class="link" data-entity-1="abrirMiPublicacion" data-entity-2="MIS_PUBLICACIONES_ABIERTAS" data-source-line="28" data-uid="lnk8" id="link_abrirMiPublicacion_MIS_PUBLICACIONES_ABIERTAS"><path d="M99.09,469.17 C84.34,487.43 75,499 75,499 C75,499 75,534 75,534 C75,534 95.0853,546.3331 118.5153,560.7031" fill="none" id="abrirMiPublicacion-to-MIS_PUBLICACIONES_ABIERTAS" style="stroke:#008000;stroke-width:1;"/><polygon fill="#008000" points="123.63,563.84,118.0493,555.7249,119.3678,561.2259,113.8667,562.5444,123.63,563.84" style="stroke:#008000;stroke-width:1;"/><path d="M80,504 L80,529 L237,529 L237,514 L227,504 L80,504" fill="#FEFFDD" style="stroke:#181818;stroke-width:0.5;"/><path d="M227,504 L227,514 L237,514 L227,504" fill="#FEFFDD" style="stroke:#181818;stroke-width:0.5;"/><text fill="#000000" font-family="sans-serif" font-size="13" lengthAdjust="spacing" textLength="136.811" x="86" y="521.0669">eliminarPublicacion()</text></g><!--link abrirMiPublicacion to MIS_PUBLICACIONES_ABIERTAS--><g class="link" data-entity-1="abrirMiPublicacion" data-entity-2="MIS_PUBLICACIONES_ABIERTAS" data-source-line="33" data-uid="lnk9" id="link_abrirMiPublicacion_MIS_PUBLICACIONES_ABIERTAS"><path d="M254.56,469.26 C249.57,506.96 246,534 246,534 C246,534 227.2601,546.1993 205.1601,560.5693" fill="none" id="abrirMiPublicacion-to-MIS_PUBLICACIONES_ABIERTAS-1" style="stroke:#008000;stroke-width:1;"/><polygon fill="#008000" points="200.13,563.84,209.8557,562.2873,204.3218,561.1144,205.4947,555.5805,200.13,563.84" style="stroke:#008000;stroke-width:1;"/><path d="M255,504 L255,529 L426,529 L426,514 L416,504 L255,504" fill="#FEFFDD" style="stroke:#181818;stroke-width:0.5;"/><path d="M416,504 L416,514 L426,514 L416,504" fill="#FEFFDD" style="stroke:#181818;stroke-width:0.5;"/><text fill="#000000" font-family="sans-serif" font-size="13" lengthAdjust="spacing" textLength="150.6553" x="261" y="521.0669">abrirMisPublicaciones()</text></g><!--link abrirMiPublicacion to MI_PUBLICACION_ABIERTA--><g class="link" data-entity-1="abrirMiPublicacion" data-entity-2="MI_PUBLICACION_ABIERTA" data-source-line="38" data-uid="lnk11" id="link_abrirMiPublicacion_MI_PUBLICACION_ABIERTA"><path d="M430.87,469.36 C455.2,507.77 473.7484,537.0819 487.5184,558.8119" fill="none" id="abrirMiPublicacion-to-MI_PUBLICACION_ABIERTA" style="stroke:#008000;stroke-width:1;"/><polygon fill="#008000" points="490.73,563.88,489.2914,554.1368,488.0537,559.6566,482.5339,558.4189,490.73,563.88" style="stroke:#008000;stroke-width:1;"/><path d="M473,504 L473,529 L619,529 L619,514 L609,504 L473,504" fill="#FEFFDD" style="stroke:#181818;stroke-width:0.5;"/><path d="M609,504 L609,514 L619,514 L609,504" fill="#FEFFDD" style="stroke:#181818;stroke-width:0.5;"/><text fill="#000000" font-family="sans-serif" font-size="13" lengthAdjust="spacing" textLength="125.6455" x="479" y="521.0669">editarPublicacionl()</text></g><!--SRC=[hLFTIiCm5BxFKnpcZOh35nY3JNTHS6wiysgCaQs7BInDGf8AGmIVnKVpIJnjxKpNJb1CQTCavtpVTtxYza8PRdaAKYZq1uDWj3pa2yQSvnw1hwsmOp7Drb9i-4Pe1Tn1fxbzUTM15yQ0HkdPeOTCnzfvorMYQzPDkud9zsEKcCyyuINMude9tSN5rYAgPRT_1WuAMwK9ZXQaVrzizDRzI3sZysBB4srxj-i-E4rEmlCoCd0Pc1DPg98IYWOxViuGXzgQ8PnJ5GldCUM586FHeI91aeTI84498b1V-7wylSDS-4ngEW_DR-0UtSOAKovcw4n6hfJO7Mvst1szfsXJGOggF5X0ALAXwASku0UFCdLU9mGlwGsyi2AaJigXsqDe4P4KKuk4gXpVfMZakLO5wfW_T4EcU9xHF1fjoa3gxA-CjTo5Mcj6yMhwD7o8xWPtqUHn5Ay6msWqcmzYLjDIvRjsUTYHwBzelc3SD2pExuX2dehb99QYR06231W-0G00]--></g></svg>