<svg xmlns="http://www.w3.org/2000/svg" xmlns:xlink="http://www.w3.org/1999/xlink" contentStyleType="text/css" data-diagram-type="STATE" height="605px" preserveAspectRatio="none" style="width:540px;height:605px;background:#FFFFFF;" version="1.1" viewBox="0 0 540 605" width="540px" zoomAndPan="magnify"><defs/><g><path d="M21,7 L432,7 A12.5,12.5 0 0 1 444.5,19.5 L444.5,33.2969 L8.5,33.2969 L8.5,19.5 A12.5,12.5 0 0 1 21,7" fill="#F1F1F1"/><rect fill="none" height="447.2969" rx="12.5" ry="12.5" style="stroke:#181818;stroke-width:0.5;" width="436" x="8.5" y="7"/><line style="stroke:#181818;stroke-width:0.5;" x1="8.5" x2="444.5" y1="33.2969" y2="33.2969"/><text fill="#000000" font-family="sans-serif" font-size="14" lengthAdjust="spacing" textLength="123.0742" x="164.9629" y="24.9951">abrirPublicacion()</text><g id="abrirPublicacion.MostrandoPublicacion"><rect fill="#F1F1F1" height="50" rx="12.5" ry="12.5" style="stroke:#181818;stroke-width:0.5;" width="50" x="20.5" y="135.2969"/><line style="stroke:#181818;stroke-width:0.5;" x1="20.5" x2="70.5" y1="161.5938" y2="161.5938"/><text fill="#000000" font-family="sans-serif" font-size="14" lengthAdjust="spacing" textLength="4.4502" x="43.2749" y="153.292">&#160;</text></g><g id="abrirPublicacion.OpcionSelecionada"><rect fill="#F1F1F1" height="50" rx="12.5" ry="12.5" style="stroke:#181818;stroke-width:0.5;" width="50" x="20.5" y="301.2969"/><line style="stroke:#181818;stroke-width:0.5;" x1="20.5" x2="70.5" y1="327.5938" y2="327.5938"/><text fill="#000000" font-family="sans-serif" font-size="14" lengthAdjust="spacing" textLength="4.4502" x="43.2749" y="319.292">&#160;</text></g><ellipse cx="45.5" cy="54.2969" fill="#222222" rx="10" ry="10" style="stroke:#222222;stroke-width:1;"/><ellipse cx="45.5" cy="433.2969" fill="none" rx="11" ry="11" style="stroke:#222222;stroke-width:1;"/><ellipse cx="45.5" cy="433.2969" fill="#222222" rx="6" ry="6" style="stroke:#222222;stroke-width:1;"/><!--link *start*abrirPublicacion to MostrandoPublicacion--><g class="link" data-entity-1=".start.abrirPublicacion" data-entity-2="MostrandoPublicacion" data-source-line="8" data-uid="lnk3" id="link_.start.abrirPublicacion_MostrandoPublicacion"><path d="M45.5,64.5269 C45.5,80.2369 45.5,106.6569 45.5,129.1669" fill="none" id="*start*abrirPublicacion-to-MostrandoPublicacion" style="stroke:#008000;stroke-width:1;"/><polygon fill="#008000" points="45.5,135.1669,49.5,126.1669,45.5,130.1669,41.5,126.1669,45.5,135.1669" style="stroke:#008000;stroke-width:1;"/><path d="M50.5,87.2969 L50.5,112.2969 L354.5,112.2969 L354.5,97.2969 L344.5,87.2969 L50.5,87.2969" fill="#FEFFDD" style="stroke:#181818;stroke-width:0.5;"/><path d="M344.5,87.2969 L344.5,97.2969 L354.5,97.2969 L344.5,87.2969" fill="#FEFFDD" style="stroke:#181818;stroke-width:0.5;"/><text fill="#000000" font-family="sans-serif" font-size="13" font-weight="bold" lengthAdjust="spacing" textLength="92.5171" x="56.5" y="104.3638">Investigador</text><text fill="#000000" font-family="sans-serif" font-size="13" lengthAdjust="spacing" textLength="187.167" x="153.1494" y="104.3638">solicita abrir una publicacion</text></g><!--link MostrandoPublicacion to OpcionSelecionada--><g class="link" data-entity-1="MostrandoPublicacion" data-entity-2="OpcionSelecionada" data-source-line="13" data-uid="lnk4" id="link_MostrandoPublicacion_OpcionSelecionada"><path d="M45.5,185.4969 C45.5,216.5869 45.5,264.2469 45.5,295.2669" fill="none" id="MostrandoPublicacion-to-OpcionSelecionada" style="stroke:#008000;stroke-width:1;"/><polygon fill="#008000" points="45.5,301.2669,49.5,292.2669,45.5,296.2669,41.5,292.2669,45.5,301.2669" style="stroke:#008000;stroke-width:1;"/><path d="M50.5,208.2969 L50.5,278.2969 L435.5,278.2969 L435.5,218.2969 L425.5,208.2969 L50.5,208.2969" fill="#FEFFDD" style="stroke:#181818;stroke-width:0.5;"/><path d="M425.5,208.2969 L425.5,218.2969 L435.5,218.2969 L425.5,208.2969" fill="#FEFFDD" style="stroke:#181818;stroke-width:0.5;"/><text fill="#000000" font-family="sans-serif" font-size="13" font-weight="bold" lengthAdjust="spacing" textLength="58.9063" x="56.5" y="225.3638">Sistema</text><text fill="#000000" font-family="sans-serif" font-size="13" lengthAdjust="spacing" textLength="151.5439" x="119.5386" y="225.3638">presenta la publicacion</text><text fill="#000000" font-family="sans-serif" font-size="13" lengthAdjust="spacing" textLength="364.8188" x="56.5" y="240.4966">&#8226; Titulo de publicacion, Descripcion, Respuestas hechas</text><text fill="#000000" font-family="sans-serif" font-size="13" lengthAdjust="spacing" textLength="307.8486" x="56.5" y="255.6294">&#8226; Permite solicitar abrir todas las publicaciones</text><text fill="#000000" font-family="sans-serif" font-size="13" lengthAdjust="spacing" textLength="358.6616" x="56.5" y="270.7622">&#8226; Permite solicitar crear una respuesta a la publicacion</text></g><!--link OpcionSelecionada to *end*abrirPublicacion--><g class="link" data-entity-1="OpcionSelecionada" data-entity-2=".end.abrirPublicacion" data-source-line="21" data-uid="lnk6" id="link_OpcionSelecionada_.end.abrirPublicacion"><path d="M45.5,351.3869 C45.5,373.7869 45.5,400.0669 45.5,416.2469" fill="none" id="OpcionSelecionada-to-*end*abrirPublicacion" style="stroke:#008000;stroke-width:1;"/><polygon fill="#008000" points="45.5,422.2469,49.5,413.2469,45.5,417.2469,41.5,413.2469,45.5,422.2469" style="stroke:#008000;stroke-width:1;"/><path d="M50.5,374.2969 L50.5,399.2969 L346.5,399.2969 L346.5,384.2969 L336.5,374.2969 L50.5,374.2969" fill="#FEFFDD" style="stroke:#181818;stroke-width:0.5;"/><path d="M336.5,374.2969 L336.5,384.2969 L346.5,384.2969 L336.5,374.2969" fill="#FEFFDD" style="stroke:#181818;stroke-width:0.5;"/><text fill="#000000" font-family="sans-serif" font-size="13" font-weight="bold" lengthAdjust="spacing" textLength="92.5171" x="56.5" y="391.3638">Investigador</text><text fill="#000000" font-family="sans-serif" font-size="13" lengthAdjust="spacing" textLength="179.2769" x="153.1494" y="391.3638">solicita una de las opciones</text></g><g id="PUBLICACIONES_ABIERTAS"><rect fill="#F1F1F1" height="50" rx="12.5" ry="12.5" style="stroke:#181818;stroke-width:0.5;" width="208.6035" x="7" y="549"/><line style="stroke:#181818;stroke-width:0.5;" x1="7" x2="215.6035" y1="575.2969" y2="575.2969"/><text fill="#000000" font-family="sans-serif" font-size="14" lengthAdjust="spacing" textLength="188.6035" x="17" y="566.9951">PUBLICACIONES_ABIERTAS</text></g><g id="PUBLICACION_ABIERTA"><rect fill="#F1F1F1" height="50" rx="12.5" ry="12.5" style="stroke:#181818;stroke-width:0.5;" width="181.9844" x="251.5" y="549"/><line style="stroke:#181818;stroke-width:0.5;" x1="251.5" x2="433.4844" y1="575.2969" y2="575.2969"/><text fill="#000000" font-family="sans-serif" font-size="14" lengthAdjust="spacing" textLength="161.9844" x="261.5" y="566.9951">PUBLICACION_ABIERTA</text></g><!--link abrirPublicacion to PUBLICACIONES_ABIERTAS--><g class="link" data-entity-1="abrirPublicacion" data-entity-2="PUBLICACIONES_ABIERTAS" data-source-line="27" data-uid="lnk8" id="link_abrirPublicacion_PUBLICACIONES_ABIERTAS"><path d="M149.82,454.04 C143.52,472.35 139.5,484 139.5,484 C139.5,484 129.2407,516.6066 120.9507,542.9566" fill="none" id="abrirPublicacion-to-PUBLICACIONES_ABIERTAS" style="stroke:#008000;stroke-width:1;"/><polygon fill="#008000" points="119.15,548.68,125.6666,541.2953,120.6505,543.9105,118.0354,538.8944,119.15,548.68" style="stroke:#008000;stroke-width:1;"/><path d="M144.5,489 L144.5,514 L294.5,514 L294.5,499 L284.5,489 L144.5,489" fill="#FEFFDD" style="stroke:#181818;stroke-width:0.5;"/><path d="M284.5,489 L284.5,499 L294.5,499 L284.5,489" fill="#FEFFDD" style="stroke:#181818;stroke-width:0.5;"/><text fill="#000000" font-family="sans-serif" font-size="13" lengthAdjust="spacing" textLength="129.0542" x="150.5" y="506.0669">abrirPublicaciones()</text></g><!--link abrirPublicacion to PUBLICACION_ABIERTA--><g class="link" data-entity-1="abrirPublicacion" data-entity-2="PUBLICACION_ABIERTA" data-source-line="32" data-uid="lnk10" id="link_abrirPublicacion_PUBLICACION_ABIERTA"><path d="M302.09,454.04 C315.12,492.39 324.9107,521.1987 332.3307,543.0487" fill="none" id="abrirPublicacion-to-PUBLICACION_ABIERTA" style="stroke:#008000;stroke-width:1;"/><polygon fill="#008000" points="334.26,548.73,335.1536,538.9218,332.6522,543.9955,327.5785,541.4942,334.26,548.73" style="stroke:#008000;stroke-width:1;"/><path d="M327.5,489 L327.5,514 L533.5,514 L533.5,499 L523.5,489 L327.5,489" fill="#FEFFDD" style="stroke:#181818;stroke-width:0.5;"/><path d="M523.5,489 L523.5,499 L533.5,499 L523.5,489" fill="#FEFFDD" style="stroke:#181818;stroke-width:0.5;"/><text fill="#000000" font-family="sans-serif" font-size="13" lengthAdjust="spacing" textLength="185.6943" x="333.5" y="506.0669">crearRespuestaPublicacion()</text></g><!--SRC=[dPFXIiCm4CU_vocE-MKJXoym1flkGq7TMEUdCUJQ7bjObuGa5OO8FekFvfDuRMrjrobYIbkItFtlT_-qRY-LGOi7IAKYVpG4HgV7V2A4y-W9CBBIBh8ebJ76KYj01xtJnVwW1oz208yogySN1zvhvosgH3TYkr5paw-7b5B-nWHBfVNb1eRhYwqbKflX-AmO595AinXFc7jVB8oYSQ2UoNcvnKJRqNKq1gSvINeiEu9C8PWJAb99gSL3r8-pTPjWNVwVe4BfF1smu36M72dcIRiW7s_li98-IpKarDozWbjoiPMcd2p9cOpRP1Dt5E_GrTaBiWV905NNzgjjhnCEJlbkgD9lUR4bBEsoLJKu2rsvz-rSnvYMRNo-_pYz78GzoJlGfW5VLtyLelFDDiik7gTtmSta9fW_pCAdoJIOBLUJKBGeJWN8zGUYhl1d_KgzBLuOMfzSwo-gQtm2]--></g></svg>