<svg xmlns="http://www.w3.org/2000/svg" xmlns:xlink="http://www.w3.org/1999/xlink" contentStyleType="text/css" data-diagram-type="STATE" height="575px" preserveAspectRatio="none" style="width:756px;height:575px;background:#FFFFFF;" version="1.1" viewBox="0 0 756 575" width="756px" zoomAndPan="magnify"><defs/><g><path d="M19.5,7 L730.5,7 A12.5,12.5 0 0 1 743,19.5 L743,33.2969 L7,33.2969 L7,19.5 A12.5,12.5 0 0 1 19.5,7" fill="#F1F1F1"/><rect fill="none" height="417.2969" rx="12.5" ry="12.5" style="stroke:#181818;stroke-width:0.5;" width="736" x="7" y="7"/><line style="stroke:#181818;stroke-width:0.5;" x1="7" x2="743" y1="33.2969" y2="33.2969"/><text fill="#000000" font-family="sans-serif" font-size="14" lengthAdjust="spacing" textLength="161.4512" x="294.2744" y="24.9951">responderPublicacion()</text><g><rect fill="#F1F1F1" height="50" rx="12.5" ry="12.5" style="stroke:#181818;stroke-width:0.5;" width="50" x="216" y="135.2969"/><line style="stroke:#181818;stroke-width:0.5;" x1="216" x2="266" y1="161.5938" y2="161.5938"/><text fill="#000000" font-family="sans-serif" font-size="14" lengthAdjust="spacing" textLength="4.4502" x="238.7749" y="153.292">&#160;</text></g><g><rect fill="#F1F1F1" height="50" rx="12.5" ry="12.5" style="stroke:#181818;stroke-width:0.5;" width="50" x="19" y="271.2969"/><line style="stroke:#181818;stroke-width:0.5;" x1="19" x2="69" y1="297.5938" y2="297.5938"/><text fill="#000000" font-family="sans-serif" font-size="14" lengthAdjust="spacing" textLength="4.4502" x="41.7749" y="289.292">&#160;</text></g><ellipse cx="241" cy="54.2969" fill="#222222" rx="10" ry="10" style="stroke:#222222;stroke-width:1;"/><ellipse cx="232" cy="403.2969" fill="none" rx="11" ry="11" style="stroke:#222222;stroke-width:1;"/><ellipse cx="232" cy="403.2969" fill="#222222" rx="6" ry="6" style="stroke:#222222;stroke-width:1;"/><!--link *start*responderPublicacion to IntroduciendoRespuesta--><g class="link" data-entity-1="ent0002" data-entity-2="ent0003" data-link-type="dependency" data-source-line="8" id="lnk3"><path d="M241,64.5269 C241,80.2369 241,106.6569 241,129.1669" fill="none" id="*start*responderPublicacion-to-IntroduciendoRespuesta" style="stroke:#008000;stroke-width:1;"/><polygon fill="#008000" points="241,135.1669,245,126.1669,241,130.1669,237,126.1669,241,135.1669" style="stroke:#008000;stroke-width:1;"/><path d="M246,87.2969 L246,112.2969 L555,112.2969 L555,97.2969 L545,87.2969 L246,87.2969" fill="#FEFFDD" style="stroke:#181818;stroke-width:0.5;"/><path d="M545,87.2969 L545,97.2969 L555,97.2969 L545,87.2969" fill="#FEFFDD" style="stroke:#181818;stroke-width:0.5;"/><text fill="#000000" font-family="sans-serif" font-size="13" font-weight="bold" lengthAdjust="spacing" textLength="90.251" x="252" y="104.3638">Coordinador</text><text fill="#000000" font-family="sans-serif" font-size="13" lengthAdjust="spacing" textLength="194.2256" x="346.3833" y="104.3638">solicita responder publicaci&#243;n</text></g><!--link IntroduciendoRespuesta to RespuestaRegistrada--><g class="link" data-entity-1="ent0003" data-entity-2="ent0004" data-link-type="dependency" data-source-line="13" id="lnk4"><path d="M215.73,167.2269 C166.39,178.8069 62,203.2969 62,203.2969 C62,203.2969 55.2113,237.9784 49.8813,265.2384" fill="none" id="IntroduciendoRespuesta-to-RespuestaRegistrada" style="stroke:#008000;stroke-width:1;"/><polygon fill="#008000" points="48.73,271.1269,54.3827,263.0617,49.6895,266.2198,46.5314,261.5266,48.73,271.1269" style="stroke:#008000;stroke-width:1;"/><path d="M67,208.2969 L67,248.2969 L419,248.2969 L419,218.2969 L409,208.2969 L67,208.2969" fill="#FEFFDD" style="stroke:#181818;stroke-width:0.5;"/><path d="M409,208.2969 L409,218.2969 L419,218.2969 L409,208.2969" fill="#FEFFDD" style="stroke:#181818;stroke-width:0.5;"/><text fill="#000000" font-family="sans-serif" font-size="13" font-weight="bold" lengthAdjust="spacing" textLength="58.9063" x="73" y="225.3638">Sistema</text><text fill="#000000" font-family="sans-serif" font-size="13" lengthAdjust="spacing" textLength="186.5132" x="136.0386" y="225.3638">permite introducir respuesta</text><text fill="#000000" font-family="sans-serif" font-size="13" font-weight="bold" lengthAdjust="spacing" textLength="90.251" x="73" y="240.4966">Coordinador</text><text fill="#000000" font-family="sans-serif" font-size="13" lengthAdjust="spacing" textLength="237.2246" x="167.3833" y="240.4966">introduce contenido y solicita enviar</text></g><!--link IntroduciendoRespuesta to *end*responderPublicacion--><g class="link" data-entity-1="ent0003" data-entity-2="ent0005" data-link-type="dependency" data-source-line="19" id="lnk6"><path d="M266.45,167.1369 C316.73,178.6769 424,203.2969 424,203.2969 C424,203.2969 424,374.2969 424,374.2969 C424,374.2969 290.0673,393.8319 249.0873,399.8019" fill="none" id="IntroduciendoRespuesta-to-*end*responderPublicacion" style="stroke:#FF0000;stroke-width:1;"/><polygon fill="#FF0000" points="243.15,400.6669,252.6326,403.3277,248.0978,399.9461,251.4794,395.4112,243.15,400.6669" style="stroke:#FF0000;stroke-width:1;"/><path d="M429,283.7969 L429,308.7969 L734,308.7969 L734,293.7969 L724,283.7969 L429,283.7969" fill="#FEFFDD" style="stroke:#181818;stroke-width:0.5;"/><path d="M724,283.7969 L724,293.7969 L734,293.7969 L724,283.7969" fill="#FEFFDD" style="stroke:#181818;stroke-width:0.5;"/><text fill="#000000" font-family="sans-serif" font-size="13" font-weight="bold" lengthAdjust="spacing" textLength="90.251" x="435" y="300.8638">Coordinador</text><text fill="#000000" font-family="sans-serif" font-size="13" lengthAdjust="spacing" textLength="189.6362" x="529.3833" y="300.8638">solicita cancelar la operaci&#243;n</text></g><!--link RespuestaRegistrada to *end*responderPublicacion--><g class="link" data-entity-1="ent0004" data-entity-2="ent0005" data-link-type="dependency" data-source-line="24" id="lnk7"><path d="M34.69,321.7269 C31.17,330.9669 28,339.2969 28,339.2969 C28,339.2969 28,374.2969 28,374.2969 C28,374.2969 172.7156,394.1618 215.0856,399.9718" fill="none" id="RespuestaRegistrada-to-*end*responderPublicacion" style="stroke:#008000;stroke-width:1;"/><polygon fill="#008000" points="221.03,400.7869,212.6569,395.6013,216.0764,400.1076,211.57,403.5271,221.03,400.7869" style="stroke:#008000;stroke-width:1;"/><path d="M33,344.2969 L33,369.2969 L419,369.2969 L419,354.2969 L409,344.2969 L33,344.2969" fill="#FEFFDD" style="stroke:#181818;stroke-width:0.5;"/><path d="M409,344.2969 L409,354.2969 L419,354.2969 L409,344.2969" fill="#FEFFDD" style="stroke:#181818;stroke-width:0.5;"/><text fill="#000000" font-family="sans-serif" font-size="13" font-weight="bold" lengthAdjust="spacing" textLength="58.9063" x="39" y="361.3638">Sistema</text><text fill="#000000" font-family="sans-serif" font-size="13" lengthAdjust="spacing" textLength="302.6436" x="102.0386" y="361.3638">presenta confirmaci&#243;n de respuesta publicada</text></g><g><rect fill="#F1F1F1" height="50" rx="12.5" ry="12.5" style="stroke:#181818;stroke-width:0.5;" width="181.9844" x="284.01" y="519.3"/><line style="stroke:#181818;stroke-width:0.5;" x1="284.01" x2="465.9944" y1="545.5969" y2="545.5969"/><text fill="#000000" font-family="sans-serif" font-size="14" lengthAdjust="spacing" textLength="161.9844" x="294.01" y="537.2951">PUBLICACION_ABIERTA</text></g><!--link responderPublicacion to PUBLICACION_ABIERTA--><g class="link" data-entity-1="ent0002" data-entity-2="ent0008" data-link-type="dependency" data-source-line="30" id="lnk9"><path d="M375,424.45 C375,462.45 375,490.97 375,512.9" fill="none" id="responderPublicacion-to-PUBLICACION_ABIERTA" style="stroke:#008000;stroke-width:1;"/><polygon fill="#008000" points="375,518.9,379,509.9,375,513.9,371,509.9,375,518.9" style="stroke:#008000;stroke-width:1;"/><path d="M380,459.3 L380,484.3 L515,484.3 L515,469.3 L505,459.3 L380,459.3" fill="#FEFFDD" style="stroke:#181818;stroke-width:0.5;"/><path d="M505,459.3 L505,469.3 L515,469.3 L505,459.3" fill="#FEFFDD" style="stroke:#181818;stroke-width:0.5;"/><text fill="#000000" font-family="sans-serif" font-size="13" lengthAdjust="spacing" textLength="114.2832" x="386" y="476.3669">abrirPublicacion()</text></g><!--SRC=[bPBTIiD048Nlzoc6UgD2yGLAeIrU14HBrQjIP9ATbg79R9YaGX6VoaVmnPmcfZ6O5ffS9VDpldDsYorBZeePf2nKxdE2FAJxmuTpHOabWLAH1_6ayrsSSe891m4iOD1NkBuPm8TpO4yzFR3NcYCfDVXTmYG-B6nmHrR_ttSiBMZ3HQdeiTwsl5t1S7crKI9P3SVd5agmVSPe9hRLZr4ydeMWdWLzqD5TF8OY636NsBg3l77n_INLc6skTjK0_O8TfZxuKq3Fra0PLZ0vQSRMmes4LbYjenu3JIz14gGaOHzWtzeYUMVKYsme-OC92_ho51EKX59KI162sJcPOaz4dGZFgNSYiu183if1rgnPBGYUskIQ0_qzX2F7ftEzL_elnlnr-X3D9hFewV5jCetk5oyJrq72MBbxxrqZy0C0]--></g></svg>