<?xml version="1.0" encoding="us-ascii" standalone="no"?><svg xmlns="http://www.w3.org/2000/svg" xmlns:xlink="http://www.w3.org/1999/xlink" contentStyleType="text/css" height="582px" preserveAspectRatio="none" style="width:392px;height:582px;background:#FFFFFF;" version="1.1" viewBox="0 0 392 582" width="392px" zoomAndPan="magnify"><defs/><g><path d="M19.5,7 L346.5,7 A12.5,12.5 0 0 1 359,19.5 L359,34.6094 L7,34.6094 L7,19.5 A12.5,12.5 0 0 1 19.5,7 " fill="#F1F1F1" style="stroke:#F1F1F1;stroke-width:1.0;"/><rect fill="none" height="422.6094" rx="12.5" ry="12.5" style="stroke:#181818;stroke-width:0.5;" width="352" x="7" y="7"/><line style="stroke:#181818;stroke-width:0.5;" x1="7" x2="359" y1="34.6094" y2="34.6094"/><text fill="#000000" font-family="sans-serif" font-size="14" lengthAdjust="spacing" textLength="143" x="111.5" y="26.5332">analizarConvocatoria()</text><g id="analizarConvocatoria.SeleccionandoConvocatoria"><rect fill="#F1F1F1" height="50" rx="12.5" ry="12.5" style="stroke:#181818;stroke-width:0.5;" width="50" x="19" y="137.6094"/><line style="stroke:#181818;stroke-width:0.5;" x1="19" x2="69" y1="165.2188" y2="165.2188"/><text fill="#000000" font-family="sans-serif" font-size="14" lengthAdjust="spacing" textLength="4" x="42" y="157.1426">&#160;</text></g><g id="analizarConvocatoria.MostrandoDetalle"><rect fill="#F1F1F1" height="50" rx="12.5" ry="12.5" style="stroke:#181818;stroke-width:0.5;" width="50" x="19" y="259.6094"/><line style="stroke:#181818;stroke-width:0.5;" x1="19" x2="69" y1="287.2188" y2="287.2188"/><text fill="#000000" font-family="sans-serif" font-size="14" lengthAdjust="spacing" textLength="4" x="42" y="279.1426">&#160;</text></g><ellipse cx="44" cy="55.6094" fill="#222222" rx="10" ry="10" style="stroke:#222222;stroke-width:1.0;"/><ellipse cx="44" cy="408.6094" fill="none" rx="11" ry="11" style="stroke:#222222;stroke-width:1.0;"/><ellipse cx="44" cy="408.6094" fill="#222222" rx="6" ry="6" style="stroke:#222222;stroke-width:1.0;"/><!--link *start*analizarConvocatoria to SeleccionandoConvocatoria--><g id="link_*start*analizarConvocatoria_SeleccionandoConvocatoria"><path d="M44,65.9294 C44,81.7894 44,108.5194 44,131.2494 " fill="none" id="*start*analizarConvocatoria-to-SeleccionandoConvocatoria" style="stroke:#008000;stroke-width:1.0;"/><polygon fill="#008000" points="44,137.2494,48,128.2494,44,132.2494,40,128.2494,44,137.2494" style="stroke:#008000;stroke-width:1.0;"/><path d="M49,88.6094 L49,114.6094 L319,114.6094 L319,98.6094 L309,88.6094 L49,88.6094 " fill="#FEFFDD" style="stroke:#181818;stroke-width:0.5;"/><path d="M309,88.6094 L309,98.6094 L319,98.6094 L309,88.6094 " fill="#FEFFDD" style="stroke:#181818;stroke-width:0.5;"/><text fill="#000000" font-family="sans-serif" font-size="13" font-weight="bold" lengthAdjust="spacing" textLength="79" x="55" y="107.1045">Coordinador</text><text fill="#000000" font-family="sans-serif" font-size="13" lengthAdjust="spacing" textLength="166" x="138" y="107.1045">solicita analizar convocatoria</text></g><!--link SeleccionandoConvocatoria to MostrandoDetalle--><g id="link_SeleccionandoConvocatoria_MostrandoDetalle"><path d="M44,187.8894 C44,208.7094 44,232.5494 44,253.3594 " fill="none" id="SeleccionandoConvocatoria-to-MostrandoDetalle" style="stroke:#008000;stroke-width:1.0;"/><polygon fill="#008000" points="44,259.3594,48,250.3594,44,254.3594,40,250.3594,44,259.3594" style="stroke:#008000;stroke-width:1.0;"/><path d="M49,210.6094 L49,236.6094 L350,236.6094 L350,220.6094 L340,210.6094 L49,210.6094 " fill="#FEFFDD" style="stroke:#181818;stroke-width:0.5;"/><path d="M340,210.6094 L340,220.6094 L350,220.6094 L340,210.6094 " fill="#FEFFDD" style="stroke:#181818;stroke-width:0.5;"/><text fill="#000000" font-family="sans-serif" font-size="13" font-weight="bold" lengthAdjust="spacing" textLength="51" x="55" y="229.1045">Sistema</text><text fill="#000000" font-family="sans-serif" font-size="13" lengthAdjust="spacing" textLength="225" x="110" y="229.1045">muestra informaci&#243;n de la convocatoria</text></g><!--link MostrandoDetalle to *end*analizarConvocatoria--><g id="link_MostrandoDetalle_*end*analizarConvocatoria"><path d="M44,309.7094 C44,336.3794 44,372.1094 44,391.3094 " fill="none" id="MostrandoDetalle-to-*end*analizarConvocatoria" style="stroke:#008000;stroke-width:1.0;"/><polygon fill="#008000" points="44,397.3094,48,388.3094,44,392.3094,40,388.3094,44,397.3094" style="stroke:#008000;stroke-width:1.0;"/><path d="M49,332.6094 L49,374.6094 L276,374.6094 L276,342.6094 L266,332.6094 L49,332.6094 " fill="#FEFFDD" style="stroke:#181818;stroke-width:0.5;"/><path d="M266,332.6094 L266,342.6094 L276,342.6094 L266,332.6094 " fill="#FEFFDD" style="stroke:#181818;stroke-width:0.5;"/><text fill="#000000" font-family="sans-serif" font-size="13" font-weight="bold" lengthAdjust="spacing" textLength="79" x="55" y="351.1045">Coordinador</text><text fill="#000000" font-family="sans-serif" font-size="13" lengthAdjust="spacing" textLength="123" x="138" y="351.1045">revisa la convocatoria</text><text fill="#000000" font-family="sans-serif" font-size="13" lengthAdjust="spacing" textLength="161" x="55" y="367.4561">y decide la siguiente acci&#243;n</text></g><g id="PERFIL"><rect fill="#F1F1F1" height="50" rx="12.5" ry="12.5" style="stroke:#181818;stroke-width:0.5;" width="68" x="73" y="526"/><line style="stroke:#181818;stroke-width:0.5;" x1="73" x2="141" y1="553.6094" y2="553.6094"/><text fill="#000000" font-family="sans-serif" font-size="14" lengthAdjust="spacing" textLength="48" x="83" y="545.5332">PERFIL</text></g><g id="PROYECTO_ABIERTO"><rect fill="#F1F1F1" height="50" rx="12.5" ry="12.5" style="stroke:#181818;stroke-width:0.5;" width="166" x="176" y="526"/><line style="stroke:#181818;stroke-width:0.5;" x1="176" x2="342" y1="553.6094" y2="553.6094"/><text fill="#000000" font-family="sans-serif" font-size="14" lengthAdjust="spacing" textLength="146" x="186" y="545.5332">PROYECTO_ABIERTO</text></g><!--link analizarConvocatoria to PERFIL--><g id="link_analizarConvocatoria_PERFIL"><path d="M134.55,430.21 C125.67,468.79 118.9759,497.9429 113.8959,520.0129 " fill="none" id="analizarConvocatoria-to-PERFIL" style="stroke:#008000;stroke-width:1.0;"/><polygon fill="#008000" points="112.55,525.86,118.4669,517.9866,113.6716,520.9874,110.6707,516.1921,112.55,525.86" style="stroke:#008000;stroke-width:1.0;"/><path d="M133,465 L133,491 L185,491 L185,475 L175,465 L133,465 " fill="#FEFFDD" style="stroke:#181818;stroke-width:0.5;"/><path d="M175,465 L175,475 L185,475 L175,465 " fill="#FEFFDD" style="stroke:#181818;stroke-width:0.5;"/><text fill="#000000" font-family="sans-serif" font-size="13" lengthAdjust="spacing" textLength="31" x="139" y="483.4951">volver</text></g><!--link analizarConvocatoria to PROYECTO_ABIERTO--><g id="link_analizarConvocatoria_PROYECTO_ABIERTO"><path d="M231.45,430.21 C240.33,468.79 247.0241,497.9429 252.1041,520.0129 " fill="none" id="analizarConvocatoria-to-PROYECTO_ABIERTO" style="stroke:#008000;stroke-width:1.0;"/><polygon fill="#008000" points="253.45,525.86,255.3293,516.1921,252.3284,520.9874,247.5331,517.9866,253.45,525.86" style="stroke:#008000;stroke-width:1.0;"/><path d="M251,465 L251,491 L385,491 L385,475 L375,465 L251,465 " fill="#FEFFDD" style="stroke:#181818;stroke-width:0.5;"/><path d="M375,465 L375,475 L385,475 L375,465 " fill="#FEFFDD" style="stroke:#181818;stroke-width:0.5;"/><text fill="#000000" font-family="sans-serif" font-size="13" lengthAdjust="spacing" textLength="113" x="257" y="483.4951">elaborarPropuesta()</text></g><!--SRC=[ZP9TQiCm383VVGhJlMo3iWkKmjPbKDX8IVioIXcgenLHHmgs6-Z6JhKZx69p4bYR_j0vJtQaJv-4_9gu10U5jiGOjYNgKkoslYZb0mJKm63f0zn8k183GHo11gzxftvSt_Jqfr8wdZQx5xyOF4MBnf0mS2xx2SUXB-A3gyCUCO2rsDBcjmlTdr-j728l-iCBG9R84wwRMZSFW-Lm9E9oOiZ53UwMG-t5ag40VmrgSuX1pXjKgt2sP4ViIF-SpvHym08QbsA3TPOcVXTNWA6VRzOvQWkNf0xBTLpYqFuz3eSLUJXPSHjL3BKwdbORGgxtmZIQNQSlfKxkoxxL9CcUni-g8rM9hT2fNM-NALdwcencwTlzmpZ9PccNXnQMui1Dd9JrREDYxk2_]--></g></svg>