<?xml version="1.0" encoding="us-ascii" standalone="no"?><svg xmlns="http://www.w3.org/2000/svg" xmlns:xlink="http://www.w3.org/1999/xlink" contentStyleType="text/css" height="975px" preserveAspectRatio="none" style="width:592px;height:975px;background:#FFFFFF;" version="1.1" viewBox="0 0 592 975" width="592px" zoomAndPan="magnify"><defs/><g><path d="M19.5,153 L566.5,153 A12.5,12.5 0 0 1 579,165.5 L579,180.6094 L7,180.6094 L7,165.5 A12.5,12.5 0 0 1 19.5,153 " fill="#F1F1F1" style="stroke:#F1F1F1;stroke-width:1.0;"/><rect fill="none" height="669.6094" rx="12.5" ry="12.5" style="stroke:#181818;stroke-width:0.5;" width="572" x="7" y="153"/><line style="stroke:#181818;stroke-width:0.5;" x1="7" x2="579" y1="180.6094" y2="180.6094"/><text fill="#000000" font-family="sans-serif" font-size="14" lengthAdjust="spacing" textLength="187" x="199.5" y="172.5332">abrirOpcionesCargaTrabajo()</text><g id="abrirOpcionesCargaTrabajo.MostrandoCargaTrabajo"><rect fill="#F1F1F1" height="50" rx="12.5" ry="12.5" style="stroke:#181818;stroke-width:0.5;" width="50" x="19" y="283.6094"/><line style="stroke:#181818;stroke-width:0.5;" x1="19" x2="69" y1="311.2188" y2="311.2188"/><text fill="#000000" font-family="sans-serif" font-size="14" lengthAdjust="spacing" textLength="4" x="42" y="303.1426">&#160;</text></g><g id="abrirOpcionesCargaTrabajo.ConsultandoDetalle"><rect fill="#F1F1F1" height="50" rx="12.5" ry="12.5" style="stroke:#181818;stroke-width:0.5;" width="50" x="19" y="643.1094"/><line style="stroke:#181818;stroke-width:0.5;" x1="19" x2="69" y1="670.7188" y2="670.7188"/><text fill="#000000" font-family="sans-serif" font-size="14" lengthAdjust="spacing" textLength="4" x="42" y="662.6426">&#160;</text></g><ellipse cx="44" cy="201.6094" fill="#222222" rx="10" ry="10" style="stroke:#222222;stroke-width:1.0;"/><ellipse cx="44" cy="801.6094" fill="none" rx="11" ry="11" style="stroke:#222222;stroke-width:1.0;"/><ellipse cx="44" cy="801.6094" fill="#222222" rx="6" ry="6" style="stroke:#222222;stroke-width:1.0;"/><!--link *start*abrirOpcionesCargaTrabajo to MostrandoCargaTrabajo--><g id="link_*start*abrirOpcionesCargaTrabajo_MostrandoCargaTrabajo"><path d="M44,211.9294 C44,227.7894 44,254.5194 44,277.2494 " fill="none" id="*start*abrirOpcionesCargaTrabajo-to-MostrandoCargaTrabajo" style="stroke:#008000;stroke-width:1.0;"/><polygon fill="#008000" points="44,283.2494,48,274.2494,44,278.2494,40,274.2494,44,283.2494" style="stroke:#008000;stroke-width:1.0;"/><path d="M49,234.6094 L49,260.6094 L415,260.6094 L415,244.6094 L405,234.6094 L49,234.6094 " fill="#FEFFDD" style="stroke:#181818;stroke-width:0.5;"/><path d="M405,234.6094 L405,244.6094 L415,244.6094 L405,234.6094 " fill="#FEFFDD" style="stroke:#181818;stroke-width:0.5;"/><text fill="#000000" font-family="sans-serif" font-size="13" font-weight="bold" lengthAdjust="spacing" textLength="79" x="55" y="253.1045">Coordinador</text><text fill="#000000" font-family="sans-serif" font-size="13" lengthAdjust="spacing" textLength="262" x="138" y="253.1045">solicita abrir las opciones de carga de trabajo</text></g><!--link MostrandoCargaTrabajo to ConsultandoDetalle--><g id="link_MostrandoCargaTrabajo_ConsultandoDetalle"><path d="M44,333.6194 C44,398.5894 44,571.3394 44,636.7294 " fill="none" id="MostrandoCargaTrabajo-to-ConsultandoDetalle" style="stroke:#008000;stroke-width:1.0;"/><polygon fill="#008000" points="44,642.7294,48,633.7294,44,637.7294,40,633.7294,44,642.7294" style="stroke:#008000;stroke-width:1.0;"/><path d="M49,356.6094 L49,594.6094 L570,594.6094 L570,366.6094 L560,356.6094 L49,356.6094 " fill="#FEFFDD" style="stroke:#181818;stroke-width:0.5;"/><path d="M560,356.6094 L560,366.6094 L570,366.6094 L560,356.6094 " fill="#FEFFDD" style="stroke:#181818;stroke-width:0.5;"/><text fill="#000000" font-family="sans-serif" font-size="13" font-weight="bold" lengthAdjust="spacing" textLength="51" x="55" y="375.1045">Sistema</text><text fill="#000000" font-family="sans-serif" font-size="13" lengthAdjust="spacing" textLength="445" x="110" y="375.1045">presenta la informaci&#243;n de carga de trabajo del personal investigador/docente</text><text fill="#000000" font-family="sans-serif" font-size="13" lengthAdjust="spacing" textLength="152" x="55" y="391.4561">&#8226; C&#243;digo interno FUNIBER</text><text fill="#000000" font-family="sans-serif" font-size="13" lengthAdjust="spacing" textLength="97" x="55" y="407.8076">&#8226; Nombre y sede</text><text fill="#000000" font-family="sans-serif" font-size="13" lengthAdjust="spacing" textLength="316" x="55" y="424.1592">&#8226; Tipo de perfil: investigador-docente / solo investigador</text><text fill="#000000" font-family="sans-serif" font-size="13" lengthAdjust="spacing" textLength="230" x="55" y="440.5107">&#8226; Carga semanal de docencia (si aplica)</text><text fill="#000000" font-family="sans-serif" font-size="13" lengthAdjust="spacing" textLength="305" x="55" y="456.8623">&#8226; Carga semanal de investigaci&#243;n (proyectos activos)</text><text fill="#000000" font-family="sans-serif" font-size="13" lengthAdjust="spacing" textLength="206" x="55" y="473.2139">&#8226; Total semanal y horas disponibles</text><text fill="#000000" font-family="sans-serif" font-size="13" lengthAdjust="spacing" textLength="4" x="55" y="489.5654">&#160;</text><text fill="#000000" font-family="sans-serif" font-size="13" font-weight="bold" lengthAdjust="spacing" textLength="123" x="55" y="505.917">Reglas del sistema:</text><text fill="#000000" font-family="sans-serif" font-size="13" lengthAdjust="spacing" textLength="384" x="55" y="522.2686">&#8226; La suma docencia + investigaci&#243;n no puede superar 16h/semana</text><text fill="#000000" font-family="sans-serif" font-size="13" lengthAdjust="spacing" textLength="382" x="55" y="538.6201">&#8226; En sedes donde no se imparte docencia, la carga docente es 0h</text><text fill="#000000" font-family="sans-serif" font-size="13" lengthAdjust="spacing" textLength="4" x="55" y="554.9717">&#160;</text><text fill="#000000" font-family="sans-serif" font-size="13" lengthAdjust="spacing" textLength="408" x="55" y="571.3232">&#8226; Permite solicitar filtrar/buscar por sede, perfil, investigador o proyecto</text><text fill="#000000" font-family="sans-serif" font-size="13" lengthAdjust="spacing" textLength="345" x="55" y="587.6748">&#8226; Permite seleccionar una persona para consultar su detalle</text></g><!--link ConsultandoDetalle to ConsultandoDetalle--><g id="link_ConsultandoDetalle_ConsultandoDetalle"><path d="M69.18,652.0494 C78.91,651.3294 87,656.6894 87,668.1094 C87,679.5294 84.8936,685.3322 75.1636,684.6122 " fill="none" id="ConsultandoDetalle-to-ConsultandoDetalle" style="stroke:#008000;stroke-width:1.0;"/><polygon fill="#008000" points="69.18,684.1694,77.8603,688.8226,74.1664,684.5384,78.4506,680.8444,69.18,684.1694" style="stroke:#008000;stroke-width:1.0;"/><path d="M92,622.6094 L92,713.6094 L508,713.6094 L508,632.6094 L498,622.6094 L92,622.6094 " fill="#FEFFDD" style="stroke:#181818;stroke-width:0.5;"/><path d="M498,622.6094 L498,632.6094 L508,632.6094 L498,622.6094 " fill="#FEFFDD" style="stroke:#181818;stroke-width:0.5;"/><text fill="#000000" font-family="sans-serif" font-size="13" font-weight="bold" lengthAdjust="spacing" textLength="79" x="98" y="641.1045">Coordinador</text><text fill="#000000" font-family="sans-serif" font-size="13" lengthAdjust="spacing" textLength="312" x="181" y="641.1045">solicita consultar el detalle de un investigador/docente</text><text fill="#000000" font-family="sans-serif" font-size="13" font-weight="bold" lengthAdjust="spacing" textLength="51" x="98" y="657.4561">Sistema</text><text fill="#000000" font-family="sans-serif" font-size="13" lengthAdjust="spacing" textLength="157" x="153" y="657.4561">muestra el detalle de carga</text><text fill="#000000" font-family="sans-serif" font-size="13" lengthAdjust="spacing" textLength="386" x="98" y="673.8076">&#8226; Desglose de docencia (asignaturas y horas semanales, si aplica)</text><text fill="#000000" font-family="sans-serif" font-size="13" lengthAdjust="spacing" textLength="392" x="98" y="690.1592">&#8226; Desglose de investigaci&#243;n (proyectos en curso y horas asignadas)</text><text fill="#000000" font-family="sans-serif" font-size="13" lengthAdjust="spacing" textLength="275" x="98" y="706.5107">&#8226; Total semanal y horas disponibles (hasta 16h)</text></g><!--link ConsultandoDetalle to *end*abrirOpcionesCargaTrabajo--><g id="link_ConsultandoDetalle_*end*abrirOpcionesCargaTrabajo"><path d="M44,693.2294 C44,722.2894 44,763.7994 44,784.4694 " fill="none" id="ConsultandoDetalle-to-*end*abrirOpcionesCargaTrabajo" style="stroke:#008000;stroke-width:1.0;"/><polygon fill="#008000" points="44,790.4694,48,781.4694,44,785.4694,40,781.4694,44,790.4694" style="stroke:#008000;stroke-width:1.0;"/><path d="M49,741.6094 L49,767.6094 L389,767.6094 L389,751.6094 L379,741.6094 L49,741.6094 " fill="#FEFFDD" style="stroke:#181818;stroke-width:0.5;"/><path d="M379,741.6094 L379,751.6094 L389,751.6094 L379,741.6094 " fill="#FEFFDD" style="stroke:#181818;stroke-width:0.5;"/><text fill="#000000" font-family="sans-serif" font-size="13" font-weight="bold" lengthAdjust="spacing" textLength="79" x="55" y="760.1045">Coordinador</text><text fill="#000000" font-family="sans-serif" font-size="13" lengthAdjust="spacing" textLength="236" x="138" y="760.1045">finaliza la consulta de la carga de trabajo</text></g><g id="PANEL_PRINCIPAL_ABIERTO"><rect fill="#F1F1F1" height="50" rx="12.5" ry="12.5" style="stroke:#181818;stroke-width:0.5;" width="210" x="188" y="7"/><line style="stroke:#181818;stroke-width:0.5;" x1="188" x2="398" y1="34.6094" y2="34.6094"/><text fill="#000000" font-family="sans-serif" font-size="14" lengthAdjust="spacing" textLength="190" x="198" y="26.5332">PANEL_PRINCIPAL_ABIERTO</text></g><g id="OPCIONES_CARGA_TRABAJO_ABIERTAS"><rect fill="#F1F1F1" height="50" rx="12.5" ry="12.5" style="stroke:#181818;stroke-width:0.5;" width="294" x="146" y="919"/><line style="stroke:#181818;stroke-width:0.5;" x1="146" x2="440" y1="946.6094" y2="946.6094"/><text fill="#000000" font-family="sans-serif" font-size="14" lengthAdjust="spacing" textLength="274" x="156" y="938.5332">OPCIONES_CARGA_TRABAJO_ABIERTAS</text></g><!--link PANEL_PRINCIPAL_ABIERTO to abrirOpcionesCargaTrabajo--><g id="link_PANEL_PRINCIPAL_ABIERTO_abrirOpcionesCargaTrabajo"><path d="M293,57.09 C293,78.63 293,106.92 293,146.99 " fill="none" id="PANEL_PRINCIPAL_ABIERTO-to-abrirOpcionesCargaTrabajo" style="stroke:#008000;stroke-width:1.0;"/><polygon fill="#008000" points="293,152.99,297,143.99,293,147.99,289,143.99,293,152.99" style="stroke:#008000;stroke-width:1.0;"/><path d="M298,92 L298,118 L483,118 L483,102 L473,92 L298,92 " fill="#FEFFDD" style="stroke:#181818;stroke-width:0.5;"/><path d="M473,92 L473,102 L483,102 L473,92 " fill="#FEFFDD" style="stroke:#181818;stroke-width:0.5;"/><text fill="#000000" font-family="sans-serif" font-size="13" lengthAdjust="spacing" textLength="164" x="304" y="110.4951">abrirOpcionesCargaTrabajo()</text></g><!--link abrirOpcionesCargaTrabajo to OPCIONES_CARGA_TRABAJO_ABIERTAS--><g id="link_abrirOpcionesCargaTrabajo_OPCIONES_CARGA_TRABAJO_ABIERTAS"><path d="M293,823.12 C293,863.17 293,891.44 293,912.96 " fill="none" id="abrirOpcionesCargaTrabajo-to-OPCIONES_CARGA_TRABAJO_ABIERTAS" style="stroke:#008000;stroke-width:1.0;"/><polygon fill="#008000" points="293,918.96,297,909.96,293,913.96,289,909.96,293,918.96" style="stroke:#008000;stroke-width:1.0;"/><path d="M298,858 L298,884 L539,884 L539,868 L529,858 L298,858 " fill="#FEFFDD" style="stroke:#181818;stroke-width:0.5;"/><path d="M529,858 L529,868 L539,868 L529,858 " fill="#FEFFDD" style="stroke:#181818;stroke-width:0.5;"/><text fill="#000000" font-family="sans-serif" font-size="13" lengthAdjust="spacing" textLength="220" x="304" y="876.4951">Opciones de carga de trabajo abiertas</text></g><!--SRC=[dLN1Jjj04BtxAqRq4jgWj9SU448o9grIqIGAwGcXQ68FoPRrhhMxHaghIdnBVu5Fu4_w9Psr7Jk669Kc5oUUUVFcpPjTUojKXWPJa4AHssG4cPOR_oC8h4D7W4iZp2IBXLPa8pGhd1jSudSDQE6Wystly01-1W7mfyGvu2zdVDNM6LI9tWr-7XPfPNFfVE0vEPIIIgohjzTmTFLcPOZKzT7f2t1ACvfMlh7Rue-JvMcajKc4maIRay7o5AoM8XOEooP1Sc5TzG89GUmn_OFRmIML5DWbdxtrMmptTD95xr9OHoaMr393bXHJamX2tMYJOYmU7zG-Nlme8IDZjKB9qNTadLZvBWU9ZXcbBFdd_ZT4Zm-9M6aEScIKXa_VngEpuQn-FzRfqX1im5BIPCr5velu6ZT27hTA75KbOE3brArtJTc2iUNcF4D6Af9YWT2p0Z3ZCU1XTtIDMKhGoupUKEoq1OoTkDEsoPrhrhZEtS1Q6vvg8cocbLXAii5MxHcj_C2zThOK_jWhNoDTC8KynORgkwSyMByiPvquZfL10ny-hWTbwHfbg0efkOvM7Cafblj9UUbSeqBVJxcQQgKcPxnV1pNCb4mg-E-jOmtm87ZyPh3CBMVosfgYKByQKhyr262cbMRF8KbIx4tFABd2hP70dmiGL-vby9obQlpRNeFd9l_V7UXSqOO9oIqJxurSTJl-oKwbEVbjVG9Gw5whSavs9RMbjadHYfL2btilRJrLUOni7_PuU1Udsxwa8CvPxXgqB9JWQnmDlJNouUdTT_ZwsV29-i_3kE5dANuKXz9s7hx1nhqTP-Ml89Y6u-75OZeRZQFHDBnOX6UZuMm-QN7fl4s25hiNBfsWwRtxujejEPb6eybuUBc8mjddS36VXMVXbqd5Bhni5vwyS3amUK76eMqe_0K0]--></g></svg>