<?xml version="1.0" encoding="us-ascii" standalone="no"?><svg xmlns="http://www.w3.org/2000/svg" xmlns:xlink="http://www.w3.org/1999/xlink" contentStyleType="text/css" height="655px" preserveAspectRatio="none" style="width:466px;height:655px;background:#FFFFFF;" version="1.1" viewBox="0 0 466 655" width="466px" zoomAndPan="magnify"><defs/><g><path d="M19.5,153 L406.5,153 A12.5,12.5 0 0 1 419,165.5 L419,180.6094 L7,180.6094 L7,165.5 A12.5,12.5 0 0 1 19.5,153 " fill="#F1F1F1" style="stroke:#F1F1F1;stroke-width:1.0;"/><rect fill="none" height="349.6094" rx="12.5" ry="12.5" style="stroke:#181818;stroke-width:0.5;" width="412" x="7" y="153"/><line style="stroke:#181818;stroke-width:0.5;" x1="7" x2="419" y1="180.6094" y2="180.6094"/><text fill="#000000" font-family="sans-serif" font-size="14" lengthAdjust="spacing" textLength="187" x="119.5" y="172.5332">abrirOpcionesCargaTrabajo()</text><g id="abrirOpcionesCargaTrabajo.CargandoCargaTrabajo"><rect fill="#F1F1F1" height="50" rx="12.5" ry="12.5" style="stroke:#181818;stroke-width:0.5;" width="50" x="19" y="283.6094"/><line style="stroke:#181818;stroke-width:0.5;" x1="19" x2="69" y1="311.2188" y2="311.2188"/><text fill="#000000" font-family="sans-serif" font-size="14" lengthAdjust="spacing" textLength="4" x="42" y="303.1426">&#160;</text></g><ellipse cx="44" cy="201.6094" fill="#222222" rx="10" ry="10" style="stroke:#222222;stroke-width:1.0;"/><ellipse cx="44" cy="481.6094" fill="none" rx="11" ry="11" style="stroke:#222222;stroke-width:1.0;"/><ellipse cx="44" cy="481.6094" fill="#222222" rx="6" ry="6" style="stroke:#222222;stroke-width:1.0;"/><!--link *start*abrirOpcionesCargaTrabajo to CargandoCargaTrabajo--><g id="link_*start*abrirOpcionesCargaTrabajo_CargandoCargaTrabajo"><path d="M44,211.9294 C44,227.7894 44,254.5194 44,277.2494 " fill="none" id="*start*abrirOpcionesCargaTrabajo-to-CargandoCargaTrabajo" style="stroke:#008000;stroke-width:1.0;"/><polygon fill="#008000" points="44,283.2494,48,274.2494,44,278.2494,40,274.2494,44,283.2494" style="stroke:#008000;stroke-width:1.0;"/><path d="M49,234.6094 L49,260.6094 L410,260.6094 L410,244.6094 L400,234.6094 L49,234.6094 " fill="#FEFFDD" style="stroke:#181818;stroke-width:0.5;"/><path d="M400,234.6094 L400,244.6094 L410,244.6094 L400,234.6094 " fill="#FEFFDD" style="stroke:#181818;stroke-width:0.5;"/><text fill="#000000" font-family="sans-serif" font-size="13" font-weight="bold" lengthAdjust="spacing" textLength="79" x="55" y="253.1045">Coordinador</text><text fill="#000000" font-family="sans-serif" font-size="13" lengthAdjust="spacing" textLength="257" x="138" y="253.1045">selecciona "Carga de trabajo investigadores"</text></g><!--link CargandoCargaTrabajo to *end*abrirOpcionesCargaTrabajo--><g id="link_CargandoCargaTrabajo_*end*abrirOpcionesCargaTrabajo"><path d="M44,333.7494 C44,371.6794 44,437.6594 44,464.3294 " fill="none" id="CargandoCargaTrabajo-to-*end*abrirOpcionesCargaTrabajo" style="stroke:#008000;stroke-width:1.0;"/><polygon fill="#008000" points="44,470.3294,48,461.3294,44,465.3294,40,461.3294,44,470.3294" style="stroke:#008000;stroke-width:1.0;"/><path d="M49,356.6094 L49,447.6094 L402,447.6094 L402,366.6094 L392,356.6094 L49,356.6094 " fill="#FEFFDD" style="stroke:#181818;stroke-width:0.5;"/><path d="M392,356.6094 L392,366.6094 L402,366.6094 L392,356.6094 " fill="#FEFFDD" style="stroke:#181818;stroke-width:0.5;"/><text fill="#000000" font-family="sans-serif" font-size="13" font-weight="bold" lengthAdjust="spacing" textLength="51" x="55" y="375.1045">Sistema</text><text fill="#000000" font-family="sans-serif" font-size="13" lengthAdjust="spacing" textLength="201" x="110" y="375.1045">muestra la carga de trabajo actual:</text><text fill="#000000" font-family="sans-serif" font-size="13" lengthAdjust="spacing" textLength="304" x="55" y="391.4561">&#8226; Horas docentes semanales (m&#225;ximo 16 h/semana)</text><text fill="#000000" font-family="sans-serif" font-size="13" lengthAdjust="spacing" textLength="273" x="55" y="407.8076">&#8226; Distribuci&#243;n docencia / investigaci&#243;n / gesti&#243;n</text><text fill="#000000" font-family="sans-serif" font-size="13" lengthAdjust="spacing" textLength="332" x="55" y="424.1592">&#8226; Proyectos activos asociados a la carga de investigaci&#243;n</text><text fill="#000000" font-family="sans-serif" font-size="13" lengthAdjust="spacing" textLength="292" x="55" y="440.5107">&#8226; Aviso si se supera o se alcanza el l&#237;mite docente</text></g><g id="PANEL_PRINCIPAL_ABIERTO"><rect fill="#F1F1F1" height="50" rx="12.5" ry="12.5" style="stroke:#181818;stroke-width:0.5;" width="210" x="108" y="7"/><line style="stroke:#181818;stroke-width:0.5;" x1="108" x2="318" y1="34.6094" y2="34.6094"/><text fill="#000000" font-family="sans-serif" font-size="14" lengthAdjust="spacing" textLength="190" x="118" y="26.5332">PANEL_PRINCIPAL_ABIERTO</text></g><g id="OPCIONES_CARGA_TRABAJO_ABIERTAS"><rect fill="#F1F1F1" height="50" rx="12.5" ry="12.5" style="stroke:#181818;stroke-width:0.5;" width="294" x="66" y="599"/><line style="stroke:#181818;stroke-width:0.5;" x1="66" x2="360" y1="626.6094" y2="626.6094"/><text fill="#000000" font-family="sans-serif" font-size="14" lengthAdjust="spacing" textLength="274" x="76" y="618.5332">OPCIONES_CARGA_TRABAJO_ABIERTAS</text></g><!--link PANEL_PRINCIPAL_ABIERTO to abrirOpcionesCargaTrabajo--><g id="link_PANEL_PRINCIPAL_ABIERTO_abrirOpcionesCargaTrabajo"><path d="M213,57.06 C213,79.41 213,108.89 213,146.88 " fill="none" id="PANEL_PRINCIPAL_ABIERTO-to-abrirOpcionesCargaTrabajo" style="stroke:#008000;stroke-width:1.0;"/><polygon fill="#008000" points="213,152.88,217,143.88,213,147.88,209,143.88,213,152.88" style="stroke:#008000;stroke-width:1.0;"/><path d="M218,92 L218,118 L403,118 L403,102 L393,92 L218,92 " fill="#FEFFDD" style="stroke:#181818;stroke-width:0.5;"/><path d="M393,92 L393,102 L403,102 L393,92 " fill="#FEFFDD" style="stroke:#181818;stroke-width:0.5;"/><text fill="#000000" font-family="sans-serif" font-size="13" lengthAdjust="spacing" textLength="164" x="224" y="110.4951">abrirOpcionesCargaTrabajo()</text></g><!--link abrirOpcionesCargaTrabajo to OPCIONES_CARGA_TRABAJO_ABIERTAS--><g id="link_abrirOpcionesCargaTrabajo_OPCIONES_CARGA_TRABAJO_ABIERTAS"><path d="M213,503.42 C213,541.26 213,570.58 213,592.88 " fill="none" id="abrirOpcionesCargaTrabajo-to-OPCIONES_CARGA_TRABAJO_ABIERTAS" style="stroke:#008000;stroke-width:1.0;"/><polygon fill="#008000" points="213,598.88,217,589.88,213,593.88,209,589.88,213,598.88" style="stroke:#008000;stroke-width:1.0;"/><path d="M218,538 L218,564 L459,564 L459,548 L449,538 L218,538 " fill="#FEFFDD" style="stroke:#181818;stroke-width:0.5;"/><path d="M449,538 L449,548 L459,548 L449,538 " fill="#FEFFDD" style="stroke:#181818;stroke-width:0.5;"/><text fill="#000000" font-family="sans-serif" font-size="13" lengthAdjust="spacing" textLength="220" x="224" y="556.4951">Pantalla de carga de trabajo mostrada</text></g><!--SRC=[VPB1Rjim38RlVWh2kxG5Yc2N7OOYWEe5NOOYDfBSYYAWPI9JAuk6f0JBXW9zbUs-qnuXRz8dcMG7ITqsjGwc9FBdHuhkNfa6BTQWbI6_QGWQrfkuIHBdqHDWQPND6wdOaClGBd5kiSGx1dIG7hqzEKtXLv90-3gTDAmGqVgOYf_xTcutPxTmVlDXQOdCxVdmRS_eQ3Z8iOd8z-t1HJdCc6sb35PiBmRb41nfaf4A8Mq5e2BmEt1brkIyMaPlScchGQPgXJkMjtBtu0BiKPQPSfvgR3dgLSXa4JI2V8c1qgzGVsx3dXx_m5UseK4LIpAUN2YXHeCwM2VrzlSFLJDy_0JV1ztvwJxiIqXdLRcIQllFTE5I8GmEPNOt0rZ6RJ3teONb3KdFBhAeTVmx3i5Lj7hCVQszW5Whn-1KW0MtQYXKoj56BT7yH20DUlktLg59kxhwpNv8aa9CHjUBOZgUPED2N2_4vNWqdUUzRX-TigJN_tU6CJcyx_61VfuoBx9nFXdD5fcONed5V2eknRTyHoTc_SG56ezQjvrwzSmrnmcey83m7m00]--></g></svg>