<?xml version="1.0" encoding="us-ascii" standalone="no"?><svg xmlns="http://www.w3.org/2000/svg" xmlns:xlink="http://www.w3.org/1999/xlink" contentStyleType="text/css" height="620px" preserveAspectRatio="none" style="width:661px;height:620px;background:#FFFFFF;" version="1.1" viewBox="0 0 661 620" width="661px" zoomAndPan="magnify"><defs/><g><g id="in1"><rect fill="#F1F1F1" height="50" rx="12.5" ry="12.5" style="stroke:#181818;stroke-width:0.5;" width="210" x="245" y="7"/><line style="stroke:#181818;stroke-width:0.5;" x1="245" x2="455" y1="34.6094" y2="34.6094"/><text fill="#000000" font-family="sans-serif" font-size="14" lengthAdjust="spacing" textLength="190" x="255" y="26.5332">PANEL_PRINCIPAL_ABIERTO</text></g><path d="M156.5,118 L543.5,118 A12.5,12.5 0 0 1 556,130.5 L556,145.6094 L144,145.6094 L144,130.5 A12.5,12.5 0 0 1 156.5,118 " fill="#F1F1F1" style="stroke:#F1F1F1;stroke-width:1.0;"/><rect fill="none" height="349.6094" rx="12.5" ry="12.5" style="stroke:#181818;stroke-width:0.5;" width="412" x="144" y="118"/><line style="stroke:#181818;stroke-width:0.5;" x1="144" x2="556" y1="145.6094" y2="145.6094"/><text fill="#000000" font-family="sans-serif" font-size="14" lengthAdjust="spacing" textLength="187" x="256.5" y="137.5332">abrirOpcionesCargaTrabajo()</text><g id="abrirOpcionesCargaTrabajo.CargandoCargaTrabajo"><rect fill="#F1F1F1" height="50" rx="12.5" ry="12.5" style="stroke:#181818;stroke-width:0.5;" width="50" x="156" y="248.6094"/><line style="stroke:#181818;stroke-width:0.5;" x1="156" x2="206" y1="276.2188" y2="276.2188"/><text fill="#000000" font-family="sans-serif" font-size="14" lengthAdjust="spacing" textLength="4" x="179" y="268.1426">&#160;</text></g><ellipse cx="181" cy="166.6094" fill="#222222" rx="10" ry="10" style="stroke:#222222;stroke-width:1.0;"/><ellipse cx="181" cy="446.6094" fill="none" rx="11" ry="11" style="stroke:#222222;stroke-width:1.0;"/><ellipse cx="181" cy="446.6094" fill="#222222" rx="6" ry="6" style="stroke:#222222;stroke-width:1.0;"/><!--link *start*abrirOpcionesCargaTrabajo to CargandoCargaTrabajo--><g id="link_*start*abrirOpcionesCargaTrabajo_CargandoCargaTrabajo"><path d="M181,176.9294 C181,192.7894 181,219.5194 181,242.2494 " fill="none" id="*start*abrirOpcionesCargaTrabajo-to-CargandoCargaTrabajo" style="stroke:#008000;stroke-width:1.0;"/><polygon fill="#008000" points="181,248.2494,185,239.2494,181,243.2494,177,239.2494,181,248.2494" style="stroke:#008000;stroke-width:1.0;"/><path d="M186,199.6094 L186,225.6094 L547,225.6094 L547,209.6094 L537,199.6094 L186,199.6094 " fill="#FEFFDD" style="stroke:#181818;stroke-width:0.5;"/><path d="M537,199.6094 L537,209.6094 L547,209.6094 L537,199.6094 " fill="#FEFFDD" style="stroke:#181818;stroke-width:0.5;"/><text fill="#000000" font-family="sans-serif" font-size="13" font-weight="bold" lengthAdjust="spacing" textLength="79" x="192" y="218.1045">Coordinador</text><text fill="#000000" font-family="sans-serif" font-size="13" lengthAdjust="spacing" textLength="257" x="275" y="218.1045">selecciona "Carga de trabajo investigadores"</text></g><!--link CargandoCargaTrabajo to *end*abrirOpcionesCargaTrabajo--><g id="link_CargandoCargaTrabajo_*end*abrirOpcionesCargaTrabajo"><path d="M181,298.7494 C181,336.6794 181,402.6594 181,429.3294 " fill="none" id="CargandoCargaTrabajo-to-*end*abrirOpcionesCargaTrabajo" style="stroke:#008000;stroke-width:1.0;"/><polygon fill="#008000" points="181,435.3294,185,426.3294,181,430.3294,177,426.3294,181,435.3294" style="stroke:#008000;stroke-width:1.0;"/><path d="M186,321.6094 L186,412.6094 L539,412.6094 L539,331.6094 L529,321.6094 L186,321.6094 " fill="#FEFFDD" style="stroke:#181818;stroke-width:0.5;"/><path d="M529,321.6094 L529,331.6094 L539,331.6094 L529,321.6094 " fill="#FEFFDD" style="stroke:#181818;stroke-width:0.5;"/><text fill="#000000" font-family="sans-serif" font-size="13" font-weight="bold" lengthAdjust="spacing" textLength="51" x="192" y="340.1045">Sistema</text><text fill="#000000" font-family="sans-serif" font-size="13" lengthAdjust="spacing" textLength="201" x="247" y="340.1045">muestra la carga de trabajo actual:</text><text fill="#000000" font-family="sans-serif" font-size="13" lengthAdjust="spacing" textLength="304" x="192" y="356.4561">&#8226; Horas docentes semanales (m&#225;ximo 16 h/semana)</text><text fill="#000000" font-family="sans-serif" font-size="13" lengthAdjust="spacing" textLength="273" x="192" y="372.8076">&#8226; Distribuci&#243;n docencia / investigaci&#243;n / gesti&#243;n</text><text fill="#000000" font-family="sans-serif" font-size="13" lengthAdjust="spacing" textLength="332" x="192" y="389.1592">&#8226; Proyectos activos asociados a la carga de investigaci&#243;n</text><text fill="#000000" font-family="sans-serif" font-size="13" lengthAdjust="spacing" textLength="292" x="192" y="405.5107">&#8226; Aviso si se supera o se alcanza el l&#237;mite docente</text></g><g id="OPCIONES_CARGA_TRABAJO_ABIERTAS"><rect fill="#F1F1F1" height="50" rx="12.5" ry="12.5" style="stroke:#181818;stroke-width:0.5;" width="294" x="7" y="564"/><line style="stroke:#181818;stroke-width:0.5;" x1="7" x2="301" y1="591.6094" y2="591.6094"/><text fill="#000000" font-family="sans-serif" font-size="14" lengthAdjust="spacing" textLength="274" x="17" y="583.5332">OPCIONES_CARGA_TRABAJO_ABIERTAS</text></g><g id="PANEL_PRINCIPAL_ABIERTO"><rect fill="#F1F1F1" height="50" rx="12.5" ry="12.5" style="stroke:#181818;stroke-width:0.5;" width="210" x="432" y="564"/><line style="stroke:#181818;stroke-width:0.5;" x1="432" x2="642" y1="591.6094" y2="591.6094"/><text fill="#000000" font-family="sans-serif" font-size="14" lengthAdjust="spacing" textLength="190" x="442" y="583.5332">PANEL_PRINCIPAL_ABIERTO</text></g><!--link in1 to abrirOpcionesCargaTrabajo--><g id="link_in1_abrirOpcionesCargaTrabajo"><path d="M350,57.37 C350,72.73 350,88.09 350,111.73 " fill="none" id="in1-to-abrirOpcionesCargaTrabajo" style="stroke:#008000;stroke-width:1.0;"/><polygon fill="#008000" points="350,117.73,354,108.73,350,112.73,346,108.73,350,117.73" style="stroke:#008000;stroke-width:1.0;"/></g><!--link abrirOpcionesCargaTrabajo to OPCIONES_CARGA_TRABAJO_ABIERTAS--><g id="link_abrirOpcionesCargaTrabajo_OPCIONES_CARGA_TRABAJO_ABIERTAS"><path d="M143.81,437.07 C94.59,471.22 56,498 56,498 C56,498 56,534 56,534 C56,534 78.8144,546.5753 104.9044,560.9453 " fill="none" id="abrirOpcionesCargaTrabajo-to-OPCIONES_CARGA_TRABAJO_ABIERTAS" style="stroke:#008000;stroke-width:1.0;"/><polygon fill="#008000" points="110.16,563.84,104.2065,555.9943,105.7804,561.4278,100.3469,563.0017,110.16,563.84" style="stroke:#008000;stroke-width:1.0;"/><path d="M61,503 L61,529 L302,529 L302,513 L292,503 L61,503 " fill="#FEFFDD" style="stroke:#181818;stroke-width:0.5;"/><path d="M292,503 L292,513 L302,513 L292,503 " fill="#FEFFDD" style="stroke:#181818;stroke-width:0.5;"/><text fill="#000000" font-family="sans-serif" font-size="13" lengthAdjust="spacing" textLength="220" x="67" y="521.4951">Pantalla de carga de trabajo mostrada</text></g><!--link abrirOpcionesCargaTrabajo to OPCIONES_CARGA_TRABAJO_ABIERTAS--><g id="link_abrirOpcionesCargaTrabajo_OPCIONES_CARGA_TRABAJO_ABIERTAS"><path d="M321.71,468.1 C315.63,505.48 311,534 311,534 C311,534 271.7142,547.5198 229.9042,561.8898 " fill="none" id="abrirOpcionesCargaTrabajo-to-OPCIONES_CARGA_TRABAJO_ABIERTAS-1" style="stroke:#008000;stroke-width:1.0;"/><polygon fill="#008000" points="224.23,563.84,234.0415,564.6975,228.9585,562.2148,231.4412,557.1319,224.23,563.84" style="stroke:#008000;stroke-width:1.0;"/><path d="M321,503 L321,529 L458,529 L458,513 L448,503 L321,503 " fill="#FEFFDD" style="stroke:#181818;stroke-width:0.5;"/><path d="M448,503 L448,513 L458,513 L448,503 " fill="#FEFFDD" style="stroke:#181818;stroke-width:0.5;"/><text fill="#000000" font-family="sans-serif" font-size="13" lengthAdjust="spacing" textLength="116" x="327" y="521.4951">editarCargaTrabajo()</text></g><!--link abrirOpcionesCargaTrabajo to PANEL_PRINCIPAL_ABIERTO--><g id="link_abrirOpcionesCargaTrabajo_PANEL_PRINCIPAL_ABIERTO"><path d="M476.48,468.34 C489.46,486.23 498,498 498,498 C498,498 512.6148,531.7145 524.1648,558.3745 " fill="none" id="abrirOpcionesCargaTrabajo-to-PANEL_PRINCIPAL_ABIERTO" style="stroke:#008000;stroke-width:1.0;"/><polygon fill="#008000" points="526.55,563.88,526.6426,554.0316,524.5623,559.2921,519.3019,557.2118,526.55,563.88" style="stroke:#008000;stroke-width:1.0;"/><path d="M517,503 L517,529 L654,529 L654,513 L644,503 L517,503 " fill="#FEFFDD" style="stroke:#181818;stroke-width:0.5;"/><path d="M644,503 L644,513 L654,513 L644,503 " fill="#FEFFDD" style="stroke:#181818;stroke-width:0.5;"/><text fill="#000000" font-family="sans-serif" font-size="13" lengthAdjust="spacing" textLength="116" x="523" y="521.4951">abrirPanelPrincipal()</text></g><!--SRC=[jLEnRjim4Dtr5GTrIGe4HfOEHM10KOtMHM09jhSWC4xKmRs68WMIDkeM1VehoTwfd-0_oPU4f5mdQgEXGwL1H-hTU-_kI7lBgaM33KXMv7OjGQlbBYoIn3fq1ApE0IsaPJQRNAtA-NIMJyliQfLTJYVpPP4c0N1s_MfjYDJDsHYmCcoALh1MP7CqQrmQhF2p_iqu28WwWtzFJbFubYJWduudzQ_FY1XLwxvKW5s_lkavUn4PW4fxEgr24sxZnaKrphKsDIkijRaOLMEm94a4LmXf982Qm1sCizgITRmEQB9fv21LH-BEoqlQFNFUxA2N1Lj73KOVpSOh6GI98FwqWS9jKBwDQGy_xk63Dhv1jHQa75bVGeCAfOzEcltT5suqdB-1JwDk__IOzixB6QusWlU_L9Sk667qL6RtPmJhiFJXCRKqUaV2QHkyy3PyhVR9TOXwdljSHu9iorQ3PMyMxAObNwaECKg1wYi2IP3xdmtx9XtgwZVxUv8Cdw_d_IxAV5hC9ejLditVPwlbFBlCFXQ7OvqjajuSIbGEfOp6_-fweyD0QaoU9luVB53D3at_Glopui0bxYj5AbynoTAmdtoByhdK8m00]--></g></svg>