<svg xmlns="http://www.w3.org/2000/svg" xmlns:xlink="http://www.w3.org/1999/xlink" contentStyleType="text/css" data-diagram-type="STATE" height="650px" preserveAspectRatio="none" style="width:379px;height:650px;background:#FFFFFF;" version="1.1" viewBox="0 0 379 650" width="379px" zoomAndPan="magnify"><defs/><g><path d="M19.5,7 L353.5,7 A12.5,12.5 0 0 1 366,19.5 L366,33.2969 L7,33.2969 L7,19.5 A12.5,12.5 0 0 1 19.5,7" fill="#F1F1F1"/><rect fill="none" height="492.2969" rx="12.5" ry="12.5" style="stroke:#181818;stroke-width:0.5;" width="359" x="7" y="7"/><line style="stroke:#181818;stroke-width:0.5;" x1="7" x2="366" y1="33.2969" y2="33.2969"/><text fill="#000000" font-family="sans-serif" font-size="14" lengthAdjust="spacing" textLength="138.9814" x="117.0093" y="24.9951">abrirPublicaciones()</text><g><rect fill="#F1F1F1" height="50" rx="12.5" ry="12.5" style="stroke:#181818;stroke-width:0.5;" width="50" x="19" y="135.2969"/><line style="stroke:#181818;stroke-width:0.5;" x1="19" x2="69" y1="161.5938" y2="161.5938"/><text fill="#000000" font-family="sans-serif" font-size="14" lengthAdjust="spacing" textLength="4.4502" x="41.7749" y="153.292">&#160;</text></g><g><rect fill="#F1F1F1" height="50" rx="12.5" ry="12.5" style="stroke:#181818;stroke-width:0.5;" width="50" x="19" y="346.2969"/><line style="stroke:#181818;stroke-width:0.5;" x1="19" x2="69" y1="372.5938" y2="372.5938"/><text fill="#000000" font-family="sans-serif" font-size="14" lengthAdjust="spacing" textLength="4.4502" x="41.7749" y="364.292">&#160;</text></g><ellipse cx="44" cy="54.2969" fill="#222222" rx="10" ry="10" style="stroke:#222222;stroke-width:1;"/><ellipse cx="44" cy="478.2969" fill="none" rx="11" ry="11" style="stroke:#222222;stroke-width:1;"/><ellipse cx="44" cy="478.2969" fill="#222222" rx="6" ry="6" style="stroke:#222222;stroke-width:1;"/><!--link *start*abrirPublicaciones to MostrandoListado--><g class="link" data-entity-1="ent0002" data-entity-2="ent0003" data-link-type="dependency" data-source-line="8" id="lnk3"><path d="M44,64.5269 C44,80.2369 44,106.6569 44,129.1669" fill="none" id="*start*abrirPublicaciones-to-MostrandoListado" style="stroke:#008000;stroke-width:1;"/><polygon fill="#008000" points="44,135.1669,48,126.1669,44,130.1669,40,126.1669,44,135.1669" style="stroke:#008000;stroke-width:1;"/><path d="M49,87.2969 L49,112.2969 L337,112.2969 L337,97.2969 L327,87.2969 L49,87.2969" fill="#FEFFDD" style="stroke:#181818;stroke-width:0.5;"/><path d="M327,87.2969 L327,97.2969 L337,97.2969 L327,87.2969" fill="#FEFFDD" style="stroke:#181818;stroke-width:0.5;"/><text fill="#000000" font-family="sans-serif" font-size="13" font-weight="bold" lengthAdjust="spacing" textLength="90.251" x="55" y="104.3638">Coordinador</text><text fill="#000000" font-family="sans-serif" font-size="13" lengthAdjust="spacing" textLength="173.3608" x="149.3833" y="104.3638">solicita abrir publicaciones</text></g><!--link MostrandoListado to FiltrandoListado--><g class="link" data-entity-1="ent0003" data-entity-2="ent0004" data-link-type="dependency" data-source-line="13" id="lnk4"><path d="M44,185.6769 C44,225.9569 44,299.8969 44,340.0669" fill="none" id="MostrandoListado-to-FiltrandoListado" style="stroke:#008000;stroke-width:1;"/><polygon fill="#008000" points="44,346.0669,48,337.0669,44,341.0669,40,337.0669,44,346.0669" style="stroke:#008000;stroke-width:1;"/><path d="M49,208.2969 L49,323.2969 L351,323.2969 L351,218.2969 L341,208.2969 L49,208.2969" fill="#FEFFDD" style="stroke:#181818;stroke-width:0.5;"/><path d="M341,208.2969 L341,218.2969 L351,218.2969 L341,208.2969" fill="#FEFFDD" style="stroke:#181818;stroke-width:0.5;"/><text fill="#000000" font-family="sans-serif" font-size="13" font-weight="bold" lengthAdjust="spacing" textLength="58.9063" x="55" y="225.3638">Sistema</text><text fill="#000000" font-family="sans-serif" font-size="13" lengthAdjust="spacing" textLength="218.3848" x="118.0386" y="225.3638">presenta listado de publicaciones</text><text fill="#000000" font-family="sans-serif" font-size="13" lengthAdjust="spacing" textLength="48.2549" x="55" y="240.4966">&#8226; T&#237;tulo</text><text fill="#000000" font-family="sans-serif" font-size="13" lengthAdjust="spacing" textLength="47.3281" x="55" y="255.6294">&#8226; Autor</text><text fill="#000000" font-family="sans-serif" font-size="13" lengthAdjust="spacing" textLength="50.6289" x="55" y="270.7622">&#8226; Fecha</text><text fill="#000000" font-family="sans-serif" font-size="13" font-weight="bold" lengthAdjust="spacing" textLength="58.9063" x="55" y="285.895">Sistema</text><text fill="#000000" font-family="sans-serif" font-size="13" lengthAdjust="spacing" textLength="110.5952" x="118.0386" y="285.895">permite solicitar:</text><text fill="#000000" font-family="sans-serif" font-size="13" lengthAdjust="spacing" textLength="120.4849" x="55" y="301.0278">&#8226; abrir publicaci&#243;n</text><text fill="#000000" font-family="sans-serif" font-size="13" lengthAdjust="spacing" textLength="94.7515" x="55" y="316.1606">&#8226; filtrar listado</text></g><!--link FiltrandoListado to *end*abrirPublicaciones--><g class="link" data-entity-1="ent0004" data-entity-2="ent0005" data-link-type="dependency" data-source-line="24" id="lnk6"><path d="M44,396.6469 C44,418.9469 44,444.8569 44,461.0369" fill="none" id="FiltrandoListado-to-*end*abrirPublicaciones" style="stroke:#008000;stroke-width:1;"/><polygon fill="#008000" points="44,467.0369,48,458.0369,44,462.0369,40,458.0369,44,467.0369" style="stroke:#008000;stroke-width:1;"/><path d="M49,419.2969 L49,444.2969 L357,444.2969 L357,429.2969 L347,419.2969 L49,419.2969" fill="#FEFFDD" style="stroke:#181818;stroke-width:0.5;"/><path d="M347,419.2969 L347,429.2969 L357,429.2969 L347,419.2969" fill="#FEFFDD" style="stroke:#181818;stroke-width:0.5;"/><text fill="#000000" font-family="sans-serif" font-size="13" font-weight="bold" lengthAdjust="spacing" textLength="90.251" x="55" y="436.3638">Coordinador</text><text fill="#000000" font-family="sans-serif" font-size="13" lengthAdjust="spacing" textLength="193.0322" x="149.3833" y="436.3638">solicita una opci&#243;n del listado</text></g><g><rect fill="#F1F1F1" height="50" rx="12.5" ry="12.5" style="stroke:#181818;stroke-width:0.5;" width="208.6035" x="82.2" y="594.3"/><line style="stroke:#181818;stroke-width:0.5;" x1="82.2" x2="290.8035" y1="620.5969" y2="620.5969"/><text fill="#000000" font-family="sans-serif" font-size="14" lengthAdjust="spacing" textLength="188.6035" x="92.2" y="612.2951">PUBLICACIONES_ABIERTAS</text></g><!--link abrirPublicaciones to PUBLICACIONES_ABIERTAS--><g class="link" data-entity-1="ent0002" data-entity-2="ent0007" data-link-type="dependency" data-source-line="30" id="lnk8"><path d="M186.5,499.57 C186.5,538.03 186.5,566.18 186.5,587.87" fill="none" id="abrirPublicaciones-to-PUBLICACIONES_ABIERTAS" style="stroke:#008000;stroke-width:1;"/><polygon fill="#008000" points="186.5,593.87,190.5,584.87,186.5,588.87,182.5,584.87,186.5,593.87" style="stroke:#008000;stroke-width:1;"/><path d="M191.5,534.3 L191.5,559.3 L326.5,559.3 L326.5,544.3 L316.5,534.3 L191.5,534.3" fill="#FEFFDD" style="stroke:#181818;stroke-width:0.5;"/><path d="M316.5,534.3 L316.5,544.3 L326.5,544.3 L316.5,534.3" fill="#FEFFDD" style="stroke:#181818;stroke-width:0.5;"/><text fill="#000000" font-family="sans-serif" font-size="13" lengthAdjust="spacing" textLength="114.2832" x="197.5" y="551.3669">abrirPublicacion()</text></g><!--SRC=[bP9DQiCm48NtEeLmDqaXT5-2mJ496D8srEagX2BRqrP4rWX9NeHIw5cwxwf7o4rwaYfARUAVBcgjPZJptZSZcnsNYcbMKi4bsBq2gb3iZm4XnZ8Bb6MQwrML2PwpdAC4GvcXGJyz6WVqbH3glbDdu8uhlK5ZDPC5BhdB5zYlM73Hhl0bcyijdMmkdZM0t4x2OHs9JWRb4N_d4zCiZ15rmQKhqTEhBAG67IItx3GALUVGlWTauOLElbsV5aGFzI-8rDr3oJo0qc10EW3ngrZ00CNt-mTT7pvj9R29eygYRg85v2ziq01qoHr3FQc-RdewCn- -P7Frv6VHDTN0AhhJjbRXtkV_Jr19Hb5v3hS5CUpzHiZ0NtVklNgOBPCuYfExstdw6CsI-VqwIaaBfIin6fFQuGS0]--></g></svg>