<?xml version="1.0" encoding="us-ascii" standalone="no"?><svg xmlns="http://www.w3.org/2000/svg" xmlns:xlink="http://www.w3.org/1999/xlink" contentStyleType="text/css" height="653px" preserveAspectRatio="none" style="width:706px;height:653px;background:#FFFFFF;" version="1.1" viewBox="0 0 706 653" width="706px" zoomAndPan="magnify"><defs/><g><g id="in1"><rect fill="#F1F1F1" height="50" rx="12.5" ry="12.5" style="stroke:#181818;stroke-width:0.5;" width="215" x="239" y="7"/><line style="stroke:#181818;stroke-width:0.5;" x1="239" x2="454" y1="34.6094" y2="34.6094"/><text fill="#000000" font-family="sans-serif" font-size="14" lengthAdjust="spacing" textLength="195" x="249" y="26.5332">CONVOCATORIAS_ABIERTAS</text></g><path d="M137.5,118 L555.5,118 A12.5,12.5 0 0 1 568,130.5 L568,145.6094 L125,145.6094 L125,130.5 A12.5,12.5 0 0 1 137.5,118 " fill="#F1F1F1" style="stroke:#F1F1F1;stroke-width:1.0;"/><rect fill="none" height="382.6094" rx="12.5" ry="12.5" style="stroke:#181818;stroke-width:0.5;" width="443" x="125" y="118"/><line style="stroke:#181818;stroke-width:0.5;" x1="125" x2="568" y1="145.6094" y2="145.6094"/><text fill="#000000" font-family="sans-serif" font-size="14" lengthAdjust="spacing" textLength="123" x="285" y="137.5332">abrirConvocatoria()</text><g id="abrirConvocatoria.CargandoDetalle"><rect fill="#F1F1F1" height="50" rx="12.5" ry="12.5" style="stroke:#181818;stroke-width:0.5;" width="50" x="137" y="248.6094"/><line style="stroke:#181818;stroke-width:0.5;" x1="137" x2="187" y1="276.2188" y2="276.2188"/><text fill="#000000" font-family="sans-serif" font-size="14" lengthAdjust="spacing" textLength="4" x="160" y="268.1426">&#160;</text></g><ellipse cx="162" cy="166.6094" fill="#222222" rx="10" ry="10" style="stroke:#222222;stroke-width:1.0;"/><ellipse cx="162" cy="479.6094" fill="none" rx="11" ry="11" style="stroke:#222222;stroke-width:1.0;"/><ellipse cx="162" cy="479.6094" fill="#222222" rx="6" ry="6" style="stroke:#222222;stroke-width:1.0;"/><!--link *start*abrirConvocatoria to CargandoDetalle--><g id="link_*start*abrirConvocatoria_CargandoDetalle"><path d="M162,176.9294 C162,192.7894 162,219.5194 162,242.2494 " fill="none" id="*start*abrirConvocatoria-to-CargandoDetalle" style="stroke:#008000;stroke-width:1.0;"/><polygon fill="#008000" points="162,248.2494,166,239.2494,162,243.2494,158,239.2494,162,248.2494" style="stroke:#008000;stroke-width:1.0;"/><path d="M167,199.6094 L167,225.6094 L434,225.6094 L434,209.6094 L424,199.6094 L167,199.6094 " fill="#FEFFDD" style="stroke:#181818;stroke-width:0.5;"/><path d="M424,199.6094 L424,209.6094 L434,209.6094 L424,199.6094 " fill="#FEFFDD" style="stroke:#181818;stroke-width:0.5;"/><text fill="#000000" font-family="sans-serif" font-size="13" font-weight="bold" lengthAdjust="spacing" textLength="79" x="173" y="218.1045">Coordinador</text><text fill="#000000" font-family="sans-serif" font-size="13" lengthAdjust="spacing" textLength="163" x="256" y="218.1045">selecciona una convocatoria</text></g><!--link CargandoDetalle to *end*abrirConvocatoria--><g id="link_CargandoDetalle_*end*abrirConvocatoria"><path d="M162,298.8094 C162,343.5594 162,431.4994 162,462.4694 " fill="none" id="CargandoDetalle-to-*end*abrirConvocatoria" style="stroke:#008000;stroke-width:1.0;"/><polygon fill="#008000" points="162,468.4694,166,459.4694,162,463.4694,158,459.4694,162,468.4694" style="stroke:#008000;stroke-width:1.0;"/><path d="M167,321.6094 L167,445.6094 L559,445.6094 L559,331.6094 L549,321.6094 L167,321.6094 " fill="#FEFFDD" style="stroke:#181818;stroke-width:0.5;"/><path d="M549,321.6094 L549,331.6094 L559,331.6094 L549,321.6094 " fill="#FEFFDD" style="stroke:#181818;stroke-width:0.5;"/><text fill="#000000" font-family="sans-serif" font-size="13" font-weight="bold" lengthAdjust="spacing" textLength="51" x="173" y="340.1045">Sistema</text><text fill="#000000" font-family="sans-serif" font-size="13" lengthAdjust="spacing" textLength="281" x="228" y="340.1045">recupera los datos de la convocatoria y muestra:</text><text fill="#000000" font-family="sans-serif" font-size="13" lengthAdjust="spacing" textLength="371" x="173" y="356.4561">&#8226; Informaci&#243;n general (identificador, t&#237;tulo, &#225;rea, estado y fechas)</text><text fill="#000000" font-family="sans-serif" font-size="13" lengthAdjust="spacing" textLength="185" x="173" y="372.8076">&#8226; Descripci&#243;n de la convocatoria</text><text fill="#000000" font-family="sans-serif" font-size="13" lengthAdjust="spacing" textLength="249" x="173" y="389.1592">&#8226; Requisitos y condiciones de participaci&#243;n</text><text fill="#000000" font-family="sans-serif" font-size="13" lengthAdjust="spacing" textLength="203" x="173" y="405.5107">&#8226; Criterios de evaluaci&#243;n y dotaci&#243;n</text><text fill="#000000" font-family="sans-serif" font-size="13" lengthAdjust="spacing" textLength="155" x="173" y="421.8623">&#8226; Documentaci&#243;n asociada</text><text fill="#000000" font-family="sans-serif" font-size="13" lengthAdjust="spacing" textLength="147" x="173" y="438.2139">&#8226; Informaci&#243;n de contacto</text></g><g id="CONVOCATORIA_ABIERTA"><rect fill="#F1F1F1" height="50" rx="12.5" ry="12.5" style="stroke:#181818;stroke-width:0.5;" width="197" x="7" y="597"/><line style="stroke:#181818;stroke-width:0.5;" x1="7" x2="204" y1="624.6094" y2="624.6094"/><text fill="#000000" font-family="sans-serif" font-size="14" lengthAdjust="spacing" textLength="177" x="17" y="616.5332">CONVOCATORIA_ABIERTA</text></g><g id="CONVOCATORIAS_ABIERTAS"><rect fill="#F1F1F1" height="50" rx="12.5" ry="12.5" style="stroke:#181818;stroke-width:0.5;" width="215" x="239" y="597"/><line style="stroke:#181818;stroke-width:0.5;" x1="239" x2="454" y1="624.6094" y2="624.6094"/><text fill="#000000" font-family="sans-serif" font-size="14" lengthAdjust="spacing" textLength="195" x="249" y="616.5332">CONVOCATORIAS_ABIERTAS</text></g><g id="PANEL_PRINCIPAL_ABIERTO"><rect fill="#F1F1F1" height="50" rx="12.5" ry="12.5" style="stroke:#181818;stroke-width:0.5;" width="210" x="489.5" y="597"/><line style="stroke:#181818;stroke-width:0.5;" x1="489.5" x2="699.5" y1="624.6094" y2="624.6094"/><text fill="#000000" font-family="sans-serif" font-size="14" lengthAdjust="spacing" textLength="190" x="499.5" y="616.5332">PANEL_PRINCIPAL_ABIERTO</text></g><!--link in1 to abrirConvocatoria--><g id="link_in1_abrirConvocatoria"><path d="M346.5,57.45 C346.5,72.79 346.5,88.15 346.5,111.99 " fill="none" id="in1-to-abrirConvocatoria" style="stroke:#008000;stroke-width:1.0;"/><polygon fill="#008000" points="346.5,117.99,350.5,108.99,346.5,112.99,342.5,108.99,346.5,117.99" style="stroke:#008000;stroke-width:1.0;"/></g><!--link abrirConvocatoria to CONVOCATORIA_ABIERTA--><g id="link_abrirConvocatoria_CONVOCATORIA_ABIERTA"><path d="M198.33,501.4 C168.8,539.45 145.2895,569.7407 128.0695,591.9207 " fill="none" id="abrirConvocatoria-to-CONVOCATORIA_ABIERTA" style="stroke:#008000;stroke-width:1.0;"/><polygon fill="#008000" points="124.39,596.66,133.0688,592.004,127.4563,592.7106,126.7497,587.098,124.39,596.66" style="stroke:#008000;stroke-width:1.0;"/><path d="M175.5,536 L175.5,562 L328.5,562 L328.5,546 L318.5,536 L175.5,536 " fill="#FEFFDD" style="stroke:#181818;stroke-width:0.5;"/><path d="M318.5,536 L318.5,546 L328.5,546 L318.5,536 " fill="#FEFFDD" style="stroke:#181818;stroke-width:0.5;"/><text fill="#000000" font-family="sans-serif" font-size="13" lengthAdjust="spacing" textLength="132" x="181.5" y="554.4951">Convocatoria mostrada</text></g><!--link abrirConvocatoria to CONVOCATORIAS_ABIERTAS--><g id="link_abrirConvocatoria_CONVOCATORIAS_ABIERTAS"><path d="M346.5,501.4 C346.5,539.45 346.5,568.48 346.5,590.66 " fill="none" id="abrirConvocatoria-to-CONVOCATORIAS_ABIERTAS" style="stroke:#008000;stroke-width:1.0;"/><polygon fill="#008000" points="346.5,596.66,350.5,587.66,346.5,591.66,342.5,587.66,346.5,596.66" style="stroke:#008000;stroke-width:1.0;"/><path d="M351.5,536 L351.5,562 L486.5,562 L486.5,546 L476.5,536 L351.5,536 " fill="#FEFFDD" style="stroke:#181818;stroke-width:0.5;"/><path d="M476.5,536 L476.5,546 L486.5,546 L476.5,536 " fill="#FEFFDD" style="stroke:#181818;stroke-width:0.5;"/><text fill="#000000" font-family="sans-serif" font-size="13" lengthAdjust="spacing" textLength="114" x="357.5" y="554.4951">abrirConvocatorias()</text></g><!--link abrirConvocatoria to PANEL_PRINCIPAL_ABIERTO--><g id="link_abrirConvocatoria_PANEL_PRINCIPAL_ABIERTO"><path d="M498.97,501.4 C529.36,539.45 553.5949,569.7923 571.3149,591.9723 " fill="none" id="abrirConvocatoria-to-PANEL_PRINCIPAL_ABIERTO" style="stroke:#008000;stroke-width:1.0;"/><polygon fill="#008000" points="575.06,596.66,572.5675,587.1318,571.9391,592.7536,566.3173,592.1252,575.06,596.66" style="stroke:#008000;stroke-width:1.0;"/><path d="M551.5,536 L551.5,562 L688.5,562 L688.5,546 L678.5,536 L551.5,536 " fill="#FEFFDD" style="stroke:#181818;stroke-width:0.5;"/><path d="M678.5,536 L678.5,546 L688.5,546 L678.5,536 " fill="#FEFFDD" style="stroke:#181818;stroke-width:0.5;"/><text fill="#000000" font-family="sans-serif" font-size="13" lengthAdjust="spacing" textLength="116" x="557.5" y="554.4951">abrirPanelPrincipal()</text></g><!--SRC=[ZLF1Qjj04BthAmRtOXU7qci91aNEGH1iOOTUGWZZtR4xPBMhxgu2eXJwA-szftw2_wHVqbt9SImhXKX8i3jltdkpC-iUMLTeiGJ5cdnJ4LH6DN6H9CwZ9s3z4T31A5ikFY-pz7QvojFrGtgLNwzkq_KeYV6BktSxIwJlBsQ06yisC_h92FJ6CZuJ3G8jxM1tF1d1joI1y7Hve_06P8PsXrgQENbKYZh4tVlxdlWvA6Aq2IH6nmeVsutBpImpnahMA8sz_B2PWID5Gh3H27NunAdzc49QjZoTwfbApq5mz5_LDJjF9RQAbaHTaKLGne4CKk5FeFhQq41Pa_CMFxKSVt_yWbnlZIrHyFwFXXtfmA5Wp9AqvosBMD8K_FwthvMPmlwd9Pn2u0Y1GBSbyGNTvCWs9oSiLntRqC0HjwAlDJkEDfk8a1nFYrhJOO1yM5QTfsDAPjcJvQumUa9L7qmt88q_0y-DgCjGmW62pWX6YQzN7VY2XO3rfj-TxqaodBBUV9mCyVCC9xrMzL9B4yy-s7Zf_zlvNov9Ns70uCQJDmiKwUBwvg5OvOiiBzARWyJo5OK2DQd2iewTKQSI_m00]--></g></svg>