<?xml version="1.0" encoding="us-ascii" standalone="no"?><svg xmlns="http://www.w3.org/2000/svg" xmlns:xlink="http://www.w3.org/1999/xlink" contentStyleType="text/css" height="828px" preserveAspectRatio="none" style="width:417px;height:828px;background:#FFFFFF;" version="1.1" viewBox="0 0 417 828" width="417px" zoomAndPan="magnify"><defs/><g><path d="M19.5,153 L391.5,153 A12.5,12.5 0 0 1 404,165.5 L404,180.6094 L7,180.6094 L7,165.5 A12.5,12.5 0 0 1 19.5,153 " fill="#F1F1F1" style="stroke:#F1F1F1;stroke-width:1.0;"/><rect fill="none" height="522.6094" rx="12.5" ry="12.5" style="stroke:#181818;stroke-width:0.5;" width="397" x="7" y="153"/><line style="stroke:#181818;stroke-width:0.5;" x1="7" x2="404" y1="180.6094" y2="180.6094"/><text fill="#000000" font-family="sans-serif" font-size="14" lengthAdjust="spacing" textLength="123" x="144" y="172.5332">abrirConvocatoria()</text><g id="abrirConvocatoria.MostrandoListaConvocatorias"><rect fill="#F1F1F1" height="50" rx="12.5" ry="12.5" style="stroke:#181818;stroke-width:0.5;" width="50" x="19" y="283.6094"/><line style="stroke:#181818;stroke-width:0.5;" x1="19" x2="69" y1="311.2188" y2="311.2188"/><text fill="#000000" font-family="sans-serif" font-size="14" lengthAdjust="spacing" textLength="4" x="42" y="303.1426">&#160;</text></g><g id="abrirConvocatoria.SeleccionandoConvocatoria"><rect fill="#F1F1F1" height="50" rx="12.5" ry="12.5" style="stroke:#181818;stroke-width:0.5;" width="50" x="19" y="520.6094"/><line style="stroke:#181818;stroke-width:0.5;" x1="19" x2="69" y1="548.2188" y2="548.2188"/><text fill="#000000" font-family="sans-serif" font-size="14" lengthAdjust="spacing" textLength="4" x="42" y="540.1426">&#160;</text></g><ellipse cx="44" cy="201.6094" fill="#222222" rx="10" ry="10" style="stroke:#222222;stroke-width:1.0;"/><ellipse cx="44" cy="654.6094" fill="none" rx="11" ry="11" style="stroke:#222222;stroke-width:1.0;"/><ellipse cx="44" cy="654.6094" fill="#222222" rx="6" ry="6" style="stroke:#222222;stroke-width:1.0;"/><!--link *start*abrirConvocatoria to MostrandoListaConvocatorias--><g id="link_*start*abrirConvocatoria_MostrandoListaConvocatorias"><path d="M44,211.9294 C44,227.7894 44,254.5194 44,277.2494 " fill="none" id="*start*abrirConvocatoria-to-MostrandoListaConvocatorias" style="stroke:#008000;stroke-width:1.0;"/><polygon fill="#008000" points="44,283.2494,48,274.2494,44,278.2494,40,274.2494,44,283.2494" style="stroke:#008000;stroke-width:1.0;"/><path d="M49,234.6094 L49,260.6094 L306,260.6094 L306,244.6094 L296,234.6094 L49,234.6094 " fill="#FEFFDD" style="stroke:#181818;stroke-width:0.5;"/><path d="M296,234.6094 L296,244.6094 L306,244.6094 L296,234.6094 " fill="#FEFFDD" style="stroke:#181818;stroke-width:0.5;"/><text fill="#000000" font-family="sans-serif" font-size="13" font-weight="bold" lengthAdjust="spacing" textLength="79" x="55" y="253.1045">Coordinador</text><text fill="#000000" font-family="sans-serif" font-size="13" lengthAdjust="spacing" textLength="153" x="138" y="253.1045">solicita abrir convocatorias</text></g><!--link MostrandoListaConvocatorias to SeleccionandoConvocatoria--><g id="link_MostrandoListaConvocatorias_SeleccionandoConvocatoria"><path d="M44,333.8694 C44,379.0194 44,469.4294 44,514.4794 " fill="none" id="MostrandoListaConvocatorias-to-SeleccionandoConvocatoria" style="stroke:#008000;stroke-width:1.0;"/><polygon fill="#008000" points="44,520.4794,48,511.4794,44,515.4794,40,511.4794,44,520.4794" style="stroke:#008000;stroke-width:1.0;"/><path d="M49,356.6094 L49,496.6094 L331,496.6094 L331,366.6094 L321,356.6094 L49,356.6094 " fill="#FEFFDD" style="stroke:#181818;stroke-width:0.5;"/><path d="M321,356.6094 L321,366.6094 L331,366.6094 L321,356.6094 " fill="#FEFFDD" style="stroke:#181818;stroke-width:0.5;"/><text fill="#000000" font-family="sans-serif" font-size="13" font-weight="bold" lengthAdjust="spacing" textLength="51" x="55" y="375.1045">Sistema</text><text fill="#000000" font-family="sans-serif" font-size="13" lengthAdjust="spacing" textLength="179" x="110" y="375.1045">presenta lista de convocatorias</text><text fill="#000000" font-family="sans-serif" font-size="13" lengthAdjust="spacing" textLength="21" x="55" y="391.4561">&#8226; ID</text><text fill="#000000" font-family="sans-serif" font-size="13" lengthAdjust="spacing" textLength="40" x="55" y="407.8076">&#8226; T&#237;tulo</text><text fill="#000000" font-family="sans-serif" font-size="13" lengthAdjust="spacing" textLength="158" x="55" y="424.1592">&#8226; Estado de la convocatoria</text><text fill="#000000" font-family="sans-serif" font-size="13" lengthAdjust="spacing" textLength="125" x="55" y="440.5107">&#8226; Fecha de inicio y fin</text><text fill="#000000" font-family="sans-serif" font-size="13" lengthAdjust="spacing" textLength="77" x="55" y="456.8623">&#8226; Descripci&#243;n</text><text fill="#000000" font-family="sans-serif" font-size="13" lengthAdjust="spacing" textLength="261" x="55" y="473.2139">&#8226; Permite solicitar filtrar/buscar convocatorias</text><text fill="#000000" font-family="sans-serif" font-size="13" lengthAdjust="spacing" textLength="233" x="55" y="489.5654">&#8226; Permite solicitar abrir una convocatoria</text></g><!--link SeleccionandoConvocatoria to SeleccionandoConvocatoria--><g id="link_SeleccionandoConvocatoria_SeleccionandoConvocatoria"><path d="M69.18,534.0294 C78.91,533.5194 87,537.3794 87,545.6094 C87,553.8394 84.9018,558.0134 75.1718,557.5034 " fill="none" id="SeleccionandoConvocatoria-to-SeleccionandoConvocatoria" style="stroke:#008000;stroke-width:1.0;"/><polygon fill="#008000" points="69.18,557.1894,77.9583,561.655,74.1731,557.4511,78.377,553.6659,69.18,557.1894" style="stroke:#008000;stroke-width:1.0;"/><path d="M92,524.6094 L92,566.6094 L395,566.6094 L395,534.6094 L385,524.6094 L92,524.6094 " fill="#FEFFDD" style="stroke:#181818;stroke-width:0.5;"/><path d="M385,524.6094 L385,534.6094 L395,534.6094 L385,524.6094 " fill="#FEFFDD" style="stroke:#181818;stroke-width:0.5;"/><text fill="#000000" font-family="sans-serif" font-size="13" font-weight="bold" lengthAdjust="spacing" textLength="79" x="98" y="543.1045">Coordinador</text><text fill="#000000" font-family="sans-serif" font-size="13" lengthAdjust="spacing" textLength="199" x="181" y="543.1045">solicita filtrar/buscar convocatorias</text><text fill="#000000" font-family="sans-serif" font-size="13" font-weight="bold" lengthAdjust="spacing" textLength="51" x="98" y="559.4561">Sistema</text><text fill="#000000" font-family="sans-serif" font-size="13" lengthAdjust="spacing" textLength="120" x="153" y="559.4561">presenta lista filtrada</text></g><!--link SeleccionandoConvocatoria to *end*abrirConvocatoria--><g id="link_SeleccionandoConvocatoria_*end*abrirConvocatoria"><path d="M44,570.6194 C44,593.5394 44,620.9694 44,637.5294 " fill="none" id="SeleccionandoConvocatoria-to-*end*abrirConvocatoria" style="stroke:#008000;stroke-width:1.0;"/><polygon fill="#008000" points="44,643.5294,48,634.5294,44,638.5294,40,634.5294,44,643.5294" style="stroke:#008000;stroke-width:1.0;"/><path d="M49,594.6094 L49,620.6094 L384,620.6094 L384,604.6094 L374,594.6094 L49,594.6094 " fill="#FEFFDD" style="stroke:#181818;stroke-width:0.5;"/><path d="M374,594.6094 L374,604.6094 L384,604.6094 L374,594.6094 " fill="#FEFFDD" style="stroke:#181818;stroke-width:0.5;"/><text fill="#000000" font-family="sans-serif" font-size="13" font-weight="bold" lengthAdjust="spacing" textLength="79" x="55" y="613.1045">Coordinador</text><text fill="#000000" font-family="sans-serif" font-size="13" lengthAdjust="spacing" textLength="231" x="138" y="613.1045">solicita abrir una convocatoria de la lista</text></g><g id="CONVOCATORIAS_ABIERTAS"><rect fill="#F1F1F1" height="50" rx="12.5" ry="12.5" style="stroke:#181818;stroke-width:0.5;" width="215" x="98" y="7"/><line style="stroke:#181818;stroke-width:0.5;" x1="98" x2="313" y1="34.6094" y2="34.6094"/><text fill="#000000" font-family="sans-serif" font-size="14" lengthAdjust="spacing" textLength="195" x="108" y="26.5332">CONVOCATORIAS_ABIERTAS</text></g><g id="CONVOCATORIA_ABIERTA"><rect fill="#F1F1F1" height="50" rx="12.5" ry="12.5" style="stroke:#181818;stroke-width:0.5;" width="197" x="107" y="772"/><line style="stroke:#181818;stroke-width:0.5;" x1="107" x2="304" y1="799.6094" y2="799.6094"/><text fill="#000000" font-family="sans-serif" font-size="14" lengthAdjust="spacing" textLength="177" x="117" y="791.5332">CONVOCATORIA_ABIERTA</text></g><!--link CONVOCATORIAS_ABIERTAS to abrirConvocatoria--><g id="link_CONVOCATORIAS_ABIERTAS_abrirConvocatoria"><path d="M205.5,57.09 C205.5,78.9 205.5,107.57 205.5,146.9 " fill="none" id="CONVOCATORIAS_ABIERTAS-to-abrirConvocatoria" style="stroke:#008000;stroke-width:1.0;"/><polygon fill="#008000" points="205.5,152.9,209.5,143.9,205.5,147.9,201.5,143.9,205.5,152.9" style="stroke:#008000;stroke-width:1.0;"/><path d="M210.5,92 L210.5,118 L338.5,118 L338.5,102 L328.5,92 L210.5,92 " fill="#FEFFDD" style="stroke:#181818;stroke-width:0.5;"/><path d="M328.5,92 L328.5,102 L338.5,102 L328.5,92 " fill="#FEFFDD" style="stroke:#181818;stroke-width:0.5;"/><text fill="#000000" font-family="sans-serif" font-size="13" lengthAdjust="spacing" textLength="107" x="216.5" y="110.4951">abrirConvocatoria()</text></g><!--link abrirConvocatoria to CONVOCATORIA_ABIERTA--><g id="link_abrirConvocatoria_CONVOCATORIA_ABIERTA"><path d="M205.5,676.13 C205.5,715.44 205.5,744.08 205.5,765.88 " fill="none" id="abrirConvocatoria-to-CONVOCATORIA_ABIERTA" style="stroke:#008000;stroke-width:1.0;"/><polygon fill="#008000" points="205.5,771.88,209.5,762.88,205.5,766.88,201.5,762.88,205.5,771.88" style="stroke:#008000;stroke-width:1.0;"/><path d="M210.5,711 L210.5,737 L348.5,737 L348.5,721 L338.5,711 L210.5,711 " fill="#FEFFDD" style="stroke:#181818;stroke-width:0.5;"/><path d="M338.5,711 L338.5,721 L348.5,721 L338.5,711 " fill="#FEFFDD" style="stroke:#181818;stroke-width:0.5;"/><text fill="#000000" font-family="sans-serif" font-size="13" lengthAdjust="spacing" textLength="117" x="216.5" y="729.4951">Convocatoria abierta</text></g><!--SRC=[fLJHIiCm57tFLuJveiBO3un1dHC6wcGTlemXQNhLoxBSadJ24C5lyTqdFs5_ufUOjgvhxBh1R5-QstlEFUSqZPsZJeGH2wvGGxfAW2UaLjc2CPkA5BY839e-wHUI8YM3WWlBMxNgwLcBlpB6tLNWMkvsdJTaKoDqJDVewbM4hJU7e41A99q1ghq5yVHynjlJaoS3e6Vjta5kJOwQTEPjdXUwKQzFP6BK8YRJxKGzRacXn5GKFhciaO2ESw92mfwHdhHc9qt2GaS82v6BIWnOq4wKogRm67Re-dx_uCFByd6o_aoNYihrm05Zog1AUEYoumhaSywDsYL0VCKVKPTlBy5AWud4zTUsU0TcWKxw9ZJZ8ChbOJhHqafX6cJMOKNOIxr3cfztOux_JBjn6nmqjFzJ5V3uU2jkZn-xT__6-VlnSs6-dZV6-gFR-r4_c8p6mo1y22w6W_4a23qfjN-SUQ9s705iwxX-R5IfgzCtmtrs_yI948mpKTB_0000]--></g></svg>