<?xml version="1.0" encoding="us-ascii" standalone="no"?><svg xmlns="http://www.w3.org/2000/svg" xmlns:xlink="http://www.w3.org/1999/xlink" contentStyleType="text/css" height="688px" preserveAspectRatio="none" style="width:463px;height:688px;background:#FFFFFF;" version="1.1" viewBox="0 0 463 688" width="463px" zoomAndPan="magnify"><defs/><g><path d="M19.5,153 L437.5,153 A12.5,12.5 0 0 1 450,165.5 L450,180.6094 L7,180.6094 L7,165.5 A12.5,12.5 0 0 1 19.5,153 " fill="#F1F1F1" style="stroke:#F1F1F1;stroke-width:1.0;"/><rect fill="none" height="382.6094" rx="12.5" ry="12.5" style="stroke:#181818;stroke-width:0.5;" width="443" x="7" y="153"/><line style="stroke:#181818;stroke-width:0.5;" x1="7" x2="450" y1="180.6094" y2="180.6094"/><text fill="#000000" font-family="sans-serif" font-size="14" lengthAdjust="spacing" textLength="123" x="167" y="172.5332">abrirConvocatoria()</text><g id="abrirConvocatoria.CargandoDetalle"><rect fill="#F1F1F1" height="50" rx="12.5" ry="12.5" style="stroke:#181818;stroke-width:0.5;" width="50" x="19" y="283.6094"/><line style="stroke:#181818;stroke-width:0.5;" x1="19" x2="69" y1="311.2188" y2="311.2188"/><text fill="#000000" font-family="sans-serif" font-size="14" lengthAdjust="spacing" textLength="4" x="42" y="303.1426">&#160;</text></g><ellipse cx="44" cy="201.6094" fill="#222222" rx="10" ry="10" style="stroke:#222222;stroke-width:1.0;"/><ellipse cx="44" cy="514.6094" fill="none" rx="11" ry="11" style="stroke:#222222;stroke-width:1.0;"/><ellipse cx="44" cy="514.6094" fill="#222222" rx="6" ry="6" style="stroke:#222222;stroke-width:1.0;"/><!--link *start*abrirConvocatoria to CargandoDetalle--><g id="link_*start*abrirConvocatoria_CargandoDetalle"><path d="M44,211.9294 C44,227.7894 44,254.5194 44,277.2494 " fill="none" id="*start*abrirConvocatoria-to-CargandoDetalle" style="stroke:#008000;stroke-width:1.0;"/><polygon fill="#008000" points="44,283.2494,48,274.2494,44,278.2494,40,274.2494,44,283.2494" style="stroke:#008000;stroke-width:1.0;"/><path d="M49,234.6094 L49,260.6094 L316,260.6094 L316,244.6094 L306,234.6094 L49,234.6094 " fill="#FEFFDD" style="stroke:#181818;stroke-width:0.5;"/><path d="M306,234.6094 L306,244.6094 L316,244.6094 L306,234.6094 " fill="#FEFFDD" style="stroke:#181818;stroke-width:0.5;"/><text fill="#000000" font-family="sans-serif" font-size="13" font-weight="bold" lengthAdjust="spacing" textLength="79" x="55" y="253.1045">Coordinador</text><text fill="#000000" font-family="sans-serif" font-size="13" lengthAdjust="spacing" textLength="163" x="138" y="253.1045">selecciona una convocatoria</text></g><!--link CargandoDetalle to *end*abrirConvocatoria--><g id="link_CargandoDetalle_*end*abrirConvocatoria"><path d="M44,333.8094 C44,378.5594 44,466.4994 44,497.4694 " fill="none" id="CargandoDetalle-to-*end*abrirConvocatoria" style="stroke:#008000;stroke-width:1.0;"/><polygon fill="#008000" points="44,503.4694,48,494.4694,44,498.4694,40,494.4694,44,503.4694" style="stroke:#008000;stroke-width:1.0;"/><path d="M49,356.6094 L49,480.6094 L441,480.6094 L441,366.6094 L431,356.6094 L49,356.6094 " fill="#FEFFDD" style="stroke:#181818;stroke-width:0.5;"/><path d="M431,356.6094 L431,366.6094 L441,366.6094 L431,356.6094 " fill="#FEFFDD" style="stroke:#181818;stroke-width:0.5;"/><text fill="#000000" font-family="sans-serif" font-size="13" font-weight="bold" lengthAdjust="spacing" textLength="51" x="55" y="375.1045">Sistema</text><text fill="#000000" font-family="sans-serif" font-size="13" lengthAdjust="spacing" textLength="281" x="110" y="375.1045">recupera los datos de la convocatoria y muestra:</text><text fill="#000000" font-family="sans-serif" font-size="13" lengthAdjust="spacing" textLength="371" x="55" y="391.4561">&#8226; Informaci&#243;n general (identificador, t&#237;tulo, &#225;rea, estado y fechas)</text><text fill="#000000" font-family="sans-serif" font-size="13" lengthAdjust="spacing" textLength="185" x="55" y="407.8076">&#8226; Descripci&#243;n de la convocatoria</text><text fill="#000000" font-family="sans-serif" font-size="13" lengthAdjust="spacing" textLength="249" x="55" y="424.1592">&#8226; Requisitos y condiciones de participaci&#243;n</text><text fill="#000000" font-family="sans-serif" font-size="13" lengthAdjust="spacing" textLength="203" x="55" y="440.5107">&#8226; Criterios de evaluaci&#243;n y dotaci&#243;n</text><text fill="#000000" font-family="sans-serif" font-size="13" lengthAdjust="spacing" textLength="155" x="55" y="456.8623">&#8226; Documentaci&#243;n asociada</text><text fill="#000000" font-family="sans-serif" font-size="13" lengthAdjust="spacing" textLength="147" x="55" y="473.2139">&#8226; Informaci&#243;n de contacto</text></g><g id="CONVOCATORIAS_ABIERTAS"><rect fill="#F1F1F1" height="50" rx="12.5" ry="12.5" style="stroke:#181818;stroke-width:0.5;" width="215" x="121" y="7"/><line style="stroke:#181818;stroke-width:0.5;" x1="121" x2="336" y1="34.6094" y2="34.6094"/><text fill="#000000" font-family="sans-serif" font-size="14" lengthAdjust="spacing" textLength="195" x="131" y="26.5332">CONVOCATORIAS_ABIERTAS</text></g><g id="CONVOCATORIA_ABIERTA"><rect fill="#F1F1F1" height="50" rx="12.5" ry="12.5" style="stroke:#181818;stroke-width:0.5;" width="197" x="130" y="632"/><line style="stroke:#181818;stroke-width:0.5;" x1="130" x2="327" y1="659.6094" y2="659.6094"/><text fill="#000000" font-family="sans-serif" font-size="14" lengthAdjust="spacing" textLength="177" x="140" y="651.5332">CONVOCATORIA_ABIERTA</text></g><!--link CONVOCATORIAS_ABIERTAS to abrirConvocatoria--><g id="link_CONVOCATORIAS_ABIERTAS_abrirConvocatoria"><path d="M228.5,57.11 C228.5,79.33 228.5,108.6 228.5,146.91 " fill="none" id="CONVOCATORIAS_ABIERTAS-to-abrirConvocatoria" style="stroke:#008000;stroke-width:1.0;"/><polygon fill="#008000" points="228.5,152.91,232.5,143.91,228.5,147.91,224.5,143.91,228.5,152.91" style="stroke:#008000;stroke-width:1.0;"/><path d="M233.5,92 L233.5,118 L361.5,118 L361.5,102 L351.5,92 L233.5,92 " fill="#FEFFDD" style="stroke:#181818;stroke-width:0.5;"/><path d="M351.5,92 L351.5,102 L361.5,102 L351.5,92 " fill="#FEFFDD" style="stroke:#181818;stroke-width:0.5;"/><text fill="#000000" font-family="sans-serif" font-size="13" lengthAdjust="spacing" textLength="107" x="239.5" y="110.4951">abrirConvocatoria()</text></g><!--link abrirConvocatoria to CONVOCATORIA_ABIERTA--><g id="link_abrirConvocatoria_CONVOCATORIA_ABIERTA"><path d="M228.5,536.4 C228.5,574.45 228.5,603.48 228.5,625.66 " fill="none" id="abrirConvocatoria-to-CONVOCATORIA_ABIERTA" style="stroke:#008000;stroke-width:1.0;"/><polygon fill="#008000" points="228.5,631.66,232.5,622.66,228.5,626.66,224.5,622.66,228.5,631.66" style="stroke:#008000;stroke-width:1.0;"/><path d="M233.5,571 L233.5,597 L386.5,597 L386.5,581 L376.5,571 L233.5,571 " fill="#FEFFDD" style="stroke:#181818;stroke-width:0.5;"/><path d="M376.5,571 L376.5,581 L386.5,581 L376.5,571 " fill="#FEFFDD" style="stroke:#181818;stroke-width:0.5;"/><text fill="#000000" font-family="sans-serif" font-size="13" lengthAdjust="spacing" textLength="132" x="239.5" y="589.4951">Convocatoria mostrada</text></g><!--SRC=[TLB1JkCm4BtdAqRb0giYxWXLwgOSUg5IY_Q249hQqpB2yGJRGOhGIlmAUzyJdz0_sI_PIGA544YKIBRVlFV6R-8T-n835k3OKwfBWb9StIooB2PC1BWE77Bn3s8mIM04Z30Qx1uUZU0noq2Vhcwaho9p35lqLcQKq3dg45S_hk7uwc0RYFpryMG0QZ1Ub4HyO-oktJXRJtAHODcZbN1sifv094V6i7Y4IZ_pmKzRGjwsF9tg9vMU0tNqhUgAOw82MyL0fYef83Y9O5LA_mIkhmqr51N55F2qvVZtz0VcVYEXGCEx5mzRyihXu90j-SGRDarBOqYxlwboCeRTSo0SWtBeWT9joDnYFDgppIYQm6N7DZImnotflkB8ZSswGLXkRejQqvfxqcNPUTgNv84J1UuQemTqrQlf6goaJ-2PcAhG5buX6CKmMlowQ-LJ2ufDqa_dTvRbYujVYtnwkLZEfwkRwS_v-V9okkf5D1Yvh1VM5nEPlUS_dEBU_7rGVnFli_TA2scorJRt_Fy1]--></g></svg>