<svg xmlns="http://www.w3.org/2000/svg" xmlns:xlink="http://www.w3.org/1999/xlink" contentStyleType="text/css" data-diagram-type="STATE" height="635px" preserveAspectRatio="none" style="width:477px;height:635px;background:#FFFFFF;" version="1.1" viewBox="0 0 477 635" width="477px" zoomAndPan="magnify"><defs/><g><path d="M19.5,7 L451.5,7 A12.5,12.5 0 0 1 464,19.5 L464,33.2969 L7,33.2969 L7,19.5 A12.5,12.5 0 0 1 19.5,7" fill="#F1F1F1"/><rect fill="none" height="477.2969" rx="12.5" ry="12.5" style="stroke:#181818;stroke-width:0.5;" width="457" x="7" y="7"/><line style="stroke:#181818;stroke-width:0.5;" x1="7" x2="464" y1="33.2969" y2="33.2969"/><text fill="#000000" font-family="sans-serif" font-size="14" lengthAdjust="spacing" textLength="146.9453" x="162.0273" y="24.9951">abrirInvestigadores()</text><g id="abrirInvestigadores.MostrandoInvestigadores"><rect fill="#F1F1F1" height="50" rx="12.5" ry="12.5" style="stroke:#181818;stroke-width:0.5;" width="50" x="19" y="135.2969"/><line style="stroke:#181818;stroke-width:0.5;" x1="19" x2="69" y1="161.5938" y2="161.5938"/><text fill="#000000" font-family="sans-serif" font-size="14" lengthAdjust="spacing" textLength="4.4502" x="41.7749" y="153.292">&#160;</text></g><g id="abrirInvestigadores.FiltrarInvestigadores"><rect fill="#F1F1F1" height="50" rx="12.5" ry="12.5" style="stroke:#181818;stroke-width:0.5;" width="50" x="19" y="323.7969"/><line style="stroke:#181818;stroke-width:0.5;" x1="19" x2="69" y1="350.0938" y2="350.0938"/><text fill="#000000" font-family="sans-serif" font-size="14" lengthAdjust="spacing" textLength="4.4502" x="41.7749" y="341.792">&#160;</text></g><ellipse cx="44" cy="54.2969" fill="#222222" rx="10" ry="10" style="stroke:#222222;stroke-width:1;"/><ellipse cx="44" cy="463.2969" fill="none" rx="11" ry="11" style="stroke:#222222;stroke-width:1;"/><ellipse cx="44" cy="463.2969" fill="#222222" rx="6" ry="6" style="stroke:#222222;stroke-width:1;"/><!--link *start*abrirInvestigadores to MostrandoInvestigadores--><g class="link" data-entity-1=".start.abrirInvestigadores" data-entity-2="MostrandoInvestigadores" data-source-line="8" data-uid="lnk3" id="link_.start.abrirInvestigadores_MostrandoInvestigadores"><path d="M44,64.5269 C44,80.2369 44,106.6569 44,129.1669" fill="none" id="*start*abrirInvestigadores-to-MostrandoInvestigadores" style="stroke:#008000;stroke-width:1;"/><polygon fill="#008000" points="44,135.1669,48,126.1669,44,130.1669,40,126.1669,44,135.1669" style="stroke:#008000;stroke-width:1;"/><path d="M49,87.2969 L49,112.2969 L409,112.2969 L409,97.2969 L399,87.2969 L49,87.2969" fill="#FEFFDD" style="stroke:#181818;stroke-width:0.5;"/><path d="M399,87.2969 L399,97.2969 L409,97.2969 L399,87.2969" fill="#FEFFDD" style="stroke:#181818;stroke-width:0.5;"/><text fill="#000000" font-family="sans-serif" font-size="13" font-weight="bold" lengthAdjust="spacing" textLength="92.5171" x="55" y="104.3638">Investigador</text><text fill="#000000" font-family="sans-serif" font-size="13" lengthAdjust="spacing" textLength="242.7534" x="151.6494" y="104.3638">solicita abrir todos los investigadores</text></g><!--link MostrandoInvestigadores to FiltrarInvestigadores--><g class="link" data-entity-1="MostrandoInvestigadores" data-entity-2="FiltrarInvestigadores" data-source-line="13" data-uid="lnk4" id="link_MostrandoInvestigadores_FiltrarInvestigadores"><path d="M44,185.6769 C44,221.5169 44,282.0269 44,317.7069" fill="none" id="MostrandoInvestigadores-to-FiltrarInvestigadores" style="stroke:#008000;stroke-width:1;"/><polygon fill="#008000" points="44,323.7069,48,314.7069,44,318.7069,40,314.7069,44,323.7069" style="stroke:#008000;stroke-width:1;"/><path d="M49,208.2969 L49,293.2969 L406,293.2969 L406,218.2969 L396,208.2969 L49,208.2969" fill="#FEFFDD" style="stroke:#181818;stroke-width:0.5;"/><path d="M396,208.2969 L396,218.2969 L406,218.2969 L396,208.2969" fill="#FEFFDD" style="stroke:#181818;stroke-width:0.5;"/><text fill="#000000" font-family="sans-serif" font-size="13" font-weight="bold" lengthAdjust="spacing" textLength="58.9063" x="55" y="225.3638">Sistema</text><text fill="#000000" font-family="sans-serif" font-size="13" lengthAdjust="spacing" textLength="224.6499" x="118.0386" y="225.3638">presenta la lista de investigadores</text><text fill="#000000" font-family="sans-serif" font-size="13" lengthAdjust="spacing" textLength="300.4536" x="55" y="240.4966">&#8226; Nombre de investigador, proyectos actuales</text><text fill="#000000" font-family="sans-serif" font-size="13" lengthAdjust="spacing" textLength="336.3115" x="55" y="255.6294">&#8226; Permite solicitar abrir un perfil de un investigador</text><text fill="#000000" font-family="sans-serif" font-size="13" lengthAdjust="spacing" textLength="314.4438" x="55" y="270.7622">&#8226; Permite solicitar abrir el perfil del investigador</text><text fill="#000000" font-family="sans-serif" font-size="13" lengthAdjust="spacing" textLength="227.9316" x="55" y="285.895">&#8226; Permite solicitar una lista filtrada</text></g><!--link FiltrarInvestigadores to FiltrarInvestigadores--><g class="link" data-entity-1="FiltrarInvestigadores" data-entity-2="FiltrarInvestigadores" data-source-line="22" data-uid="lnk5" id="link_FiltrarInvestigadores_FiltrarInvestigadores"><path d="M69.18,336.0969 C78.91,335.5369 87,339.7669 87,348.7969 C87,357.8269 84.9001,362.4016 75.1701,361.8416" fill="none" id="FiltrarInvestigadores-to-FiltrarInvestigadores" style="stroke:#008000;stroke-width:1;"/><polygon fill="#008000" points="69.18,361.4969,77.9353,366.0074,74.1717,361.7842,78.395,358.0206,69.18,361.4969" style="stroke:#008000;stroke-width:1;"/><path d="M92,321.2969 L92,376.2969 L455,376.2969 L455,331.2969 L445,321.2969 L92,321.2969" fill="#FEFFDD" style="stroke:#181818;stroke-width:0.5;"/><path d="M445,321.2969 L445,331.2969 L455,331.2969 L445,321.2969" fill="#FEFFDD" style="stroke:#181818;stroke-width:0.5;"/><text fill="#000000" font-family="sans-serif" font-size="13" font-weight="bold" lengthAdjust="spacing" textLength="58.9063" x="98" y="338.3638">Sistema</text><text fill="#000000" font-family="sans-serif" font-size="13" lengthAdjust="spacing" textLength="195.2285" x="161.0386" y="338.3638">presenta filtros por selecionar</text><text fill="#000000" font-family="sans-serif" font-size="13" lengthAdjust="spacing" textLength="342.8623" x="98" y="353.4966">&#8226; Permite solicitar filtrar por nombre de investigador</text><text fill="#000000" font-family="sans-serif" font-size="13" lengthAdjust="spacing" textLength="319.5093" x="98" y="368.6294">&#8226; Permite solicitar filtrar por nombre de proyecto</text></g><!--link FiltrarInvestigadores to *end*abrirInvestigadores--><g class="link" data-entity-1="FiltrarInvestigadores" data-entity-2=".end.abrirInvestigadores" data-source-line="29" data-uid="lnk7" id="link_FiltrarInvestigadores_.end.abrirInvestigadores"><path d="M44,373.9269 C44,398.2069 44,428.4869 44,446.0469" fill="none" id="FiltrarInvestigadores-to-*end*abrirInvestigadores" style="stroke:#008000;stroke-width:1;"/><polygon fill="#008000" points="44,452.0469,48,443.0469,44,447.0469,40,443.0469,44,452.0469" style="stroke:#008000;stroke-width:1;"/><path d="M49,404.2969 L49,429.2969 L345,429.2969 L345,414.2969 L335,404.2969 L49,404.2969" fill="#FEFFDD" style="stroke:#181818;stroke-width:0.5;"/><path d="M335,404.2969 L335,414.2969 L345,414.2969 L335,404.2969" fill="#FEFFDD" style="stroke:#181818;stroke-width:0.5;"/><text fill="#000000" font-family="sans-serif" font-size="13" font-weight="bold" lengthAdjust="spacing" textLength="92.5171" x="55" y="421.3638">Investigador</text><text fill="#000000" font-family="sans-serif" font-size="13" lengthAdjust="spacing" textLength="179.2769" x="151.6494" y="421.3638">solicita una de las opciones</text></g><g id="INVESTIGADOR_ABIERTO"><rect fill="#F1F1F1" height="50" rx="12.5" ry="12.5" style="stroke:#181818;stroke-width:0.5;" width="195" x="35" y="579"/><line style="stroke:#181818;stroke-width:0.5;" x1="35" x2="230" y1="605.2969" y2="605.2969"/><text fill="#000000" font-family="sans-serif" font-size="14" lengthAdjust="spacing" textLength="175" x="45" y="596.9951">INVESTIGADOR_ABIERTO</text></g><g id="PERFIL"><rect fill="#F1F1F1" height="50" rx="12.5" ry="12.5" style="stroke:#181818;stroke-width:0.5;" width="66.9971" x="306" y="579"/><line style="stroke:#181818;stroke-width:0.5;" x1="306" x2="372.9971" y1="605.2969" y2="605.2969"/><text fill="#000000" font-family="sans-serif" font-size="14" lengthAdjust="spacing" textLength="46.9971" x="316" y="596.9951">PERFIL</text></g><!--link abrirInvestigadores to INVESTIGADOR_ABIERTO--><g class="link" data-entity-1="abrirInvestigadores" data-entity-2="INVESTIGADOR_ABIERTO" data-source-line="35" data-uid="lnk9" id="link_abrirInvestigadores_INVESTIGADOR_ABIERTO"><path d="M141.35,484.09 C134.09,502.43 129.5,514 129.5,514 C129.5,514 129.5,549 129.5,549 C129.5,549 130.0265,558.4793 130.8265,572.8493" fill="none" id="abrirInvestigadores-to-INVESTIGADOR_ABIERTO" style="stroke:#008000;stroke-width:1;"/><polygon fill="#008000" points="131.16,578.84,134.6535,569.6316,130.8821,573.8477,126.6659,570.0763,131.16,578.84" style="stroke:#008000;stroke-width:1;"/><path d="M134.5,519 L134.5,544 L291.5,544 L291.5,529 L281.5,519 L134.5,519" fill="#FEFFDD" style="stroke:#181818;stroke-width:0.5;"/><path d="M281.5,519 L281.5,529 L291.5,529 L281.5,519" fill="#FEFFDD" style="stroke:#181818;stroke-width:0.5;"/><text fill="#000000" font-family="sans-serif" font-size="13" lengthAdjust="spacing" textLength="136.4492" x="140.5" y="536.0669">abrirInvestigadores()</text></g><!--link abrirInvestigadores to PERFIL--><g class="link" data-entity-1="abrirInvestigadores" data-entity-2="PERFIL" data-source-line="40" data-uid="lnk11" id="link_abrirInvestigadores_PERFIL"><path d="M304.87,484.29 C316.12,522.86 324.4705,551.4699 330.8005,573.1799" fill="none" id="abrirInvestigadores-to-PERFIL" style="stroke:#008000;stroke-width:1;"/><polygon fill="#008000" points="332.48,578.94,333.8009,569.1801,331.0804,574.1399,326.1207,571.4194,332.48,578.94" style="stroke:#008000;stroke-width:1;"/><path d="M326.5,519 L326.5,544 L420.5,544 L420.5,529 L410.5,519 L326.5,519" fill="#FEFFDD" style="stroke:#181818;stroke-width:0.5;"/><path d="M410.5,519 L410.5,529 L420.5,529 L410.5,519" fill="#FEFFDD" style="stroke:#181818;stroke-width:0.5;"/><text fill="#000000" font-family="sans-serif" font-size="13" lengthAdjust="spacing" textLength="73.6455" x="332.5" y="536.0669">abrirPerfil()</text></g><!--SRC=[hLHjQW8n4FsVKmpsJrkKNa04IxKij2eg_IDIihkZ1BD9I691Ig5dwT5waixkLbqrrbQQ_O24Ds_Ul6JY5a8PRda6KYZqAuDWj5pb4yQSvnw1nrROIBsWysBEKstH0NTG2wnVNjNWbJ6WKSRMw27ietRUSfNgNVWXi2ia0VTOIyB9zHGQaukvHLJJHkiO9nHWfObJgxoeHR7GZ5jLNFCcRe7JKYJ2yx92y3hL3YHzub0bghGafS4slsCQgZh39HqJEHBEOyOBVOQ0g4YVf9VMEQGOqlRv_W4zdSKMzm5ruj0hJ3mLnHE_vB8ICa2R2LAmji5- -x1KOD3EXCpPQ58bF1cCSXiiVnkwLEi2PuLPAT_nVEjtqCl_ThlGG8OPRS6Xn4HenN-INugsHO0AxiEVWzVRThOFr2rdD4A-4PHTKYTgazUzT_hP6sEXww2QEUezTKRZwBvzrny-js-Zpd3SPpioWXS7s-GucM7G6NQZXm3de3Xv5Qul]--></g></svg>