<svg xmlns="http://www.w3.org/2000/svg" xmlns:xlink="http://www.w3.org/1999/xlink" contentStyleType="text/css" data-diagram-type="STATE" height="644px" preserveAspectRatio="none" style="width:444px;height:644px;background:#FFFFFF;" version="1.1" viewBox="0 0 444 644" width="444px" zoomAndPan="magnify"><title>Ciclo de vida de un InvestigadorDocente en la red</title><defs/><g><g class="title" data-source-line="1"><text fill="#000000" font-family="sans-serif" font-size="14" font-weight="bold" lengthAdjust="spacing" textLength="394.0918" x="18.3614" y="22.9951">Ciclo de vida de un InvestigadorDocente en la red</text></g><ellipse cx="266.15" cy="53.2969" fill="#222222" rx="10" ry="10" style="stroke:#222222;stroke-width:1;"/><g id="Registrado"><rect fill="#F1F1F1" height="50" rx="12.5" ry="12.5" style="stroke:#181818;stroke-width:0.5;" width="95.6875" x="218.31" y="124.2969"/><line style="stroke:#181818;stroke-width:0.5;" x1="218.31" x2="313.9975" y1="150.5938" y2="150.5938"/><text fill="#000000" font-family="sans-serif" font-size="14" lengthAdjust="spacing" textLength="75.6875" x="228.31" y="142.292">Registrado</text></g><g id="Activo"><rect fill="#F1F1F1" height="50" rx="12.5" ry="12.5" style="stroke:#181818;stroke-width:0.5;" width="63.5039" x="154.4" y="251.2969"/><line style="stroke:#181818;stroke-width:0.5;" x1="154.4" x2="217.9039" y1="277.5938" y2="277.5938"/><text fill="#000000" font-family="sans-serif" font-size="14" lengthAdjust="spacing" textLength="43.5039" x="164.4" y="269.292">Activo</text></g><g id="Inactivo"><rect fill="#F1F1F1" height="50" rx="12.5" ry="12.5" style="stroke:#181818;stroke-width:0.5;" width="75.5078" x="148.4" y="378.2969"/><line style="stroke:#181818;stroke-width:0.5;" x1="148.4" x2="223.9078" y1="404.5938" y2="404.5938"/><text fill="#000000" font-family="sans-serif" font-size="14" lengthAdjust="spacing" textLength="55.5078" x="158.4" y="396.292">Inactivo</text></g><g id="Eliminado"><rect fill="#F1F1F1" height="50" rx="12.5" ry="12.5" style="stroke:#181818;stroke-width:0.5;" width="89.0566" x="221.62" y="505.2969"/><line style="stroke:#181818;stroke-width:0.5;" x1="221.62" x2="310.6766" y1="531.5938" y2="531.5938"/><text fill="#000000" font-family="sans-serif" font-size="14" lengthAdjust="spacing" textLength="69.0566" x="231.62" y="523.292">Eliminado</text></g><ellipse cx="266.15" cy="627.2969" fill="none" rx="11" ry="11" style="stroke:#222222;stroke-width:1;"/><ellipse cx="266.15" cy="627.2969" fill="#222222" rx="6" ry="6" style="stroke:#222222;stroke-width:1;"/><!--link *start* to Registrado--><g class="link" data-entity-1=".start." data-entity-2="Registrado" data-source-line="3" data-uid="lnk4" id="link_.start._Registrado"><path d="M266.15,63.6569 C266.15,77.5869 266.15,98.2469 266.15,117.9469" fill="none" id="*start*-to-Registrado" style="stroke:#181818;stroke-width:1;"/><polygon fill="#181818" points="266.15,123.9469,270.15,114.9469,266.15,118.9469,262.15,114.9469,266.15,123.9469" style="stroke:#181818;stroke-width:1;"/></g><!--link Registrado to Activo--><g class="link" data-entity-1="Registrado" data-entity-2="Activo" data-source-line="5" data-uid="lnk6" id="link_Registrado_Activo"><path d="M250.54,174.6969 C236.44,196.7169 219.0443,223.9032 204.9643,245.9032" fill="none" id="Registrado-to-Activo" style="stroke:#181818;stroke-width:1;"/><polygon fill="#181818" points="201.73,250.9569,209.9506,245.5326,204.4253,246.7455,203.2124,241.2202,201.73,250.9569" style="stroke:#181818;stroke-width:1;"/><text fill="#000000" font-family="sans-serif" font-size="13" lengthAdjust="spacing" textLength="77.4287" x="232.15" y="217.3638">validarPerfil</text></g><!--link Activo to Inactivo--><g class="link" data-entity-1="Activo" data-entity-2="Inactivo" data-source-line="6" data-uid="lnk8" id="link_Activo_Inactivo"><path d="M154.01,278.6269 C118.47,282.0269 62.73,293.4769 36.15,331.2969 C6,374.1969 88.5862,391.244 142.2862,397.944" fill="none" id="Activo-to-Inactivo" style="stroke:#181818;stroke-width:1;"/><polygon fill="#181818" points="148.24,398.6869,139.8045,393.6034,143.2785,398.0678,138.814,401.5418,148.24,398.6869" style="stroke:#181818;stroke-width:1;"/><text fill="#000000" font-family="sans-serif" font-size="13" lengthAdjust="spacing" textLength="105.0664" x="37.15" y="344.3638">pausarActividad</text></g><!--link Inactivo to Activo--><g class="link" data-entity-1="Inactivo" data-entity-2="Activo" data-source-line="7" data-uid="lnk9" id="link_Inactivo_Activo"><path d="M184.28,377.9869 C183.44,364.2769 182.72,346.8369 183.15,331.2969 C183.42,321.6269 183.6039,316.9863 184.1539,307.7363" fill="none" id="Inactivo-to-Activo" style="stroke:#181818;stroke-width:1;"/><polygon fill="#181818" points="184.51,301.7469,179.9829,310.4936,184.2132,306.7381,187.9688,310.9684,184.51,301.7469" style="stroke:#181818;stroke-width:1;"/><text fill="#000000" font-family="sans-serif" font-size="13" lengthAdjust="spacing" textLength="118.6948" x="184.15" y="344.3638">reactivarActividad</text></g><!--link Registrado to Eliminado--><g class="link" data-entity-1="Registrado" data-entity-2="Eliminado" data-source-line="11" data-uid="lnk11" id="link_Registrado_Eliminado"><path d="M297.16,174.7769 C305.53,183.1669 313.54,193.2469 318.15,204.2969 C361.61,308.5169 322.82,345.3869 324.15,458.2969 C324.24,465.8569 327.17,468.3669 324.15,475.2969 C319.21,486.6469 315.0318,492.6742 305.9018,500.9242" fill="none" id="Registrado-to-Eliminado" style="stroke:#181818;stroke-width:1;"/><polygon fill="#181818" points="301.45,504.9469,310.8094,501.8807,305.1598,501.5946,305.4459,495.945,301.45,504.9469" style="stroke:#181818;stroke-width:1;"/><text fill="#000000" font-family="sans-serif" font-size="13" lengthAdjust="spacing" textLength="99.6646" x="337.15" y="344.3638">eliminarCuenta</text></g><!--link Inactivo to Eliminado--><g class="link" data-entity-1="Inactivo" data-entity-2="Eliminado" data-source-line="12" data-uid="lnk12" id="link_Inactivo_Eliminado"><path d="M195.41,428.5169 C201.3,442.6769 209.61,460.5869 219.15,475.2969 C225.85,485.6169 230.3976,491.5669 238.3576,500.4569" fill="none" id="Inactivo-to-Eliminado" style="stroke:#181818;stroke-width:1;"/><polygon fill="#181818" points="242.36,504.9269,239.3364,495.5536,239.0247,501.2019,233.3764,500.8901,242.36,504.9269" style="stroke:#181818;stroke-width:1;"/><text fill="#000000" font-family="sans-serif" font-size="13" lengthAdjust="spacing" textLength="99.6646" x="220.15" y="471.3638">eliminarCuenta</text></g><!--link Eliminado to *end*--><g class="link" data-entity-1="Eliminado" data-entity-2=".end." data-source-line="15" data-uid="lnk14" id="link_Eliminado_.end."><path d="M266.15,555.7569 C266.15,575.3369 266.15,595.7869 266.15,610.0969" fill="none" id="Eliminado-to-*end*" style="stroke:#181818;stroke-width:1;"/><polygon fill="#181818" points="266.15,616.0969,270.15,607.0969,266.15,611.0969,262.15,607.0969,266.15,616.0969" style="stroke:#181818;stroke-width:1;"/></g><!--SRC=[VO_D2W8n38JlUOgSXNs1FGYoUjYRU1KFeOrBeBQITllyjlLdNGHFcSnyJ4YIv1W7CIwWPSnYgSxPu-WpnoGJsQ3xODWdHlRe29Kjm7bpmQxRueadYKaB1R3e5krCaXomnqokzEgHzIeENdObHazlvavp96rPOIryebMJSdE_GVYvUt1o4r-t7lcfTPZB0xHk_SC1B655oxSF]--></g></svg>