<svg xmlns="http://www.w3.org/2000/svg" xmlns:xlink="http://www.w3.org/1999/xlink" contentStyleType="text/css" data-diagram-type="STATE" height="771px" preserveAspectRatio="none" style="width:673px;height:771px;background:#FFFFFF;" version="1.1" viewBox="0 0 673 771" width="673px" zoomAndPan="magnify"><title>Ciclo de vida de un Proyecto</title><defs/><g><g class="title" data-source-line="1"><text fill="#000000" font-family="sans-serif" font-size="14" font-weight="bold" lengthAdjust="spacing" textLength="224.5332" x="217.5841" y="22.9951">Ciclo de vida de un Proyecto</text></g><ellipse cx="559.28" cy="53.2969" fill="#222222" rx="10" ry="10" style="stroke:#222222;stroke-width:1;"/><g id="Creado"><rect fill="#F1F1F1" height="50" rx="12.5" ry="12.5" style="stroke:#181818;stroke-width:0.5;" width="70.1758" x="524.19" y="124.2969"/><line style="stroke:#181818;stroke-width:0.5;" x1="524.19" x2="594.3658" y1="150.5938" y2="150.5938"/><text fill="#000000" font-family="sans-serif" font-size="14" lengthAdjust="spacing" textLength="50.1758" x="534.19" y="142.292">Creado</text></g><g id="Planificado"><rect fill="#F1F1F1" height="50" rx="12.5" ry="12.5" style="stroke:#181818;stroke-width:0.5;" width="96.2207" x="460.17" y="251.2969"/><line style="stroke:#181818;stroke-width:0.5;" x1="460.17" x2="556.3907" y1="277.5938" y2="277.5938"/><text fill="#000000" font-family="sans-serif" font-size="14" lengthAdjust="spacing" textLength="76.2207" x="470.17" y="269.292">Planificado</text></g><g id="EnCurso"><rect fill="#F1F1F1" height="50" rx="12.5" ry="12.5" style="stroke:#181818;stroke-width:0.5;" width="77.9824" x="292.29" y="378.2969"/><line style="stroke:#181818;stroke-width:0.5;" x1="292.29" x2="370.2724" y1="404.5938" y2="404.5938"/><text fill="#000000" font-family="sans-serif" font-size="14" lengthAdjust="spacing" textLength="57.9824" x="302.29" y="396.292">EnCurso</text></g><g id="EnRevision"><rect fill="#F1F1F1" height="50" rx="12.5" ry="12.5" style="stroke:#181818;stroke-width:0.5;" width="96.8564" x="195.85" y="505.2969"/><line style="stroke:#181818;stroke-width:0.5;" x1="195.85" x2="292.7064" y1="531.5938" y2="531.5938"/><text fill="#000000" font-family="sans-serif" font-size="14" lengthAdjust="spacing" textLength="76.8564" x="205.85" y="523.292">EnRevision</text></g><g id="Finalizado"><rect fill="#F1F1F1" height="50" rx="12.5" ry="12.5" style="stroke:#181818;stroke-width:0.5;" width="90.5537" x="216" y="632.2969"/><line style="stroke:#181818;stroke-width:0.5;" x1="216" x2="306.5537" y1="658.5938" y2="658.5938"/><text fill="#000000" font-family="sans-serif" font-size="14" lengthAdjust="spacing" textLength="70.5537" x="226" y="650.292">Finalizado</text></g><g id="Cancelado"><rect fill="#F1F1F1" height="50" rx="12.5" ry="12.5" style="stroke:#181818;stroke-width:0.5;" width="93.459" x="364.55" y="632.2969"/><line style="stroke:#181818;stroke-width:0.5;" x1="364.55" x2="458.009" y1="658.5938" y2="658.5938"/><text fill="#000000" font-family="sans-serif" font-size="14" lengthAdjust="spacing" textLength="73.459" x="374.55" y="650.292">Cancelado</text></g><ellipse cx="324.28" cy="754.2969" fill="none" rx="11" ry="11" style="stroke:#222222;stroke-width:1;"/><ellipse cx="324.28" cy="754.2969" fill="#222222" rx="6" ry="6" style="stroke:#222222;stroke-width:1;"/><!--link *start* to Creado--><g class="link" data-entity-1=".start." data-entity-2="Creado" data-source-line="3" data-uid="lnk4" id="link_.start._Creado"><path d="M559.28,63.6569 C559.28,77.5869 559.28,98.2469 559.28,117.9469" fill="none" id="*start*-to-Creado" style="stroke:#181818;stroke-width:1;"/><polygon fill="#181818" points="559.28,123.9469,563.28,114.9469,559.28,118.9469,555.28,114.9469,559.28,123.9469" style="stroke:#181818;stroke-width:1;"/></g><!--link Creado to Planificado--><g class="link" data-entity-1="Creado" data-entity-2="Planificado" data-source-line="5" data-uid="lnk6" id="link_Creado_Planificado"><path d="M532.17,174.5269 C524.34,183.1069 516.72,193.3569 512.28,204.2969 C506.28,219.0469 505.0937,230.9708 505.6037,245.1108" fill="none" id="Creado-to-Planificado" style="stroke:#181818;stroke-width:1;"/><polygon fill="#181818" points="505.82,251.1069,509.493,241.9685,505.6398,246.1101,501.4982,242.2569,505.82,251.1069" style="stroke:#181818;stroke-width:1;"/><text fill="#000000" font-family="sans-serif" font-size="13" lengthAdjust="spacing" textLength="69.291" x="513.28" y="217.3638">definirPlan</text></g><!--link Planificado to EnCurso--><g class="link" data-entity-1="Planificado" data-entity-2="EnCurso" data-source-line="6" data-uid="lnk8" id="link_Planificado_EnCurso"><path d="M473.73,301.6969 C442.54,323.7169 401.8015,352.4963 370.6415,374.4963" fill="none" id="Planificado-to-EnCurso" style="stroke:#181818;stroke-width:1;"/><polygon fill="#181818" points="365.74,377.9569,375.3992,376.0336,369.8245,375.073,370.7851,369.4983,365.74,377.9569" style="stroke:#181818;stroke-width:1;"/><text fill="#000000" font-family="sans-serif" font-size="13" lengthAdjust="spacing" textLength="39.5332" x="431.28" y="344.3638">iniciar</text></g><!--link EnCurso to EnRevision--><g class="link" data-entity-1="EnCurso" data-entity-2="EnRevision" data-source-line="7" data-uid="lnk10" id="link_EnCurso_EnRevision"><path d="M291.97,405.8369 C221.65,409.5169 78.76,421.4469 48.28,458.2969 C6,509.3969 118.6896,523.3771 189.5596,527.3971" fill="none" id="EnCurso-to-EnRevision" style="stroke:#181818;stroke-width:1;"/><polygon fill="#181818" points="195.55,527.7369,186.791,523.2336,190.558,527.4537,186.3379,531.2208,195.55,527.7369" style="stroke:#181818;stroke-width:1;"/><text fill="#000000" font-family="sans-serif" font-size="13" lengthAdjust="spacing" textLength="158.5073" x="49.28" y="471.3638">entregarDocumentacion</text></g><!--link EnRevision to EnCurso--><g class="link" data-entity-1="EnRevision" data-entity-2="EnCurso" data-source-line="8" data-uid="lnk11" id="link_EnRevision_EnCurso"><path d="M240.41,505.0569 C239.31,490.5569 240.17,472.2869 248.28,458.2969 C258.1,441.3369 270.3409,431.591 286.7609,422.871" fill="none" id="EnRevision-to-EnCurso" style="stroke:#181818;stroke-width:1;"/><polygon fill="#181818" points="292.06,420.0569,282.2352,420.7454,287.6441,422.402,285.9874,427.8108,292.06,420.0569" style="stroke:#181818;stroke-width:1;"/><text fill="#000000" font-family="sans-serif" font-size="13" lengthAdjust="spacing" textLength="135.7065" x="249.28" y="471.3638">solicitarCorrecciones</text></g><!--link EnRevision to Finalizado--><g class="link" data-entity-1="EnRevision" data-entity-2="Finalizado" data-source-line="9" data-uid="lnk13" id="link_EnRevision_Finalizado"><path d="M237.05,555.4969 C233.95,569.3169 231.77,586.9169 235.28,602.2969 C237.59,612.4369 239.3392,617.5543 243.9292,626.5343" fill="none" id="EnRevision-to-Finalizado" style="stroke:#181818;stroke-width:1;"/><polygon fill="#181818" points="246.66,631.8769,246.1255,622.0425,244.3844,627.4247,239.0021,625.6836,246.66,631.8769" style="stroke:#181818;stroke-width:1;"/><text fill="#000000" font-family="sans-serif" font-size="13" lengthAdjust="spacing" textLength="51.0796" x="236.28" y="598.3638">aprobar</text></g><!--link Creado to Cancelado--><g class="link" data-entity-1="Creado" data-entity-2="Cancelado" data-source-line="10" data-uid="lnk15" id="link_Creado_Cancelado"><path d="M575.37,174.5269 C589.99,198.9169 609.28,238.1369 609.28,275.2969 C609.28,275.2969 609.28,275.2969 609.28,531.2969 C609.28,602.3369 522.87,633.3035 464.3,646.6535" fill="none" id="Creado-to-Cancelado" style="stroke:#181818;stroke-width:1;"/><polygon fill="#181818" points="458.45,647.9869,468.1139,649.8868,463.325,646.8757,466.336,642.0868,458.45,647.9869" style="stroke:#181818;stroke-width:1;"/><text fill="#000000" font-family="sans-serif" font-size="13" lengthAdjust="spacing" textLength="55.4214" x="610.28" y="407.8638">cancelar</text></g><!--link Planificado to Cancelado--><g class="link" data-entity-1="Planificado" data-entity-2="Cancelado" data-source-line="11" data-uid="lnk16" id="link_Planificado_Cancelado"><path d="M509.44,301.5869 C511.01,350.9769 510.52,466.0369 478.28,555.2969 C467.91,583.9969 451.5337,607.8981 436.0437,627.2981" fill="none" id="Planificado-to-Cancelado" style="stroke:#181818;stroke-width:1;"/><polygon fill="#181818" points="432.3,631.9869,441.0415,627.4496,435.4198,628.0796,434.7898,622.4579,432.3,631.9869" style="stroke:#181818;stroke-width:1;"/><text fill="#000000" font-family="sans-serif" font-size="13" lengthAdjust="spacing" textLength="55.4214" x="501.28" y="471.3638">cancelar</text></g><!--link EnCurso to Cancelado--><g class="link" data-entity-1="EnCurso" data-entity-2="Cancelado" data-source-line="12" data-uid="lnk17" id="link_EnCurso_Cancelado"><path d="M365.49,428.7369 C374.7,437.0569 383.65,447.1069 389.28,458.2969 C417.94,515.3069 417.1687,587.0037 414.2487,625.9437" fill="none" id="EnCurso-to-Cancelado" style="stroke:#181818;stroke-width:1;"/><polygon fill="#181818" points="413.8,631.9269,418.4618,623.2512,414.1739,626.9409,410.4842,622.653,413.8,631.9269" style="stroke:#181818;stroke-width:1;"/><text fill="#000000" font-family="sans-serif" font-size="13" lengthAdjust="spacing" textLength="55.4214" x="414.28" y="534.8638">cancelar</text></g><!--link EnRevision to Cancelado--><g class="link" data-entity-1="EnRevision" data-entity-2="Cancelado" data-source-line="13" data-uid="lnk18" id="link_EnRevision_Cancelado"><path d="M271.19,555.5269 C287.33,569.6869 308.51,587.5969 328.28,602.2969 C342.07,612.5569 352.7091,619.7984 366.6991,628.7684" fill="none" id="EnRevision-to-Cancelado" style="stroke:#181818;stroke-width:1;"/><polygon fill="#181818" points="371.75,632.0069,366.3326,623.7818,367.5409,629.3081,362.0146,630.5164,371.75,632.0069" style="stroke:#181818;stroke-width:1;"/><text fill="#000000" font-family="sans-serif" font-size="13" lengthAdjust="spacing" textLength="55.4214" x="329.28" y="598.3638">cancelar</text></g><!--link Finalizado to *end*--><g class="link" data-entity-1="Finalizado" data-entity-2=".end." data-source-line="15" data-uid="lnk20" id="link_Finalizado_.end."><path d="M277.5,682.7569 C290.92,702.9969 305.8942,725.5763 315.1242,739.4963" fill="none" id="Finalizado-to-*end*" style="stroke:#181818;stroke-width:1;"/><polygon fill="#181818" points="318.44,744.4969,316.8001,734.7855,315.6769,740.3297,310.1326,739.2065,318.44,744.4969" style="stroke:#181818;stroke-width:1;"/></g><!--link Cancelado to *end*--><g class="link" data-entity-1="Cancelado" data-entity-2=".end." data-source-line="16" data-uid="lnk21" id="link_Cancelado_.end."><path d="M388.87,682.7569 C369.94,703.4369 348.0332,727.3629 335.5732,740.9629" fill="none" id="Cancelado-to-*end*" style="stroke:#181818;stroke-width:1;"/><polygon fill="#181818" points="331.52,745.3869,340.5491,741.453,334.8976,741.7002,334.6504,736.0488,331.52,745.3869" style="stroke:#181818;stroke-width:1;"/></g><!--SRC=[TP0z3i8m38Ntd28pKY_0m19WhbWHWt5TP2aao4qhmUbn28YKdydnUr-iPoTEdgnZzD5sP2Vk8DSns5RYbJ15O_QBWssQbNL2q6bVwaDgFGJk6NE_r8yz1vOicjh9v2QuKOPCAO8CObvASNSqyS0nA40X2Pr0rX77ipQ0gfiAcSyRejU12SH54S8Cq_29Rpc0vrl92HU9HqrGBU8W8FbYOtdBrmu_eNgDFy0ioK_6LFaof2StR_2ft040]--></g></svg>