<?xml version="1.0" encoding="us-ascii" standalone="no"?><svg xmlns="http://www.w3.org/2000/svg" xmlns:xlink="http://www.w3.org/1999/xlink" contentStyleType="text/css" height="316px" preserveAspectRatio="none" style="width:786px;height:316px;background:#FFFFFF;" version="1.1" viewBox="0 0 786 316" width="786px" zoomAndPan="magnify"><defs/><g><line style="stroke:#AAAAAA;stroke-width:1.0;" x1="6" x2="779" y1="8.5" y2="8.5"/><line style="stroke:#AAAAAA;stroke-width:1.0;" x1="6" x2="779" y1="10.5" y2="10.5"/><text fill="#000000" font-family="sans-serif" font-size="12" font-weight="bold" lengthAdjust="spacing" textLength="106" x="6" y="26.457">GIPF - PROYECTOS</text><line style="stroke:#AAAAAA;stroke-width:1.0;" x1="6" x2="779" y1="33.5938" y2="33.5938"/><line style="stroke:#AAAAAA;stroke-width:1.0;" x1="6" x2="779" y1="35.5938" y2="35.5938"/><text fill="#000000" font-family="sans-serif" font-size="12" font-weight="bold" lengthAdjust="spacing" textLength="85" x="7" y="52.5508">Filtrar / buscar:</text><text fill="#000000" font-family="sans-serif" font-size="12" font-weight="bold" lengthAdjust="spacing" textLength="14" x="9" y="71.6445">ID:</text><rect fill="#EEEEEE" height="19.0938" rx="5" ry="5" style="stroke:#000000;stroke-width:2.5;" width="76" x="47.5" y="61.6875"/><text fill="#000000" font-family="sans-serif" font-size="12" lengthAdjust="spacing" textLength="3" x="84" y="76.1445">&#160;</text><text fill="#000000" font-family="sans-serif" font-size="12" font-weight="bold" lengthAdjust="spacing" textLength="34" x="9" y="97.7383">T&#237;tulo:</text><rect fill="#EEEEEE" height="19.0938" rx="5" ry="5" style="stroke:#000000;stroke-width:2.5;" width="244" x="47.5" y="87.7813"/><text fill="#000000" font-family="sans-serif" font-size="12" lengthAdjust="spacing" textLength="3" x="168" y="102.2383">&#160;</text><text fill="#000000" font-family="sans-serif" font-size="12" font-weight="bold" lengthAdjust="spacing" textLength="42" x="9" y="125.832">Estado:</text><text fill="#000000" font-family="sans-serif" font-size="12" lengthAdjust="spacing" textLength="35" x="88" y="126.832">Todos</text><line style="stroke:#000000;stroke-width:1.0;" x1="86" x2="129" y1="129.4688" y2="129.4688"/><line style="stroke:#000000;stroke-width:1.0;" x1="86" x2="86" y1="126.4688" y2="128.4688"/><line style="stroke:#000000;stroke-width:1.0;" x1="129" x2="129" y1="126.4688" y2="128.4688"/><text fill="#000000" font-family="sans-serif" font-size="12" lengthAdjust="spacing" textLength="48" x="136" y="126.832">Borrador</text><line style="stroke:#000000;stroke-width:1.0;" x1="134" x2="201" y1="129.4688" y2="129.4688"/><line style="stroke:#000000;stroke-width:1.0;" x1="134" x2="134" y1="126.4688" y2="128.4688"/><line style="stroke:#000000;stroke-width:1.0;" x1="201" x2="201" y1="126.4688" y2="128.4688"/><text fill="#000000" font-family="sans-serif" font-size="12" lengthAdjust="spacing" textLength="49" x="208" y="126.832">En curso</text><line style="stroke:#000000;stroke-width:1.0;" x1="206" x2="273" y1="129.4688" y2="129.4688"/><line style="stroke:#000000;stroke-width:1.0;" x1="206" x2="206" y1="126.4688" y2="128.4688"/><line style="stroke:#000000;stroke-width:1.0;" x1="273" x2="273" y1="126.4688" y2="128.4688"/><text fill="#000000" font-family="sans-serif" font-size="12" lengthAdjust="spacing" textLength="56" x="280" y="126.832">Finalizado</text><line style="stroke:#000000;stroke-width:1.0;" x1="278" x2="361" y1="129.4688" y2="129.4688"/><line style="stroke:#000000;stroke-width:1.0;" x1="278" x2="278" y1="126.4688" y2="128.4688"/><line style="stroke:#000000;stroke-width:1.0;" x1="361" x2="361" y1="126.4688" y2="128.4688"/><text fill="#000000" font-family="sans-serif" font-size="12" font-weight="bold" lengthAdjust="spacing" textLength="73" x="9" y="146.9258">Coordinador:</text><rect fill="#EEEEEE" height="19.0938" rx="5" ry="5" style="stroke:#000000;stroke-width:2.5;" width="164" x="86.5" y="136.9688"/><text fill="#000000" font-family="sans-serif" font-size="12" lengthAdjust="spacing" textLength="3" x="167" y="151.4258">&#160;</text><line style="stroke:#AAAAAA;stroke-width:1.5;" x1="7" x2="778" y1="166.0625" y2="166.0625"/><text fill="#000000" font-family="sans-serif" font-size="12" font-weight="bold" lengthAdjust="spacing" textLength="200" x="7" y="183.0195">Lista de proyectos de investigaci&#243;n</text><line style="stroke:#AAAAAA;stroke-width:1.0;" x1="7" x2="778" y1="191.1563" y2="191.1563"/><text fill="#000000" font-family="sans-serif" font-size="12" font-weight="bold" lengthAdjust="spacing" textLength="11" x="9" y="210.1133">ID</text><text fill="#000000" font-family="sans-serif" font-size="12" font-weight="bold" lengthAdjust="spacing" textLength="31" x="22" y="210.1133">T&#237;tulo</text><text fill="#000000" font-family="sans-serif" font-size="12" font-weight="bold" lengthAdjust="spacing" textLength="39" x="55" y="210.1133">Estado</text><text fill="#000000" font-family="sans-serif" font-size="12" font-weight="bold" lengthAdjust="spacing" textLength="70" x="96" y="210.1133">Coordinador</text><text fill="#000000" font-family="sans-serif" font-size="12" font-weight="bold" lengthAdjust="spacing" textLength="67" x="168" y="210.1133">Fecha inicio</text><text fill="#000000" font-family="sans-serif" font-size="12" font-weight="bold" lengthAdjust="spacing" textLength="51" x="237" y="210.1133">Fecha fin</text><text fill="#000000" font-family="sans-serif" font-size="12" lengthAdjust="spacing" textLength="58" x="12" y="229.207">PROY-012</text><line style="stroke:#000000;stroke-width:1.0;" x1="10" x2="77" y1="231.8438" y2="231.8438"/><line style="stroke:#000000;stroke-width:1.0;" x1="10" x2="10" y1="228.8438" y2="230.8438"/><line style="stroke:#000000;stroke-width:1.0;" x1="77" x2="77" y1="228.8438" y2="230.8438"/><text fill="#000000" font-family="sans-serif" font-size="12" lengthAdjust="spacing" textLength="175" x="84" y="229.207">Sistema de apoyo a la gesti&#243;n...</text><line style="stroke:#000000;stroke-width:1.0;" x1="82" x2="341" y1="231.8438" y2="231.8438"/><line style="stroke:#000000;stroke-width:1.0;" x1="82" x2="82" y1="228.8438" y2="230.8438"/><line style="stroke:#000000;stroke-width:1.0;" x1="341" x2="341" y1="228.8438" y2="230.8438"/><text fill="#000000" font-family="sans-serif" font-size="12" lengthAdjust="spacing" textLength="49" x="348" y="229.207">En curso</text><line style="stroke:#000000;stroke-width:1.0;" x1="346" x2="413" y1="231.8438" y2="231.8438"/><line style="stroke:#000000;stroke-width:1.0;" x1="346" x2="346" y1="228.8438" y2="230.8438"/><line style="stroke:#000000;stroke-width:1.0;" x1="413" x2="413" y1="228.8438" y2="230.8438"/><text fill="#000000" font-family="sans-serif" font-size="12" lengthAdjust="spacing" textLength="134" x="420" y="229.207">Carlos Fern&#225;ndez L&#243;pez</text><line style="stroke:#000000;stroke-width:1.0;" x1="418" x2="597" y1="231.8438" y2="231.8438"/><line style="stroke:#000000;stroke-width:1.0;" x1="418" x2="418" y1="228.8438" y2="230.8438"/><line style="stroke:#000000;stroke-width:1.0;" x1="597" x2="597" y1="228.8438" y2="230.8438"/><text fill="#000000" font-family="sans-serif" font-size="12" lengthAdjust="spacing" textLength="64" x="604" y="229.207">10-01-2025</text><line style="stroke:#000000;stroke-width:1.0;" x1="602" x2="685" y1="231.8438" y2="231.8438"/><line style="stroke:#000000;stroke-width:1.0;" x1="602" x2="602" y1="228.8438" y2="230.8438"/><line style="stroke:#000000;stroke-width:1.0;" x1="685" x2="685" y1="228.8438" y2="230.8438"/><text fill="#000000" font-family="sans-serif" font-size="12" lengthAdjust="spacing" textLength="64" x="692" y="229.207">20-12-2025</text><line style="stroke:#000000;stroke-width:1.0;" x1="690" x2="773" y1="231.8438" y2="231.8438"/><line style="stroke:#000000;stroke-width:1.0;" x1="690" x2="690" y1="228.8438" y2="230.8438"/><line style="stroke:#000000;stroke-width:1.0;" x1="773" x2="773" y1="228.8438" y2="230.8438"/><text fill="#000000" font-family="sans-serif" font-size="12" lengthAdjust="spacing" textLength="58" x="12" y="250.3008">PROY-013</text><line style="stroke:#000000;stroke-width:1.0;" x1="10" x2="77" y1="252.9375" y2="252.9375"/><line style="stroke:#000000;stroke-width:1.0;" x1="10" x2="10" y1="249.9375" y2="251.9375"/><line style="stroke:#000000;stroke-width:1.0;" x1="77" x2="77" y1="249.9375" y2="251.9375"/><text fill="#000000" font-family="sans-serif" font-size="12" lengthAdjust="spacing" textLength="146" x="84" y="250.3008">An&#225;lisis de productividad...</text><line style="stroke:#000000;stroke-width:1.0;" x1="82" x2="309" y1="252.9375" y2="252.9375"/><line style="stroke:#000000;stroke-width:1.0;" x1="82" x2="82" y1="249.9375" y2="251.9375"/><line style="stroke:#000000;stroke-width:1.0;" x1="309" x2="309" y1="249.9375" y2="251.9375"/><text fill="#000000" font-family="sans-serif" font-size="12" lengthAdjust="spacing" textLength="48" x="316" y="250.3008">Borrador</text><line style="stroke:#000000;stroke-width:1.0;" x1="314" x2="381" y1="252.9375" y2="252.9375"/><line style="stroke:#000000;stroke-width:1.0;" x1="314" x2="314" y1="249.9375" y2="251.9375"/><line style="stroke:#000000;stroke-width:1.0;" x1="381" x2="381" y1="249.9375" y2="251.9375"/><text fill="#000000" font-family="sans-serif" font-size="12" lengthAdjust="spacing" textLength="107" x="388" y="250.3008">Marta S&#225;nchez Ruiz</text><line style="stroke:#000000;stroke-width:1.0;" x1="386" x2="533" y1="252.9375" y2="252.9375"/><line style="stroke:#000000;stroke-width:1.0;" x1="386" x2="386" y1="249.9375" y2="251.9375"/><line style="stroke:#000000;stroke-width:1.0;" x1="533" x2="533" y1="249.9375" y2="251.9375"/><text fill="#000000" font-family="sans-serif" font-size="12" lengthAdjust="spacing" textLength="64" x="540" y="250.3008">05-03-2025</text><line style="stroke:#000000;stroke-width:1.0;" x1="538" x2="621" y1="252.9375" y2="252.9375"/><line style="stroke:#000000;stroke-width:1.0;" x1="538" x2="538" y1="249.9375" y2="251.9375"/><line style="stroke:#000000;stroke-width:1.0;" x1="621" x2="621" y1="249.9375" y2="251.9375"/><text fill="#000000" font-family="sans-serif" font-size="12" lengthAdjust="spacing" textLength="12" x="628" y="250.3008">&#8212;</text><line style="stroke:#000000;stroke-width:1.0;" x1="626" x2="641" y1="252.9375" y2="252.9375"/><line style="stroke:#000000;stroke-width:1.0;" x1="626" x2="626" y1="249.9375" y2="251.9375"/><line style="stroke:#000000;stroke-width:1.0;" x1="641" x2="641" y1="249.9375" y2="251.9375"/><text fill="#000000" font-family="sans-serif" font-size="12" lengthAdjust="spacing" textLength="58" x="12" y="271.3945">PROY-014</text><line style="stroke:#000000;stroke-width:1.0;" x1="10" x2="77" y1="274.0313" y2="274.0313"/><line style="stroke:#000000;stroke-width:1.0;" x1="10" x2="10" y1="271.0313" y2="273.0313"/><line style="stroke:#000000;stroke-width:1.0;" x1="77" x2="77" y1="271.0313" y2="273.0313"/><text fill="#000000" font-family="sans-serif" font-size="12" lengthAdjust="spacing" textLength="158" x="84" y="271.3945">Plataforma de seguimiento...</text><line style="stroke:#000000;stroke-width:1.0;" x1="82" x2="309" y1="274.0313" y2="274.0313"/><line style="stroke:#000000;stroke-width:1.0;" x1="82" x2="82" y1="271.0313" y2="273.0313"/><line style="stroke:#000000;stroke-width:1.0;" x1="309" x2="309" y1="271.0313" y2="273.0313"/><text fill="#000000" font-family="sans-serif" font-size="12" lengthAdjust="spacing" textLength="56" x="316" y="271.3945">Finalizado</text><line style="stroke:#000000;stroke-width:1.0;" x1="314" x2="397" y1="274.0313" y2="274.0313"/><line style="stroke:#000000;stroke-width:1.0;" x1="314" x2="314" y1="271.0313" y2="273.0313"/><line style="stroke:#000000;stroke-width:1.0;" x1="397" x2="397" y1="271.0313" y2="273.0313"/><text fill="#000000" font-family="sans-serif" font-size="12" lengthAdjust="spacing" textLength="100" x="404" y="271.3945">Luis G&#243;mez P&#233;rez</text><line style="stroke:#000000;stroke-width:1.0;" x1="402" x2="533" y1="274.0313" y2="274.0313"/><line style="stroke:#000000;stroke-width:1.0;" x1="402" x2="402" y1="271.0313" y2="273.0313"/><line style="stroke:#000000;stroke-width:1.0;" x1="533" x2="533" y1="271.0313" y2="273.0313"/><text fill="#000000" font-family="sans-serif" font-size="12" lengthAdjust="spacing" textLength="64" x="540" y="271.3945">12-02-2024</text><line style="stroke:#000000;stroke-width:1.0;" x1="538" x2="621" y1="274.0313" y2="274.0313"/><line style="stroke:#000000;stroke-width:1.0;" x1="538" x2="538" y1="271.0313" y2="273.0313"/><line style="stroke:#000000;stroke-width:1.0;" x1="621" x2="621" y1="271.0313" y2="273.0313"/><text fill="#000000" font-family="sans-serif" font-size="12" lengthAdjust="spacing" textLength="64" x="628" y="271.3945">30-11-2024</text><line style="stroke:#000000;stroke-width:1.0;" x1="626" x2="709" y1="274.0313" y2="274.0313"/><line style="stroke:#000000;stroke-width:1.0;" x1="626" x2="626" y1="271.0313" y2="273.0313"/><line style="stroke:#000000;stroke-width:1.0;" x1="709" x2="709" y1="271.0313" y2="273.0313"/><line style="stroke:#AAAAAA;stroke-width:1.5;" x1="7" x2="778" y1="283.5313" y2="283.5313"/><rect fill="#EEEEEE" height="19.0938" rx="5" ry="5" style="stroke:#000000;stroke-width:2.5;" width="116" x="10.5" y="291.5313"/><text fill="#000000" font-family="sans-serif" font-size="12" lengthAdjust="spacing" textLength="74" x="31.5" y="305.9883">Abrir proyecto</text><rect fill="#EEEEEE" height="19.0938" rx="5" ry="5" style="stroke:#000000;stroke-width:2.5;" width="124" x="133.5" y="291.5313"/><text fill="#000000" font-family="sans-serif" font-size="12" lengthAdjust="spacing" textLength="70" x="160.5" y="305.9883">Aplicar filtros</text><rect fill="#EEEEEE" height="19.0938" rx="5" ry="5" style="stroke:#000000;stroke-width:2.5;" width="124" x="264.5" y="291.5313"/><text fill="#000000" font-family="sans-serif" font-size="12" lengthAdjust="spacing" textLength="75" x="289" y="305.9883">Limpiar filtros</text><rect fill="#EEEEEE" height="19.0938" rx="5" ry="5" style="stroke:#000000;stroke-width:2.5;" width="68" x="395.5" y="291.5313"/><text fill="#000000" font-family="sans-serif" font-size="12" lengthAdjust="spacing" textLength="50" x="404.5" y="305.9883">Cancelar</text><!--SRC=[XLJDJXin4BxxAKOvmM73PaEgAg8821i4tOY81AGASN1sdJ3IhXtPtbG93Uf3z0LwxA4d7Y5lqYVfh1FoMwXFdl7dyVTz7ll4MAwjuQa5tjEesrgDHMoLznMrw6kU2VR4WCOd6cvor3k-k6mtmOFspVMNiD6zxXmTz8utGVCz2tWJKwkvXWFevIRckhx4Rq9THFZBSuU0Rt2_p3zie8ggtTblcwTg5_hFyJ3TEIOawSbo_nEKkYfHfaJpqfdIcjQq2q89SQwDSa4J9KznGeibcEvmQYYb4qBGrdTvhR6PikNq-PcjsnOX4OH4m71n9wO8K8w4iJZWCSvUv8QJdlUkgOuGCLfvjw2uz68LhmbP9PiYVkH406DKsza-EYvRBfUA5l7yIk2ywv0WaJb9VAZ62ZYa70Q5799IBfTtxMvmdPBkfj1ozbCcOWBHx6Ke9cwnubDfB_23cWi3twi4y_0D6bM7EwLIAHeq2s-JFBOumeGdZe8RsptGeaV2eKCSuaSYSPFZfFGAz6kUNrtH-FFznrld7pf0E-MMzvMUEs748CSCXRHgu_ZrHgCmoedlnUmbezFRirzQhCudqRxJFIzV9Higy_2_NVPqVrey-cM7FHGDUpfCaLufNIazMsLSBi9iY5kv1fUnIBbUDFEKJTc9a4dnbp168gMzRKKm4jgWab0f5vJArRtkOqxtsODA3GA_VkZN_HeqmYuKo_jixw8TZG8mAjUnW8GwHcCljrHXdrtn4IVhfSLCrE5wAEJL-UVN18HoX5h9Z9naLtUj5U33eNU65Zf24nUuQx5pqUSvVNYXZ1Kr-Q0Ejzsczv55N0voFg3Qmh26ehfwN8UmynS0]--></g></svg>