<svg xmlns="http://www.w3.org/2000/svg" xmlns:xlink="http://www.w3.org/1999/xlink" contentStyleType="text/css" data-diagram-type="STATE" height="620px" preserveAspectRatio="none" style="width:569px;height:620px;background:#FFFFFF;" version="1.1" viewBox="0 0 569 620" width="569px" zoomAndPan="magnify"><defs/><g><path d="M19.5,7 L478.5,7 A12.5,12.5 0 0 1 491,19.5 L491,33.2969 L7,33.2969 L7,19.5 A12.5,12.5 0 0 1 19.5,7" fill="#F1F1F1"/><rect fill="none" height="462.2969" rx="12.5" ry="12.5" style="stroke:#181818;stroke-width:0.5;" width="484" x="7" y="7"/><line style="stroke:#181818;stroke-width:0.5;" x1="7" x2="491" y1="33.2969" y2="33.2969"/><text fill="#000000" font-family="sans-serif" font-size="14" lengthAdjust="spacing" textLength="162.2441" x="167.8779" y="24.9951">abrirMisPublicaciones()</text><g id="abrirMisPublicaciones.MostrandoMisPublicaciones"><rect fill="#F1F1F1" height="50" rx="12.5" ry="12.5" style="stroke:#181818;stroke-width:0.5;" width="50" x="19" y="135.2969"/><line style="stroke:#181818;stroke-width:0.5;" x1="19" x2="69" y1="161.5938" y2="161.5938"/><text fill="#000000" font-family="sans-serif" font-size="14" lengthAdjust="spacing" textLength="4.4502" x="41.7749" y="153.292">&#160;</text></g><g id="abrirMisPublicaciones.OpcionSelecionada"><rect fill="#F1F1F1" height="50" rx="12.5" ry="12.5" style="stroke:#181818;stroke-width:0.5;" width="50" x="19" y="316.2969"/><line style="stroke:#181818;stroke-width:0.5;" x1="19" x2="69" y1="342.5938" y2="342.5938"/><text fill="#000000" font-family="sans-serif" font-size="14" lengthAdjust="spacing" textLength="4.4502" x="41.7749" y="334.292">&#160;</text></g><ellipse cx="44" cy="54.2969" fill="#222222" rx="10" ry="10" style="stroke:#222222;stroke-width:1;"/><ellipse cx="44" cy="448.2969" fill="none" rx="11" ry="11" style="stroke:#222222;stroke-width:1;"/><ellipse cx="44" cy="448.2969" fill="#222222" rx="6" ry="6" style="stroke:#222222;stroke-width:1;"/><!--link *start*abrirMisPublicaciones to MostrandoMisPublicaciones--><g class="link" data-entity-1=".start.abrirMisPublicaciones" data-entity-2="MostrandoMisPublicaciones" data-source-line="8" data-uid="lnk3" id="link_.start.abrirMisPublicaciones_MostrandoMisPublicaciones"><path d="M44,64.5269 C44,80.2369 44,106.6569 44,129.1669" fill="none" id="*start*abrirMisPublicaciones-to-MostrandoMisPublicaciones" style="stroke:#008000;stroke-width:1;"/><polygon fill="#008000" points="44,135.1669,48,126.1669,44,130.1669,40,126.1669,44,135.1669" style="stroke:#008000;stroke-width:1;"/><path d="M49,87.2969 L49,112.2969 L365,112.2969 L365,97.2969 L355,87.2969 L49,87.2969" fill="#FEFFDD" style="stroke:#181818;stroke-width:0.5;"/><path d="M355,87.2969 L355,97.2969 L365,97.2969 L355,87.2969" fill="#FEFFDD" style="stroke:#181818;stroke-width:0.5;"/><text fill="#000000" font-family="sans-serif" font-size="13" font-weight="bold" lengthAdjust="spacing" textLength="92.5171" x="55" y="104.3638">Investigador</text><text fill="#000000" font-family="sans-serif" font-size="13" lengthAdjust="spacing" textLength="199.2783" x="151.6494" y="104.3638">solicita abrir sus publicaciones</text></g><!--link MostrandoMisPublicaciones to OpcionSelecionada--><g class="link" data-entity-1="MostrandoMisPublicaciones" data-entity-2="OpcionSelecionada" data-source-line="13" data-uid="lnk4" id="link_MostrandoMisPublicaciones_OpcionSelecionada"><path d="M44,185.4369 C44,219.6969 44,276.0469 44,310.2569" fill="none" id="MostrandoMisPublicaciones-to-OpcionSelecionada" style="stroke:#008000;stroke-width:1;"/><polygon fill="#008000" points="44,316.2569,48,307.2569,44,311.2569,40,307.2569,44,316.2569" style="stroke:#008000;stroke-width:1;"/><path d="M49,208.2969 L49,293.2969 L482,293.2969 L482,218.2969 L472,208.2969 L49,208.2969" fill="#FEFFDD" style="stroke:#181818;stroke-width:0.5;"/><path d="M472,208.2969 L472,218.2969 L482,218.2969 L472,208.2969" fill="#FEFFDD" style="stroke:#181818;stroke-width:0.5;"/><text fill="#000000" font-family="sans-serif" font-size="13" font-weight="bold" lengthAdjust="spacing" textLength="58.9063" x="55" y="225.3638">Sistema</text><text fill="#000000" font-family="sans-serif" font-size="13" lengthAdjust="spacing" textLength="349.9336" x="118.0386" y="225.3638">presenta las publicaciones hechas por el investigador</text><text fill="#000000" font-family="sans-serif" font-size="13" lengthAdjust="spacing" textLength="231.1563" x="55" y="240.4966">&#8226; Titulo de publicacion, Descripcion</text><text fill="#000000" font-family="sans-serif" font-size="13" lengthAdjust="spacing" textLength="305.2969" x="55" y="255.6294">&#8226; Permite solicitar abrir una de sus publicacion</text><text fill="#000000" font-family="sans-serif" font-size="13" lengthAdjust="spacing" textLength="262.2788" x="55" y="270.7622">&#8226; Permite solicitar crear una publicacion</text><text fill="#000000" font-family="sans-serif" font-size="13" lengthAdjust="spacing" textLength="268.3662" x="55" y="285.895">&#8226; Permite solicitar abrir el panel principal</text></g><!--link OpcionSelecionada to *end*abrirMisPublicaciones--><g class="link" data-entity-1="OpcionSelecionada" data-entity-2=".end.abrirMisPublicaciones" data-source-line="22" data-uid="lnk6" id="link_OpcionSelecionada_.end.abrirMisPublicaciones"><path d="M44,366.3869 C44,388.7869 44,415.0669 44,431.2469" fill="none" id="OpcionSelecionada-to-*end*abrirMisPublicaciones" style="stroke:#008000;stroke-width:1;"/><polygon fill="#008000" points="44,437.2469,48,428.2469,44,432.2469,40,428.2469,44,437.2469" style="stroke:#008000;stroke-width:1;"/><path d="M49,389.2969 L49,414.2969 L345,414.2969 L345,399.2969 L335,389.2969 L49,389.2969" fill="#FEFFDD" style="stroke:#181818;stroke-width:0.5;"/><path d="M335,389.2969 L335,399.2969 L345,399.2969 L335,389.2969" fill="#FEFFDD" style="stroke:#181818;stroke-width:0.5;"/><text fill="#000000" font-family="sans-serif" font-size="13" font-weight="bold" lengthAdjust="spacing" textLength="92.5171" x="55" y="406.3638">Investigador</text><text fill="#000000" font-family="sans-serif" font-size="13" lengthAdjust="spacing" textLength="179.2769" x="151.6494" y="406.3638">solicita una de las opciones</text></g><g id="MI_PUBLICACION_ABIERTA"><rect fill="#F1F1F1" height="50" rx="12.5" ry="12.5" style="stroke:#181818;stroke-width:0.5;" width="205.1924" x="18.5" y="564"/><line style="stroke:#181818;stroke-width:0.5;" x1="18.5" x2="223.6924" y1="590.2969" y2="590.2969"/><text fill="#000000" font-family="sans-serif" font-size="14" lengthAdjust="spacing" textLength="185.1924" x="28.5" y="581.9951">MI_PUBLICACION_ABIERTA</text></g><g id="PANEL_PRINCIPAL_ABIERTO"><rect fill="#F1F1F1" height="50" rx="12.5" ry="12.5" style="stroke:#181818;stroke-width:0.5;" width="213.0879" x="330.5" y="564"/><line style="stroke:#181818;stroke-width:0.5;" x1="330.5" x2="543.5879" y1="590.2969" y2="590.2969"/><text fill="#000000" font-family="sans-serif" font-size="14" lengthAdjust="spacing" textLength="193.0879" x="340.5" y="581.9951">PANEL_PRINCIPAL_ABIERTO</text></g><!--link abrirMisPublicaciones to MI_PUBLICACION_ABIERTA--><g class="link" data-entity-1="abrirMisPublicaciones" data-entity-2="MI_PUBLICACION_ABIERTA" data-source-line="28" data-uid="lnk8" id="link_abrirMisPublicaciones_MI_PUBLICACION_ABIERTA"><path d="M69.29,469.17 C55.03,487.43 46,499 46,499 C46,499 46,534 46,534 C46,534 62.6098,545.9655 82.5798,560.3355" fill="none" id="abrirMisPublicaciones-to-MI_PUBLICACION_ABIERTA" style="stroke:#008000;stroke-width:1;"/><polygon fill="#008000" points="87.45,563.84,82.4811,555.3365,83.3915,560.9196,77.8084,561.8301,87.45,563.84" style="stroke:#008000;stroke-width:1;"/><path d="M51,504 L51,529 L201,529 L201,514 L191,504 L51,504" fill="#FEFFDD" style="stroke:#181818;stroke-width:0.5;"/><path d="M191,504 L191,514 L201,514 L191,504" fill="#FEFFDD" style="stroke:#181818;stroke-width:0.5;"/><text fill="#000000" font-family="sans-serif" font-size="13" lengthAdjust="spacing" textLength="129.1113" x="57" y="521.0669">abrirMiPublicacion()</text></g><!--link abrirMisPublicaciones to MI_PUBLICACION_ABIERTA--><g class="link" data-entity-1="abrirMisPublicaciones" data-entity-2="MI_PUBLICACION_ABIERTA" data-source-line="33" data-uid="lnk9" id="link_abrirMisPublicaciones_MI_PUBLICACION_ABIERTA"><path d="M218.56,469.26 C213.57,506.96 210,534 210,534 C210,534 189.6406,546.3592 165.9406,560.7292" fill="none" id="abrirMisPublicaciones-to-MI_PUBLICACION_ABIERTA-1" style="stroke:#008000;stroke-width:1;"/><polygon fill="#008000" points="160.81,563.84,170.5797,562.5942,165.0855,561.2477,166.432,555.7534,160.81,563.84" style="stroke:#008000;stroke-width:1;"/><path d="M219,504 L219,529 L357,529 L357,514 L347,504 L219,504" fill="#FEFFDD" style="stroke:#181818;stroke-width:0.5;"/><path d="M347,504 L347,514 L357,514 L347,504" fill="#FEFFDD" style="stroke:#181818;stroke-width:0.5;"/><text fill="#000000" font-family="sans-serif" font-size="13" lengthAdjust="spacing" textLength="117.5649" x="225" y="521.0669">crearPublicacion()</text></g><!--link abrirMisPublicaciones to PANEL_PRINCIPAL_ABIERTO--><g class="link" data-entity-1="abrirMisPublicaciones" data-entity-2="PANEL_PRINCIPAL_ABIERTO" data-source-line="38" data-uid="lnk11" id="link_abrirMisPublicaciones_PANEL_PRINCIPAL_ABIERTO"><path d="M373.09,469.36 C393.78,507.77 409.4537,536.8681 421.1637,558.5981" fill="none" id="abrirMisPublicaciones-to-PANEL_PRINCIPAL_ABIERTO" style="stroke:#008000;stroke-width:1;"/><polygon fill="#008000" points="424.01,563.88,423.2618,554.0596,421.6381,559.4784,416.2192,557.8547,424.01,563.88" style="stroke:#008000;stroke-width:1;"/><path d="M410,504 L410,529 L562,529 L562,514 L552,504 L410,504" fill="#FEFFDD" style="stroke:#181818;stroke-width:0.5;"/><path d="M552,504 L552,514 L562,514 L552,504" fill="#FEFFDD" style="stroke:#181818;stroke-width:0.5;"/><text fill="#000000" font-family="sans-serif" font-size="13" lengthAdjust="spacing" textLength="131.9424" x="416" y="521.0669">abrirPanelPrincipal()</text></g><!--SRC=[hLBTQi8m5BxFKnpSZOx9Na24whme-5FKNOd8QNlGO4r2qWva3FOiUxGzoPBMkTRMCMGfj3Gvv_ixCNik56eyGC85fKT5e6HoT3-CcHHJ0WmrrnDkWYnCU8GHbu8Ce85Muqcxqu9Nni2kehzb7rizaIRLA69vsL0ldIbtig24t1TZBE1MzslehkwscaYik_thY92N2saHfN36zlb6B-pxueLCohSOIzrx3FjWf6tZAHOkmMG6L4qSYRX0iukTNzVfooBhNgvfMt2JqW5pMKgJ8M5b9NWX27OKxTocr409y9AX7EZp_GEMFCqI2J6LMn_WYKoaUQxdN1gGFd2hvJi7VGeY4-ZwB_BufItIX4NRt-eB6kj0eN1lpKN45IQLm7_2hiLO2TdUZ1j6VlBe8fQgOTpiZR7cor-vXVucU1wC_Q4tz6VJZJVmH_EbnofIJYWba7Q7dMd-YIIVmEqKWJSTZJV1t9yE_S0RdpXc3KO2Dx7WUs0bcYy0]--></g></svg>