<svg xmlns="http://www.w3.org/2000/svg" xmlns:xlink="http://www.w3.org/1999/xlink" contentStyleType="text/css" data-diagram-type="STATE" height="605px" preserveAspectRatio="none" style="width:500px;height:605px;background:#FFFFFF;" version="1.1" viewBox="0 0 500 605" width="500px" zoomAndPan="magnify"><defs/><g><path d="M45,7 L424,7 A12.5,12.5 0 0 1 436.5,19.5 L436.5,33.2969 L32.5,33.2969 L32.5,19.5 A12.5,12.5 0 0 1 45,7" fill="#F1F1F1"/><rect fill="none" height="447.2969" rx="12.5" ry="12.5" style="stroke:#181818;stroke-width:0.5;" width="404" x="32.5" y="7"/><line style="stroke:#181818;stroke-width:0.5;" x1="32.5" x2="436.5" y1="33.2969" y2="33.2969"/><text fill="#000000" font-family="sans-serif" font-size="14" lengthAdjust="spacing" textLength="138.9814" x="165.0093" y="24.9951">abrirPublicaciones()</text><g id="abrirPublicaciones.MostrandoPublicaciones"><rect fill="#F1F1F1" height="50" rx="12.5" ry="12.5" style="stroke:#181818;stroke-width:0.5;" width="50" x="44.5" y="135.2969"/><line style="stroke:#181818;stroke-width:0.5;" x1="44.5" x2="94.5" y1="161.5938" y2="161.5938"/><text fill="#000000" font-family="sans-serif" font-size="14" lengthAdjust="spacing" textLength="4.4502" x="67.2749" y="153.292">&#160;</text></g><g id="abrirPublicaciones.PublicacionSelecionada"><rect fill="#F1F1F1" height="50" rx="12.5" ry="12.5" style="stroke:#181818;stroke-width:0.5;" width="50" x="44.5" y="301.2969"/><line style="stroke:#181818;stroke-width:0.5;" x1="44.5" x2="94.5" y1="327.5938" y2="327.5938"/><text fill="#000000" font-family="sans-serif" font-size="14" lengthAdjust="spacing" textLength="4.4502" x="67.2749" y="319.292">&#160;</text></g><ellipse cx="69.5" cy="54.2969" fill="#222222" rx="10" ry="10" style="stroke:#222222;stroke-width:1;"/><ellipse cx="69.5" cy="433.2969" fill="none" rx="11" ry="11" style="stroke:#222222;stroke-width:1;"/><ellipse cx="69.5" cy="433.2969" fill="#222222" rx="6" ry="6" style="stroke:#222222;stroke-width:1;"/><!--link *start*abrirPublicaciones to MostrandoPublicaciones--><g class="link" data-entity-1=".start.abrirPublicaciones" data-entity-2="MostrandoPublicaciones" data-source-line="8" data-uid="lnk3" id="link_.start.abrirPublicaciones_MostrandoPublicaciones"><path d="M69.5,64.5269 C69.5,80.2369 69.5,106.6569 69.5,129.1669" fill="none" id="*start*abrirPublicaciones-to-MostrandoPublicaciones" style="stroke:#008000;stroke-width:1;"/><polygon fill="#008000" points="69.5,135.1669,73.5,126.1669,69.5,130.1669,65.5,126.1669,69.5,135.1669" style="stroke:#008000;stroke-width:1;"/><path d="M74.5,87.2969 L74.5,112.2969 L427.5,112.2969 L427.5,97.2969 L417.5,87.2969 L74.5,87.2969" fill="#FEFFDD" style="stroke:#181818;stroke-width:0.5;"/><path d="M417.5,87.2969 L417.5,97.2969 L427.5,97.2969 L417.5,87.2969" fill="#FEFFDD" style="stroke:#181818;stroke-width:0.5;"/><text fill="#000000" font-family="sans-serif" font-size="13" font-weight="bold" lengthAdjust="spacing" textLength="92.5171" x="80.5" y="104.3638">Investigador</text><text fill="#000000" font-family="sans-serif" font-size="13" lengthAdjust="spacing" textLength="236.0186" x="177.1494" y="104.3638">solicita abrir todas las publicaciones</text></g><!--link MostrandoPublicaciones to PublicacionSelecionada--><g class="link" data-entity-1="MostrandoPublicaciones" data-entity-2="PublicacionSelecionada" data-source-line="13" data-uid="lnk4" id="link_MostrandoPublicaciones_PublicacionSelecionada"><path d="M69.5,185.4969 C69.5,216.5869 69.5,264.2469 69.5,295.2669" fill="none" id="MostrandoPublicaciones-to-PublicacionSelecionada" style="stroke:#008000;stroke-width:1;"/><polygon fill="#008000" points="69.5,301.2669,73.5,292.2669,69.5,296.2669,65.5,292.2669,69.5,301.2669" style="stroke:#008000;stroke-width:1;"/><path d="M74.5,208.2969 L74.5,278.2969 L363.5,278.2969 L363.5,218.2969 L353.5,208.2969 L74.5,208.2969" fill="#FEFFDD" style="stroke:#181818;stroke-width:0.5;"/><path d="M353.5,208.2969 L353.5,218.2969 L363.5,218.2969 L353.5,208.2969" fill="#FEFFDD" style="stroke:#181818;stroke-width:0.5;"/><text fill="#000000" font-family="sans-serif" font-size="13" font-weight="bold" lengthAdjust="spacing" textLength="58.9063" x="80.5" y="225.3638">Sistema</text><text fill="#000000" font-family="sans-serif" font-size="13" lengthAdjust="spacing" textLength="173.0879" x="143.5386" y="225.3638">presenta las publicaciones</text><text fill="#000000" font-family="sans-serif" font-size="13" lengthAdjust="spacing" textLength="231.1563" x="80.5" y="240.4966">&#8226; Titulo de publicacion, Descripcion</text><text fill="#000000" font-family="sans-serif" font-size="13" lengthAdjust="spacing" textLength="258.9971" x="80.5" y="255.6294">&#8226; Permite solicitar abrir una publicacion</text><text fill="#000000" font-family="sans-serif" font-size="13" lengthAdjust="spacing" textLength="268.3662" x="80.5" y="270.7622">&#8226; Permite solicitar abrir el panel principal</text></g><!--link PublicacionSelecionada to *end*abrirPublicaciones--><g class="link" data-entity-1="PublicacionSelecionada" data-entity-2=".end.abrirPublicaciones" data-source-line="21" data-uid="lnk6" id="link_PublicacionSelecionada_.end.abrirPublicaciones"><path d="M69.5,351.3869 C69.5,373.7869 69.5,400.0669 69.5,416.2469" fill="none" id="PublicacionSelecionada-to-*end*abrirPublicaciones" style="stroke:#008000;stroke-width:1;"/><polygon fill="#008000" points="69.5,422.2469,73.5,413.2469,69.5,417.2469,65.5,413.2469,69.5,422.2469" style="stroke:#008000;stroke-width:1;"/><path d="M74.5,374.2969 L74.5,399.2969 L370.5,399.2969 L370.5,384.2969 L360.5,374.2969 L74.5,374.2969" fill="#FEFFDD" style="stroke:#181818;stroke-width:0.5;"/><path d="M360.5,374.2969 L360.5,384.2969 L370.5,384.2969 L360.5,374.2969" fill="#FEFFDD" style="stroke:#181818;stroke-width:0.5;"/><text fill="#000000" font-family="sans-serif" font-size="13" font-weight="bold" lengthAdjust="spacing" textLength="92.5171" x="80.5" y="391.3638">Investigador</text><text fill="#000000" font-family="sans-serif" font-size="13" lengthAdjust="spacing" textLength="179.2769" x="177.1494" y="391.3638">solicita una de las opciones</text></g><g id="PUBLICACIONES_ABIERTAS"><rect fill="#F1F1F1" height="50" rx="12.5" ry="12.5" style="stroke:#181818;stroke-width:0.5;" width="208.6035" x="7" y="549"/><line style="stroke:#181818;stroke-width:0.5;" x1="7" x2="215.6035" y1="575.2969" y2="575.2969"/><text fill="#000000" font-family="sans-serif" font-size="14" lengthAdjust="spacing" textLength="188.6035" x="17" y="566.9951">PUBLICACIONES_ABIERTAS</text></g><g id="PANEL_PRINCIPAL_ABIERTO"><rect fill="#F1F1F1" height="50" rx="12.5" ry="12.5" style="stroke:#181818;stroke-width:0.5;" width="213.0879" x="251" y="549"/><line style="stroke:#181818;stroke-width:0.5;" x1="251" x2="464.0879" y1="575.2969" y2="575.2969"/><text fill="#000000" font-family="sans-serif" font-size="14" lengthAdjust="spacing" textLength="193.0879" x="261" y="566.9951">PANEL_PRINCIPAL_ABIERTO</text></g><!--link abrirPublicaciones to PUBLICACIONES_ABIERTAS--><g class="link" data-entity-1="abrirPublicaciones" data-entity-2="PUBLICACIONES_ABIERTAS" data-source-line="27" data-uid="lnk8" id="link_abrirPublicaciones_PUBLICACIONES_ABIERTAS"><path d="M154.35,454.04 C140.54,492.39 130.1432,521.235 122.2732,543.085" fill="none" id="abrirPublicaciones-to-PUBLICACIONES_ABIERTAS" style="stroke:#008000;stroke-width:1;"/><polygon fill="#008000" points="120.24,548.73,127.0532,541.618,121.9344,544.0258,119.5265,538.907,120.24,548.73" style="stroke:#008000;stroke-width:1;"/><path d="M146.5,489 L146.5,514 L281.5,514 L281.5,499 L271.5,489 L146.5,489" fill="#FEFFDD" style="stroke:#181818;stroke-width:0.5;"/><path d="M271.5,489 L271.5,499 L281.5,499 L271.5,489" fill="#FEFFDD" style="stroke:#181818;stroke-width:0.5;"/><text fill="#000000" font-family="sans-serif" font-size="13" lengthAdjust="spacing" textLength="114.2832" x="152.5" y="506.0669">abrirPublicacion()</text></g><!--link abrirPublicaciones to PANEL_PRINCIPAL_ABIERTO--><g class="link" data-entity-1="abrirPublicaciones" data-entity-2="PANEL_PRINCIPAL_ABIERTO" data-source-line="32" data-uid="lnk10" id="link_abrirPublicaciones_PANEL_PRINCIPAL_ABIERTO"><path d="M314.65,454.04 C328.46,492.39 338.8568,521.235 346.7268,543.085" fill="none" id="abrirPublicaciones-to-PANEL_PRINCIPAL_ABIERTO" style="stroke:#008000;stroke-width:1;"/><polygon fill="#008000" points="348.76,548.73,349.4735,538.907,347.0656,544.0258,341.9468,541.618,348.76,548.73" style="stroke:#008000;stroke-width:1;"/><path d="M341.5,489 L341.5,514 L493.5,514 L493.5,499 L483.5,489 L341.5,489" fill="#FEFFDD" style="stroke:#181818;stroke-width:0.5;"/><path d="M483.5,489 L483.5,499 L493.5,499 L483.5,489" fill="#FEFFDD" style="stroke:#181818;stroke-width:0.5;"/><text fill="#000000" font-family="sans-serif" font-size="13" lengthAdjust="spacing" textLength="131.9424" x="347.5" y="506.0669">abrirPanelPrincipal()</text></g><!--SRC=[dLBHQi8m57tFLrpSYux9Va24wdmeE2tMFOcCs_OYmPY490va3FOj-xHzoHAhhfqjmbAQakJat7FEhTrogT7W3WINv0wQG2jn20l6h4D7W9dX9jbdWkUOSoN90bheN6ztUnruPmpyA6zs_EEXpyewWx9GDVGrhdASag3mnG9BmjNz6lghkuqXakl-i8KJZbYfFAUImT7sk378Xh5y8-lu1Wjb1e_P4AporxZ3qXuuLNW5mh_wIYJ9ekJqWrsc5WLLaIs6sZIct3hQuL6UDcH9UddDahu_ls39tLueAAXw_W1FP7F3TLXSe0cP7VS5pwRDoVLUOlNoJJm9q2Z3RBZCkKPH2-Wtd6RdjN1yH__HhQ3OEmwfADtG8_R1MCCFM-lAosWQZwDnF9zDqjTe54yMooXbDHr_ARezTgbmap-QJQQloIAUZUCacfugp9iAX2oJSvIL6Zy0]--></g></svg>