<svg xmlns="http://www.w3.org/2000/svg" xmlns:xlink="http://www.w3.org/1999/xlink" contentStyleType="text/css" data-diagram-type="SALT" height="178px" preserveAspectRatio="none" style="width:481px;height:178px;background:#FFFFFF;" version="1.1" viewBox="0 0 481 178" width="481px" zoomAndPan="magnify"><defs/><g><line style="stroke:#AAAAAA;stroke-width:1;" x1="6" x2="474" y1="8.5" y2="8.5"/><line style="stroke:#AAAAAA;stroke-width:1;" x1="6" x2="474" y1="10.5" y2="10.5"/><text fill="#000000" font-family="sans-serif" font-size="12" font-weight="bold" lengthAdjust="spacing" textLength="187.0488" x="6" y="25.1387">GIPF - OPCIONES DE PERFIL</text><line style="stroke:#AAAAAA;stroke-width:1;" x1="6" x2="474" y1="32.4688" y2="32.4688"/><line style="stroke:#AAAAAA;stroke-width:1;" x1="6" x2="474" y1="34.4688" y2="34.4688"/><text fill="#000000" font-family="sans-serif" font-size="12" font-weight="bold" lengthAdjust="spacing" textLength="349.4121" x="7" y="50.1074">Opciones disponibles para el perfil del investigador</text><line style="stroke:#AAAAAA;stroke-width:1;" x1="7" x2="473" y1="58.4375" y2="58.4375"/><text fill="#000000" font-family="sans-serif" font-size="12" font-weight="bold" lengthAdjust="spacing" textLength="14.4258" x="9" y="76.0762">ID</text><text fill="#000000" font-family="sans-serif" font-size="12" font-weight="bold" lengthAdjust="spacing" textLength="53.4375" x="25.4258" y="76.0762">Nombre</text><text fill="#000000" font-family="sans-serif" font-size="12" font-weight="bold" lengthAdjust="spacing" textLength="46.2422" x="80.8633" y="76.0762">Campo</text><text fill="#000000" font-family="sans-serif" font-size="12" lengthAdjust="spacing" textLength="47.959" x="12" y="94.0449">INV-001</text><line style="stroke:#000000;stroke-width:1;" x1="10" x2="69" y1="96.875" y2="96.875"/><line style="stroke:#000000;stroke-width:1;" x1="10" x2="10" y1="93.875" y2="95.875"/><line style="stroke:#000000;stroke-width:1;" x1="69" x2="69" y1="93.875" y2="95.875"/><text fill="#000000" font-family="sans-serif" font-size="12" lengthAdjust="spacing" textLength="62.3086" x="76" y="94.0449">Ana L&#243;pez</text><line style="stroke:#000000;stroke-width:1;" x1="74" x2="149" y1="96.875" y2="96.875"/><line style="stroke:#000000;stroke-width:1;" x1="74" x2="74" y1="93.875" y2="95.875"/><line style="stroke:#000000;stroke-width:1;" x1="149" x2="149" y1="93.875" y2="95.875"/><text fill="#000000" font-family="sans-serif" font-size="12" lengthAdjust="spacing" textLength="122.9648" x="156" y="94.0449">Inteligencia Artificial</text><line style="stroke:#000000;stroke-width:1;" x1="154" x2="341" y1="96.875" y2="96.875"/><line style="stroke:#000000;stroke-width:1;" x1="154" x2="154" y1="93.875" y2="95.875"/><line style="stroke:#000000;stroke-width:1;" x1="341" x2="341" y1="93.875" y2="95.875"/><text fill="#000000" font-family="sans-serif" font-size="12" lengthAdjust="spacing" textLength="47.959" x="12" y="114.0137">INV-002</text><line style="stroke:#000000;stroke-width:1;" x1="10" x2="69" y1="116.8438" y2="116.8438"/><line style="stroke:#000000;stroke-width:1;" x1="10" x2="10" y1="113.8438" y2="115.8438"/><line style="stroke:#000000;stroke-width:1;" x1="69" x2="69" y1="113.8438" y2="115.8438"/><text fill="#000000" font-family="sans-serif" font-size="12" lengthAdjust="spacing" textLength="76.002" x="76" y="114.0137">Mario Garc&#237;a</text><line style="stroke:#000000;stroke-width:1;" x1="74" x2="173" y1="116.8438" y2="116.8438"/><line style="stroke:#000000;stroke-width:1;" x1="74" x2="74" y1="113.8438" y2="115.8438"/><line style="stroke:#000000;stroke-width:1;" x1="173" x2="173" y1="113.8438" y2="115.8438"/><text fill="#000000" font-family="sans-serif" font-size="12" lengthAdjust="spacing" textLength="51.6504" x="180" y="114.0137">Big Data</text><line style="stroke:#000000;stroke-width:1;" x1="178" x2="245" y1="116.8438" y2="116.8438"/><line style="stroke:#000000;stroke-width:1;" x1="178" x2="178" y1="113.8438" y2="115.8438"/><line style="stroke:#000000;stroke-width:1;" x1="245" x2="245" y1="113.8438" y2="115.8438"/><text fill="#000000" font-family="sans-serif" font-size="12" lengthAdjust="spacing" textLength="47.959" x="12" y="133.9824">INV-003</text><line style="stroke:#000000;stroke-width:1;" x1="10" x2="69" y1="136.8125" y2="136.8125"/><line style="stroke:#000000;stroke-width:1;" x1="10" x2="10" y1="133.8125" y2="135.8125"/><line style="stroke:#000000;stroke-width:1;" x1="69" x2="69" y1="133.8125" y2="135.8125"/><text fill="#000000" font-family="sans-serif" font-size="12" lengthAdjust="spacing" textLength="68.625" x="76" y="133.9824">Luc&#237;a P&#233;rez</text><line style="stroke:#000000;stroke-width:1;" x1="74" x2="165" y1="136.8125" y2="136.8125"/><line style="stroke:#000000;stroke-width:1;" x1="74" x2="74" y1="133.8125" y2="135.8125"/><line style="stroke:#000000;stroke-width:1;" x1="165" x2="165" y1="133.8125" y2="135.8125"/><text fill="#000000" font-family="sans-serif" font-size="12" lengthAdjust="spacing" textLength="91.3594" x="172" y="133.9824">Ciberseguridad</text><line style="stroke:#000000;stroke-width:1;" x1="170" x2="285" y1="136.8125" y2="136.8125"/><line style="stroke:#000000;stroke-width:1;" x1="170" x2="170" y1="133.8125" y2="135.8125"/><line style="stroke:#000000;stroke-width:1;" x1="285" x2="285" y1="133.8125" y2="135.8125"/><line style="stroke:#AAAAAA;stroke-width:1.5;" x1="7" x2="473" y1="146.3125" y2="146.3125"/><rect fill="#EEEEEE" height="17.9688" rx="5" ry="5" style="stroke:#000000;stroke-width:2.5;" width="108" x="10.5" y="154.3125"/><text fill="#000000" font-family="sans-serif" font-size="12" lengthAdjust="spacing" textLength="70.166" x="29.417" y="167.4512">Editar perfil</text><rect fill="#EEEEEE" height="17.9688" rx="5" ry="5" style="stroke:#000000;stroke-width:2.5;" width="268" x="125.5" y="154.3125"/><text fill="#000000" font-family="sans-serif" font-size="12" lengthAdjust="spacing" textLength="197.543" x="160.7285" y="167.4512">Resolver solicitud de eliminaci&#243;n</text><rect fill="#EEEEEE" height="17.9688" rx="5" ry="5" style="stroke:#000000;stroke-width:2.5;" width="68" x="400.5" y="154.3125"/><text fill="#000000" font-family="sans-serif" font-size="12" lengthAdjust="spacing" textLength="52.9395" x="408.0303" y="167.4512">Cancelar</text><!--SRC=[TL9DJzj04BtlhnZv10VJ9FrGXIW24YSoTH8hQN917CRsn1hLthNMwo1Am__feIT-GlvOnm6I8hLpyPlPzzwiP_QYTcXTZOK3J2pRQPMoqLJ7P5TS-7TiQMMn9FMWGEABn0wS9UUZC1w23zEu7qudmHm60SJ1R1X6P- -IyxViP_6BxhK5P5nNHdDI2AxG8b01rQulP09Phwbsd6DcxDwo3T_VmuFnBXFtSD1ouMVRQMBAnD8XxsDPcJRTl9LvuMJfTpfTJsZUfKQ8jayL_V3aJ0gXTbHmJZfbX4lhUCM22k_V9hsToHWj6nYXJRU_qPF25USmG8V_KRtVgQAcfKEy_MNRxbBfSqAsfhond67sbtYZzl3nyO0VReACPQClSxmLZviPrQPOamNvoCrTaybuPTPSiiQKjqzwH-kZJgb0U_lSPACswe9qrZuDfU82jLkC8n2VMhO7tPDUf_VnfDjDo66tSxJGtxMvqv2QikA2m759n-fe54VIjh4fjTjsbfF6YVnONUCQOTRebdSAquhqzU3hQm42lMPhT4dQgUlb-43uzC6_OWTpikqFBSTgG2jivF46EZKPw_mK5j-6_cSLeSuRpCMRjEeRyRNtSZR_0m00]--></g></svg>