<svg xmlns="http://www.w3.org/2000/svg" xmlns:xlink="http://www.w3.org/1999/xlink" contentStyleType="text/css" data-diagram-type="SALT" height="199px" preserveAspectRatio="none" style="width:394px;height:199px;background:#FFFFFF;" version="1.1" viewBox="0 0 394 199" width="394px" zoomAndPan="magnify"><defs/><g><line style="stroke:#AAAAAA;stroke-width:1;" x1="6" x2="387.7188" y1="8.5" y2="8.5"/><line style="stroke:#AAAAAA;stroke-width:1;" x1="6" x2="387.7188" y1="10.5" y2="10.5"/><text fill="#000000" font-family="sans-serif" font-size="12" font-weight="bold" lengthAdjust="spacing" textLength="380.7188" x="6" y="25.1387">GIPF - RESOLVER SOLICITUD DE ELIMINACI&#211;N DE PERFIL</text><line style="stroke:#AAAAAA;stroke-width:1;" x1="6" x2="387.7188" y1="32.4688" y2="32.4688"/><line style="stroke:#AAAAAA;stroke-width:1;" x1="6" x2="387.7188" y1="34.4688" y2="34.4688"/><text fill="#000000" font-family="sans-serif" font-size="12" font-weight="bold" lengthAdjust="spacing" textLength="154.3418" x="7" y="50.1074">Solicitudes pendientes</text><line style="stroke:#AAAAAA;stroke-width:1;" x1="7" x2="245" y1="58.4375" y2="58.4375"/><text fill="#000000" font-family="sans-serif" font-size="12" font-weight="bold" lengthAdjust="spacing" textLength="14.4258" x="9" y="76.0762">ID</text><text fill="#000000" font-family="sans-serif" font-size="12" font-weight="bold" lengthAdjust="spacing" textLength="53.4375" x="25.4258" y="76.0762">Nombre</text><text fill="#000000" font-family="sans-serif" font-size="12" font-weight="bold" lengthAdjust="spacing" textLength="44.4141" x="80.8633" y="76.0762">Acci&#243;n</text><text fill="#000000" font-family="sans-serif" font-size="12" lengthAdjust="spacing" textLength="47.959" x="12" y="94.0449">INV-001</text><line style="stroke:#000000;stroke-width:1;" x1="10" x2="69" y1="96.875" y2="96.875"/><line style="stroke:#000000;stroke-width:1;" x1="10" x2="10" y1="93.875" y2="95.875"/><line style="stroke:#000000;stroke-width:1;" x1="69" x2="69" y1="93.875" y2="95.875"/><text fill="#000000" font-family="sans-serif" font-size="12" lengthAdjust="spacing" textLength="62.3086" x="76" y="94.0449">Ana L&#243;pez</text><line style="stroke:#000000;stroke-width:1;" x1="74" x2="149" y1="96.875" y2="96.875"/><line style="stroke:#000000;stroke-width:1;" x1="74" x2="74" y1="93.875" y2="95.875"/><line style="stroke:#000000;stroke-width:1;" x1="149" x2="149" y1="93.875" y2="95.875"/><rect fill="#EEEEEE" height="17.9688" rx="5" ry="5" style="stroke:#000000;stroke-width:2.5;" width="60" x="155.5" y="85.4063"/><text fill="#000000" font-family="sans-serif" font-size="12" lengthAdjust="spacing" textLength="45.2637" x="162.8682" y="98.5449">Evaluar</text><text fill="#000000" font-family="sans-serif" font-size="12" lengthAdjust="spacing" textLength="47.959" x="12" y="121.0137">INV-002</text><line style="stroke:#000000;stroke-width:1;" x1="10" x2="69" y1="123.8438" y2="123.8438"/><line style="stroke:#000000;stroke-width:1;" x1="10" x2="10" y1="120.8438" y2="122.8438"/><line style="stroke:#000000;stroke-width:1;" x1="69" x2="69" y1="120.8438" y2="122.8438"/><text fill="#000000" font-family="sans-serif" font-size="12" lengthAdjust="spacing" textLength="76.002" x="76" y="121.0137">Mario Garc&#237;a</text><line style="stroke:#000000;stroke-width:1;" x1="74" x2="173" y1="123.8438" y2="123.8438"/><line style="stroke:#000000;stroke-width:1;" x1="74" x2="74" y1="120.8438" y2="122.8438"/><line style="stroke:#000000;stroke-width:1;" x1="173" x2="173" y1="120.8438" y2="122.8438"/><rect fill="#EEEEEE" height="17.9688" rx="5" ry="5" style="stroke:#000000;stroke-width:2.5;" width="60" x="179.5" y="112.375"/><text fill="#000000" font-family="sans-serif" font-size="12" lengthAdjust="spacing" textLength="45.2637" x="186.8682" y="125.5137">Evaluar</text><text fill="#000000" font-family="sans-serif" font-size="12" lengthAdjust="spacing" textLength="47.959" x="12" y="147.9824">INV-003</text><line style="stroke:#000000;stroke-width:1;" x1="10" x2="69" y1="150.8125" y2="150.8125"/><line style="stroke:#000000;stroke-width:1;" x1="10" x2="10" y1="147.8125" y2="149.8125"/><line style="stroke:#000000;stroke-width:1;" x1="69" x2="69" y1="147.8125" y2="149.8125"/><text fill="#000000" font-family="sans-serif" font-size="12" lengthAdjust="spacing" textLength="68.625" x="76" y="147.9824">Luc&#237;a P&#233;rez</text><line style="stroke:#000000;stroke-width:1;" x1="74" x2="165" y1="150.8125" y2="150.8125"/><line style="stroke:#000000;stroke-width:1;" x1="74" x2="74" y1="147.8125" y2="149.8125"/><line style="stroke:#000000;stroke-width:1;" x1="165" x2="165" y1="147.8125" y2="149.8125"/><rect fill="#EEEEEE" height="17.9688" rx="5" ry="5" style="stroke:#000000;stroke-width:2.5;" width="60" x="171.5" y="139.3438"/><text fill="#000000" font-family="sans-serif" font-size="12" lengthAdjust="spacing" textLength="45.2637" x="178.8682" y="152.4824">Evaluar</text><line style="stroke:#AAAAAA;stroke-width:1.5;" x1="7" x2="245" y1="167.3125" y2="167.3125"/><rect fill="#EEEEEE" height="17.9688" rx="5" ry="5" style="stroke:#000000;stroke-width:2.5;" width="60" x="10.5" y="175.3125"/><text fill="#000000" font-family="sans-serif" font-size="12" lengthAdjust="spacing" textLength="48.0059" x="16.4971" y="188.4512">Aprobar</text><rect fill="#EEEEEE" height="17.9688" rx="5" ry="5" style="stroke:#000000;stroke-width:2.5;" width="68" x="77.5" y="175.3125"/><text fill="#000000" font-family="sans-serif" font-size="12" lengthAdjust="spacing" textLength="55.8633" x="83.5684" y="188.4512">Rechazar</text><rect fill="#EEEEEE" height="17.9688" rx="5" ry="5" style="stroke:#000000;stroke-width:2.5;" width="68" x="152.5" y="175.3125"/><text fill="#000000" font-family="sans-serif" font-size="12" lengthAdjust="spacing" textLength="52.9395" x="160.0303" y="188.4512">Cancelar</text><!--SRC=[XP9DRjim48NtFCL0gsIXr79_K0Hf4DUI3RcI8yYnDq4N8thi4fL8Ww8SD8bpYPuYYwno15sif9lA212Wiz4C-RudWeyNjK5jQYmDQAfLkIKzKwNWmZJBg1ILaCY5aXdfbIZz6w5ffR4YTiV0rXTR- -QiE1_7sGXyoAFPPRA8Sh2VU1XVpKC88uYIE8sdWs7S_fwwEOloKPoSlIlEN_lyjNrnx0v2DMn8BWL9GtK7kVBzhZsW-ydoSUYqSE-yfgegD1tc0UUYVPPkOVSQzEBfmk_r0iyAlO54IDhd3TrwTkyUhgCjbWtgxsz3_JsKeXOAngXv-uJUVw7tUoXfd1gozb6xdxr9xLZNFZmS-hlhmKQhmaeTbXF_WRSlmn0bfx8psR4Tkx0twV9cB2jHcdcQW0szjY53SDBlzJ-U14511eFUqLp-bEf60bVLHfG4HbHqp8x6MGArQZGdM8hQQ54qnkB7R89RXBoHJdSAbpQpIVZjtm94SYkqafLDaKqMwK7mwOF_LHYOaRO7WKNAGbfXOrza9BbQ2ha-XVdLoF_C4fJh1jVMcoGRAkkhVzczsHy0]--></g></svg>