<svg xmlns="http://www.w3.org/2000/svg" xmlns:xlink="http://www.w3.org/1999/xlink" contentStyleType="text/css" data-diagram-type="STATE" height="846px" preserveAspectRatio="none" style="width:617px;height:846px;background:#FFFFFF;" version="1.1" viewBox="0 0 617 846" width="617px" zoomAndPan="magnify"><defs/><g><path d="M19.5,7 L591.5,7 A12.5,12.5 0 0 1 604,19.5 L604,33.2969 L7,33.2969 L7,19.5 A12.5,12.5 0 0 1 19.5,7" fill="#F1F1F1"/><rect fill="none" height="688.2969" rx="12.5" ry="12.5" style="stroke:#181818;stroke-width:0.5;" width="597" x="7" y="7"/><line style="stroke:#181818;stroke-width:0.5;" x1="7" x2="604" y1="33.2969" y2="33.2969"/><text fill="#000000" font-family="sans-serif" font-size="14" lengthAdjust="spacing" textLength="87.6572" x="261.6714" y="24.9951">editarPerfil()</text><g id="editarPerfil.MostrandoPerfil"><rect fill="#F1F1F1" height="50" rx="12.5" ry="12.5" style="stroke:#181818;stroke-width:0.5;" width="50" x="156" y="135.2969"/><line style="stroke:#181818;stroke-width:0.5;" x1="156" x2="206" y1="161.5938" y2="161.5938"/><text fill="#000000" font-family="sans-serif" font-size="14" lengthAdjust="spacing" textLength="4.4502" x="178.7749" y="153.292">&#160;</text></g><g id="editarPerfil.EditandoPerfil"><rect fill="#F1F1F1" height="50" rx="12.5" ry="12.5" style="stroke:#181818;stroke-width:0.5;" width="50" x="156" y="316.2969"/><line style="stroke:#181818;stroke-width:0.5;" x1="156" x2="206" y1="342.5938" y2="342.5938"/><text fill="#000000" font-family="sans-serif" font-size="14" lengthAdjust="spacing" textLength="4.4502" x="178.7749" y="334.292">&#160;</text></g><g id="editarPerfil.ValidandoCambios"><rect fill="#F1F1F1" height="50" rx="12.5" ry="12.5" style="stroke:#181818;stroke-width:0.5;" width="50" x="156" y="497.2969"/><line style="stroke:#181818;stroke-width:0.5;" x1="156" x2="206" y1="523.5938" y2="523.5938"/><text fill="#000000" font-family="sans-serif" font-size="14" lengthAdjust="spacing" textLength="4.4502" x="178.7749" y="515.292">&#160;</text></g><ellipse cx="181" cy="54.2969" fill="#222222" rx="10" ry="10" style="stroke:#222222;stroke-width:1;"/><ellipse cx="181" cy="674.2969" fill="none" rx="11" ry="11" style="stroke:#222222;stroke-width:1;"/><ellipse cx="181" cy="674.2969" fill="#222222" rx="6" ry="6" style="stroke:#222222;stroke-width:1;"/><!--link *start*editarPerfil to MostrandoPerfil--><g class="link" data-entity-1=".start.editarPerfil" data-entity-2="MostrandoPerfil" data-source-line="9" data-uid="lnk3" id="link_.start.editarPerfil_MostrandoPerfil"><path d="M181,64.5269 C181,80.2369 181,106.6569 181,129.1669" fill="none" id="*start*editarPerfil-to-MostrandoPerfil" style="stroke:#008000;stroke-width:1;"/><polygon fill="#008000" points="181,135.1669,185,126.1669,181,130.1669,177,126.1669,181,135.1669" style="stroke:#008000;stroke-width:1;"/><path d="M186,87.2969 L186,112.2969 L439,112.2969 L439,97.2969 L429,87.2969 L186,87.2969" fill="#FEFFDD" style="stroke:#181818;stroke-width:0.5;"/><path d="M429,87.2969 L429,97.2969 L439,97.2969 L429,87.2969" fill="#FEFFDD" style="stroke:#181818;stroke-width:0.5;"/><text fill="#000000" font-family="sans-serif" font-size="13" font-weight="bold" lengthAdjust="spacing" textLength="83.7002" x="192" y="104.3638">Invstigador</text><text fill="#000000" font-family="sans-serif" font-size="13" lengthAdjust="spacing" textLength="144.8472" x="279.8325" y="104.3638">solicita editar su perfil</text></g><!--link MostrandoPerfil to EditandoPerfil--><g class="link" data-entity-1="MostrandoPerfil" data-entity-2="EditandoPerfil" data-source-line="14" data-uid="lnk4" id="link_MostrandoPerfil_EditandoPerfil"><path d="M181,185.4369 C181,219.6969 181,276.0469 181,310.2569" fill="none" id="MostrandoPerfil-to-EditandoPerfil" style="stroke:#008000;stroke-width:1;"/><polygon fill="#008000" points="181,316.2569,185,307.2569,181,311.2569,177,307.2569,181,316.2569" style="stroke:#008000;stroke-width:1;"/><path d="M186,208.2969 L186,293.2969 L506,293.2969 L506,218.2969 L496,208.2969 L186,208.2969" fill="#FEFFDD" style="stroke:#181818;stroke-width:0.5;"/><path d="M496,208.2969 L496,218.2969 L506,218.2969 L496,208.2969" fill="#FEFFDD" style="stroke:#181818;stroke-width:0.5;"/><text fill="#000000" font-family="sans-serif" font-size="13" font-weight="bold" lengthAdjust="spacing" textLength="58.9063" x="192" y="225.3638">Sistema</text><text fill="#000000" font-family="sans-serif" font-size="13" lengthAdjust="spacing" textLength="236.7231" x="255.0386" y="225.3638">presenta datos a modificar del perfil</text><text fill="#000000" font-family="sans-serif" font-size="13" lengthAdjust="spacing" textLength="63.7368" x="192" y="240.4966">&#8226; Nombre</text><text fill="#000000" font-family="sans-serif" font-size="13" lengthAdjust="spacing" textLength="70.7573" x="192" y="255.6294">&#8226; Apellidos</text><text fill="#000000" font-family="sans-serif" font-size="13" lengthAdjust="spacing" textLength="55.4722" x="192" y="270.7622">&#8226; Correo</text><text fill="#000000" font-family="sans-serif" font-size="13" lengthAdjust="spacing" textLength="141.667" x="192" y="285.895">&#8226; Numero de telefono</text></g><!--link EditandoPerfil to ValidandoCambios--><g class="link" data-entity-1="EditandoPerfil" data-entity-2="ValidandoCambios" data-source-line="23" data-uid="lnk5" id="link_EditandoPerfil_ValidandoCambios"><path d="M155.89,348.7669 C110.17,360.5469 18,384.2969 18,384.2969 C18,384.2969 18,479.2969 18,479.2969 C18,479.2969 104.3598,501.5498 150.0798,513.3298" fill="none" id="EditandoPerfil-to-ValidandoCambios" style="stroke:#008000;stroke-width:1;"/><polygon fill="#008000" points="155.89,514.8269,148.1727,508.7078,151.0481,513.5793,146.1766,516.4548,155.89,514.8269" style="stroke:#008000;stroke-width:1;"/><path d="M23,411.7969 L23,451.7969 L319,451.7969 L319,421.7969 L309,411.7969 L23,411.7969" fill="#FEFFDD" style="stroke:#181818;stroke-width:0.5;"/><path d="M309,411.7969 L309,421.7969 L319,421.7969 L309,411.7969" fill="#FEFFDD" style="stroke:#181818;stroke-width:0.5;"/><text fill="#000000" font-family="sans-serif" font-size="13" font-weight="bold" lengthAdjust="spacing" textLength="83.7002" x="29" y="428.8638">Invstigador</text><text fill="#000000" font-family="sans-serif" font-size="13" lengthAdjust="spacing" textLength="159.7705" x="116.8325" y="428.8638">solicita guardar cambios</text><text fill="#000000" font-family="sans-serif" font-size="13" font-weight="bold" lengthAdjust="spacing" textLength="58.9063" x="29" y="443.9966">Sistema</text><text fill="#000000" font-family="sans-serif" font-size="13" lengthAdjust="spacing" textLength="212.3862" x="92.0386" y="443.9966">valida la informaci&#243;n modificada</text></g><!--link ValidandoCambios to EditandoPerfil--><g class="link" data-entity-1="ValidandoCambios" data-entity-2="EditandoPerfil" data-source-line="29" data-uid="lnk6" id="link_ValidandoCambios_EditandoPerfil"><path d="M206.24,513.8869 C247.29,501.8269 324,479.2969 324,479.2969 C324,479.2969 324,384.2969 324,384.2969 C324,384.2969 253.0467,363.4581 211.9967,351.3981" fill="none" id="ValidandoCambios-to-EditandoPerfil" style="stroke:#FF0000;stroke-width:1;"/><polygon fill="#FF0000" points="206.24,349.7069,213.7476,356.0816,211.0373,351.1163,216.0026,348.4059,206.24,349.7069" style="stroke:#FF0000;stroke-width:1;"/><path d="M329,389.2969 L329,474.2969 L595,474.2969 L595,399.2969 L585,389.2969 L329,389.2969" fill="#FEFFDD" style="stroke:#181818;stroke-width:0.5;"/><path d="M585,389.2969 L585,399.2969 L595,399.2969 L585,389.2969" fill="#FEFFDD" style="stroke:#181818;stroke-width:0.5;"/><text fill="#000000" font-family="sans-serif" font-size="13" lengthAdjust="spacing" textLength="126.6167" x="335" y="406.3638">Cambios no v&#225;lidos</text><text fill="#000000" font-family="sans-serif" font-size="13" font-weight="bold" lengthAdjust="spacing" textLength="58.9063" x="335" y="421.4966">Sistema</text><text fill="#000000" font-family="sans-serif" font-size="13" lengthAdjust="spacing" textLength="176.7378" x="398.0386" y="421.4966">muestra mensajes de error</text><text fill="#000000" font-family="sans-serif" font-size="13" lengthAdjust="spacing" textLength="190.2773" x="335" y="436.6294">&#8226; Campos obligatorios vac&#237;os</text><text fill="#000000" font-family="sans-serif" font-size="13" lengthAdjust="spacing" textLength="144.2441" x="335" y="451.7622">&#8226; Correo incoherentes</text><text fill="#000000" font-family="sans-serif" font-size="13" lengthAdjust="spacing" textLength="245.1528" x="335" y="466.895">&#8226; Formato incorrecto en alg&#250;n campo</text></g><!--link ValidandoCambios to *end*editarPerfil--><g class="link" data-entity-1="ValidandoCambios" data-entity-2=".end.editarPerfil" data-source-line="38" data-uid="lnk8" id="link_ValidandoCambios_.end.editarPerfil"><path d="M181,547.3969 C181,580.6869 181,633.3169 181,656.9669" fill="none" id="ValidandoCambios-to-*end*editarPerfil" style="stroke:#008000;stroke-width:1;"/><polygon fill="#008000" points="181,662.9669,185,653.9669,181,657.9669,177,653.9669,181,662.9669" style="stroke:#008000;stroke-width:1;"/><path d="M186,570.2969 L186,640.2969 L440,640.2969 L440,580.2969 L430,570.2969 L186,570.2969" fill="#FEFFDD" style="stroke:#181818;stroke-width:0.5;"/><path d="M430,570.2969 L430,580.2969 L440,580.2969 L430,570.2969" fill="#FEFFDD" style="stroke:#181818;stroke-width:0.5;"/><text fill="#000000" font-family="sans-serif" font-size="13" lengthAdjust="spacing" textLength="106.2915" x="192" y="587.3638">Cambios v&#225;lidos</text><text fill="#000000" font-family="sans-serif" font-size="13" font-weight="bold" lengthAdjust="spacing" textLength="58.9063" x="192" y="602.4966">Sistema</text><text fill="#000000" font-family="sans-serif" font-size="13" lengthAdjust="spacing" textLength="149.062" x="255.0386" y="602.4966">actualiza el entregable</text><text fill="#000000" font-family="sans-serif" font-size="13" lengthAdjust="spacing" textLength="201.062" x="192" y="617.6294">&#8226; Guarda la nueva informaci&#243;n</text><text fill="#000000" font-family="sans-serif" font-size="13" lengthAdjust="spacing" textLength="233.835" x="192" y="632.7622">&#8226; Muestra el entregable actualizado</text></g><g id="OPCIONES_PERFIL_ABIERTO"><rect fill="#F1F1F1" height="50" rx="12.5" ry="12.5" style="stroke:#181818;stroke-width:0.5;" width="215.043" x="74" y="790"/><line style="stroke:#181818;stroke-width:0.5;" x1="74" x2="289.043" y1="816.2969" y2="816.2969"/><text fill="#000000" font-family="sans-serif" font-size="14" lengthAdjust="spacing" textLength="195.043" x="84" y="807.9951">OPCIONES_PERFIL_ABIERTO</text></g><g id="PANEL_PRINCIPAL_ABIERTO"><rect fill="#F1F1F1" height="50" rx="12.5" ry="12.5" style="stroke:#181818;stroke-width:0.5;" width="213.0879" x="324" y="790"/><line style="stroke:#181818;stroke-width:0.5;" x1="324" x2="537.0879" y1="816.2969" y2="816.2969"/><text fill="#000000" font-family="sans-serif" font-size="14" lengthAdjust="spacing" textLength="193.0879" x="334" y="807.9951">PANEL_PRINCIPAL_ABIERTO</text></g><!--link editarPerfil to OPCIONES_PERFIL_ABIERTO--><g class="link" data-entity-1="editarPerfil" data-entity-2="OPCIONES_PERFIL_ABIERTO" data-source-line="47" data-uid="lnk10" id="link_editarPerfil_OPCIONES_PERFIL_ABIERTO"><path d="M213.43,695.02 C202.8,734.63 195.2853,762.6351 189.5553,783.9851" fill="none" id="editarPerfil-to-OPCIONES_PERFIL_ABIERTO" style="stroke:#008000;stroke-width:1;"/><polygon fill="#008000" points="188,789.78,194.1962,782.1245,189.2961,784.9509,186.4696,780.0508,188,789.78" style="stroke:#008000;stroke-width:1;"/><path d="M210.5,730 L210.5,755 L343.5,755 L343.5,740 L333.5,730 L210.5,730" fill="#FEFFDD" style="stroke:#181818;stroke-width:0.5;"/><path d="M333.5,730 L333.5,740 L343.5,740 L333.5,730" fill="#FEFFDD" style="stroke:#181818;stroke-width:0.5;"/><text fill="#000000" font-family="sans-serif" font-size="13" lengthAdjust="spacing" textLength="112.1631" x="216.5" y="747.0669">perfil actualizado</text></g><!--link editarPerfil to PANEL_PRINCIPAL_ABIERTO--><g class="link" data-entity-1="editarPerfil" data-entity-2="PANEL_PRINCIPAL_ABIERTO" data-source-line="52" data-uid="lnk12" id="link_editarPerfil_PANEL_PRINCIPAL_ABIERTO"><path d="M398.31,695.02 C409.02,734.63 416.6021,762.6385 422.3821,783.9885" fill="none" id="editarPerfil-to-PANEL_PRINCIPAL_ABIERTO" style="stroke:#008000;stroke-width:1;"/><polygon fill="#008000" points="423.95,789.78,425.4591,780.0475,422.6434,784.9537,417.7371,782.138,423.95,789.78" style="stroke:#008000;stroke-width:1;"/><path d="M419.5,730 L419.5,755 L571.5,755 L571.5,740 L561.5,730 L419.5,730" fill="#FEFFDD" style="stroke:#181818;stroke-width:0.5;"/><path d="M561.5,730 L561.5,740 L571.5,740 L561.5,730" fill="#FEFFDD" style="stroke:#181818;stroke-width:0.5;"/><text fill="#000000" font-family="sans-serif" font-size="13" lengthAdjust="spacing" textLength="131.9424" x="425.5" y="747.0669">abrirPanelPrincipal()</text></g><!--SRC=[bLJ1Rjf05BpxArRaqbQAyWCH4aMaifI0HQfUeWWzUnzqc_K-w-qQAQqgzLVQUq-zzSgVz4lorX2CWQ0KN_3kUERDZBt-mRWA64fbZSFmMA6go3x6coJn0G8gr2O0PyXpOnLurTjTUFEsfxubYPBV6jsJIq0tv0E3qxI67G96aUJ4_YUmHaV04ChSa5zhtBsxL-TtPmj6TFVd_QCoZeI5N3Jqq2nSvltKBNqm2z34bnTvNtcoff01DkQKhrNLCg3J3SjQSq-Zet_4nJ7vM-C3bj18LumUdKXh2EGLg9AqcPj2fj1eTyVuz-EN6bEPCsvl1nLQoKNYU5uP4ZDIYwzBP18c5T3Yd1mTSTITkcFe8FR_JdHH0sinK-mGx4MmR4IK1MNSdBY4mgp-k6qG6exCl3zOd9fHlxQ4vwSSgUNgPnlXtcHbZR5iLQBpy0Lz31APYTkyeQo4Xt8hvWDn95r2iVfzq8cOA-WpifIDxTvLz1lMcu8gv2yw1NQn-kjYPXMzqlosClacJdi-PHYAK0lvL_aIh8W6nWNajdtXFZHjngfSZSjkOLlGpIQr3aLBhVSiVK-IpfcoQsQI3TF9U7GxoqRJg_HwDdYVZgOV9qd7NBKvYtO4shnUfCu6uz7rB9kcus6Q3LwWXfmDP-3GPYmLcGhaYDkoFm40]--></g></svg>