<svg xmlns="http://www.w3.org/2000/svg" xmlns:xlink="http://www.w3.org/1999/xlink" contentStyleType="text/css" data-diagram-type="STATE" height="590px" preserveAspectRatio="none" style="width:453px;height:590px;background:#FFFFFF;" version="1.1" viewBox="0 0 453 590" width="453px" zoomAndPan="magnify"><defs/><g><path d="M19.5,7 L427.5,7 A12.5,12.5 0 0 1 440,19.5 L440,33.2969 L7,33.2969 L7,19.5 A12.5,12.5 0 0 1 19.5,7" fill="#F1F1F1"/><rect fill="none" height="432.2969" rx="12.5" ry="12.5" style="stroke:#181818;stroke-width:0.5;" width="433" x="7" y="7"/><line style="stroke:#181818;stroke-width:0.5;" x1="7" x2="440" y1="33.2969" y2="33.2969"/><text fill="#000000" font-family="sans-serif" font-size="14" lengthAdjust="spacing" textLength="131.0381" x="157.981" y="24.9951">abrirInvestigador()</text><g id="abrirInvestigador.MostrandoInvestigador"><rect fill="#F1F1F1" height="50" rx="12.5" ry="12.5" style="stroke:#181818;stroke-width:0.5;" width="50" x="19" y="135.2969"/><line style="stroke:#181818;stroke-width:0.5;" x1="19" x2="69" y1="161.5938" y2="161.5938"/><text fill="#000000" font-family="sans-serif" font-size="14" lengthAdjust="spacing" textLength="4.4502" x="41.7749" y="153.292">&#160;</text></g><g id="abrirInvestigador.DetallesDeInvestigador"><rect fill="#F1F1F1" height="50" rx="12.5" ry="12.5" style="stroke:#181818;stroke-width:0.5;" width="50" x="19" y="286.2969"/><line style="stroke:#181818;stroke-width:0.5;" x1="19" x2="69" y1="312.5938" y2="312.5938"/><text fill="#000000" font-family="sans-serif" font-size="14" lengthAdjust="spacing" textLength="4.4502" x="41.7749" y="304.292">&#160;</text></g><ellipse cx="44" cy="54.2969" fill="#222222" rx="10" ry="10" style="stroke:#222222;stroke-width:1;"/><ellipse cx="44" cy="418.2969" fill="none" rx="11" ry="11" style="stroke:#222222;stroke-width:1;"/><ellipse cx="44" cy="418.2969" fill="#222222" rx="6" ry="6" style="stroke:#222222;stroke-width:1;"/><!--link *start*abrirInvestigador to MostrandoInvestigador--><g class="link" data-entity-1=".start.abrirInvestigador" data-entity-2="MostrandoInvestigador" data-source-line="8" data-uid="lnk3" id="link_.start.abrirInvestigador_MostrandoInvestigador"><path d="M44,64.5269 C44,80.2369 44,106.6569 44,129.1669" fill="none" id="*start*abrirInvestigador-to-MostrandoInvestigador" style="stroke:#008000;stroke-width:1;"/><polygon fill="#008000" points="44,135.1669,48,126.1669,44,130.1669,40,126.1669,44,135.1669" style="stroke:#008000;stroke-width:1;"/><path d="M49,87.2969 L49,112.2969 L431,112.2969 L431,97.2969 L421,87.2969 L49,87.2969" fill="#FEFFDD" style="stroke:#181818;stroke-width:0.5;"/><path d="M421,87.2969 L421,97.2969 L431,97.2969 L421,87.2969" fill="#FEFFDD" style="stroke:#181818;stroke-width:0.5;"/><text fill="#000000" font-family="sans-serif" font-size="13" font-weight="bold" lengthAdjust="spacing" textLength="92.5171" x="55" y="104.3638">Investigador</text><text fill="#000000" font-family="sans-serif" font-size="13" lengthAdjust="spacing" textLength="264.4814" x="151.6494" y="104.3638">solicita abrir un perfil de un investigador</text></g><!--link MostrandoInvestigador to DetallesDeInvestigador--><g class="link" data-entity-1="MostrandoInvestigador" data-entity-2="DetallesDeInvestigador" data-source-line="13" data-uid="lnk4" id="link_MostrandoInvestigador_DetallesDeInvestigador"><path d="M44,185.5669 C44,213.2769 44,252.3369 44,280.0369" fill="none" id="MostrandoInvestigador-to-DetallesDeInvestigador" style="stroke:#008000;stroke-width:1;"/><polygon fill="#008000" points="44,286.0369,48,277.0369,44,281.0369,40,277.0369,44,286.0369" style="stroke:#008000;stroke-width:1;"/><path d="M49,208.2969 L49,263.2969 L376,263.2969 L376,218.2969 L366,208.2969 L49,208.2969" fill="#FEFFDD" style="stroke:#181818;stroke-width:0.5;"/><path d="M366,208.2969 L366,218.2969 L376,218.2969 L366,208.2969" fill="#FEFFDD" style="stroke:#181818;stroke-width:0.5;"/><text fill="#000000" font-family="sans-serif" font-size="13" font-weight="bold" lengthAdjust="spacing" textLength="58.9063" x="55" y="225.3638">Sistema</text><text fill="#000000" font-family="sans-serif" font-size="13" lengthAdjust="spacing" textLength="220.0796" x="118.0386" y="225.3638">presenta el perfil del Investigador</text><text fill="#000000" font-family="sans-serif" font-size="13" lengthAdjust="spacing" textLength="293.2681" x="55" y="240.4966">&#8226; Nombre de investigador, Proyecto actuales</text><text fill="#000000" font-family="sans-serif" font-size="13" lengthAdjust="spacing" textLength="306.5854" x="55" y="255.6294">&#8226; Permite solicitar abrir todos los investigadors</text></g><!--link DetallesDeInvestigador to *end*abrirInvestigador--><g class="link" data-entity-1="DetallesDeInvestigador" data-entity-2=".end.abrirInvestigador" data-source-line="20" data-uid="lnk6" id="link_DetallesDeInvestigador_.end.abrirInvestigador"><path d="M44,336.3869 C44,358.7869 44,385.0669 44,401.2469" fill="none" id="DetallesDeInvestigador-to-*end*abrirInvestigador" style="stroke:#008000;stroke-width:1;"/><polygon fill="#008000" points="44,407.2469,48,398.2469,44,402.2469,40,398.2469,44,407.2469" style="stroke:#008000;stroke-width:1;"/><path d="M49,359.2969 L49,384.2969 L345,384.2969 L345,369.2969 L335,359.2969 L49,359.2969" fill="#FEFFDD" style="stroke:#181818;stroke-width:0.5;"/><path d="M335,359.2969 L335,369.2969 L345,369.2969 L335,359.2969" fill="#FEFFDD" style="stroke:#181818;stroke-width:0.5;"/><text fill="#000000" font-family="sans-serif" font-size="13" font-weight="bold" lengthAdjust="spacing" textLength="92.5171" x="55" y="376.3638">Investigador</text><text fill="#000000" font-family="sans-serif" font-size="13" lengthAdjust="spacing" textLength="179.2769" x="151.6494" y="376.3638">solicita una de las opciones</text></g><g id="INVESTIGADORES_ABIERTOS"><rect fill="#F1F1F1" height="50" rx="12.5" ry="12.5" style="stroke:#181818;stroke-width:0.5;" width="221.6191" x="112.5" y="534"/><line style="stroke:#181818;stroke-width:0.5;" x1="112.5" x2="334.1191" y1="560.2969" y2="560.2969"/><text fill="#000000" font-family="sans-serif" font-size="14" lengthAdjust="spacing" textLength="201.6191" x="122.5" y="551.9951">INVESTIGADORES_ABIERTOS</text></g><!--link abrirInvestigador to INVESTIGADORES_ABIERTOS--><g class="link" data-entity-1="abrirInvestigador" data-entity-2="INVESTIGADORES_ABIERTOS" data-source-line="26" data-uid="lnk8" id="link_abrirInvestigador_INVESTIGADORES_ABIERTOS"><path d="M223.5,439.3 C223.5,477.42 223.5,505.87 223.5,527.71" fill="none" id="abrirInvestigador-to-INVESTIGADORES_ABIERTOS" style="stroke:#008000;stroke-width:1;"/><polygon fill="#008000" points="223.5,533.71,227.5,524.71,223.5,528.71,219.5,524.71,223.5,533.71" style="stroke:#008000;stroke-width:1;"/><path d="M228.5,474 L228.5,499 L385.5,499 L385.5,484 L375.5,474 L228.5,474" fill="#FEFFDD" style="stroke:#181818;stroke-width:0.5;"/><path d="M375.5,474 L375.5,484 L385.5,484 L375.5,474" fill="#FEFFDD" style="stroke:#181818;stroke-width:0.5;"/><text fill="#000000" font-family="sans-serif" font-size="13" lengthAdjust="spacing" textLength="136.4492" x="234.5" y="491.0669">abrirInvestigadores()</text></g><!--SRC=[dPBHQi8m58RlynG7TwDZiXSGmT4oUZ4LAxiH6QVjKO9fJadYGCPWpx97svCiRQUsLc-Ma432dp_VVnAxaxf0WpaegSaT2eA2rQ5S264TEW9CZ3IHVYVhv1OpDe0MUftT_g077qA0R_MvdkzU-SBM6TGPDyLTMK0EbI8RK4jN2LVtQnYkxhQ6IA-7u-kMK4arUqlMPPfTjJ5AnatLw34PWsKbK-cmZWPx3GMPZLIGKRcGbw2aizhODt6QhbCqEMzakiKPI-ienmgnC6H9UqHIPpW57P-Vhs-OSfuOAk6Rv0ymDtoWr35WwlReEKudvcHowG6EXJ1_bN2SiGNbHzF9jefmBi3rUAqA-9VxnxFiDPPfbFyMNAIIDLqWV0hH_PNDUwFfQnWle-T9C5k4yTlaAGeNoraiMXmT2xBzWJXUyWi0]--></g></svg>