<svg xmlns="http://www.w3.org/2000/svg" xmlns:xlink="http://www.w3.org/1999/xlink" contentStyleType="text/css" data-diagram-type="STATE" height="680px" preserveAspectRatio="none" style="width:447px;height:680px;background:#FFFFFF;" version="1.1" viewBox="0 0 447 680" width="447px" zoomAndPan="magnify"><defs/><g><path d="M19.5,7 L382.5,7 A12.5,12.5 0 0 1 395,19.5 L395,33.2969 L7,33.2969 L7,19.5 A12.5,12.5 0 0 1 19.5,7" fill="#F1F1F1"/><rect fill="none" height="522.2969" rx="12.5" ry="12.5" style="stroke:#181818;stroke-width:0.5;" width="388" x="7" y="7"/><line style="stroke:#181818;stroke-width:0.5;" x1="7" x2="395" y1="33.2969" y2="33.2969"/><text fill="#000000" font-family="sans-serif" font-size="14" lengthAdjust="spacing" textLength="147.335" x="127.3325" y="24.9951">eliminarPublicacion()</text><g id="eliminarPublicacion.MostrandoPublicacion"><rect fill="#F1F1F1" height="50" rx="12.5" ry="12.5" style="stroke:#181818;stroke-width:0.5;" width="50" x="19" y="135.2969"/><line style="stroke:#181818;stroke-width:0.5;" x1="19" x2="69" y1="161.5938" y2="161.5938"/><text fill="#000000" font-family="sans-serif" font-size="14" lengthAdjust="spacing" textLength="4.4502" x="41.7749" y="153.292">&#160;</text></g><g id="eliminarPublicacion.ConfirmandoEliminacion"><rect fill="#F1F1F1" height="50" rx="12.5" ry="12.5" style="stroke:#181818;stroke-width:0.5;" width="50" x="19" y="301.2969"/><line style="stroke:#181818;stroke-width:0.5;" x1="19" x2="69" y1="327.5938" y2="327.5938"/><text fill="#000000" font-family="sans-serif" font-size="14" lengthAdjust="spacing" textLength="4.4502" x="41.7749" y="319.292">&#160;</text></g><ellipse cx="44" cy="54.2969" fill="#222222" rx="10" ry="10" style="stroke:#222222;stroke-width:1;"/><ellipse cx="44" cy="508.2969" fill="none" rx="11" ry="11" style="stroke:#222222;stroke-width:1;"/><ellipse cx="44" cy="508.2969" fill="#222222" rx="6" ry="6" style="stroke:#222222;stroke-width:1;"/><!--link *start*eliminarPublicacion to MostrandoPublicacion--><g class="link" data-entity-1=".start.eliminarPublicacion" data-entity-2="MostrandoPublicacion" data-source-line="8" data-uid="lnk3" id="link_.start.eliminarPublicacion_MostrandoPublicacion"><path d="M44,64.5269 C44,80.2369 44,106.6569 44,129.1669" fill="none" id="*start*eliminarPublicacion-to-MostrandoPublicacion" style="stroke:#008000;stroke-width:1;"/><polygon fill="#008000" points="44,135.1669,48,126.1669,44,130.1669,40,126.1669,44,135.1669" style="stroke:#008000;stroke-width:1;"/><path d="M49,87.2969 L49,112.2969 L376,112.2969 L376,97.2969 L366,87.2969 L49,87.2969" fill="#FEFFDD" style="stroke:#181818;stroke-width:0.5;"/><path d="M366,87.2969 L366,97.2969 L376,97.2969 L366,87.2969" fill="#FEFFDD" style="stroke:#181818;stroke-width:0.5;"/><text fill="#000000" font-family="sans-serif" font-size="13" font-weight="bold" lengthAdjust="spacing" textLength="92.5171" x="55" y="104.3638">Investigador</text><text fill="#000000" font-family="sans-serif" font-size="13" lengthAdjust="spacing" textLength="209.6948" x="151.6494" y="104.3638">solicita eliminar una publicacion</text></g><!--link MostrandoPublicacion to ConfirmandoEliminacion--><g class="link" data-entity-1="MostrandoPublicacion" data-entity-2="ConfirmandoEliminacion" data-source-line="13" data-uid="lnk4" id="link_MostrandoPublicacion_ConfirmandoEliminacion"><path d="M44,185.4969 C44,216.5869 44,264.2469 44,295.2669" fill="none" id="MostrandoPublicacion-to-ConfirmandoEliminacion" style="stroke:#008000;stroke-width:1;"/><polygon fill="#008000" points="44,301.2669,48,292.2669,44,296.2669,40,292.2669,44,301.2669" style="stroke:#008000;stroke-width:1;"/><path d="M49,208.2969 L49,278.2969 L386,278.2969 L386,218.2969 L376,208.2969 L49,208.2969" fill="#FEFFDD" style="stroke:#181818;stroke-width:0.5;"/><path d="M376,208.2969 L376,218.2969 L386,218.2969 L376,208.2969" fill="#FEFFDD" style="stroke:#181818;stroke-width:0.5;"/><text fill="#000000" font-family="sans-serif" font-size="13" font-weight="bold" lengthAdjust="spacing" textLength="58.9063" x="55" y="225.3638">Sistema</text><text fill="#000000" font-family="sans-serif" font-size="13" lengthAdjust="spacing" textLength="253.3667" x="118.0386" y="225.3638">presenta informaci&#243;n de la publicacion</text><text fill="#000000" font-family="sans-serif" font-size="13" lengthAdjust="spacing" textLength="249.6724" x="55" y="240.4966">&#8226; Presenta advertencia de eliminaci&#243;n</text><text fill="#000000" font-family="sans-serif" font-size="13" lengthAdjust="spacing" textLength="263.3706" x="55" y="255.6294">&#8226; Permite solicitar confirmar eliminaci&#243;n</text><text fill="#000000" font-family="sans-serif" font-size="13" lengthAdjust="spacing" textLength="255.9438" x="55" y="270.7622">&#8226; Permite solicitar cancelar eliminaci&#243;n</text></g><!--link ConfirmandoEliminacion to *end*eliminarPublicacion--><g class="link" data-entity-1="ConfirmandoEliminacion" data-entity-2=".end.eliminarPublicacion" data-source-line="21" data-uid="lnk6" id="link_ConfirmandoEliminacion_.end.eliminarPublicacion"><path d="M44,351.5769 C44,391.4969 44,463.3469 44,491.1369" fill="none" id="ConfirmandoEliminacion-to-*end*eliminarPublicacion" style="stroke:#008000;stroke-width:1;"/><polygon fill="#008000" points="44,497.1369,48,488.1369,44,492.1369,40,488.1369,44,497.1369" style="stroke:#008000;stroke-width:1;"/><path d="M49,374.2969 L49,474.2969 L373,474.2969 L373,384.2969 L363,374.2969 L49,374.2969" fill="#FEFFDD" style="stroke:#181818;stroke-width:0.5;"/><path d="M363,374.2969 L363,384.2969 L373,384.2969 L363,374.2969" fill="#FEFFDD" style="stroke:#181818;stroke-width:0.5;"/><text fill="#000000" font-family="sans-serif" font-size="13" font-weight="bold" lengthAdjust="spacing" textLength="58.9063" x="55" y="391.3638">Sistema</text><text fill="#000000" font-family="sans-serif" font-size="13" lengthAdjust="spacing" textLength="196.7329" x="118.0386" y="391.3638">permite confirmar eliminaci&#243;n</text><text fill="#000000" font-family="sans-serif" font-size="13" font-weight="bold" lengthAdjust="spacing" textLength="92.5171" x="55" y="406.4966">Investigador</text><text fill="#000000" font-family="sans-serif" font-size="13" lengthAdjust="spacing" textLength="207.251" x="151.6494" y="406.4966">solicita confirmar la eliminaci&#243;n</text><text fill="#000000" font-family="sans-serif" font-size="13" font-weight="bold" lengthAdjust="spacing" textLength="58.9063" x="55" y="421.6294">Sistema</text><text fill="#000000" font-family="sans-serif" font-size="13" lengthAdjust="spacing" textLength="138.3345" x="118.0386" y="421.6294">elimina el entregable</text><text fill="#000000" font-family="sans-serif" font-size="13" lengthAdjust="spacing" textLength="209.9106" x="55" y="436.7622">&#8226; Elimina entregables asociados</text><text fill="#000000" font-family="sans-serif" font-size="13" lengthAdjust="spacing" textLength="261.3901" x="55" y="451.895">&#8226; Quita asociaciones con investigadores</text><text fill="#000000" font-family="sans-serif" font-size="13" lengthAdjust="spacing" textLength="255.2456" x="55" y="467.0278">&#8226; Actualiza vista general de entregable</text></g><g id="MIS_PUBLICACIONES_ABIERTAS"><rect fill="#F1F1F1" height="50" rx="12.5" ry="12.5" style="stroke:#181818;stroke-width:0.5;" width="240.6982" x="80.5" y="624"/><line style="stroke:#181818;stroke-width:0.5;" x1="80.5" x2="321.1982" y1="650.2969" y2="650.2969"/><text fill="#000000" font-family="sans-serif" font-size="14" lengthAdjust="spacing" textLength="220.6982" x="90.5" y="641.9951">MIS_PUBLICACIONES_ABIERTAS</text></g><!--link eliminarPublicacion to MIS_PUBLICACIONES_ABIERTAS--><g class="link" data-entity-1="eliminarPublicacion" data-entity-2="MIS_PUBLICACIONES_ABIERTAS" data-source-line="32" data-uid="lnk8" id="link_eliminarPublicacion_MIS_PUBLICACIONES_ABIERTAS"><path d="M103.25,529.06 C96.33,547.49 92,559 92,559 C92,559 92,594 92,594 C92,594 117.8431,606.8075 146.8631,621.1775" fill="none" id="eliminarPublicacion-to-MIS_PUBLICACIONES_ABIERTAS" style="stroke:#008000;stroke-width:1;"/><polygon fill="#008000" points="152.24,623.84,145.9497,616.2616,147.7593,621.6212,142.3996,623.4308,152.24,623.84" style="stroke:#008000;stroke-width:1;"/><path d="M97,564 L97,589 L260,589 L260,574 L250,564 L97,564" fill="#FEFFDD" style="stroke:#181818;stroke-width:0.5;"/><path d="M250,564 L250,574 L260,574 L250,564" fill="#FEFFDD" style="stroke:#181818;stroke-width:0.5;"/><text fill="#000000" font-family="sans-serif" font-size="13" lengthAdjust="spacing" textLength="142.0859" x="103" y="581.0669">publicacion eliminada</text></g><!--link eliminarPublicacion to MIS_PUBLICACIONES_ABIERTAS--><g class="link" data-entity-1="eliminarPublicacion" data-entity-2="MIS_PUBLICACIONES_ABIERTAS" data-source-line="37" data-uid="lnk9" id="link_eliminarPublicacion_MIS_PUBLICACIONES_ABIERTAS"><path d="M261.98,529.06 C266.3,547.49 269,559 269,559 C269,559 269,594 269,594 C269,594 254.2301,605.7405 236.1201,620.1105" fill="none" id="eliminarPublicacion-to-MIS_PUBLICACIONES_ABIERTAS-1" style="stroke:#0000FF;stroke-width:1;"/><polygon fill="#0000FF" points="231.42,623.84,240.9565,621.3792,235.3368,620.7321,235.9839,615.1124,231.42,623.84" style="stroke:#0000FF;stroke-width:1;"/><path d="M274,564 L274,589 L440,589 L440,574 L430,564 L274,564" fill="#FEFFDD" style="stroke:#181818;stroke-width:0.5;"/><path d="M430,564 L430,574 L440,574 L430,564" fill="#FEFFDD" style="stroke:#181818;stroke-width:0.5;"/><text fill="#000000" font-family="sans-serif" font-size="13" lengthAdjust="spacing" textLength="145.082" x="280" y="581.0669">eliminacion cancelada</text></g><!--SRC=[bLDTIiD047xFAORwee9u0IdKqeU0FzNgavGoISQok9aDkvk2Yk1Pl897y2QUn4dQ_DbKQl8GCllDVDzyC-kU56TeCGMjcFnpHf0P_Lpy187pw0b8grGnscaUQHLZh0m3EXZqn0-F1l0Q123FEdSWhs0lZVCMEJ4jx3PgRFXHsRJ0JTQrIrm9V3YUmyd3mT8IyVnakBiY6oae2gM3fp9m5Wr3Nf7pQec9iMUdqH2SaHpbiUuDSaR8VfKYJifoQmLzZ1r9E-Jl4ZLJpbEAfPxCaYCMFOeVZPI8rTSdGqAWjrLzlt_0jC9ZiYBhYME51PmgNablm6HJ9VnLqnRYZLAxTm9oJBeFt_MetuAEIpB8_IpPYFX3wv-JRV8qzgQsoJRdyfM6lAKbHffgFoRLQNtaP5sDU9uOLwDkye9s7I-w5f1ea8as2gb1ZsAVerOl22lHWR0a9ekw769NGUtmMn3qNSNEhGXdY-dz-KKu7et3wwl9R34w3oUtTwDPqF6xjLDLxma6pInty4Gwf__GK6i7DYlKela1]--></g></svg>