<svg xmlns="http://www.w3.org/2000/svg" xmlns:xlink="http://www.w3.org/1999/xlink" contentStyleType="text/css" data-diagram-type="STATE" height="560px" preserveAspectRatio="none" style="width:554px;height:560px;background:#FFFFFF;" version="1.1" viewBox="0 0 554 560" width="554px" zoomAndPan="magnify"><defs/><g><path d="M54,7 L404,7 A12.5,12.5 0 0 1 416.5,19.5 L416.5,33.2969 L41.5,33.2969 L41.5,19.5 A12.5,12.5 0 0 1 54,7" fill="#F1F1F1"/><rect fill="none" height="402.2969" rx="12.5" ry="12.5" style="stroke:#181818;stroke-width:0.5;" width="375" x="41.5" y="7"/><line style="stroke:#181818;stroke-width:0.5;" x1="41.5" x2="416.5" y1="33.2969" y2="33.2969"/><text fill="#000000" font-family="sans-serif" font-size="14" lengthAdjust="spacing" textLength="123.0742" x="167.4629" y="24.9951">abrirPublicacion()</text><g><rect fill="#F1F1F1" height="50" rx="12.5" ry="12.5" style="stroke:#181818;stroke-width:0.5;" width="50" x="53.5" y="135.2969"/><line style="stroke:#181818;stroke-width:0.5;" x1="53.5" x2="103.5" y1="161.5938" y2="161.5938"/><text fill="#000000" font-family="sans-serif" font-size="14" lengthAdjust="spacing" textLength="4.4502" x="76.2749" y="153.292">&#160;</text></g><ellipse cx="78.5" cy="54.2969" fill="#222222" rx="10" ry="10" style="stroke:#222222;stroke-width:1;"/><ellipse cx="78.5" cy="388.2969" fill="none" rx="11" ry="11" style="stroke:#222222;stroke-width:1;"/><ellipse cx="78.5" cy="388.2969" fill="#222222" rx="6" ry="6" style="stroke:#222222;stroke-width:1;"/><!--link *start*abrirPublicacion to MostrandoPublicacion--><g class="link" data-entity-1="ent0002" data-entity-2="ent0003" data-link-type="dependency" data-source-line="7" id="lnk3"><path d="M78.5,64.5269 C78.5,80.2369 78.5,106.6569 78.5,129.1669" fill="none" id="*start*abrirPublicacion-to-MostrandoPublicacion" style="stroke:#008000;stroke-width:1;"/><polygon fill="#008000" points="78.5,135.1669,82.5,126.1669,78.5,130.1669,74.5,126.1669,78.5,135.1669" style="stroke:#008000;stroke-width:1;"/><path d="M83.5,87.2969 L83.5,112.2969 L385.5,112.2969 L385.5,97.2969 L375.5,87.2969 L83.5,87.2969" fill="#FEFFDD" style="stroke:#181818;stroke-width:0.5;"/><path d="M375.5,87.2969 L375.5,97.2969 L385.5,97.2969 L375.5,87.2969" fill="#FEFFDD" style="stroke:#181818;stroke-width:0.5;"/><text fill="#000000" font-family="sans-serif" font-size="13" font-weight="bold" lengthAdjust="spacing" textLength="90.251" x="89.5" y="104.3638">Coordinador</text><text fill="#000000" font-family="sans-serif" font-size="13" lengthAdjust="spacing" textLength="187.167" x="183.8833" y="104.3638">solicita abrir una publicaci&#243;n</text></g><!--link MostrandoPublicacion to *end*abrirPublicacion--><g class="link" data-entity-1="ent0003" data-entity-2="ent0004" data-link-type="dependency" data-source-line="12" id="lnk5"><path d="M78.5,185.4869 C78.5,234.4469 78.5,337.5169 78.5,371.1969" fill="none" id="MostrandoPublicacion-to-*end*abrirPublicacion" style="stroke:#008000;stroke-width:1;"/><polygon fill="#008000" points="78.5,377.1969,82.5,368.1969,78.5,372.1969,74.5,368.1969,78.5,377.1969" style="stroke:#008000;stroke-width:1;"/><path d="M83.5,208.2969 L83.5,354.2969 L407.5,354.2969 L407.5,218.2969 L397.5,208.2969 L83.5,208.2969" fill="#FEFFDD" style="stroke:#181818;stroke-width:0.5;"/><path d="M397.5,208.2969 L397.5,218.2969 L407.5,218.2969 L397.5,208.2969" fill="#FEFFDD" style="stroke:#181818;stroke-width:0.5;"/><text fill="#000000" font-family="sans-serif" font-size="13" font-weight="bold" lengthAdjust="spacing" textLength="58.9063" x="89.5" y="225.3638">Sistema</text><text fill="#000000" font-family="sans-serif" font-size="13" lengthAdjust="spacing" textLength="240.5508" x="152.5386" y="225.3638">presenta contenido de la publicaci&#243;n</text><text fill="#000000" font-family="sans-serif" font-size="13" lengthAdjust="spacing" textLength="48.2549" x="89.5" y="240.4966">&#8226; T&#237;tulo</text><text fill="#000000" font-family="sans-serif" font-size="13" lengthAdjust="spacing" textLength="48.4834" x="89.5" y="255.6294">&#8226; Texto</text><text fill="#000000" font-family="sans-serif" font-size="13" lengthAdjust="spacing" textLength="47.3281" x="89.5" y="270.7622">&#8226; Autor</text><text fill="#000000" font-family="sans-serif" font-size="13" lengthAdjust="spacing" textLength="155.2446" x="89.5" y="285.895">&#8226; Respuestas asociadas</text><text fill="#000000" font-family="sans-serif" font-size="13" font-weight="bold" lengthAdjust="spacing" textLength="58.9063" x="89.5" y="301.0278">Sistema</text><text fill="#000000" font-family="sans-serif" font-size="13" lengthAdjust="spacing" textLength="110.5952" x="152.5386" y="301.0278">permite solicitar:</text><text fill="#000000" font-family="sans-serif" font-size="13" lengthAdjust="spacing" textLength="77.9556" x="89.5" y="316.1606">&#8226; responder</text><text fill="#000000" font-family="sans-serif" font-size="13" lengthAdjust="spacing" textLength="50.0703" x="89.5" y="331.2935">&#8226; editar</text><text fill="#000000" font-family="sans-serif" font-size="13" lengthAdjust="spacing" textLength="64.8477" x="89.5" y="346.4263">&#8226; eliminar</text></g><g><rect fill="#F1F1F1" height="50" rx="12.5" ry="12.5" style="stroke:#181818;stroke-width:0.5;" width="181.9844" x="9.01" y="504.3"/><line style="stroke:#181818;stroke-width:0.5;" x1="9.01" x2="190.9944" y1="530.5969" y2="530.5969"/><text fill="#000000" font-family="sans-serif" font-size="14" lengthAdjust="spacing" textLength="161.9844" x="19.01" y="522.2951">PUBLICACION_ABIERTA</text></g><g><rect fill="#F1F1F1" height="50" rx="12.5" ry="12.5" style="stroke:#181818;stroke-width:0.5;" width="208.6035" x="317.7" y="504.3"/><line style="stroke:#181818;stroke-width:0.5;" x1="317.7" x2="526.3035" y1="530.5969" y2="530.5969"/><text fill="#000000" font-family="sans-serif" font-size="14" lengthAdjust="spacing" textLength="188.6035" x="327.7" y="522.2951">PUBLICACIONES_ABIERTAS</text></g><!--link abrirPublicacion to PUBLICACION_ABIERTA--><g class="link" data-entity-1="ent0002" data-entity-2="ent0006" data-link-type="dependency" data-source-line="26" id="lnk7"><path d="M41.09,403.09 C20.05,424.8 6,439.3 6,439.3 C6,439.3 6,474.3 6,474.3 C6,474.3 27.3276,486.5508 52.1976,500.8408" fill="none" id="abrirPublicacion-to-PUBLICACION_ABIERTA" style="stroke:#008000;stroke-width:1;"/><polygon fill="#008000" points="57.4,503.83,51.5893,495.8779,53.0647,501.339,47.6036,502.8144,57.4,503.83" style="stroke:#008000;stroke-width:1;"/><path d="M11,444.3 L11,469.3 L181,469.3 L181,454.3 L171,444.3 L11,444.3" fill="#FEFFDD" style="stroke:#181818;stroke-width:0.5;"/><path d="M171,444.3 L171,454.3 L181,454.3 L171,444.3" fill="#FEFFDD" style="stroke:#181818;stroke-width:0.5;"/><text fill="#000000" font-family="sans-serif" font-size="13" lengthAdjust="spacing" textLength="149.9189" x="17" y="461.3669">responderPublicacion()</text></g><!--link abrirPublicacion to PUBLICACION_ABIERTA--><g class="link" data-entity-1="ent0002" data-entity-2="ent0006" data-link-type="dependency" data-source-line="31" id="lnk8"><path d="M199.49,409.78 C194.03,446.93 190,474.3 190,474.3 C190,474.3 169.7446,486.4524 145.9346,500.7424" fill="none" id="abrirPublicacion-to-PUBLICACION_ABIERTA-1" style="stroke:#008000;stroke-width:1;"/><polygon fill="#008000" points="140.79,503.83,150.5653,502.6283,145.0771,501.257,146.4485,495.7689,140.79,503.83" style="stroke:#008000;stroke-width:1;"/><path d="M199,444.3 L199,469.3 L342,469.3 L342,454.3 L332,444.3 L199,444.3" fill="#FEFFDD" style="stroke:#181818;stroke-width:0.5;"/><path d="M332,444.3 L332,454.3 L342,454.3 L332,444.3" fill="#FEFFDD" style="stroke:#181818;stroke-width:0.5;"/><text fill="#000000" font-family="sans-serif" font-size="13" lengthAdjust="spacing" textLength="122.0337" x="205" y="461.3669">editarPublicacion()</text></g><!--link abrirPublicacion to PUBLICACIONES_ABIERTAS--><g class="link" data-entity-1="ent0002" data-entity-2="ent0009" data-link-type="dependency" data-source-line="36" id="lnk10"><path d="M350.13,409.46 C373.01,447.28 390.7955,476.6956 404.0855,498.6756" fill="none" id="abrirPublicacion-to-PUBLICACIONES_ABIERTAS" style="stroke:#008000;stroke-width:1;"/><polygon fill="#008000" points="407.19,503.81,405.9562,494.0387,404.6029,499.5313,399.1103,498.178,407.19,503.81" style="stroke:#008000;stroke-width:1;"/><path d="M390,444.3 L390,469.3 L547,469.3 L547,454.3 L537,444.3 L390,444.3" fill="#FEFFDD" style="stroke:#181818;stroke-width:0.5;"/><path d="M537,444.3 L537,454.3 L547,454.3 L537,444.3" fill="#FEFFDD" style="stroke:#181818;stroke-width:0.5;"/><text fill="#000000" font-family="sans-serif" font-size="13" lengthAdjust="spacing" textLength="136.811" x="396" y="461.3669">eliminarPublicacion()</text></g><!--SRC=[fP9DQiCm48NtEiMGRjf2wBw4W1ko2FGd9EagX3AsXY9YQuGaGqCfz2pTTzKZv2OzIITn4yUfkugy6l7qlUSdXQMn3ZqMa1jBSUK87EUhpQ1KY1W9CFN6ZyiqDnbcXYrWWCxnvlb51rwL0bdLgOvy8hpZ43rQpGVQIZQ_N41tVlRiYUoYsszNReIM1IUsaccvtUYb_G6pryQYPj-xIliGM8wOY5LOA2s2ss7MNnM7hDwoAliskqOUoVUl_TI4I0LkhPsdG5QiCxQHhD4CcY1l2V3z_W6pzMSiSwvdUedrb9IH_NwQK70bIPr1ckJCeCRGce1yOIJahWH_lKT8DiTMKmqblL7KOsuAwT4t6tfJwi-j7tOpVhov7GsImUZX_Ycv6GqdiqGrUjhxDfw8gg_WD7pr4wUoXzCTVNg4_osbtU07]--></g></svg>