<?xml version="1.0" encoding="us-ascii" standalone="no"?><svg xmlns="http://www.w3.org/2000/svg" xmlns:xlink="http://www.w3.org/1999/xlink" contentStyleType="text/css" height="810px" preserveAspectRatio="none" style="width:365px;height:810px;background:#FFFFFF;" version="1.1" viewBox="0 0 365 810" width="365px" zoomAndPan="magnify"><defs/><g><path d="M19.5,153 L339.5,153 A12.5,12.5 0 0 1 352,165.5 L352,180.6094 L7,180.6094 L7,165.5 A12.5,12.5 0 0 1 19.5,153 " fill="#F1F1F1" style="stroke:#F1F1F1;stroke-width:1.0;"/><rect fill="none" height="504.6094" rx="12.5" ry="12.5" style="stroke:#181818;stroke-width:0.5;" width="345" x="7" y="153"/><line style="stroke:#181818;stroke-width:0.5;" x1="7" x2="352" y1="180.6094" y2="180.6094"/><text fill="#000000" font-family="sans-serif" font-size="14" lengthAdjust="spacing" textLength="115" x="122" y="172.5332">crearPublicacion()</text><g id="crearPublicacion.SolicitandoDatos"><rect fill="#F1F1F1" height="50" rx="12.5" ry="12.5" style="stroke:#181818;stroke-width:0.5;" width="50" x="19" y="283.6094"/><line style="stroke:#181818;stroke-width:0.5;" x1="19" x2="69" y1="311.2188" y2="311.2188"/><text fill="#000000" font-family="sans-serif" font-size="14" lengthAdjust="spacing" textLength="4" x="42" y="303.1426">&#160;</text></g><g id="crearPublicacion.CreandoPublicacion"><rect fill="#F1F1F1" height="50" rx="12.5" ry="12.5" style="stroke:#181818;stroke-width:0.5;" width="50" x="19" y="487.6094"/><line style="stroke:#181818;stroke-width:0.5;" x1="19" x2="69" y1="515.2188" y2="515.2188"/><text fill="#000000" font-family="sans-serif" font-size="14" lengthAdjust="spacing" textLength="4" x="42" y="507.1426">&#160;</text></g><ellipse cx="44" cy="201.6094" fill="#222222" rx="10" ry="10" style="stroke:#222222;stroke-width:1.0;"/><ellipse cx="44" cy="636.6094" fill="none" rx="11" ry="11" style="stroke:#222222;stroke-width:1.0;"/><ellipse cx="44" cy="636.6094" fill="#222222" rx="6" ry="6" style="stroke:#222222;stroke-width:1.0;"/><!--link *start*crearPublicacion to SolicitandoDatos--><g id="link_*start*crearPublicacion_SolicitandoDatos"><path d="M44,211.9294 C44,227.7894 44,254.5194 44,277.2494 " fill="none" id="*start*crearPublicacion-to-SolicitandoDatos" style="stroke:#008000;stroke-width:1.0;"/><polygon fill="#008000" points="44,283.2494,48,274.2494,44,278.2494,40,274.2494,44,283.2494" style="stroke:#008000;stroke-width:1.0;"/><path d="M49,234.6094 L49,260.6094 L296,260.6094 L296,244.6094 L286,234.6094 L49,234.6094 " fill="#FEFFDD" style="stroke:#181818;stroke-width:0.5;"/><path d="M286,234.6094 L286,244.6094 L296,244.6094 L286,234.6094 " fill="#FEFFDD" style="stroke:#181818;stroke-width:0.5;"/><text fill="#000000" font-family="sans-serif" font-size="13" font-weight="bold" lengthAdjust="spacing" textLength="79" x="55" y="253.1045">Coordinador</text><text fill="#000000" font-family="sans-serif" font-size="13" lengthAdjust="spacing" textLength="143" x="138" y="253.1045">solicita crear publicaci&#243;n</text></g><!--link SolicitandoDatos to CreandoPublicacion--><g id="link_SolicitandoDatos_CreandoPublicacion"><path d="M44,333.9794 C44,372.9094 44,442.6894 44,481.4694 " fill="none" id="SolicitandoDatos-to-CreandoPublicacion" style="stroke:#008000;stroke-width:1.0;"/><polygon fill="#008000" points="44,487.4694,48,478.4694,44,482.4694,40,478.4694,44,487.4694" style="stroke:#008000;stroke-width:1.0;"/><path d="M49,356.6094 L49,464.6094 L340,464.6094 L340,366.6094 L330,356.6094 L49,356.6094 " fill="#FEFFDD" style="stroke:#181818;stroke-width:0.5;"/><path d="M330,356.6094 L330,366.6094 L340,366.6094 L330,356.6094 " fill="#FEFFDD" style="stroke:#181818;stroke-width:0.5;"/><text fill="#000000" font-family="sans-serif" font-size="13" font-weight="bold" lengthAdjust="spacing" textLength="51" x="55" y="375.1045">Sistema</text><text fill="#000000" font-family="sans-serif" font-size="13" lengthAdjust="spacing" textLength="215" x="110" y="375.1045">solicita datos de la nueva publicaci&#243;n</text><text fill="#000000" font-family="sans-serif" font-size="13" lengthAdjust="spacing" textLength="40" x="55" y="391.4561">&#8226; T&#237;tulo</text><text fill="#000000" font-family="sans-serif" font-size="13" lengthAdjust="spacing" textLength="77" x="55" y="407.8076">&#8226; Descripci&#243;n</text><text fill="#000000" font-family="sans-serif" font-size="13" lengthAdjust="spacing" textLength="176" x="55" y="424.1592">&#8226; Estado (borrador / publicada)</text><text fill="#000000" font-family="sans-serif" font-size="13" lengthAdjust="spacing" textLength="173" x="55" y="440.5107">&#8226; Visibilidad (p&#250;blica / privada)</text><text fill="#000000" font-family="sans-serif" font-size="13" lengthAdjust="spacing" textLength="157" x="55" y="456.8623">&#8226; Archivo adjunto (opcional)</text></g><!--link CreandoPublicacion to *end*crearPublicacion--><g id="link_CreandoPublicacion_*end*crearPublicacion"><path d="M44,537.7094 C44,564.3794 44,600.1094 44,619.3094 " fill="none" id="CreandoPublicacion-to-*end*crearPublicacion" style="stroke:#008000;stroke-width:1.0;"/><polygon fill="#008000" points="44,625.3094,48,616.3094,44,620.3094,40,616.3094,44,625.3094" style="stroke:#008000;stroke-width:1.0;"/><path d="M49,560.6094 L49,602.6094 L343,602.6094 L343,570.6094 L333,560.6094 L49,560.6094 " fill="#FEFFDD" style="stroke:#181818;stroke-width:0.5;"/><path d="M333,560.6094 L333,570.6094 L343,570.6094 L333,560.6094 " fill="#FEFFDD" style="stroke:#181818;stroke-width:0.5;"/><text fill="#000000" font-family="sans-serif" font-size="13" font-weight="bold" lengthAdjust="spacing" textLength="79" x="55" y="579.1045">Coordinador</text><text fill="#000000" font-family="sans-serif" font-size="13" lengthAdjust="spacing" textLength="190" x="138" y="579.1045">proporciona los datos solicitados</text><text fill="#000000" font-family="sans-serif" font-size="13" font-weight="bold" lengthAdjust="spacing" textLength="51" x="55" y="595.4561">Sistema</text><text fill="#000000" font-family="sans-serif" font-size="13" lengthAdjust="spacing" textLength="108" x="110" y="595.4561">crea la publicaci&#243;n</text></g><g id="MIS_PUBLICACIONES_ABIERTAS"><rect fill="#F1F1F1" height="50" rx="12.5" ry="12.5" style="stroke:#181818;stroke-width:0.5;" width="234" x="62.5" y="7"/><line style="stroke:#181818;stroke-width:0.5;" x1="62.5" x2="296.5" y1="34.6094" y2="34.6094"/><text fill="#000000" font-family="sans-serif" font-size="14" lengthAdjust="spacing" textLength="214" x="72.5" y="26.5332">MIS_PUBLICACIONES_ABIERTAS</text></g><g id="MI_PUBLICACION_ABIERTA"><rect fill="#F1F1F1" height="50" rx="12.5" ry="12.5" style="stroke:#181818;stroke-width:0.5;" width="198" x="80.5" y="754"/><line style="stroke:#181818;stroke-width:0.5;" x1="80.5" x2="278.5" y1="781.6094" y2="781.6094"/><text fill="#000000" font-family="sans-serif" font-size="14" lengthAdjust="spacing" textLength="178" x="90.5" y="773.5332">MI_PUBLICACION_ABIERTA</text></g><!--link MIS_PUBLICACIONES_ABIERTAS to crearPublicacion--><g id="link_MIS_PUBLICACIONES_ABIERTAS_crearPublicacion"><path d="M179.5,57.09 C179.5,78.96 179.5,107.72 179.5,146.98 " fill="none" id="MIS_PUBLICACIONES_ABIERTAS-to-crearPublicacion" style="stroke:#008000;stroke-width:1.0;"/><polygon fill="#008000" points="179.5,152.98,183.5,143.98,179.5,147.98,175.5,143.98,179.5,152.98" style="stroke:#008000;stroke-width:1.0;"/><path d="M184.5,92 L184.5,118 L309.5,118 L309.5,102 L299.5,92 L184.5,92 " fill="#FEFFDD" style="stroke:#181818;stroke-width:0.5;"/><path d="M299.5,92 L299.5,102 L309.5,102 L299.5,92 " fill="#FEFFDD" style="stroke:#181818;stroke-width:0.5;"/><text fill="#000000" font-family="sans-serif" font-size="13" lengthAdjust="spacing" textLength="104" x="190.5" y="110.4951">crearPublicacion()</text></g><!--link crearPublicacion to MI_PUBLICACION_ABIERTA--><g id="link_crearPublicacion_MI_PUBLICACION_ABIERTA"><path d="M179.5,658.15 C179.5,697.3 179.5,725.96 179.5,747.81 " fill="none" id="crearPublicacion-to-MI_PUBLICACION_ABIERTA" style="stroke:#008000;stroke-width:1.0;"/><polygon fill="#008000" points="179.5,753.81,183.5,744.81,179.5,748.81,175.5,744.81,179.5,753.81" style="stroke:#008000;stroke-width:1.0;"/><path d="M184.5,693 L184.5,719 L315.5,719 L315.5,703 L305.5,693 L184.5,693 " fill="#FEFFDD" style="stroke:#181818;stroke-width:0.5;"/><path d="M305.5,693 L305.5,703 L315.5,703 L305.5,693 " fill="#FEFFDD" style="stroke:#181818;stroke-width:0.5;"/><text fill="#000000" font-family="sans-serif" font-size="13" lengthAdjust="spacing" textLength="110" x="190.5" y="711.4951">Publicaci&#243;n creada</text></g><!--SRC=[ZPDDRi8m48NtFiM8Rg0IuW88AGGMaKgB6jeDGjKajbgNO5jsWeIgIZrBzrrrroqtwKdgE0Jo0rAJbPqttpo_SSoQ2uKQDv1mmTATOg1aiiiNX9WKKmQnPgZdMPJm66Ck1Q21JdEps-l06o5WdwAgOryh3ALLy1G5bHDCfMahV4koNoki0hEyNa5_UVMi6HEh_kWyIKWBifQitxNR64OZNqfDkK0gzN0GZS0S2ek3W2eRxR-5As62EaxHjjccvk6CrqikGcvIji6w0-g8b46283AsnRQRtuzFMEo_qYoHn_M4cLXpLHTDROfKGZUIMkTdXK49ezWxgXwvuH5FE4KANRN_SO9Sglcs9lHq_CAt4f2-PYArNAdoys7IEnDIEuTQJ7Pq_vwEqb99xLf1aeVZ8YeJeuSvDmBD9vbdU7cMxuJCWl1f_Z2-2NpF3-vkf-6JDmwczmilh9bjtcHISzs-v-GKHUlFg79dGRLxsRjEdrVyEoCKJ_W_]--></g></svg>