<?xml version="1.0" encoding="us-ascii" standalone="no"?><svg xmlns="http://www.w3.org/2000/svg" xmlns:xlink="http://www.w3.org/1999/xlink" contentStyleType="text/css" height="775px" preserveAspectRatio="none" style="width:758px;height:775px;background:#FFFFFF;" version="1.1" viewBox="0 0 758 775" width="758px" zoomAndPan="magnify"><defs/><g><g id="in1"><rect fill="#F1F1F1" height="50" rx="12.5" ry="12.5" style="stroke:#181818;stroke-width:0.5;" width="234" x="232" y="7"/><line style="stroke:#181818;stroke-width:0.5;" x1="232" x2="466" y1="34.6094" y2="34.6094"/><text fill="#000000" font-family="sans-serif" font-size="14" lengthAdjust="spacing" textLength="214" x="242" y="26.5332">MIS_PUBLICACIONES_ABIERTAS</text></g><path d="M189,118 L509,118 A12.5,12.5 0 0 1 521.5,130.5 L521.5,145.6094 L176.5,145.6094 L176.5,130.5 A12.5,12.5 0 0 1 189,118 " fill="#F1F1F1" style="stroke:#F1F1F1;stroke-width:1.0;"/><rect fill="none" height="504.6094" rx="12.5" ry="12.5" style="stroke:#181818;stroke-width:0.5;" width="345" x="176.5" y="118"/><line style="stroke:#181818;stroke-width:0.5;" x1="176.5" x2="521.5" y1="145.6094" y2="145.6094"/><text fill="#000000" font-family="sans-serif" font-size="14" lengthAdjust="spacing" textLength="115" x="291.5" y="137.5332">crearPublicacion()</text><g id="crearPublicacion.SolicitandoDatos"><rect fill="#F1F1F1" height="50" rx="12.5" ry="12.5" style="stroke:#181818;stroke-width:0.5;" width="50" x="188.5" y="248.6094"/><line style="stroke:#181818;stroke-width:0.5;" x1="188.5" x2="238.5" y1="276.2188" y2="276.2188"/><text fill="#000000" font-family="sans-serif" font-size="14" lengthAdjust="spacing" textLength="4" x="211.5" y="268.1426">&#160;</text></g><g id="crearPublicacion.CreandoPublicacion"><rect fill="#F1F1F1" height="50" rx="12.5" ry="12.5" style="stroke:#181818;stroke-width:0.5;" width="50" x="188.5" y="452.6094"/><line style="stroke:#181818;stroke-width:0.5;" x1="188.5" x2="238.5" y1="480.2188" y2="480.2188"/><text fill="#000000" font-family="sans-serif" font-size="14" lengthAdjust="spacing" textLength="4" x="211.5" y="472.1426">&#160;</text></g><ellipse cx="213.5" cy="166.6094" fill="#222222" rx="10" ry="10" style="stroke:#222222;stroke-width:1.0;"/><ellipse cx="213.5" cy="601.6094" fill="none" rx="11" ry="11" style="stroke:#222222;stroke-width:1.0;"/><ellipse cx="213.5" cy="601.6094" fill="#222222" rx="6" ry="6" style="stroke:#222222;stroke-width:1.0;"/><!--link *start*crearPublicacion to SolicitandoDatos--><g id="link_*start*crearPublicacion_SolicitandoDatos"><path d="M213.5,176.9294 C213.5,192.7894 213.5,219.5194 213.5,242.2494 " fill="none" id="*start*crearPublicacion-to-SolicitandoDatos" style="stroke:#008000;stroke-width:1.0;"/><polygon fill="#008000" points="213.5,248.2494,217.5,239.2494,213.5,243.2494,209.5,239.2494,213.5,248.2494" style="stroke:#008000;stroke-width:1.0;"/><path d="M218.5,199.6094 L218.5,225.6094 L465.5,225.6094 L465.5,209.6094 L455.5,199.6094 L218.5,199.6094 " fill="#FEFFDD" style="stroke:#181818;stroke-width:0.5;"/><path d="M455.5,199.6094 L455.5,209.6094 L465.5,209.6094 L455.5,199.6094 " fill="#FEFFDD" style="stroke:#181818;stroke-width:0.5;"/><text fill="#000000" font-family="sans-serif" font-size="13" font-weight="bold" lengthAdjust="spacing" textLength="79" x="224.5" y="218.1045">Coordinador</text><text fill="#000000" font-family="sans-serif" font-size="13" lengthAdjust="spacing" textLength="143" x="307.5" y="218.1045">solicita crear publicaci&#243;n</text></g><!--link SolicitandoDatos to CreandoPublicacion--><g id="link_SolicitandoDatos_CreandoPublicacion"><path d="M213.5,298.9794 C213.5,337.9094 213.5,407.6894 213.5,446.4694 " fill="none" id="SolicitandoDatos-to-CreandoPublicacion" style="stroke:#008000;stroke-width:1.0;"/><polygon fill="#008000" points="213.5,452.4694,217.5,443.4694,213.5,447.4694,209.5,443.4694,213.5,452.4694" style="stroke:#008000;stroke-width:1.0;"/><path d="M218.5,321.6094 L218.5,429.6094 L509.5,429.6094 L509.5,331.6094 L499.5,321.6094 L218.5,321.6094 " fill="#FEFFDD" style="stroke:#181818;stroke-width:0.5;"/><path d="M499.5,321.6094 L499.5,331.6094 L509.5,331.6094 L499.5,321.6094 " fill="#FEFFDD" style="stroke:#181818;stroke-width:0.5;"/><text fill="#000000" font-family="sans-serif" font-size="13" font-weight="bold" lengthAdjust="spacing" textLength="51" x="224.5" y="340.1045">Sistema</text><text fill="#000000" font-family="sans-serif" font-size="13" lengthAdjust="spacing" textLength="215" x="279.5" y="340.1045">solicita datos de la nueva publicaci&#243;n</text><text fill="#000000" font-family="sans-serif" font-size="13" lengthAdjust="spacing" textLength="40" x="224.5" y="356.4561">&#8226; T&#237;tulo</text><text fill="#000000" font-family="sans-serif" font-size="13" lengthAdjust="spacing" textLength="77" x="224.5" y="372.8076">&#8226; Descripci&#243;n</text><text fill="#000000" font-family="sans-serif" font-size="13" lengthAdjust="spacing" textLength="176" x="224.5" y="389.1592">&#8226; Estado (borrador / publicada)</text><text fill="#000000" font-family="sans-serif" font-size="13" lengthAdjust="spacing" textLength="173" x="224.5" y="405.5107">&#8226; Visibilidad (p&#250;blica / privada)</text><text fill="#000000" font-family="sans-serif" font-size="13" lengthAdjust="spacing" textLength="157" x="224.5" y="421.8623">&#8226; Archivo adjunto (opcional)</text></g><!--link CreandoPublicacion to *end*crearPublicacion--><g id="link_CreandoPublicacion_*end*crearPublicacion"><path d="M213.5,502.7094 C213.5,529.3794 213.5,565.1094 213.5,584.3094 " fill="none" id="CreandoPublicacion-to-*end*crearPublicacion" style="stroke:#008000;stroke-width:1.0;"/><polygon fill="#008000" points="213.5,590.3094,217.5,581.3094,213.5,585.3094,209.5,581.3094,213.5,590.3094" style="stroke:#008000;stroke-width:1.0;"/><path d="M218.5,525.6094 L218.5,567.6094 L512.5,567.6094 L512.5,535.6094 L502.5,525.6094 L218.5,525.6094 " fill="#FEFFDD" style="stroke:#181818;stroke-width:0.5;"/><path d="M502.5,525.6094 L502.5,535.6094 L512.5,535.6094 L502.5,525.6094 " fill="#FEFFDD" style="stroke:#181818;stroke-width:0.5;"/><text fill="#000000" font-family="sans-serif" font-size="13" font-weight="bold" lengthAdjust="spacing" textLength="79" x="224.5" y="544.1045">Coordinador</text><text fill="#000000" font-family="sans-serif" font-size="13" lengthAdjust="spacing" textLength="190" x="307.5" y="544.1045">proporciona los datos solicitados</text><text fill="#000000" font-family="sans-serif" font-size="13" font-weight="bold" lengthAdjust="spacing" textLength="51" x="224.5" y="560.4561">Sistema</text><text fill="#000000" font-family="sans-serif" font-size="13" lengthAdjust="spacing" textLength="108" x="279.5" y="560.4561">crea la publicaci&#243;n</text></g><g id="MI_PUBLICACION_ABIERTA"><rect fill="#F1F1F1" height="50" rx="12.5" ry="12.5" style="stroke:#181818;stroke-width:0.5;" width="198" x="7" y="719"/><line style="stroke:#181818;stroke-width:0.5;" x1="7" x2="205" y1="746.6094" y2="746.6094"/><text fill="#000000" font-family="sans-serif" font-size="14" lengthAdjust="spacing" textLength="178" x="17" y="738.5332">MI_PUBLICACION_ABIERTA</text></g><g id="MIS_PUBLICACIONES_ABIERTAS"><rect fill="#F1F1F1" height="50" rx="12.5" ry="12.5" style="stroke:#181818;stroke-width:0.5;" width="234" x="416" y="719"/><line style="stroke:#181818;stroke-width:0.5;" x1="416" x2="650" y1="746.6094" y2="746.6094"/><text fill="#000000" font-family="sans-serif" font-size="14" lengthAdjust="spacing" textLength="214" x="426" y="738.5332">MIS_PUBLICACIONES_ABIERTAS</text></g><!--link in1 to crearPublicacion--><g id="link_in1_crearPublicacion"><path d="M349,57.2 C349,72.35 349,87.58 349,111.92 " fill="none" id="in1-to-crearPublicacion" style="stroke:#008000;stroke-width:1.0;"/><polygon fill="#008000" points="349,117.92,353,108.92,349,112.92,345,108.92,349,117.92" style="stroke:#008000;stroke-width:1.0;"/></g><!--link crearPublicacion to MI_PUBLICACION_ABIERTA--><g id="link_crearPublicacion_MI_PUBLICACION_ABIERTA"><path d="M176.4,520.08 C97.8,587.75 22,653 22,653 C22,653 22,689 22,689 C22,689 41.0125,701.2261 63.3725,715.5961 " fill="none" id="crearPublicacion-to-MI_PUBLICACION_ABIERTA" style="stroke:#008000;stroke-width:1.0;"/><polygon fill="#008000" points="68.42,718.84,63.0113,710.6092,64.2137,716.1368,58.6862,717.3392,68.42,718.84" style="stroke:#008000;stroke-width:1.0;"/><path d="M27,658 L27,684 L212,684 L212,668 L202,658 L27,658 " fill="#FEFFDD" style="stroke:#181818;stroke-width:0.5;"/><path d="M202,658 L202,668 L212,668 L202,658 " fill="#FEFFDD" style="stroke:#181818;stroke-width:0.5;"/><text fill="#000000" font-family="sans-serif" font-size="13" lengthAdjust="spacing" textLength="164" x="33" y="676.4951">Publicaci&#243;n creada y abierta</text></g><!--link crearPublicacion to MI_PUBLICACION_ABIERTA--><g id="link_crearPublicacion_MI_PUBLICACION_ABIERTA"><path d="M247.52,623.21 C231.99,661.75 221,689 221,689 C221,689 193.4913,701.9203 162.8813,716.2903 " fill="none" id="crearPublicacion-to-MI_PUBLICACION_ABIERTA-1" style="stroke:#008000;stroke-width:1.0;"/><polygon fill="#008000" points="157.45,718.84,167.2967,718.6362,161.9761,716.7152,163.8971,711.3945,157.45,718.84" style="stroke:#008000;stroke-width:1.0;"/><path d="M240,658 L240,684 L368,684 L368,668 L358,658 L240,658 " fill="#FEFFDD" style="stroke:#181818;stroke-width:0.5;"/><path d="M358,658 L358,668 L368,668 L358,658 " fill="#FEFFDD" style="stroke:#181818;stroke-width:0.5;"/><text fill="#000000" font-family="sans-serif" font-size="13" lengthAdjust="spacing" textLength="107" x="246" y="676.4951">editarPublicacion()</text></g><!--link crearPublicacion to MIS_PUBLICACIONES_ABIERTAS--><g id="link_crearPublicacion_MIS_PUBLICACIONES_ABIERTAS"><path d="M417.18,623.21 C427.62,661.75 435,689 435,689 C435,689 457.8144,701.5753 483.9044,715.9453 " fill="none" id="crearPublicacion-to-MIS_PUBLICACIONES_ABIERTAS" style="stroke:#008000;stroke-width:1.0;"/><polygon fill="#008000" points="489.16,718.84,483.2065,710.9943,484.7804,716.4278,479.3469,718.0017,489.16,718.84" style="stroke:#008000;stroke-width:1.0;"/><path d="M440,658 L440,684 L581,684 L581,668 L571,658 L440,658 " fill="#FEFFDD" style="stroke:#181818;stroke-width:0.5;"/><path d="M571,658 L571,668 L581,668 L571,658 " fill="#FEFFDD" style="stroke:#181818;stroke-width:0.5;"/><text fill="#000000" font-family="sans-serif" font-size="13" lengthAdjust="spacing" textLength="120" x="446" y="676.4951">eliminarPublicacion()</text></g><!--link crearPublicacion to MIS_PUBLICACIONES_ABIERTAS--><g id="link_crearPublicacion_MIS_PUBLICACIONES_ABIERTAS"><path d="M521.58,573.09 C560.21,618.21 590,653 590,653 C590,653 590,689 590,689 C590,689 578.0373,700.3452 562.8573,714.7152 " fill="none" id="crearPublicacion-to-MIS_PUBLICACIONES_ABIERTAS-1" style="stroke:#008000;stroke-width:1.0;"/><polygon fill="#008000" points="558.5,718.84,567.7858,715.5577,562.1311,715.4027,562.2861,709.7479,558.5,718.84" style="stroke:#008000;stroke-width:1.0;"/><path d="M595,658 L595,684 L751,684 L751,668 L741,658 L595,658 " fill="#FEFFDD" style="stroke:#181818;stroke-width:0.5;"/><path d="M741,658 L741,668 L751,668 L741,658 " fill="#FEFFDD" style="stroke:#181818;stroke-width:0.5;"/><text fill="#000000" font-family="sans-serif" font-size="13" lengthAdjust="spacing" textLength="135" x="601" y="676.4951">abrirMisPublicaciones()</text></g><!--SRC=[jLF1QkCm4BthAuRqaXHAwRq4qZG7GzE6khkNKihO4jjf5Kb8IY0i2_ijUz_JtdhDd_HBAYbrrt8IA9JQ9usVtdlpnkEUI1cqE0T9IlYL4M2qNCK3OywZ5q3g1D11RrgKzxDlPnV5U3GkhYudvVteh9XStupA7ekOezk37rO8TNSqXDeAjBD59Qd6chHgkBhrHDmjzWSz-CaOX6TpgnVU02nrG917nVKvUkss4UF05BvcmX5qUtYNsTl9f7GW2fP2xq-fS5eDnrfRJWgvjgV7rH3SsyLD8s0QeVK_bQu8nHFFHhOhatdOuNMVYvAS5tFC7V34o0L81BKGIznsy_Bx3zoi__g5rE_dS-5gIoO7JKAAN4E_qjR6Nk6u8UCuU4Tz9qSLIUB8eM_MpmaGePQM6N1awmTQQa3-k50-y6eJ-qCvs17ITWvPJ65q7vwEiTfecwH0nd1IH4rY_6tEdK3Z96E6-sVvYx6j_xPjSLgqzwBP2fOvdhNOaoH7M05M9An7zZ-HJmi97bhDj-dZzFiMl2CXQHvI_reHh2pPARaMZt1jcLS0]--></g></svg>