<svg xmlns="http://www.w3.org/2000/svg" xmlns:xlink="http://www.w3.org/1999/xlink" contentStyleType="text/css" data-diagram-type="STATE" height="650px" preserveAspectRatio="none" style="width:1532px;height:650px;background:#FFFFFF;" version="1.1" viewBox="0 0 1532 650" width="1532px" zoomAndPan="magnify"><defs/><g><path d="M616,7 L985,7 A12.5,12.5 0 0 1 997.5,19.5 L997.5,33.2969 L603.5,33.2969 L603.5,19.5 A12.5,12.5 0 0 1 616,7" fill="#F1F1F1"/><rect fill="none" height="492.2969" rx="12.5" ry="12.5" style="stroke:#181818;stroke-width:0.5;" width="394" x="603.5" y="7"/><line style="stroke:#181818;stroke-width:0.5;" x1="603.5" x2="997.5" y1="33.2969" y2="33.2969"/><text fill="#000000" font-family="sans-serif" font-size="14" lengthAdjust="spacing" textLength="142.0918" x="729.4541" y="24.9951">abrirPanelPrincipal()</text><g id="abrirPanelPrincipal.PanelPrincipalAbierto"><rect fill="#F1F1F1" height="50" rx="12.5" ry="12.5" style="stroke:#181818;stroke-width:0.5;" width="50" x="615.5" y="135.2969"/><line style="stroke:#181818;stroke-width:0.5;" x1="615.5" x2="665.5" y1="161.5938" y2="161.5938"/><text fill="#000000" font-family="sans-serif" font-size="14" lengthAdjust="spacing" textLength="4.4502" x="638.2749" y="153.292">&#160;</text></g><g id="abrirPanelPrincipal.CambioDeVentana"><rect fill="#F1F1F1" height="50" rx="12.5" ry="12.5" style="stroke:#181818;stroke-width:0.5;" width="50" x="615.5" y="346.2969"/><line style="stroke:#181818;stroke-width:0.5;" x1="615.5" x2="665.5" y1="372.5938" y2="372.5938"/><text fill="#000000" font-family="sans-serif" font-size="14" lengthAdjust="spacing" textLength="4.4502" x="638.2749" y="364.292">&#160;</text></g><ellipse cx="640.5" cy="54.2969" fill="#222222" rx="10" ry="10" style="stroke:#222222;stroke-width:1;"/><ellipse cx="640.5" cy="478.2969" fill="none" rx="11" ry="11" style="stroke:#222222;stroke-width:1;"/><ellipse cx="640.5" cy="478.2969" fill="#222222" rx="6" ry="6" style="stroke:#222222;stroke-width:1;"/><!--link *start*abrirPanelPrincipal to PanelPrincipalAbierto--><g class="link" data-entity-1=".start.abrirPanelPrincipal" data-entity-2="PanelPrincipalAbierto" data-source-line="8" data-uid="lnk3" id="link_.start.abrirPanelPrincipal_PanelPrincipalAbierto"><path d="M640.5,64.5269 C640.5,80.2369 640.5,106.6569 640.5,129.1669" fill="none" id="*start*abrirPanelPrincipal-to-PanelPrincipalAbierto" style="stroke:#008000;stroke-width:1;"/><polygon fill="#008000" points="640.5,135.1669,644.5,126.1669,640.5,130.1669,636.5,126.1669,640.5,135.1669" style="stroke:#008000;stroke-width:1;"/><path d="M645.5,87.2969 L645.5,112.2969 L959.5,112.2969 L959.5,97.2969 L949.5,87.2969 L645.5,87.2969" fill="#FEFFDD" style="stroke:#181818;stroke-width:0.5;"/><path d="M949.5,87.2969 L949.5,97.2969 L959.5,97.2969 L949.5,87.2969" fill="#FEFFDD" style="stroke:#181818;stroke-width:0.5;"/><text fill="#000000" font-family="sans-serif" font-size="13" font-weight="bold" lengthAdjust="spacing" textLength="92.5171" x="651.5" y="104.3638">Investigador</text><text fill="#000000" font-family="sans-serif" font-size="13" lengthAdjust="spacing" textLength="196.5361" x="748.1494" y="104.3638">solicita abrir el panel principal</text></g><!--link PanelPrincipalAbierto to CambioDeVentana--><g class="link" data-entity-1="PanelPrincipalAbierto" data-entity-2="CambioDeVentana" data-source-line="13" data-uid="lnk4" id="link_PanelPrincipalAbierto_CambioDeVentana"><path d="M640.5,185.6769 C640.5,225.9569 640.5,299.8969 640.5,340.0669" fill="none" id="PanelPrincipalAbierto-to-CambioDeVentana" style="stroke:#008000;stroke-width:1;"/><polygon fill="#008000" points="640.5,346.0669,644.5,337.0669,640.5,341.0669,636.5,337.0669,640.5,346.0669" style="stroke:#008000;stroke-width:1;"/><path d="M645.5,208.2969 L645.5,323.2969 L988.5,323.2969 L988.5,218.2969 L978.5,208.2969 L645.5,208.2969" fill="#FEFFDD" style="stroke:#181818;stroke-width:0.5;"/><path d="M978.5,208.2969 L978.5,218.2969 L988.5,218.2969 L978.5,208.2969" fill="#FEFFDD" style="stroke:#181818;stroke-width:0.5;"/><text fill="#000000" font-family="sans-serif" font-size="13" font-weight="bold" lengthAdjust="spacing" textLength="58.9063" x="651.5" y="225.3638">Sistema</text><text fill="#000000" font-family="sans-serif" font-size="13" lengthAdjust="spacing" textLength="173.7798" x="714.5386" y="225.3638">presenta el panel principal</text><text fill="#000000" font-family="sans-serif" font-size="13" lengthAdjust="spacing" textLength="298.3208" x="651.5" y="240.4966">&#8226; Permite solicitar abrir las opciones del perfil</text><text fill="#000000" font-family="sans-serif" font-size="13" lengthAdjust="spacing" textLength="279.481" x="651.5" y="255.6294">&#8226; Permite solicitar abrir la carga de trabajo</text><text fill="#000000" font-family="sans-serif" font-size="13" lengthAdjust="spacing" textLength="265.9795" x="651.5" y="270.7622">&#8226; Permite solicitar abrir las recompensas</text><text fill="#000000" font-family="sans-serif" font-size="13" lengthAdjust="spacing" textLength="243.0708" x="651.5" y="285.895">&#8226; Permite solicitar abrir los proyectos</text><text fill="#000000" font-family="sans-serif" font-size="13" lengthAdjust="spacing" textLength="322.8672" x="651.5" y="301.0278">&#8226; Permite solicitar abrir mis publicaciones hechas</text><text fill="#000000" font-family="sans-serif" font-size="13" lengthAdjust="spacing" textLength="293.6108" x="651.5" y="316.1606">&#8226; Permite ver todas las publicaciones hechas</text></g><!--link CambioDeVentana to *end*abrirPanelPrincipal--><g class="link" data-entity-1="CambioDeVentana" data-entity-2=".end.abrirPanelPrincipal" data-source-line="24" data-uid="lnk6" id="link_CambioDeVentana_.end.abrirPanelPrincipal"><path d="M640.5,396.3869 C640.5,418.7869 640.5,445.0669 640.5,461.2469" fill="none" id="CambioDeVentana-to-*end*abrirPanelPrincipal" style="stroke:#008000;stroke-width:1;"/><polygon fill="#008000" points="640.5,467.2469,644.5,458.2469,640.5,462.2469,636.5,458.2469,640.5,467.2469" style="stroke:#008000;stroke-width:1;"/><path d="M645.5,419.2969 L645.5,444.2969 L964.5,444.2969 L964.5,429.2969 L954.5,419.2969 L645.5,419.2969" fill="#FEFFDD" style="stroke:#181818;stroke-width:0.5;"/><path d="M954.5,419.2969 L954.5,429.2969 L964.5,429.2969 L954.5,419.2969" fill="#FEFFDD" style="stroke:#181818;stroke-width:0.5;"/><text fill="#000000" font-family="sans-serif" font-size="13" font-weight="bold" lengthAdjust="spacing" textLength="92.5171" x="651.5" y="436.3638">Investigador</text><text fill="#000000" font-family="sans-serif" font-size="13" lengthAdjust="spacing" textLength="201.9507" x="748.1494" y="436.3638">selecciona una de las opciones</text></g><g id="OPCIONES_PERFIL_ABIERTO"><rect fill="#F1F1F1" height="50" rx="12.5" ry="12.5" style="stroke:#181818;stroke-width:0.5;" width="215.043" x="7" y="594"/><line style="stroke:#181818;stroke-width:0.5;" x1="7" x2="222.043" y1="620.2969" y2="620.2969"/><text fill="#000000" font-family="sans-serif" font-size="14" lengthAdjust="spacing" textLength="195.043" x="17" y="611.9951">OPCIONES_PERFIL_ABIERTO</text></g><g id="OPCIONES_CARGA_TRABAJO_ABIERTAS"><rect fill="#F1F1F1" height="50" rx="12.5" ry="12.5" style="stroke:#181818;stroke-width:0.5;" width="294.1826" x="257.5" y="594"/><line style="stroke:#181818;stroke-width:0.5;" x1="257.5" x2="551.6826" y1="620.2969" y2="620.2969"/><text fill="#000000" font-family="sans-serif" font-size="14" lengthAdjust="spacing" textLength="274.1826" x="267.5" y="611.9951">OPCIONES_CARGA_TRABAJO_ABIERTAS</text></g><g id="RECOMPENSAS_ABIERTAS"><rect fill="#F1F1F1" height="50" rx="12.5" ry="12.5" style="stroke:#181818;stroke-width:0.5;" width="202.458" x="586.5" y="594"/><line style="stroke:#181818;stroke-width:0.5;" x1="586.5" x2="788.958" y1="620.2969" y2="620.2969"/><text fill="#000000" font-family="sans-serif" font-size="14" lengthAdjust="spacing" textLength="182.458" x="596.5" y="611.9951">RECOMPENSAS_ABIERTAS</text></g><g id="PROYECTOS_ABIERTOS"><rect fill="#F1F1F1" height="50" rx="12.5" ry="12.5" style="stroke:#181818;stroke-width:0.5;" width="182.1621" x="823.5" y="594"/><line style="stroke:#181818;stroke-width:0.5;" x1="823.5" x2="1005.6621" y1="620.2969" y2="620.2969"/><text fill="#000000" font-family="sans-serif" font-size="14" lengthAdjust="spacing" textLength="162.1621" x="833.5" y="611.9951">PROYECTOS_ABIERTOS</text></g><g id="MIS_PUBLICACIONES_ABIERTAS"><rect fill="#F1F1F1" height="50" rx="12.5" ry="12.5" style="stroke:#181818;stroke-width:0.5;" width="240.6982" x="1041" y="594"/><line style="stroke:#181818;stroke-width:0.5;" x1="1041" x2="1281.6982" y1="620.2969" y2="620.2969"/><text fill="#000000" font-family="sans-serif" font-size="14" lengthAdjust="spacing" textLength="220.6982" x="1051" y="611.9951">MIS_PUBLICACIONES_ABIERTAS</text></g><g id="PUBLICACIONES_ABIERTAS"><rect fill="#F1F1F1" height="50" rx="12.5" ry="12.5" style="stroke:#181818;stroke-width:0.5;" width="208.6035" x="1317" y="594"/><line style="stroke:#181818;stroke-width:0.5;" x1="1317" x2="1525.6035" y1="620.2969" y2="620.2969"/><text fill="#000000" font-family="sans-serif" font-size="14" lengthAdjust="spacing" textLength="188.6035" x="1327" y="611.9951">PUBLICACIONES_ABIERTAS</text></g><!--link abrirPanelPrincipal to OPCIONES_PERFIL_ABIERTO--><g class="link" data-entity-1="abrirPanelPrincipal" data-entity-2="OPCIONES_PERFIL_ABIERTO" data-source-line="31" data-uid="lnk8" id="link_abrirPanelPrincipal_OPCIONES_PERFIL_ABIERTO"><path d="M603.16,358.16 C455.7,436 279.5,529 279.5,529 C279.5,529 213.3008,564.7116 164.4308,591.0716" fill="none" id="abrirPanelPrincipal-to-OPCIONES_PERFIL_ABIERTO" style="stroke:#008000;stroke-width:1;"/><polygon fill="#008000" points="159.15,593.92,168.9701,593.1679,163.5506,591.5463,165.1722,586.1269,159.15,593.92" style="stroke:#008000;stroke-width:1;"/><path d="M284.5,534 L284.5,559 L438.5,559 L438.5,544 L428.5,534 L284.5,534" fill="#FEFFDD" style="stroke:#181818;stroke-width:0.5;"/><path d="M428.5,534 L428.5,544 L438.5,544 L428.5,534" fill="#FEFFDD" style="stroke:#181818;stroke-width:0.5;"/><text fill="#000000" font-family="sans-serif" font-size="13" lengthAdjust="spacing" textLength="133.853" x="290.5" y="551.0669">abrirOpcionesPerfil()</text></g><!--link abrirPanelPrincipal to OPCIONES_CARGA_TRABAJO_ABIERTAS--><g class="link" data-entity-1="abrirPanelPrincipal" data-entity-2="OPCIONES_CARGA_TRABAJO_ABIERTAS" data-source-line="36" data-uid="lnk10" id="link_abrirPanelPrincipal_OPCIONES_CARGA_TRABAJO_ABIERTAS"><path d="M603.15,423.07 C536.9,479.83 479.5,529 479.5,529 C479.5,529 451.0669,562.7423 428.8569,589.0923" fill="none" id="abrirPanelPrincipal-to-OPCIONES_CARGA_TRABAJO_ABIERTAS" style="stroke:#008000;stroke-width:1;"/><polygon fill="#008000" points="424.99,593.68,433.8488,589.3764,428.2124,589.8569,427.7319,584.2205,424.99,593.68" style="stroke:#008000;stroke-width:1;"/><path d="M484.5,534 L484.5,559 L693.5,559 L693.5,544 L683.5,534 L484.5,534" fill="#FEFFDD" style="stroke:#181818;stroke-width:0.5;"/><path d="M683.5,534 L683.5,544 L693.5,544 L683.5,534" fill="#FEFFDD" style="stroke:#181818;stroke-width:0.5;"/><text fill="#000000" font-family="sans-serif" font-size="13" lengthAdjust="spacing" textLength="188.5127" x="490.5" y="551.0669">abrirOpcionesCargaTrabajo()</text></g><!--link abrirPanelPrincipal to RECOMPENSAS_ABIERTAS--><g class="link" data-entity-1="abrirPanelPrincipal" data-entity-2="RECOMPENSAS_ABIERTAS" data-source-line="41" data-uid="lnk12" id="link_abrirPanelPrincipal_RECOMPENSAS_ABIERTAS"><path d="M724.42,499.06 C712.39,537.83 703.4797,566.52 696.7397,588.22" fill="none" id="abrirPanelPrincipal-to-RECOMPENSAS_ABIERTAS" style="stroke:#008000;stroke-width:1;"/><polygon fill="#008000" points="694.96,593.95,701.4496,586.5415,696.4431,589.175,693.8096,584.1686,694.96,593.95" style="stroke:#008000;stroke-width:1;"/><path d="M720.5,534 L720.5,559 L862.5,559 L862.5,544 L852.5,534 L720.5,534" fill="#FEFFDD" style="stroke:#181818;stroke-width:0.5;"/><path d="M852.5,534 L852.5,544 L862.5,544 L852.5,534" fill="#FEFFDD" style="stroke:#181818;stroke-width:0.5;"/><text fill="#000000" font-family="sans-serif" font-size="13" lengthAdjust="spacing" textLength="121.3164" x="726.5" y="551.0669">abrirRecompensas</text></g><!--link abrirPanelPrincipal to PROYECTOS_ABIERTOS--><g class="link" data-entity-1="abrirPanelPrincipal" data-entity-2="PROYECTOS_ABIERTOS" data-source-line="46" data-uid="lnk14" id="link_abrirPanelPrincipal_PROYECTOS_ABIERTOS"><path d="M877.25,499.06 C889.39,537.83 898.3758,566.5245 905.1758,588.2245" fill="none" id="abrirPanelPrincipal-to-PROYECTOS_ABIERTOS" style="stroke:#008000;stroke-width:1;"/><polygon fill="#008000" points="906.97,593.95,908.0957,584.1657,905.4749,589.1788,900.4618,586.5579,906.97,593.95" style="stroke:#008000;stroke-width:1;"/><path d="M900.5,534 L900.5,559 L1025.5,559 L1025.5,544 L1015.5,534 L900.5,534" fill="#FEFFDD" style="stroke:#181818;stroke-width:0.5;"/><path d="M1015.5,534 L1015.5,544 L1025.5,544 L1015.5,534" fill="#FEFFDD" style="stroke:#181818;stroke-width:0.5;"/><text fill="#000000" font-family="sans-serif" font-size="13" lengthAdjust="spacing" textLength="104.4634" x="906.5" y="551.0669">abrirProyectos()</text></g><!--link abrirPanelPrincipal to MIS_PUBLICACIONES_ABIERTAS--><g class="link" data-entity-1="abrirPanelPrincipal" data-entity-2="MIS_PUBLICACIONES_ABIERTAS" data-source-line="51" data-uid="lnk16" id="link_abrirPanelPrincipal_MIS_PUBLICACIONES_ABIERTAS"><path d="M997.64,452.77 C1053.83,509.44 1103.6351,559.6497 1133.4551,589.7197" fill="none" id="abrirPanelPrincipal-to-MIS_PUBLICACIONES_ABIERTAS" style="stroke:#008000;stroke-width:1;"/><polygon fill="#008000" points="1137.68,593.98,1134.1829,584.7729,1134.1593,590.4297,1128.5025,590.4061,1137.68,593.98" style="stroke:#008000;stroke-width:1;"/><path d="M1106.5,534 L1106.5,559 L1277.5,559 L1277.5,544 L1267.5,534 L1106.5,534" fill="#FEFFDD" style="stroke:#181818;stroke-width:0.5;"/><path d="M1267.5,534 L1267.5,544 L1277.5,544 L1267.5,534" fill="#FEFFDD" style="stroke:#181818;stroke-width:0.5;"/><text fill="#000000" font-family="sans-serif" font-size="13" lengthAdjust="spacing" textLength="150.6553" x="1112.5" y="551.0669">abrirMisPublicaciones()</text></g><!--link abrirPanelPrincipal to PUBLICACIONES_ABIERTAS--><g class="link" data-entity-1="abrirPanelPrincipal" data-entity-2="PUBLICACIONES_ABIERTAS" data-source-line="56" data-uid="lnk18" id="link_abrirPanelPrincipal_PUBLICACIONES_ABIERTAS"><path d="M997.68,364.66 C1133.84,441.08 1290.5,529 1290.5,529 C1290.5,529 1342.287,564.1882 1381.087,590.5482" fill="none" id="abrirPanelPrincipal-to-PUBLICACIONES_ABIERTAS" style="stroke:#008000;stroke-width:1;"/><polygon fill="#008000" points="1386.05,593.92,1380.8534,585.5537,1381.9142,591.1102,1376.3577,592.171,1386.05,593.92" style="stroke:#008000;stroke-width:1;"/><path d="M1344.5,534 L1344.5,559 L1494.5,559 L1494.5,544 L1484.5,534 L1344.5,534" fill="#FEFFDD" style="stroke:#181818;stroke-width:0.5;"/><path d="M1484.5,534 L1484.5,544 L1494.5,544 L1484.5,534" fill="#FEFFDD" style="stroke:#181818;stroke-width:0.5;"/><text fill="#000000" font-family="sans-serif" font-size="13" lengthAdjust="spacing" textLength="129.0542" x="1350.5" y="551.0669">abrirPublicaciones()</text></g><!--SRC=[bLFjQjj04FolfrYSFqaXv0M2GLRLeXBd3iajb13CIjuwbqXtukuIC26GP-cZzKbw-ahbL7Ba4mYqpCxCtgpCWv0bQYmW5vBihYGeLRwhFZpFMBG4c6gXEKhAkHOo4oNcW0Pc0_NJinayUnwuq_JEtEEm-oW_5QIj-XyMO94AzPb-aBGeiI6w-NGBvpSdMqqaRy_dmrnGGwLoN4fMeppKXSjq7iadCbPiSQFqvKKw1wDoaGcBpLn0EPGL8vGTPTr9SjFGkUEzlOQr- -xUZp1cAn76Ke6rerAJgU1ZNlwy_WPEkX2EfdElM_kvkpPLPa99Ch2fMad_4bFw84EzHTS3LcEAzsgIbgPC5IL9W-PZl39k4hMZpAgFqOLmwCVK5R4Tvuwokm6P9z9WrSQPgGoDjdG9_allNJPxkRaj6yvgP8aefwpIH7YKzINsWnZGV_6yeV-eRu7n86BNORBcOVmbkbhxYoYCLypRirIJi5Q7rrcVddblMjD50Z_-wgzNiR_mlx5MoqyEY0NLkgoQLJbACWu3jkJXTU8dXtJYtcPD9-Sn-na6AzPHio5gtYtXKRwNaOlY- -8g2lpspWwuNmh3-vjubD9abJ69lm00]--></g></svg>