<?xml version="1.0" encoding="us-ascii" standalone="no"?><svg xmlns="http://www.w3.org/2000/svg" xmlns:xlink="http://www.w3.org/1999/xlink" contentStyleType="text/css" height="1131px" preserveAspectRatio="none" style="width:1354px;height:1131px;background:#FFFFFF;" version="1.1" viewBox="0 0 1354 1131" width="1354px" zoomAndPan="magnify"><defs/><g><path d="M19.5,7 L1328.5,7 A12.5,12.5 0 0 1 1341,19.5 L1341,34.6094 L7,34.6094 L7,19.5 A12.5,12.5 0 0 1 19.5,7 " fill="#F1F1F1" style="stroke:#F1F1F1;stroke-width:1.0;"/><rect fill="none" height="971.6094" rx="12.5" ry="12.5" style="stroke:#181818;stroke-width:0.5;" width="1334" x="7" y="7"/><line style="stroke:#181818;stroke-width:0.5;" x1="7" x2="1341" y1="34.6094" y2="34.6094"/><text fill="#000000" font-family="sans-serif" font-size="14" lengthAdjust="spacing" textLength="137" x="605.5" y="26.5332">agregarInvestigador()</text><g id="agregarInvestigador.MostrandoInvestigadores"><rect fill="#F1F1F1" height="50" rx="12.5" ry="12.5" style="stroke:#181818;stroke-width:0.5;" width="50" x="572" y="153.6094"/><line style="stroke:#181818;stroke-width:0.5;" x1="572" x2="622" y1="181.2188" y2="181.2188"/><text fill="#000000" font-family="sans-serif" font-size="14" lengthAdjust="spacing" textLength="4" x="595" y="173.1426">&#160;</text></g><g id="agregarInvestigador.FiltrandoLista"><rect fill="#F1F1F1" height="50" rx="12.5" ry="12.5" style="stroke:#181818;stroke-width:0.5;" width="50" x="19" y="276.6094"/><line style="stroke:#181818;stroke-width:0.5;" x1="19" x2="69" y1="304.2188" y2="304.2188"/><text fill="#000000" font-family="sans-serif" font-size="14" lengthAdjust="spacing" textLength="4" x="42" y="296.1426">&#160;</text></g><g id="agregarInvestigador.SeleccionandoInvestigador"><rect fill="#F1F1F1" height="50" rx="12.5" ry="12.5" style="stroke:#181818;stroke-width:0.5;" width="50" x="408" y="433.1094"/><line style="stroke:#181818;stroke-width:0.5;" x1="408" x2="458" y1="460.7188" y2="460.7188"/><text fill="#000000" font-family="sans-serif" font-size="14" lengthAdjust="spacing" textLength="4" x="431" y="452.6426">&#160;</text></g><g id="agregarInvestigador.ConfirmandoAsignacion"><rect fill="#F1F1F1" height="50" rx="12.5" ry="12.5" style="stroke:#181818;stroke-width:0.5;" width="50" x="737" y="637.6094"/><line style="stroke:#181818;stroke-width:0.5;" x1="737" x2="787" y1="665.2188" y2="665.2188"/><text fill="#000000" font-family="sans-serif" font-size="14" lengthAdjust="spacing" textLength="4" x="760" y="657.1426">&#160;</text></g><g id="agregarInvestigador.ValidandoAsignacion"><rect fill="#F1F1F1" height="50" rx="12.5" ry="12.5" style="stroke:#181818;stroke-width:0.5;" width="50" x="885" y="775.6094"/><line style="stroke:#181818;stroke-width:0.5;" x1="885" x2="935" y1="803.2188" y2="803.2188"/><text fill="#000000" font-family="sans-serif" font-size="14" lengthAdjust="spacing" textLength="4" x="908" y="795.1426">&#160;</text></g><ellipse cx="597" cy="55.6094" fill="#222222" rx="10" ry="10" style="stroke:#222222;stroke-width:1.0;"/><ellipse cx="910" cy="957.6094" fill="none" rx="11" ry="11" style="stroke:#222222;stroke-width:1.0;"/><ellipse cx="910" cy="957.6094" fill="#222222" rx="6" ry="6" style="stroke:#222222;stroke-width:1.0;"/><!--link *start*agregarInvestigador to MostrandoInvestigadores--><g id="link_*start*agregarInvestigador_MostrandoInvestigadores"><path d="M597,65.6994 C597,84.1694 597,120.5894 597,147.5794 " fill="none" id="*start*agregarInvestigador-to-MostrandoInvestigadores" style="stroke:#008000;stroke-width:1.0;"/><polygon fill="#008000" points="597,153.5794,601,144.5794,597,148.5794,593,144.5794,597,153.5794" style="stroke:#008000;stroke-width:1.0;"/><path d="M602,88.6094 L602,130.6094 L934,130.6094 L934,98.6094 L924,88.6094 L602,88.6094 " fill="#FEFFDD" style="stroke:#181818;stroke-width:0.5;"/><path d="M924,88.6094 L924,98.6094 L934,98.6094 L924,88.6094 " fill="#FEFFDD" style="stroke:#181818;stroke-width:0.5;"/><text fill="#000000" font-family="sans-serif" font-size="13" font-weight="bold" lengthAdjust="spacing" textLength="79" x="608" y="107.1045">Coordinador</text><text fill="#000000" font-family="sans-serif" font-size="13" lengthAdjust="spacing" textLength="143" x="691" y="107.1045">tiene un proyecto abierto</text><text fill="#000000" font-family="sans-serif" font-size="13" font-weight="bold" lengthAdjust="spacing" textLength="79" x="608" y="123.4561">Coordinador</text><text fill="#000000" font-family="sans-serif" font-size="13" lengthAdjust="spacing" textLength="228" x="691" y="123.4561">solicita agregar investigador al proyecto</text></g><!--link MostrandoInvestigadores to FiltrandoLista--><g id="link_MostrandoInvestigadores_FiltrandoLista"><path d="M571.74,181.9894 C477.39,190.8694 151,221.6094 151,221.6094 C151,221.6094 105.5366,255.1751 73.9166,278.5251 " fill="none" id="MostrandoInvestigadores-to-FiltrandoLista" style="stroke:#008000;stroke-width:1.0;"/><polygon fill="#008000" points="69.09,282.0894,78.7061,279.9608,73.1122,279.1192,73.9538,273.5253,69.09,282.0894" style="stroke:#008000;stroke-width:1.0;"/><path d="M156,226.6094 L156,252.6094 L414,252.6094 L414,236.6094 L404,226.6094 L156,226.6094 " fill="#FEFFDD" style="stroke:#181818;stroke-width:0.5;"/><path d="M404,226.6094 L404,236.6094 L414,236.6094 L404,226.6094 " fill="#FEFFDD" style="stroke:#181818;stroke-width:0.5;"/><text fill="#000000" font-family="sans-serif" font-size="13" font-weight="bold" lengthAdjust="spacing" textLength="51" x="162" y="245.1045">Sistema</text><text fill="#000000" font-family="sans-serif" font-size="13" lengthAdjust="spacing" textLength="182" x="217" y="245.1045">presenta lista de investigadores</text></g><!--link FiltrandoLista to FiltrandoLista--><g id="link_FiltrandoLista_FiltrandoLista"><path d="M69.18,290.0294 C78.91,289.5194 87,293.3794 87,301.6094 C87,309.8394 84.9018,314.0134 75.1718,313.5034 " fill="none" id="FiltrandoLista-to-FiltrandoLista" style="stroke:#008000;stroke-width:1.0;"/><polygon fill="#008000" points="69.18,313.1894,77.9583,317.655,74.1731,313.4511,78.377,309.6659,69.18,313.1894" style="stroke:#008000;stroke-width:1.0;"/><path d="M92,280.6094 L92,322.6094 L392,322.6094 L392,290.6094 L382,280.6094 L92,280.6094 " fill="#FEFFDD" style="stroke:#181818;stroke-width:0.5;"/><path d="M382,280.6094 L382,290.6094 L392,290.6094 L382,280.6094 " fill="#FEFFDD" style="stroke:#181818;stroke-width:0.5;"/><text fill="#000000" font-family="sans-serif" font-size="13" font-weight="bold" lengthAdjust="spacing" textLength="79" x="98" y="299.1045">Coordinador</text><text fill="#000000" font-family="sans-serif" font-size="13" lengthAdjust="spacing" textLength="101" x="181" y="299.1045">solicita filtrar lista</text><text fill="#000000" font-family="sans-serif" font-size="13" font-weight="bold" lengthAdjust="spacing" textLength="51" x="98" y="315.4561">Sistema</text><text fill="#000000" font-family="sans-serif" font-size="13" lengthAdjust="spacing" textLength="224" x="153" y="315.4561">presenta lista filtrada de investigadores</text></g><!--link FiltrandoLista to SeleccionandoInvestigador--><g id="link_FiltrandoLista_SeleccionandoInvestigador"><path d="M69.09,321.3794 C106.1,349.0594 171,397.6094 171,397.6094 C171,397.6094 336.4489,435.1809 402.0289,450.0709 " fill="none" id="FiltrandoLista-to-SeleccionandoInvestigador" style="stroke:#008000;stroke-width:1.0;"/><polygon fill="#008000" points="407.88,451.3994,399.989,445.5059,403.0041,450.2923,398.2177,453.3074,407.88,451.3994" style="stroke:#008000;stroke-width:1.0;"/><path d="M176,358.6094 L176,384.6094 L414,384.6094 L414,368.6094 L404,358.6094 L176,358.6094 " fill="#FEFFDD" style="stroke:#181818;stroke-width:0.5;"/><path d="M404,358.6094 L404,368.6094 L414,368.6094 L404,358.6094 " fill="#FEFFDD" style="stroke:#181818;stroke-width:0.5;"/><text fill="#000000" font-family="sans-serif" font-size="13" font-weight="bold" lengthAdjust="spacing" textLength="79" x="182" y="377.1045">Coordinador</text><text fill="#000000" font-family="sans-serif" font-size="13" lengthAdjust="spacing" textLength="134" x="265" y="377.1045">selecciona investigador</text></g><!--link MostrandoInvestigadores to SeleccionandoInvestigador--><g id="link_MostrandoInvestigadores_SeleccionandoInvestigador"><path d="M571.89,195.6794 C529.19,223.0094 447,275.6094 447,275.6094 C447,275.6094 439.1317,377.6572 435.3217,427.0272 " fill="none" id="MostrandoInvestigadores-to-SeleccionandoInvestigador" style="stroke:#008000;stroke-width:1.0;"/><polygon fill="#008000" points="434.86,433.0094,439.5406,424.3438,435.2447,428.0242,431.5644,423.7283,434.86,433.0094" style="stroke:#008000;stroke-width:1.0;"/><path d="M452,288.6094 L452,314.6094 L743,314.6094 L743,298.6094 L733,288.6094 L452,288.6094 " fill="#FEFFDD" style="stroke:#181818;stroke-width:0.5;"/><path d="M733,288.6094 L733,298.6094 L743,298.6094 L733,288.6094 " fill="#FEFFDD" style="stroke:#181818;stroke-width:0.5;"/><text fill="#000000" font-family="sans-serif" font-size="13" font-weight="bold" lengthAdjust="spacing" textLength="79" x="458" y="307.1045">Coordinador</text><text fill="#000000" font-family="sans-serif" font-size="13" lengthAdjust="spacing" textLength="187" x="541" y="307.1045">selecciona investigador sin filtrar</text></g><!--link SeleccionandoInvestigador to ConfirmandoAsignacion--><g id="link_SeleccionandoInvestigador_ConfirmandoAsignacion"><path d="M439.44,483.1394 C451.43,527.9094 476,619.6094 476,619.6094 C476,619.6094 661.1437,646.7975 730.9337,657.0475 " fill="none" id="SeleccionandoInvestigador-to-ConfirmandoAsignacion" style="stroke:#008000;stroke-width:1.0;"/><polygon fill="#008000" points="736.87,657.9194,728.5468,652.654,731.9231,657.1928,727.3843,660.5691,736.87,657.9194" style="stroke:#008000;stroke-width:1.0;"/><path d="M481,523.6094 L481,614.6094 L743,614.6094 L743,533.6094 L733,523.6094 L481,523.6094 " fill="#FEFFDD" style="stroke:#181818;stroke-width:0.5;"/><path d="M733,523.6094 L733,533.6094 L743,533.6094 L733,523.6094 " fill="#FEFFDD" style="stroke:#181818;stroke-width:0.5;"/><text fill="#000000" font-family="sans-serif" font-size="13" font-weight="bold" lengthAdjust="spacing" textLength="51" x="487" y="542.1045">Sistema</text><text fill="#000000" font-family="sans-serif" font-size="13" lengthAdjust="spacing" textLength="101" x="542" y="542.1045">muestra resumen</text><text fill="#000000" font-family="sans-serif" font-size="13" lengthAdjust="spacing" textLength="157" x="487" y="558.4561">&#8226; Investigador seleccionado</text><text fill="#000000" font-family="sans-serif" font-size="13" lengthAdjust="spacing" textLength="188" x="487" y="574.8076">&#8226; Carga actual vs. carga m&#225;xima</text><text fill="#000000" font-family="sans-serif" font-size="13" lengthAdjust="spacing" textLength="114" x="487" y="591.1592">&#8226; Rol en el proyecto</text><text fill="#000000" font-family="sans-serif" font-size="13" lengthAdjust="spacing" textLength="241" x="487" y="607.5107">&#8226; Permite confirmar o cancelar asignaci&#243;n</text></g><!--link ConfirmandoAsignacion to ValidandoAsignacion--><g id="link_ConfirmandoAsignacion_ValidandoAsignacion"><path d="M766.12,687.8194 C770.86,715.6694 778,757.6094 778,757.6094 C778,757.6094 840.8422,777.611 879.1422,789.791 " fill="none" id="ConfirmandoAsignacion-to-ValidandoAsignacion" style="stroke:#008000;stroke-width:1.0;"/><polygon fill="#008000" points="884.86,791.6094,877.4955,785.07,880.0951,790.0941,875.071,792.6937,884.86,791.6094" style="stroke:#008000;stroke-width:1.0;"/><path d="M783,710.6094 L783,752.6094 L1039,752.6094 L1039,720.6094 L1029,710.6094 L783,710.6094 " fill="#FEFFDD" style="stroke:#181818;stroke-width:0.5;"/><path d="M1029,710.6094 L1029,720.6094 L1039,720.6094 L1029,710.6094 " fill="#FEFFDD" style="stroke:#181818;stroke-width:0.5;"/><text fill="#000000" font-family="sans-serif" font-size="13" font-weight="bold" lengthAdjust="spacing" textLength="79" x="789" y="729.1045">Coordinador</text><text fill="#000000" font-family="sans-serif" font-size="13" lengthAdjust="spacing" textLength="115" x="872" y="729.1045">confirma asignaci&#243;n</text><text fill="#000000" font-family="sans-serif" font-size="13" font-weight="bold" lengthAdjust="spacing" textLength="51" x="789" y="745.4561">Sistema</text><text fill="#000000" font-family="sans-serif" font-size="13" lengthAdjust="spacing" textLength="180" x="844" y="745.4561">valida la asignaci&#243;n al proyecto</text></g><!--link ConfirmandoAsignacion to MostrandoInvestigadores--><g id="link_ConfirmandoAsignacion_MostrandoInvestigadores"><path d="M761.12,637.4594 C758.06,552.9594 748,275.6094 748,275.6094 C748,275.6094 670.3234,226.2283 627.3334,198.8983 " fill="none" id="ConfirmandoAsignacion-to-MostrandoInvestigadores" style="stroke:#FF0000;stroke-width:1.0;"/><polygon fill="#FF0000" points="622.27,195.6794,627.7192,203.8834,626.4895,198.3618,632.0111,197.1322,622.27,195.6794" style="stroke:#FF0000;stroke-width:1.0;"/><path d="M757,350.6094 L757,392.6094 L1028,392.6094 L1028,360.6094 L1018,350.6094 L757,350.6094 " fill="#FEFFDD" style="stroke:#181818;stroke-width:0.5;"/><path d="M1018,350.6094 L1018,360.6094 L1028,360.6094 L1018,350.6094 " fill="#FEFFDD" style="stroke:#181818;stroke-width:0.5;"/><text fill="#000000" font-family="sans-serif" font-size="13" font-weight="bold" lengthAdjust="spacing" textLength="79" x="763" y="369.1045">Coordinador</text><text fill="#000000" font-family="sans-serif" font-size="13" lengthAdjust="spacing" textLength="111" x="846" y="369.1045">cancela asignaci&#243;n</text><text fill="#000000" font-family="sans-serif" font-size="13" font-weight="bold" lengthAdjust="spacing" textLength="51" x="763" y="385.4561">Sistema</text><text fill="#000000" font-family="sans-serif" font-size="13" lengthAdjust="spacing" textLength="195" x="818" y="385.4561">mantiene el proyecto sin cambios</text></g><!--link ValidandoAsignacion to *end*agregarInvestigador--><g id="link_ValidandoAsignacion_*end*agregarInvestigador"><path d="M910,825.8294 C910,860.3994 910,916.3794 910,940.5594 " fill="none" id="ValidandoAsignacion-to-*end*agregarInvestigador" style="stroke:#008000;stroke-width:1.0;"/><polygon fill="#008000" points="910,946.5594,914,937.5594,910,941.5594,906,937.5594,910,946.5594" style="stroke:#008000;stroke-width:1.0;"/><path d="M915,848.6094 L915,923.6094 L1206,923.6094 L1206,858.6094 L1196,848.6094 L915,848.6094 " fill="#FEFFDD" style="stroke:#181818;stroke-width:0.5;"/><path d="M1196,848.6094 L1196,858.6094 L1206,858.6094 L1196,848.6094 " fill="#FEFFDD" style="stroke:#181818;stroke-width:0.5;"/><text fill="#000000" font-family="sans-serif" font-size="13" lengthAdjust="spacing" textLength="100" x="921" y="867.1045">Asignaci&#243;n v&#225;lida</text><text fill="#000000" font-family="sans-serif" font-size="13" font-weight="bold" lengthAdjust="spacing" textLength="51" x="921" y="883.4561">Sistema</text><text fill="#000000" font-family="sans-serif" font-size="13" lengthAdjust="spacing" textLength="193" x="976" y="883.4561">agrega el investigador al proyecto</text><text fill="#000000" font-family="sans-serif" font-size="13" lengthAdjust="spacing" textLength="270" x="921" y="899.8076">&#8226; Actualiza lista de investigadores del proyecto</text><text fill="#000000" font-family="sans-serif" font-size="13" lengthAdjust="spacing" textLength="253" x="921" y="916.1592">&#8226; Actualiza carga de trabajo del investigador</text></g><!--link ValidandoAsignacion to MostrandoInvestigadores--><g id="link_ValidandoAsignacion_MostrandoInvestigadores"><path d="M935.2,791.7094 C974.02,779.5394 1044,757.6094 1044,757.6094 C1044,757.6094 1058,663.6094 1058,663.6094 C1058,300.6094 1058,300.6094 1058,300.6094 C1058,300.6094 724.1134,212.9726 627.9134,187.7226 " fill="none" id="ValidandoAsignacion-to-MostrandoInvestigadores" style="stroke:#FF0000;stroke-width:1.0;"/><polygon fill="#FF0000" points="622.11,186.1994,629.7996,192.3532,626.9462,187.4687,631.8306,184.6153,622.11,186.1994" style="stroke:#FF0000;stroke-width:1.0;"/><path d="M1063,420.6094 L1063,495.6094 L1332,495.6094 L1332,430.6094 L1322,420.6094 L1063,420.6094 " fill="#FEFFDD" style="stroke:#181818;stroke-width:0.5;"/><path d="M1322,420.6094 L1322,430.6094 L1332,430.6094 L1322,420.6094 " fill="#FEFFDD" style="stroke:#181818;stroke-width:0.5;"/><text fill="#000000" font-family="sans-serif" font-size="13" lengthAdjust="spacing" textLength="118" x="1069" y="439.1045">Asignaci&#243;n no v&#225;lida</text><text fill="#000000" font-family="sans-serif" font-size="13" font-weight="bold" lengthAdjust="spacing" textLength="51" x="1069" y="455.4561">Sistema</text><text fill="#000000" font-family="sans-serif" font-size="13" lengthAdjust="spacing" textLength="158" x="1124" y="455.4561">presenta mensajes de error</text><text fill="#000000" font-family="sans-serif" font-size="13" lengthAdjust="spacing" textLength="248" x="1069" y="471.8076">&#8226; Investigador ya est&#225; asignado al proyecto</text><text fill="#000000" font-family="sans-serif" font-size="13" lengthAdjust="spacing" textLength="207" x="1069" y="488.1592">&#8226; Supera la carga m&#225;xima permitida</text></g><g id="PROYECTO_ABIERTO"><rect fill="#F1F1F1" height="50" rx="12.5" ry="12.5" style="stroke:#181818;stroke-width:0.5;" width="166" x="591" y="1075"/><line style="stroke:#181818;stroke-width:0.5;" x1="591" x2="757" y1="1102.6094" y2="1102.6094"/><text fill="#000000" font-family="sans-serif" font-size="14" lengthAdjust="spacing" textLength="146" x="601" y="1094.5332">PROYECTO_ABIERTO</text></g><!--link agregarInvestigador to PROYECTO_ABIERTO--><g id="link_agregarInvestigador_PROYECTO_ABIERTO"><path d="M674,979.11 C674,1019.88 674,1047.58 674,1068.76 " fill="none" id="agregarInvestigador-to-PROYECTO_ABIERTO" style="stroke:#008000;stroke-width:1.0;"/><polygon fill="#008000" points="674,1074.76,678,1065.76,674,1069.76,670,1065.76,674,1074.76" style="stroke:#008000;stroke-width:1.0;"/><path d="M679,1014 L679,1040 L954,1040 L954,1024 L944,1014 L679,1014 " fill="#FEFFDD" style="stroke:#181818;stroke-width:0.5;"/><path d="M944,1014 L944,1024 L954,1024 L944,1014 " fill="#FEFFDD" style="stroke:#181818;stroke-width:0.5;"/><text fill="#000000" font-family="sans-serif" font-size="13" lengthAdjust="spacing" textLength="254" x="685" y="1032.4951">proyecto actualizado con nuevo investigador</text></g><!--SRC=[jLPjQjj04FslKmpEdxQGzWB1u9e40YqETYYK4CfQcfXDLZjYLp9rIw5NSQ_G8_WcFKbdLxRYjLQsSLhxbrTlPjzxyo7R9waBOKGEIcei5mL2GMhXVYI9BKM986O6Py9SwpdQKiv4HWQ4XLxa_DNh7dnF4k1F7TlZBsC_aYsDq1bjWz6sWLTIrS0Fai_RpoUeC4qbwTraRUYGz8CqkGCEh9nfuSBQi4z2oMm7v55tR-xX_EwCHQA-F-_lrQ294v9s7ZxvWujfVqXaCgaTwkBTj0-bH8rGQIWCBJ0j2SHKeYcfAy2IagainQO088CAg2QHJu0wypHgyXra0q4HhsCw9lmKS-4f5Pm3DLDIBWGo33YjpGYPXBUSGg3JbmSVRseoHz2jyTcBUUzlmgCaD1a28YSMyh_n0IlrnkK8jyvx0tRTStYes_8AdNXWlLMETSoVdxyWkEgPUaODOYZCZEScBIiUaxbz2wa_o5VBhp8N3MnCYYK1xeoIUtI39fTCBrspDq2SHAUeXDj-jOxLRnsn9Ieui2IsSuujrOPGYyIEUND_1wW0U61hT38tcFsB5RWsy11r9b0lowt2-5PCHJwL59lMYAE1uxpCuom7M-RCLqkN9KQfNi6EqDubx3fduBjEVkjSadooDwpkLGvZhwVYaJp-m9heq7zAtROTqRJFb6Qzyd1QyUYL0HgpPjWQrGKRQClLSbt_ZAB-JQe2ZM_SO6YXy1EveTB8_v4aiJyesyM_6Oy-NmvlHry6xwylnxUZ9D3y_3hUL829yPI1hd1EeV7DhNy1]--></g></svg>