<svg xmlns="http://www.w3.org/2000/svg" xmlns:xlink="http://www.w3.org/1999/xlink" contentStyleType="text/css" data-diagram-type="STATE" height="690px" preserveAspectRatio="none" style="width:381px;height:690px;background:#FFFFFF;" version="1.1" viewBox="0 0 381 690" width="381px" zoomAndPan="magnify"><title>Consultar carga acad&#233;mica</title><defs/><g><g class="title" data-source-line="1"><text fill="#000000" font-family="sans-serif" font-size="14" font-weight="bold" lengthAdjust="spacing" textLength="213.7119" x="73.644" y="22.9951">Consultar carga acad&#233;mica</text></g><g id="MI_CARGA_TRABAJO_INICIAL"><rect fill="#F1F1F1" height="50" rx="12.5" ry="12.5" style="stroke:#181818;stroke-width:0.5;" width="161.9004" x="106.5" y="44.2969"/><line style="stroke:#181818;stroke-width:0.5;" x1="106.5" x2="268.4004" y1="70.5938" y2="70.5938"/><text fill="#000000" font-family="sans-serif" font-size="14" lengthAdjust="spacing" textLength="141.9004" x="116.5" y="62.292">MI_CARGA_TRABAJO</text></g><g id="MI_CARGA_TRABAJO_FINAL"><rect fill="#F1F1F1" height="50" rx="12.5" ry="12.5" style="stroke:#181818;stroke-width:0.5;" width="161.9004" x="106.5" y="634.2969"/><line style="stroke:#181818;stroke-width:0.5;" x1="106.5" x2="268.4004" y1="660.5938" y2="660.5938"/><text fill="#000000" font-family="sans-serif" font-size="14" lengthAdjust="spacing" textLength="141.9004" x="116.5" y="652.292">MI_CARGA_TRABAJO</text></g><path d="M19.5,155.2969 L355.5,155.2969 A12.5,12.5 0 0 1 368,167.7969 L368,181.5938 L7,181.5938 L7,167.7969 A12.5,12.5 0 0 1 19.5,155.2969" fill="#F1F1F1"/><rect fill="none" height="402.2969" rx="12.5" ry="12.5" style="stroke:#181818;stroke-width:0.5;" width="361" x="7" y="155.2969"/><line style="stroke:#181818;stroke-width:0.5;" x1="7" x2="368" y1="181.5938" y2="181.5938"/><text fill="#000000" font-family="sans-serif" font-size="14" lengthAdjust="spacing" textLength="194.6738" x="90.1631" y="173.292">consultarCargaAcademica()</text><g id="consultarCargaAcademica.MostrarResumen"><rect fill="#F1F1F1" height="50" rx="12.5" ry="12.5" style="stroke:#181818;stroke-width:0.5;" width="50" x="19" y="298.5938"/><line style="stroke:#181818;stroke-width:0.5;" x1="19" x2="69" y1="324.8906" y2="324.8906"/><text fill="#000000" font-family="sans-serif" font-size="14" lengthAdjust="spacing" textLength="4.4502" x="41.7749" y="316.5889">&#160;</text></g><ellipse cx="44" cy="202.5938" fill="#222222" rx="10" ry="10" style="stroke:#222222;stroke-width:1;"/><ellipse cx="44" cy="536.5938" fill="none" rx="11" ry="11" style="stroke:#222222;stroke-width:1;"/><ellipse cx="44" cy="536.5938" fill="#222222" rx="6" ry="6" style="stroke:#222222;stroke-width:1;"/><!--link *start*consultarCargaAcademica to MostrarResumen--><g class="link" data-entity-1=".start.consultarCargaAcademica" data-entity-2="MostrarResumen" data-source-line="13" data-uid="lnk4" id="link_.start.consultarCargaAcademica_MostrarResumen"><path d="M44,212.9337 C44,231.1237 44,265.8338 44,292.2038" fill="none" id="*start*consultarCargaAcademica-to-MostrarResumen" style="stroke:#008000;stroke-width:1;"/><polygon fill="#008000" points="44,298.2038,48,289.2038,44,293.2038,40,289.2038,44,298.2038" style="stroke:#008000;stroke-width:1;"/><path d="M49,235.5938 L49,275.5938 L359,275.5938 L359,245.5938 L349,235.5938 L49,235.5938" fill="#FEFFDD" style="stroke:#181818;stroke-width:0.5;"/><path d="M349,235.5938 L349,245.5938 L359,245.5938 L349,235.5938" fill="#FEFFDD" style="stroke:#181818;stroke-width:0.5;"/><text fill="#000000" font-family="sans-serif" font-size="13" font-weight="bold" lengthAdjust="spacing" textLength="255.709" x="55" y="252.6606">Investigador/Docente-Investigador</text><text fill="#000000" font-family="sans-serif" font-size="13" lengthAdjust="spacing" textLength="289.8149" x="55" y="267.7935">accede a MI_CARGA_TRABAJO desde PERFIL.</text></g><!--link MostrarResumen to *end*consultarCargaAcademica--><g class="link" data-entity-1="MostrarResumen" data-entity-2=".end.consultarCargaAcademica" data-source-line="19" data-uid="lnk6" id="link_MostrarResumen_.end.consultarCargaAcademica"><path d="M44,348.7938 C44,394.9138 44,487.6038 44,519.4538" fill="none" id="MostrarResumen-to-*end*consultarCargaAcademica" style="stroke:#008000;stroke-width:1;"/><polygon fill="#008000" points="44,525.4538,48,516.4538,44,520.4538,40,516.4538,44,525.4538" style="stroke:#008000;stroke-width:1;"/><path d="M49,371.5938 L49,502.5938 L338,502.5938 L338,381.5938 L328,371.5938 L49,371.5938" fill="#FEFFDD" style="stroke:#181818;stroke-width:0.5;"/><path d="M328,371.5938 L328,381.5938 L338,381.5938 L328,371.5938" fill="#FEFFDD" style="stroke:#181818;stroke-width:0.5;"/><text fill="#000000" font-family="sans-serif" font-size="13" font-weight="bold" lengthAdjust="spacing" textLength="58.9063" x="55" y="388.6606">Sistema</text><text fill="#000000" font-family="sans-serif" font-size="13" lengthAdjust="spacing" textLength="205.2388" x="118.0386" y="388.6606">presenta un resumen de carga:</text><text fill="#000000" font-family="sans-serif" font-size="13" lengthAdjust="spacing" textLength="214.5508" x="55" y="403.7935">&#8226; Horas de docencia planificadas</text><text fill="#000000" font-family="sans-serif" font-size="13" lengthAdjust="spacing" textLength="160.3228" x="55" y="418.9263">&#8226; Horas de investigaci&#243;n</text><text fill="#000000" font-family="sans-serif" font-size="13" lengthAdjust="spacing" textLength="196.1426" x="55" y="434.0591">&#8226; Proyectos activos/asignados</text><text fill="#000000" font-family="sans-serif" font-size="13" lengthAdjust="spacing" textLength="4.1323" x="55" y="449.1919">&#160;</text><text fill="#000000" font-family="sans-serif" font-size="13" lengthAdjust="spacing" textLength="234.9648" x="55" y="464.3247">En el caso de Docente-Investigador,</text><text fill="#000000" font-family="sans-serif" font-size="13" lengthAdjust="spacing" textLength="194.27" x="55" y="479.4575">indica si se aproxima al l&#237;mite</text><text fill="#000000" font-family="sans-serif" font-size="13" lengthAdjust="spacing" textLength="192.2451" x="55" y="494.5903">de 16 h/semana de docencia.</text></g><!--link MI_CARGA_TRABAJO_INICIAL to consultarCargaAcademica--><g class="link" data-entity-1="MI_CARGA_TRABAJO_INICIAL" data-entity-2="consultarCargaAcademica" data-source-line="7" data-uid="lnk2" id="link_MI_CARGA_TRABAJO_INICIAL_consultarCargaAcademica"><path d="M187.5,94.5969 C187.5,109.8769 187.5,125.1869 187.5,149.1169" fill="none" id="MI_CARGA_TRABAJO_INICIAL-to-consultarCargaAcademica" style="stroke:#008000;stroke-width:1;"/><polygon fill="#008000" points="187.5,155.1169,191.5,146.1169,187.5,150.1169,183.5,146.1169,187.5,155.1169" style="stroke:#008000;stroke-width:1;"/></g><!--link consultarCargaAcademica to MI_CARGA_TRABAJO_FINAL--><g class="link" data-entity-1="consultarCargaAcademica" data-entity-2="MI_CARGA_TRABAJO_FINAL" data-source-line="32" data-uid="lnk7" id="link_consultarCargaAcademica_MI_CARGA_TRABAJO_FINAL"><path d="M187.5,557.6469 C187.5,588.1669 187.5,609.5969 187.5,628.0869" fill="none" id="consultarCargaAcademica-to-MI_CARGA_TRABAJO_FINAL" style="stroke:#008000;stroke-width:1;"/><polygon fill="#008000" points="187.5,634.0869,191.5,625.0869,187.5,629.0869,183.5,625.0869,187.5,634.0869" style="stroke:#008000;stroke-width:1;"/><text fill="#000000" font-family="sans-serif" font-size="13" lengthAdjust="spacing" textLength="95.9258" x="188.5" y="600.3638">volverAlPerfil()</text></g><!--SRC=[TLBDRXD13BxlKrZXqbQ4g1SELHLf2IrirPOeSAkgo9rrmwYpdjLu4X4X99wbDmwSU8Iy2K-2PzAW9ErgJsj_zlSpZZOwWf5dcRk80Go66G8Qh5U_6ckma0VBBGPim5cck6m9Mk-MwQSe968akAgcetBoePn-cPJloejFq-gw6bNb9Q10Rx_Pwnewhwvr13g6YawI_ishMI3Ys_uGpCR7ADaerGLb4q-S7UrCsT4xEEp1zw9GNR3UqTDFyLTUOi0m8Patn6l0pT7jZfezJ8AmrnMUKvOFkN1wDwnuGHBj36iV1k-z8OxKtowU3kw66Op6K4s0pyA3caGRuxF9UNNv9cE9wyosbhOhPKUbgkwKzjbAf0QJ06W3YKf3c3E4fptAcG_c90_y_Va87ttGTBHU9oF68hGEsTvhb3NASvZT-3HszOV_zyV1Byb4B-evseMN0OgTiQOXQqDd3EIKN7pQyb9ghpFESfrUM2o81jS6_yqs-k0EtEftOpMU1D8Dns_Xwq3KA-Es-hqiVnH5rmtjFFpBjtq22-yM54etfd1ltS7XFm00]--></g></svg>