<svg xmlns="http://www.w3.org/2000/svg" xmlns:xlink="http://www.w3.org/1999/xlink" contentStyleType="text/css" data-diagram-type="STATE" height="825px" preserveAspectRatio="none" style="width:373px;height:825px;background:#FFFFFF;" version="1.1" viewBox="0 0 373 825" width="373px" zoomAndPan="magnify"><title>Consultar mis proyectos</title><defs/><g><g class="title" data-source-line="1"><text fill="#000000" font-family="sans-serif" font-size="14" font-weight="bold" lengthAdjust="spacing" textLength="191.5771" x="80.7114" y="22.9951">Consultar mis proyectos</text></g><g id="PROYECTOS_ABIERTOS_INICIAL"><rect fill="#F1F1F1" height="50" rx="12.5" ry="12.5" style="stroke:#181818;stroke-width:0.5;" width="182.1621" x="92.5" y="44.2969"/><line style="stroke:#181818;stroke-width:0.5;" x1="92.5" x2="274.6621" y1="70.5938" y2="70.5938"/><text fill="#000000" font-family="sans-serif" font-size="14" lengthAdjust="spacing" textLength="162.1621" x="102.5" y="62.292">PROYECTOS_ABIERTOS</text></g><g id="PROYECTO_ABIERTO_FINAL"><rect fill="#F1F1F1" height="50" rx="12.5" ry="12.5" style="stroke:#181818;stroke-width:0.5;" width="164.3887" x="101.5" y="769.2969"/><line style="stroke:#181818;stroke-width:0.5;" x1="101.5" x2="265.8887" y1="795.5938" y2="795.5938"/><text fill="#000000" font-family="sans-serif" font-size="14" lengthAdjust="spacing" textLength="144.3887" x="111.5" y="787.292">PROYECTO_ABIERTO</text></g><path d="M19.5,155.2969 L347.5,155.2969 A12.5,12.5 0 0 1 360,167.7969 L360,181.5938 L7,181.5938 L7,167.7969 A12.5,12.5 0 0 1 19.5,155.2969" fill="#F1F1F1"/><rect fill="none" height="537.2969" rx="12.5" ry="12.5" style="stroke:#181818;stroke-width:0.5;" width="353" x="7" y="155.2969"/><line style="stroke:#181818;stroke-width:0.5;" x1="7" x2="360" y1="181.5938" y2="181.5938"/><text fill="#000000" font-family="sans-serif" font-size="14" lengthAdjust="spacing" textLength="167.9111" x="99.5444" y="173.292">consultarMisProyectos()</text><g id="consultarMisProyectos.VerListadoProy"><rect fill="#F1F1F1" height="50" rx="12.5" ry="12.5" style="stroke:#181818;stroke-width:0.5;" width="50" x="19" y="313.5938"/><line style="stroke:#181818;stroke-width:0.5;" x1="19" x2="69" y1="339.8906" y2="339.8906"/><text fill="#000000" font-family="sans-serif" font-size="14" lengthAdjust="spacing" textLength="4.4502" x="41.7749" y="331.5889">&#160;</text></g><g id="consultarMisProyectos.AbrirProyectoSel"><rect fill="#F1F1F1" height="50" rx="12.5" ry="12.5" style="stroke:#181818;stroke-width:0.5;" width="50" x="19" y="509.5938"/><line style="stroke:#181818;stroke-width:0.5;" x1="19" x2="69" y1="535.8906" y2="535.8906"/><text fill="#000000" font-family="sans-serif" font-size="14" lengthAdjust="spacing" textLength="4.4502" x="41.7749" y="527.5889">&#160;</text></g><ellipse cx="44" cy="202.5938" fill="#222222" rx="10" ry="10" style="stroke:#222222;stroke-width:1;"/><ellipse cx="44" cy="671.5938" fill="none" rx="11" ry="11" style="stroke:#222222;stroke-width:1;"/><ellipse cx="44" cy="671.5938" fill="#222222" rx="6" ry="6" style="stroke:#222222;stroke-width:1;"/><!--link *start*consultarMisProyectos to VerListadoProy--><g class="link" data-entity-1=".start.consultarMisProyectos" data-entity-2="VerListadoProy" data-source-line="14" data-uid="lnk4" id="link_.start.consultarMisProyectos_VerListadoProy"><path d="M44,212.8037 C44,233.3238 44,277.3438 44,307.4638" fill="none" id="*start*consultarMisProyectos-to-VerListadoProy" style="stroke:#008000;stroke-width:1;"/><polygon fill="#008000" points="44,313.4638,48,304.4638,44,308.4638,40,304.4638,44,313.4638" style="stroke:#008000;stroke-width:1;"/><path d="M49,235.5938 L49,290.5938 L325,290.5938 L325,245.5938 L315,235.5938 L49,235.5938" fill="#FEFFDD" style="stroke:#181818;stroke-width:0.5;"/><path d="M315,235.5938 L315,245.5938 L325,245.5938 L315,235.5938" fill="#FEFFDD" style="stroke:#181818;stroke-width:0.5;"/><text fill="#000000" font-family="sans-serif" font-size="13" font-weight="bold" lengthAdjust="spacing" textLength="255.709" x="55" y="252.6606">Investigador/Docente-Investigador</text><text fill="#000000" font-family="sans-serif" font-size="13" lengthAdjust="spacing" textLength="213.3193" x="55" y="267.7935">accede a PROYECTOS_ABIERTOS</text><text fill="#000000" font-family="sans-serif" font-size="13" lengthAdjust="spacing" textLength="110.3223" x="55" y="282.9263">desde su PERFIL.</text></g><!--link VerListadoProy to AbrirProyectoSel--><g class="link" data-entity-1="VerListadoProy" data-entity-2="AbrirProyectoSel" data-source-line="21" data-uid="lnk5" id="link_VerListadoProy_AbrirProyectoSel"><path d="M44,363.7738 C44,401.0538 44,466.1438 44,503.4138" fill="none" id="VerListadoProy-to-AbrirProyectoSel" style="stroke:#008000;stroke-width:1;"/><polygon fill="#008000" points="44,509.4138,48,500.4138,44,504.4138,40,500.4138,44,509.4138" style="stroke:#008000;stroke-width:1;"/><path d="M49,386.5938 L49,486.5938 L338,486.5938 L338,396.5938 L328,386.5938 L49,386.5938" fill="#FEFFDD" style="stroke:#181818;stroke-width:0.5;"/><path d="M328,386.5938 L328,396.5938 L338,396.5938 L328,386.5938" fill="#FEFFDD" style="stroke:#181818;stroke-width:0.5;"/><text fill="#000000" font-family="sans-serif" font-size="13" font-weight="bold" lengthAdjust="spacing" textLength="58.9063" x="55" y="403.6606">Sistema</text><text fill="#000000" font-family="sans-serif" font-size="13" lengthAdjust="spacing" textLength="205.9497" x="118.0386" y="403.6606">muestra el listado de proyectos</text><text fill="#000000" font-family="sans-serif" font-size="13" lengthAdjust="spacing" textLength="268.252" x="55" y="418.7935">en los que el usuario participa, indicando</text><text fill="#000000" font-family="sans-serif" font-size="13" lengthAdjust="spacing" textLength="170.5552" x="55" y="433.9263">estado, rol y fechas clave.</text><text fill="#000000" font-family="sans-serif" font-size="13" lengthAdjust="spacing" textLength="4.1323" x="55" y="449.0591">&#160;</text><text fill="#000000" font-family="sans-serif" font-size="13" lengthAdjust="spacing" textLength="218.8481" x="55" y="464.1919">El usuario selecciona un proyecto</text><text fill="#000000" font-family="sans-serif" font-size="13" lengthAdjust="spacing" textLength="211.5801" x="55" y="479.3247">del listado para ver sus detalles.</text></g><!--link AbrirProyectoSel to *end*consultarMisProyectos--><g class="link" data-entity-1="AbrirProyectoSel" data-entity-2=".end.consultarMisProyectos" data-source-line="31" data-uid="lnk7" id="link_AbrirProyectoSel_.end.consultarMisProyectos"><path d="M44,559.7338 C44,589.6138 44,633.1538 44,654.4038" fill="none" id="AbrirProyectoSel-to-*end*consultarMisProyectos" style="stroke:#008000;stroke-width:1;"/><polygon fill="#008000" points="44,660.4038,48,651.4038,44,655.4038,40,651.4038,44,660.4038" style="stroke:#008000;stroke-width:1;"/><path d="M49,582.5938 L49,637.5938 L351,637.5938 L351,592.5938 L341,582.5938 L49,582.5938" fill="#FEFFDD" style="stroke:#181818;stroke-width:0.5;"/><path d="M341,582.5938 L341,592.5938 L351,592.5938 L341,582.5938" fill="#FEFFDD" style="stroke:#181818;stroke-width:0.5;"/><text fill="#000000" font-family="sans-serif" font-size="13" font-weight="bold" lengthAdjust="spacing" textLength="58.9063" x="55" y="599.6606">Sistema</text><text fill="#000000" font-family="sans-serif" font-size="13" lengthAdjust="spacing" textLength="218.7529" x="118.0386" y="599.6606">abre la vista PROYECTO_ABIERTO</text><text fill="#000000" font-family="sans-serif" font-size="13" lengthAdjust="spacing" textLength="275.2598" x="55" y="614.7935">con la informaci&#243;n completa del proyecto:</text><text fill="#000000" font-family="sans-serif" font-size="13" lengthAdjust="spacing" textLength="261.4409" x="55" y="629.9263">objetivos, equipo, entregables y estado.</text></g><!--link PROYECTOS_ABIERTOS_INICIAL to consultarMisProyectos--><g class="link" data-entity-1="PROYECTOS_ABIERTOS_INICIAL" data-entity-2="consultarMisProyectos" data-source-line="7" data-uid="lnk2" id="link_PROYECTOS_ABIERTOS_INICIAL_consultarMisProyectos"><path d="M183.5,94.5269 C183.5,109.6169 183.5,124.7669 183.5,149.1469" fill="none" id="PROYECTOS_ABIERTOS_INICIAL-to-consultarMisProyectos" style="stroke:#008000;stroke-width:1;"/><polygon fill="#008000" points="183.5,155.1469,187.5,146.1469,183.5,150.1469,179.5,146.1469,183.5,155.1469" style="stroke:#008000;stroke-width:1;"/></g><!--link consultarMisProyectos to PROYECTO_ABIERTO_FINAL--><g class="link" data-entity-1="consultarMisProyectos" data-entity-2="PROYECTO_ABIERTO_FINAL" data-source-line="39" data-uid="lnk8" id="link_consultarMisProyectos_PROYECTO_ABIERTO_FINAL"><path d="M183.5,692.6069 C183.5,723.8569 183.5,745.0369 183.5,763.2569" fill="none" id="consultarMisProyectos-to-PROYECTO_ABIERTO_FINAL" style="stroke:#008000;stroke-width:1;"/><polygon fill="#008000" points="183.5,769.2569,187.5,760.2569,183.5,764.2569,179.5,760.2569,183.5,769.2569" style="stroke:#008000;stroke-width:1;"/><text fill="#000000" font-family="sans-serif" font-size="13" lengthAdjust="spacing" textLength="97.6904" x="184.5" y="735.3638">abrirProyecto()</text></g><!--SRC=[ZLFRQjj047tVhnYKbwJOoNi81iTrGE0cnYw54a8OhIRkDgjTPNTbCALVrK_eZtLs5SKtfKHwaURCvPopiq45JJ2nnZSwe8DAUQYTtP0CrWl_h4oD3YlGob3Or0IrrPlu8uGF60ZcYxllqydNk-NZ-3gVBk97VfjFyl4Cq4Ds36S7XHtmU9FVSb5yTWixE1FYFwE6zoShHsGUXYEGdPWloi_VfBnExGNJm5xaz2o3Nq94KcrznYzdVoCtKnmfRKmzniU5KwxhiYJTjhZ_zB37jAUBiTp4ckZtSmfS5QFShCa7jU8yT_7PIZA1Xhl1gujYb99HIYe9iETK4bwIPzWtC9ykRlBPUGgIATFObkC-fpswHwBU8xpa1bHXf0LLmpGT0cbEINsPnSwAjGn0yocyD1JJ6j-WKnPuyOAIgiO1A5CgYQQqRNfgCm1dDMpWYUGFTbngNDDvgs6wRU99avJA6eJ6l8rzDMDBAIuvhCcnDvw1W5gJxxFdq8CzW_XyF-G95ev0yy0u_UWYf0ePov65FrbNeLH__nYELRLcRebv9-KofTlY9mMrjdu0zDAecjtXBN6qmeA5i4kjPmUAVWlHVnzsHRrpJo-ZYgqLfsV_0000]--></g></svg>