<svg xmlns="http://www.w3.org/2000/svg" xmlns:xlink="http://www.w3.org/1999/xlink" contentStyleType="text/css" data-diagram-type="STATE" height="931px" preserveAspectRatio="none" style="width:397px;height:931px;background:#FFFFFF;" version="1.1" viewBox="0 0 397 931" width="397px" zoomAndPan="magnify"><title>Solicitar compensaci&#243;n</title><defs/><g><g class="title" data-source-line="1"><text fill="#000000" font-family="sans-serif" font-size="14" font-weight="bold" lengthAdjust="spacing" textLength="182.7656" x="100.1311" y="22.9951">Solicitar compensaci&#243;n</text></g><g id="MI_CARGA_TRABAJO_INICIAL"><rect fill="#F1F1F1" height="50" rx="12.5" ry="12.5" style="stroke:#181818;stroke-width:0.5;" width="161.9004" x="89.5" y="44.2969"/><line style="stroke:#181818;stroke-width:0.5;" x1="89.5" x2="251.4004" y1="70.5938" y2="70.5938"/><text fill="#000000" font-family="sans-serif" font-size="14" lengthAdjust="spacing" textLength="141.9004" x="99.5" y="62.292">MI_CARGA_TRABAJO</text></g><g id="MI_CARGA_TRABAJO_FINAL"><rect fill="#F1F1F1" height="50" rx="12.5" ry="12.5" style="stroke:#181818;stroke-width:0.5;" width="161.9004" x="89.5" y="875.2969"/><line style="stroke:#181818;stroke-width:0.5;" x1="89.5" x2="251.4004" y1="901.5938" y2="901.5938"/><text fill="#000000" font-family="sans-serif" font-size="14" lengthAdjust="spacing" textLength="141.9004" x="99.5" y="893.292">MI_CARGA_TRABAJO</text></g><path d="M19.5,155.2969 L321.5,155.2969 A12.5,12.5 0 0 1 334,167.7969 L334,181.5938 L7,181.5938 L7,167.7969 A12.5,12.5 0 0 1 19.5,155.2969" fill="#F1F1F1"/><rect fill="none" height="643.2969" rx="12.5" ry="12.5" style="stroke:#181818;stroke-width:0.5;" width="327" x="7" y="155.2969"/><line style="stroke:#181818;stroke-width:0.5;" x1="7" x2="334" y1="181.5938" y2="181.5938"/><text fill="#000000" font-family="sans-serif" font-size="14" lengthAdjust="spacing" textLength="169.2236" x="85.8882" y="173.292">solicitarCompensacion()</text><g id="solicitarCompensacion.VerOpciones"><rect fill="#F1F1F1" height="50" rx="12.5" ry="12.5" style="stroke:#181818;stroke-width:0.5;" width="50" x="19" y="328.5938"/><line style="stroke:#181818;stroke-width:0.5;" x1="19" x2="69" y1="354.8906" y2="354.8906"/><text fill="#000000" font-family="sans-serif" font-size="14" lengthAdjust="spacing" textLength="4.4502" x="41.7749" y="346.5889">&#160;</text></g><g id="solicitarCompensacion.ConfirmarSolicitud"><rect fill="#F1F1F1" height="50" rx="12.5" ry="12.5" style="stroke:#181818;stroke-width:0.5;" width="50" x="19" y="600.5938"/><line style="stroke:#181818;stroke-width:0.5;" x1="19" x2="69" y1="626.8906" y2="626.8906"/><text fill="#000000" font-family="sans-serif" font-size="14" lengthAdjust="spacing" textLength="4.4502" x="41.7749" y="618.5889">&#160;</text></g><ellipse cx="44" cy="202.5938" fill="#222222" rx="10" ry="10" style="stroke:#222222;stroke-width:1;"/><ellipse cx="44" cy="777.5938" fill="none" rx="11" ry="11" style="stroke:#222222;stroke-width:1;"/><ellipse cx="44" cy="777.5938" fill="#222222" rx="6" ry="6" style="stroke:#222222;stroke-width:1;"/><!--link *start*solicitarCompensacion to VerOpciones--><g class="link" data-entity-1=".start.solicitarCompensacion" data-entity-2="VerOpciones" data-source-line="14" data-uid="lnk4" id="link_.start.solicitarCompensacion_VerOpciones"><path d="M44,212.9138 C44,235.7238 44,288.9238 44,322.4738" fill="none" id="*start*solicitarCompensacion-to-VerOpciones" style="stroke:#008000;stroke-width:1;"/><polygon fill="#008000" points="44,328.4738,48,319.4738,44,323.4738,40,319.4738,44,328.4738" style="stroke:#008000;stroke-width:1;"/><path d="M49,235.5938 L49,305.5938 L325,305.5938 L325,245.5938 L315,235.5938 L49,235.5938" fill="#FEFFDD" style="stroke:#181818;stroke-width:0.5;"/><path d="M315,235.5938 L315,245.5938 L325,245.5938 L315,235.5938" fill="#FEFFDD" style="stroke:#181818;stroke-width:0.5;"/><text fill="#000000" font-family="sans-serif" font-size="13" font-weight="bold" lengthAdjust="spacing" textLength="255.709" x="55" y="252.6606">Investigador/Docente-Investigador</text><text fill="#000000" font-family="sans-serif" font-size="13" lengthAdjust="spacing" textLength="253.2651" x="55" y="267.7935">se encuentra en MI_CARGA_TRABAJO y</text><text fill="#000000" font-family="sans-serif" font-size="13" lengthAdjust="spacing" textLength="235.2124" x="55" y="282.9263">selecciona "Solicitar compensaci&#243;n"</text><text fill="#000000" font-family="sans-serif" font-size="13" lengthAdjust="spacing" textLength="182.5903" x="55" y="298.0591">para un proyecto finalizado.</text></g><!--link VerOpciones to ConfirmarSolicitud--><g class="link" data-entity-1="VerOpciones" data-entity-2="ConfirmarSolicitud" data-source-line="22" data-uid="lnk5" id="link_VerOpciones_ConfirmarSolicitud"><path d="M44,379.0338 C44,430.4338 44,543.2238 44,594.4038" fill="none" id="VerOpciones-to-ConfirmarSolicitud" style="stroke:#008000;stroke-width:1;"/><polygon fill="#008000" points="44,600.4038,48,591.4038,44,595.4038,40,591.4038,44,600.4038" style="stroke:#008000;stroke-width:1;"/><path d="M49,401.5938 L49,577.5938 L307,577.5938 L307,411.5938 L297,401.5938 L49,401.5938" fill="#FEFFDD" style="stroke:#181818;stroke-width:0.5;"/><path d="M297,401.5938 L297,411.5938 L307,411.5938 L297,401.5938" fill="#FEFFDD" style="stroke:#181818;stroke-width:0.5;"/><text fill="#000000" font-family="sans-serif" font-size="13" font-weight="bold" lengthAdjust="spacing" textLength="58.9063" x="55" y="418.6606">Sistema</text><text fill="#000000" font-family="sans-serif" font-size="13" lengthAdjust="spacing" textLength="138.6265" x="118.0386" y="418.6606">muestra las opciones</text><text fill="#000000" font-family="sans-serif" font-size="13" lengthAdjust="spacing" textLength="196.168" x="55" y="433.7935">de compensaci&#243;n disponibles:</text><text fill="#000000" font-family="sans-serif" font-size="13" lengthAdjust="spacing" textLength="4.1323" x="55" y="448.9263">&#160;</text><text fill="#000000" font-family="sans-serif" font-size="13" lengthAdjust="spacing" textLength="130.4443" x="55" y="464.0591">&#8226; Para Investigador:</text><text fill="#000000" font-family="sans-serif" font-size="13" lengthAdjust="spacing" textLength="183.8091" x="63.2646" y="479.1919">- compensacionEconomica()</text><text fill="#000000" font-family="sans-serif" font-size="13" lengthAdjust="spacing" textLength="4.1323" x="55" y="494.3247">&#160;</text><text fill="#000000" font-family="sans-serif" font-size="13" lengthAdjust="spacing" textLength="189.5791" x="55" y="509.4575">&#8226; Para Docente-Investigador:</text><text fill="#000000" font-family="sans-serif" font-size="13" lengthAdjust="spacing" textLength="183.8091" x="63.2646" y="524.5903">- compensacionEconomica()</text><text fill="#000000" font-family="sans-serif" font-size="13" lengthAdjust="spacing" textLength="181.9302" x="63.2646" y="539.7231">- reduccionHorasDocentes()</text><text fill="#000000" font-family="sans-serif" font-size="13" lengthAdjust="spacing" textLength="4.1323" x="55" y="554.856">&#160;</text><text fill="#000000" font-family="sans-serif" font-size="13" lengthAdjust="spacing" textLength="237.3262" x="55" y="569.9888">El usuario elige una de las opciones.</text></g><!--link ConfirmarSolicitud to *end*solicitarCompensacion--><g class="link" data-entity-1="ConfirmarSolicitud" data-entity-2=".end.solicitarCompensacion" data-source-line="37" data-uid="lnk7" id="link_ConfirmarSolicitud_.end.solicitarCompensacion"><path d="M44,650.6938 C44,683.9838 44,736.6138 44,760.2638" fill="none" id="ConfirmarSolicitud-to-*end*solicitarCompensacion" style="stroke:#008000;stroke-width:1;"/><polygon fill="#008000" points="44,766.2638,48,757.2638,44,761.2638,40,757.2638,44,766.2638" style="stroke:#008000;stroke-width:1;"/><path d="M49,673.5938 L49,743.5938 L312,743.5938 L312,683.5938 L302,673.5938 L49,673.5938" fill="#FEFFDD" style="stroke:#181818;stroke-width:0.5;"/><path d="M302,673.5938 L302,683.5938 L312,683.5938 L302,673.5938" fill="#FEFFDD" style="stroke:#181818;stroke-width:0.5;"/><text fill="#000000" font-family="sans-serif" font-size="13" font-weight="bold" lengthAdjust="spacing" textLength="58.9063" x="55" y="690.6606">Sistema</text><text fill="#000000" font-family="sans-serif" font-size="13" lengthAdjust="spacing" textLength="144.9106" x="118.0386" y="690.6606">registra la solicitud de</text><text fill="#000000" font-family="sans-serif" font-size="13" lengthAdjust="spacing" textLength="242.2393" x="55" y="705.7935">compensaci&#243;n seleccionada y la deja</text><text fill="#000000" font-family="sans-serif" font-size="13" lengthAdjust="spacing" textLength="197.6787" x="55" y="720.9263">pendiente de validaci&#243;n por el</text><text fill="#000000" font-family="sans-serif" font-size="13" lengthAdjust="spacing" textLength="187.0337" x="55" y="736.0591">Departamento de Proyectos.</text></g><!--link MI_CARGA_TRABAJO_INICIAL to solicitarCompensacion--><g class="link" data-entity-1="MI_CARGA_TRABAJO_INICIAL" data-entity-2="solicitarCompensacion" data-source-line="7" data-uid="lnk2" id="link_MI_CARGA_TRABAJO_INICIAL_solicitarCompensacion"><path d="M170.5,94.4469 C170.5,109.4569 170.5,124.5669 170.5,149.2369" fill="none" id="MI_CARGA_TRABAJO_INICIAL-to-solicitarCompensacion" style="stroke:#008000;stroke-width:1;"/><polygon fill="#008000" points="170.5,155.2369,174.5,146.2369,170.5,150.2369,166.5,146.2369,170.5,155.2369" style="stroke:#008000;stroke-width:1;"/></g><!--link solicitarCompensacion to MI_CARGA_TRABAJO_FINAL--><g class="link" data-entity-1="solicitarCompensacion" data-entity-2="MI_CARGA_TRABAJO_FINAL" data-source-line="46" data-uid="lnk8" id="link_solicitarCompensacion_MI_CARGA_TRABAJO_FINAL"><path d="M170.5,798.3369 C170.5,829.9569 170.5,851.0069 170.5,869.1269" fill="none" id="solicitarCompensacion-to-MI_CARGA_TRABAJO_FINAL" style="stroke:#008000;stroke-width:1;"/><polygon fill="#008000" points="170.5,875.1269,174.5,866.1269,170.5,870.1269,166.5,866.1269,170.5,875.1269" style="stroke:#008000;stroke-width:1;"/><text fill="#000000" font-family="sans-serif" font-size="13" lengthAdjust="spacing" textLength="217.5278" x="171.5" y="841.3638">registrarSolicitudCompensacion()</text></g><!--SRC=[ZLHTRjGm47xFAKRXfKLQ-hwgLWhR0a7GLYtYfQfMi_PqPUhOaUrK2WY9it05Zi1DE0dZ_BJ9RY9GNXBFDpFVztacGGLDS6Er4YgW0s6Baen7eNx_Ceb_KAP4XmLePIZK9K5fTHq_aiG730GVyyqwktwRRJvTPw-pzvUR_29Vvza7G0_fVZ2TItgJNt0Ap2GbiqqMjozsZiZSBLRWUn7h9mtMz3GdWqsxoSZHSGhVaeGPGPkVyiFep-GkomWWVnXSMtElN86kixEIRONRbtSZelj5ZEKQp8PjVMWEJhUht3oI3sg7qhgJCol815eC3qzFjgkM0W4PKJ708RyTU0jr1zCaObE4TEQwqmOOxnig0wMpDObWuLuPrEehDttL0CZ8Xd8hRY1c97B2Z3cjDye7AZ0gWg9YXKn0ivzsQ9AaCLcGofVMgAqclsof_Fdn4wuY-w5FooO4i1YaMtCkhB654dXql9SxvVM_Q_HnHx9gN7vd7Vgkbk-Rd6keV8LEMI2jTiGsOnGs53lbyQ6N8wjvllxBMqSxrPdRxmDNajHWn-O-Juj4g6E2f2_OpWTpKr5MPFx8ao6xdD8wbjLWpeYdA631C1jXLzqixQlxpkivkPX3UJC_Y-MJdcTRnYly5m00]--></g></svg>