<svg xmlns="http://www.w3.org/2000/svg" xmlns:xlink="http://www.w3.org/1999/xlink" contentStyleType="text/css" data-diagram-type="STATE" height="814px" preserveAspectRatio="none" style="width:603px;height:814px;background:#FFFFFF;" version="1.1" viewBox="0 0 603 814" width="603px" zoomAndPan="magnify"><title>Subir entregable</title><defs/><g><g class="title" data-source-line="1"><text fill="#000000" font-family="sans-serif" font-size="14" font-weight="bold" lengthAdjust="spacing" textLength="132.9863" x="225.0068" y="22.9951">Subir entregable</text></g><g id="PROYECTO_ABIERTO_INICIAL"><rect fill="#F1F1F1" height="50" rx="12.5" ry="12.5" style="stroke:#181818;stroke-width:0.5;" width="164.3887" x="216.5" y="44.2969"/><line style="stroke:#181818;stroke-width:0.5;" x1="216.5" x2="380.8887" y1="70.5938" y2="70.5938"/><text fill="#000000" font-family="sans-serif" font-size="14" lengthAdjust="spacing" textLength="144.3887" x="226.5" y="62.292">PROYECTO_ABIERTO</text></g><g id="PROYECTO_ABIERTO_FINAL"><rect fill="#F1F1F1" height="50" rx="12.5" ry="12.5" style="stroke:#181818;stroke-width:0.5;" width="164.3887" x="216.5" y="758.2969"/><line style="stroke:#181818;stroke-width:0.5;" x1="216.5" x2="380.8887" y1="784.5938" y2="784.5938"/><text fill="#000000" font-family="sans-serif" font-size="14" lengthAdjust="spacing" textLength="144.3887" x="226.5" y="776.292">PROYECTO_ABIERTO</text></g><path d="M19.5,155.2969 L577.5,155.2969 A12.5,12.5 0 0 1 590,167.7969 L590,181.5938 L7,181.5938 L7,167.7969 A12.5,12.5 0 0 1 19.5,155.2969" fill="#F1F1F1"/><rect fill="none" height="526.2969" rx="12.5" ry="12.5" style="stroke:#181818;stroke-width:0.5;" width="583" x="7" y="155.2969"/><line style="stroke:#181818;stroke-width:0.5;" x1="7" x2="590" y1="181.5938" y2="181.5938"/><text fill="#000000" font-family="sans-serif" font-size="14" lengthAdjust="spacing" textLength="122.0557" x="237.4722" y="173.292">subirEntregable()</text><g id="subirEntregable.SeleccionarArchivo"><rect fill="#F1F1F1" height="50" rx="12.5" ry="12.5" style="stroke:#181818;stroke-width:0.5;" width="50" x="168" y="313.5938"/><line style="stroke:#181818;stroke-width:0.5;" x1="168" x2="218" y1="339.8906" y2="339.8906"/><text fill="#000000" font-family="sans-serif" font-size="14" lengthAdjust="spacing" textLength="4.4502" x="190.7749" y="331.5889">&#160;</text></g><g class="entity" data-entity="DecisionUsuario" data-uid="ent0006" id="entity_DecisionUsuario"><polygon fill="#F1F1F1" points="193,509.5938,205,521.5938,193,533.5938,181,521.5938,193,509.5938" style="stroke:#181818;stroke-width:0.5;"/></g><ellipse cx="193" cy="202.5938" fill="#222222" rx="10" ry="10" style="stroke:#222222;stroke-width:1;"/><ellipse cx="193" cy="660.5938" fill="none" rx="11" ry="11" style="stroke:#222222;stroke-width:1;"/><ellipse cx="193" cy="660.5938" fill="#222222" rx="6" ry="6" style="stroke:#222222;stroke-width:1;"/><!--link *start*subirEntregable to SeleccionarArchivo--><g class="link" data-entity-1=".start.subirEntregable" data-entity-2="SeleccionarArchivo" data-source-line="14" data-uid="lnk4" id="link_.start.subirEntregable_SeleccionarArchivo"><path d="M193,212.8037 C193,233.3238 193,277.3438 193,307.4638" fill="none" id="*start*subirEntregable-to-SeleccionarArchivo" style="stroke:#008000;stroke-width:1;"/><polygon fill="#008000" points="193,313.4638,197,304.4638,193,308.4638,189,304.4638,193,313.4638" style="stroke:#008000;stroke-width:1;"/><path d="M198,235.5938 L198,290.5938 L559,290.5938 L559,245.5938 L549,235.5938 L198,235.5938" fill="#FEFFDD" style="stroke:#181818;stroke-width:0.5;"/><path d="M549,235.5938 L549,245.5938 L559,245.5938 L549,235.5938" fill="#FEFFDD" style="stroke:#181818;stroke-width:0.5;"/><text fill="#000000" font-family="sans-serif" font-size="13" font-weight="bold" lengthAdjust="spacing" textLength="92.5171" x="204" y="252.6606">Investigador</text><text fill="#000000" font-family="sans-serif" font-size="13" lengthAdjust="spacing" textLength="243.75" x="300.6494" y="252.6606">se encuentra en PROYECTO_ABIERTO</text><text fill="#000000" font-family="sans-serif" font-size="13" lengthAdjust="spacing" textLength="313.1426" x="204" y="267.7935">y selecciona un entregable pendiente, pulsando</text><text fill="#000000" font-family="sans-serif" font-size="13" lengthAdjust="spacing" textLength="101.8799" x="204" y="282.9263">"Subir archivo".</text></g><!--link SeleccionarArchivo to DecisionUsuario--><g class="link" data-entity-1="SeleccionarArchivo" data-entity-2="DecisionUsuario" data-source-line="21" data-uid="lnk5" id="link_SeleccionarArchivo_DecisionUsuario"><path d="M193,363.6338 C193,403.2438 193,474.7438 193,503.5037" fill="none" id="SeleccionarArchivo-to-DecisionUsuario" style="stroke:#008000;stroke-width:1;"/><polygon fill="#008000" points="193,509.5037,197,500.5037,193,504.5037,189,500.5037,193,509.5037" style="stroke:#008000;stroke-width:1;"/><path d="M198,386.5938 L198,486.5938 L501,486.5938 L501,396.5938 L491,386.5938 L198,386.5938" fill="#FEFFDD" style="stroke:#181818;stroke-width:0.5;"/><path d="M491,386.5938 L491,396.5938 L501,396.5938 L491,386.5938" fill="#FEFFDD" style="stroke:#181818;stroke-width:0.5;"/><text fill="#000000" font-family="sans-serif" font-size="13" font-weight="bold" lengthAdjust="spacing" textLength="58.9063" x="204" y="403.6606">Sistema</text><text fill="#000000" font-family="sans-serif" font-size="13" lengthAdjust="spacing" textLength="179.334" x="267.0386" y="403.6606">abre el cuadro de selecci&#243;n</text><text fill="#000000" font-family="sans-serif" font-size="13" lengthAdjust="spacing" textLength="69.3862" x="204" y="418.7935">de fichero.</text><text fill="#000000" font-family="sans-serif" font-size="13" lengthAdjust="spacing" textLength="4.1323" x="204" y="433.9263">&#160;</text><text fill="#000000" font-family="sans-serif" font-size="13" font-weight="bold" lengthAdjust="spacing" textLength="92.5171" x="204" y="449.0591">Investigador</text><text fill="#000000" font-family="sans-serif" font-size="13" lengthAdjust="spacing" textLength="185.9673" x="300.6494" y="449.0591">elige el documento y puede:</text><text fill="#000000" font-family="sans-serif" font-size="13" lengthAdjust="spacing" textLength="145.5835" x="204" y="464.1919">&#8226; confirmarSubida(), o</text><text fill="#000000" font-family="sans-serif" font-size="13" lengthAdjust="spacing" textLength="126.0708" x="204" y="479.3247">&#8226; cancelarSubida().</text></g><!--link DecisionUsuario to *end*subirEntregable--><g class="link" data-entity-1="DecisionUsuario" data-entity-2=".end.subirEntregable" data-source-line="32" data-uid="lnk7" id="link_DecisionUsuario_.end.subirEntregable"><path d="M183.34,524.1938 C146.66,530.2738 18,551.5938 18,551.5938 C18,551.5938 18,631.5938 18,631.5938 C18,631.5938 138.3954,650.8558 176.3954,656.9358" fill="none" id="DecisionUsuario-to-*end*subirEntregable" style="stroke:#008000;stroke-width:1;"/><polygon fill="#008000" points="182.32,657.8838,174.065,652.5121,177.3828,657.0938,172.8011,660.4116,182.32,657.8838" style="stroke:#008000;stroke-width:1;"/><path d="M23,556.5938 L23,626.5938 L343,626.5938 L343,566.5938 L333,556.5938 L23,556.5938" fill="#FEFFDD" style="stroke:#181818;stroke-width:0.5;"/><path d="M333,556.5938 L333,566.5938 L343,566.5938 L333,556.5938" fill="#FEFFDD" style="stroke:#181818;stroke-width:0.5;"/><text fill="#000000" font-family="sans-serif" font-size="13" font-weight="bold" lengthAdjust="spacing" textLength="150.6172" x="29" y="573.6606">Si confirmaSubida():</text><text fill="#000000" font-family="sans-serif" font-size="13" lengthAdjust="spacing" textLength="251.1831" x="29" y="588.7935">el Sistema guarda el archivo, marca el</text><text fill="#000000" font-family="sans-serif" font-size="13" lengthAdjust="spacing" textLength="260.3618" x="29" y="603.9263">entregable como "Entregado" y registra</text><text fill="#000000" font-family="sans-serif" font-size="13" lengthAdjust="spacing" textLength="299.8506" x="29" y="619.0591">fecha/hora (y notifica al Depto. de Proyectos).</text></g><!--link DecisionUsuario to *end*subirEntregable--><g class="link" data-entity-1="DecisionUsuario" data-entity-2=".end.subirEntregable" data-source-line="41" data-uid="lnk8" id="link_DecisionUsuario_.end.subirEntregable"><path d="M202.7,524.4038 C236.63,530.7538 348,551.5938 348,551.5938 C348,551.5938 348,631.5938 348,631.5938 C348,631.5938 244.5743,650.2765 209.5543,656.6065" fill="none" id="DecisionUsuario-to-*end*subirEntregable-1" style="stroke:#FF0000;stroke-width:1;"/><polygon fill="#FF0000" points="203.65,657.6737,213.218,660.0091,208.5703,656.7844,211.795,652.1367,203.65,657.6737" style="stroke:#FF0000;stroke-width:1;"/><path d="M353,556.5938 L353,626.5938 L581,626.5938 L581,566.5938 L571,556.5938 L353,556.5938" fill="#FEFFDD" style="stroke:#181818;stroke-width:0.5;"/><path d="M571,556.5938 L571,566.5938 L581,566.5938 L571,556.5938" fill="#FEFFDD" style="stroke:#181818;stroke-width:0.5;"/><text fill="#000000" font-family="sans-serif" font-size="13" font-weight="bold" lengthAdjust="spacing" textLength="147.7798" x="359" y="573.6606">Si cancelarSubida():</text><text fill="#000000" font-family="sans-serif" font-size="13" lengthAdjust="spacing" textLength="207.2256" x="359" y="588.7935">el caso de uso termina sin subir</text><text fill="#000000" font-family="sans-serif" font-size="13" lengthAdjust="spacing" textLength="196.2822" x="359" y="603.9263">ning&#250;n fichero y el entregable</text><text fill="#000000" font-family="sans-serif" font-size="13" lengthAdjust="spacing" textLength="108.8242" x="359" y="619.0591">sigue pendiente.</text></g><!--link PROYECTO_ABIERTO_INICIAL to subirEntregable--><g class="link" data-entity-1="PROYECTO_ABIERTO_INICIAL" data-entity-2="subirEntregable" data-source-line="7" data-uid="lnk2" id="link_PROYECTO_ABIERTO_INICIAL_subirEntregable"><path d="M298.5,94.4169 C298.5,109.5569 298.5,124.8269 298.5,149.2969" fill="none" id="PROYECTO_ABIERTO_INICIAL-to-subirEntregable" style="stroke:#008000;stroke-width:1;"/><polygon fill="#008000" points="298.5,155.2969,302.5,146.2969,298.5,150.2969,294.5,146.2969,298.5,155.2969" style="stroke:#008000;stroke-width:1;"/></g><!--link subirEntregable to PROYECTO_ABIERTO_FINAL--><g class="link" data-entity-1="subirEntregable" data-entity-2="PROYECTO_ABIERTO_FINAL" data-source-line="50" data-uid="lnk9" id="link_subirEntregable_PROYECTO_ABIERTO_FINAL"><path d="M298.5,681.6669 C298.5,712.8369 298.5,734.0169 298.5,752.2369" fill="none" id="subirEntregable-to-PROYECTO_ABIERTO_FINAL" style="stroke:#008000;stroke-width:1;"/><polygon fill="#008000" points="298.5,758.2369,302.5,749.2369,298.5,753.2369,294.5,749.2369,298.5,758.2369" style="stroke:#008000;stroke-width:1;"/><text fill="#000000" font-family="sans-serif" font-size="13" lengthAdjust="spacing" textLength="240.3477" x="299.5" y="724.3638">confirmarSubida() / cancelarSubida()</text></g><!--SRC=[ZLJ1Qjj04BthAmRrKASuzjqOWviw82X9YDj32Q6CLcDvczMks5q5J2dqLzfVwArN_qc-fAEL7Iko5NgID3jlvhqte_NIAu9bbKeBfBsb75D5aNkGkaIB1IYfoMzAWjAeJVqHHSwZ9xYvlVwokFXq_NN-FbdSyZEvIYwI-KT01t7tCEu3NIPN384UKDJRvFpkJMw9zFtv35pDVd4Wl-lL2OSMdTZWB8RlKSJzeS4iIP4GqcYqSolMyj446CIjd0yafEEKpwv2AmrCfs9jfA3PhAbqz-x-1RtZcY5D6wvbT6tmGmXCqrcY7ybvcMDcx7ISiZJYgOYgdWposv5_0RZXj7qBg7HhZb2IpYH_qn3AIZdKMTCyRYQE3Pzu58AS6rWrCavOqLRLSQ5Nqb8wJmK6DPXQrgD0L9XP0ndjYM__w93FaPKKQx9c5FLwGahceKncH5MmECCEb1LbD0cOfv-_GHYzahP0M-lCS70s17CuH2r87SvEgNyBbwhwPY3T_d9IDDZkuDjsyD1ViU2Ppxxbf5RIj5MmimXoBfjX7TdDPGYiGDIH7SFdkGfJ68XtYvoPc1tWDwvZCQIkIAnnl3QyDODDJKgohmYeM4JfpQXs-iQQ3GbltAi6eF9aDVhzsfummLBsFnPqN7zXWK0Nzg7Y1_Sh96-oaxhvXvkgKkVRltg_7ooOOQqRA_oVCgzQEz-HzOClXiwLq9vWpzKqETub61-9-GS0]--></g></svg>