<svg xmlns="http://www.w3.org/2000/svg" xmlns:xlink="http://www.w3.org/1999/xlink" contentStyleType="text/css" data-diagram-type="STATE" height="856px" preserveAspectRatio="none" style="width:376px;height:856px;background:#FFFFFF;" version="1.1" viewBox="0 0 376 856" width="376px" zoomAndPan="magnify"><title>Ver estado de entregable</title><defs/><g><g class="title" data-source-line="1"><text fill="#000000" font-family="sans-serif" font-size="14" font-weight="bold" lengthAdjust="spacing" textLength="201.3184" x="77.3408" y="22.9951">Ver estado de entregable</text></g><g id="PROYECTO_ABIERTO_INICIAL"><rect fill="#F1F1F1" height="50" rx="12.5" ry="12.5" style="stroke:#181818;stroke-width:0.5;" width="164.3887" x="103" y="44.2969"/><line style="stroke:#181818;stroke-width:0.5;" x1="103" x2="267.3887" y1="70.5938" y2="70.5938"/><text fill="#000000" font-family="sans-serif" font-size="14" lengthAdjust="spacing" textLength="144.3887" x="113" y="62.292">PROYECTO_ABIERTO</text></g><g id="PROYECTO_ABIERTO_FINAL"><rect fill="#F1F1F1" height="50" rx="12.5" ry="12.5" style="stroke:#181818;stroke-width:0.5;" width="164.3887" x="103" y="800.2969"/><line style="stroke:#181818;stroke-width:0.5;" x1="103" x2="267.3887" y1="826.5938" y2="826.5938"/><text fill="#000000" font-family="sans-serif" font-size="14" lengthAdjust="spacing" textLength="144.3887" x="113" y="818.292">PROYECTO_ABIERTO</text></g><path d="M19.5,155.2969 L350.5,155.2969 A12.5,12.5 0 0 1 363,167.7969 L363,181.5938 L7,181.5938 L7,167.7969 A12.5,12.5 0 0 1 19.5,155.2969" fill="#F1F1F1"/><rect fill="none" height="568.2969" rx="12.5" ry="12.5" style="stroke:#181818;stroke-width:0.5;" width="356" x="7" y="155.2969"/><line style="stroke:#181818;stroke-width:0.5;" x1="7" x2="363" y1="181.5938" y2="181.5938"/><text fill="#000000" font-family="sans-serif" font-size="14" lengthAdjust="spacing" textLength="157.6709" x="106.1646" y="173.292">verEstadoEntregable()</text><g id="verEstadoEntregable.VerLista"><rect fill="#F1F1F1" height="50" rx="12.5" ry="12.5" style="stroke:#181818;stroke-width:0.5;" width="50" x="19" y="313.5938"/><line style="stroke:#181818;stroke-width:0.5;" x1="19" x2="69" y1="339.8906" y2="339.8906"/><text fill="#000000" font-family="sans-serif" font-size="14" lengthAdjust="spacing" textLength="4.4502" x="41.7749" y="331.5889">&#160;</text></g><g id="verEstadoEntregable.VerDetalleEnt"><rect fill="#F1F1F1" height="50" rx="12.5" ry="12.5" style="stroke:#181818;stroke-width:0.5;" width="50" x="19" y="540.5938"/><line style="stroke:#181818;stroke-width:0.5;" x1="19" x2="69" y1="566.8906" y2="566.8906"/><text fill="#000000" font-family="sans-serif" font-size="14" lengthAdjust="spacing" textLength="4.4502" x="41.7749" y="558.5889">&#160;</text></g><ellipse cx="44" cy="202.5938" fill="#222222" rx="10" ry="10" style="stroke:#222222;stroke-width:1;"/><ellipse cx="44" cy="702.5938" fill="none" rx="11" ry="11" style="stroke:#222222;stroke-width:1;"/><ellipse cx="44" cy="702.5938" fill="#222222" rx="6" ry="6" style="stroke:#222222;stroke-width:1;"/><!--link *start*verEstadoEntregable to VerLista--><g class="link" data-entity-1=".start.verEstadoEntregable" data-entity-2="VerLista" data-source-line="14" data-uid="lnk4" id="link_.start.verEstadoEntregable_VerLista"><path d="M44,212.8037 C44,233.3238 44,277.3438 44,307.4638" fill="none" id="*start*verEstadoEntregable-to-VerLista" style="stroke:#008000;stroke-width:1;"/><polygon fill="#008000" points="44,313.4638,48,304.4638,44,308.4638,40,304.4638,44,313.4638" style="stroke:#008000;stroke-width:1;"/><path d="M49,235.5938 L49,290.5938 L325,290.5938 L325,245.5938 L315,235.5938 L49,235.5938" fill="#FEFFDD" style="stroke:#181818;stroke-width:0.5;"/><path d="M315,235.5938 L315,245.5938 L325,245.5938 L315,235.5938" fill="#FEFFDD" style="stroke:#181818;stroke-width:0.5;"/><text fill="#000000" font-family="sans-serif" font-size="13" font-weight="bold" lengthAdjust="spacing" textLength="255.709" x="55" y="252.6606">Investigador/Docente-Investigador</text><text fill="#000000" font-family="sans-serif" font-size="13" lengthAdjust="spacing" textLength="255.5757" x="55" y="267.7935">se encuentra en PROYECTO_ABIERTO y</text><text fill="#000000" font-family="sans-serif" font-size="13" lengthAdjust="spacing" textLength="204.4517" x="55" y="282.9263">abre la secci&#243;n de entregables.</text></g><!--link VerLista to VerDetalleEnt--><g class="link" data-entity-1="VerLista" data-entity-2="VerDetalleEnt" data-source-line="21" data-uid="lnk5" id="link_VerLista_VerDetalleEnt"><path d="M44,363.6738 C44,406.8638 44,491.0338 44,534.3438" fill="none" id="VerLista-to-VerDetalleEnt" style="stroke:#008000;stroke-width:1;"/><polygon fill="#008000" points="44,540.3438,48,531.3438,44,535.3438,40,531.3438,44,540.3438" style="stroke:#008000;stroke-width:1;"/><path d="M49,386.5938 L49,517.5938 L336,517.5938 L336,396.5938 L326,386.5938 L49,386.5938" fill="#FEFFDD" style="stroke:#181818;stroke-width:0.5;"/><path d="M326,386.5938 L326,396.5938 L336,396.5938 L326,386.5938" fill="#FEFFDD" style="stroke:#181818;stroke-width:0.5;"/><text fill="#000000" font-family="sans-serif" font-size="13" font-weight="bold" lengthAdjust="spacing" textLength="58.9063" x="55" y="403.6606">Sistema</text><text fill="#000000" font-family="sans-serif" font-size="13" lengthAdjust="spacing" textLength="203.0298" x="118.0386" y="403.6606">muestra la lista de entregables</text><text fill="#000000" font-family="sans-serif" font-size="13" lengthAdjust="spacing" textLength="176.2236" x="55" y="418.7935">del proyecto con su estado</text><text fill="#000000" font-family="sans-serif" font-size="13" lengthAdjust="spacing" textLength="229.7788" x="55" y="433.9263">(Pendiente, Entregado, Retrasado),</text><text fill="#000000" font-family="sans-serif" font-size="13" lengthAdjust="spacing" textLength="203.9502" x="55" y="449.0591">fecha l&#237;mite y fecha de entrega</text><text fill="#000000" font-family="sans-serif" font-size="13" lengthAdjust="spacing" textLength="57.8208" x="55" y="464.1919">si existe.</text><text fill="#000000" font-family="sans-serif" font-size="13" lengthAdjust="spacing" textLength="4.1323" x="55" y="479.3247">&#160;</text><text fill="#000000" font-family="sans-serif" font-size="13" lengthAdjust="spacing" textLength="232.1655" x="55" y="494.4575">El usuario selecciona un entregable</text><text fill="#000000" font-family="sans-serif" font-size="13" lengthAdjust="spacing" textLength="232.8193" x="55" y="509.5903">concreto para ver m&#225;s informaci&#243;n.</text></g><!--link VerDetalleEnt to *end*verEstadoEntregable--><g class="link" data-entity-1="VerDetalleEnt" data-entity-2=".end.verEstadoEntregable" data-source-line="33" data-uid="lnk7" id="link_VerDetalleEnt_.end.verEstadoEntregable"><path d="M44,590.7338 C44,620.6138 44,664.1538 44,685.4038" fill="none" id="VerDetalleEnt-to-*end*verEstadoEntregable" style="stroke:#008000;stroke-width:1;"/><polygon fill="#008000" points="44,691.4038,48,682.4038,44,686.4038,40,682.4038,44,691.4038" style="stroke:#008000;stroke-width:1;"/><path d="M49,613.5938 L49,668.5938 L354,668.5938 L354,623.5938 L344,613.5938 L49,613.5938" fill="#FEFFDD" style="stroke:#181818;stroke-width:0.5;"/><path d="M344,613.5938 L344,623.5938 L354,623.5938 L344,613.5938" fill="#FEFFDD" style="stroke:#181818;stroke-width:0.5;"/><text fill="#000000" font-family="sans-serif" font-size="13" font-weight="bold" lengthAdjust="spacing" textLength="58.9063" x="55" y="630.6606">Sistema</text><text fill="#000000" font-family="sans-serif" font-size="13" lengthAdjust="spacing" textLength="221.5078" x="118.0386" y="630.6606">muestra el detalle del entregable,</text><text fill="#000000" font-family="sans-serif" font-size="13" lengthAdjust="spacing" textLength="278.5796" x="55" y="645.7935">incluyendo comentarios del Departamento</text><text fill="#000000" font-family="sans-serif" font-size="13" lengthAdjust="spacing" textLength="251.1069" x="55" y="660.9263">de Proyectos y el historial de cambios.</text></g><!--link PROYECTO_ABIERTO_INICIAL to verEstadoEntregable--><g class="link" data-entity-1="PROYECTO_ABIERTO_INICIAL" data-entity-2="verEstadoEntregable" data-source-line="7" data-uid="lnk2" id="link_PROYECTO_ABIERTO_INICIAL_verEstadoEntregable"><path d="M185,94.4469 C185,109.4769 185,124.5769 185,149.0169" fill="none" id="PROYECTO_ABIERTO_INICIAL-to-verEstadoEntregable" style="stroke:#008000;stroke-width:1;"/><polygon fill="#008000" points="185,155.0169,189,146.0169,185,150.0169,181,146.0169,185,155.0169" style="stroke:#008000;stroke-width:1;"/></g><!--link verEstadoEntregable to PROYECTO_ABIERTO_FINAL--><g class="link" data-entity-1="verEstadoEntregable" data-entity-2="PROYECTO_ABIERTO_FINAL" data-source-line="41" data-uid="lnk8" id="link_verEstadoEntregable_PROYECTO_ABIERTO_FINAL"><path d="M185,723.4069 C185,754.6569 185,775.7169 185,793.9169" fill="none" id="verEstadoEntregable-to-PROYECTO_ABIERTO_FINAL" style="stroke:#008000;stroke-width:1;"/><polygon fill="#008000" points="185,799.9169,189,790.9169,185,794.9169,181,790.9169,185,799.9169" style="stroke:#008000;stroke-width:1;"/><text fill="#000000" font-family="sans-serif" font-size="13" lengthAdjust="spacing" textLength="116.3589" x="186" y="766.3638">volverAProyecto()</text></g><!--SRC=[bLF1Qjj04BthAmRdOXSxkPTWS6CL124nRYcK4C9gDN6Mh7RDhcGgIZ-c7z1JFy4_rhSh1LkkTGW-M9gPD-_Dcr6bAitqZHsnhqHXgM1YKpdUY5npub-LsGedIjBASDLicRPMD-4bIG2ec5Rh- -_fpTVxfyMdB5tZFxlBRhB5BGbFezFaQ0ZqERi3X0P0oI39xE5YuvZDusnEEtPf728z3D3ndKb5gZFnyMH4FvC4MgZ5Zl13BJowLOYSpIov4bepkhJ8Xm-FFMaziB70MXCiVOs1wtoUcHqMe3QGugwMLc87F3iENb_byvOwB4ZMOKa2J_zPIKqi4xbZqWBbKghzNzDVhB-CHMoAgAOL_IRoLFdHS4Folm37fGWYgQmX6jf0hcExFdE45Anfwsp3ih8aqSpNtG76z7W5PIfuCALkCuMTqfhHr-DnCerbponVGBB_Kof8Qhht0rthboB-4UHTjbEcccfV2wSilD717Mi4rURux4CTL4d7a1VkFnmGbVlVdfHvjguKqTC14mz-zPp4JRpBFrXKj9sYNGTvxV3AI5qt80y6biY6aNmiNJ8qLo84RMSthJgtFNn2oGi8hLCYS90KPGxioJY_akJSPtCyqi1d_95sLWExU2CTJ_u1]--></g></svg>