<svg xmlns="http://www.w3.org/2000/svg" xmlns:xlink="http://www.w3.org/1999/xlink" contentStyleType="text/css" data-diagram-type="CLASS" height="857px" preserveAspectRatio="none" style="width:585px;height:857px;background:#FFFFFF;" version="1.1" viewBox="0 0 585 857" width="585px" zoomAndPan="magnify"><title>Sistema de gesti&#243;n de proyectos</title><defs/><g><g class="title" data-source-line="1"><text fill="#000000" font-family="sans-serif" font-size="14" font-weight="bold" lengthAdjust="spacing" textLength="259" x="156.2583" y="22.9951">Sistema de gesti&#243;n de proyectos</text></g><!--class Proyecto--><g class="entity" data-entity="Proyecto" data-source-line="4" data-uid="ent0002" id="entity_Proyecto"><rect fill="#FFAAAA" height="56.2656" rx="2.5" ry="2.5" style="stroke:#181818;stroke-width:0.5;" width="94.0293" x="155.64" y="419.2969"/><ellipse cx="170.64" cy="439.4297" fill="#ADD1B2" rx="11" ry="11" style="stroke:#181818;stroke-width:1;"/><path d="M173.6088,445.0703 Q173.0306,445.3672 172.39,445.5078 Q171.7494,445.6641 171.0463,445.6641 Q168.5463,445.6641 167.2181,444.0234 Q165.9056,442.3672 165.9056,439.2422 Q165.9056,436.1172 167.2181,434.4609 Q168.5463,432.8047 171.0463,432.8047 Q171.7494,432.8047 172.39,432.9609 Q173.0463,433.1172 173.6088,433.4141 L173.6088,436.1328 Q172.9838,435.5547 172.39,435.2891 Q171.7963,435.0078 171.1713,435.0078 Q169.8275,435.0078 169.14,436.0859 Q168.4525,437.1484 168.4525,439.2422 Q168.4525,441.3359 169.14,442.4141 Q169.8275,443.4766 171.1713,443.4766 Q171.7963,443.4766 172.39,443.2109 Q172.9838,442.9297 173.6088,442.3516 L173.6088,445.0703 Z " fill="#000000"/><text fill="#000000" font-family="sans-serif" font-size="12" font-style="italic" lengthAdjust="spacing" textLength="66.0293" x="182.64" y="435.4355">&#171;Principal&#187;</text><text fill="#000000" font-family="sans-serif" font-size="14" lengthAdjust="spacing" textLength="61.4141" x="184.9476" y="451.2607">Proyecto</text><line style="stroke:#181818;stroke-width:0.5;" x1="156.64" x2="248.6693" y1="459.5625" y2="459.5625"/><line style="stroke:#181818;stroke-width:0.5;" x1="156.64" x2="248.6693" y1="467.5625" y2="467.5625"/></g><!--class Convocatoria--><g class="entity" data-entity="Convocatoria" data-source-line="8" data-uid="ent0003" id="entity_Convocatoria"><rect fill="#F1F1F1" height="48" rx="2.5" ry="2.5" style="stroke:#181818;stroke-width:0.5;" width="124.6201" x="25.34" y="169.2969"/><ellipse cx="40.34" cy="185.2969" fill="#ADD1B2" rx="11" ry="11" style="stroke:#181818;stroke-width:1;"/><path d="M43.3088,190.9375 Q42.7306,191.2344 42.09,191.375 Q41.4494,191.5313 40.7463,191.5313 Q38.2463,191.5313 36.9181,189.8906 Q35.6056,188.2344 35.6056,185.1094 Q35.6056,181.9844 36.9181,180.3281 Q38.2463,178.6719 40.7463,178.6719 Q41.4494,178.6719 42.09,178.8281 Q42.7463,178.9844 43.3088,179.2813 L43.3088,182 Q42.6838,181.4219 42.09,181.1563 Q41.4963,180.875 40.8713,180.875 Q39.5275,180.875 38.84,181.9531 Q38.1525,183.0156 38.1525,185.1094 Q38.1525,187.2031 38.84,188.2813 Q39.5275,189.3438 40.8713,189.3438 Q41.4963,189.3438 42.09,189.0781 Q42.6838,188.7969 43.3088,188.2188 L43.3088,190.9375 Z " fill="#000000"/><text fill="#000000" font-family="sans-serif" font-size="14" lengthAdjust="spacing" textLength="92.6201" x="54.34" y="190.1436">Convocatoria</text><line style="stroke:#181818;stroke-width:0.5;" x1="26.34" x2="148.9601" y1="201.2969" y2="201.2969"/><line style="stroke:#181818;stroke-width:0.5;" x1="26.34" x2="148.9601" y1="209.2969" y2="209.2969"/></g><!--class Propuesta--><g class="entity" data-entity="Propuesta" data-source-line="12" data-uid="ent0004" id="entity_Propuesta"><rect fill="#F1F1F1" height="48" rx="2.5" ry="2.5" style="stroke:#181818;stroke-width:0.5;" width="102.499" x="44.4" y="294.2969"/><ellipse cx="59.4" cy="310.2969" fill="#ADD1B2" rx="11" ry="11" style="stroke:#181818;stroke-width:1;"/><path d="M62.3688,315.9375 Q61.7906,316.2344 61.15,316.375 Q60.5094,316.5313 59.8063,316.5313 Q57.3063,316.5313 55.9781,314.8906 Q54.6656,313.2344 54.6656,310.1094 Q54.6656,306.9844 55.9781,305.3281 Q57.3063,303.6719 59.8063,303.6719 Q60.5094,303.6719 61.15,303.8281 Q61.8063,303.9844 62.3688,304.2813 L62.3688,307 Q61.7438,306.4219 61.15,306.1563 Q60.5563,305.875 59.9313,305.875 Q58.5875,305.875 57.9,306.9531 Q57.2125,308.0156 57.2125,310.1094 Q57.2125,312.2031 57.9,313.2813 Q58.5875,314.3438 59.9313,314.3438 Q60.5563,314.3438 61.15,314.0781 Q61.7438,313.7969 62.3688,313.2188 L62.3688,315.9375 Z " fill="#000000"/><text fill="#000000" font-family="sans-serif" font-size="14" lengthAdjust="spacing" textLength="70.499" x="73.4" y="315.1436">Propuesta</text><line style="stroke:#181818;stroke-width:0.5;" x1="45.4" x2="145.899" y1="326.2969" y2="326.2969"/><line style="stroke:#181818;stroke-width:0.5;" x1="45.4" x2="145.899" y1="334.2969" y2="334.2969"/></g><!--class InvestigadorDocente--><g class="entity" data-entity="InvestigadorDocente" data-source-line="20" data-uid="ent0005" id="entity_InvestigadorDocente"><rect fill="#F1F1F1" height="48" rx="2.5" ry="2.5" style="stroke:#181818;stroke-width:0.5;" width="177.8789" x="113.71" y="677.5669"/><ellipse cx="128.71" cy="693.5669" fill="#ADD1B2" rx="11" ry="11" style="stroke:#181818;stroke-width:1;"/><path d="M131.6788,699.2075 Q131.1006,699.5044 130.46,699.645 Q129.8194,699.8013 129.1163,699.8013 Q126.6163,699.8013 125.2881,698.1606 Q123.9756,696.5044 123.9756,693.3794 Q123.9756,690.2544 125.2881,688.5981 Q126.6163,686.9419 129.1163,686.9419 Q129.8194,686.9419 130.46,687.0981 Q131.1163,687.2544 131.6788,687.5513 L131.6788,690.27 Q131.0538,689.6919 130.46,689.4263 Q129.8663,689.145 129.2413,689.145 Q127.8975,689.145 127.21,690.2231 Q126.5225,691.2856 126.5225,693.3794 Q126.5225,695.4731 127.21,696.5513 Q127.8975,697.6138 129.2413,697.6138 Q129.8663,697.6138 130.46,697.3481 Q131.0538,697.0669 131.6788,696.4888 L131.6788,699.2075 Z " fill="#000000"/><text fill="#000000" font-family="sans-serif" font-size="14" lengthAdjust="spacing" textLength="145.8789" x="142.71" y="698.4136">InvestigadorDocente</text><line style="stroke:#181818;stroke-width:0.5;" x1="114.71" x2="290.5889" y1="709.5669" y2="709.5669"/><line style="stroke:#181818;stroke-width:0.5;" x1="114.71" x2="290.5889" y1="717.5669" y2="717.5669"/></g><!--class Coordinador--><g class="entity" data-entity="Coordinador" data-source-line="24" data-uid="ent0006" id="entity_Coordinador"><rect fill="#F1F1F1" height="48" rx="2.5" ry="2.5" style="stroke:#181818;stroke-width:0.5;" width="118.0986" x="85.6" y="44.2969"/><ellipse cx="100.6" cy="60.2969" fill="#ADD1B2" rx="11" ry="11" style="stroke:#181818;stroke-width:1;"/><path d="M103.5688,65.9375 Q102.9906,66.2344 102.35,66.375 Q101.7094,66.5313 101.0063,66.5313 Q98.5063,66.5313 97.1781,64.8906 Q95.8656,63.2344 95.8656,60.1094 Q95.8656,56.9844 97.1781,55.3281 Q98.5063,53.6719 101.0063,53.6719 Q101.7094,53.6719 102.35,53.8281 Q103.0063,53.9844 103.5688,54.2813 L103.5688,57 Q102.9438,56.4219 102.35,56.1563 Q101.7563,55.875 101.1313,55.875 Q99.7875,55.875 99.1,56.9531 Q98.4125,58.0156 98.4125,60.1094 Q98.4125,62.2031 99.1,63.2813 Q99.7875,64.3438 101.1313,64.3438 Q101.7563,64.3438 102.35,64.0781 Q102.9438,63.7969 103.5688,63.2188 L103.5688,65.9375 Z " fill="#000000"/><text fill="#000000" font-family="sans-serif" font-size="14" lengthAdjust="spacing" textLength="86.0986" x="114.6" y="65.1436">Coordinador</text><line style="stroke:#181818;stroke-width:0.5;" x1="86.6" x2="202.6986" y1="76.2969" y2="76.2969"/><line style="stroke:#181818;stroke-width:0.5;" x1="86.6" x2="202.6986" y1="84.2969" y2="84.2969"/></g><!--class Colaborador--><g class="entity" data-entity="Colaborador" data-source-line="29" data-uid="ent0007" id="entity_Colaborador"><rect fill="#F1F1F1" height="48" rx="2.5" ry="2.5" style="stroke:#181818;stroke-width:0.5;" width="117.8047" x="255.75" y="294.2969"/><ellipse cx="270.75" cy="310.2969" fill="#ADD1B2" rx="11" ry="11" style="stroke:#181818;stroke-width:1;"/><path d="M273.7188,315.9375 Q273.1406,316.2344 272.5,316.375 Q271.8594,316.5313 271.1563,316.5313 Q268.6563,316.5313 267.3281,314.8906 Q266.0156,313.2344 266.0156,310.1094 Q266.0156,306.9844 267.3281,305.3281 Q268.6563,303.6719 271.1563,303.6719 Q271.8594,303.6719 272.5,303.8281 Q273.1563,303.9844 273.7188,304.2813 L273.7188,307 Q273.0938,306.4219 272.5,306.1563 Q271.9063,305.875 271.2813,305.875 Q269.9375,305.875 269.25,306.9531 Q268.5625,308.0156 268.5625,310.1094 Q268.5625,312.2031 269.25,313.2813 Q269.9375,314.3438 271.2813,314.3438 Q271.9063,314.3438 272.5,314.0781 Q273.0938,313.7969 273.7188,313.2188 L273.7188,315.9375 Z " fill="#000000"/><text fill="#000000" font-family="sans-serif" font-size="14" lengthAdjust="spacing" textLength="85.8047" x="284.75" y="315.1436">Colaborador</text><line style="stroke:#181818;stroke-width:0.5;" x1="256.75" x2="372.5547" y1="326.2969" y2="326.2969"/><line style="stroke:#181818;stroke-width:0.5;" x1="256.75" x2="372.5547" y1="334.2969" y2="334.2969"/></g><!--class CargaTrabajo--><g class="entity" data-entity="CargaTrabajo" data-source-line="38" data-uid="ent0008" id="entity_CargaTrabajo"><rect fill="#F1F1F1" height="48" rx="2.5" ry="2.5" style="stroke:#181818;stroke-width:0.5;" width="126.3838" x="139.46" y="802.5669"/><ellipse cx="154.46" cy="818.5669" fill="#ADD1B2" rx="11" ry="11" style="stroke:#181818;stroke-width:1;"/><path d="M157.4288,824.2075 Q156.8506,824.5044 156.21,824.645 Q155.5694,824.8013 154.8663,824.8013 Q152.3663,824.8013 151.0381,823.1606 Q149.7256,821.5044 149.7256,818.3794 Q149.7256,815.2544 151.0381,813.5981 Q152.3663,811.9419 154.8663,811.9419 Q155.5694,811.9419 156.21,812.0981 Q156.8663,812.2544 157.4288,812.5513 L157.4288,815.27 Q156.8038,814.6919 156.21,814.4263 Q155.6163,814.145 154.9913,814.145 Q153.6475,814.145 152.96,815.2231 Q152.2725,816.2856 152.2725,818.3794 Q152.2725,820.4731 152.96,821.5513 Q153.6475,822.6138 154.9913,822.6138 Q155.6163,822.6138 156.21,822.3481 Q156.8038,822.0669 157.4288,821.4888 L157.4288,824.2075 Z " fill="#000000"/><text fill="#000000" font-family="sans-serif" font-size="14" lengthAdjust="spacing" textLength="94.3838" x="168.46" y="823.4136">CargaTrabajo</text><line style="stroke:#181818;stroke-width:0.5;" x1="140.46" x2="264.8438" y1="834.5669" y2="834.5669"/><line style="stroke:#181818;stroke-width:0.5;" x1="140.46" x2="264.8438" y1="842.5669" y2="842.5669"/></g><!--class Entregables--><g class="entity" data-entity="Entregables" data-source-line="42" data-uid="ent0009" id="entity_Entregables"><rect fill="#F1F1F1" height="48" rx="2.5" ry="2.5" style="stroke:#181818;stroke-width:0.5;" width="115.7266" x="462.79" y="552.5669"/><ellipse cx="477.79" cy="568.5669" fill="#ADD1B2" rx="11" ry="11" style="stroke:#181818;stroke-width:1;"/><path d="M480.7588,574.2075 Q480.1806,574.5044 479.54,574.645 Q478.8994,574.8013 478.1963,574.8013 Q475.6963,574.8013 474.3681,573.1606 Q473.0556,571.5044 473.0556,568.3794 Q473.0556,565.2544 474.3681,563.5981 Q475.6963,561.9419 478.1963,561.9419 Q478.8994,561.9419 479.54,562.0981 Q480.1963,562.2544 480.7588,562.5513 L480.7588,565.27 Q480.1338,564.6919 479.54,564.4263 Q478.9463,564.145 478.3213,564.145 Q476.9775,564.145 476.29,565.2231 Q475.6025,566.2856 475.6025,568.3794 Q475.6025,570.4731 476.29,571.5513 Q476.9775,572.6138 478.3213,572.6138 Q478.9463,572.6138 479.54,572.3481 Q480.1338,572.0669 480.7588,571.4888 L480.7588,574.2075 Z " fill="#000000"/><text fill="#000000" font-family="sans-serif" font-size="14" lengthAdjust="spacing" textLength="83.7266" x="491.79" y="573.4136">Entregables</text><line style="stroke:#181818;stroke-width:0.5;" x1="463.79" x2="577.5166" y1="584.5669" y2="584.5669"/><line style="stroke:#181818;stroke-width:0.5;" x1="463.79" x2="577.5166" y1="592.5669" y2="592.5669"/></g><!--class Recompensa--><g class="entity" data-entity="Recompensa" data-source-line="46" data-uid="ent0010" id="entity_Recompensa"><rect fill="#F1F1F1" height="48" rx="2.5" ry="2.5" style="stroke:#181818;stroke-width:0.5;" width="122.4873" x="305.41" y="552.5669"/><ellipse cx="320.41" cy="568.5669" fill="#ADD1B2" rx="11" ry="11" style="stroke:#181818;stroke-width:1;"/><path d="M323.3787,574.2075 Q322.8006,574.5044 322.16,574.645 Q321.5194,574.8013 320.8162,574.8013 Q318.3162,574.8013 316.9881,573.1606 Q315.6756,571.5044 315.6756,568.3794 Q315.6756,565.2544 316.9881,563.5981 Q318.3162,561.9419 320.8162,561.9419 Q321.5194,561.9419 322.16,562.0981 Q322.8162,562.2544 323.3787,562.5513 L323.3787,565.27 Q322.7537,564.6919 322.16,564.4263 Q321.5662,564.145 320.9412,564.145 Q319.5975,564.145 318.91,565.2231 Q318.2225,566.2856 318.2225,568.3794 Q318.2225,570.4731 318.91,571.5513 Q319.5975,572.6138 320.9412,572.6138 Q321.5662,572.6138 322.16,572.3481 Q322.7537,572.0669 323.3787,571.4888 L323.3787,574.2075 Z " fill="#000000"/><text fill="#000000" font-family="sans-serif" font-size="14" lengthAdjust="spacing" textLength="90.4873" x="334.41" y="573.4136">Recompensa</text><line style="stroke:#181818;stroke-width:0.5;" x1="306.41" x2="426.8973" y1="584.5669" y2="584.5669"/><line style="stroke:#181818;stroke-width:0.5;" x1="306.41" x2="426.8973" y1="592.5669" y2="592.5669"/></g><!--link Convocatoria to Propuesta--><g class="link" data-entity-1="Convocatoria" data-entity-2="Propuesta" data-source-line="52" data-uid="lnk11" id="link_Convocatoria_Propuesta"><path codeLine="52" d="M89.17,217.7269 C90.6,239.6169 91.5432,254.1447 92.9632,276.0047" fill="none" id="Convocatoria-to-Propuesta" style="stroke:#181818;stroke-width:1;"/><polygon fill="none" points="94.13,293.9669,98.9506,275.6158,86.9758,276.3937,94.13,293.9669" style="stroke:#181818;stroke-width:1;"/><text fill="#000000" font-family="sans-serif" font-size="13" lengthAdjust="spacing" textLength="45.7983" x="93.65" y="260.3638">genera</text></g><!--link Propuesta to Proyecto--><g class="link" data-entity-1="Propuesta" data-entity-2="Proyecto" data-source-line="53" data-uid="lnk12" id="link_Propuesta_Proyecto"><path codeLine="53" d="M103.84,342.5669 C109.62,356.9769 118.36,375.3269 129.65,389.2969 C138.45,400.1969 135.4972,399.2188 146.5172,407.7988" fill="none" id="Propuesta-to-Proyecto" style="stroke:#181818;stroke-width:1;"/><polygon fill="none" points="160.72,418.8569,150.2032,403.0645,142.8312,412.5331,160.72,418.8569" style="stroke:#181818;stroke-width:1;"/><text fill="#000000" font-family="sans-serif" font-size="13" lengthAdjust="spacing" textLength="45.7983" x="130.65" y="385.3638">genera</text></g><!--link Proyecto to InvestigadorDocente--><g class="link" data-entity-1="Proyecto" data-entity-2="InvestigadorDocente" data-source-line="55" data-uid="lnk13" id="link_Proyecto_InvestigadorDocente"><path codeLine="55" d="M155.36,467.2169 C98.31,492.9069 13.79,542.5069 45.65,600.5669 C65.32,636.4069 93.0166,656.1492 127.0066,672.0992" fill="none" id="Proyecto-to-InvestigadorDocente" style="stroke:#181818;stroke-width:1;"/><polygon fill="none" points="137.87,677.1969,134.1375,671.0269,127.0066,672.0992,130.7391,678.2692,137.87,677.1969" style="stroke:#181818;stroke-width:1;"/><text fill="#000000" font-family="sans-serif" font-size="13" lengthAdjust="spacing" textLength="112.3599" x="46.65" y="581.1338">est&#225; formado por</text></g><!--link InvestigadorDocente to Proyecto--><g class="link" data-entity-1="InvestigadorDocente" data-entity-2="Proyecto" data-source-line="68" data-uid="lnk21" id="link_InvestigadorDocente_Proyecto"><path codeLine="68" d="M202.65,677.2169 C202.65,630.5069 202.65,537.7969 202.65,487.8969" fill="none" id="InvestigadorDocente-to-Proyecto" style="stroke:#181818;stroke-width:1;"/><polygon fill="none" points="202.65,475.8969,198.65,481.8969,202.65,487.8969,206.65,481.8969,202.65,475.8969" style="stroke:#181818;stroke-width:1;"/><text fill="#000000" font-family="sans-serif" font-size="13" lengthAdjust="spacing" textLength="66.5742" x="203.65" y="581.1338">trabaja en</text></g><!--link Proyecto to Entregables--><g class="link" data-entity-1="Proyecto" data-entity-2="Entregables" data-source-line="56" data-uid="lnk14" id="link_Proyecto_Entregables"><path codeLine="56" d="M250.06,466.7969 C278.65,477.9269 315.79,492.4469 348.65,505.5669 C387.13,520.9269 419.2039,533.9522 452.6839,547.6522" fill="none" id="Proyecto-to-Entregables" style="stroke:#181818;stroke-width:1;"/><polygon fill="#181818" points="463.79,552.1969,459.7518,546.2225,452.6839,547.6522,456.7221,553.6266,463.79,552.1969" style="stroke:#181818;stroke-width:1;"/><text fill="#000000" font-family="sans-serif" font-size="13" lengthAdjust="spacing" textLength="32.9443" x="386.65" y="518.6338">tiene</text></g><!--link Proyecto to CargaTrabajo--><g class="link" data-entity-1="Proyecto" data-entity-2="CargaTrabajo" data-source-line="57" data-uid="lnk15" id="link_Proyecto_CargaTrabajo"><path codeLine="57" d="M155.19,459.3569 C125.51,468.0469 87.88,482.6169 60.65,505.5669 C15.38,543.7169 20.99,571.7069 14.65,630.5669 C6,710.8669 82.9736,765.5841 141.5536,796.5841" fill="none" id="Proyecto-to-CargaTrabajo" style="stroke:#181818;stroke-width:1;"/><polygon fill="#181818" points="152.16,802.1969,148.7277,795.855,141.5536,796.5841,144.9858,802.9259,152.16,802.1969" style="stroke:#181818;stroke-width:1;"/><text fill="#000000" font-family="sans-serif" font-size="13" lengthAdjust="spacing" textLength="45.7983" x="15.65" y="643.6338">genera</text></g><!--link Proyecto to Recompensa--><g class="link" data-entity-1="Proyecto" data-entity-2="Recompensa" data-source-line="58" data-uid="lnk16" id="link_Proyecto_Recompensa"><path codeLine="58" d="M238.24,476.0169 C267.53,498.7369 299.1369,523.2236 326.8769,544.7336" fill="none" id="Proyecto-to-Recompensa" style="stroke:#181818;stroke-width:1;"/><polygon fill="#181818" points="336.36,552.0869,334.0696,545.2492,326.8769,544.7336,329.1674,551.5712,336.36,552.0869" style="stroke:#181818;stroke-width:1;"/><text fill="#000000" font-family="sans-serif" font-size="13" lengthAdjust="spacing" textLength="45.7983" x="294.65" y="518.6338">genera</text></g><!--link Coordinador to Proyecto--><g class="link" data-entity-1="Coordinador" data-entity-2="Proyecto" data-source-line="60" data-uid="lnk17" id="link_Coordinador_Proyecto"><path codeLine="60" d="M156.65,92.7669 C160.77,101.7869 165.01,112.3169 167.65,122.2969 C196.01,229.5469 201.2475,350.5788 202.2475,407.0388" fill="none" id="Coordinador-to-Proyecto" style="stroke:#181818;stroke-width:1;"/><polygon fill="none" points="202.46,419.0369,206.3531,412.967,202.2475,407.0388,198.3544,413.1087,202.46,419.0369" style="stroke:#181818;stroke-width:1;"/><text fill="#000000" font-family="sans-serif" font-size="13" lengthAdjust="spacing" textLength="56.4688" x="193.65" y="260.3638">coordina</text></g><!--link Coordinador to Convocatoria--><g class="link" data-entity-1="Coordinador" data-entity-2="Convocatoria" data-source-line="61" data-uid="lnk18" id="link_Coordinador_Convocatoria"><path codeLine="61" d="M133.8,92.7269 C123.65,114.6169 113.6454,136.2191 103.5154,158.0791" fill="none" id="Coordinador-to-Convocatoria" style="stroke:#181818;stroke-width:1;"/><polygon fill="none" points="98.47,168.9669,104.622,165.2048,103.5154,158.0791,97.3635,161.8412,98.47,168.9669" style="stroke:#181818;stroke-width:1;"/><text fill="#000000" font-family="sans-serif" font-size="13" lengthAdjust="spacing" textLength="38.3779" x="120.65" y="135.3638">busca</text></g><!--link Colaborador to Proyecto--><g class="link" data-entity-1="Colaborador" data-entity-2="Proyecto" data-source-line="65" data-uid="lnk19" id="link_Colaborador_Proyecto"><path codeLine="65" d="M294.11,342.6169 C275.16,364.1269 254.9525,387.0627 234.8925,409.8327" fill="none" id="Colaborador-to-Proyecto" style="stroke:#181818;stroke-width:1;"/><polygon fill="none" points="226.96,418.8369,233.9277,416.979,234.8925,409.8327,227.9249,411.6906,226.96,418.8369" style="stroke:#181818;stroke-width:1;"/><text fill="#000000" font-family="sans-serif" font-size="13" lengthAdjust="spacing" textLength="107.4658" x="265.65" y="385.3638">puede participar</text></g><!--link InvestigadorDocente to CargaTrabajo--><g class="link" data-entity-1="InvestigadorDocente" data-entity-2="CargaTrabajo" data-source-line="67" data-uid="lnk20" id="link_InvestigadorDocente_CargaTrabajo"><path codeLine="67" d="M202.65,725.9869 C202.65,747.8769 202.65,774.3669 202.65,796.2269" fill="none" id="InvestigadorDocente-to-CargaTrabajo" style="stroke:#181818;stroke-width:1;"/><polygon fill="#181818" points="202.65,802.2269,206.65,793.2269,202.65,797.2269,198.65,793.2269,202.65,802.2269" style="stroke:#181818;stroke-width:1;"/><text fill="#000000" font-family="sans-serif" font-size="13" lengthAdjust="spacing" textLength="32.9443" x="203.65" y="768.6338">tiene</text></g><!--link Recompensa to InvestigadorDocente--><g class="link" data-entity-1="Recompensa" data-entity-2="InvestigadorDocente" data-source-line="70" data-uid="lnk22" id="link_Recompensa_InvestigadorDocente"><path codeLine="70" d="M312.52,601.0469 C296.37,609.2469 279.13,619.2769 264.65,630.5669 C247.5,643.9469 235.0308,657.782 223.5008,672.432" fill="none" id="Recompensa-to-InvestigadorDocente" style="stroke:#181818;stroke-width:1;"/><polygon fill="#181818" points="219.79,677.1469,228.4994,672.5484,222.8823,673.2178,222.2129,667.6007,219.79,677.1469" style="stroke:#181818;stroke-width:1;"/><text fill="#000000" font-family="sans-serif" font-size="13" lengthAdjust="spacing" textLength="71.5" x="265.65" y="643.6338">beneficia a</text></g><!--link Recompensa to CargaTrabajo--><g class="link" data-entity-1="Recompensa" data-entity-2="CargaTrabajo" data-source-line="71" data-uid="lnk23" id="link_Recompensa_CargaTrabajo"><path codeLine="71" d="M361.12,600.9969 C353.1,631.6269 336.14,686.0269 308.65,725.5669 C287.86,755.4869 261.5846,779.6131 238.4946,798.2931" fill="none" id="Recompensa-to-CargaTrabajo" style="stroke:#181818;stroke-width:1;"/><polygon fill="#181818" points="233.83,802.0669,243.3428,799.516,237.7172,798.9221,238.3111,793.2965,233.83,802.0669" style="stroke:#181818;stroke-width:1;"/><text fill="#000000" font-family="sans-serif" font-size="13" lengthAdjust="spacing" textLength="90.8096" x="334.65" y="706.1338">puede reducir</text></g><!--SRC=[RL9RQiCm4FpNAHRwL_05J32Kj87-XRONMCiRe-9epKeEbBQ7wHbwX5oiyYEIajfVOdPsD3EMDxwZ4bwDytH4Q0XQSjwSV-ruxeK_I7jsIYdTeNEmNn3ORFPYh3OzTbK5TxlTG_W-bVg-CBTiJwpHinZCyQ3G3-6E1LHH-jcUngjRR5WUMPFrTAt7qXWxJfVD2zvXpPBXINABqkARO8tld6izMI_KOjsHo-4NqdpioRheBGy1HV5L9VjbQCgIe8f894mDnRcAdHK5hwKi8I3d7pYm70CCFKk-Sv_RBS6R87izpsFcjX8Z9Kksia8dPycuNYR_A7aT9TI3qpYt57_1ZL8ePdn6ADwCJqMKMiaVTggR37F8TMwkxwS51B9AfOoJu6hHTP0z12i8UCk_DZ0R5se6RUGF]--></g></svg>