<svg xmlns="http://www.w3.org/2000/svg" xmlns:xlink="http://www.w3.org/1999/xlink" contentStyleType="text/css" data-diagram-type="CLASS" height="482px" preserveAspectRatio="none" style="width:505px;height:482px;background:#FFFFFF;" version="1.1" viewBox="0 0 505 482" width="505px" zoomAndPan="magnify"><title>Sistema de red de investigadores</title><defs/><g><g class="title" data-source-line="1"><text fill="#000000" font-family="sans-serif" font-size="14" font-weight="bold" lengthAdjust="spacing" textLength="265.4395" x="112.8236" y="22.9951">Sistema de red de investigadores</text></g><!--class InvestigadorDocente--><g class="entity" data-entity="InvestigadorDocente" data-source-line="3" data-uid="ent0002" id="entity_InvestigadorDocente"><rect fill="#FFAAAA" height="56.2656" rx="2.5" ry="2.5" style="stroke:#181818;stroke-width:0.5;" width="177.8789" x="81.77" y="169.2969"/><ellipse cx="96.77" cy="189.4297" fill="#ADD1B2" rx="11" ry="11" style="stroke:#181818;stroke-width:1;"/><path d="M99.7388,195.0703 Q99.1606,195.3672 98.52,195.5078 Q97.8794,195.6641 97.1763,195.6641 Q94.6763,195.6641 93.3481,194.0234 Q92.0356,192.3672 92.0356,189.2422 Q92.0356,186.1172 93.3481,184.4609 Q94.6763,182.8047 97.1763,182.8047 Q97.8794,182.8047 98.52,182.9609 Q99.1763,183.1172 99.7388,183.4141 L99.7388,186.1328 Q99.1138,185.5547 98.52,185.2891 Q97.9263,185.0078 97.3013,185.0078 Q95.9575,185.0078 95.27,186.0859 Q94.5825,187.1484 94.5825,189.2422 Q94.5825,191.3359 95.27,192.4141 Q95.9575,193.4766 97.3013,193.4766 Q97.9263,193.4766 98.52,193.2109 Q99.1138,192.9297 99.7388,192.3516 L99.7388,195.0703 Z " fill="#000000"/><text fill="#000000" font-family="sans-serif" font-size="12" font-style="italic" lengthAdjust="spacing" textLength="66.0293" x="150.6948" y="185.4355">&#171;Principal&#187;</text><text fill="#000000" font-family="sans-serif" font-size="14" lengthAdjust="spacing" textLength="145.8789" x="110.77" y="201.2607">InvestigadorDocente</text><line style="stroke:#181818;stroke-width:0.5;" x1="82.77" x2="258.6489" y1="209.5625" y2="209.5625"/><line style="stroke:#181818;stroke-width:0.5;" x1="82.77" x2="258.6489" y1="217.5625" y2="217.5625"/></g><!--class Proyecto--><g class="entity" data-entity="Proyecto" data-source-line="6" data-uid="ent0003" id="entity_Proyecto"><rect fill="#F1F1F1" height="48" rx="2.5" ry="2.5" style="stroke:#181818;stroke-width:0.5;" width="93.4141" x="7" y="302.5669"/><ellipse cx="22" cy="318.5669" fill="#ADD1B2" rx="11" ry="11" style="stroke:#181818;stroke-width:1;"/><path d="M24.9688,324.2075 Q24.3906,324.5044 23.75,324.645 Q23.1094,324.8013 22.4063,324.8013 Q19.9063,324.8013 18.5781,323.1606 Q17.2656,321.5044 17.2656,318.3794 Q17.2656,315.2544 18.5781,313.5981 Q19.9063,311.9419 22.4063,311.9419 Q23.1094,311.9419 23.75,312.0981 Q24.4063,312.2544 24.9688,312.5513 L24.9688,315.27 Q24.3438,314.6919 23.75,314.4263 Q23.1563,314.145 22.5313,314.145 Q21.1875,314.145 20.5,315.2231 Q19.8125,316.2856 19.8125,318.3794 Q19.8125,320.4731 20.5,321.5513 Q21.1875,322.6138 22.5313,322.6138 Q23.1563,322.6138 23.75,322.3481 Q24.3438,322.0669 24.9688,321.4888 L24.9688,324.2075 Z " fill="#000000"/><text fill="#000000" font-family="sans-serif" font-size="14" lengthAdjust="spacing" textLength="61.4141" x="36" y="323.4136">Proyecto</text><line style="stroke:#181818;stroke-width:0.5;" x1="8" x2="99.4141" y1="334.5669" y2="334.5669"/><line style="stroke:#181818;stroke-width:0.5;" x1="8" x2="99.4141" y1="342.5669" y2="342.5669"/></g><!--class Coordinador--><g class="entity" data-entity="Coordinador" data-source-line="9" data-uid="ent0004" id="entity_Coordinador"><rect fill="#F1F1F1" height="48" rx="2.5" ry="2.5" style="stroke:#181818;stroke-width:0.5;" width="118.0986" x="111.66" y="44.2969"/><ellipse cx="126.66" cy="60.2969" fill="#ADD1B2" rx="11" ry="11" style="stroke:#181818;stroke-width:1;"/><path d="M129.6288,65.9375 Q129.0506,66.2344 128.41,66.375 Q127.7694,66.5313 127.0663,66.5313 Q124.5663,66.5313 123.2381,64.8906 Q121.9256,63.2344 121.9256,60.1094 Q121.9256,56.9844 123.2381,55.3281 Q124.5663,53.6719 127.0663,53.6719 Q127.7694,53.6719 128.41,53.8281 Q129.0663,53.9844 129.6288,54.2813 L129.6288,57 Q129.0038,56.4219 128.41,56.1563 Q127.8163,55.875 127.1913,55.875 Q125.8475,55.875 125.16,56.9531 Q124.4725,58.0156 124.4725,60.1094 Q124.4725,62.2031 125.16,63.2813 Q125.8475,64.3438 127.1913,64.3438 Q127.8163,64.3438 128.41,64.0781 Q129.0038,63.7969 129.6288,63.2188 L129.6288,65.9375 Z " fill="#000000"/><text fill="#000000" font-family="sans-serif" font-size="14" lengthAdjust="spacing" textLength="86.0986" x="140.66" y="65.1436">Coordinador</text><line style="stroke:#181818;stroke-width:0.5;" x1="112.66" x2="228.7586" y1="76.2969" y2="76.2969"/><line style="stroke:#181818;stroke-width:0.5;" x1="112.66" x2="228.7586" y1="84.2969" y2="84.2969"/></g><!--class CargaTrabajo--><g class="entity" data-entity="CargaTrabajo" data-source-line="12" data-uid="ent0005" id="entity_CargaTrabajo"><rect fill="#F1F1F1" height="48" rx="2.5" ry="2.5" style="stroke:#181818;stroke-width:0.5;" width="126.3838" x="49.52" y="427.5669"/><ellipse cx="64.52" cy="443.5669" fill="#ADD1B2" rx="11" ry="11" style="stroke:#181818;stroke-width:1;"/><path d="M67.4888,449.2075 Q66.9106,449.5044 66.27,449.645 Q65.6294,449.8013 64.9263,449.8013 Q62.4263,449.8013 61.0981,448.1606 Q59.7856,446.5044 59.7856,443.3794 Q59.7856,440.2544 61.0981,438.5981 Q62.4263,436.9419 64.9263,436.9419 Q65.6294,436.9419 66.27,437.0981 Q66.9263,437.2544 67.4888,437.5513 L67.4888,440.27 Q66.8638,439.6919 66.27,439.4263 Q65.6763,439.145 65.0513,439.145 Q63.7075,439.145 63.02,440.2231 Q62.3325,441.2856 62.3325,443.3794 Q62.3325,445.4731 63.02,446.5513 Q63.7075,447.6138 65.0513,447.6138 Q65.6763,447.6138 66.27,447.3481 Q66.8638,447.0669 67.4888,446.4888 L67.4888,449.2075 Z " fill="#000000"/><text fill="#000000" font-family="sans-serif" font-size="14" lengthAdjust="spacing" textLength="94.3838" x="78.52" y="448.4136">CargaTrabajo</text><line style="stroke:#181818;stroke-width:0.5;" x1="50.52" x2="174.9038" y1="459.5669" y2="459.5669"/><line style="stroke:#181818;stroke-width:0.5;" x1="50.52" x2="174.9038" y1="467.5669" y2="467.5669"/></g><!--class PerfilInvestigador--><g class="entity" data-entity="PerfilInvestigador" data-source-line="15" data-uid="ent0006" id="entity_PerfilInvestigador"><rect fill="#F1F1F1" height="48" rx="2.5" ry="2.5" style="stroke:#181818;stroke-width:0.5;" width="154.7666" x="343.32" y="302.5669"/><ellipse cx="358.32" cy="318.5669" fill="#ADD1B2" rx="11" ry="11" style="stroke:#181818;stroke-width:1;"/><path d="M361.2888,324.2075 Q360.7106,324.5044 360.07,324.645 Q359.4294,324.8013 358.7263,324.8013 Q356.2263,324.8013 354.8981,323.1606 Q353.5856,321.5044 353.5856,318.3794 Q353.5856,315.2544 354.8981,313.5981 Q356.2263,311.9419 358.7263,311.9419 Q359.4294,311.9419 360.07,312.0981 Q360.7263,312.2544 361.2888,312.5513 L361.2888,315.27 Q360.6638,314.6919 360.07,314.4263 Q359.4763,314.145 358.8513,314.145 Q357.5075,314.145 356.82,315.2231 Q356.1325,316.2856 356.1325,318.3794 Q356.1325,320.4731 356.82,321.5513 Q357.5075,322.6138 358.8513,322.6138 Q359.4763,322.6138 360.07,322.3481 Q360.6638,322.0669 361.2888,321.4888 L361.2888,324.2075 Z " fill="#000000"/><text fill="#000000" font-family="sans-serif" font-size="14" lengthAdjust="spacing" textLength="122.7666" x="372.32" y="323.4136">PerfilInvestigador</text><line style="stroke:#181818;stroke-width:0.5;" x1="344.32" x2="497.0866" y1="334.5669" y2="334.5669"/><line style="stroke:#181818;stroke-width:0.5;" x1="344.32" x2="497.0866" y1="342.5669" y2="342.5669"/></g><!--link InvestigadorDocente to Proyecto--><g class="link" data-entity-1="InvestigadorDocente" data-entity-2="Proyecto" data-source-line="19" data-uid="lnk7" id="link_InvestigadorDocente_Proyecto"><path codeLine="19" d="M98.89,226.0469 C86.18,233.8569 74.28,243.5869 65.71,255.5669 C56.09,269.0069 53.4633,281.5607 52.9433,296.1807" fill="none" id="InvestigadorDocente-to-Proyecto" style="stroke:#181818;stroke-width:1;"/><polygon fill="#181818" points="52.73,302.1769,57.0474,293.3247,52.9077,297.18,49.0524,293.0404,52.73,302.1769" style="stroke:#181818;stroke-width:1;"/><text fill="#000000" font-family="sans-serif" font-size="13" lengthAdjust="spacing" textLength="77.6191" x="66.71" y="268.6338">participa en</text></g><!--link InvestigadorDocente to CargaTrabajo--><g class="link" data-entity-1="InvestigadorDocente" data-entity-2="CargaTrabajo" data-source-line="20" data-uid="lnk8" id="link_InvestigadorDocente_CargaTrabajo"><path codeLine="20" d="M170.07,225.9069 C168.45,265.0269 162.75,338.5569 142.71,397.5669 C139.24,407.7769 136.8434,413.1138 131.5234,422.0338" fill="none" id="InvestigadorDocente-to-CargaTrabajo" style="stroke:#181818;stroke-width:1;"/><polygon fill="#181818" points="128.45,427.1869,136.4955,421.5061,131.0111,422.8926,129.6247,417.4083,128.45,427.1869" style="stroke:#181818;stroke-width:1;"/><text fill="#000000" font-family="sans-serif" font-size="13" lengthAdjust="spacing" textLength="136.9126" x="164.71" y="331.1338">tiene carga asignada</text></g><!--reverse link InvestigadorDocente to PerfilInvestigador--><g class="link" data-entity-1="InvestigadorDocente" data-entity-2="PerfilInvestigador" data-source-line="21" data-uid="lnk9" id="link_InvestigadorDocente_PerfilInvestigador"><path codeLine="21" d="M235.646,231.4571 C280.316,254.1771 332.25,280.5769 374.54,302.0869" fill="none" id="InvestigadorDocente-backto-PerfilInvestigador" style="stroke:#181818;stroke-width:1;"/><polygon fill="#181818" points="224.95,226.0169,228.4846,232.3023,235.646,231.4571,232.1114,225.1716,224.95,226.0169" style="stroke:#181818;stroke-width:1;"/><text fill="#000000" font-family="sans-serif" font-size="13" lengthAdjust="spacing" textLength="32.9443" x="311.71" y="268.6338">tiene</text></g><!--link InvestigadorDocente to InvestigadorDocente--><g class="link" data-entity-1="InvestigadorDocente" data-entity-2="InvestigadorDocente" data-source-line="22" data-uid="lnk10" id="link_InvestigadorDocente_InvestigadorDocente"><path codeLine="22" d="M260.11,185.2569 C280.08,186.3769 294.65,190.4369 294.65,197.4369 C294.65,204.4269 286.0706,208.1509 266.1006,209.2709" fill="none" id="InvestigadorDocente-to-InvestigadorDocente" style="stroke:#181818;stroke-width:1;"/><polygon fill="#181818" points="260.11,209.6069,269.3199,213.0966,265.1022,209.3269,268.8719,205.1092,260.11,209.6069" style="stroke:#181818;stroke-width:1;"/><text fill="#000000" font-family="sans-serif" font-size="13" lengthAdjust="spacing" textLength="94.1802" x="300.65" y="202.0038">interact&#250;a con</text></g><!--link Proyecto to CargaTrabajo--><g class="link" data-entity-1="Proyecto" data-entity-2="CargaTrabajo" data-source-line="24" data-uid="lnk11" id="link_Proyecto_CargaTrabajo"><path codeLine="24" d="M64.94,350.9869 C75.44,372.8769 88.4362,399.9565 98.9162,421.8165" fill="none" id="Proyecto-to-CargaTrabajo" style="stroke:#181818;stroke-width:1;"/><polygon fill="#181818" points="101.51,427.2269,101.2262,417.3821,99.3485,422.7182,94.0124,420.8405,101.51,427.2269" style="stroke:#181818;stroke-width:1;"/><text fill="#000000" font-family="sans-serif" font-size="13" lengthAdjust="spacing" textLength="45.7983" x="88.71" y="393.6338">genera</text></g><!--link Coordinador to InvestigadorDocente--><g class="link" data-entity-1="Coordinador" data-entity-2="InvestigadorDocente" data-source-line="26" data-uid="lnk12" id="link_Coordinador_InvestigadorDocente"><path codeLine="26" d="M170.71,92.6169 C170.71,114.1269 170.71,140.0669 170.71,162.8369" fill="none" id="Coordinador-to-InvestigadorDocente" style="stroke:#181818;stroke-width:1;"/><polygon fill="#181818" points="170.71,168.8369,174.71,159.8369,170.71,163.8369,166.71,159.8369,170.71,168.8369" style="stroke:#181818;stroke-width:1;"/><text fill="#000000" font-family="sans-serif" font-size="13" lengthAdjust="spacing" textLength="45.4048" x="171.71" y="135.3638">recluta</text></g><!--SRC=[TP5DQWCn38NtFeKWYq315nZ2G6a9P3SakO3gKGS5nmwo4YWb5-ks5wk6_is0nnl1a_JqILRMI73WedH6w0c4-Z5mkb5H7h3FGiMv4B4Ks4tKvnmeAS5cqmcdm1UCRGkhxVRH7hox-szJ9_cDWkQfzfIpz9n6dvcCCk1Hy0LFi_AEv9NZTFftTkszXpr539mJ5GXPn4PX0Kku6gttxJzG0nSKvP4TA2tMpwWQKAP444OHiF1WMs2rzy7WAkG_3elZQdfZ7w8a6FJp0stDvDpV5XN4mVm5dPkUUTdQJXQlYby0]--></g></svg>