<svg xmlns="http://www.w3.org/2000/svg" xmlns:xlink="http://www.w3.org/1999/xlink" contentStyleType="text/css" data-diagram-type="CLASS" height="857px" preserveAspectRatio="none" style="width:640px;height:857px;background:#FFFFFF;" version="1.1" viewBox="0 0 640 857" width="640px" zoomAndPan="magnify"><title>Sistema de gesti&#243;n de proyectos</title><defs/><g><g class="title" data-source-line="1"><text fill="#000000" font-family="sans-serif" font-size="14" font-weight="bold" lengthAdjust="spacing" textLength="259" x="183.7749" y="22.9951">Sistema de gesti&#243;n de proyectos</text></g><!--class Proyecto--><g class="entity" data-entity="Proyecto" data-source-line="4" data-uid="ent0002" id="entity_Proyecto"><rect fill="#FFAAAA" height="56.2656" rx="2.5" ry="2.5" style="stroke:#181818;stroke-width:0.5;" width="94.0293" x="262.18" y="419.2969"/><ellipse cx="277.18" cy="439.4297" fill="#ADD1B2" rx="11" ry="11" style="stroke:#181818;stroke-width:1;"/><path d="M280.1488,445.0703 Q279.5706,445.3672 278.93,445.5078 Q278.2894,445.6641 277.5863,445.6641 Q275.0863,445.6641 273.7581,444.0234 Q272.4456,442.3672 272.4456,439.2422 Q272.4456,436.1172 273.7581,434.4609 Q275.0863,432.8047 277.5863,432.8047 Q278.2894,432.8047 278.93,432.9609 Q279.5863,433.1172 280.1488,433.4141 L280.1488,436.1328 Q279.5238,435.5547 278.93,435.2891 Q278.3363,435.0078 277.7113,435.0078 Q276.3675,435.0078 275.68,436.0859 Q274.9925,437.1484 274.9925,439.2422 Q274.9925,441.3359 275.68,442.4141 Q276.3675,443.4766 277.7113,443.4766 Q278.3363,443.4766 278.93,443.2109 Q279.5238,442.9297 280.1488,442.3516 L280.1488,445.0703 Z " fill="#000000"/><text fill="#000000" font-family="sans-serif" font-size="12" font-style="italic" lengthAdjust="spacing" textLength="66.0293" x="289.18" y="435.4355">&#171;Principal&#187;</text><text fill="#000000" font-family="sans-serif" font-size="14" lengthAdjust="spacing" textLength="61.4141" x="291.4876" y="451.2607">Proyecto</text><line style="stroke:#181818;stroke-width:0.5;" x1="263.18" x2="355.2093" y1="459.5625" y2="459.5625"/><line style="stroke:#181818;stroke-width:0.5;" x1="263.18" x2="355.2093" y1="467.5625" y2="467.5625"/></g><!--class Convocatoria--><g class="entity" data-entity="Convocatoria" data-source-line="8" data-uid="ent0003" id="entity_Convocatoria"><rect fill="#F1F1F1" height="48" rx="2.5" ry="2.5" style="stroke:#181818;stroke-width:0.5;" width="124.6201" x="252.88" y="169.2969"/><ellipse cx="267.88" cy="185.2969" fill="#ADD1B2" rx="11" ry="11" style="stroke:#181818;stroke-width:1;"/><path d="M270.8488,190.9375 Q270.2706,191.2344 269.63,191.375 Q268.9894,191.5313 268.2863,191.5313 Q265.7863,191.5313 264.4581,189.8906 Q263.1456,188.2344 263.1456,185.1094 Q263.1456,181.9844 264.4581,180.3281 Q265.7863,178.6719 268.2863,178.6719 Q268.9894,178.6719 269.63,178.8281 Q270.2863,178.9844 270.8488,179.2813 L270.8488,182 Q270.2238,181.4219 269.63,181.1563 Q269.0363,180.875 268.4113,180.875 Q267.0675,180.875 266.38,181.9531 Q265.6925,183.0156 265.6925,185.1094 Q265.6925,187.2031 266.38,188.2813 Q267.0675,189.3438 268.4113,189.3438 Q269.0363,189.3438 269.63,189.0781 Q270.2238,188.7969 270.8488,188.2188 L270.8488,190.9375 Z " fill="#000000"/><text fill="#000000" font-family="sans-serif" font-size="14" lengthAdjust="spacing" textLength="92.6201" x="281.88" y="190.1436">Convocatoria</text><line style="stroke:#181818;stroke-width:0.5;" x1="253.88" x2="376.5001" y1="201.2969" y2="201.2969"/><line style="stroke:#181818;stroke-width:0.5;" x1="253.88" x2="376.5001" y1="209.2969" y2="209.2969"/></g><!--class Propuesta--><g class="entity" data-entity="Propuesta" data-source-line="12" data-uid="ent0004" id="entity_Propuesta"><rect fill="#F1F1F1" height="48" rx="2.5" ry="2.5" style="stroke:#181818;stroke-width:0.5;" width="102.499" x="257.94" y="294.2969"/><ellipse cx="272.94" cy="310.2969" fill="#ADD1B2" rx="11" ry="11" style="stroke:#181818;stroke-width:1;"/><path d="M275.9088,315.9375 Q275.3306,316.2344 274.69,316.375 Q274.0494,316.5313 273.3463,316.5313 Q270.8463,316.5313 269.5181,314.8906 Q268.2056,313.2344 268.2056,310.1094 Q268.2056,306.9844 269.5181,305.3281 Q270.8463,303.6719 273.3463,303.6719 Q274.0494,303.6719 274.69,303.8281 Q275.3463,303.9844 275.9088,304.2813 L275.9088,307 Q275.2838,306.4219 274.69,306.1563 Q274.0963,305.875 273.4713,305.875 Q272.1275,305.875 271.44,306.9531 Q270.7525,308.0156 270.7525,310.1094 Q270.7525,312.2031 271.44,313.2813 Q272.1275,314.3438 273.4713,314.3438 Q274.0963,314.3438 274.69,314.0781 Q275.2838,313.7969 275.9088,313.2188 L275.9088,315.9375 Z " fill="#000000"/><text fill="#000000" font-family="sans-serif" font-size="14" lengthAdjust="spacing" textLength="70.499" x="286.94" y="315.1436">Propuesta</text><line style="stroke:#181818;stroke-width:0.5;" x1="258.94" x2="359.439" y1="326.2969" y2="326.2969"/><line style="stroke:#181818;stroke-width:0.5;" x1="258.94" x2="359.439" y1="334.2969" y2="334.2969"/></g><!--class InvestigadorDocente--><g class="entity" data-entity="InvestigadorDocente" data-source-line="20" data-uid="ent0005" id="entity_InvestigadorDocente"><rect fill="#F1F1F1" height="48" rx="2.5" ry="2.5" style="stroke:#181818;stroke-width:0.5;" width="177.8789" x="221.25" y="677.5669"/><ellipse cx="236.25" cy="693.5669" fill="#ADD1B2" rx="11" ry="11" style="stroke:#181818;stroke-width:1;"/><path d="M239.2188,699.2075 Q238.6406,699.5044 238,699.645 Q237.3594,699.8013 236.6563,699.8013 Q234.1563,699.8013 232.8281,698.1606 Q231.5156,696.5044 231.5156,693.3794 Q231.5156,690.2544 232.8281,688.5981 Q234.1563,686.9419 236.6563,686.9419 Q237.3594,686.9419 238,687.0981 Q238.6563,687.2544 239.2188,687.5513 L239.2188,690.27 Q238.5938,689.6919 238,689.4263 Q237.4063,689.145 236.7813,689.145 Q235.4375,689.145 234.75,690.2231 Q234.0625,691.2856 234.0625,693.3794 Q234.0625,695.4731 234.75,696.5513 Q235.4375,697.6138 236.7813,697.6138 Q237.4063,697.6138 238,697.3481 Q238.5938,697.0669 239.2188,696.4888 L239.2188,699.2075 Z " fill="#000000"/><text fill="#000000" font-family="sans-serif" font-size="14" lengthAdjust="spacing" textLength="145.8789" x="250.25" y="698.4136">InvestigadorDocente</text><line style="stroke:#181818;stroke-width:0.5;" x1="222.25" x2="398.1289" y1="709.5669" y2="709.5669"/><line style="stroke:#181818;stroke-width:0.5;" x1="222.25" x2="398.1289" y1="717.5669" y2="717.5669"/></g><!--class Coordinador--><g class="entity" data-entity="Coordinador" data-source-line="24" data-uid="ent0006" id="entity_Coordinador"><rect fill="#F1F1F1" height="48" rx="2.5" ry="2.5" style="stroke:#181818;stroke-width:0.5;" width="118.0986" x="170.14" y="44.2969"/><ellipse cx="185.14" cy="60.2969" fill="#ADD1B2" rx="11" ry="11" style="stroke:#181818;stroke-width:1;"/><path d="M188.1088,65.9375 Q187.5306,66.2344 186.89,66.375 Q186.2494,66.5313 185.5463,66.5313 Q183.0463,66.5313 181.7181,64.8906 Q180.4056,63.2344 180.4056,60.1094 Q180.4056,56.9844 181.7181,55.3281 Q183.0463,53.6719 185.5463,53.6719 Q186.2494,53.6719 186.89,53.8281 Q187.5463,53.9844 188.1088,54.2813 L188.1088,57 Q187.4838,56.4219 186.89,56.1563 Q186.2963,55.875 185.6713,55.875 Q184.3275,55.875 183.64,56.9531 Q182.9525,58.0156 182.9525,60.1094 Q182.9525,62.2031 183.64,63.2813 Q184.3275,64.3438 185.6713,64.3438 Q186.2963,64.3438 186.89,64.0781 Q187.4838,63.7969 188.1088,63.2188 L188.1088,65.9375 Z " fill="#000000"/><text fill="#000000" font-family="sans-serif" font-size="14" lengthAdjust="spacing" textLength="86.0986" x="199.14" y="65.1436">Coordinador</text><line style="stroke:#181818;stroke-width:0.5;" x1="171.14" x2="287.2386" y1="76.2969" y2="76.2969"/><line style="stroke:#181818;stroke-width:0.5;" x1="171.14" x2="287.2386" y1="84.2969" y2="84.2969"/></g><!--class Colaborador--><g class="entity" data-entity="Colaborador" data-source-line="29" data-uid="ent0007" id="entity_Colaborador"><rect fill="#F1F1F1" height="48" rx="2.5" ry="2.5" style="stroke:#181818;stroke-width:0.5;" width="117.8047" x="395.29" y="294.2969"/><ellipse cx="410.29" cy="310.2969" fill="#ADD1B2" rx="11" ry="11" style="stroke:#181818;stroke-width:1;"/><path d="M413.2588,315.9375 Q412.6806,316.2344 412.04,316.375 Q411.3994,316.5313 410.6963,316.5313 Q408.1963,316.5313 406.8681,314.8906 Q405.5556,313.2344 405.5556,310.1094 Q405.5556,306.9844 406.8681,305.3281 Q408.1963,303.6719 410.6963,303.6719 Q411.3994,303.6719 412.04,303.8281 Q412.6963,303.9844 413.2588,304.2813 L413.2588,307 Q412.6338,306.4219 412.04,306.1563 Q411.4463,305.875 410.8213,305.875 Q409.4775,305.875 408.79,306.9531 Q408.1025,308.0156 408.1025,310.1094 Q408.1025,312.2031 408.79,313.2813 Q409.4775,314.3438 410.8213,314.3438 Q411.4463,314.3438 412.04,314.0781 Q412.6338,313.7969 413.2588,313.2188 L413.2588,315.9375 Z " fill="#000000"/><text fill="#000000" font-family="sans-serif" font-size="14" lengthAdjust="spacing" textLength="85.8047" x="424.29" y="315.1436">Colaborador</text><line style="stroke:#181818;stroke-width:0.5;" x1="396.29" x2="512.0947" y1="326.2969" y2="326.2969"/><line style="stroke:#181818;stroke-width:0.5;" x1="396.29" x2="512.0947" y1="334.2969" y2="334.2969"/></g><!--class CargaTrabajo--><g class="entity" data-entity="CargaTrabajo" data-source-line="38" data-uid="ent0008" id="entity_CargaTrabajo"><rect fill="#F1F1F1" height="48" rx="2.5" ry="2.5" style="stroke:#181818;stroke-width:0.5;" width="126.3838" x="7" y="802.5669"/><ellipse cx="22" cy="818.5669" fill="#ADD1B2" rx="11" ry="11" style="stroke:#181818;stroke-width:1;"/><path d="M24.9688,824.2075 Q24.3906,824.5044 23.75,824.645 Q23.1094,824.8013 22.4063,824.8013 Q19.9063,824.8013 18.5781,823.1606 Q17.2656,821.5044 17.2656,818.3794 Q17.2656,815.2544 18.5781,813.5981 Q19.9063,811.9419 22.4063,811.9419 Q23.1094,811.9419 23.75,812.0981 Q24.4063,812.2544 24.9688,812.5513 L24.9688,815.27 Q24.3438,814.6919 23.75,814.4263 Q23.1563,814.145 22.5313,814.145 Q21.1875,814.145 20.5,815.2231 Q19.8125,816.2856 19.8125,818.3794 Q19.8125,820.4731 20.5,821.5513 Q21.1875,822.6138 22.5313,822.6138 Q23.1563,822.6138 23.75,822.3481 Q24.3438,822.0669 24.9688,821.4888 L24.9688,824.2075 Z " fill="#000000"/><text fill="#000000" font-family="sans-serif" font-size="14" lengthAdjust="spacing" textLength="94.3838" x="36" y="823.4136">CargaTrabajo</text><line style="stroke:#181818;stroke-width:0.5;" x1="8" x2="132.3838" y1="834.5669" y2="834.5669"/><line style="stroke:#181818;stroke-width:0.5;" x1="8" x2="132.3838" y1="842.5669" y2="842.5669"/></g><!--class Entregables--><g class="entity" data-entity="Entregables" data-source-line="42" data-uid="ent0009" id="entity_Entregables"><rect fill="#F1F1F1" height="48" rx="2.5" ry="2.5" style="stroke:#181818;stroke-width:0.5;" width="115.7266" x="251.33" y="552.5669"/><ellipse cx="266.33" cy="568.5669" fill="#ADD1B2" rx="11" ry="11" style="stroke:#181818;stroke-width:1;"/><path d="M269.2988,574.2075 Q268.7206,574.5044 268.08,574.645 Q267.4394,574.8013 266.7363,574.8013 Q264.2363,574.8013 262.9081,573.1606 Q261.5956,571.5044 261.5956,568.3794 Q261.5956,565.2544 262.9081,563.5981 Q264.2363,561.9419 266.7363,561.9419 Q267.4394,561.9419 268.08,562.0981 Q268.7363,562.2544 269.2988,562.5513 L269.2988,565.27 Q268.6738,564.6919 268.08,564.4263 Q267.4863,564.145 266.8613,564.145 Q265.5175,564.145 264.83,565.2231 Q264.1425,566.2856 264.1425,568.3794 Q264.1425,570.4731 264.83,571.5513 Q265.5175,572.6138 266.8613,572.6138 Q267.4863,572.6138 268.08,572.3481 Q268.6738,572.0669 269.2988,571.4888 L269.2988,574.2075 Z " fill="#000000"/><text fill="#000000" font-family="sans-serif" font-size="14" lengthAdjust="spacing" textLength="83.7266" x="280.33" y="573.4136">Entregables</text><line style="stroke:#181818;stroke-width:0.5;" x1="252.33" x2="366.0566" y1="584.5669" y2="584.5669"/><line style="stroke:#181818;stroke-width:0.5;" x1="252.33" x2="366.0566" y1="592.5669" y2="592.5669"/></g><!--class Recompensa--><g class="entity" data-entity="Recompensa" data-source-line="46" data-uid="ent0010" id="entity_Recompensa"><rect fill="#F1F1F1" height="48" rx="2.5" ry="2.5" style="stroke:#181818;stroke-width:0.5;" width="122.4873" x="93.95" y="552.5669"/><ellipse cx="108.95" cy="568.5669" fill="#ADD1B2" rx="11" ry="11" style="stroke:#181818;stroke-width:1;"/><path d="M111.9188,574.2075 Q111.3406,574.5044 110.7,574.645 Q110.0594,574.8013 109.3563,574.8013 Q106.8563,574.8013 105.5281,573.1606 Q104.2156,571.5044 104.2156,568.3794 Q104.2156,565.2544 105.5281,563.5981 Q106.8563,561.9419 109.3563,561.9419 Q110.0594,561.9419 110.7,562.0981 Q111.3563,562.2544 111.9188,562.5513 L111.9188,565.27 Q111.2938,564.6919 110.7,564.4263 Q110.1063,564.145 109.4813,564.145 Q108.1375,564.145 107.45,565.2231 Q106.7625,566.2856 106.7625,568.3794 Q106.7625,570.4731 107.45,571.5513 Q108.1375,572.6138 109.4813,572.6138 Q110.1063,572.6138 110.7,572.3481 Q111.2938,572.0669 111.9188,571.4888 L111.9188,574.2075 Z " fill="#000000"/><text fill="#000000" font-family="sans-serif" font-size="14" lengthAdjust="spacing" textLength="90.4873" x="122.95" y="573.4136">Recompensa</text><line style="stroke:#181818;stroke-width:0.5;" x1="94.95" x2="215.4373" y1="584.5669" y2="584.5669"/><line style="stroke:#181818;stroke-width:0.5;" x1="94.95" x2="215.4373" y1="592.5669" y2="592.5669"/></g><!--link Convocatoria to Propuesta--><g class="link" data-entity-1="Convocatoria" data-entity-2="Propuesta" data-source-line="52" data-uid="lnk11" id="link_Convocatoria_Propuesta"><path codeLine="52" d="M314.05,217.7269 C312.98,239.6169 311.6933,266.114 310.6233,287.974" fill="none" id="Convocatoria-to-Propuesta" style="stroke:#181818;stroke-width:1;"/><polygon fill="#181818" points="310.33,293.9669,314.7652,285.1732,310.5744,288.9729,306.7748,284.7821,310.33,293.9669" style="stroke:#181818;stroke-width:1;"/><text fill="#000000" font-family="sans-serif" font-size="13" lengthAdjust="spacing" textLength="45.7983" x="313.19" y="260.3638">genera</text></g><!--link Propuesta to Proyecto--><g class="link" data-entity-1="Propuesta" data-entity-2="Proyecto" data-source-line="53" data-uid="lnk12" id="link_Propuesta_Proyecto"><path codeLine="53" d="M309.19,342.6169 C309.19,364.1269 309.19,390.0669 309.19,412.8369" fill="none" id="Propuesta-to-Proyecto" style="stroke:#181818;stroke-width:1;"/><polygon fill="#181818" points="309.19,418.8369,313.19,409.8369,309.19,413.8369,305.19,409.8369,309.19,418.8369" style="stroke:#181818;stroke-width:1;"/><text fill="#000000" font-family="sans-serif" font-size="13" lengthAdjust="spacing" textLength="45.7983" x="310.19" y="385.3638">genera</text></g><!--link Proyecto to InvestigadorDocente--><g class="link" data-entity-1="Proyecto" data-entity-2="InvestigadorDocente" data-source-line="55" data-uid="lnk13" id="link_Proyecto_InvestigadorDocente"><path codeLine="55" d="M356.46,455.3369 C408.05,465.8769 486.83,491.6169 513.19,552.5669 C532.13,596.3569 504.02,622.8769 463.19,647.5669 C443.35,659.5669 431.7203,665.3557 409.7403,673.0857" fill="none" id="Proyecto-to-InvestigadorDocente" style="stroke:#181818;stroke-width:1;"/><polygon fill="none" points="398.42,677.0669,405.4072,678.8497,409.7403,673.0857,402.7531,671.3028,398.42,677.0669" style="stroke:#181818;stroke-width:1;"/><text fill="#000000" font-family="sans-serif" font-size="13" lengthAdjust="spacing" textLength="112.3599" x="520.19" y="581.1338">est&#225; formado por</text></g><!--link InvestigadorDocente to Proyecto--><g class="link" data-entity-1="InvestigadorDocente" data-entity-2="Proyecto" data-source-line="68" data-uid="lnk21" id="link_InvestigadorDocente_Proyecto"><path codeLine="68" d="M334.33,677.2469 C351.95,658.4369 374.38,630.3069 384.19,600.5669 C390.87,580.3069 390.62,572.9069 384.19,552.5669 C374.93,523.2469 361.8534,504.2271 344.3934,484.6771" fill="none" id="InvestigadorDocente-to-Proyecto" style="stroke:#181818;stroke-width:1;"/><polygon fill="none" points="336.4,475.7269,337.4133,482.8664,344.3934,484.6771,343.3801,477.5375,336.4,475.7269" style="stroke:#181818;stroke-width:1;"/><text fill="#000000" font-family="sans-serif" font-size="13" lengthAdjust="spacing" textLength="66.5742" x="389.19" y="581.1338">trabaja en</text></g><!--link Proyecto to Entregables--><g class="link" data-entity-1="Proyecto" data-entity-2="Entregables" data-source-line="56" data-uid="lnk14" id="link_Proyecto_Entregables"><path codeLine="56" d="M309.19,476.0169 C309.19,498.8069 309.19,518.7869 309.19,540.2969" fill="none" id="Proyecto-to-Entregables" style="stroke:#181818;stroke-width:1;"/><polygon fill="#181818" points="309.19,552.2969,313.19,546.2969,309.19,540.2969,305.19,546.2969,309.19,552.2969" style="stroke:#181818;stroke-width:1;"/><text fill="#000000" font-family="sans-serif" font-size="13" lengthAdjust="spacing" textLength="32.9443" x="310.19" y="518.6338">tiene</text></g><!--link Proyecto to CargaTrabajo--><g class="link" data-entity-1="Proyecto" data-entity-2="CargaTrabajo" data-source-line="57" data-uid="lnk15" id="link_Proyecto_CargaTrabajo"><path codeLine="57" d="M262.08,454.5469 C206.94,464.4869 117.86,489.8169 76.19,552.5669 C24.13,630.9569 46.0127,740.3479 59.8927,790.7279" fill="none" id="Proyecto-to-CargaTrabajo" style="stroke:#181818;stroke-width:1;"/><polygon fill="#181818" points="63.08,802.2969,65.3427,795.45,59.8927,790.7279,57.63,797.5748,63.08,802.2969" style="stroke:#181818;stroke-width:1;"/><text fill="#000000" font-family="sans-serif" font-size="13" lengthAdjust="spacing" textLength="45.7983" x="49.19" y="643.6338">genera</text></g><!--link Proyecto to Recompensa--><g class="link" data-entity-1="Proyecto" data-entity-2="Recompensa" data-source-line="58" data-uid="lnk16" id="link_Proyecto_Recompensa"><path codeLine="58" d="M275.78,476.0169 C248.26,498.7369 218.9332,522.9363 192.8832,544.4463" fill="none" id="Proyecto-to-Recompensa" style="stroke:#181818;stroke-width:1;"/><polygon fill="#181818" points="183.63,552.0869,190.8035,551.351,192.8832,544.4463,185.7098,545.1822,183.63,552.0869" style="stroke:#181818;stroke-width:1;"/><text fill="#000000" font-family="sans-serif" font-size="13" lengthAdjust="spacing" textLength="45.7983" x="238.19" y="518.6338">genera</text></g><!--link Coordinador to Proyecto--><g class="link" data-entity-1="Coordinador" data-entity-2="Proyecto" data-source-line="60" data-uid="lnk17" id="link_Coordinador_Proyecto"><path codeLine="60" d="M226.01,92.6869 C220.34,140.8069 211.59,253.8369 240.19,342.2969 C249.47,370.9869 261.4924,389.8635 277.4224,409.6835" fill="none" id="Coordinador-to-Proyecto" style="stroke:#181818;stroke-width:1;"/><polygon fill="none" points="284.94,419.0369,284.299,411.8543,277.4224,409.6835,278.0634,416.8661,284.94,419.0369" style="stroke:#181818;stroke-width:1;"/><text fill="#000000" font-family="sans-serif" font-size="13" lengthAdjust="spacing" textLength="56.4688" x="225.19" y="260.3638">coordina</text></g><!--link Coordinador to Convocatoria--><g class="link" data-entity-1="Coordinador" data-entity-2="Convocatoria" data-source-line="61" data-uid="lnk18" id="link_Coordinador_Convocatoria"><path codeLine="61" d="M245.57,92.7269 C260.87,114.6169 276.7151,137.2714 291.9951,159.1314" fill="none" id="Coordinador-to-Convocatoria" style="stroke:#181818;stroke-width:1;"/><polygon fill="none" points="298.87,168.9669,298.711,161.7575,291.9951,159.1314,292.1541,166.3408,298.87,168.9669" style="stroke:#181818;stroke-width:1;"/><text fill="#000000" font-family="sans-serif" font-size="13" lengthAdjust="spacing" textLength="38.3779" x="279.19" y="135.3638">busca</text></g><!--link Colaborador to Proyecto--><g class="link" data-entity-1="Colaborador" data-entity-2="Proyecto" data-source-line="65" data-uid="lnk19" id="link_Colaborador_Proyecto"><path codeLine="65" d="M427.6,342.6169 C403.07,364.1269 375.6514,388.154 349.6914,410.924" fill="none" id="Colaborador-to-Proyecto" style="stroke:#181818;stroke-width:1;"/><polygon fill="none" points="340.67,418.8369,347.8183,417.8876,349.6914,410.924,342.5431,411.8733,340.67,418.8369" style="stroke:#181818;stroke-width:1;"/><text fill="#000000" font-family="sans-serif" font-size="13" lengthAdjust="spacing" textLength="107.4658" x="391.19" y="385.3638">puede participar</text></g><!--link InvestigadorDocente to CargaTrabajo--><g class="link" data-entity-1="InvestigadorDocente" data-entity-2="CargaTrabajo" data-source-line="67" data-uid="lnk20" id="link_InvestigadorDocente_CargaTrabajo"><path codeLine="67" d="M264.48,725.9869 C221.78,747.8769 163.7195,777.6301 121.0695,799.4901" fill="none" id="InvestigadorDocente-to-CargaTrabajo" style="stroke:#181818;stroke-width:1;"/><polygon fill="#181818" points="115.73,802.2269,125.5637,801.6814,120.1796,799.9463,121.9148,794.5621,115.73,802.2269" style="stroke:#181818;stroke-width:1;"/><text fill="#000000" font-family="sans-serif" font-size="13" lengthAdjust="spacing" textLength="32.9443" x="206.19" y="768.6338">tiene</text></g><!--link Recompensa to InvestigadorDocente--><g class="link" data-entity-1="Recompensa" data-entity-2="InvestigadorDocente" data-source-line="70" data-uid="lnk22" id="link_Recompensa_InvestigadorDocente"><path codeLine="70" d="M184.71,600.9869 C212.29,622.8769 248.5405,651.6366 276.0805,673.4966" fill="none" id="Recompensa-to-InvestigadorDocente" style="stroke:#181818;stroke-width:1;"/><polygon fill="#181818" points="280.78,677.2269,276.2176,668.4985,276.8638,674.1183,271.2439,674.7645,280.78,677.2269" style="stroke:#181818;stroke-width:1;"/><text fill="#000000" font-family="sans-serif" font-size="13" lengthAdjust="spacing" textLength="71.5" x="243.19" y="643.6338">beneficia a</text></g><!--SRC=[RL91QiCm4Bph5Gkz5Vm14mmbRQ2tqFO3QtbZL6ojMIc1KlgOlg5FoCSgExOaj_P9pEoEPiRondTKmgjnddg4Xg0bvytrnuxdGVY3j6UdbD8TEWV76O7TxYZ6QZDWLrLmTpWyXEzJgQzbSi_smXezYy4S3mh3ETmnWofAFzlBU7MB3SiZQxAUrdeiZR4ZEsykU8SrIuOdoJrAYs-2DRvphlLalL2BTKSkXrz8Sp-GTT5R7WAAeahkor2K9K4LaOMV-ecqYeqL1MzbB24WrsyuiVG1Xe4btxdFpPRWJP1Tytd8t5MQIBcIhQpEoLaohcVctqXUHWdrsMcyTHH_m1-bqCluY52y6H-AABMHVwfjdU4MSdisr_VJ0W9PfLB6IN2pw3h8de8L1Fm5]--></g></svg>