<svg xmlns="http://www.w3.org/2000/svg" xmlns:xlink="http://www.w3.org/1999/xlink" contentStyleType="text/css" data-diagram-type="CLASS" height="857px" preserveAspectRatio="none" style="width:913px;height:857px;background:#FFFFFF;" version="1.1" viewBox="0 0 913 857" width="913px" zoomAndPan="magnify"><title>Diagrama de Clases Unificado: Gesti&#243;n de Proyectos + Red de Investigadores</title><defs/><g><g class="title" data-source-line="1"><text fill="#000000" font-family="sans-serif" font-size="14" font-weight="bold" lengthAdjust="spacing" textLength="612.4863" x="143.4892" y="22.9951">Diagrama de Clases Unificado: Gesti&#243;n de Proyectos + Red de Investigadores</text></g><!--class Proyecto--><g class="entity" data-entity="Proyecto" data-source-line="5" data-uid="ent0002" id="entity_Proyecto"><rect fill="#FFAAAA" height="56.2656" rx="2.5" ry="2.5" style="stroke:#181818;stroke-width:0.5;" width="94.0293" x="383.55" y="419.2969"/><ellipse cx="398.55" cy="439.4297" fill="#ADD1B2" rx="11" ry="11" style="stroke:#181818;stroke-width:1;"/><path d="M401.5187,445.0703 Q400.9406,445.3672 400.3,445.5078 Q399.6594,445.6641 398.9562,445.6641 Q396.4562,445.6641 395.1281,444.0234 Q393.8156,442.3672 393.8156,439.2422 Q393.8156,436.1172 395.1281,434.4609 Q396.4562,432.8047 398.9562,432.8047 Q399.6594,432.8047 400.3,432.9609 Q400.9562,433.1172 401.5187,433.4141 L401.5187,436.1328 Q400.8937,435.5547 400.3,435.2891 Q399.7062,435.0078 399.0812,435.0078 Q397.7375,435.0078 397.05,436.0859 Q396.3625,437.1484 396.3625,439.2422 Q396.3625,441.3359 397.05,442.4141 Q397.7375,443.4766 399.0812,443.4766 Q399.7062,443.4766 400.3,443.2109 Q400.8937,442.9297 401.5187,442.3516 L401.5187,445.0703 Z " fill="#000000"/><text fill="#000000" font-family="sans-serif" font-size="12" font-style="italic" lengthAdjust="spacing" textLength="66.0293" x="410.55" y="435.4355">&#171;Principal&#187;</text><text fill="#000000" font-family="sans-serif" font-size="14" lengthAdjust="spacing" textLength="61.4141" x="412.8576" y="451.2607">Proyecto</text><line style="stroke:#181818;stroke-width:0.5;" x1="384.55" x2="476.5793" y1="459.5625" y2="459.5625"/><line style="stroke:#181818;stroke-width:0.5;" x1="384.55" x2="476.5793" y1="467.5625" y2="467.5625"/></g><!--class Convocatoria--><g class="entity" data-entity="Convocatoria" data-source-line="9" data-uid="ent0003" id="entity_Convocatoria"><rect fill="#F1F1F1" height="48" rx="2.5" ry="2.5" style="stroke:#181818;stroke-width:0.5;" width="124.6201" x="483.25" y="169.2969"/><ellipse cx="498.25" cy="185.2969" fill="#ADD1B2" rx="11" ry="11" style="stroke:#181818;stroke-width:1;"/><path d="M501.2188,190.9375 Q500.6406,191.2344 500,191.375 Q499.3594,191.5313 498.6563,191.5313 Q496.1563,191.5313 494.8281,189.8906 Q493.5156,188.2344 493.5156,185.1094 Q493.5156,181.9844 494.8281,180.3281 Q496.1563,178.6719 498.6563,178.6719 Q499.3594,178.6719 500,178.8281 Q500.6563,178.9844 501.2188,179.2813 L501.2188,182 Q500.5938,181.4219 500,181.1563 Q499.4063,180.875 498.7813,180.875 Q497.4375,180.875 496.75,181.9531 Q496.0625,183.0156 496.0625,185.1094 Q496.0625,187.2031 496.75,188.2813 Q497.4375,189.3438 498.7813,189.3438 Q499.4063,189.3438 500,189.0781 Q500.5938,188.7969 501.2188,188.2188 L501.2188,190.9375 Z " fill="#000000"/><text fill="#000000" font-family="sans-serif" font-size="14" lengthAdjust="spacing" textLength="92.6201" x="512.25" y="190.1436">Convocatoria</text><line style="stroke:#181818;stroke-width:0.5;" x1="484.25" x2="606.8701" y1="201.2969" y2="201.2969"/><line style="stroke:#181818;stroke-width:0.5;" x1="484.25" x2="606.8701" y1="209.2969" y2="209.2969"/></g><!--class Propuesta--><g class="entity" data-entity="Propuesta" data-source-line="12" data-uid="ent0004" id="entity_Propuesta"><rect fill="#F1F1F1" height="48" rx="2.5" ry="2.5" style="stroke:#181818;stroke-width:0.5;" width="102.499" x="486.31" y="294.2969"/><ellipse cx="501.31" cy="310.2969" fill="#ADD1B2" rx="11" ry="11" style="stroke:#181818;stroke-width:1;"/><path d="M504.2787,315.9375 Q503.7006,316.2344 503.06,316.375 Q502.4194,316.5313 501.7162,316.5313 Q499.2162,316.5313 497.8881,314.8906 Q496.5756,313.2344 496.5756,310.1094 Q496.5756,306.9844 497.8881,305.3281 Q499.2162,303.6719 501.7162,303.6719 Q502.4194,303.6719 503.06,303.8281 Q503.7162,303.9844 504.2787,304.2813 L504.2787,307 Q503.6537,306.4219 503.06,306.1563 Q502.4662,305.875 501.8412,305.875 Q500.4975,305.875 499.81,306.9531 Q499.1225,308.0156 499.1225,310.1094 Q499.1225,312.2031 499.81,313.2813 Q500.4975,314.3438 501.8412,314.3438 Q502.4662,314.3438 503.06,314.0781 Q503.6537,313.7969 504.2787,313.2188 L504.2787,315.9375 Z " fill="#000000"/><text fill="#000000" font-family="sans-serif" font-size="14" lengthAdjust="spacing" textLength="70.499" x="515.31" y="315.1436">Propuesta</text><line style="stroke:#181818;stroke-width:0.5;" x1="487.31" x2="587.809" y1="326.2969" y2="326.2969"/><line style="stroke:#181818;stroke-width:0.5;" x1="487.31" x2="587.809" y1="334.2969" y2="334.2969"/></g><!--class InvestigadorDocente--><g class="entity" data-entity="InvestigadorDocente" data-source-line="15" data-uid="ent0005" id="entity_InvestigadorDocente"><rect fill="#F1F1F1" height="48" rx="2.5" ry="2.5" style="stroke:#181818;stroke-width:0.5;" width="177.8789" x="354.62" y="677.5669"/><ellipse cx="369.62" cy="693.5669" fill="#ADD1B2" rx="11" ry="11" style="stroke:#181818;stroke-width:1;"/><path d="M372.5888,699.2075 Q372.0106,699.5044 371.37,699.645 Q370.7294,699.8013 370.0263,699.8013 Q367.5263,699.8013 366.1981,698.1606 Q364.8856,696.5044 364.8856,693.3794 Q364.8856,690.2544 366.1981,688.5981 Q367.5263,686.9419 370.0263,686.9419 Q370.7294,686.9419 371.37,687.0981 Q372.0263,687.2544 372.5888,687.5513 L372.5888,690.27 Q371.9638,689.6919 371.37,689.4263 Q370.7763,689.145 370.1513,689.145 Q368.8075,689.145 368.12,690.2231 Q367.4325,691.2856 367.4325,693.3794 Q367.4325,695.4731 368.12,696.5513 Q368.8075,697.6138 370.1513,697.6138 Q370.7763,697.6138 371.37,697.3481 Q371.9638,697.0669 372.5888,696.4888 L372.5888,699.2075 Z " fill="#000000"/><text fill="#000000" font-family="sans-serif" font-size="14" lengthAdjust="spacing" textLength="145.8789" x="383.62" y="698.4136">InvestigadorDocente</text><line style="stroke:#181818;stroke-width:0.5;" x1="355.62" x2="531.4989" y1="709.5669" y2="709.5669"/><line style="stroke:#181818;stroke-width:0.5;" x1="355.62" x2="531.4989" y1="717.5669" y2="717.5669"/></g><!--class Coordinador--><g class="entity" data-entity="Coordinador" data-source-line="19" data-uid="ent0006" id="entity_Coordinador"><rect fill="#F1F1F1" height="48" rx="2.5" ry="2.5" style="stroke:#181818;stroke-width:0.5;" width="118.0986" x="486.51" y="44.2969"/><ellipse cx="501.51" cy="60.2969" fill="#ADD1B2" rx="11" ry="11" style="stroke:#181818;stroke-width:1;"/><path d="M504.4788,65.9375 Q503.9006,66.2344 503.26,66.375 Q502.6194,66.5313 501.9163,66.5313 Q499.4163,66.5313 498.0881,64.8906 Q496.7756,63.2344 496.7756,60.1094 Q496.7756,56.9844 498.0881,55.3281 Q499.4163,53.6719 501.9163,53.6719 Q502.6194,53.6719 503.26,53.8281 Q503.9163,53.9844 504.4788,54.2813 L504.4788,57 Q503.8538,56.4219 503.26,56.1563 Q502.6663,55.875 502.0413,55.875 Q500.6975,55.875 500.01,56.9531 Q499.3225,58.0156 499.3225,60.1094 Q499.3225,62.2031 500.01,63.2813 Q500.6975,64.3438 502.0413,64.3438 Q502.6663,64.3438 503.26,64.0781 Q503.8538,63.7969 504.4788,63.2188 L504.4788,65.9375 Z " fill="#000000"/><text fill="#000000" font-family="sans-serif" font-size="14" lengthAdjust="spacing" textLength="86.0986" x="515.51" y="65.1436">Coordinador</text><line style="stroke:#181818;stroke-width:0.5;" x1="487.51" x2="603.6086" y1="76.2969" y2="76.2969"/><line style="stroke:#181818;stroke-width:0.5;" x1="487.51" x2="603.6086" y1="84.2969" y2="84.2969"/></g><!--class Colaborador--><g class="entity" data-entity="Colaborador" data-source-line="22" data-uid="ent0007" id="entity_Colaborador"><rect fill="#F1F1F1" height="48" rx="2.5" ry="2.5" style="stroke:#181818;stroke-width:0.5;" width="117.8047" x="788.66" y="294.2969"/><ellipse cx="803.66" cy="310.2969" fill="#ADD1B2" rx="11" ry="11" style="stroke:#181818;stroke-width:1;"/><path d="M806.6288,315.9375 Q806.0506,316.2344 805.41,316.375 Q804.7694,316.5313 804.0663,316.5313 Q801.5663,316.5313 800.2381,314.8906 Q798.9256,313.2344 798.9256,310.1094 Q798.9256,306.9844 800.2381,305.3281 Q801.5663,303.6719 804.0663,303.6719 Q804.7694,303.6719 805.41,303.8281 Q806.0663,303.9844 806.6288,304.2813 L806.6288,307 Q806.0038,306.4219 805.41,306.1563 Q804.8163,305.875 804.1913,305.875 Q802.8475,305.875 802.16,306.9531 Q801.4725,308.0156 801.4725,310.1094 Q801.4725,312.2031 802.16,313.2813 Q802.8475,314.3438 804.1913,314.3438 Q804.8163,314.3438 805.41,314.0781 Q806.0038,313.7969 806.6288,313.2188 L806.6288,315.9375 Z " fill="#000000"/><text fill="#000000" font-family="sans-serif" font-size="14" lengthAdjust="spacing" textLength="85.8047" x="817.66" y="315.1436">Colaborador</text><line style="stroke:#181818;stroke-width:0.5;" x1="789.66" x2="905.4647" y1="326.2969" y2="326.2969"/><line style="stroke:#181818;stroke-width:0.5;" x1="789.66" x2="905.4647" y1="334.2969" y2="334.2969"/></g><!--class CargaTrabajo--><g class="entity" data-entity="CargaTrabajo" data-source-line="25" data-uid="ent0008" id="entity_CargaTrabajo"><rect fill="#F1F1F1" height="48" rx="2.5" ry="2.5" style="stroke:#181818;stroke-width:0.5;" width="126.3838" x="164.37" y="802.5669"/><ellipse cx="179.37" cy="818.5669" fill="#ADD1B2" rx="11" ry="11" style="stroke:#181818;stroke-width:1;"/><path d="M182.3388,824.2075 Q181.7606,824.5044 181.12,824.645 Q180.4794,824.8013 179.7763,824.8013 Q177.2763,824.8013 175.9481,823.1606 Q174.6356,821.5044 174.6356,818.3794 Q174.6356,815.2544 175.9481,813.5981 Q177.2763,811.9419 179.7763,811.9419 Q180.4794,811.9419 181.12,812.0981 Q181.7763,812.2544 182.3388,812.5513 L182.3388,815.27 Q181.7138,814.6919 181.12,814.4263 Q180.5263,814.145 179.9013,814.145 Q178.5575,814.145 177.87,815.2231 Q177.1825,816.2856 177.1825,818.3794 Q177.1825,820.4731 177.87,821.5513 Q178.5575,822.6138 179.9013,822.6138 Q180.5263,822.6138 181.12,822.3481 Q181.7138,822.0669 182.3388,821.4888 L182.3388,824.2075 Z " fill="#000000"/><text fill="#000000" font-family="sans-serif" font-size="14" lengthAdjust="spacing" textLength="94.3838" x="193.37" y="823.4136">CargaTrabajo</text><line style="stroke:#181818;stroke-width:0.5;" x1="165.37" x2="289.7538" y1="834.5669" y2="834.5669"/><line style="stroke:#181818;stroke-width:0.5;" x1="165.37" x2="289.7538" y1="842.5669" y2="842.5669"/></g><!--class Entregables--><g class="entity" data-entity="Entregables" data-source-line="29" data-uid="ent0009" id="entity_Entregables"><rect fill="#F1F1F1" height="48" rx="2.5" ry="2.5" style="stroke:#181818;stroke-width:0.5;" width="115.7266" x="87.7" y="552.5669"/><ellipse cx="102.7" cy="568.5669" fill="#ADD1B2" rx="11" ry="11" style="stroke:#181818;stroke-width:1;"/><path d="M105.6687,574.2075 Q105.0906,574.5044 104.45,574.645 Q103.8094,574.8013 103.1062,574.8013 Q100.6062,574.8013 99.2781,573.1606 Q97.9656,571.5044 97.9656,568.3794 Q97.9656,565.2544 99.2781,563.5981 Q100.6062,561.9419 103.1062,561.9419 Q103.8094,561.9419 104.45,562.0981 Q105.1062,562.2544 105.6687,562.5513 L105.6687,565.27 Q105.0437,564.6919 104.45,564.4263 Q103.8562,564.145 103.2312,564.145 Q101.8875,564.145 101.2,565.2231 Q100.5125,566.2856 100.5125,568.3794 Q100.5125,570.4731 101.2,571.5513 Q101.8875,572.6138 103.2312,572.6138 Q103.8562,572.6138 104.45,572.3481 Q105.0437,572.0669 105.6687,571.4888 L105.6687,574.2075 Z " fill="#000000"/><text fill="#000000" font-family="sans-serif" font-size="14" lengthAdjust="spacing" textLength="83.7266" x="116.7" y="573.4136">Entregables</text><line style="stroke:#181818;stroke-width:0.5;" x1="88.7" x2="202.4266" y1="584.5669" y2="584.5669"/><line style="stroke:#181818;stroke-width:0.5;" x1="88.7" x2="202.4266" y1="592.5669" y2="592.5669"/></g><!--class Recompensa--><g class="entity" data-entity="Recompensa" data-source-line="32" data-uid="ent0010" id="entity_Recompensa"><rect fill="#F1F1F1" height="48" rx="2.5" ry="2.5" style="stroke:#181818;stroke-width:0.5;" width="122.4873" x="238.32" y="552.5669"/><ellipse cx="253.32" cy="568.5669" fill="#ADD1B2" rx="11" ry="11" style="stroke:#181818;stroke-width:1;"/><path d="M256.2888,574.2075 Q255.7106,574.5044 255.07,574.645 Q254.4294,574.8013 253.7263,574.8013 Q251.2263,574.8013 249.8981,573.1606 Q248.5856,571.5044 248.5856,568.3794 Q248.5856,565.2544 249.8981,563.5981 Q251.2263,561.9419 253.7263,561.9419 Q254.4294,561.9419 255.07,562.0981 Q255.7263,562.2544 256.2888,562.5513 L256.2888,565.27 Q255.6638,564.6919 255.07,564.4263 Q254.4763,564.145 253.8513,564.145 Q252.5075,564.145 251.82,565.2231 Q251.1325,566.2856 251.1325,568.3794 Q251.1325,570.4731 251.82,571.5513 Q252.5075,572.6138 253.8513,572.6138 Q254.4763,572.6138 255.07,572.3481 Q255.6638,572.0669 256.2888,571.4888 L256.2888,574.2075 Z " fill="#000000"/><text fill="#000000" font-family="sans-serif" font-size="14" lengthAdjust="spacing" textLength="90.4873" x="267.32" y="573.4136">Recompensa</text><line style="stroke:#181818;stroke-width:0.5;" x1="239.32" x2="359.8073" y1="584.5669" y2="584.5669"/><line style="stroke:#181818;stroke-width:0.5;" x1="239.32" x2="359.8073" y1="592.5669" y2="592.5669"/></g><!--class PerfilInvestigador--><g class="entity" data-entity="PerfilInvestigador" data-source-line="35" data-uid="ent0011" id="entity_PerfilInvestigador"><rect fill="#F1F1F1" height="48" rx="2.5" ry="2.5" style="stroke:#181818;stroke-width:0.5;" width="154.7666" x="366.18" y="802.5669"/><ellipse cx="381.18" cy="818.5669" fill="#ADD1B2" rx="11" ry="11" style="stroke:#181818;stroke-width:1;"/><path d="M384.1487,824.2075 Q383.5706,824.5044 382.93,824.645 Q382.2894,824.8013 381.5862,824.8013 Q379.0862,824.8013 377.7581,823.1606 Q376.4456,821.5044 376.4456,818.3794 Q376.4456,815.2544 377.7581,813.5981 Q379.0862,811.9419 381.5862,811.9419 Q382.2894,811.9419 382.93,812.0981 Q383.5862,812.2544 384.1487,812.5513 L384.1487,815.27 Q383.5237,814.6919 382.93,814.4263 Q382.3362,814.145 381.7112,814.145 Q380.3675,814.145 379.68,815.2231 Q378.9925,816.2856 378.9925,818.3794 Q378.9925,820.4731 379.68,821.5513 Q380.3675,822.6138 381.7112,822.6138 Q382.3362,822.6138 382.93,822.3481 Q383.5237,822.0669 384.1487,821.4888 L384.1487,824.2075 Z " fill="#000000"/><text fill="#000000" font-family="sans-serif" font-size="14" lengthAdjust="spacing" textLength="122.7666" x="395.18" y="823.4136">PerfilInvestigador</text><line style="stroke:#181818;stroke-width:0.5;" x1="367.18" x2="519.9466" y1="834.5669" y2="834.5669"/><line style="stroke:#181818;stroke-width:0.5;" x1="367.18" x2="519.9466" y1="842.5669" y2="842.5669"/></g><!--link Convocatoria to Propuesta--><g class="link" data-entity-1="Convocatoria" data-entity-2="Propuesta" data-source-line="40" data-uid="lnk12" id="link_Convocatoria_Propuesta"><path codeLine="40" d="M544.04,217.7269 C542.61,239.6169 541.6668,254.1447 540.2468,276.0047" fill="none" id="Convocatoria-to-Propuesta" style="stroke:#181818;stroke-width:1;"/><polygon fill="none" points="539.08,293.9669,546.2342,276.3937,534.2594,275.6158,539.08,293.9669" style="stroke:#181818;stroke-width:1;"/><text fill="#000000" font-family="sans-serif" font-size="13" lengthAdjust="spacing" textLength="45.7983" x="543.56" y="260.3638">genera</text></g><!--link Propuesta to Proyecto--><g class="link" data-entity-1="Propuesta" data-entity-2="Proyecto" data-source-line="41" data-uid="lnk13" id="link_Propuesta_Proyecto"><path codeLine="41" d="M517.93,342.6169 C499.83,364.1269 484.5392,382.2941 465.3792,405.0641" fill="none" id="Propuesta-to-Proyecto" style="stroke:#181818;stroke-width:1;"/><polygon fill="none" points="453.79,418.8369,469.9702,408.9272,460.7883,401.201,453.79,418.8369" style="stroke:#181818;stroke-width:1;"/><text fill="#000000" font-family="sans-serif" font-size="13" lengthAdjust="spacing" textLength="45.7983" x="491.56" y="385.3638">genera</text></g><!--link Proyecto to InvestigadorDocente--><g class="link" data-entity-1="Proyecto" data-entity-2="InvestigadorDocente" data-source-line="43" data-uid="lnk14" id="link_Proyecto_InvestigadorDocente"><path codeLine="43" d="M458.01,475.6969 C475.65,495.2369 496.98,523.2069 506.56,552.5669 C521.32,597.8369 496.0783,639.1772 472.4983,667.9372" fill="none" id="Proyecto-to-InvestigadorDocente" style="stroke:#181818;stroke-width:1;"/><polygon fill="none" points="464.89,677.2169,471.7874,675.1131,472.4983,667.9372,465.6009,670.0409,464.89,677.2169" style="stroke:#181818;stroke-width:1;"/><text fill="#000000" font-family="sans-serif" font-size="13" lengthAdjust="spacing" textLength="112.3599" x="511.56" y="581.1338">est&#225; formado por</text></g><!--link InvestigadorDocente to Proyecto--><g class="link" data-entity-1="InvestigadorDocente" data-entity-2="Proyecto" data-source-line="54" data-uid="lnk22" id="link_InvestigadorDocente_Proyecto"><path codeLine="54" d="M439.65,677.2169 C436.48,656.9969 432.27,626.9469 430.56,600.5669 C427.74,557.0769 428.1943,518.4413 429.1243,487.9413" fill="none" id="InvestigadorDocente-to-Proyecto" style="stroke:#181818;stroke-width:1;"/><polygon fill="none" points="429.49,475.9469,425.309,481.8222,429.1243,487.9413,433.3053,482.066,429.49,475.9469" style="stroke:#181818;stroke-width:1;"/><text fill="#000000" font-family="sans-serif" font-size="13" lengthAdjust="spacing" textLength="66.5742" x="431.56" y="581.1338">trabaja en</text></g><!--link Proyecto to Entregables--><g class="link" data-entity-1="Proyecto" data-entity-2="Entregables" data-source-line="44" data-uid="lnk15" id="link_Proyecto_Entregables"><path codeLine="44" d="M383.27,469.0769 C358.59,479.8869 327.92,493.3769 300.56,505.5669 C266.04,520.9469 238.2186,533.4905 208.0986,547.1505" fill="none" id="Proyecto-to-Entregables" style="stroke:#181818;stroke-width:1;"/><polygon fill="#181818" points="197.17,552.1069,204.2864,553.2716,208.0986,547.1505,200.9822,545.9858,197.17,552.1069" style="stroke:#181818;stroke-width:1;"/><text fill="#000000" font-family="sans-serif" font-size="13" lengthAdjust="spacing" textLength="32.9443" x="301.56" y="518.6338">tiene</text></g><!--link Proyecto to CargaTrabajo--><g class="link" data-entity-1="Proyecto" data-entity-2="CargaTrabajo" data-source-line="45" data-uid="lnk16" id="link_Proyecto_CargaTrabajo"><path codeLine="45" d="M383.08,455.0769 C294.22,468.5969 108.34,502.3169 70.56,552.5669 C6,638.4469 123.5866,745.9483 186.1366,794.7183" fill="none" id="Proyecto-to-CargaTrabajo" style="stroke:#181818;stroke-width:1;"/><polygon fill="#181818" points="195.6,802.0969,193.3278,795.2531,186.1366,794.7183,188.4088,801.5621,195.6,802.0969" style="stroke:#181818;stroke-width:1;"/><text fill="#000000" font-family="sans-serif" font-size="13" lengthAdjust="spacing" textLength="45.7983" x="62.56" y="643.6338">genera</text></g><!--link Proyecto to Recompensa--><g class="link" data-entity-1="Proyecto" data-entity-2="Recompensa" data-source-line="46" data-uid="lnk17" id="link_Proyecto_Recompensa"><path codeLine="46" d="M392.14,476.0269 C380.59,484.9669 368.17,495.2469 357.56,505.5669 C342.74,519.9769 335.2547,528.4949 324.2947,542.6249" fill="none" id="Proyecto-to-Recompensa" style="stroke:#181818;stroke-width:1;"/><polygon fill="#181818" points="316.94,552.1069,323.778,549.8175,324.2947,542.6249,317.4567,544.9143,316.94,552.1069" style="stroke:#181818;stroke-width:1;"/><text fill="#000000" font-family="sans-serif" font-size="13" lengthAdjust="spacing" textLength="45.7983" x="358.56" y="518.6338">genera</text></g><!--link Coordinador to Proyecto--><g class="link" data-entity-1="Coordinador" data-entity-2="Proyecto" data-source-line="48" data-uid="lnk18" id="link_Coordinador_Proyecto"><path codeLine="48" d="M520.57,92.6569 C502.12,111.4769 478.12,139.6069 465.56,169.2969 C429.38,254.8369 427.3941,355.4819 428.8741,406.8119" fill="none" id="Coordinador-to-Proyecto" style="stroke:#181818;stroke-width:1;"/><polygon fill="none" points="429.22,418.8069,433.0454,412.6941,428.8741,406.8119,425.0487,412.9247,429.22,418.8069" style="stroke:#181818;stroke-width:1;"/><text fill="#000000" font-family="sans-serif" font-size="13" lengthAdjust="spacing" textLength="56.4688" x="443.56" y="260.3638">coordina</text></g><!--link Coordinador to Convocatoria--><g class="link" data-entity-1="Coordinador" data-entity-2="Convocatoria" data-source-line="49" data-uid="lnk19" id="link_Coordinador_Convocatoria"><path codeLine="49" d="M545.56,92.7269 C545.56,114.6169 545.56,135.1069 545.56,156.9669" fill="none" id="Coordinador-to-Convocatoria" style="stroke:#181818;stroke-width:1;"/><polygon fill="none" points="545.56,168.9669,549.56,162.9669,545.56,156.9669,541.56,162.9669,545.56,168.9669" style="stroke:#181818;stroke-width:1;"/><text fill="#000000" font-family="sans-serif" font-size="13" lengthAdjust="spacing" textLength="38.3779" x="546.56" y="135.3638">busca</text></g><!--link Colaborador to Proyecto--><g class="link" data-entity-1="Colaborador" data-entity-2="Proyecto" data-source-line="51" data-uid="lnk20" id="link_Colaborador_Proyecto"><path codeLine="51" d="M834.77,342.6469 C824.84,358.4469 809.57,378.3569 790.56,389.2969 C738.12,419.4969 575.0735,435.5214 489.9035,442.1814" fill="none" id="Colaborador-to-Proyecto" style="stroke:#181818;stroke-width:1;"/><polygon fill="none" points="477.94,443.1169,484.2336,446.637,489.9035,442.1814,483.6099,438.6613,477.94,443.1169" style="stroke:#181818;stroke-width:1;"/><text fill="#000000" font-family="sans-serif" font-size="13" lengthAdjust="spacing" textLength="57.2495" x="812.56" y="385.3638">participa</text></g><!--link InvestigadorDocente to CargaTrabajo--><g class="link" data-entity-1="InvestigadorDocente" data-entity-2="CargaTrabajo" data-source-line="53" data-uid="lnk21" id="link_InvestigadorDocente_CargaTrabajo"><path codeLine="53" d="M402.42,725.9869 C363.99,747.8769 312.144,777.3979 273.754,799.2579" fill="none" id="InvestigadorDocente-to-CargaTrabajo" style="stroke:#181818;stroke-width:1;"/><polygon fill="#181818" points="268.54,802.2269,278.3402,801.2495,272.885,799.7528,274.3817,794.2975,268.54,802.2269" style="stroke:#181818;stroke-width:1;"/><text fill="#000000" font-family="sans-serif" font-size="13" lengthAdjust="spacing" textLength="32.9443" x="349.56" y="768.6338">tiene</text></g><!--link Recompensa to InvestigadorDocente--><g class="link" data-entity-1="Recompensa" data-entity-2="InvestigadorDocente" data-source-line="56" data-uid="lnk23" id="link_Recompensa_InvestigadorDocente"><path codeLine="56" d="M310.24,600.8569 C317.9,615.6369 329.36,634.3769 343.56,647.5669 C356.16,659.2669 366.5178,666.3676 381.6778,674.3276" fill="none" id="Recompensa-to-InvestigadorDocente" style="stroke:#181818;stroke-width:1;"/><polygon fill="#181818" points="386.99,677.1169,380.8812,669.3915,382.5631,674.7925,377.1621,676.4745,386.99,677.1169" style="stroke:#181818;stroke-width:1;"/><text fill="#000000" font-family="sans-serif" font-size="13" lengthAdjust="spacing" textLength="59.4014" x="344.56" y="643.6338">beneficia</text></g><!--link Recompensa to CargaTrabajo--><g class="link" data-entity-1="Recompensa" data-entity-2="CargaTrabajo" data-source-line="57" data-uid="lnk24" id="link_Recompensa_CargaTrabajo"><path codeLine="57" d="M283.82,600.6869 C271.3,620.2769 254.47,649.5569 245.56,677.5669 C232.02,720.1169 228.7158,766.5192 227.8958,796.1792" fill="none" id="Recompensa-to-CargaTrabajo" style="stroke:#181818;stroke-width:1;"/><polygon fill="#181818" points="227.73,802.1769,231.9772,793.2909,227.8682,797.1788,223.9803,793.0698,227.73,802.1769" style="stroke:#181818;stroke-width:1;"/><text fill="#000000" font-family="sans-serif" font-size="13" lengthAdjust="spacing" textLength="90.8096" x="246.56" y="706.1338">puede reducir</text></g><!--link InvestigadorDocente to PerfilInvestigador--><g class="link" data-entity-1="InvestigadorDocente" data-entity-2="PerfilInvestigador" data-source-line="63" data-uid="lnk25" id="link_InvestigadorDocente_PerfilInvestigador"><path codeLine="63" d="M443.56,725.9869 C443.56,747.8769 443.56,768.3669 443.56,790.2269" fill="none" id="InvestigadorDocente-to-PerfilInvestigador" style="stroke:#181818;stroke-width:1;"/><polygon fill="#181818" points="443.56,802.2269,447.56,796.2269,443.56,790.2269,439.56,796.2269,443.56,802.2269" style="stroke:#181818;stroke-width:1;"/><text fill="#000000" font-family="sans-serif" font-size="13" lengthAdjust="spacing" textLength="32.9443" x="444.56" y="768.6338">tiene</text></g><!--link InvestigadorDocente to InvestigadorDocente--><g class="link" data-entity-1="InvestigadorDocente" data-entity-2="InvestigadorDocente" data-source-line="64" data-uid="lnk26" id="link_InvestigadorDocente_InvestigadorDocente"><path codeLine="64" d="M532.97,690.1469 C552.93,691.1969 567.5,695.0069 567.5,701.5669 C567.5,708.1269 558.9217,711.6217 538.9617,712.6717" fill="none" id="InvestigadorDocente-to-InvestigadorDocente" style="stroke:#181818;stroke-width:1;"/><polygon fill="#181818" points="532.97,712.9869,542.1677,716.5086,537.9631,712.7242,541.7474,708.5196,532.97,712.9869" style="stroke:#181818;stroke-width:1;"/><text fill="#000000" font-family="sans-serif" font-size="13" lengthAdjust="spacing" textLength="144.3965" x="573.5" y="706.1338">puede interactuar con</text></g><!--link Coordinador to InvestigadorDocente--><g class="link" data-entity-1="Coordinador" data-entity-2="InvestigadorDocente" data-source-line="68" data-uid="lnk27" id="link_Coordinador_InvestigadorDocente"><path codeLine="68" d="M604.9,81.4769 C660.64,96.7969 735.56,129.1369 735.56,192.2969 C735.56,192.2969 735.56,192.2969 735.56,577.5669 C735.56,666.6769 624.6114,691.7953 538.7414,698.5653" fill="none" id="Coordinador-to-InvestigadorDocente" style="stroke:#181818;stroke-width:1;"/><polygon fill="#181818" points="532.76,699.0369,542.0465,702.3171,537.7445,698.6439,541.4178,694.3419,532.76,699.0369" style="stroke:#181818;stroke-width:1;"/><text fill="#000000" font-family="sans-serif" font-size="13" lengthAdjust="spacing" textLength="45.4048" x="736.56" y="385.3638">recluta</text></g><!--SRC=[VLD1JiCm4Bpx5QjoAye7eYeIQW5ngofumCRPHaQf7MsSIWZw6Dx04_enDWrjx3J5j-pEZcTc7MzyHJ1R6ImPTmW5mRB2XXfuisPhD1OkXMTgl3d-sAwxPlT1shi6xc53HLTwiViEK0gMgPafELeucWiM5eir6wjDZLMMmTtJquCS-5JgS8OkdTqxZTwnGMaS0egw5VQe65wuSfgifn6PuyBOhXsEBLs5kUEhCdA9humvlhk8vj5wfXBpIj88y1lIRbUJRMAXn5jJXShwhbAHjIJvoW9JAPHaYL4DfJEYJ-u2K9TIahZ915AOIUtu3Ll7Esb0xNWMZiqZHobu8zGn8CeY53T00lk3k33nJb-WN_-rhZ1HBYdaRQDFJCEIHamriZVT8r9god-IP6FzlSDfS4JjJoC8P9KA37QKqr7dGYo_Xy4nVAH0bYf_25FHQiFgTARbpATUqFyERcdhxpJomQXzYomxiFrB33TmQvn9Lwt7Nm00]--></g></svg>