<svg xmlns="http://www.w3.org/2000/svg" xmlns:xlink="http://www.w3.org/1999/xlink" contentStyleType="text/css" data-diagram-type="CLASS" height="857px" preserveAspectRatio="none" style="width:640px;height:857px;background:#FFFFFF;" version="1.1" viewBox="0 0 640 857" width="640px" zoomAndPan="magnify"><title>Diagrama de Clases Unificado: Gesti&#243;n de Proyectos + Red de Investigadores</title><defs/><g><g class="title" data-source-line="1"><text fill="#000000" font-family="sans-serif" font-size="14" font-weight="bold" lengthAdjust="spacing" textLength="612.4863" x="10" y="22.9951">Diagrama de Clases Unificado: Gesti&#243;n de Proyectos + Red de Investigadores</text></g><!--class Proyecto--><g class="entity" data-entity="Proyecto" data-source-line="3" data-uid="ent0002" id="entity_Proyecto"><rect fill="#FFAAAA" height="56.2656" rx="2.5" ry="2.5" style="stroke:#181818;stroke-width:0.5;" width="94.0293" x="271.6258" y="419.2969"/><ellipse cx="286.6258" cy="439.4297" fill="#ADD1B2" rx="11" ry="11" style="stroke:#181818;stroke-width:1;"/><path d="M289.5945,445.0703 Q289.0164,445.3672 288.3758,445.5078 Q287.7351,445.6641 287.032,445.6641 Q284.532,445.6641 283.2039,444.0234 Q281.8914,442.3672 281.8914,439.2422 Q281.8914,436.1172 283.2039,434.4609 Q284.532,432.8047 287.032,432.8047 Q287.7351,432.8047 288.3758,432.9609 Q289.032,433.1172 289.5945,433.4141 L289.5945,436.1328 Q288.9695,435.5547 288.3758,435.2891 Q287.782,435.0078 287.157,435.0078 Q285.8133,435.0078 285.1258,436.0859 Q284.4383,437.1484 284.4383,439.2422 Q284.4383,441.3359 285.1258,442.4141 Q285.8133,443.4766 287.157,443.4766 Q287.782,443.4766 288.3758,443.2109 Q288.9695,442.9297 289.5945,442.3516 L289.5945,445.0703 Z " fill="#000000"/><text fill="#000000" font-family="sans-serif" font-size="12" font-style="italic" lengthAdjust="spacing" textLength="66.0293" x="298.6258" y="435.4355">&#171;Principal&#187;</text><text fill="#000000" font-family="sans-serif" font-size="14" lengthAdjust="spacing" textLength="61.4141" x="300.9334" y="451.2607">Proyecto</text><line style="stroke:#181818;stroke-width:0.5;" x1="272.6258" x2="364.6551" y1="459.5625" y2="459.5625"/><line style="stroke:#181818;stroke-width:0.5;" x1="272.6258" x2="364.6551" y1="467.5625" y2="467.5625"/></g><!--class Convocatoria--><g class="entity" data-entity="Convocatoria" data-source-line="6" data-uid="ent0003" id="entity_Convocatoria"><rect fill="#F1F1F1" height="48" rx="2.5" ry="2.5" style="stroke:#181818;stroke-width:0.5;" width="124.6201" x="395.3258" y="169.2969"/><ellipse cx="410.3258" cy="185.2969" fill="#ADD1B2" rx="11" ry="11" style="stroke:#181818;stroke-width:1;"/><path d="M413.2945,190.9375 Q412.7164,191.2344 412.0758,191.375 Q411.4351,191.5313 410.732,191.5313 Q408.232,191.5313 406.9039,189.8906 Q405.5914,188.2344 405.5914,185.1094 Q405.5914,181.9844 406.9039,180.3281 Q408.232,178.6719 410.732,178.6719 Q411.4351,178.6719 412.0758,178.8281 Q412.732,178.9844 413.2945,179.2813 L413.2945,182 Q412.6695,181.4219 412.0758,181.1563 Q411.482,180.875 410.857,180.875 Q409.5133,180.875 408.8258,181.9531 Q408.1383,183.0156 408.1383,185.1094 Q408.1383,187.2031 408.8258,188.2813 Q409.5133,189.3438 410.857,189.3438 Q411.482,189.3438 412.0758,189.0781 Q412.6695,188.7969 413.2945,188.2188 L413.2945,190.9375 Z " fill="#000000"/><text fill="#000000" font-family="sans-serif" font-size="14" lengthAdjust="spacing" textLength="92.6201" x="424.3258" y="190.1436">Convocatoria</text><line style="stroke:#181818;stroke-width:0.5;" x1="396.3258" x2="518.9459" y1="201.2969" y2="201.2969"/><line style="stroke:#181818;stroke-width:0.5;" x1="396.3258" x2="518.9459" y1="209.2969" y2="209.2969"/></g><!--class Propuesta--><g class="entity" data-entity="Propuesta" data-source-line="9" data-uid="ent0004" id="entity_Propuesta"><rect fill="#F1F1F1" height="48" rx="2.5" ry="2.5" style="stroke:#181818;stroke-width:0.5;" width="102.499" x="412.3858" y="294.2969"/><ellipse cx="427.3858" cy="310.2969" fill="#ADD1B2" rx="11" ry="11" style="stroke:#181818;stroke-width:1;"/><path d="M430.3545,315.9375 Q429.7764,316.2344 429.1358,316.375 Q428.4951,316.5313 427.792,316.5313 Q425.292,316.5313 423.9639,314.8906 Q422.6514,313.2344 422.6514,310.1094 Q422.6514,306.9844 423.9639,305.3281 Q425.292,303.6719 427.792,303.6719 Q428.4951,303.6719 429.1358,303.8281 Q429.792,303.9844 430.3545,304.2813 L430.3545,307 Q429.7295,306.4219 429.1358,306.1563 Q428.542,305.875 427.917,305.875 Q426.5733,305.875 425.8858,306.9531 Q425.1983,308.0156 425.1983,310.1094 Q425.1983,312.2031 425.8858,313.2813 Q426.5733,314.3438 427.917,314.3438 Q428.542,314.3438 429.1358,314.0781 Q429.7295,313.7969 430.3545,313.2188 L430.3545,315.9375 Z " fill="#000000"/><text fill="#000000" font-family="sans-serif" font-size="14" lengthAdjust="spacing" textLength="70.499" x="441.3858" y="315.1436">Propuesta</text><line style="stroke:#181818;stroke-width:0.5;" x1="413.3858" x2="513.8848" y1="326.2969" y2="326.2969"/><line style="stroke:#181818;stroke-width:0.5;" x1="413.3858" x2="513.8848" y1="334.2969" y2="334.2969"/></g><!--class InvestigadorDocente--><g class="entity" data-entity="InvestigadorDocente" data-source-line="12" data-uid="ent0005" id="entity_InvestigadorDocente"><rect fill="#F1F1F1" height="48" rx="2.5" ry="2.5" style="stroke:#181818;stroke-width:0.5;" width="177.8789" x="146.6958" y="677.5669"/><ellipse cx="161.6958" cy="693.5669" fill="#ADD1B2" rx="11" ry="11" style="stroke:#181818;stroke-width:1;"/><path d="M164.6645,699.2075 Q164.0864,699.5044 163.4458,699.645 Q162.8051,699.8013 162.102,699.8013 Q159.602,699.8013 158.2739,698.1606 Q156.9614,696.5044 156.9614,693.3794 Q156.9614,690.2544 158.2739,688.5981 Q159.602,686.9419 162.102,686.9419 Q162.8051,686.9419 163.4458,687.0981 Q164.102,687.2544 164.6645,687.5513 L164.6645,690.27 Q164.0395,689.6919 163.4458,689.4263 Q162.852,689.145 162.227,689.145 Q160.8833,689.145 160.1958,690.2231 Q159.5083,691.2856 159.5083,693.3794 Q159.5083,695.4731 160.1958,696.5513 Q160.8833,697.6138 162.227,697.6138 Q162.852,697.6138 163.4458,697.3481 Q164.0395,697.0669 164.6645,696.4888 L164.6645,699.2075 Z " fill="#000000"/><text fill="#000000" font-family="sans-serif" font-size="14" lengthAdjust="spacing" textLength="145.8789" x="175.6958" y="698.4136">InvestigadorDocente</text><line style="stroke:#181818;stroke-width:0.5;" x1="147.6958" x2="323.5747" y1="709.5669" y2="709.5669"/><line style="stroke:#181818;stroke-width:0.5;" x1="147.6958" x2="323.5747" y1="717.5669" y2="717.5669"/></g><!--class Coordinador--><g class="entity" data-entity="Coordinador" data-source-line="15" data-uid="ent0006" id="entity_Coordinador"><rect fill="#F1F1F1" height="48" rx="2.5" ry="2.5" style="stroke:#181818;stroke-width:0.5;" width="118.0986" x="398.5858" y="44.2969"/><ellipse cx="413.5858" cy="60.2969" fill="#ADD1B2" rx="11" ry="11" style="stroke:#181818;stroke-width:1;"/><path d="M416.5545,65.9375 Q415.9764,66.2344 415.3358,66.375 Q414.6951,66.5313 413.992,66.5313 Q411.492,66.5313 410.1639,64.8906 Q408.8514,63.2344 408.8514,60.1094 Q408.8514,56.9844 410.1639,55.3281 Q411.492,53.6719 413.992,53.6719 Q414.6951,53.6719 415.3358,53.8281 Q415.992,53.9844 416.5545,54.2813 L416.5545,57 Q415.9295,56.4219 415.3358,56.1563 Q414.742,55.875 414.117,55.875 Q412.7733,55.875 412.0858,56.9531 Q411.3983,58.0156 411.3983,60.1094 Q411.3983,62.2031 412.0858,63.2813 Q412.7733,64.3438 414.117,64.3438 Q414.742,64.3438 415.3358,64.0781 Q415.9295,63.7969 416.5545,63.2188 L416.5545,65.9375 Z " fill="#000000"/><text fill="#000000" font-family="sans-serif" font-size="14" lengthAdjust="spacing" textLength="86.0986" x="427.5858" y="65.1436">Coordinador</text><line style="stroke:#181818;stroke-width:0.5;" x1="399.5858" x2="515.6844" y1="76.2969" y2="76.2969"/><line style="stroke:#181818;stroke-width:0.5;" x1="399.5858" x2="515.6844" y1="84.2969" y2="84.2969"/></g><!--class Colaborador--><g class="entity" data-entity="Colaborador" data-source-line="18" data-uid="ent0007" id="entity_Colaborador"><rect fill="#F1F1F1" height="48" rx="2.5" ry="2.5" style="stroke:#181818;stroke-width:0.5;" width="117.8047" x="259.7358" y="294.2969"/><ellipse cx="274.7358" cy="310.2969" fill="#ADD1B2" rx="11" ry="11" style="stroke:#181818;stroke-width:1;"/><path d="M277.7045,315.9375 Q277.1264,316.2344 276.4858,316.375 Q275.8451,316.5313 275.142,316.5313 Q272.642,316.5313 271.3139,314.8906 Q270.0014,313.2344 270.0014,310.1094 Q270.0014,306.9844 271.3139,305.3281 Q272.642,303.6719 275.142,303.6719 Q275.8451,303.6719 276.4858,303.8281 Q277.142,303.9844 277.7045,304.2813 L277.7045,307 Q277.0795,306.4219 276.4858,306.1563 Q275.892,305.875 275.267,305.875 Q273.9233,305.875 273.2358,306.9531 Q272.5483,308.0156 272.5483,310.1094 Q272.5483,312.2031 273.2358,313.2813 Q273.9233,314.3438 275.267,314.3438 Q275.892,314.3438 276.4858,314.0781 Q277.0795,313.7969 277.7045,313.2188 L277.7045,315.9375 Z " fill="#000000"/><text fill="#000000" font-family="sans-serif" font-size="14" lengthAdjust="spacing" textLength="85.8047" x="288.7358" y="315.1436">Colaborador</text><line style="stroke:#181818;stroke-width:0.5;" x1="260.7358" x2="376.5405" y1="326.2969" y2="326.2969"/><line style="stroke:#181818;stroke-width:0.5;" x1="260.7358" x2="376.5405" y1="334.2969" y2="334.2969"/></g><!--class CargaTrabajo--><g class="entity" data-entity="CargaTrabajo" data-source-line="21" data-uid="ent0008" id="entity_CargaTrabajo"><rect fill="#F1F1F1" height="48" rx="2.5" ry="2.5" style="stroke:#181818;stroke-width:0.5;" width="126.3838" x="26.4458" y="802.5669"/><ellipse cx="41.4458" cy="818.5669" fill="#ADD1B2" rx="11" ry="11" style="stroke:#181818;stroke-width:1;"/><path d="M44.4145,824.2075 Q43.8364,824.5044 43.1958,824.645 Q42.5551,824.8013 41.852,824.8013 Q39.352,824.8013 38.0239,823.1606 Q36.7114,821.5044 36.7114,818.3794 Q36.7114,815.2544 38.0239,813.5981 Q39.352,811.9419 41.852,811.9419 Q42.5551,811.9419 43.1958,812.0981 Q43.852,812.2544 44.4145,812.5513 L44.4145,815.27 Q43.7895,814.6919 43.1958,814.4263 Q42.602,814.145 41.977,814.145 Q40.6333,814.145 39.9458,815.2231 Q39.2583,816.2856 39.2583,818.3794 Q39.2583,820.4731 39.9458,821.5513 Q40.6333,822.6138 41.977,822.6138 Q42.602,822.6138 43.1958,822.3481 Q43.7895,822.0669 44.4145,821.4888 L44.4145,824.2075 Z " fill="#000000"/><text fill="#000000" font-family="sans-serif" font-size="14" lengthAdjust="spacing" textLength="94.3838" x="55.4458" y="823.4136">CargaTrabajo</text><line style="stroke:#181818;stroke-width:0.5;" x1="27.4458" x2="151.8296" y1="834.5669" y2="834.5669"/><line style="stroke:#181818;stroke-width:0.5;" x1="27.4458" x2="151.8296" y1="842.5669" y2="842.5669"/></g><!--class Entregables--><g class="entity" data-entity="Entregables" data-source-line="24" data-uid="ent0009" id="entity_Entregables"><rect fill="#F1F1F1" height="48" rx="2.5" ry="2.5" style="stroke:#181818;stroke-width:0.5;" width="115.7266" x="410.7758" y="802.5669"/><ellipse cx="425.7758" cy="818.5669" fill="#ADD1B2" rx="11" ry="11" style="stroke:#181818;stroke-width:1;"/><path d="M428.7445,824.2075 Q428.1664,824.5044 427.5258,824.645 Q426.8851,824.8013 426.182,824.8013 Q423.682,824.8013 422.3539,823.1606 Q421.0414,821.5044 421.0414,818.3794 Q421.0414,815.2544 422.3539,813.5981 Q423.682,811.9419 426.182,811.9419 Q426.8851,811.9419 427.5258,812.0981 Q428.182,812.2544 428.7445,812.5513 L428.7445,815.27 Q428.1195,814.6919 427.5258,814.4263 Q426.932,814.145 426.307,814.145 Q424.9633,814.145 424.2758,815.2231 Q423.5883,816.2856 423.5883,818.3794 Q423.5883,820.4731 424.2758,821.5513 Q424.9633,822.6138 426.307,822.6138 Q426.932,822.6138 427.5258,822.3481 Q428.1195,822.0669 428.7445,821.4888 L428.7445,824.2075 Z " fill="#000000"/><text fill="#000000" font-family="sans-serif" font-size="14" lengthAdjust="spacing" textLength="83.7266" x="439.7758" y="823.4136">Entregables</text><line style="stroke:#181818;stroke-width:0.5;" x1="411.7758" x2="525.5023" y1="834.5669" y2="834.5669"/><line style="stroke:#181818;stroke-width:0.5;" x1="411.7758" x2="525.5023" y1="842.5669" y2="842.5669"/></g><!--class Recompensa--><g class="entity" data-entity="Recompensa" data-source-line="27" data-uid="ent0010" id="entity_Recompensa"><rect fill="#F1F1F1" height="48" rx="2.5" ry="2.5" style="stroke:#181818;stroke-width:0.5;" width="122.4873" x="326.3958" y="552.5669"/><ellipse cx="341.3958" cy="568.5669" fill="#ADD1B2" rx="11" ry="11" style="stroke:#181818;stroke-width:1;"/><path d="M344.3645,574.2075 Q343.7864,574.5044 343.1458,574.645 Q342.5051,574.8013 341.802,574.8013 Q339.302,574.8013 337.9739,573.1606 Q336.6614,571.5044 336.6614,568.3794 Q336.6614,565.2544 337.9739,563.5981 Q339.302,561.9419 341.802,561.9419 Q342.5051,561.9419 343.1458,562.0981 Q343.802,562.2544 344.3645,562.5513 L344.3645,565.27 Q343.7395,564.6919 343.1458,564.4263 Q342.552,564.145 341.927,564.145 Q340.5833,564.145 339.8958,565.2231 Q339.2083,566.2856 339.2083,568.3794 Q339.2083,570.4731 339.8958,571.5513 Q340.5833,572.6138 341.927,572.6138 Q342.552,572.6138 343.1458,572.3481 Q343.7395,572.0669 344.3645,571.4888 L344.3645,574.2075 Z " fill="#000000"/><text fill="#000000" font-family="sans-serif" font-size="14" lengthAdjust="spacing" textLength="90.4873" x="355.3958" y="573.4136">Recompensa</text><line style="stroke:#181818;stroke-width:0.5;" x1="327.3958" x2="447.8831" y1="584.5669" y2="584.5669"/><line style="stroke:#181818;stroke-width:0.5;" x1="327.3958" x2="447.8831" y1="592.5669" y2="592.5669"/></g><!--class PerfilInvestigador--><g class="entity" data-entity="PerfilInvestigador" data-source-line="30" data-uid="ent0011" id="entity_PerfilInvestigador"><rect fill="#F1F1F1" height="48" rx="2.5" ry="2.5" style="stroke:#181818;stroke-width:0.5;" width="154.7666" x="188.2558" y="802.5669"/><ellipse cx="203.2558" cy="818.5669" fill="#ADD1B2" rx="11" ry="11" style="stroke:#181818;stroke-width:1;"/><path d="M206.2245,824.2075 Q205.6464,824.5044 205.0058,824.645 Q204.3651,824.8013 203.662,824.8013 Q201.162,824.8013 199.8339,823.1606 Q198.5214,821.5044 198.5214,818.3794 Q198.5214,815.2544 199.8339,813.5981 Q201.162,811.9419 203.662,811.9419 Q204.3651,811.9419 205.0058,812.0981 Q205.662,812.2544 206.2245,812.5513 L206.2245,815.27 Q205.5995,814.6919 205.0058,814.4263 Q204.412,814.145 203.787,814.145 Q202.4433,814.145 201.7558,815.2231 Q201.0683,816.2856 201.0683,818.3794 Q201.0683,820.4731 201.7558,821.5513 Q202.4433,822.6138 203.787,822.6138 Q204.412,822.6138 205.0058,822.3481 Q205.5995,822.0669 206.2245,821.4888 L206.2245,824.2075 Z " fill="#000000"/><text fill="#000000" font-family="sans-serif" font-size="14" lengthAdjust="spacing" textLength="122.7666" x="217.2558" y="823.4136">PerfilInvestigador</text><line style="stroke:#181818;stroke-width:0.5;" x1="189.2558" x2="342.0224" y1="834.5669" y2="834.5669"/><line style="stroke:#181818;stroke-width:0.5;" x1="189.2558" x2="342.0224" y1="842.5669" y2="842.5669"/></g><!--link Convocatoria to Propuesta--><g class="link" data-entity-1="Convocatoria" data-entity-2="Propuesta" data-source-line="34" data-uid="lnk12" id="link_Convocatoria_Propuesta"><path codeLine="34" d="M458.7758,217.7269 C459.8458,239.6169 461.1452,266.1139 462.2052,287.9739" fill="none" id="Convocatoria-to-Propuesta" style="stroke:#181818;stroke-width:1;"/><polygon fill="#181818" points="462.4958,293.9669,466.0552,284.7837,462.2536,288.9727,458.0646,285.1712,462.4958,293.9669" style="stroke:#181818;stroke-width:1;"/><text fill="#000000" font-family="sans-serif" font-size="13" lengthAdjust="spacing" textLength="45.7983" x="461.6358" y="260.3638">genera</text></g><!--link Propuesta to Proyecto--><g class="link" data-entity-1="Propuesta" data-entity-2="Proyecto" data-source-line="35" data-uid="lnk13" id="link_Propuesta_Proyecto"><path codeLine="35" d="M437.7858,342.7969 C422.6658,356.4669 403.1658,373.9669 385.6358,389.2969 C374.4758,399.0669 366.7254,405.7386 355.7254,415.0986" fill="none" id="Propuesta-to-Proyecto" style="stroke:#181818;stroke-width:1;"/><polygon fill="#181818" points="351.1558,418.9869,360.6024,416.2008,354.9638,415.7466,355.4179,410.108,351.1558,418.9869" style="stroke:#181818;stroke-width:1;"/><text fill="#000000" font-family="sans-serif" font-size="13" lengthAdjust="spacing" textLength="45.7983" x="403.6358" y="385.3638">genera</text></g><!--reverse link Proyecto to InvestigadorDocente--><g class="link" data-entity-1="Proyecto" data-entity-2="InvestigadorDocente" data-source-line="38" data-uid="lnk14" id="link_Proyecto_InvestigadorDocente"><path codeLine="38" d="M261.1069,480.4587 C233.1869,498.3787 210.4358,518.6769 194.6358,552.5669 C175.1558,594.3769 200.7258,647.2669 219.3558,677.1669" fill="none" id="Proyecto-backto-InvestigadorDocente" style="stroke:#181818;stroke-width:1;"/><polygon fill="none" points="271.2058,473.9769,263.9958,473.8515,261.1069,480.4587,268.3169,480.584,271.2058,473.9769" style="stroke:#181818;stroke-width:1;"/><text fill="#000000" font-family="sans-serif" font-size="13" lengthAdjust="spacing" textLength="112.3599" x="195.6358" y="581.1338">est&#225; formado por</text></g><!--reverse link Proyecto to Entregables--><g class="link" data-entity-1="Proyecto" data-entity-2="Entregables" data-source-line="39" data-uid="lnk15" id="link_Proyecto_Entregables"><path codeLine="39" d="M376.9424,471.4132 C412.4524,487.7932 447.2258,510.8369 466.6358,552.5669 C506.0258,637.2269 485.9758,753.2569 474.6458,802.2369" fill="none" id="Proyecto-backto-Entregables" style="stroke:#181818;stroke-width:1;"/><polygon fill="#181818" points="366.0458,466.3869,369.8186,472.5323,376.9424,471.4132,373.1695,465.2679,366.0458,466.3869" style="stroke:#181818;stroke-width:1;"/><text fill="#000000" font-family="sans-serif" font-size="13" lengthAdjust="spacing" textLength="32.9443" x="489.6358" y="643.6338">tiene</text></g><!--reverse link Proyecto to CargaTrabajo--><g class="link" data-entity-1="Proyecto" data-entity-2="CargaTrabajo" data-source-line="40" data-uid="lnk16" id="link_Proyecto_CargaTrabajo"><path codeLine="40" d="M260.3837,469.865 C238.7437,479.235 224.9158,487.8869 206.6358,505.5669 C119.6758,589.6569 96.9858,743.5969 91.3758,802.1369" fill="none" id="Proyecto-backto-CargaTrabajo" style="stroke:#181818;stroke-width:1;"/><polygon fill="#181818" points="271.3958,465.0969,264.3004,463.8103,260.3837,469.865,267.4791,471.1516,271.3958,465.0969" style="stroke:#181818;stroke-width:1;"/><text fill="#000000" font-family="sans-serif" font-size="13" lengthAdjust="spacing" textLength="45.7983" x="130.6358" y="643.6338">genera</text></g><!--reverse link Proyecto to Recompensa--><g class="link" data-entity-1="Proyecto" data-entity-2="Recompensa" data-source-line="41" data-uid="lnk17" id="link_Proyecto_Recompensa"><path codeLine="41" d="M339.3303,486.5634 C351.7003,509.3534 363.3358,530.7869 375.0058,552.2969" fill="none" id="Proyecto-backto-Recompensa" style="stroke:#181818;stroke-width:1;"/><polygon fill="#181818" points="333.6058,476.0169,332.9525,483.1983,339.3303,486.5634,339.9835,479.382,333.6058,476.0169" style="stroke:#181818;stroke-width:1;"/><text fill="#000000" font-family="sans-serif" font-size="13" lengthAdjust="spacing" textLength="45.7983" x="357.6358" y="518.6338">genera</text></g><!--link Coordinador to Proyecto--><g class="link" data-entity-1="Coordinador" data-entity-2="Proyecto" data-source-line="44" data-uid="lnk18" id="link_Coordinador_Proyecto"><path codeLine="44" d="M422.4658,92.5469 C371.4358,128.6369 279.0358,203.5369 242.6358,294.2969 C224.6158,339.2469 256.751,384.6796 285.141,414.6696" fill="none" id="Coordinador-to-Proyecto" style="stroke:#181818;stroke-width:1;"/><polygon fill="#181818" points="289.2658,419.0269,285.9834,409.7411,285.8284,415.3958,280.1737,415.2408,289.2658,419.0269" style="stroke:#181818;stroke-width:1;"/><text fill="#000000" font-family="sans-serif" font-size="13" lengthAdjust="spacing" textLength="56.4688" x="266.6358" y="260.3638">coordina</text></g><!--link Coordinador to Convocatoria--><g class="link" data-entity-1="Coordinador" data-entity-2="Convocatoria" data-source-line="45" data-uid="lnk19" id="link_Coordinador_Convocatoria"><path codeLine="45" d="M457.6358,92.7269 C457.6358,114.6169 457.6358,141.1069 457.6358,162.9669" fill="none" id="Coordinador-to-Convocatoria" style="stroke:#181818;stroke-width:1;"/><polygon fill="#181818" points="457.6358,168.9669,461.6358,159.9669,457.6358,163.9669,453.6358,159.9669,457.6358,168.9669" style="stroke:#181818;stroke-width:1;"/><text fill="#000000" font-family="sans-serif" font-size="13" lengthAdjust="spacing" textLength="38.3779" x="458.6358" y="135.3638">busca</text></g><!--link Coordinador to InvestigadorDocente--><g class="link" data-entity-1="Coordinador" data-entity-2="InvestigadorDocente" data-source-line="46" data-uid="lnk20" id="link_Coordinador_InvestigadorDocente"><path codeLine="46" d="M500.7858,92.7569 C533.4158,113.9869 572.6358,148.5969 572.6358,192.2969 C572.6358,192.2969 572.6358,192.2969 572.6358,577.5669 C572.6358,613.8469 560.4958,626.9569 530.6358,647.5669 C497.9258,670.1369 405.191,684.0022 330.891,692.0322" fill="none" id="Coordinador-to-InvestigadorDocente" style="stroke:#181818;stroke-width:1;"/><polygon fill="#181818" points="324.9258,692.6769,334.3035,695.6867,329.8968,692.1396,333.4439,687.733,324.9258,692.6769" style="stroke:#181818;stroke-width:1;"/><text fill="#000000" font-family="sans-serif" font-size="13" lengthAdjust="spacing" textLength="45.4048" x="573.6358" y="385.3638">recluta</text></g><!--link Colaborador to Proyecto--><g class="link" data-entity-1="Colaborador" data-entity-2="Proyecto" data-source-line="49" data-uid="lnk21" id="link_Colaborador_Proyecto"><path codeLine="49" d="M318.6358,342.6169 C318.6358,364.1269 318.6358,390.0669 318.6358,412.8369" fill="none" id="Colaborador-to-Proyecto" style="stroke:#181818;stroke-width:1;"/><polygon fill="#181818" points="318.6358,418.8369,322.6358,409.8369,318.6358,413.8369,314.6358,409.8369,318.6358,418.8369" style="stroke:#181818;stroke-width:1;"/><text fill="#000000" font-family="sans-serif" font-size="13" lengthAdjust="spacing" textLength="57.2495" x="319.6358" y="385.3638">participa</text></g><!--link InvestigadorDocente to CargaTrabajo--><g class="link" data-entity-1="InvestigadorDocente" data-entity-2="CargaTrabajo" data-source-line="52" data-uid="lnk22" id="link_InvestigadorDocente_CargaTrabajo"><path codeLine="52" d="M207.8358,725.9869 C181.8558,747.8769 147.8746,776.5013 121.9246,798.3613" fill="none" id="InvestigadorDocente-to-CargaTrabajo" style="stroke:#181818;stroke-width:1;"/><polygon fill="#181818" points="117.3358,802.2269,126.7961,799.4877,121.1598,799.0056,121.642,793.3693,117.3358,802.2269" style="stroke:#181818;stroke-width:1;"/><text fill="#000000" font-family="sans-serif" font-size="13" lengthAdjust="spacing" textLength="32.9443" x="172.6358" y="768.6338">tiene</text></g><!--reverse link InvestigadorDocente to PerfilInvestigador--><g class="link" data-entity-1="InvestigadorDocente" data-entity-2="PerfilInvestigador" data-source-line="53" data-uid="lnk23" id="link_InvestigadorDocente_PerfilInvestigador"><path codeLine="53" d="M244.1947,737.6462 C249.5247,759.5362 254.6158,780.3669 259.9458,802.2269" fill="none" id="InvestigadorDocente-backto-PerfilInvestigador" style="stroke:#181818;stroke-width:1;"/><polygon fill="#181818" points="241.3558,725.9869,238.8888,732.7629,244.1947,737.6462,246.6617,730.8702,241.3558,725.9869" style="stroke:#181818;stroke-width:1;"/><text fill="#000000" font-family="sans-serif" font-size="13" lengthAdjust="spacing" textLength="32.9443" x="253.6358" y="768.6338">tiene</text></g><!--link InvestigadorDocente to InvestigadorDocente--><g class="link" data-entity-1="InvestigadorDocente" data-entity-2="InvestigadorDocente" data-source-line="54" data-uid="lnk24" id="link_InvestigadorDocente_InvestigadorDocente"><path codeLine="54" d="M325.0458,690.1469 C345.0058,691.1969 359.5758,695.0069 359.5758,701.5669 C359.5758,708.1269 350.9975,711.6217 331.0375,712.6717" fill="none" id="InvestigadorDocente-to-InvestigadorDocente" style="stroke:#181818;stroke-width:1;"/><polygon fill="#181818" points="325.0458,712.9869,334.2435,716.5086,330.0389,712.7242,333.8232,708.5196,325.0458,712.9869" style="stroke:#181818;stroke-width:1;"/><text fill="#000000" font-family="sans-serif" font-size="13" lengthAdjust="spacing" textLength="94.1802" x="365.5758" y="706.1338">interact&#250;a con</text></g><!--link InvestigadorDocente to Entregables--><g class="link" data-entity-1="InvestigadorDocente" data-entity-2="Entregables" data-source-line="55" data-uid="lnk25" id="link_InvestigadorDocente_Entregables"><path codeLine="55" d="M280.0158,725.9869 C321.4758,747.8769 377.72,777.5653 419.12,799.4253" fill="none" id="InvestigadorDocente-to-Entregables" style="stroke:#181818;stroke-width:1;"/><polygon fill="#181818" points="424.4258,802.2269,418.3348,794.4874,420.0043,799.8922,414.5994,801.5617,424.4258,802.2269" style="stroke:#181818;stroke-width:1;"/><text fill="#000000" font-family="sans-serif" font-size="13" lengthAdjust="spacing" textLength="45.7983" x="366.6358" y="768.6338">genera</text></g><!--link Recompensa to InvestigadorDocente--><g class="link" data-entity-1="Recompensa" data-entity-2="InvestigadorDocente" data-source-line="58" data-uid="lnk26" id="link_Recompensa_InvestigadorDocente"><path codeLine="58" d="M358.6858,600.9869 C331.6458,622.8769 296.1497,651.5922 269.1397,673.4522" fill="none" id="Recompensa-to-InvestigadorDocente" style="stroke:#181818;stroke-width:1;"/><polygon fill="#181818" points="264.4758,677.2269,273.9881,674.6742,268.3624,674.0813,268.9552,668.4556,264.4758,677.2269" style="stroke:#181818;stroke-width:1;"/><text fill="#000000" font-family="sans-serif" font-size="13" lengthAdjust="spacing" textLength="59.4014" x="321.6358" y="643.6338">beneficia</text></g><!--SRC=[VLHBRjj03Dth58Ix29105n020q4-HNT1q1w06jF25EEXm1a728eUfcVeBbjVB9meaJcrN6yCyJro7jyRAViS25Pt7WV17SA6u3PWeWG_ejzwXnlku2kbx0z_Oq4VXL_8PKvm1K-qAQLlyRaG1kKAfLNJE9sGPYPSNp-AZywF6DPh-FBmSAC_-DNy_cJUSdncXvd5ewthX76lewkYFUsE7SLCzIoMZOy5hSi1UvQJCig0tmLx_CcsVX-pq81zK2DC-OaSxqQAgPP9ilN1wfhGYxPjjIMWynnrKF7MRlfY5bHgKu5jkpPm1mD54cnin_feyOpRGqjYCyDnXBHFCA9arLBEcp7MbYLRErXfxV07jYmx1M1aMHtRBhND6jL1zggY9bGEspME5EFguXuVveKgsyam-rpPuJwW4qvbSWVzFhbJqh8PGYxiCvu9zdY_9cdskP9M4l3bRJW9gxf29J3EeYyQ1Tgf19vIMzBslbXjz1J54hbOld1b_zTotXElVu8k7rwnA3xRNT-JVqAUuq_S2-bC-prvNzfmpclfTQf-iZo-0G00]--></g></svg>