<svg xmlns="http://www.w3.org/2000/svg" xmlns:xlink="http://www.w3.org/1999/xlink" contentStyleType="text/css" data-diagram-type="CLASS" height="857px" preserveAspectRatio="none" style="width:779px;height:857px;background:#FFFFFF;" version="1.1" viewBox="0 0 779 857" width="779px" zoomAndPan="magnify"><title>Diagrama de Clases Unificado: Gesti&#243;n de Proyectos + Red de Investigadores</title><defs/><g><g class="title" data-source-line="1"><text fill="#000000" font-family="sans-serif" font-size="14" font-weight="bold" lengthAdjust="spacing" textLength="612.4863" x="76.3492" y="22.9951">Diagrama de Clases Unificado: Gesti&#243;n de Proyectos + Red de Investigadores</text></g><!--class Proyecto--><g class="entity" data-entity="Proyecto" data-source-line="5" data-uid="ent0002" id="entity_Proyecto"><rect fill="#FFAAAA" height="56.2656" rx="2.5" ry="2.5" style="stroke:#181818;stroke-width:0.5;" width="94.0293" x="284.77" y="419.2969"/><ellipse cx="299.77" cy="439.4297" fill="#ADD1B2" rx="11" ry="11" style="stroke:#181818;stroke-width:1;"/><path d="M302.7388,445.0703 Q302.1606,445.3672 301.52,445.5078 Q300.8794,445.6641 300.1763,445.6641 Q297.6763,445.6641 296.3481,444.0234 Q295.0356,442.3672 295.0356,439.2422 Q295.0356,436.1172 296.3481,434.4609 Q297.6763,432.8047 300.1763,432.8047 Q300.8794,432.8047 301.52,432.9609 Q302.1763,433.1172 302.7388,433.4141 L302.7388,436.1328 Q302.1138,435.5547 301.52,435.2891 Q300.9263,435.0078 300.3013,435.0078 Q298.9575,435.0078 298.27,436.0859 Q297.5825,437.1484 297.5825,439.2422 Q297.5825,441.3359 298.27,442.4141 Q298.9575,443.4766 300.3013,443.4766 Q300.9263,443.4766 301.52,443.2109 Q302.1138,442.9297 302.7388,442.3516 L302.7388,445.0703 Z " fill="#000000"/><text fill="#000000" font-family="sans-serif" font-size="12" font-style="italic" lengthAdjust="spacing" textLength="66.0293" x="311.77" y="435.4355">&#171;Principal&#187;</text><text fill="#000000" font-family="sans-serif" font-size="14" lengthAdjust="spacing" textLength="61.4141" x="314.0776" y="451.2607">Proyecto</text><line style="stroke:#181818;stroke-width:0.5;" x1="285.77" x2="377.7993" y1="459.5625" y2="459.5625"/><line style="stroke:#181818;stroke-width:0.5;" x1="285.77" x2="377.7993" y1="467.5625" y2="467.5625"/></g><!--class Convocatoria--><g class="entity" data-entity="Convocatoria" data-source-line="9" data-uid="ent0003" id="entity_Convocatoria"><rect fill="#F1F1F1" height="48" rx="2.5" ry="2.5" style="stroke:#181818;stroke-width:0.5;" width="124.6201" x="207.47" y="169.2969"/><ellipse cx="222.47" cy="185.2969" fill="#ADD1B2" rx="11" ry="11" style="stroke:#181818;stroke-width:1;"/><path d="M225.4388,190.9375 Q224.8606,191.2344 224.22,191.375 Q223.5794,191.5313 222.8763,191.5313 Q220.3763,191.5313 219.0481,189.8906 Q217.7356,188.2344 217.7356,185.1094 Q217.7356,181.9844 219.0481,180.3281 Q220.3763,178.6719 222.8763,178.6719 Q223.5794,178.6719 224.22,178.8281 Q224.8763,178.9844 225.4388,179.2813 L225.4388,182 Q224.8138,181.4219 224.22,181.1563 Q223.6263,180.875 223.0013,180.875 Q221.6575,180.875 220.97,181.9531 Q220.2825,183.0156 220.2825,185.1094 Q220.2825,187.2031 220.97,188.2813 Q221.6575,189.3438 223.0013,189.3438 Q223.6263,189.3438 224.22,189.0781 Q224.8138,188.7969 225.4388,188.2188 L225.4388,190.9375 Z " fill="#000000"/><text fill="#000000" font-family="sans-serif" font-size="14" lengthAdjust="spacing" textLength="92.6201" x="236.47" y="190.1436">Convocatoria</text><line style="stroke:#181818;stroke-width:0.5;" x1="208.47" x2="331.0901" y1="201.2969" y2="201.2969"/><line style="stroke:#181818;stroke-width:0.5;" x1="208.47" x2="331.0901" y1="209.2969" y2="209.2969"/></g><!--class Propuesta--><g class="entity" data-entity="Propuesta" data-source-line="12" data-uid="ent0004" id="entity_Propuesta"><rect fill="#F1F1F1" height="48" rx="2.5" ry="2.5" style="stroke:#181818;stroke-width:0.5;" width="102.499" x="226.53" y="294.2969"/><ellipse cx="241.53" cy="310.2969" fill="#ADD1B2" rx="11" ry="11" style="stroke:#181818;stroke-width:1;"/><path d="M244.4988,315.9375 Q243.9206,316.2344 243.28,316.375 Q242.6394,316.5313 241.9363,316.5313 Q239.4363,316.5313 238.1081,314.8906 Q236.7956,313.2344 236.7956,310.1094 Q236.7956,306.9844 238.1081,305.3281 Q239.4363,303.6719 241.9363,303.6719 Q242.6394,303.6719 243.28,303.8281 Q243.9363,303.9844 244.4988,304.2813 L244.4988,307 Q243.8738,306.4219 243.28,306.1563 Q242.6863,305.875 242.0613,305.875 Q240.7175,305.875 240.03,306.9531 Q239.3425,308.0156 239.3425,310.1094 Q239.3425,312.2031 240.03,313.2813 Q240.7175,314.3438 242.0613,314.3438 Q242.6863,314.3438 243.28,314.0781 Q243.8738,313.7969 244.4988,313.2188 L244.4988,315.9375 Z " fill="#000000"/><text fill="#000000" font-family="sans-serif" font-size="14" lengthAdjust="spacing" textLength="70.499" x="255.53" y="315.1436">Propuesta</text><line style="stroke:#181818;stroke-width:0.5;" x1="227.53" x2="328.029" y1="326.2969" y2="326.2969"/><line style="stroke:#181818;stroke-width:0.5;" x1="227.53" x2="328.029" y1="334.2969" y2="334.2969"/></g><!--class InvestigadorDocente--><g class="entity" data-entity="InvestigadorDocente" data-source-line="15" data-uid="ent0005" id="entity_InvestigadorDocente"><rect fill="#F1F1F1" height="48" rx="2.5" ry="2.5" style="stroke:#181818;stroke-width:0.5;" width="177.8789" x="311.84" y="677.5669"/><ellipse cx="326.84" cy="693.5669" fill="#ADD1B2" rx="11" ry="11" style="stroke:#181818;stroke-width:1;"/><path d="M329.8088,699.2075 Q329.2306,699.5044 328.59,699.645 Q327.9494,699.8013 327.2463,699.8013 Q324.7463,699.8013 323.4181,698.1606 Q322.1056,696.5044 322.1056,693.3794 Q322.1056,690.2544 323.4181,688.5981 Q324.7463,686.9419 327.2463,686.9419 Q327.9494,686.9419 328.59,687.0981 Q329.2463,687.2544 329.8088,687.5513 L329.8088,690.27 Q329.1838,689.6919 328.59,689.4263 Q327.9963,689.145 327.3713,689.145 Q326.0275,689.145 325.34,690.2231 Q324.6525,691.2856 324.6525,693.3794 Q324.6525,695.4731 325.34,696.5513 Q326.0275,697.6138 327.3713,697.6138 Q327.9963,697.6138 328.59,697.3481 Q329.1838,697.0669 329.8088,696.4888 L329.8088,699.2075 Z " fill="#000000"/><text fill="#000000" font-family="sans-serif" font-size="14" lengthAdjust="spacing" textLength="145.8789" x="340.84" y="698.4136">InvestigadorDocente</text><line style="stroke:#181818;stroke-width:0.5;" x1="312.84" x2="488.7189" y1="709.5669" y2="709.5669"/><line style="stroke:#181818;stroke-width:0.5;" x1="312.84" x2="488.7189" y1="717.5669" y2="717.5669"/></g><!--class Coordinador--><g class="entity" data-entity="Coordinador" data-source-line="19" data-uid="ent0006" id="entity_Coordinador"><rect fill="#F1F1F1" height="48" rx="2.5" ry="2.5" style="stroke:#181818;stroke-width:0.5;" width="118.0986" x="325.73" y="44.2969"/><ellipse cx="340.73" cy="60.2969" fill="#ADD1B2" rx="11" ry="11" style="stroke:#181818;stroke-width:1;"/><path d="M343.6988,65.9375 Q343.1206,66.2344 342.48,66.375 Q341.8394,66.5313 341.1363,66.5313 Q338.6363,66.5313 337.3081,64.8906 Q335.9956,63.2344 335.9956,60.1094 Q335.9956,56.9844 337.3081,55.3281 Q338.6363,53.6719 341.1363,53.6719 Q341.8394,53.6719 342.48,53.8281 Q343.1363,53.9844 343.6988,54.2813 L343.6988,57 Q343.0738,56.4219 342.48,56.1563 Q341.8863,55.875 341.2613,55.875 Q339.9175,55.875 339.23,56.9531 Q338.5425,58.0156 338.5425,60.1094 Q338.5425,62.2031 339.23,63.2813 Q339.9175,64.3438 341.2613,64.3438 Q341.8863,64.3438 342.48,64.0781 Q343.0738,63.7969 343.6988,63.2188 L343.6988,65.9375 Z " fill="#000000"/><text fill="#000000" font-family="sans-serif" font-size="14" lengthAdjust="spacing" textLength="86.0986" x="354.73" y="65.1436">Coordinador</text><line style="stroke:#181818;stroke-width:0.5;" x1="326.73" x2="442.8286" y1="76.2969" y2="76.2969"/><line style="stroke:#181818;stroke-width:0.5;" x1="326.73" x2="442.8286" y1="84.2969" y2="84.2969"/></g><!--class Colaborador--><g class="entity" data-entity="Colaborador" data-source-line="22" data-uid="ent0007" id="entity_Colaborador"><rect fill="#F1F1F1" height="48" rx="2.5" ry="2.5" style="stroke:#181818;stroke-width:0.5;" width="117.8047" x="437.88" y="294.2969"/><ellipse cx="452.88" cy="310.2969" fill="#ADD1B2" rx="11" ry="11" style="stroke:#181818;stroke-width:1;"/><path d="M455.8488,315.9375 Q455.2706,316.2344 454.63,316.375 Q453.9894,316.5313 453.2863,316.5313 Q450.7863,316.5313 449.4581,314.8906 Q448.1456,313.2344 448.1456,310.1094 Q448.1456,306.9844 449.4581,305.3281 Q450.7863,303.6719 453.2863,303.6719 Q453.9894,303.6719 454.63,303.8281 Q455.2863,303.9844 455.8488,304.2813 L455.8488,307 Q455.2238,306.4219 454.63,306.1563 Q454.0363,305.875 453.4113,305.875 Q452.0675,305.875 451.38,306.9531 Q450.6925,308.0156 450.6925,310.1094 Q450.6925,312.2031 451.38,313.2813 Q452.0675,314.3438 453.4113,314.3438 Q454.0363,314.3438 454.63,314.0781 Q455.2238,313.7969 455.8488,313.2188 L455.8488,315.9375 Z " fill="#000000"/><text fill="#000000" font-family="sans-serif" font-size="14" lengthAdjust="spacing" textLength="85.8047" x="466.88" y="315.1436">Colaborador</text><line style="stroke:#181818;stroke-width:0.5;" x1="438.88" x2="554.6847" y1="326.2969" y2="326.2969"/><line style="stroke:#181818;stroke-width:0.5;" x1="438.88" x2="554.6847" y1="334.2969" y2="334.2969"/></g><!--class CargaTrabajo--><g class="entity" data-entity="CargaTrabajo" data-source-line="25" data-uid="ent0008" id="entity_CargaTrabajo"><rect fill="#F1F1F1" height="48" rx="2.5" ry="2.5" style="stroke:#181818;stroke-width:0.5;" width="126.3838" x="61.59" y="802.5669"/><ellipse cx="76.59" cy="818.5669" fill="#ADD1B2" rx="11" ry="11" style="stroke:#181818;stroke-width:1;"/><path d="M79.5588,824.2075 Q78.9806,824.5044 78.34,824.645 Q77.6994,824.8013 76.9963,824.8013 Q74.4963,824.8013 73.1681,823.1606 Q71.8556,821.5044 71.8556,818.3794 Q71.8556,815.2544 73.1681,813.5981 Q74.4963,811.9419 76.9963,811.9419 Q77.6994,811.9419 78.34,812.0981 Q78.9963,812.2544 79.5588,812.5513 L79.5588,815.27 Q78.9338,814.6919 78.34,814.4263 Q77.7463,814.145 77.1213,814.145 Q75.7775,814.145 75.09,815.2231 Q74.4025,816.2856 74.4025,818.3794 Q74.4025,820.4731 75.09,821.5513 Q75.7775,822.6138 77.1213,822.6138 Q77.7463,822.6138 78.34,822.3481 Q78.9338,822.0669 79.5588,821.4888 L79.5588,824.2075 Z " fill="#000000"/><text fill="#000000" font-family="sans-serif" font-size="14" lengthAdjust="spacing" textLength="94.3838" x="90.59" y="823.4136">CargaTrabajo</text><line style="stroke:#181818;stroke-width:0.5;" x1="62.59" x2="186.9738" y1="834.5669" y2="834.5669"/><line style="stroke:#181818;stroke-width:0.5;" x1="62.59" x2="186.9738" y1="842.5669" y2="842.5669"/></g><!--class Entregables--><g class="entity" data-entity="Entregables" data-source-line="29" data-uid="ent0009" id="entity_Entregables"><rect fill="#F1F1F1" height="48" rx="2.5" ry="2.5" style="stroke:#181818;stroke-width:0.5;" width="115.7266" x="76.92" y="552.5669"/><ellipse cx="91.92" cy="568.5669" fill="#ADD1B2" rx="11" ry="11" style="stroke:#181818;stroke-width:1;"/><path d="M94.8888,574.2075 Q94.3106,574.5044 93.67,574.645 Q93.0294,574.8013 92.3263,574.8013 Q89.8263,574.8013 88.4981,573.1606 Q87.1856,571.5044 87.1856,568.3794 Q87.1856,565.2544 88.4981,563.5981 Q89.8263,561.9419 92.3263,561.9419 Q93.0294,561.9419 93.67,562.0981 Q94.3263,562.2544 94.8888,562.5513 L94.8888,565.27 Q94.2638,564.6919 93.67,564.4263 Q93.0763,564.145 92.4513,564.145 Q91.1075,564.145 90.42,565.2231 Q89.7325,566.2856 89.7325,568.3794 Q89.7325,570.4731 90.42,571.5513 Q91.1075,572.6138 92.4513,572.6138 Q93.0763,572.6138 93.67,572.3481 Q94.2638,572.0669 94.8888,571.4888 L94.8888,574.2075 Z " fill="#000000"/><text fill="#000000" font-family="sans-serif" font-size="14" lengthAdjust="spacing" textLength="83.7266" x="105.92" y="573.4136">Entregables</text><line style="stroke:#181818;stroke-width:0.5;" x1="77.92" x2="191.6466" y1="584.5669" y2="584.5669"/><line style="stroke:#181818;stroke-width:0.5;" x1="77.92" x2="191.6466" y1="592.5669" y2="592.5669"/></g><!--class Recompensa--><g class="entity" data-entity="Recompensa" data-source-line="32" data-uid="ent0010" id="entity_Recompensa"><rect fill="#F1F1F1" height="48" rx="2.5" ry="2.5" style="stroke:#181818;stroke-width:0.5;" width="122.4873" x="549.54" y="552.5669"/><ellipse cx="564.54" cy="568.5669" fill="#ADD1B2" rx="11" ry="11" style="stroke:#181818;stroke-width:1;"/><path d="M567.5088,574.2075 Q566.9306,574.5044 566.29,574.645 Q565.6494,574.8013 564.9463,574.8013 Q562.4463,574.8013 561.1181,573.1606 Q559.8056,571.5044 559.8056,568.3794 Q559.8056,565.2544 561.1181,563.5981 Q562.4463,561.9419 564.9463,561.9419 Q565.6494,561.9419 566.29,562.0981 Q566.9463,562.2544 567.5088,562.5513 L567.5088,565.27 Q566.8838,564.6919 566.29,564.4263 Q565.6963,564.145 565.0713,564.145 Q563.7275,564.145 563.04,565.2231 Q562.3525,566.2856 562.3525,568.3794 Q562.3525,570.4731 563.04,571.5513 Q563.7275,572.6138 565.0713,572.6138 Q565.6963,572.6138 566.29,572.3481 Q566.8838,572.0669 567.5088,571.4888 L567.5088,574.2075 Z " fill="#000000"/><text fill="#000000" font-family="sans-serif" font-size="14" lengthAdjust="spacing" textLength="90.4873" x="578.54" y="573.4136">Recompensa</text><line style="stroke:#181818;stroke-width:0.5;" x1="550.54" x2="671.0273" y1="584.5669" y2="584.5669"/><line style="stroke:#181818;stroke-width:0.5;" x1="550.54" x2="671.0273" y1="592.5669" y2="592.5669"/></g><!--class PerfilInvestigador--><g class="entity" data-entity="PerfilInvestigador" data-source-line="35" data-uid="ent0011" id="entity_PerfilInvestigador"><rect fill="#F1F1F1" height="48" rx="2.5" ry="2.5" style="stroke:#181818;stroke-width:0.5;" width="154.7666" x="323.4" y="802.5669"/><ellipse cx="338.4" cy="818.5669" fill="#ADD1B2" rx="11" ry="11" style="stroke:#181818;stroke-width:1;"/><path d="M341.3688,824.2075 Q340.7906,824.5044 340.15,824.645 Q339.5094,824.8013 338.8063,824.8013 Q336.3063,824.8013 334.9781,823.1606 Q333.6656,821.5044 333.6656,818.3794 Q333.6656,815.2544 334.9781,813.5981 Q336.3063,811.9419 338.8063,811.9419 Q339.5094,811.9419 340.15,812.0981 Q340.8063,812.2544 341.3688,812.5513 L341.3688,815.27 Q340.7438,814.6919 340.15,814.4263 Q339.5563,814.145 338.9313,814.145 Q337.5875,814.145 336.9,815.2231 Q336.2125,816.2856 336.2125,818.3794 Q336.2125,820.4731 336.9,821.5513 Q337.5875,822.6138 338.9313,822.6138 Q339.5563,822.6138 340.15,822.3481 Q340.7438,822.0669 341.3688,821.4888 L341.3688,824.2075 Z " fill="#000000"/><text fill="#000000" font-family="sans-serif" font-size="14" lengthAdjust="spacing" textLength="122.7666" x="352.4" y="823.4136">PerfilInvestigador</text><line style="stroke:#181818;stroke-width:0.5;" x1="324.4" x2="477.1666" y1="834.5669" y2="834.5669"/><line style="stroke:#181818;stroke-width:0.5;" x1="324.4" x2="477.1666" y1="842.5669" y2="842.5669"/></g><!--link Convocatoria to Propuesta--><g class="link" data-entity-1="Convocatoria" data-entity-2="Propuesta" data-source-line="40" data-uid="lnk12" id="link_Convocatoria_Propuesta"><path codeLine="40" d="M271.31,217.7269 C272.73,239.6169 274.4511,266.1195 275.8711,287.9795" fill="none" id="Convocatoria-to-Propuesta" style="stroke:#181818;stroke-width:1;"/><polygon fill="#181818" points="276.26,293.9669,279.6682,284.7265,275.9359,288.9774,271.685,285.2451,276.26,293.9669" style="stroke:#181818;stroke-width:1;"/><text fill="#000000" font-family="sans-serif" font-size="13" lengthAdjust="spacing" textLength="45.7983" x="275.78" y="260.3638">genera</text></g><!--link Propuesta to Proyecto--><g class="link" data-entity-1="Propuesta" data-entity-2="Proyecto" data-source-line="41" data-uid="lnk13" id="link_Propuesta_Proyecto"><path codeLine="41" d="M287.69,342.6169 C296.82,364.1269 308.0446,390.5443 317.7146,413.3143" fill="none" id="Propuesta-to-Proyecto" style="stroke:#181818;stroke-width:1;"/><polygon fill="#181818" points="320.06,418.8369,320.2237,408.9894,318.1055,414.2347,312.8602,412.1165,320.06,418.8369" style="stroke:#181818;stroke-width:1;"/><text fill="#000000" font-family="sans-serif" font-size="13" lengthAdjust="spacing" textLength="45.7983" x="307.78" y="385.3638">genera</text></g><!--link Proyecto to InvestigadorDocente--><g class="link" data-entity-1="Proyecto" data-entity-2="InvestigadorDocente" data-source-line="43" data-uid="lnk14" id="link_Proyecto_InvestigadorDocente"><path codeLine="43" d="M339.3,475.8969 C352.95,525.7969 378.4432,618.9323 391.2232,665.6423" fill="none" id="Proyecto-to-InvestigadorDocente" style="stroke:#181818;stroke-width:1;"/><polygon fill="none" points="394.39,677.2169,396.6648,670.374,391.2232,665.6423,388.9484,672.4852,394.39,677.2169" style="stroke:#181818;stroke-width:1;"/><text fill="#000000" font-family="sans-serif" font-size="13" lengthAdjust="spacing" textLength="112.3599" x="373.78" y="581.1338">est&#225; formado por</text></g><!--link InvestigadorDocente to Proyecto--><g class="link" data-entity-1="InvestigadorDocente" data-entity-2="Proyecto" data-source-line="54" data-uid="lnk22" id="link_InvestigadorDocente_Proyecto"><path codeLine="54" d="M358.43,677.1069 C331.88,659.7969 299.9,633.5669 284.78,600.5669 C265.61,558.7269 284.7047,517.0081 304.9747,485.9281" fill="none" id="InvestigadorDocente-to-Proyecto" style="stroke:#181818;stroke-width:1;"/><polygon fill="none" points="311.53,475.8769,304.9019,478.7174,304.9747,485.9281,311.6028,483.0876,311.53,475.8769" style="stroke:#181818;stroke-width:1;"/><text fill="#000000" font-family="sans-serif" font-size="13" lengthAdjust="spacing" textLength="66.5742" x="285.78" y="581.1338">trabaja en</text></g><!--link Proyecto to Entregables--><g class="link" data-entity-1="Proyecto" data-entity-2="Entregables" data-source-line="44" data-uid="lnk15" id="link_Proyecto_Entregables"><path codeLine="44" d="M284.45,464.3769 C259,474.1469 227.81,488.1369 202.78,505.5669 C184.01,518.6369 173.9451,528.2806 161.2351,543.0906" fill="none" id="Proyecto-to-Entregables" style="stroke:#181818;stroke-width:1;"/><polygon fill="#181818" points="153.42,552.1969,160.363,550.2487,161.2351,543.0906,154.2921,545.0387,153.42,552.1969" style="stroke:#181818;stroke-width:1;"/><text fill="#000000" font-family="sans-serif" font-size="13" lengthAdjust="spacing" textLength="32.9443" x="203.78" y="518.6338">tiene</text></g><!--link Proyecto to CargaTrabajo--><g class="link" data-entity-1="Proyecto" data-entity-2="CargaTrabajo" data-source-line="45" data-uid="lnk16" id="link_Proyecto_CargaTrabajo"><path codeLine="45" d="M284.32,450.8369 C220.61,456.9269 109.68,478.2669 59.78,552.5669 C6,632.6469 67.5969,742.2136 101.2969,792.2536" fill="none" id="Proyecto-to-CargaTrabajo" style="stroke:#181818;stroke-width:1;"/><polygon fill="#181818" points="108,802.2069,107.9662,794.9959,101.2969,792.2536,101.3307,799.4646,108,802.2069" style="stroke:#181818;stroke-width:1;"/><text fill="#000000" font-family="sans-serif" font-size="13" lengthAdjust="spacing" textLength="45.7983" x="42.78" y="643.6338">genera</text></g><!--link Proyecto to Recompensa--><g class="link" data-entity-1="Proyecto" data-entity-2="Recompensa" data-source-line="46" data-uid="lnk17" id="link_Proyecto_Recompensa"><path codeLine="46" d="M379.11,469.9969 C429.17,492.8069 496.9802,523.7112 548.5102,547.1912" fill="none" id="Proyecto-to-Recompensa" style="stroke:#181818;stroke-width:1;"/><polygon fill="#181818" points="559.43,552.1669,555.6287,546.0391,548.5102,547.1912,552.3115,553.319,559.43,552.1669" style="stroke:#181818;stroke-width:1;"/><text fill="#000000" font-family="sans-serif" font-size="13" lengthAdjust="spacing" textLength="45.7983" x="488.78" y="518.6338">genera</text></g><!--link Coordinador to Proyecto--><g class="link" data-entity-1="Coordinador" data-entity-2="Proyecto" data-source-line="48" data-uid="lnk18" id="link_Coordinador_Proyecto"><path codeLine="48" d="M386.32,92.7569 C389.16,146.4469 392.39,281.8969 361.78,389.2969 C358.9,399.4269 359.801,399.2784 354.871,408.3684" fill="none" id="Coordinador-to-Proyecto" style="stroke:#181818;stroke-width:1;"/><polygon fill="none" points="349.15,418.9169,355.5267,415.5496,354.871,408.3684,348.4943,411.7356,349.15,418.9169" style="stroke:#181818;stroke-width:1;"/><text fill="#000000" font-family="sans-serif" font-size="13" lengthAdjust="spacing" textLength="56.4688" x="385.78" y="260.3638">coordina</text></g><!--link Coordinador to Convocatoria--><g class="link" data-entity-1="Coordinador" data-entity-2="Convocatoria" data-source-line="49" data-uid="lnk19" id="link_Coordinador_Convocatoria"><path codeLine="49" d="M351.98,92.6669 C340.85,101.3469 328.73,111.6769 318.78,122.2969 C305.4,136.5969 299.2385,144.6367 290.1585,158.8867" fill="none" id="Coordinador-to-Convocatoria" style="stroke:#181818;stroke-width:1;"/><polygon fill="none" points="283.71,169.0069,290.3076,166.0963,290.1585,158.8867,283.5609,161.7973,283.71,169.0069" style="stroke:#181818;stroke-width:1;"/><text fill="#000000" font-family="sans-serif" font-size="13" lengthAdjust="spacing" textLength="38.3779" x="319.78" y="135.3638">busca</text></g><!--link Colaborador to Proyecto--><g class="link" data-entity-1="Colaborador" data-entity-2="Proyecto" data-source-line="51" data-uid="lnk20" id="link_Colaborador_Proyecto"><path codeLine="51" d="M468.83,342.7269 C452.17,356.5269 430.48,374.1769 410.78,389.2969 C397.89,399.1969 393.2997,402.697 380.4197,411.967" fill="none" id="Colaborador-to-Proyecto" style="stroke:#181818;stroke-width:1;"/><polygon fill="none" points="370.68,418.9769,377.8865,418.7185,380.4197,411.967,373.2132,412.2254,370.68,418.9769" style="stroke:#181818;stroke-width:1;"/><text fill="#000000" font-family="sans-serif" font-size="13" lengthAdjust="spacing" textLength="57.2495" x="432.78" y="385.3638">participa</text></g><!--link InvestigadorDocente to CargaTrabajo--><g class="link" data-entity-1="InvestigadorDocente" data-entity-2="CargaTrabajo" data-source-line="53" data-uid="lnk21" id="link_InvestigadorDocente_CargaTrabajo"><path codeLine="53" d="M348.22,725.9869 C299.11,747.8769 231.6804,777.9244 182.6304,799.7844" fill="none" id="InvestigadorDocente-to-CargaTrabajo" style="stroke:#181818;stroke-width:1;"/><polygon fill="#181818" points="177.15,802.2269,186.9989,802.2168,181.717,800.1915,183.7423,794.9096,177.15,802.2269" style="stroke:#181818;stroke-width:1;"/><text fill="#000000" font-family="sans-serif" font-size="13" lengthAdjust="spacing" textLength="32.9443" x="280.78" y="768.6338">tiene</text></g><!--link Recompensa to InvestigadorDocente--><g class="link" data-entity-1="Recompensa" data-entity-2="InvestigadorDocente" data-source-line="56" data-uid="lnk23" id="link_Recompensa_InvestigadorDocente"><path codeLine="56" d="M570.79,600.9869 C533.42,622.8769 483.1272,652.3343 445.8072,674.1943" fill="none" id="Recompensa-to-InvestigadorDocente" style="stroke:#181818;stroke-width:1;"/><polygon fill="#181818" points="440.63,677.2269,450.4175,676.1296,444.9444,674.6998,446.3742,669.2266,440.63,677.2269" style="stroke:#181818;stroke-width:1;"/><text fill="#000000" font-family="sans-serif" font-size="13" lengthAdjust="spacing" textLength="59.4014" x="518.78" y="643.6338">beneficia</text></g><!--link InvestigadorDocente to PerfilInvestigador--><g class="link" data-entity-1="InvestigadorDocente" data-entity-2="PerfilInvestigador" data-source-line="63" data-uid="lnk24" id="link_InvestigadorDocente_PerfilInvestigador"><path codeLine="63" d="M400.78,725.9869 C400.78,747.8769 400.78,768.3669 400.78,790.2269" fill="none" id="InvestigadorDocente-to-PerfilInvestigador" style="stroke:#181818;stroke-width:1;"/><polygon fill="#181818" points="400.78,802.2269,404.78,796.2269,400.78,790.2269,396.78,796.2269,400.78,802.2269" style="stroke:#181818;stroke-width:1;"/><text fill="#000000" font-family="sans-serif" font-size="13" lengthAdjust="spacing" textLength="32.9443" x="401.78" y="768.6338">tiene</text></g><!--link InvestigadorDocente to InvestigadorDocente--><g class="link" data-entity-1="InvestigadorDocente" data-entity-2="InvestigadorDocente" data-source-line="64" data-uid="lnk25" id="link_InvestigadorDocente_InvestigadorDocente"><path codeLine="64" d="M490.19,690.1469 C510.15,691.1969 524.72,695.0069 524.72,701.5669 C524.72,708.1269 516.1417,711.6217 496.1817,712.6717" fill="none" id="InvestigadorDocente-to-InvestigadorDocente" style="stroke:#181818;stroke-width:1;"/><polygon fill="#181818" points="490.19,712.9869,499.3877,716.5086,495.1831,712.7242,498.9674,708.5196,490.19,712.9869" style="stroke:#181818;stroke-width:1;"/><text fill="#000000" font-family="sans-serif" font-size="13" lengthAdjust="spacing" textLength="144.3965" x="530.72" y="706.1338">puede interactuar con</text></g><!--link Coordinador to InvestigadorDocente--><g class="link" data-entity-1="Coordinador" data-entity-2="InvestigadorDocente" data-source-line="68" data-uid="lnk26" id="link_Coordinador_InvestigadorDocente"><path codeLine="68" d="M444.01,78.2369 C541.42,94.6169 724.78,133.2969 724.78,192.2969 C724.78,192.2969 724.78,192.2969 724.78,577.5669 C724.78,627.9569 591.9581,663.8638 496.0481,683.4938" fill="none" id="Coordinador-to-InvestigadorDocente" style="stroke:#181818;stroke-width:1;"/><polygon fill="#181818" points="490.17,684.6969,499.7893,686.811,495.0685,683.6943,498.1852,678.9735,490.17,684.6969" style="stroke:#181818;stroke-width:1;"/><text fill="#000000" font-family="sans-serif" font-size="13" lengthAdjust="spacing" textLength="45.4048" x="725.78" y="385.3638">recluta</text></g><!--SRC=[VLD1Ri8m4Bpx5Ijweye78eHKGQbwGwXzmCPP8bV1ZjOEKbNncBwXJ-1ZtH1AR0ZrBRkpuvd9EfXG4qoM1Yl67K99iAZHauTtQxP6O-boU24VpF77Tjqrkq_ImNbuX0sLNUdLxZj09LWcFr5oj73u2nPcipKRgqs3zNmE3wlLanpuKkhm1rquktSQWsE3qZX454qhx4anld3fDDb0LsIEIsExTZosS3KMZc_Ao1M-CHRuuHAQPnkOAYngIIF2RqYxNKFMfqA9jwQEbVLTfH9hMJQFFELGaIL6DPJEW3wtIrzTIbdcHltdC97QyHksZdVIWCRn91wR9dvo24QeKq2IHAnjW4Jc1t5ntfs-IBy-jsumIIev5AtN9wRX5rqnDSZ1T2kar9Z_BhSh_Rt3SN127KuZ26ILYWnsbEDH5q8iZyEWwi_u7TEnfVXVrhqBPJdaeHdvODIXHPPWRRzSSQptnfbqtGRy1G00]--></g></svg>