<svg xmlns="http://www.w3.org/2000/svg" xmlns:xlink="http://www.w3.org/1999/xlink" contentStyleType="text/css" data-diagram-type="CLASS" height="857px" preserveAspectRatio="none" style="width:817px;height:857px;background:#FFFFFF;" version="1.1" viewBox="0 0 817 857" width="817px" zoomAndPan="magnify"><title>Sistema de gesti&#243;n de proyectos</title><defs/><g><g class="title" data-source-line="1"><text fill="#000000" font-family="sans-serif" font-size="14" font-weight="bold" lengthAdjust="spacing" textLength="259" x="272.2749" y="22.9951">Sistema de gesti&#243;n de proyectos</text></g><!--class Proyecto--><g class="entity" data-entity="Proyecto" data-source-line="4" data-uid="ent0002" id="entity_Proyecto"><rect fill="#FFAAAA" height="56.2656" rx="2.5" ry="2.5" style="stroke:#181818;stroke-width:0.5;" width="94.0293" x="395.18" y="419.2969"/><ellipse cx="410.18" cy="439.4297" fill="#ADD1B2" rx="11" ry="11" style="stroke:#181818;stroke-width:1;"/><path d="M413.1488,445.0703 Q412.5706,445.3672 411.93,445.5078 Q411.2894,445.6641 410.5863,445.6641 Q408.0863,445.6641 406.7581,444.0234 Q405.4456,442.3672 405.4456,439.2422 Q405.4456,436.1172 406.7581,434.4609 Q408.0863,432.8047 410.5863,432.8047 Q411.2894,432.8047 411.93,432.9609 Q412.5863,433.1172 413.1488,433.4141 L413.1488,436.1328 Q412.5238,435.5547 411.93,435.2891 Q411.3363,435.0078 410.7113,435.0078 Q409.3675,435.0078 408.68,436.0859 Q407.9925,437.1484 407.9925,439.2422 Q407.9925,441.3359 408.68,442.4141 Q409.3675,443.4766 410.7113,443.4766 Q411.3363,443.4766 411.93,443.2109 Q412.5238,442.9297 413.1488,442.3516 L413.1488,445.0703 Z " fill="#000000"/><text fill="#000000" font-family="sans-serif" font-size="12" font-style="italic" lengthAdjust="spacing" textLength="66.0293" x="422.18" y="435.4355">&#171;Principal&#187;</text><text fill="#000000" font-family="sans-serif" font-size="14" lengthAdjust="spacing" textLength="61.4141" x="424.4876" y="451.2607">Proyecto</text><line style="stroke:#181818;stroke-width:0.5;" x1="396.18" x2="488.2093" y1="459.5625" y2="459.5625"/><line style="stroke:#181818;stroke-width:0.5;" x1="396.18" x2="488.2093" y1="467.5625" y2="467.5625"/></g><!--class Convocatoria--><g class="entity" data-entity="Convocatoria" data-source-line="8" data-uid="ent0003" id="entity_Convocatoria"><rect fill="#F1F1F1" height="48" rx="2.5" ry="2.5" style="stroke:#181818;stroke-width:0.5;" width="124.6201" x="234.88" y="169.2969"/><ellipse cx="249.88" cy="185.2969" fill="#ADD1B2" rx="11" ry="11" style="stroke:#181818;stroke-width:1;"/><path d="M252.8488,190.9375 Q252.2706,191.2344 251.63,191.375 Q250.9894,191.5313 250.2863,191.5313 Q247.7863,191.5313 246.4581,189.8906 Q245.1456,188.2344 245.1456,185.1094 Q245.1456,181.9844 246.4581,180.3281 Q247.7863,178.6719 250.2863,178.6719 Q250.9894,178.6719 251.63,178.8281 Q252.2863,178.9844 252.8488,179.2813 L252.8488,182 Q252.2238,181.4219 251.63,181.1563 Q251.0363,180.875 250.4113,180.875 Q249.0675,180.875 248.38,181.9531 Q247.6925,183.0156 247.6925,185.1094 Q247.6925,187.2031 248.38,188.2813 Q249.0675,189.3438 250.4113,189.3438 Q251.0363,189.3438 251.63,189.0781 Q252.2238,188.7969 252.8488,188.2188 L252.8488,190.9375 Z " fill="#000000"/><text fill="#000000" font-family="sans-serif" font-size="14" lengthAdjust="spacing" textLength="92.6201" x="263.88" y="190.1436">Convocatoria</text><line style="stroke:#181818;stroke-width:0.5;" x1="235.88" x2="358.5001" y1="201.2969" y2="201.2969"/><line style="stroke:#181818;stroke-width:0.5;" x1="235.88" x2="358.5001" y1="209.2969" y2="209.2969"/></g><!--class Propuesta--><g class="entity" data-entity="Propuesta" data-source-line="12" data-uid="ent0004" id="entity_Propuesta"><rect fill="#F1F1F1" height="48" rx="2.5" ry="2.5" style="stroke:#181818;stroke-width:0.5;" width="102.499" x="245.94" y="294.2969"/><ellipse cx="260.94" cy="310.2969" fill="#ADD1B2" rx="11" ry="11" style="stroke:#181818;stroke-width:1;"/><path d="M263.9088,315.9375 Q263.3306,316.2344 262.69,316.375 Q262.0494,316.5313 261.3463,316.5313 Q258.8463,316.5313 257.5181,314.8906 Q256.2056,313.2344 256.2056,310.1094 Q256.2056,306.9844 257.5181,305.3281 Q258.8463,303.6719 261.3463,303.6719 Q262.0494,303.6719 262.69,303.8281 Q263.3463,303.9844 263.9088,304.2813 L263.9088,307 Q263.2838,306.4219 262.69,306.1563 Q262.0963,305.875 261.4713,305.875 Q260.1275,305.875 259.44,306.9531 Q258.7525,308.0156 258.7525,310.1094 Q258.7525,312.2031 259.44,313.2813 Q260.1275,314.3438 261.4713,314.3438 Q262.0963,314.3438 262.69,314.0781 Q263.2838,313.7969 263.9088,313.2188 L263.9088,315.9375 Z " fill="#000000"/><text fill="#000000" font-family="sans-serif" font-size="14" lengthAdjust="spacing" textLength="70.499" x="274.94" y="315.1436">Propuesta</text><line style="stroke:#181818;stroke-width:0.5;" x1="246.94" x2="347.439" y1="326.2969" y2="326.2969"/><line style="stroke:#181818;stroke-width:0.5;" x1="246.94" x2="347.439" y1="334.2969" y2="334.2969"/></g><!--class InvestigadorDocente--><g class="entity" data-entity="InvestigadorDocente" data-source-line="20" data-uid="ent0005" id="entity_InvestigadorDocente"><rect fill="#F1F1F1" height="48" rx="2.5" ry="2.5" style="stroke:#181818;stroke-width:0.5;" width="177.8789" x="454.25" y="677.5669"/><ellipse cx="469.25" cy="693.5669" fill="#ADD1B2" rx="11" ry="11" style="stroke:#181818;stroke-width:1;"/><path d="M472.2188,699.2075 Q471.6406,699.5044 471,699.645 Q470.3594,699.8013 469.6563,699.8013 Q467.1563,699.8013 465.8281,698.1606 Q464.5156,696.5044 464.5156,693.3794 Q464.5156,690.2544 465.8281,688.5981 Q467.1563,686.9419 469.6563,686.9419 Q470.3594,686.9419 471,687.0981 Q471.6563,687.2544 472.2188,687.5513 L472.2188,690.27 Q471.5938,689.6919 471,689.4263 Q470.4063,689.145 469.7813,689.145 Q468.4375,689.145 467.75,690.2231 Q467.0625,691.2856 467.0625,693.3794 Q467.0625,695.4731 467.75,696.5513 Q468.4375,697.6138 469.7813,697.6138 Q470.4063,697.6138 471,697.3481 Q471.5938,697.0669 472.2188,696.4888 L472.2188,699.2075 Z " fill="#000000"/><text fill="#000000" font-family="sans-serif" font-size="14" lengthAdjust="spacing" textLength="145.8789" x="483.25" y="698.4136">InvestigadorDocente</text><line style="stroke:#181818;stroke-width:0.5;" x1="455.25" x2="631.1289" y1="709.5669" y2="709.5669"/><line style="stroke:#181818;stroke-width:0.5;" x1="455.25" x2="631.1289" y1="717.5669" y2="717.5669"/></g><!--class Coordinador--><g class="entity" data-entity="Coordinador" data-source-line="24" data-uid="ent0006" id="entity_Coordinador"><rect fill="#F1F1F1" height="48" rx="2.5" ry="2.5" style="stroke:#181818;stroke-width:0.5;" width="118.0986" x="383.14" y="294.2969"/><ellipse cx="398.14" cy="310.2969" fill="#ADD1B2" rx="11" ry="11" style="stroke:#181818;stroke-width:1;"/><path d="M401.1088,315.9375 Q400.5306,316.2344 399.89,316.375 Q399.2494,316.5313 398.5463,316.5313 Q396.0463,316.5313 394.7181,314.8906 Q393.4056,313.2344 393.4056,310.1094 Q393.4056,306.9844 394.7181,305.3281 Q396.0463,303.6719 398.5463,303.6719 Q399.2494,303.6719 399.89,303.8281 Q400.5463,303.9844 401.1088,304.2813 L401.1088,307 Q400.4838,306.4219 399.89,306.1563 Q399.2963,305.875 398.6713,305.875 Q397.3275,305.875 396.64,306.9531 Q395.9525,308.0156 395.9525,310.1094 Q395.9525,312.2031 396.64,313.2813 Q397.3275,314.3438 398.6713,314.3438 Q399.2963,314.3438 399.89,314.0781 Q400.4838,313.7969 401.1088,313.2188 L401.1088,315.9375 Z " fill="#000000"/><text fill="#000000" font-family="sans-serif" font-size="14" lengthAdjust="spacing" textLength="86.0986" x="412.14" y="315.1436">Coordinador</text><line style="stroke:#181818;stroke-width:0.5;" x1="384.14" x2="500.2386" y1="326.2969" y2="326.2969"/><line style="stroke:#181818;stroke-width:0.5;" x1="384.14" x2="500.2386" y1="334.2969" y2="334.2969"/></g><!--class Antena--><g class="entity" data-entity="Antena" data-source-line="28" data-uid="ent0007" id="entity_Antena"><rect fill="#F1F1F1" height="48" rx="2.5" ry="2.5" style="stroke:#181818;stroke-width:0.5;" width="82.0049" x="256.19" y="44.2969"/><ellipse cx="271.19" cy="60.2969" fill="#ADD1B2" rx="11" ry="11" style="stroke:#181818;stroke-width:1;"/><path d="M274.1588,65.9375 Q273.5806,66.2344 272.94,66.375 Q272.2994,66.5313 271.5963,66.5313 Q269.0963,66.5313 267.7681,64.8906 Q266.4556,63.2344 266.4556,60.1094 Q266.4556,56.9844 267.7681,55.3281 Q269.0963,53.6719 271.5963,53.6719 Q272.2994,53.6719 272.94,53.8281 Q273.5963,53.9844 274.1588,54.2813 L274.1588,57 Q273.5338,56.4219 272.94,56.1563 Q272.3463,55.875 271.7213,55.875 Q270.3775,55.875 269.69,56.9531 Q269.0025,58.0156 269.0025,60.1094 Q269.0025,62.2031 269.69,63.2813 Q270.3775,64.3438 271.7213,64.3438 Q272.3463,64.3438 272.94,64.0781 Q273.5338,63.7969 274.1588,63.2188 L274.1588,65.9375 Z " fill="#000000"/><text fill="#000000" font-family="sans-serif" font-size="14" lengthAdjust="spacing" textLength="50.0049" x="285.19" y="65.1436">Antena</text><line style="stroke:#181818;stroke-width:0.5;" x1="257.19" x2="337.1949" y1="76.2969" y2="76.2969"/><line style="stroke:#181818;stroke-width:0.5;" x1="257.19" x2="337.1949" y1="84.2969" y2="84.2969"/></g><!--class Colaborador--><g class="entity" data-entity="Colaborador" data-source-line="32" data-uid="ent0008" id="entity_Colaborador"><rect fill="#F1F1F1" height="48" rx="2.5" ry="2.5" style="stroke:#181818;stroke-width:0.5;" width="117.8047" x="536.29" y="294.2969"/><ellipse cx="551.29" cy="310.2969" fill="#ADD1B2" rx="11" ry="11" style="stroke:#181818;stroke-width:1;"/><path d="M554.2588,315.9375 Q553.6806,316.2344 553.04,316.375 Q552.3994,316.5313 551.6963,316.5313 Q549.1963,316.5313 547.8681,314.8906 Q546.5556,313.2344 546.5556,310.1094 Q546.5556,306.9844 547.8681,305.3281 Q549.1963,303.6719 551.6963,303.6719 Q552.3994,303.6719 553.04,303.8281 Q553.6963,303.9844 554.2588,304.2813 L554.2588,307 Q553.6338,306.4219 553.04,306.1563 Q552.4463,305.875 551.8213,305.875 Q550.4775,305.875 549.79,306.9531 Q549.1025,308.0156 549.1025,310.1094 Q549.1025,312.2031 549.79,313.2813 Q550.4775,314.3438 551.8213,314.3438 Q552.4463,314.3438 553.04,314.0781 Q553.6338,313.7969 554.2588,313.2188 L554.2588,315.9375 Z " fill="#000000"/><text fill="#000000" font-family="sans-serif" font-size="14" lengthAdjust="spacing" textLength="85.8047" x="565.29" y="315.1436">Colaborador</text><line style="stroke:#181818;stroke-width:0.5;" x1="537.29" x2="653.0947" y1="326.2969" y2="326.2969"/><line style="stroke:#181818;stroke-width:0.5;" x1="537.29" x2="653.0947" y1="334.2969" y2="334.2969"/></g><!--class EstadoProyecto--><g class="entity" data-entity="EstadoProyecto" data-source-line="39" data-uid="ent0009" id="entity_EstadoProyecto"><rect fill="#F1F1F1" height="48" rx="2.5" ry="2.5" style="stroke:#181818;stroke-width:0.5;" width="141.0742" x="94.65" y="552.5669"/><ellipse cx="109.65" cy="568.5669" fill="#ADD1B2" rx="11" ry="11" style="stroke:#181818;stroke-width:1;"/><path d="M112.6188,574.2075 Q112.0406,574.5044 111.4,574.645 Q110.7594,574.8013 110.0563,574.8013 Q107.5563,574.8013 106.2281,573.1606 Q104.9156,571.5044 104.9156,568.3794 Q104.9156,565.2544 106.2281,563.5981 Q107.5563,561.9419 110.0563,561.9419 Q110.7594,561.9419 111.4,562.0981 Q112.0563,562.2544 112.6188,562.5513 L112.6188,565.27 Q111.9938,564.6919 111.4,564.4263 Q110.8063,564.145 110.1813,564.145 Q108.8375,564.145 108.15,565.2231 Q107.4625,566.2856 107.4625,568.3794 Q107.4625,570.4731 108.15,571.5513 Q108.8375,572.6138 110.1813,572.6138 Q110.8063,572.6138 111.4,572.3481 Q111.9938,572.0669 112.6188,571.4888 L112.6188,574.2075 Z " fill="#000000"/><text fill="#000000" font-family="sans-serif" font-size="14" lengthAdjust="spacing" textLength="109.0742" x="123.65" y="573.4136">EstadoProyecto</text><line style="stroke:#181818;stroke-width:0.5;" x1="95.65" x2="234.7242" y1="584.5669" y2="584.5669"/><line style="stroke:#181818;stroke-width:0.5;" x1="95.65" x2="234.7242" y1="592.5669" y2="592.5669"/></g><!--class CargaTrabajo--><g class="entity" data-entity="CargaTrabajo" data-source-line="43" data-uid="ent0010" id="entity_CargaTrabajo"><rect fill="#F1F1F1" height="48" rx="2.5" ry="2.5" style="stroke:#181818;stroke-width:0.5;" width="126.3838" x="7" y="802.5669"/><ellipse cx="22" cy="818.5669" fill="#ADD1B2" rx="11" ry="11" style="stroke:#181818;stroke-width:1;"/><path d="M24.9688,824.2075 Q24.3906,824.5044 23.75,824.645 Q23.1094,824.8013 22.4063,824.8013 Q19.9063,824.8013 18.5781,823.1606 Q17.2656,821.5044 17.2656,818.3794 Q17.2656,815.2544 18.5781,813.5981 Q19.9063,811.9419 22.4063,811.9419 Q23.1094,811.9419 23.75,812.0981 Q24.4063,812.2544 24.9688,812.5513 L24.9688,815.27 Q24.3438,814.6919 23.75,814.4263 Q23.1563,814.145 22.5313,814.145 Q21.1875,814.145 20.5,815.2231 Q19.8125,816.2856 19.8125,818.3794 Q19.8125,820.4731 20.5,821.5513 Q21.1875,822.6138 22.5313,822.6138 Q23.1563,822.6138 23.75,822.3481 Q24.3438,822.0669 24.9688,821.4888 L24.9688,824.2075 Z " fill="#000000"/><text fill="#000000" font-family="sans-serif" font-size="14" lengthAdjust="spacing" textLength="94.3838" x="36" y="823.4136">CargaTrabajo</text><line style="stroke:#181818;stroke-width:0.5;" x1="8" x2="132.3838" y1="834.5669" y2="834.5669"/><line style="stroke:#181818;stroke-width:0.5;" x1="8" x2="132.3838" y1="842.5669" y2="842.5669"/></g><!--class Entregables--><g class="entity" data-entity="Entregables" data-source-line="47" data-uid="ent0011" id="entity_Entregables"><rect fill="#F1F1F1" height="48" rx="2.5" ry="2.5" style="stroke:#181818;stroke-width:0.5;" width="115.7266" x="428.33" y="552.5669"/><ellipse cx="443.33" cy="568.5669" fill="#ADD1B2" rx="11" ry="11" style="stroke:#181818;stroke-width:1;"/><path d="M446.2988,574.2075 Q445.7206,574.5044 445.08,574.645 Q444.4394,574.8013 443.7363,574.8013 Q441.2363,574.8013 439.9081,573.1606 Q438.5956,571.5044 438.5956,568.3794 Q438.5956,565.2544 439.9081,563.5981 Q441.2363,561.9419 443.7363,561.9419 Q444.4394,561.9419 445.08,562.0981 Q445.7363,562.2544 446.2988,562.5513 L446.2988,565.27 Q445.6738,564.6919 445.08,564.4263 Q444.4863,564.145 443.8613,564.145 Q442.5175,564.145 441.83,565.2231 Q441.1425,566.2856 441.1425,568.3794 Q441.1425,570.4731 441.83,571.5513 Q442.5175,572.6138 443.8613,572.6138 Q444.4863,572.6138 445.08,572.3481 Q445.6738,572.0669 446.2988,571.4888 L446.2988,574.2075 Z " fill="#000000"/><text fill="#000000" font-family="sans-serif" font-size="14" lengthAdjust="spacing" textLength="83.7266" x="457.33" y="573.4136">Entregables</text><line style="stroke:#181818;stroke-width:0.5;" x1="429.33" x2="543.0566" y1="584.5669" y2="584.5669"/><line style="stroke:#181818;stroke-width:0.5;" x1="429.33" x2="543.0566" y1="592.5669" y2="592.5669"/></g><!--class Recompensa--><g class="entity" data-entity="Recompensa" data-source-line="51" data-uid="ent0012" id="entity_Recompensa"><rect fill="#F1F1F1" height="48" rx="2.5" ry="2.5" style="stroke:#181818;stroke-width:0.5;" width="122.4873" x="270.95" y="552.5669"/><ellipse cx="285.95" cy="568.5669" fill="#ADD1B2" rx="11" ry="11" style="stroke:#181818;stroke-width:1;"/><path d="M288.9188,574.2075 Q288.3406,574.5044 287.7,574.645 Q287.0594,574.8013 286.3563,574.8013 Q283.8563,574.8013 282.5281,573.1606 Q281.2156,571.5044 281.2156,568.3794 Q281.2156,565.2544 282.5281,563.5981 Q283.8563,561.9419 286.3563,561.9419 Q287.0594,561.9419 287.7,562.0981 Q288.3563,562.2544 288.9188,562.5513 L288.9188,565.27 Q288.2938,564.6919 287.7,564.4263 Q287.1063,564.145 286.4813,564.145 Q285.1375,564.145 284.45,565.2231 Q283.7625,566.2856 283.7625,568.3794 Q283.7625,570.4731 284.45,571.5513 Q285.1375,572.6138 286.4813,572.6138 Q287.1063,572.6138 287.7,572.3481 Q288.2938,572.0669 288.9188,571.4888 L288.9188,574.2075 Z " fill="#000000"/><text fill="#000000" font-family="sans-serif" font-size="14" lengthAdjust="spacing" textLength="90.4873" x="299.95" y="573.4136">Recompensa</text><line style="stroke:#181818;stroke-width:0.5;" x1="271.95" x2="392.4373" y1="584.5669" y2="584.5669"/><line style="stroke:#181818;stroke-width:0.5;" x1="271.95" x2="392.4373" y1="592.5669" y2="592.5669"/></g><!--link Convocatoria to Propuesta--><g class="link" data-entity-1="Convocatoria" data-entity-2="Propuesta" data-source-line="57" data-uid="lnk13" id="link_Convocatoria_Propuesta"><path codeLine="57" d="M297.19,217.7269 C297.19,239.6169 297.19,254.1069 297.19,275.9669" fill="none" id="Convocatoria-to-Propuesta" style="stroke:#181818;stroke-width:1;"/><polygon fill="none" points="297.19,293.9669,303.19,275.9669,291.19,275.9669,297.19,293.9669" style="stroke:#181818;stroke-width:1;"/><text fill="#000000" font-family="sans-serif" font-size="13" lengthAdjust="spacing" textLength="45.7983" x="298.19" y="260.3638">genera</text></g><!--link Propuesta to Proyecto--><g class="link" data-entity-1="Propuesta" data-entity-2="Proyecto" data-source-line="58" data-uid="lnk14" id="link_Propuesta_Proyecto"><path codeLine="58" d="M323.79,342.6169 C348.31,364.1269 371.2156,384.2001 397.1856,406.9701" fill="none" id="Propuesta-to-Proyecto" style="stroke:#181818;stroke-width:1;"/><polygon fill="none" points="410.72,418.8369,401.1411,402.4587,393.23,411.4816,410.72,418.8369" style="stroke:#181818;stroke-width:1;"/><text fill="#000000" font-family="sans-serif" font-size="13" lengthAdjust="spacing" textLength="45.7983" x="375.19" y="385.3638">genera</text></g><!--link Proyecto to InvestigadorDocente--><g class="link" data-entity-1="Proyecto" data-entity-2="InvestigadorDocente" data-source-line="60" data-uid="lnk15" id="link_Proyecto_InvestigadorDocente"><path codeLine="60" d="M489.62,450.4369 C551.99,456.0869 657.48,476.9169 690.19,552.5669 C698.66,572.1469 698.66,580.9869 690.19,600.5669 C674.69,636.4069 649.3945,655.9639 616.8645,671.9139" fill="none" id="Proyecto-to-InvestigadorDocente" style="stroke:#181818;stroke-width:1;"/><polygon fill="none" points="606.09,677.1969,613.2382,678.1469,616.8645,671.9139,609.7163,670.9639,606.09,677.1969" style="stroke:#181818;stroke-width:1;"/><text fill="#000000" font-family="sans-serif" font-size="13" lengthAdjust="spacing" textLength="112.3599" x="697.19" y="581.1338">est&#225; formado por</text></g><!--link InvestigadorDocente to Proyecto--><g class="link" data-entity-1="InvestigadorDocente" data-entity-2="Proyecto" data-source-line="73" data-uid="lnk24" id="link_InvestigadorDocente_Proyecto"><path codeLine="73" d="M553.33,677.1269 C564.8,646.9469 579.61,593.5269 561.19,552.5669 C546.55,520.0169 525.9996,500.4445 499.5696,482.3945" fill="none" id="InvestigadorDocente-to-Proyecto" style="stroke:#181818;stroke-width:1;"/><polygon fill="none" points="489.66,475.6269,492.3589,482.3139,499.5696,482.3945,496.8707,475.7075,489.66,475.6269" style="stroke:#181818;stroke-width:1;"/><text fill="#000000" font-family="sans-serif" font-size="13" lengthAdjust="spacing" textLength="66.5742" x="570.19" y="581.1338">trabaja en</text></g><!--link Proyecto to EstadoProyecto--><g class="link" data-entity-1="Proyecto" data-entity-2="EstadoProyecto" data-source-line="61" data-uid="lnk16" id="link_Proyecto_EstadoProyecto"><path codeLine="61" d="M394.89,470.1469 C345.13,492.9769 278.0157,523.7804 226.9557,547.2204" fill="none" id="Proyecto-to-EstadoProyecto" style="stroke:#181818;stroke-width:1;"/><polygon fill="#181818" points="216.05,552.2269,223.1717,553.3589,226.9557,547.2204,219.834,546.0884,216.05,552.2269" style="stroke:#181818;stroke-width:1;"/><text fill="#000000" font-family="sans-serif" font-size="13" lengthAdjust="spacing" textLength="32.9443" x="313.19" y="518.6338">tiene</text></g><!--link Proyecto to Entregables--><g class="link" data-entity-1="Proyecto" data-entity-2="Entregables" data-source-line="62" data-uid="lnk17" id="link_Proyecto_Entregables"><path codeLine="62" d="M451.74,476.0169 C459.62,498.8069 466.7627,519.4477 474.2127,540.9577" fill="none" id="Proyecto-to-Entregables" style="stroke:#181818;stroke-width:1;"/><polygon fill="#181818" points="478.14,552.2969,479.9561,545.3182,474.2127,540.9577,472.3966,547.9364,478.14,552.2969" style="stroke:#181818;stroke-width:1;"/><text fill="#000000" font-family="sans-serif" font-size="13" lengthAdjust="spacing" textLength="32.9443" x="467.19" y="518.6338">tiene</text></g><!--link Proyecto to CargaTrabajo--><g class="link" data-entity-1="Proyecto" data-entity-2="CargaTrabajo" data-source-line="63" data-uid="lnk18" id="link_Proyecto_CargaTrabajo"><path codeLine="63" d="M394.88,454.9569 C305.28,468.3769 116.29,502.1069 77.19,552.5669 C19.4,627.1469 43.8137,739.2334 59.0637,790.5834" fill="none" id="Proyecto-to-CargaTrabajo" style="stroke:#181818;stroke-width:1;"/><polygon fill="#181818" points="62.48,802.0869,64.6063,795.1964,59.0637,790.5834,56.9374,797.4739,62.48,802.0869" style="stroke:#181818;stroke-width:1;"/><text fill="#000000" font-family="sans-serif" font-size="13" lengthAdjust="spacing" textLength="45.7983" x="47.19" y="643.6338">genera</text></g><!--link Proyecto to Recompensa--><g class="link" data-entity-1="Proyecto" data-entity-2="Recompensa" data-source-line="64" data-uid="lnk19" id="link_Proyecto_Recompensa"><path codeLine="64" d="M418.32,476.0169 C398.61,498.8069 378.7915,521.7119 360.1815,543.2219" fill="none" id="Proyecto-to-Recompensa" style="stroke:#181818;stroke-width:1;"/><polygon fill="#181818" points="352.33,552.2969,359.2807,550.3766,360.1815,543.2219,353.2307,545.1422,352.33,552.2969" style="stroke:#181818;stroke-width:1;"/><text fill="#000000" font-family="sans-serif" font-size="13" lengthAdjust="spacing" textLength="45.7983" x="392.19" y="518.6338">genera</text></g><!--link Coordinador to Proyecto--><g class="link" data-entity-1="Coordinador" data-entity-2="Proyecto" data-source-line="66" data-uid="lnk20" id="link_Coordinador_Proyecto"><path codeLine="66" d="M442.19,342.6169 C442.19,364.1269 442.19,384.0669 442.19,406.8369" fill="none" id="Coordinador-to-Proyecto" style="stroke:#181818;stroke-width:1;"/><polygon fill="none" points="442.19,418.8369,446.19,412.8369,442.19,406.8369,438.19,412.8369,442.19,418.8369" style="stroke:#181818;stroke-width:1;"/><text fill="#000000" font-family="sans-serif" font-size="13" lengthAdjust="spacing" textLength="56.4688" x="443.19" y="385.3638">coordina</text></g><!--link Antena to Convocatoria--><g class="link" data-entity-1="Antena" data-entity-2="Convocatoria" data-source-line="68" data-uid="lnk21" id="link_Antena_Convocatoria"><path codeLine="68" d="M297.19,92.7269 C297.19,114.6169 297.19,135.1069 297.19,156.9669" fill="none" id="Antena-to-Convocatoria" style="stroke:#181818;stroke-width:1;"/><polygon fill="none" points="297.19,168.9669,301.19,162.9669,297.19,156.9669,293.19,162.9669,297.19,168.9669" style="stroke:#181818;stroke-width:1;"/><text fill="#000000" font-family="sans-serif" font-size="13" lengthAdjust="spacing" textLength="38.3779" x="298.19" y="135.3638">busca</text></g><!--link Colaborador to Proyecto--><g class="link" data-entity-1="Colaborador" data-entity-2="Proyecto" data-source-line="70" data-uid="lnk22" id="link_Colaborador_Proyecto"><path codeLine="70" d="M567.13,342.6169 C541.25,364.1269 512.0291,388.3973 484.6291,411.1673" fill="none" id="Colaborador-to-Proyecto" style="stroke:#181818;stroke-width:1;"/><polygon fill="none" points="475.4,418.8369,482.5711,418.0784,484.6291,411.1673,477.458,411.9257,475.4,418.8369" style="stroke:#181818;stroke-width:1;"/><text fill="#000000" font-family="sans-serif" font-size="13" lengthAdjust="spacing" textLength="107.4658" x="528.19" y="385.3638">puede participar</text></g><!--link InvestigadorDocente to CargaTrabajo--><g class="link" data-entity-1="InvestigadorDocente" data-entity-2="CargaTrabajo" data-source-line="72" data-uid="lnk23" id="link_InvestigadorDocente_CargaTrabajo"><path codeLine="72" d="M453.95,725.7769 C360.51,750.0669 221.9569,786.0969 139.5069,807.5369" fill="none" id="InvestigadorDocente-to-CargaTrabajo" style="stroke:#181818;stroke-width:1;"/><polygon fill="#181818" points="133.7,809.0469,143.417,810.6531,138.5391,807.7885,141.4037,802.9106,133.7,809.0469" style="stroke:#181818;stroke-width:1;"/><text fill="#000000" font-family="sans-serif" font-size="13" lengthAdjust="spacing" textLength="32.9443" x="336.19" y="768.6338">tiene</text></g><!--link Recompensa to InvestigadorDocente--><g class="link" data-entity-1="Recompensa" data-entity-2="InvestigadorDocente" data-source-line="75" data-uid="lnk25" id="link_Recompensa_InvestigadorDocente"><path codeLine="75" d="M372.38,600.9869 C409.92,622.8769 460.4764,652.3452 497.9764,674.2052" fill="none" id="Recompensa-to-InvestigadorDocente" style="stroke:#181818;stroke-width:1;"/><polygon fill="#181818" points="503.16,677.2269,497.3991,669.2386,498.8404,674.7088,493.3702,676.1501,503.16,677.2269" style="stroke:#181818;stroke-width:1;"/><text fill="#000000" font-family="sans-serif" font-size="13" lengthAdjust="spacing" textLength="71.5" x="451.19" y="643.6338">beneficia a</text></g><!--SRC=[RL9HQiCm3FtNAGJx6-G2eGJAriB-ohOBA8uRF58ho6vXR3lCph0Zz69pqjHsGl8LdfwUtfFiZUzqYM_6UNqYR3Issdbp_RF3Vo_ygPLd1m2g8-VmC26usHp4M6LwwgeA7_RxRVY-07xkp2Us5rRaMGpbU53eps7614AKVh6NONHB3SipAsszdkknDCOErHpU1fgbER6ZcYKHuuHTcDhmFSAiXwIbTw6QFcRupdhHBTMTTZdygXMVUcrT396dnQBuhbBECgpKQY68I2ICFc8TudABWjVMKM90hhzuP3a567kMlETn4R14RuBoWf8IhTRpJUJE4oE5JywpuupcamKrLG1kbnhB-RPAhCzEZHhnRWkDiBNXCP9uCpmu0LXPJkYf5kvlyTQvkRuV6mYr1KZfHi7LAzH1zXYi4D8_]--></g></svg>