<svg xmlns="http://www.w3.org/2000/svg" xmlns:xlink="http://www.w3.org/1999/xlink" contentStyleType="text/css" data-diagram-type="CLASS" height="482px" preserveAspectRatio="none" style="width:437px;height:482px;background:#FFFFFF;" version="1.1" viewBox="0 0 437 482" width="437px" zoomAndPan="magnify"><title>Sistema de red de investigadores</title><defs/><g><g class="title" data-source-line="1"><text fill="#000000" font-family="sans-serif" font-size="14" font-weight="bold" lengthAdjust="spacing" textLength="265.4395" x="79.0672" y="22.9951">Sistema de red de investigadores</text></g><!--class InvestigadorDocente--><g class="entity" data-entity="InvestigadorDocente" data-source-line="5" data-uid="ent0002" id="entity_InvestigadorDocente"><rect fill="#FFAAAA" height="56.2656" rx="2.5" ry="2.5" style="stroke:#181818;stroke-width:0.5;" width="177.8789" x="88.77" y="169.2969"/><ellipse cx="103.77" cy="189.4297" fill="#ADD1B2" rx="11" ry="11" style="stroke:#181818;stroke-width:1;"/><path d="M106.7388,195.0703 Q106.1606,195.3672 105.52,195.5078 Q104.8794,195.6641 104.1763,195.6641 Q101.6763,195.6641 100.3481,194.0234 Q99.0356,192.3672 99.0356,189.2422 Q99.0356,186.1172 100.3481,184.4609 Q101.6763,182.8047 104.1763,182.8047 Q104.8794,182.8047 105.52,182.9609 Q106.1763,183.1172 106.7388,183.4141 L106.7388,186.1328 Q106.1138,185.5547 105.52,185.2891 Q104.9263,185.0078 104.3013,185.0078 Q102.9575,185.0078 102.27,186.0859 Q101.5825,187.1484 101.5825,189.2422 Q101.5825,191.3359 102.27,192.4141 Q102.9575,193.4766 104.3013,193.4766 Q104.9263,193.4766 105.52,193.2109 Q106.1138,192.9297 106.7388,192.3516 L106.7388,195.0703 Z " fill="#000000"/><text fill="#000000" font-family="sans-serif" font-size="12" font-style="italic" lengthAdjust="spacing" textLength="66.0293" x="157.6948" y="185.4355">&#171;Principal&#187;</text><text fill="#000000" font-family="sans-serif" font-size="14" lengthAdjust="spacing" textLength="145.8789" x="117.77" y="201.2607">InvestigadorDocente</text><line style="stroke:#181818;stroke-width:0.5;" x1="89.77" x2="265.6489" y1="209.5625" y2="209.5625"/><line style="stroke:#181818;stroke-width:0.5;" x1="89.77" x2="265.6489" y1="217.5625" y2="217.5625"/></g><!--class Proyecto--><g class="entity" data-entity="Proyecto" data-source-line="10" data-uid="ent0003" id="entity_Proyecto"><rect fill="#F1F1F1" height="48" rx="2.5" ry="2.5" style="stroke:#181818;stroke-width:0.5;" width="93.4141" x="7" y="302.5669"/><ellipse cx="22" cy="318.5669" fill="#ADD1B2" rx="11" ry="11" style="stroke:#181818;stroke-width:1;"/><path d="M24.9688,324.2075 Q24.3906,324.5044 23.75,324.645 Q23.1094,324.8013 22.4063,324.8013 Q19.9063,324.8013 18.5781,323.1606 Q17.2656,321.5044 17.2656,318.3794 Q17.2656,315.2544 18.5781,313.5981 Q19.9063,311.9419 22.4063,311.9419 Q23.1094,311.9419 23.75,312.0981 Q24.4063,312.2544 24.9688,312.5513 L24.9688,315.27 Q24.3438,314.6919 23.75,314.4263 Q23.1563,314.145 22.5313,314.145 Q21.1875,314.145 20.5,315.2231 Q19.8125,316.2856 19.8125,318.3794 Q19.8125,320.4731 20.5,321.5513 Q21.1875,322.6138 22.5313,322.6138 Q23.1563,322.6138 23.75,322.3481 Q24.3438,322.0669 24.9688,321.4888 L24.9688,324.2075 Z " fill="#000000"/><text fill="#000000" font-family="sans-serif" font-size="14" lengthAdjust="spacing" textLength="61.4141" x="36" y="323.4136">Proyecto</text><line style="stroke:#181818;stroke-width:0.5;" x1="8" x2="99.4141" y1="334.5669" y2="334.5669"/><line style="stroke:#181818;stroke-width:0.5;" x1="8" x2="99.4141" y1="342.5669" y2="342.5669"/></g><!--class Coordinador--><g class="entity" data-entity="Coordinador" data-source-line="15" data-uid="ent0004" id="entity_Coordinador"><rect fill="#F1F1F1" height="48" rx="2.5" ry="2.5" style="stroke:#181818;stroke-width:0.5;" width="118.0986" x="118.66" y="44.2969"/><ellipse cx="133.66" cy="60.2969" fill="#ADD1B2" rx="11" ry="11" style="stroke:#181818;stroke-width:1;"/><path d="M136.6288,65.9375 Q136.0506,66.2344 135.41,66.375 Q134.7694,66.5313 134.0663,66.5313 Q131.5663,66.5313 130.2381,64.8906 Q128.9256,63.2344 128.9256,60.1094 Q128.9256,56.9844 130.2381,55.3281 Q131.5663,53.6719 134.0663,53.6719 Q134.7694,53.6719 135.41,53.8281 Q136.0663,53.9844 136.6288,54.2813 L136.6288,57 Q136.0038,56.4219 135.41,56.1563 Q134.8163,55.875 134.1913,55.875 Q132.8475,55.875 132.16,56.9531 Q131.4725,58.0156 131.4725,60.1094 Q131.4725,62.2031 132.16,63.2813 Q132.8475,64.3438 134.1913,64.3438 Q134.8163,64.3438 135.41,64.0781 Q136.0038,63.7969 136.6288,63.2188 L136.6288,65.9375 Z " fill="#000000"/><text fill="#000000" font-family="sans-serif" font-size="14" lengthAdjust="spacing" textLength="86.0986" x="147.66" y="65.1436">Coordinador</text><line style="stroke:#181818;stroke-width:0.5;" x1="119.66" x2="235.7586" y1="76.2969" y2="76.2969"/><line style="stroke:#181818;stroke-width:0.5;" x1="119.66" x2="235.7586" y1="84.2969" y2="84.2969"/></g><!--class CargaTrabajo--><g class="entity" data-entity="CargaTrabajo" data-source-line="22" data-uid="ent0005" id="entity_CargaTrabajo"><rect fill="#F1F1F1" height="48" rx="2.5" ry="2.5" style="stroke:#181818;stroke-width:0.5;" width="126.3838" x="56.52" y="427.5669"/><ellipse cx="71.52" cy="443.5669" fill="#ADD1B2" rx="11" ry="11" style="stroke:#181818;stroke-width:1;"/><path d="M74.4888,449.2075 Q73.9106,449.5044 73.27,449.645 Q72.6294,449.8013 71.9263,449.8013 Q69.4263,449.8013 68.0981,448.1606 Q66.7856,446.5044 66.7856,443.3794 Q66.7856,440.2544 68.0981,438.5981 Q69.4263,436.9419 71.9263,436.9419 Q72.6294,436.9419 73.27,437.0981 Q73.9263,437.2544 74.4888,437.5513 L74.4888,440.27 Q73.8638,439.6919 73.27,439.4263 Q72.6763,439.145 72.0513,439.145 Q70.7075,439.145 70.02,440.2231 Q69.3325,441.2856 69.3325,443.3794 Q69.3325,445.4731 70.02,446.5513 Q70.7075,447.6138 72.0513,447.6138 Q72.6763,447.6138 73.27,447.3481 Q73.8638,447.0669 74.4888,446.4888 L74.4888,449.2075 Z " fill="#000000"/><text fill="#000000" font-family="sans-serif" font-size="14" lengthAdjust="spacing" textLength="94.3838" x="85.52" y="448.4136">CargaTrabajo</text><line style="stroke:#181818;stroke-width:0.5;" x1="57.52" x2="181.9038" y1="459.5669" y2="459.5669"/><line style="stroke:#181818;stroke-width:0.5;" x1="57.52" x2="181.9038" y1="467.5669" y2="467.5669"/></g><!--class PerfilInvestigador--><g class="entity" data-entity="PerfilInvestigador" data-source-line="28" data-uid="ent0006" id="entity_PerfilInvestigador"><rect fill="#F1F1F1" height="48" rx="2.5" ry="2.5" style="stroke:#181818;stroke-width:0.5;" width="154.7666" x="246.32" y="302.5669"/><ellipse cx="261.32" cy="318.5669" fill="#ADD1B2" rx="11" ry="11" style="stroke:#181818;stroke-width:1;"/><path d="M264.2888,324.2075 Q263.7106,324.5044 263.07,324.645 Q262.4294,324.8013 261.7263,324.8013 Q259.2263,324.8013 257.8981,323.1606 Q256.5856,321.5044 256.5856,318.3794 Q256.5856,315.2544 257.8981,313.5981 Q259.2263,311.9419 261.7263,311.9419 Q262.4294,311.9419 263.07,312.0981 Q263.7263,312.2544 264.2888,312.5513 L264.2888,315.27 Q263.6638,314.6919 263.07,314.4263 Q262.4763,314.145 261.8513,314.145 Q260.5075,314.145 259.82,315.2231 Q259.1325,316.2856 259.1325,318.3794 Q259.1325,320.4731 259.82,321.5513 Q260.5075,322.6138 261.8513,322.6138 Q262.4763,322.6138 263.07,322.3481 Q263.6638,322.0669 264.2888,321.4888 L264.2888,324.2075 Z " fill="#000000"/><text fill="#000000" font-family="sans-serif" font-size="14" lengthAdjust="spacing" textLength="122.7666" x="275.32" y="323.4136">PerfilInvestigador</text><line style="stroke:#181818;stroke-width:0.5;" x1="247.32" x2="400.0866" y1="334.5669" y2="334.5669"/><line style="stroke:#181818;stroke-width:0.5;" x1="247.32" x2="400.0866" y1="342.5669" y2="342.5669"/></g><!--link InvestigadorDocente to Proyecto--><g class="link" data-entity-1="InvestigadorDocente" data-entity-2="Proyecto" data-source-line="35" data-uid="lnk7" id="link_InvestigadorDocente_Proyecto"><path codeLine="35" d="M88.57,218.8869 C70.49,227.2469 53.67,239.0169 42.71,255.5669 C33.6,269.3069 32.8962,276.585 38.2462,291.125" fill="none" id="InvestigadorDocente-to-Proyecto" style="stroke:#181818;stroke-width:1;"/><polygon fill="none" points="42.39,302.3869,44.072,295.3747,38.2462,291.125,36.5642,298.1372,42.39,302.3869" style="stroke:#181818;stroke-width:1;"/><text fill="#000000" font-family="sans-serif" font-size="13" lengthAdjust="spacing" textLength="107.4658" x="43.71" y="268.6338">puede participar</text></g><!--link InvestigadorDocente to CargaTrabajo--><g class="link" data-entity-1="InvestigadorDocente" data-entity-2="CargaTrabajo" data-source-line="36" data-uid="lnk8" id="link_InvestigadorDocente_CargaTrabajo"><path codeLine="36" d="M175.89,225.7569 C172.73,264.6869 164.64,337.9969 145.71,397.5669 C142.51,407.6269 143.1741,407.5085 138.5341,416.5185" fill="none" id="InvestigadorDocente-to-CargaTrabajo" style="stroke:#181818;stroke-width:1;"/><polygon fill="none" points="133.04,427.1869,139.3432,423.684,138.5341,416.5185,132.2309,420.0213,133.04,427.1869" style="stroke:#181818;stroke-width:1;"/><text fill="#000000" font-family="sans-serif" font-size="13" lengthAdjust="spacing" textLength="32.9443" x="167.71" y="331.1338">tiene</text></g><!--link InvestigadorDocente to PerfilInvestigador--><g class="link" data-entity-1="InvestigadorDocente" data-entity-2="PerfilInvestigador" data-source-line="37" data-uid="lnk9" id="link_InvestigadorDocente_PerfilInvestigador"><path codeLine="37" d="M209.39,226.0169 C235.55,248.8069 263.2305,272.9061 287.9305,294.4161" fill="none" id="InvestigadorDocente-to-PerfilInvestigador" style="stroke:#181818;stroke-width:1;"/><polygon fill="#181818" points="296.98,302.2969,295.0822,295.34,287.9305,294.4161,289.8283,301.373,296.98,302.2969" style="stroke:#181818;stroke-width:1;"/><text fill="#000000" font-family="sans-serif" font-size="13" lengthAdjust="spacing" textLength="32.9443" x="260.71" y="268.6338">tiene</text></g><!--link InvestigadorDocente to InvestigadorDocente--><g class="link" data-entity-1="InvestigadorDocente" data-entity-2="InvestigadorDocente" data-source-line="38" data-uid="lnk10" id="link_InvestigadorDocente_InvestigadorDocente"><path codeLine="38" d="M267.11,185.2569 C287.08,186.3769 301.65,190.4369 301.65,197.4369 C301.65,204.4269 293.0706,208.1509 273.1006,209.2709" fill="none" id="InvestigadorDocente-to-InvestigadorDocente" style="stroke:#181818;stroke-width:1;"/><polygon fill="#181818" points="267.11,209.6069,276.3199,213.0966,272.1022,209.3269,275.8719,205.1092,267.11,209.6069" style="stroke:#181818;stroke-width:1;"/><text fill="#000000" font-family="sans-serif" font-size="13" lengthAdjust="spacing" textLength="116.9238" x="307.65" y="202.0038">puede interactuar</text></g><!--link Proyecto to CargaTrabajo--><g class="link" data-entity-1="Proyecto" data-entity-2="CargaTrabajo" data-source-line="40" data-uid="lnk11" id="link_Proyecto_CargaTrabajo"><path codeLine="40" d="M66.28,350.9869 C78.02,372.8769 92.6249,400.0789 104.3449,421.9389" fill="none" id="Proyecto-to-CargaTrabajo" style="stroke:#181818;stroke-width:1;"/><polygon fill="#181818" points="107.18,427.2269,106.4527,417.4049,104.8174,422.8203,99.4021,421.185,107.18,427.2269" style="stroke:#181818;stroke-width:1;"/><text fill="#000000" font-family="sans-serif" font-size="13" lengthAdjust="spacing" textLength="45.7983" x="91.71" y="393.6338">genera</text></g><!--link Coordinador to InvestigadorDocente--><g class="link" data-entity-1="Coordinador" data-entity-2="InvestigadorDocente" data-source-line="42" data-uid="lnk12" id="link_Coordinador_InvestigadorDocente"><path codeLine="42" d="M177.71,92.6169 C177.71,114.1269 177.71,140.0669 177.71,162.8369" fill="none" id="Coordinador-to-InvestigadorDocente" style="stroke:#181818;stroke-width:1;"/><polygon fill="#181818" points="177.71,168.8369,181.71,159.8369,177.71,163.8369,173.71,159.8369,177.71,168.8369" style="stroke:#181818;stroke-width:1;"/><text fill="#000000" font-family="sans-serif" font-size="13" lengthAdjust="spacing" textLength="45.4048" x="178.71" y="135.3638">recluta</text></g><!--SRC=[VP3H2i8m34NV-nK5tuJzm1W3KGQ-3VG7OXT7fBOZpGGH_zrENDbWCoyjjxqt9n4IYxa-KH2yWsvGCpR3GUw1GQY5nZC65SjO244V9_h16tI2kYXg9cUe0rkMUbDLkrWlfTx9LRD_eX4_4_VUSqDkIFhfwGMuXJF31MwZPGn2lfATGYJh4bcM-TGxrrsFSR8EM6Y0vLNBj7-kXT3Xoj_j0j5_Hxcqmf6Duft1I1_Xr0Z-DSsHsfZFeDHaXUlHZCRs0Xy0]--></g></svg>