<svg xmlns="http://www.w3.org/2000/svg" xmlns:xlink="http://www.w3.org/1999/xlink" contentStyleType="text/css" data-diagram-type="STATE" height="659px" preserveAspectRatio="none" style="width:633px;height:659px;background:#FFFFFF;" version="1.1" viewBox="0 0 633 659" width="633px" zoomAndPan="magnify"><defs/><g><path d="M98.84,7 L467.84,7 A12.5,12.5 0 0 1 480.34,19.5 L480.34,33.2969 L86.34,33.2969 L86.34,19.5 A12.5,12.5 0 0 1 98.84,7" fill="#F1F1F1"/><rect fill="none" height="356.2969" rx="12.5" ry="12.5" style="stroke:#181818;stroke-width:0.5;" width="394" x="86.34" y="7"/><line style="stroke:#181818;stroke-width:0.5;" x1="86.34" x2="480.34" y1="33.2969" y2="33.2969"/><text fill="#000000" font-family="sans-serif" font-size="14" lengthAdjust="spacing" textLength="134.2783" x="216.2008" y="24.9951">abrirRecompensa()</text><g><rect fill="#F1F1F1" height="50" rx="12.5" ry="12.5" style="stroke:#181818;stroke-width:0.5;" width="50" x="98.34" y="135.2969"/><line style="stroke:#181818;stroke-width:0.5;" x1="98.34" x2="148.34" y1="161.5938" y2="161.5938"/><text fill="#000000" font-family="sans-serif" font-size="14" lengthAdjust="spacing" textLength="4.4502" x="121.1149" y="153.292">&#160;</text></g><ellipse cx="123.34" cy="54.2969" fill="#222222" rx="10" ry="10" style="stroke:#222222;stroke-width:1;"/><ellipse cx="123.34" cy="342.2969" fill="none" rx="11" ry="11" style="stroke:#222222;stroke-width:1;"/><ellipse cx="123.34" cy="342.2969" fill="#222222" rx="6" ry="6" style="stroke:#222222;stroke-width:1;"/><!--link *start*abrirRecompensa to MostrandoRecompensa--><g class="link" data-entity-1="ent0002" data-entity-2="ent0003" data-link-type="dependency" data-source-line="7" id="lnk3"><path d="M123.34,64.5269 C123.34,80.2369 123.34,106.6569 123.34,129.1669" fill="none" id="*start*abrirRecompensa-to-MostrandoRecompensa" style="stroke:#008000;stroke-width:1;"/><polygon fill="#008000" points="123.34,135.1669,127.34,126.1669,123.34,130.1669,119.34,126.1669,123.34,135.1669" style="stroke:#008000;stroke-width:1;"/><path d="M128.34,87.2969 L128.34,112.2969 L436.34,112.2969 L436.34,97.2969 L426.34,87.2969 L128.34,87.2969" fill="#FEFFDD" style="stroke:#181818;stroke-width:0.5;"/><path d="M426.34,87.2969 L426.34,97.2969 L436.34,97.2969 L426.34,87.2969" fill="#FEFFDD" style="stroke:#181818;stroke-width:0.5;"/><text fill="#000000" font-family="sans-serif" font-size="13" font-weight="bold" lengthAdjust="spacing" textLength="90.251" x="134.34" y="104.3638">Coordinador</text><text fill="#000000" font-family="sans-serif" font-size="13" lengthAdjust="spacing" textLength="193.4702" x="228.7233" y="104.3638">solicita abrir una recompensa</text></g><!--link MostrandoRecompensa to *end*abrirRecompensa--><g class="link" data-entity-1="ent0003" data-entity-2="ent0004" data-link-type="dependency" data-source-line="12" id="lnk5"><path d="M123.34,185.5769 C123.34,225.4969 123.34,297.3469 123.34,325.1369" fill="none" id="MostrandoRecompensa-to-*end*abrirRecompensa" style="stroke:#008000;stroke-width:1;"/><polygon fill="#008000" points="123.34,331.1369,127.34,322.1369,123.34,326.1369,119.34,322.1369,123.34,331.1369" style="stroke:#008000;stroke-width:1;"/><path d="M128.34,208.2969 L128.34,308.2969 L471.34,308.2969 L471.34,218.2969 L461.34,208.2969 L128.34,208.2969" fill="#FEFFDD" style="stroke:#181818;stroke-width:0.5;"/><path d="M461.34,208.2969 L461.34,218.2969 L471.34,218.2969 L461.34,208.2969" fill="#FEFFDD" style="stroke:#181818;stroke-width:0.5;"/><text fill="#000000" font-family="sans-serif" font-size="13" font-weight="bold" lengthAdjust="spacing" textLength="58.9063" x="134.34" y="225.3638">Sistema</text><text fill="#000000" font-family="sans-serif" font-size="13" lengthAdjust="spacing" textLength="259.6699" x="197.3786" y="225.3638">presenta informaci&#243;n de la recompensa</text><text fill="#000000" font-family="sans-serif" font-size="13" lengthAdjust="spacing" textLength="39.5586" x="134.34" y="240.4966">&#8226; Tipo</text><text fill="#000000" font-family="sans-serif" font-size="13" lengthAdjust="spacing" textLength="70.2622" x="134.34" y="255.6294">&#8226; Cantidad</text><text fill="#000000" font-family="sans-serif" font-size="13" font-weight="bold" lengthAdjust="spacing" textLength="58.9063" x="134.34" y="270.7622">Sistema</text><text fill="#000000" font-family="sans-serif" font-size="13" lengthAdjust="spacing" textLength="110.5952" x="197.3786" y="270.7622">permite solicitar:</text><text fill="#000000" font-family="sans-serif" font-size="13" lengthAdjust="spacing" textLength="134.5386" x="134.34" y="285.895">&#8226; editar recompensa</text><text fill="#000000" font-family="sans-serif" font-size="13" lengthAdjust="spacing" textLength="149.3159" x="134.34" y="301.0278">&#8226; eliminar recompensa</text></g><g><rect fill="#F1F1F1" height="50" rx="12.5" ry="12.5" style="stroke:#181818;stroke-width:0.5;" width="184.6846" x="7" y="458.3"/><line style="stroke:#181818;stroke-width:0.5;" x1="7" x2="191.6846" y1="484.5969" y2="484.5969"/><text fill="#000000" font-family="sans-serif" font-size="14" lengthAdjust="spacing" textLength="164.6846" x="17" y="476.2951">RECOMPENSA_ABIERTA</text></g><g><rect fill="#F1F1F1" height="50" rx="12.5" ry="12.5" style="stroke:#181818;stroke-width:0.5;" width="202.458" x="182.11" y="603.3"/><line style="stroke:#181818;stroke-width:0.5;" x1="182.11" x2="384.568" y1="629.5969" y2="629.5969"/><text fill="#000000" font-family="sans-serif" font-size="14" lengthAdjust="spacing" textLength="182.458" x="192.11" y="621.2951">RECOMPENSAS_ABIERTAS</text></g><!--link RECOMPENSA_ABIERTA to RECOMPENSAS_ABIERTAS--><g class="link" data-entity-1="ent0006" data-entity-2="ent0007" data-link-type="dependency" data-source-line="23" id="lnk8"><path d="M100.16,508.62 C101.05,534.97 102.34,573.3 102.34,573.3 C102.34,573.3 147.6805,586.8244 195.5705,601.1144" fill="none" id="RECOMPENSA_ABIERTA-to-RECOMPENSAS_ABIERTAS" style="stroke:#008000;stroke-width:1;"/><polygon fill="#008000" points="201.32,602.83,193.8395,596.4236,196.5288,601.4003,191.552,604.0896,201.32,602.83" style="stroke:#008000;stroke-width:1;"/><path d="M107.34,543.3 L107.34,568.3 L252.34,568.3 L252.34,553.3 L242.34,543.3 L107.34,543.3" fill="#FEFFDD" style="stroke:#181818;stroke-width:0.5;"/><path d="M242.34,543.3 L242.34,553.3 L252.34,553.3 L242.34,543.3" fill="#FEFFDD" style="stroke:#181818;stroke-width:0.5;"/><text fill="#000000" font-family="sans-serif" font-size="13" lengthAdjust="spacing" textLength="124.687" x="113.34" y="560.3669">abrirRecompensa()</text></g><!--link abrirRecompensa to RECOMPENSAS_ABIERTAS--><g class="link" data-entity-1="ent0002" data-entity-2="ent0007" data-link-type="dependency" data-source-line="28" id="lnk9"><path d="M283.34,363.68 C283.34,455.37 283.34,551.4 283.34,596.99" fill="none" id="abrirRecompensa-to-RECOMPENSAS_ABIERTAS" style="stroke:#008000;stroke-width:1;"/><polygon fill="#008000" points="283.34,602.99,287.34,593.99,283.34,597.99,279.34,593.99,283.34,602.99" style="stroke:#008000;stroke-width:1;"/><path d="M288.34,470.8 L288.34,495.8 L440.34,495.8 L440.34,480.8 L430.34,470.8 L288.34,470.8" fill="#FEFFDD" style="stroke:#181818;stroke-width:0.5;"/><path d="M430.34,470.8 L430.34,480.8 L440.34,480.8 L430.34,470.8" fill="#FEFFDD" style="stroke:#181818;stroke-width:0.5;"/><text fill="#000000" font-family="sans-serif" font-size="13" lengthAdjust="spacing" textLength="131.46" x="294.34" y="487.8669">abrirRecompensas()</text></g><!--link abrirRecompensa to RECOMPENSAS_ABIERTAS--><g class="link" data-entity-1="ent0002" data-entity-2="ent0007" data-link-type="dependency" data-source-line="33" id="lnk10"><path d="M394.12,363.5 C426.49,415.31 453.34,458.3 453.34,458.3 C453.34,458.3 453.34,508.3 453.34,508.3 C453.34,508.3 372.8058,564.6798 323.0658,599.4898" fill="none" id="abrirRecompensa-to-RECOMPENSAS_ABIERTAS-1" style="stroke:#008000;stroke-width:1;"/><polygon fill="#008000" points="318.15,602.93,327.8171,601.0468,322.2465,600.0631,323.2301,594.4925,318.15,602.93" style="stroke:#008000;stroke-width:1;"/><path d="M458.34,470.8 L458.34,495.8 L626.34,495.8 L626.34,480.8 L616.34,470.8 L458.34,470.8" fill="#FEFFDD" style="stroke:#181818;stroke-width:0.5;"/><path d="M616.34,470.8 L616.34,480.8 L626.34,480.8 L616.34,470.8" fill="#FEFFDD" style="stroke:#181818;stroke-width:0.5;"/><text fill="#000000" font-family="sans-serif" font-size="13" lengthAdjust="spacing" textLength="147.2148" x="464.34" y="487.8669">eliminarRecompensa()</text></g><!--link abrirRecompensa to RECOMPENSA_ABIERTA--><g class="link" data-entity-1="ent0002" data-entity-2="ent0006" data-link-type="dependency" data-source-line="38" id="lnk11"><path d="M121.42,363.62 C105.07,381.54 94.34,393.3 94.34,393.3 C94.34,393.3 94.34,428.3 94.34,428.3 C94.34,428.3 95.194,437.5658 96.524,451.8558" fill="none" id="abrirRecompensa-to-RECOMPENSA_ABIERTA" style="stroke:#008000;stroke-width:1;"/><polygon fill="#008000" points="97.08,457.83,100.2287,448.498,96.6166,452.8515,92.2632,449.2394,97.08,457.83" style="stroke:#008000;stroke-width:1;"/><path d="M99.34,398.3 L99.34,423.3 L252.34,423.3 L252.34,408.3 L242.34,398.3 L99.34,398.3" fill="#FEFFDD" style="stroke:#181818;stroke-width:0.5;"/><path d="M242.34,398.3 L242.34,408.3 L252.34,408.3 L242.34,398.3" fill="#FEFFDD" style="stroke:#181818;stroke-width:0.5;"/><text fill="#000000" font-family="sans-serif" font-size="13" lengthAdjust="spacing" textLength="132.4375" x="105.34" y="415.3669">editarRecompensa()</text></g><!--SRC=[hPB1IiD048Rl-nH3lQXGl4ifrDA3XwealPKYq-ueGvFPCBiUYWW-Yw_W8_WcFecRX3IaJKyrUvhTVx__dzduBKk1YZbaB1Hs1K7XibrP6EC31W9SAsj26vSN91u1FGmEzYwl1l1k3CIllZE8A-hcpWT5iQwLrghbzGg6oujN9PBLSDmhB7NY8in96MvRROpMuwbpQbdGEXtThCVWNSOR3bW7XJT1q2w5n5Qashl7gvCbPZlfdR8Fb6FbMoXvakZByk8qnmt_V0jOWkmemE_d5oouSFjYYXBOektbakOShPk-z7P_ZMnPzz4fuppEH4-s_c5CCfi-pfzc3-daUN9tFqiMaqxVxN7QdAUcCuIZLpVjP0__ahF8_X_HpMJEojsm3z3LS_I2_m00]--></g></svg>