<svg xmlns="http://www.w3.org/2000/svg" xmlns:xlink="http://www.w3.org/1999/xlink" contentStyleType="text/css" data-diagram-type="STATE" height="635px" preserveAspectRatio="none" style="width:657px;height:635px;background:#FFFFFF;" version="1.1" viewBox="0 0 657 635" width="657px" zoomAndPan="magnify"><defs/><g><path d="M19.5,7 L353.5,7 A12.5,12.5 0 0 1 366,19.5 L366,33.2969 L7,33.2969 L7,19.5 A12.5,12.5 0 0 1 19.5,7" fill="#F1F1F1"/><rect fill="none" height="477.2969" rx="12.5" ry="12.5" style="stroke:#181818;stroke-width:0.5;" width="359" x="7" y="7"/><line style="stroke:#181818;stroke-width:0.5;" x1="7" x2="366" y1="33.2969" y2="33.2969"/><text fill="#000000" font-family="sans-serif" font-size="14" lengthAdjust="spacing" textLength="141.5723" x="115.7139" y="24.9951">abrirRecompensas()</text><g><rect fill="#F1F1F1" height="50" rx="12.5" ry="12.5" style="stroke:#181818;stroke-width:0.5;" width="50" x="19" y="135.2969"/><line style="stroke:#181818;stroke-width:0.5;" x1="19" x2="69" y1="161.5938" y2="161.5938"/><text fill="#000000" font-family="sans-serif" font-size="14" lengthAdjust="spacing" textLength="4.4502" x="41.7749" y="153.292">&#160;</text></g><g><rect fill="#F1F1F1" height="50" rx="12.5" ry="12.5" style="stroke:#181818;stroke-width:0.5;" width="50" x="19" y="331.2969"/><line style="stroke:#181818;stroke-width:0.5;" x1="19" x2="69" y1="357.5938" y2="357.5938"/><text fill="#000000" font-family="sans-serif" font-size="14" lengthAdjust="spacing" textLength="4.4502" x="41.7749" y="349.292">&#160;</text></g><ellipse cx="44" cy="54.2969" fill="#222222" rx="10" ry="10" style="stroke:#222222;stroke-width:1;"/><ellipse cx="44" cy="463.2969" fill="none" rx="11" ry="11" style="stroke:#222222;stroke-width:1;"/><ellipse cx="44" cy="463.2969" fill="#222222" rx="6" ry="6" style="stroke:#222222;stroke-width:1;"/><!--link *start*abrirRecompensas to MostrandoListado--><g class="link" data-entity-1="ent0002" data-entity-2="ent0003" data-link-type="dependency" data-source-line="8" id="lnk3"><path d="M44,64.5269 C44,80.2369 44,106.6569 44,129.1669" fill="none" id="*start*abrirRecompensas-to-MostrandoListado" style="stroke:#008000;stroke-width:1;"/><polygon fill="#008000" points="44,135.1669,48,126.1669,44,130.1669,40,126.1669,44,135.1669" style="stroke:#008000;stroke-width:1;"/><path d="M49,87.2969 L49,112.2969 L336,112.2969 L336,97.2969 L326,87.2969 L49,87.2969" fill="#FEFFDD" style="stroke:#181818;stroke-width:0.5;"/><path d="M326,87.2969 L326,97.2969 L336,97.2969 L326,87.2969" fill="#FEFFDD" style="stroke:#181818;stroke-width:0.5;"/><text fill="#000000" font-family="sans-serif" font-size="13" font-weight="bold" lengthAdjust="spacing" textLength="90.251" x="55" y="104.3638">Coordinador</text><text fill="#000000" font-family="sans-serif" font-size="13" lengthAdjust="spacing" textLength="171.666" x="149.3833" y="104.3638">solicita abrir recompensas</text></g><!--link MostrandoListado to FiltrandoListado--><g class="link" data-entity-1="ent0003" data-entity-2="ent0004" data-link-type="dependency" data-source-line="13" id="lnk4"><path d="M44,185.4769 C44,222.6469 44,287.4569 44,324.8169" fill="none" id="MostrandoListado-to-FiltrandoListado" style="stroke:#008000;stroke-width:1;"/><polygon fill="#008000" points="44,330.8169,48,321.8169,44,325.8169,40,321.8169,44,330.8169" style="stroke:#008000;stroke-width:1;"/><path d="M49,208.2969 L49,308.2969 L349,308.2969 L349,218.2969 L339,208.2969 L49,208.2969" fill="#FEFFDD" style="stroke:#181818;stroke-width:0.5;"/><path d="M339,208.2969 L339,218.2969 L349,218.2969 L339,208.2969" fill="#FEFFDD" style="stroke:#181818;stroke-width:0.5;"/><text fill="#000000" font-family="sans-serif" font-size="13" font-weight="bold" lengthAdjust="spacing" textLength="58.9063" x="55" y="225.3638">Sistema</text><text fill="#000000" font-family="sans-serif" font-size="13" lengthAdjust="spacing" textLength="216.6899" x="118.0386" y="225.3638">presenta listado de recompensas</text><text fill="#000000" font-family="sans-serif" font-size="13" lengthAdjust="spacing" textLength="39.5586" x="55" y="240.4966">&#8226; Tipo</text><text fill="#000000" font-family="sans-serif" font-size="13" lengthAdjust="spacing" textLength="70.2622" x="55" y="255.6294">&#8226; Cantidad</text><text fill="#000000" font-family="sans-serif" font-size="13" font-weight="bold" lengthAdjust="spacing" textLength="58.9063" x="55" y="270.7622">Sistema</text><text fill="#000000" font-family="sans-serif" font-size="13" lengthAdjust="spacing" textLength="110.5952" x="118.0386" y="270.7622">permite solicitar:</text><text fill="#000000" font-family="sans-serif" font-size="13" lengthAdjust="spacing" textLength="126.7881" x="55" y="285.895">&#8226; abrir recompensa</text><text fill="#000000" font-family="sans-serif" font-size="13" lengthAdjust="spacing" textLength="130.0698" x="55" y="301.0278">&#8226; crear recompensa</text></g><!--link FiltrandoListado to *end*abrirRecompensas--><g class="link" data-entity-1="ent0004" data-entity-2="ent0005" data-link-type="dependency" data-source-line="23" id="lnk6"><path d="M44,381.6469 C44,403.9469 44,429.8569 44,446.0369" fill="none" id="FiltrandoListado-to-*end*abrirRecompensas" style="stroke:#008000;stroke-width:1;"/><polygon fill="#008000" points="44,452.0369,48,443.0369,44,447.0369,40,443.0369,44,452.0369" style="stroke:#008000;stroke-width:1;"/><path d="M49,404.2969 L49,429.2969 L357,429.2969 L357,414.2969 L347,404.2969 L49,404.2969" fill="#FEFFDD" style="stroke:#181818;stroke-width:0.5;"/><path d="M347,404.2969 L347,414.2969 L357,414.2969 L347,404.2969" fill="#FEFFDD" style="stroke:#181818;stroke-width:0.5;"/><text fill="#000000" font-family="sans-serif" font-size="13" font-weight="bold" lengthAdjust="spacing" textLength="90.251" x="55" y="421.3638">Coordinador</text><text fill="#000000" font-family="sans-serif" font-size="13" lengthAdjust="spacing" textLength="193.0322" x="149.3833" y="421.3638">solicita una opci&#243;n del listado</text></g><g><rect fill="#F1F1F1" height="50" rx="12.5" ry="12.5" style="stroke:#181818;stroke-width:0.5;" width="213.0879" x="436.96" y="220.65"/><line style="stroke:#181818;stroke-width:0.5;" x1="436.96" x2="650.0479" y1="246.9469" y2="246.9469"/><text fill="#000000" font-family="sans-serif" font-size="14" lengthAdjust="spacing" textLength="193.0879" x="446.96" y="238.6451">PANEL_PRINCIPAL_ABIERTO</text></g><g><rect fill="#F1F1F1" height="50" rx="12.5" ry="12.5" style="stroke:#181818;stroke-width:0.5;" width="202.458" x="244.27" y="579.3"/><line style="stroke:#181818;stroke-width:0.5;" x1="244.27" x2="446.728" y1="605.5969" y2="605.5969"/><text fill="#000000" font-family="sans-serif" font-size="14" lengthAdjust="spacing" textLength="182.458" x="254.27" y="597.2951">RECOMPENSAS_ABIERTAS</text></g><!--link PANEL_PRINCIPAL_ABIERTO to RECOMPENSAS_ABIERTAS--><g class="link" data-entity-1="ent0007" data-entity-2="ent0008" data-link-type="dependency" data-source-line="29" id="lnk9"><path d="M538.93,270.91 C525.41,342.72 486.5,549.3 486.5,549.3 C486.5,549.3 452.3131,562.394 415.0031,576.684" fill="none" id="PANEL_PRINCIPAL_ABIERTO-to-RECOMPENSAS_ABIERTAS" style="stroke:#008000;stroke-width:1;"/><polygon fill="#008000" points="409.4,578.83,419.2353,579.3464,414.0692,577.0416,416.3739,571.8756,409.4,578.83" style="stroke:#008000;stroke-width:1;"/><path d="M496.5,519.3 L496.5,544.3 L648.5,544.3 L648.5,529.3 L638.5,519.3 L496.5,519.3" fill="#FEFFDD" style="stroke:#181818;stroke-width:0.5;"/><path d="M638.5,519.3 L638.5,529.3 L648.5,529.3 L638.5,519.3" fill="#FEFFDD" style="stroke:#181818;stroke-width:0.5;"/><text fill="#000000" font-family="sans-serif" font-size="13" lengthAdjust="spacing" textLength="131.46" x="502.5" y="536.3669">abrirRecompensas()</text></g><!--link abrirRecompensas to RECOMPENSAS_ABIERTAS--><g class="link" data-entity-1="ent0002" data-entity-2="ent0008" data-link-type="dependency" data-source-line="34" id="lnk10"><path d="M151.82,484.63 C149.17,502.83 147.5,514.3 147.5,514.3 C147.5,514.3 147.5,549.3 147.5,549.3 C147.5,549.3 197.5915,562.9611 249.9815,577.2511" fill="none" id="abrirRecompensas-to-RECOMPENSAS_ABIERTAS" style="stroke:#008000;stroke-width:1;"/><polygon fill="#008000" points="255.77,578.83,248.1398,572.6026,250.9462,577.5143,246.0346,580.3207,255.77,578.83" style="stroke:#008000;stroke-width:1;"/><path d="M152.5,519.3 L152.5,544.3 L297.5,544.3 L297.5,529.3 L287.5,519.3 L152.5,519.3" fill="#FEFFDD" style="stroke:#181818;stroke-width:0.5;"/><path d="M287.5,519.3 L287.5,529.3 L297.5,529.3 L287.5,519.3" fill="#FEFFDD" style="stroke:#181818;stroke-width:0.5;"/><text fill="#000000" font-family="sans-serif" font-size="13" lengthAdjust="spacing" textLength="124.687" x="158.5" y="536.3669">abrirRecompensa()</text></g><!--link abrirRecompensas to RECOMPENSAS_ABIERTAS--><g class="link" data-entity-1="ent0002" data-entity-2="ent0008" data-link-type="dependency" data-source-line="39" id="lnk11"><path d="M293.2,484.63 C301.36,502.83 306.5,514.3 306.5,514.3 C306.5,514.3 320.893,547.134 332.433,573.484" fill="none" id="abrirRecompensas-to-RECOMPENSAS_ABIERTAS-1" style="stroke:#008000;stroke-width:1;"/><polygon fill="#008000" points="334.84,578.98,334.8935,569.1313,332.8342,574.4,327.5655,572.3406,334.84,578.98" style="stroke:#008000;stroke-width:1;"/><path d="M325.5,519.3 L325.5,544.3 L473.5,544.3 L473.5,529.3 L463.5,519.3 L325.5,519.3" fill="#FEFFDD" style="stroke:#181818;stroke-width:0.5;"/><path d="M463.5,519.3 L463.5,529.3 L473.5,529.3 L463.5,519.3" fill="#FEFFDD" style="stroke:#181818;stroke-width:0.5;"/><text fill="#000000" font-family="sans-serif" font-size="13" lengthAdjust="spacing" textLength="127.9688" x="331.5" y="536.3669">crearRecompensa()</text></g><!--SRC=[hLBTQeCm5BxFKmHtimtAxaSHd3WGh1NjNIabDOSHgYSXSHTb3FOiUuKzmjvaJx9KMqlKNOpDU9DpllFz935xWOffLjDA83G71LJ9wd3S468QrW1bEorq3gMi5Q1XXjhV6nQlRppwGWYrNpVbsMM12saQpP3BHDWwbsF4ewXSH0jPtsxeR7trf05mC_EdUL1Q6eb7w_ksCD_vePIQ2xGGFR_R-TJ8IfIYOLqCgY-Msmb0tj9qgaCLnyB8w4yM2jk7chNoIeC1jFBLYP73oCFNspjT2INxJSYm4PpnIKBGjR2QvrpwlXyR9kmRfGOsQhZ9X-6SvFOoVd_UpyYeLANu_40RkZeVWAlzIaWMf56opV8u3UCiIBR1GnpbgwLZ88_2vIABqY8eJlsW88wRyNiabu2Z5_mdxl-aRczcaleR]--></g></svg>