<svg xmlns="http://www.w3.org/2000/svg" xmlns:xlink="http://www.w3.org/1999/xlink" contentStyleType="text/css" data-diagram-type="STATE" height="780px" preserveAspectRatio="none" style="width:715px;height:780px;background:#FFFFFF;" version="1.1" viewBox="0 0 715 780" width="715px" zoomAndPan="magnify"><defs/><g><path d="M19.5,7 L689.5,7 A12.5,12.5 0 0 1 702,19.5 L702,33.2969 L7,33.2969 L7,19.5 A12.5,12.5 0 0 1 19.5,7" fill="#F1F1F1"/><rect fill="none" height="477.2969" rx="12.5" ry="12.5" style="stroke:#181818;stroke-width:0.5;" width="695" x="7" y="7"/><line style="stroke:#181818;stroke-width:0.5;" x1="7" x2="702" y1="33.2969" y2="33.2969"/><text fill="#000000" font-family="sans-serif" font-size="14" lengthAdjust="spacing" textLength="137.8125" x="285.5938" y="24.9951">crearRecompensa()</text><g><rect fill="#F1F1F1" height="50" rx="12.5" ry="12.5" style="stroke:#181818;stroke-width:0.5;" width="50" x="192" y="135.2969"/><line style="stroke:#181818;stroke-width:0.5;" x1="192" x2="242" y1="161.5938" y2="161.5938"/><text fill="#000000" font-family="sans-serif" font-size="14" lengthAdjust="spacing" textLength="4.4502" x="214.7749" y="153.292">&#160;</text></g><g><rect fill="#F1F1F1" height="50" rx="12.5" ry="12.5" style="stroke:#181818;stroke-width:0.5;" width="50" x="19" y="331.2969"/><line style="stroke:#181818;stroke-width:0.5;" x1="19" x2="69" y1="357.5938" y2="357.5938"/><text fill="#000000" font-family="sans-serif" font-size="14" lengthAdjust="spacing" textLength="4.4502" x="41.7749" y="349.292">&#160;</text></g><ellipse cx="217" cy="54.2969" fill="#222222" rx="10" ry="10" style="stroke:#222222;stroke-width:1;"/><ellipse cx="223" cy="463.2969" fill="none" rx="11" ry="11" style="stroke:#222222;stroke-width:1;"/><ellipse cx="223" cy="463.2969" fill="#222222" rx="6" ry="6" style="stroke:#222222;stroke-width:1;"/><!--link *start*crearRecompensa to IntroduciendoDatos--><g class="link" data-entity-1="ent0002" data-entity-2="ent0003" data-link-type="dependency" data-source-line="8" id="lnk3"><path d="M217,64.5269 C217,80.2369 217,106.6569 217,129.1669" fill="none" id="*start*crearRecompensa-to-IntroduciendoDatos" style="stroke:#008000;stroke-width:1;"/><polygon fill="#008000" points="217,135.1669,221,126.1669,217,130.1669,213,126.1669,217,135.1669" style="stroke:#008000;stroke-width:1;"/><path d="M222,87.2969 L222,112.2969 L505,112.2969 L505,97.2969 L495,87.2969 L222,87.2969" fill="#FEFFDD" style="stroke:#181818;stroke-width:0.5;"/><path d="M495,87.2969 L495,97.2969 L505,97.2969 L495,87.2969" fill="#FEFFDD" style="stroke:#181818;stroke-width:0.5;"/><text fill="#000000" font-family="sans-serif" font-size="13" font-weight="bold" lengthAdjust="spacing" textLength="90.251" x="228" y="104.3638">Coordinador</text><text fill="#000000" font-family="sans-serif" font-size="13" lengthAdjust="spacing" textLength="168.1748" x="322.3833" y="104.3638">solicita crear recompensa</text></g><!--link IntroduciendoDatos to RecompensaCreada--><g class="link" data-entity-1="ent0003" data-entity-2="ent0004" data-link-type="dependency" data-source-line="13" id="lnk4"><path d="M191.87,167.2269 C142.81,178.8069 39,203.2969 39,203.2969 C39,203.2969 39,313.2969 39,313.2969 C39,313.2969 39.2807,315.6689 40.3807,324.9089" fill="none" id="IntroduciendoDatos-to-RecompensaCreada" style="stroke:#008000;stroke-width:1;"/><polygon fill="#008000" points="41.09,330.8669,43.998,321.4571,40.4989,325.9019,36.0541,322.4028,41.09,330.8669" style="stroke:#008000;stroke-width:1;"/><path d="M44,208.2969 L44,308.2969 L378,308.2969 L378,218.2969 L368,208.2969 L44,208.2969" fill="#FEFFDD" style="stroke:#181818;stroke-width:0.5;"/><path d="M368,208.2969 L368,218.2969 L378,218.2969 L368,208.2969" fill="#FEFFDD" style="stroke:#181818;stroke-width:0.5;"/><text fill="#000000" font-family="sans-serif" font-size="13" font-weight="bold" lengthAdjust="spacing" textLength="58.9063" x="50" y="225.3638">Sistema</text><text fill="#000000" font-family="sans-serif" font-size="13" lengthAdjust="spacing" textLength="233.9175" x="113.0386" y="225.3638">presenta formulario de recompensa</text><text fill="#000000" font-family="sans-serif" font-size="13" font-weight="bold" lengthAdjust="spacing" textLength="58.9063" x="50" y="240.4966">Sistema</text><text fill="#000000" font-family="sans-serif" font-size="13" lengthAdjust="spacing" textLength="158.1138" x="113.0386" y="240.4966">permite introducir datos</text><text fill="#000000" font-family="sans-serif" font-size="13" lengthAdjust="spacing" textLength="39.5586" x="50" y="255.6294">&#8226; Tipo</text><text fill="#000000" font-family="sans-serif" font-size="13" lengthAdjust="spacing" textLength="70.2622" x="50" y="270.7622">&#8226; Cantidad</text><text fill="#000000" font-family="sans-serif" font-size="13" font-weight="bold" lengthAdjust="spacing" textLength="90.251" x="50" y="285.895">Coordinador</text><text fill="#000000" font-family="sans-serif" font-size="13" lengthAdjust="spacing" textLength="219.2861" x="144.3833" y="285.895">introduce datos y solicita guardar</text><text fill="#000000" font-family="sans-serif" font-size="13" font-weight="bold" lengthAdjust="spacing" textLength="58.9063" x="50" y="301.0278">Sistema</text><text fill="#000000" font-family="sans-serif" font-size="13" lengthAdjust="spacing" textLength="248.479" x="113.0386" y="301.0278">presenta el registro de la recompensa</text></g><!--link IntroduciendoDatos to *end*crearRecompensa--><g class="link" data-entity-1="ent0003" data-entity-2="ent0005" data-link-type="dependency" data-source-line="23" id="lnk6"><path d="M242.21,167.6769 C288.65,179.4269 383,203.2969 383,203.2969 C383,203.2969 383,434.2969 383,434.2969 C383,434.2969 276.0601,453.012 239.9101,459.342" fill="none" id="IntroduciendoDatos-to-*end*crearRecompensa" style="stroke:#FF0000;stroke-width:1;"/><polygon fill="#FF0000" points="234,460.3769,243.555,462.7646,238.9251,459.5145,242.1752,454.8845,234,460.3769" style="stroke:#FF0000;stroke-width:1;"/><path d="M388,343.7969 L388,368.7969 L693,368.7969 L693,353.7969 L683,343.7969 L388,343.7969" fill="#FEFFDD" style="stroke:#181818;stroke-width:0.5;"/><path d="M683,343.7969 L683,353.7969 L693,353.7969 L683,343.7969" fill="#FEFFDD" style="stroke:#181818;stroke-width:0.5;"/><text fill="#000000" font-family="sans-serif" font-size="13" font-weight="bold" lengthAdjust="spacing" textLength="90.251" x="394" y="360.8638">Coordinador</text><text fill="#000000" font-family="sans-serif" font-size="13" lengthAdjust="spacing" textLength="189.6362" x="488.3833" y="360.8638">solicita cancelar la operaci&#243;n</text></g><!--link RecompensaCreada to *end*crearRecompensa--><g class="link" data-entity-1="ent0004" data-entity-2="ent0005" data-link-type="dependency" data-source-line="28" id="lnk7"><path d="M50.01,381.6569 C55.58,404.2169 63,434.2969 63,434.2969 C63,434.2969 169.9399,453.012 206.0899,459.342" fill="none" id="RecompensaCreada-to-*end*crearRecompensa" style="stroke:#008000;stroke-width:1;"/><polygon fill="#008000" points="212,460.3769,203.8248,454.8845,207.0749,459.5145,202.445,462.7646,212,460.3769" style="stroke:#008000;stroke-width:1;"/><path d="M68,404.2969 L68,429.2969 L378,429.2969 L378,414.2969 L368,404.2969 L68,404.2969" fill="#FEFFDD" style="stroke:#181818;stroke-width:0.5;"/><path d="M368,404.2969 L368,414.2969 L378,414.2969 L368,404.2969" fill="#FEFFDD" style="stroke:#181818;stroke-width:0.5;"/><text fill="#000000" font-family="sans-serif" font-size="13" font-weight="bold" lengthAdjust="spacing" textLength="58.9063" x="74" y="421.3638">Sistema</text><text fill="#000000" font-family="sans-serif" font-size="13" lengthAdjust="spacing" textLength="226.1797" x="137.0386" y="421.3638">presenta confirmaci&#243;n de creaci&#243;n</text></g><g><rect fill="#F1F1F1" height="50" rx="12.5" ry="12.5" style="stroke:#181818;stroke-width:0.5;" width="202.458" x="253.27" y="579.3"/><line style="stroke:#181818;stroke-width:0.5;" x1="253.27" x2="455.728" y1="605.5969" y2="605.5969"/><text fill="#000000" font-family="sans-serif" font-size="14" lengthAdjust="spacing" textLength="182.458" x="263.27" y="597.2951">RECOMPENSAS_ABIERTAS</text></g><g><rect fill="#F1F1F1" height="50" rx="12.5" ry="12.5" style="stroke:#181818;stroke-width:0.5;" width="184.6846" x="362.16" y="724.3"/><line style="stroke:#181818;stroke-width:0.5;" x1="362.16" x2="546.8446" y1="750.5969" y2="750.5969"/><text fill="#000000" font-family="sans-serif" font-size="14" lengthAdjust="spacing" textLength="164.6846" x="372.16" y="742.2951">RECOMPENSA_ABIERTA</text></g><!--link RECOMPENSAS_ABIERTAS to RECOMPENSA_ABIERTA--><g class="link" data-entity-1="ent0008" data-entity-2="ent0009" data-link-type="dependency" data-source-line="34" id="lnk10"><path d="M359.15,629.62 C364.18,655.97 371.5,694.3 371.5,694.3 C371.5,694.3 389.8903,706.2685 411.8603,720.5585" fill="none" id="RECOMPENSAS_ABIERTAS-to-RECOMPENSA_ABIERTA" style="stroke:#008000;stroke-width:1;"/><polygon fill="#008000" points="416.89,723.83,411.5265,715.5697,412.6986,721.1038,407.1645,722.2759,416.89,723.83" style="stroke:#008000;stroke-width:1;"/><path d="M376.5,664.3 L376.5,689.3 L524.5,689.3 L524.5,674.3 L514.5,664.3 L376.5,664.3" fill="#FEFFDD" style="stroke:#181818;stroke-width:0.5;"/><path d="M514.5,664.3 L514.5,674.3 L524.5,674.3 L514.5,664.3" fill="#FEFFDD" style="stroke:#181818;stroke-width:0.5;"/><text fill="#000000" font-family="sans-serif" font-size="13" lengthAdjust="spacing" textLength="127.9688" x="382.5" y="681.3669">crearRecompensa()</text></g><!--link crearRecompensa to RECOMPENSAS_ABIERTAS--><g class="link" data-entity-1="ent0002" data-entity-2="ent0008" data-link-type="dependency" data-source-line="39" id="lnk11"><path d="M172.22,484.63 C158.29,502.83 149.5,514.3 149.5,514.3 C149.5,514.3 149.5,549.3 149.5,549.3 C149.5,549.3 201.558,563.0114 255.798,577.3014" fill="none" id="crearRecompensa-to-RECOMPENSAS_ABIERTAS" style="stroke:#008000;stroke-width:1;"/><polygon fill="#008000" points="261.6,578.83,253.916,572.6691,256.765,577.5562,251.8779,580.4051,261.6,578.83" style="stroke:#008000;stroke-width:1;"/><path d="M154.5,519.3 L154.5,544.3 L306.5,544.3 L306.5,529.3 L296.5,519.3 L154.5,519.3" fill="#FEFFDD" style="stroke:#181818;stroke-width:0.5;"/><path d="M296.5,519.3 L296.5,529.3 L306.5,529.3 L296.5,519.3" fill="#FEFFDD" style="stroke:#181818;stroke-width:0.5;"/><text fill="#000000" font-family="sans-serif" font-size="13" lengthAdjust="spacing" textLength="131.46" x="160.5" y="536.3669">abrirRecompensas()</text></g><!--link crearRecompensa to RECOMPENSAS_ABIERTAS--><g class="link" data-entity-1="ent0002" data-entity-2="ent0008" data-link-type="dependency" data-source-line="44" id="lnk12"><path d="M351.83,484.63 C351.63,502.83 351.5,514.3 351.5,514.3 C351.5,514.3 351.5,549.3 351.5,549.3 C351.5,549.3 352.0188,558.5491 352.8088,572.8391" fill="none" id="crearRecompensa-to-RECOMPENSAS_ABIERTAS-1" style="stroke:#008000;stroke-width:1;"/><polygon fill="#008000" points="353.14,578.83,356.6371,569.6229,352.864,573.8376,348.6493,570.0645,353.14,578.83" style="stroke:#008000;stroke-width:1;"/><path d="M356.5,519.3 L356.5,544.3 L524.5,544.3 L524.5,529.3 L514.5,519.3 L356.5,519.3" fill="#FEFFDD" style="stroke:#181818;stroke-width:0.5;"/><path d="M514.5,519.3 L514.5,529.3 L524.5,529.3 L514.5,519.3" fill="#FEFFDD" style="stroke:#181818;stroke-width:0.5;"/><text fill="#000000" font-family="sans-serif" font-size="13" lengthAdjust="spacing" textLength="147.2148" x="362.5" y="536.3669">eliminarRecompensa()</text></g><!--link crearRecompensa to RECOMPENSA_ABIERTA--><g class="link" data-entity-1="ent0002" data-entity-2="ent0009" data-link-type="dependency" data-source-line="50" id="lnk13"><path d="M513.66,484.63 C525.83,502.83 533.5,514.3 533.5,514.3 C533.5,514.3 533.5,694.3 533.5,694.3 C533.5,694.3 516.1529,706.1535 495.2529,720.4435" fill="none" id="crearRecompensa-to-RECOMPENSA_ABIERTA" style="stroke:#008000;stroke-width:1;"/><polygon fill="#008000" points="490.3,723.83,499.9871,722.0522,494.4275,721.0079,495.4718,715.4483,490.3,723.83" style="stroke:#008000;stroke-width:1;"/><path d="M538.5,591.8 L538.5,616.8 L691.5,616.8 L691.5,601.8 L681.5,591.8 L538.5,591.8" fill="#FEFFDD" style="stroke:#181818;stroke-width:0.5;"/><path d="M681.5,591.8 L681.5,601.8 L691.5,601.8 L681.5,591.8" fill="#FEFFDD" style="stroke:#181818;stroke-width:0.5;"/><text fill="#000000" font-family="sans-serif" font-size="13" lengthAdjust="spacing" textLength="132.4375" x="544.5" y="608.8669">editarRecompensa()</text></g><!--SRC=[hPDBQiCm48RtFeL8DsqXz08XaBfPPD47SNOXb8ar2KDiZHafYr0AFKklq2Fq9Zr9PPlOzIEXbDehIJFV_y-CP7TaCX18LK86tI53bN5oo1T1O1quLB4Wo1nZJZCq5XHODMZjNLuDr4iGAF-LEGF_-xYPSS9w7nCQpNVWs7PZQaheeHfApF9wfORBYwqWcjLmV8fas8FOvEPtnSPeFGwPHPC1pJAwMO-LvOHYSb0MegJIAn8yhw2KibsPXekErrCU8h8EKoZqCq6BnkjlMD9z0aAiDBPzj9DGKl9SEXeIfQkglzxUrO8ohXOX64SQzAaM72bOGjIXRifs3w91pXh7nBlT-XCfd2VmboOAwho5Vh1_c1oO67tdScdshO6OFZzCZtHxG8tfdPFkhJjcio59IxMyylm6zKY_1i5y6ZxUFqqVeadqFBcTJUUBITIyEbN0yJne-EYygA2khFq2-xcrS9CCQw4VsVOVqPXGwkTrolSlwVqDGUqdtq_-1W00]--></g></svg>