<svg xmlns="http://www.w3.org/2000/svg" xmlns:xlink="http://www.w3.org/1999/xlink" contentStyleType="text/css" data-diagram-type="STATE" height="605px" preserveAspectRatio="none" style="width:727px;height:605px;background:#FFFFFF;" version="1.1" viewBox="0 0 727 605" width="727px" zoomAndPan="magnify"><defs/><g><path d="M19.5,7 L701.5,7 A12.5,12.5 0 0 1 714,19.5 L714,33.2969 L7,33.2969 L7,19.5 A12.5,12.5 0 0 1 19.5,7" fill="#F1F1F1"/><rect fill="none" height="447.2969" rx="12.5" ry="12.5" style="stroke:#181818;stroke-width:0.5;" width="707" x="7" y="7"/><line style="stroke:#181818;stroke-width:0.5;" x1="7" x2="714" y1="33.2969" y2="33.2969"/><text fill="#000000" font-family="sans-serif" font-size="14" lengthAdjust="spacing" textLength="142.625" x="289.1875" y="24.9951">editarRecompensa()</text><g><rect fill="#F1F1F1" height="50" rx="12.5" ry="12.5" style="stroke:#181818;stroke-width:0.5;" width="50" x="218" y="135.2969"/><line style="stroke:#181818;stroke-width:0.5;" x1="218" x2="268" y1="161.5938" y2="161.5938"/><text fill="#000000" font-family="sans-serif" font-size="14" lengthAdjust="spacing" textLength="4.4502" x="240.7749" y="153.292">&#160;</text></g><g><rect fill="#F1F1F1" height="50" rx="12.5" ry="12.5" style="stroke:#181818;stroke-width:0.5;" width="50" x="19" y="301.2969"/><line style="stroke:#181818;stroke-width:0.5;" x1="19" x2="69" y1="327.5938" y2="327.5938"/><text fill="#000000" font-family="sans-serif" font-size="14" lengthAdjust="spacing" textLength="4.4502" x="41.7749" y="319.292">&#160;</text></g><ellipse cx="243" cy="54.2969" fill="#222222" rx="10" ry="10" style="stroke:#222222;stroke-width:1;"/><ellipse cx="239" cy="433.2969" fill="none" rx="11" ry="11" style="stroke:#222222;stroke-width:1;"/><ellipse cx="239" cy="433.2969" fill="#222222" rx="6" ry="6" style="stroke:#222222;stroke-width:1;"/><!--link *start*editarRecompensa to EditandoDatos--><g class="link" data-entity-1="ent0002" data-entity-2="ent0003" data-link-type="dependency" data-source-line="8" id="lnk3"><path d="M243,64.5269 C243,80.2369 243,106.6569 243,129.1669" fill="none" id="*start*editarRecompensa-to-EditandoDatos" style="stroke:#008000;stroke-width:1;"/><polygon fill="#008000" points="243,135.1669,247,126.1669,243,130.1669,239,126.1669,243,135.1669" style="stroke:#008000;stroke-width:1;"/><path d="M248,87.2969 L248,112.2969 L536,112.2969 L536,97.2969 L526,87.2969 L248,87.2969" fill="#FEFFDD" style="stroke:#181818;stroke-width:0.5;"/><path d="M526,87.2969 L526,97.2969 L536,97.2969 L526,87.2969" fill="#FEFFDD" style="stroke:#181818;stroke-width:0.5;"/><text fill="#000000" font-family="sans-serif" font-size="13" font-weight="bold" lengthAdjust="spacing" textLength="90.251" x="254" y="104.3638">Coordinador</text><text fill="#000000" font-family="sans-serif" font-size="13" lengthAdjust="spacing" textLength="172.6436" x="348.3833" y="104.3638">solicita editar recompensa</text></g><!--link EditandoDatos to CambiosGuardados--><g class="link" data-entity-1="ent0003" data-entity-2="ent0004" data-link-type="dependency" data-source-line="13" id="lnk4"><path d="M217.77,166.8769 C166.09,178.2969 53,203.2969 53,203.2969 C53,203.2969 48.8721,259.3132 46.2421,294.9132" fill="none" id="EditandoDatos-to-CambiosGuardados" style="stroke:#008000;stroke-width:1;"/><polygon fill="#008000" points="45.8,300.8969,50.4522,292.216,46.1684,295.9105,42.474,291.6266,45.8,300.8969" style="stroke:#008000;stroke-width:1;"/><path d="M58,208.2969 L58,278.2969 L424,278.2969 L424,218.2969 L414,208.2969 L58,208.2969" fill="#FEFFDD" style="stroke:#181818;stroke-width:0.5;"/><path d="M414,208.2969 L414,218.2969 L424,218.2969 L414,208.2969" fill="#FEFFDD" style="stroke:#181818;stroke-width:0.5;"/><text fill="#000000" font-family="sans-serif" font-size="13" font-weight="bold" lengthAdjust="spacing" textLength="58.9063" x="64" y="225.3638">Sistema</text><text fill="#000000" font-family="sans-serif" font-size="13" lengthAdjust="spacing" textLength="282.0962" x="127.0386" y="225.3638">presenta datos editables de la recompensa</text><text fill="#000000" font-family="sans-serif" font-size="13" font-weight="bold" lengthAdjust="spacing" textLength="58.9063" x="64" y="240.4966">Sistema</text><text fill="#000000" font-family="sans-serif" font-size="13" lengthAdjust="spacing" textLength="219.5781" x="127.0386" y="240.4966">permite introducir modificaciones</text><text fill="#000000" font-family="sans-serif" font-size="13" font-weight="bold" lengthAdjust="spacing" textLength="90.251" x="64" y="255.6294">Coordinador</text><text fill="#000000" font-family="sans-serif" font-size="13" lengthAdjust="spacing" textLength="237.6118" x="158.3833" y="255.6294">introduce cambios y solicita guardar</text><text fill="#000000" font-family="sans-serif" font-size="13" font-weight="bold" lengthAdjust="spacing" textLength="58.9063" x="64" y="270.7622">Sistema</text><text fill="#000000" font-family="sans-serif" font-size="13" lengthAdjust="spacing" textLength="131.3584" x="127.0386" y="270.7622">registra los cambios</text></g><!--link EditandoDatos to *end*editarRecompensa--><g class="link" data-entity-1="ent0003" data-entity-2="ent0005" data-link-type="dependency" data-source-line="21" id="lnk6"><path d="M268.47,167.0469 C319.41,178.5469 429,203.2969 429,203.2969 C429,203.2969 429,404.2969 429,404.2969 C429,404.2969 296.526,423.8229 255.976,429.7929" fill="none" id="EditandoDatos-to-*end*editarRecompensa" style="stroke:#FF0000;stroke-width:1;"/><polygon fill="#FF0000" points="250.04,430.6669,259.5266,433.3133,254.9867,429.9386,258.3614,425.3986,250.04,430.6669" style="stroke:#FF0000;stroke-width:1;"/><path d="M434,313.7969 L434,338.7969 L705,338.7969 L705,323.7969 L695,313.7969 L434,313.7969" fill="#FEFFDD" style="stroke:#181818;stroke-width:0.5;"/><path d="M695,313.7969 L695,323.7969 L705,323.7969 L695,313.7969" fill="#FEFFDD" style="stroke:#181818;stroke-width:0.5;"/><text fill="#000000" font-family="sans-serif" font-size="13" font-weight="bold" lengthAdjust="spacing" textLength="90.251" x="440" y="330.8638">Coordinador</text><text fill="#000000" font-family="sans-serif" font-size="13" lengthAdjust="spacing" textLength="156.2729" x="534.3833" y="330.8638">solicita cancelar edici&#243;n</text></g><!--link CambiosGuardados to *end*editarRecompensa--><g class="link" data-entity-1="ent0004" data-entity-2="ent0005" data-link-type="dependency" data-source-line="26" id="lnk7"><path d="M39.93,351.7269 C38.39,360.9669 37,369.2969 37,369.2969 C37,369.2969 37,404.2969 37,404.2969 C37,404.2969 179.5568,424.0531 221.9068,429.9231" fill="none" id="CambiosGuardados-to-*end*editarRecompensa" style="stroke:#008000;stroke-width:1;"/><polygon fill="#008000" points="227.85,430.7469,219.4844,425.5491,222.8973,430.0604,218.3861,433.4733,227.85,430.7469" style="stroke:#008000;stroke-width:1;"/><path d="M42,374.2969 L42,399.2969 L424,399.2969 L424,384.2969 L414,374.2969 L42,374.2969" fill="#FEFFDD" style="stroke:#181818;stroke-width:0.5;"/><path d="M414,374.2969 L414,384.2969 L424,384.2969 L414,374.2969" fill="#FEFFDD" style="stroke:#181818;stroke-width:0.5;"/><text fill="#000000" font-family="sans-serif" font-size="13" font-weight="bold" lengthAdjust="spacing" textLength="58.9063" x="48" y="391.3638">Sistema</text><text fill="#000000" font-family="sans-serif" font-size="13" lengthAdjust="spacing" textLength="298.27" x="111.0386" y="391.3638">presenta confirmaci&#243;n de cambios guardados</text></g><g><rect fill="#F1F1F1" height="50" rx="12.5" ry="12.5" style="stroke:#181818;stroke-width:0.5;" width="184.6846" x="268.16" y="549.3"/><line style="stroke:#181818;stroke-width:0.5;" x1="268.16" x2="452.8446" y1="575.5969" y2="575.5969"/><text fill="#000000" font-family="sans-serif" font-size="14" lengthAdjust="spacing" textLength="164.6846" x="278.16" y="567.2951">RECOMPENSA_ABIERTA</text></g><!--link RECOMPENSA_ABIERTA to RECOMPENSA_ABIERTA--><g class="link" data-entity-1="ent0008" data-entity-2="ent0008" data-link-type="dependency" data-source-line="33" id="lnk9"><path d="M453.22,561.11 C473.29,562.4 487.84,566.8 487.84,574.3 C487.84,581.8 479.2776,585.8151 459.2076,587.1051" fill="none" id="RECOMPENSA_ABIERTA-to-RECOMPENSA_ABIERTA" style="stroke:#008000;stroke-width:1;"/><polygon fill="#008000" points="453.22,587.49,462.458,590.9045,458.2097,587.1693,461.9449,582.921,453.22,587.49" style="stroke:#008000;stroke-width:1;"/><path d="M492.84,561.8 L492.84,586.8 L645.84,586.8 L645.84,571.8 L635.84,561.8 L492.84,561.8" fill="#FEFFDD" style="stroke:#181818;stroke-width:0.5;"/><path d="M635.84,561.8 L635.84,571.8 L645.84,571.8 L635.84,561.8" fill="#FEFFDD" style="stroke:#181818;stroke-width:0.5;"/><text fill="#000000" font-family="sans-serif" font-size="13" lengthAdjust="spacing" textLength="132.4375" x="498.84" y="578.8669">editarRecompensa()</text></g><!--link editarRecompensa to RECOMPENSA_ABIERTA--><g class="link" data-entity-1="ent0002" data-entity-2="ent0008" data-link-type="dependency" data-source-line="38" id="lnk10"><path d="M360.5,454.77 C360.5,493 360.5,521.37 360.5,543.13" fill="none" id="editarRecompensa-to-RECOMPENSA_ABIERTA" style="stroke:#008000;stroke-width:1;"/><polygon fill="#008000" points="360.5,549.13,364.5,540.13,360.5,544.13,356.5,540.13,360.5,549.13" style="stroke:#008000;stroke-width:1;"/><path d="M365.5,489.3 L365.5,514.3 L510.5,514.3 L510.5,499.3 L500.5,489.3 L365.5,489.3" fill="#FEFFDD" style="stroke:#181818;stroke-width:0.5;"/><path d="M500.5,489.3 L500.5,499.3 L510.5,499.3 L500.5,489.3" fill="#FEFFDD" style="stroke:#181818;stroke-width:0.5;"/><text fill="#000000" font-family="sans-serif" font-size="13" lengthAdjust="spacing" textLength="124.687" x="371.5" y="506.3669">abrirRecompensa()</text></g><!--SRC=[bLDBQiCm4Dth54EwQGkX5mY1D3MbYtv8kWkXZAM96M9BPkGiGkcfUeHUhBBomv-KHbf9clUPUSYlsPOeM43EbgfjIL2wV5iVbF8LLWHak4APaNP5ITOZe8T1-_BwPW2VIa5OEzGWx52Or7NMk0UidEy-Jx58sVd73Of14ofYoU9s2SF5LIP4TZaSzv1O5pYShKsluyKe7K-T4yCsqCZeBXs3Tpdh0Dmt078q6n5aJQJPIJOa6k8TY-Vqv-mhAZ1gbqAURD0saIywI7FoO0XoR5jfWqaA3lniAt5cercWS8PNh56pi-JFTNm04EYTQTYUff351gHFK2WB9q780sGF_S-CX4mzeH3NvQ5ej9ho44kOZUQVRziZs1vz8vU_L7kZqCwkM0gCQdKGXo5bZMYF5hwKKhDa-lhybhpC9n-J-wTazZvfUEW-guQTxYzHfmux_-eIPao5-ub_0G00]--></g></svg>