<svg xmlns="http://www.w3.org/2000/svg" xmlns:xlink="http://www.w3.org/1999/xlink" contentStyleType="text/css" data-diagram-type="STATE" height="590px" preserveAspectRatio="none" style="width:949px;height:590px;background:#FFFFFF;" version="1.1" viewBox="0 0 949 590" width="949px" zoomAndPan="magnify"><defs/><g><path d="M19.5,7 L710.5,7 A12.5,12.5 0 0 1 723,19.5 L723,33.2969 L7,33.2969 L7,19.5 A12.5,12.5 0 0 1 19.5,7" fill="#F1F1F1"/><rect fill="none" height="432.2969" rx="12.5" ry="12.5" style="stroke:#181818;stroke-width:0.5;" width="716" x="7" y="7"/><line style="stroke:#181818;stroke-width:0.5;" x1="7" x2="723" y1="33.2969" y2="33.2969"/><text fill="#000000" font-family="sans-serif" font-size="14" lengthAdjust="spacing" textLength="158.5391" x="285.7305" y="24.9951">eliminarRecompensa()</text><g><rect fill="#F1F1F1" height="50" rx="12.5" ry="12.5" style="stroke:#181818;stroke-width:0.5;" width="50" x="202" y="135.2969"/><line style="stroke:#181818;stroke-width:0.5;" x1="202" x2="252" y1="161.5938" y2="161.5938"/><text fill="#000000" font-family="sans-serif" font-size="14" lengthAdjust="spacing" textLength="4.4502" x="224.7749" y="153.292">&#160;</text></g><g><rect fill="#F1F1F1" height="50" rx="12.5" ry="12.5" style="stroke:#181818;stroke-width:0.5;" width="50" x="19" y="286.2969"/><line style="stroke:#181818;stroke-width:0.5;" x1="19" x2="69" y1="312.5938" y2="312.5938"/><text fill="#000000" font-family="sans-serif" font-size="14" lengthAdjust="spacing" textLength="4.4502" x="41.7749" y="304.292">&#160;</text></g><ellipse cx="227" cy="54.2969" fill="#222222" rx="10" ry="10" style="stroke:#222222;stroke-width:1;"/><ellipse cx="234" cy="418.2969" fill="none" rx="11" ry="11" style="stroke:#222222;stroke-width:1;"/><ellipse cx="234" cy="418.2969" fill="#222222" rx="6" ry="6" style="stroke:#222222;stroke-width:1;"/><!--link *start*eliminarRecompensa to ConfirmandoEliminacion--><g class="link" data-entity-1="ent0002" data-entity-2="ent0003" data-link-type="dependency" data-source-line="8" id="lnk3"><path d="M227,64.5269 C227,80.2369 227,106.6569 227,129.1669" fill="none" id="*start*eliminarRecompensa-to-ConfirmandoEliminacion" style="stroke:#008000;stroke-width:1;"/><polygon fill="#008000" points="227,135.1669,231,126.1669,227,130.1669,223,126.1669,227,135.1669" style="stroke:#008000;stroke-width:1;"/><path d="M232,87.2969 L232,112.2969 L534,112.2969 L534,97.2969 L524,87.2969 L232,87.2969" fill="#FEFFDD" style="stroke:#181818;stroke-width:0.5;"/><path d="M524,87.2969 L524,97.2969 L534,97.2969 L524,87.2969" fill="#FEFFDD" style="stroke:#181818;stroke-width:0.5;"/><text fill="#000000" font-family="sans-serif" font-size="13" font-weight="bold" lengthAdjust="spacing" textLength="90.251" x="238" y="104.3638">Coordinador</text><text fill="#000000" font-family="sans-serif" font-size="13" lengthAdjust="spacing" textLength="187.4209" x="332.3833" y="104.3638">solicita eliminar recompensa</text></g><!--link ConfirmandoEliminacion to RecompensaEliminada--><g class="link" data-entity-1="ent0003" data-entity-2="ent0004" data-link-type="dependency" data-source-line="13" id="lnk4"><path d="M201.51,166.9569 C149.92,178.4269 38,203.2969 38,203.2969 C38,203.2969 38,268.2969 38,268.2969 C38,268.2969 38.3415,270.6872 39.6615,279.9272" fill="none" id="ConfirmandoEliminacion-to-RecompensaEliminada" style="stroke:#008000;stroke-width:1;"/><polygon fill="#008000" points="40.51,285.8669,43.197,276.3916,39.8029,280.9171,35.2774,277.523,40.51,285.8669" style="stroke:#008000;stroke-width:1;"/><path d="M43,208.2969 L43,263.2969 L399,263.2969 L399,218.2969 L389,208.2969 L43,208.2969" fill="#FEFFDD" style="stroke:#181818;stroke-width:0.5;"/><path d="M389,208.2969 L389,218.2969 L399,218.2969 L389,208.2969" fill="#FEFFDD" style="stroke:#181818;stroke-width:0.5;"/><text fill="#000000" font-family="sans-serif" font-size="13" font-weight="bold" lengthAdjust="spacing" textLength="58.9063" x="49" y="225.3638">Sistema</text><text fill="#000000" font-family="sans-serif" font-size="13" lengthAdjust="spacing" textLength="245.4258" x="112.0386" y="225.3638">presenta confirmaci&#243;n de eliminaci&#243;n</text><text fill="#000000" font-family="sans-serif" font-size="13" font-weight="bold" lengthAdjust="spacing" textLength="90.251" x="49" y="240.4966">Coordinador</text><text fill="#000000" font-family="sans-serif" font-size="13" lengthAdjust="spacing" textLength="191.5405" x="143.3833" y="240.4966">solicita confirmar eliminaci&#243;n</text><text fill="#000000" font-family="sans-serif" font-size="13" font-weight="bold" lengthAdjust="spacing" textLength="58.9063" x="49" y="255.6294">Sistema</text><text fill="#000000" font-family="sans-serif" font-size="13" lengthAdjust="spacing" textLength="272.7271" x="112.0386" y="255.6294">presenta la eliminacion de la recompensa</text></g><!--link ConfirmandoEliminacion to *end*eliminarRecompensa--><g class="link" data-entity-1="ent0003" data-entity-2="ent0005" data-link-type="dependency" data-source-line="20" id="lnk6"><path d="M252.36,167.3169 C301.3,178.9269 404,203.2969 404,203.2969 C404,203.2969 404,389.2969 404,389.2969 C404,389.2969 288.3302,408.3517 250.8102,414.5317" fill="none" id="ConfirmandoEliminacion-to-*end*eliminarRecompensa" style="stroke:#FF0000;stroke-width:1;"/><polygon fill="#FF0000" points="244.89,415.5069,254.4204,417.991,249.8235,414.6943,253.1203,410.0974,244.89,415.5069" style="stroke:#FF0000;stroke-width:1;"/><path d="M409,298.7969 L409,323.7969 L714,323.7969 L714,308.7969 L704,298.7969 L409,298.7969" fill="#FEFFDD" style="stroke:#181818;stroke-width:0.5;"/><path d="M704,298.7969 L704,308.7969 L714,308.7969 L704,298.7969" fill="#FEFFDD" style="stroke:#181818;stroke-width:0.5;"/><text fill="#000000" font-family="sans-serif" font-size="13" font-weight="bold" lengthAdjust="spacing" textLength="90.251" x="415" y="315.8638">Coordinador</text><text fill="#000000" font-family="sans-serif" font-size="13" lengthAdjust="spacing" textLength="189.6362" x="509.3833" y="315.8638">solicita cancelar la operaci&#243;n</text></g><!--link RecompensaEliminada to *end*eliminarRecompensa--><g class="link" data-entity-1="ent0004" data-entity-2="ent0005" data-link-type="dependency" data-source-line="25" id="lnk7"><path d="M50.64,336.6569 C56.8,359.2169 65,389.2969 65,389.2969 C65,389.2969 179.3907,408.2461 216.9907,414.4761" fill="none" id="RecompensaEliminada-to-*end*eliminarRecompensa" style="stroke:#008000;stroke-width:1;"/><polygon fill="#008000" points="222.91,415.4569,214.6849,410.0395,217.9773,414.6396,213.3772,417.9319,222.91,415.4569" style="stroke:#008000;stroke-width:1;"/><path d="M70,359.2969 L70,384.2969 L399,384.2969 L399,369.2969 L389,359.2969 L70,359.2969" fill="#FEFFDD" style="stroke:#181818;stroke-width:0.5;"/><path d="M389,359.2969 L389,369.2969 L399,369.2969 L389,359.2969" fill="#FEFFDD" style="stroke:#181818;stroke-width:0.5;"/><text fill="#000000" font-family="sans-serif" font-size="13" font-weight="bold" lengthAdjust="spacing" textLength="58.9063" x="76" y="376.3638">Sistema</text><text fill="#000000" font-family="sans-serif" font-size="13" lengthAdjust="spacing" textLength="245.4258" x="139.0386" y="376.3638">presenta confirmaci&#243;n de eliminaci&#243;n</text></g><g><rect fill="#F1F1F1" height="50" rx="12.5" ry="12.5" style="stroke:#181818;stroke-width:0.5;" width="184.6846" x="757.66" y="198.15"/><line style="stroke:#181818;stroke-width:0.5;" x1="757.66" x2="942.3446" y1="224.4469" y2="224.4469"/><text fill="#000000" font-family="sans-serif" font-size="14" lengthAdjust="spacing" textLength="164.6846" x="767.66" y="216.1451">RECOMPENSA_ABIERTA</text></g><g><rect fill="#F1F1F1" height="50" rx="12.5" ry="12.5" style="stroke:#181818;stroke-width:0.5;" width="202.458" x="505.77" y="534.3"/><line style="stroke:#181818;stroke-width:0.5;" x1="505.77" x2="708.228" y1="560.5969" y2="560.5969"/><text fill="#000000" font-family="sans-serif" font-size="14" lengthAdjust="spacing" textLength="182.458" x="515.77" y="552.2951">RECOMPENSAS_ABIERTAS</text></g><!--link RECOMPENSA_ABIERTA to RECOMPENSAS_ABIERTAS--><g class="link" data-entity-1="ent0008" data-entity-2="ent0009" data-link-type="dependency" data-source-line="32" id="lnk10"><path d="M840.17,248.52 C812.68,316.68 737,504.3 737,504.3 C737,504.3 705.8509,517.2383 671.4509,531.5283" fill="none" id="RECOMPENSA_ABIERTA-to-RECOMPENSAS_ABIERTAS" style="stroke:#008000;stroke-width:1;"/><polygon fill="#008000" points="665.91,533.83,675.7559,534.0713,670.5274,531.9119,672.6869,526.6834,665.91,533.83" style="stroke:#008000;stroke-width:1;"/><path d="M756,474.3 L756,499.3 L924,499.3 L924,484.3 L914,474.3 L756,474.3" fill="#FEFFDD" style="stroke:#181818;stroke-width:0.5;"/><path d="M914,474.3 L914,484.3 L924,484.3 L914,474.3" fill="#FEFFDD" style="stroke:#181818;stroke-width:0.5;"/><text fill="#000000" font-family="sans-serif" font-size="13" lengthAdjust="spacing" textLength="147.2148" x="762" y="491.3669">eliminarRecompensa()</text></g><!--link eliminarRecompensa to RECOMPENSAS_ABIERTAS--><g class="link" data-entity-1="ent0002" data-entity-2="ent0009" data-link-type="dependency" data-source-line="37" id="lnk11"><path d="M521,439.55 C548.62,477.69 570.0613,507.2901 585.8813,529.1401" fill="none" id="eliminarRecompensa-to-RECOMPENSAS_ABIERTAS" style="stroke:#008000;stroke-width:1;"/><polygon fill="#008000" points="589.4,534,587.3619,524.3643,586.4677,529.9501,580.882,529.0559,589.4,534" style="stroke:#008000;stroke-width:1;"/><path d="M572,474.3 L572,499.3 L724,499.3 L724,484.3 L714,474.3 L572,474.3" fill="#FEFFDD" style="stroke:#181818;stroke-width:0.5;"/><path d="M714,474.3 L714,484.3 L724,484.3 L714,474.3" fill="#FEFFDD" style="stroke:#181818;stroke-width:0.5;"/><text fill="#000000" font-family="sans-serif" font-size="13" lengthAdjust="spacing" textLength="131.46" x="578" y="491.3669">abrirRecompensas()</text></g><!--SRC=[dLDBQiCm4Dth52BTj8NG2mI3QxpeeX_ixa8eOtbQHEGP8taJIa_L8_HYbUt47wAc9D9AetcVcP7SLbCD5YffD66pgr7MR7RjGGZNG8CIZQuqWSrGSLKZEP3WvE8uV7spa9z2IBzwvC9ldvemlMjR0PMSzY2bcOxpHgPzMWazs_fs8vVhgm-BI9jbT8gGsFCnjTLiky2gY19cMxPqR5TtHIGT6wrq0qDbqWxA7GQfx8XwzR3Qp538-LzkSkqQhA1pKbjqIDw9scie_VDDiXoQtft_hUE0ja5OKD30cCkTeezSs0QBPTi4FwNpHw2051hltCjpZNPYVIuVQF5i1AVKBspvOE1B296boVFZI_gKns_n_KEQlSRp5p1SvuVxNCoyXFwB66iC_BBp-A6mUe9s4_PV]--></g></svg>