<?xml version="1.0" encoding="us-ascii" standalone="no"?><svg xmlns="http://www.w3.org/2000/svg" xmlns:xlink="http://www.w3.org/1999/xlink" contentStyleType="text/css" height="696px" preserveAspectRatio="none" style="width:536px;height:696px;background:#FFFFFF;" version="1.1" viewBox="0 0 536 696" width="536px" zoomAndPan="magnify"><defs/><g><path d="M19.5,7 L510.5,7 A12.5,12.5 0 0 1 523,19.5 L523,34.6094 L7,34.6094 L7,19.5 A12.5,12.5 0 0 1 19.5,7 " fill="#F1F1F1" style="stroke:#F1F1F1;stroke-width:1.0;"/><rect fill="none" height="536.6094" rx="12.5" ry="12.5" style="stroke:#181818;stroke-width:0.5;" width="516" x="7" y="7"/><line style="stroke:#181818;stroke-width:0.5;" x1="7" x2="523" y1="34.6094" y2="34.6094"/><text fill="#000000" font-family="sans-serif" font-size="14" lengthAdjust="spacing" textLength="99" x="215.5" y="26.5332">crearProyecto()</text><g id="crearProyecto.RellenandoFormulario"><rect fill="#F1F1F1" height="50" rx="12.5" ry="12.5" style="stroke:#181818;stroke-width:0.5;" width="50" x="131" y="137.6094"/><line style="stroke:#181818;stroke-width:0.5;" x1="131" x2="181" y1="165.2188" y2="165.2188"/><text fill="#000000" font-family="sans-serif" font-size="14" lengthAdjust="spacing" textLength="4" x="154" y="157.1426">&#160;</text></g><g id="crearProyecto.ValidandoDatos"><rect fill="#F1F1F1" height="50" rx="12.5" ry="12.5" style="stroke:#181818;stroke-width:0.5;" width="50" x="131" y="324.6094"/><line style="stroke:#181818;stroke-width:0.5;" x1="131" x2="181" y1="352.2188" y2="352.2188"/><text fill="#000000" font-family="sans-serif" font-size="14" lengthAdjust="spacing" textLength="4" x="154" y="344.1426">&#160;</text></g><ellipse cx="156" cy="55.6094" fill="#222222" rx="10" ry="10" style="stroke:#222222;stroke-width:1.0;"/><ellipse cx="156" cy="522.6094" fill="none" rx="11" ry="11" style="stroke:#222222;stroke-width:1.0;"/><ellipse cx="156" cy="522.6094" fill="#222222" rx="6" ry="6" style="stroke:#222222;stroke-width:1.0;"/><!--link *start*crearProyecto to RellenandoFormulario--><g id="link_*start*crearProyecto_RellenandoFormulario"><path d="M156,65.9294 C156,81.7894 156,108.5194 156,131.2494 " fill="none" id="*start*crearProyecto-to-RellenandoFormulario" style="stroke:#008000;stroke-width:1.0;"/><polygon fill="#008000" points="156,137.2494,160,128.2494,156,132.2494,152,128.2494,156,137.2494" style="stroke:#008000;stroke-width:1.0;"/><path d="M161,88.6094 L161,114.6094 L430,114.6094 L430,98.6094 L420,88.6094 L161,88.6094 " fill="#FEFFDD" style="stroke:#181818;stroke-width:0.5;"/><path d="M420,88.6094 L420,98.6094 L430,98.6094 L420,88.6094 " fill="#FEFFDD" style="stroke:#181818;stroke-width:0.5;"/><text fill="#000000" font-family="sans-serif" font-size="13" font-weight="bold" lengthAdjust="spacing" textLength="79" x="167" y="107.1045">Coordinador</text><text fill="#000000" font-family="sans-serif" font-size="13" lengthAdjust="spacing" textLength="165" x="250" y="107.1045">solicita crear proyecto nuevo</text></g><!--link RellenandoFormulario to ValidandoDatos--><g id="link_RellenandoFormulario_ValidandoDatos"><path d="M130.69,171.3094 C90.85,183.4394 18,205.6094 18,205.6094 C18,205.6094 18,306.6094 18,306.6094 C18,306.6094 85.1101,327.0318 124.9501,339.1618 " fill="none" id="RellenandoFormulario-to-ValidandoDatos" style="stroke:#008000;stroke-width:1.0;"/><polygon fill="#008000" points="130.69,340.9094,123.2453,334.4614,125.9068,339.453,120.9152,342.1145,130.69,340.9094" style="stroke:#008000;stroke-width:1.0;"/><path d="M23,235.1094 L23,277.1094 L269,277.1094 L269,245.1094 L259,235.1094 L23,235.1094 " fill="#FEFFDD" style="stroke:#181818;stroke-width:0.5;"/><path d="M259,235.1094 L259,245.1094 L269,245.1094 L259,235.1094 " fill="#FEFFDD" style="stroke:#181818;stroke-width:0.5;"/><text fill="#000000" font-family="sans-serif" font-size="13" font-weight="bold" lengthAdjust="spacing" textLength="79" x="29" y="253.6045">Coordinador</text><text fill="#000000" font-family="sans-serif" font-size="13" lengthAdjust="spacing" textLength="142" x="112" y="253.6045">solicita guardar proyecto</text><text fill="#000000" font-family="sans-serif" font-size="13" font-weight="bold" lengthAdjust="spacing" textLength="51" x="29" y="269.9561">Sistema</text><text fill="#000000" font-family="sans-serif" font-size="13" lengthAdjust="spacing" textLength="163" x="84" y="269.9561">valida los datos introducidos</text></g><!--link ValidandoDatos to RellenandoFormulario--><g id="link_ValidandoDatos_RellenandoFormulario"><path d="M181.02,339.6994 C215.66,327.3694 274,306.6094 274,306.6094 C274,306.6094 274,205.6094 274,205.6094 C274,205.6094 221.3126,186.8614 186.6726,174.5314 " fill="none" id="ValidandoDatos-to-RellenandoFormulario" style="stroke:#008000;stroke-width:1.0;"/><polygon fill="#008000" points="181.02,172.5194,188.1575,179.3058,185.7305,174.1961,190.8402,171.769,181.02,172.5194" style="stroke:#008000;stroke-width:1.0;"/><path d="M279,210.6094 L279,301.6094 L514,301.6094 L514,220.6094 L504,210.6094 L279,210.6094 " fill="#FEFFDD" style="stroke:#181818;stroke-width:0.5;"/><path d="M504,210.6094 L504,220.6094 L514,220.6094 L504,210.6094 " fill="#FEFFDD" style="stroke:#181818;stroke-width:0.5;"/><text fill="#000000" font-family="sans-serif" font-size="13" lengthAdjust="spacing" textLength="170" x="285" y="229.1045">Datos del proyecto no v&#225;lidos</text><text fill="#000000" font-family="sans-serif" font-size="13" font-weight="bold" lengthAdjust="spacing" textLength="51" x="285" y="245.4561">Sistema</text><text fill="#000000" font-family="sans-serif" font-size="13" lengthAdjust="spacing" textLength="155" x="340" y="245.4561">muestra mensajes de error</text><text fill="#000000" font-family="sans-serif" font-size="13" lengthAdjust="spacing" textLength="167" x="285" y="261.8076">&#8226; Campos obligatorios vac&#237;os</text><text fill="#000000" font-family="sans-serif" font-size="13" lengthAdjust="spacing" textLength="130" x="285" y="278.1592">&#8226; Fechas incoherentes</text><text fill="#000000" font-family="sans-serif" font-size="13" lengthAdjust="spacing" textLength="214" x="285" y="294.5107">&#8226; Formato incorrecto en alg&#250;n campo</text></g><!--link ValidandoDatos to *end*crearProyecto--><g id="link_ValidandoDatos_*end*crearProyecto"><path d="M156,374.7494 C156,412.6794 156,478.6594 156,505.3294 " fill="none" id="ValidandoDatos-to-*end*crearProyecto" style="stroke:#008000;stroke-width:1.0;"/><polygon fill="#008000" points="156,511.3294,160,502.3294,156,506.3294,152,502.3294,156,511.3294" style="stroke:#008000;stroke-width:1.0;"/><path d="M161,397.6094 L161,488.6094 L460,488.6094 L460,407.6094 L450,397.6094 L161,397.6094 " fill="#FEFFDD" style="stroke:#181818;stroke-width:0.5;"/><path d="M450,397.6094 L450,407.6094 L460,407.6094 L450,397.6094 " fill="#FEFFDD" style="stroke:#181818;stroke-width:0.5;"/><text fill="#000000" font-family="sans-serif" font-size="13" lengthAdjust="spacing" textLength="152" x="167" y="416.1045">Datos del proyecto v&#225;lidos</text><text fill="#000000" font-family="sans-serif" font-size="13" font-weight="bold" lengthAdjust="spacing" textLength="51" x="167" y="432.4561">Sistema</text><text fill="#000000" font-family="sans-serif" font-size="13" lengthAdjust="spacing" textLength="93" x="222" y="432.4561">crea el proyecto</text><text fill="#000000" font-family="sans-serif" font-size="13" lengthAdjust="spacing" textLength="194" x="167" y="448.8076">&#8226; Asigna identificador de proyecto</text><text fill="#000000" font-family="sans-serif" font-size="13" lengthAdjust="spacing" textLength="278" x="167" y="465.1592">&#8226; Guarda t&#237;tulo, descripci&#243;n, fechas, coordinador</text><text fill="#000000" font-family="sans-serif" font-size="13" lengthAdjust="spacing" textLength="153" x="167" y="481.5107">&#8226; Muestra proyecto creado</text></g><g id="PROYECTO_ABIERTO"><rect fill="#F1F1F1" height="50" rx="12.5" ry="12.5" style="stroke:#181818;stroke-width:0.5;" width="166" x="77" y="640"/><line style="stroke:#181818;stroke-width:0.5;" x1="77" x2="243" y1="667.6094" y2="667.6094"/><text fill="#000000" font-family="sans-serif" font-size="14" lengthAdjust="spacing" textLength="146" x="87" y="659.5332">PROYECTO_ABIERTO</text></g><g id="PROYECTOS_ABIERTOS"><rect fill="#F1F1F1" height="50" rx="12.5" ry="12.5" style="stroke:#181818;stroke-width:0.5;" width="184" x="278" y="640"/><line style="stroke:#181818;stroke-width:0.5;" x1="278" x2="462" y1="667.6094" y2="667.6094"/><text fill="#000000" font-family="sans-serif" font-size="14" lengthAdjust="spacing" textLength="164" x="288" y="659.5332">PROYECTOS_ABIERTOS</text></g><!--link crearProyecto to PROYECTO_ABIERTO--><g id="link_crearProyecto_PROYECTO_ABIERTO"><path d="M192.5,544.05 C181.82,583.49 174.0013,612.3494 168.0913,634.1294 " fill="none" id="crearProyecto-to-PROYECTO_ABIERTO" style="stroke:#008000;stroke-width:1.0;"/><polygon fill="#008000" points="166.52,639.92,172.7373,632.2816,167.8294,635.0945,165.0165,630.1866,166.52,639.92" style="stroke:#008000;stroke-width:1.0;"/><path d="M188,579 L188,605 L294,605 L294,589 L284,579 L188,579 " fill="#FEFFDD" style="stroke:#181818;stroke-width:0.5;"/><path d="M284,579 L284,589 L294,589 L284,579 " fill="#FEFFDD" style="stroke:#181818;stroke-width:0.5;"/><text fill="#000000" font-family="sans-serif" font-size="13" lengthAdjust="spacing" textLength="85" x="194" y="597.4951">abrirProyecto()</text></g><!--link crearProyecto to PROYECTOS_ABIERTOS--><g id="link_crearProyecto_PROYECTOS_ABIERTOS"><path d="M337.5,544.05 C348.18,583.49 355.9987,612.3494 361.9087,634.1294 " fill="none" id="crearProyecto-to-PROYECTOS_ABIERTOS" style="stroke:#008000;stroke-width:1.0;"/><polygon fill="#008000" points="363.48,639.92,364.9835,630.1866,362.1706,635.0945,357.2627,632.2816,363.48,639.92" style="stroke:#008000;stroke-width:1.0;"/><path d="M359,579 L359,605 L472,605 L472,589 L462,579 L359,579 " fill="#FEFFDD" style="stroke:#181818;stroke-width:0.5;"/><path d="M462,579 L462,589 L472,589 L462,579 " fill="#FEFFDD" style="stroke:#181818;stroke-width:0.5;"/><text fill="#000000" font-family="sans-serif" font-size="13" lengthAdjust="spacing" textLength="92" x="365" y="597.4951">abrirProyectos()</text></g><!--SRC=[dLFDRXCn4BxlKupI2w1Kl40LgOIsue1I9HKIgYeqiQTRKwzdDVP6YX0IhmBtdhXntJVXIR2zIRgRGg7idjR-vljRszyQLwDW1TOu2kkQe6QxJXz5uGC60YM4SYwy9XKOqCDeiFBi-GW-5GN4fyEFuXjHSxAM73hDfonLOr4CFqIzGsjq0ht6mBwZkNnn1OUN1wKGkQl3oP-P74SYTidwRLuuMawcpAADGyroz78v0S_MA1EmYm7rDeThQDMnaDEPgHF_dTZ0pPxZ9_ie6nJTSx8TM1WVgC8CNcKDiEn19nKmBWZhHXczaHoQ7dhwp_AwMKssLnB3glrgTwfxDgk6V124Yfp7ZvI6WKHOClZdbsymnQgEfBoqfepqKTl7SAgzsn0cp2cf6qmH5T-Ga0lKsukUurpU5CcUo07QiltXG2NofxKHZzO_XtyiUJfCq0Fl31zxKpe4esCESsrK-l-fbWV0itmC8BHteR4yZXYlnDJAjD_T6Avp9sDGzwTeD_bsq_hEQ3AZzuhuN1J3UzjluNm-UtyolPXzE7xrvcH-CIi6TU1IJEzs5_Vb_frniQLSFCBf-wI_0000]--></g></svg>