<svg xmlns="http://www.w3.org/2000/svg" xmlns:xlink="http://www.w3.org/1999/xlink" contentStyleType="text/css" data-diagram-type="STATE" height="590px" preserveAspectRatio="none" style="width:406px;height:590px;background:#FFFFFF;" version="1.1" viewBox="0 0 406 590" width="406px" zoomAndPan="magnify"><defs/><g><path d="M19.5,7 L380.5,7 A12.5,12.5 0 0 1 393,19.5 L393,33.2969 L7,33.2969 L7,19.5 A12.5,12.5 0 0 1 19.5,7" fill="#F1F1F1"/><rect fill="none" height="432.2969" rx="12.5" ry="12.5" style="stroke:#181818;stroke-width:0.5;" width="386" x="7" y="7"/><line style="stroke:#181818;stroke-width:0.5;" x1="7" x2="393" y1="33.2969" y2="33.2969"/><text fill="#000000" font-family="sans-serif" font-size="14" lengthAdjust="spacing" textLength="203.0137" x="98.4932" y="24.9951">abrirOpcionesCargaTrabajo()</text><g id="abrirOpcionesCargaTrabajo.MostrandoEntregable"><rect fill="#F1F1F1" height="50" rx="12.5" ry="12.5" style="stroke:#181818;stroke-width:0.5;" width="50" x="19" y="135.2969"/><line style="stroke:#181818;stroke-width:0.5;" x1="19" x2="69" y1="161.5938" y2="161.5938"/><text fill="#000000" font-family="sans-serif" font-size="14" lengthAdjust="spacing" textLength="4.4502" x="41.7749" y="153.292">&#160;</text></g><g id="abrirOpcionesCargaTrabajo.FiltrandoEntregable"><rect fill="#F1F1F1" height="50" rx="12.5" ry="12.5" style="stroke:#181818;stroke-width:0.5;" width="50" x="19" y="286.2969"/><line style="stroke:#181818;stroke-width:0.5;" x1="19" x2="69" y1="312.5938" y2="312.5938"/><text fill="#000000" font-family="sans-serif" font-size="14" lengthAdjust="spacing" textLength="4.4502" x="41.7749" y="304.292">&#160;</text></g><ellipse cx="44" cy="54.2969" fill="#222222" rx="10" ry="10" style="stroke:#222222;stroke-width:1;"/><ellipse cx="44" cy="418.2969" fill="none" rx="11" ry="11" style="stroke:#222222;stroke-width:1;"/><ellipse cx="44" cy="418.2969" fill="#222222" rx="6" ry="6" style="stroke:#222222;stroke-width:1;"/><!--link *start*abrirOpcionesCargaTrabajo to MostrandoEntregable--><g class="link" data-entity-1=".start.abrirOpcionesCargaTrabajo" data-entity-2="MostrandoEntregable" data-source-line="8" data-uid="lnk3" id="link_.start.abrirOpcionesCargaTrabajo_MostrandoEntregable"><path d="M44,64.5269 C44,80.2369 44,106.6569 44,129.1669" fill="none" id="*start*abrirOpcionesCargaTrabajo-to-MostrandoEntregable" style="stroke:#008000;stroke-width:1;"/><polygon fill="#008000" points="44,135.1669,48,126.1669,44,130.1669,40,126.1669,44,135.1669" style="stroke:#008000;stroke-width:1;"/><path d="M49,87.2969 L49,112.2969 L358,112.2969 L358,97.2969 L348,87.2969 L49,87.2969" fill="#FEFFDD" style="stroke:#181818;stroke-width:0.5;"/><path d="M348,87.2969 L348,97.2969 L358,97.2969 L348,87.2969" fill="#FEFFDD" style="stroke:#181818;stroke-width:0.5;"/><text fill="#000000" font-family="sans-serif" font-size="13" font-weight="bold" lengthAdjust="spacing" textLength="92.5171" x="55" y="104.3638">Investigador</text><text fill="#000000" font-family="sans-serif" font-size="13" lengthAdjust="spacing" textLength="191.9404" x="151.6494" y="104.3638">solicita abrir carga de trabajo</text></g><!--link MostrandoEntregable to FiltrandoEntregable--><g class="link" data-entity-1="MostrandoEntregable" data-entity-2="FiltrandoEntregable" data-source-line="13" data-uid="lnk4" id="link_MostrandoEntregable_FiltrandoEntregable"><path d="M44,185.5669 C44,213.2769 44,252.3369 44,280.0369" fill="none" id="MostrandoEntregable-to-FiltrandoEntregable" style="stroke:#008000;stroke-width:1;"/><polygon fill="#008000" points="44,286.0369,48,277.0369,44,281.0369,40,277.0369,44,286.0369" style="stroke:#008000;stroke-width:1;"/><path d="M49,208.2969 L49,263.2969 L384,263.2969 L384,218.2969 L374,208.2969 L49,208.2969" fill="#FEFFDD" style="stroke:#181818;stroke-width:0.5;"/><path d="M374,208.2969 L374,218.2969 L384,218.2969 L374,208.2969" fill="#FEFFDD" style="stroke:#181818;stroke-width:0.5;"/><text fill="#000000" font-family="sans-serif" font-size="13" font-weight="bold" lengthAdjust="spacing" textLength="58.9063" x="55" y="225.3638">Sistema</text><text fill="#000000" font-family="sans-serif" font-size="13" lengthAdjust="spacing" textLength="251.6274" x="118.0386" y="225.3638">presenta opciones de carga de trabajo</text><text fill="#000000" font-family="sans-serif" font-size="13" lengthAdjust="spacing" textLength="121.1133" x="55" y="240.4966">&#8226; Carga de trabajo</text><text fill="#000000" font-family="sans-serif" font-size="13" lengthAdjust="spacing" textLength="271.521" x="55" y="255.6294">&#8226; Permite solicitar editar carga de trabajo</text></g><!--link FiltrandoEntregable to *end*abrirOpcionesCargaTrabajo--><g class="link" data-entity-1="FiltrandoEntregable" data-entity-2=".end.abrirOpcionesCargaTrabajo" data-source-line="20" data-uid="lnk6" id="link_FiltrandoEntregable_.end.abrirOpcionesCargaTrabajo"><path d="M44,336.3869 C44,358.7869 44,385.0669 44,401.2469" fill="none" id="FiltrandoEntregable-to-*end*abrirOpcionesCargaTrabajo" style="stroke:#008000;stroke-width:1;"/><polygon fill="#008000" points="44,407.2469,48,398.2469,44,402.2469,40,398.2469,44,407.2469" style="stroke:#008000;stroke-width:1;"/><path d="M49,359.2969 L49,384.2969 L345,384.2969 L345,369.2969 L335,359.2969 L49,359.2969" fill="#FEFFDD" style="stroke:#181818;stroke-width:0.5;"/><path d="M335,359.2969 L335,369.2969 L345,369.2969 L335,359.2969" fill="#FEFFDD" style="stroke:#181818;stroke-width:0.5;"/><text fill="#000000" font-family="sans-serif" font-size="13" font-weight="bold" lengthAdjust="spacing" textLength="92.5171" x="55" y="376.3638">Investigador</text><text fill="#000000" font-family="sans-serif" font-size="13" lengthAdjust="spacing" textLength="179.2769" x="151.6494" y="376.3638">solicita una de las opciones</text></g><g id="OPCIONES_CARGA_TRABAJO_ABIERTAS"><rect fill="#F1F1F1" height="50" rx="12.5" ry="12.5" style="stroke:#181818;stroke-width:0.5;" width="294.1826" x="53" y="534"/><line style="stroke:#181818;stroke-width:0.5;" x1="53" x2="347.1826" y1="560.2969" y2="560.2969"/><text fill="#000000" font-family="sans-serif" font-size="14" lengthAdjust="spacing" textLength="274.1826" x="63" y="551.9951">OPCIONES_CARGA_TRABAJO_ABIERTAS</text></g><!--link abrirOpcionesCargaTrabajo to OPCIONES_CARGA_TRABAJO_ABIERTAS--><g class="link" data-entity-1="abrirOpcionesCargaTrabajo" data-entity-2="OPCIONES_CARGA_TRABAJO_ABIERTAS" data-source-line="26" data-uid="lnk8" id="link_abrirOpcionesCargaTrabajo_OPCIONES_CARGA_TRABAJO_ABIERTAS"><path d="M200,439.3 C200,477.42 200,505.87 200,527.71" fill="none" id="abrirOpcionesCargaTrabajo-to-OPCIONES_CARGA_TRABAJO_ABIERTAS" style="stroke:#008000;stroke-width:1;"/><polygon fill="#008000" points="200,533.71,204,524.71,200,528.71,196,524.71,200,533.71" style="stroke:#008000;stroke-width:1;"/><path d="M205,474 L205,499 L362,499 L362,484 L352,474 L205,474" fill="#FEFFDD" style="stroke:#181818;stroke-width:0.5;"/><path d="M352,474 L352,484 L362,484 L352,474" fill="#FEFFDD" style="stroke:#181818;stroke-width:0.5;"/><text fill="#000000" font-family="sans-serif" font-size="13" lengthAdjust="spacing" textLength="136.0557" x="211" y="491.0669">editarCargaTrabajo()</text></g><!--SRC=[dPBHIiCm58RlynI7UQF2y0L6eIjJAcX7sxinocbxA75jKf8e315y5X_D9p5DhQwizS844fASdF__agCFNBIei86Q2pB7bg2LzR5RCAOD6WBC5LTHMt0fI0UeAamLvlWa0JKiPaylhnRmoXZOrkTPs6vlF4Xj58fIReHHL65UqtdGBQ_FWbpKxdeFozr5fOZ4VkbDPGCNAAJD9aM7TN0RgzmBnGjfmoiifLhTv1veMVE26-mPeUZiGqbWUWHtZqJP9xED_GnJkgU-fW3cR2LS6shGEMeLQHBMaVn-qixEfA_Fzmy8vWwsf1fkbGP01LIwwK_4Nxm9-oCy-mt_UELduQHh-y43tbZ_ZR7vQZlLZxP163rkaYpmupi_IsD_xTz7cRyEDt7g9spagqSVroORDBy0]--></g></svg>