<svg xmlns="http://www.w3.org/2000/svg" xmlns:xlink="http://www.w3.org/1999/xlink" contentStyleType="text/css" data-diagram-type="STATE" height="605px" preserveAspectRatio="none" style="width:582px;height:605px;background:#FFFFFF;" version="1.1" viewBox="0 0 582 605" width="582px" zoomAndPan="magnify"><defs/><g><path d="M92.5,7 L503.5,7 A12.5,12.5 0 0 1 516,19.5 L516,33.2969 L80,33.2969 L80,19.5 A12.5,12.5 0 0 1 92.5,7" fill="#F1F1F1"/><rect fill="none" height="447.2969" rx="12.5" ry="12.5" style="stroke:#181818;stroke-width:0.5;" width="436" x="80" y="7"/><line style="stroke:#181818;stroke-width:0.5;" x1="80" x2="516" y1="33.2969" y2="33.2969"/><text fill="#000000" font-family="sans-serif" font-size="14" lengthAdjust="spacing" textLength="203.0137" x="196.4932" y="24.9951">abrirOpcionesCargaTrabajo()</text><g id="abrirOpcionesCargaTrabajo.MostrandoEntregable"><rect fill="#F1F1F1" height="50" rx="12.5" ry="12.5" style="stroke:#181818;stroke-width:0.5;" width="50" x="92" y="135.2969"/><line style="stroke:#181818;stroke-width:0.5;" x1="92" x2="142" y1="161.5938" y2="161.5938"/><text fill="#000000" font-family="sans-serif" font-size="14" lengthAdjust="spacing" textLength="4.4502" x="114.7749" y="153.292">&#160;</text></g><g id="abrirOpcionesCargaTrabajo.FiltrandoEntregable"><rect fill="#F1F1F1" height="50" rx="12.5" ry="12.5" style="stroke:#181818;stroke-width:0.5;" width="50" x="92" y="301.2969"/><line style="stroke:#181818;stroke-width:0.5;" x1="92" x2="142" y1="327.5938" y2="327.5938"/><text fill="#000000" font-family="sans-serif" font-size="14" lengthAdjust="spacing" textLength="4.4502" x="114.7749" y="319.292">&#160;</text></g><ellipse cx="117" cy="54.2969" fill="#222222" rx="10" ry="10" style="stroke:#222222;stroke-width:1;"/><ellipse cx="117" cy="433.2969" fill="none" rx="11" ry="11" style="stroke:#222222;stroke-width:1;"/><ellipse cx="117" cy="433.2969" fill="#222222" rx="6" ry="6" style="stroke:#222222;stroke-width:1;"/><!--link *start*abrirOpcionesCargaTrabajo to MostrandoEntregable--><g class="link" data-entity-1=".start.abrirOpcionesCargaTrabajo" data-entity-2="MostrandoEntregable" data-source-line="8" data-uid="lnk3" id="link_.start.abrirOpcionesCargaTrabajo_MostrandoEntregable"><path d="M117,64.5269 C117,80.2369 117,106.6569 117,129.1669" fill="none" id="*start*abrirOpcionesCargaTrabajo-to-MostrandoEntregable" style="stroke:#008000;stroke-width:1;"/><polygon fill="#008000" points="117,135.1669,121,126.1669,117,130.1669,113,126.1669,117,135.1669" style="stroke:#008000;stroke-width:1;"/><path d="M122,87.2969 L122,112.2969 L431,112.2969 L431,97.2969 L421,87.2969 L122,87.2969" fill="#FEFFDD" style="stroke:#181818;stroke-width:0.5;"/><path d="M421,87.2969 L421,97.2969 L431,97.2969 L421,87.2969" fill="#FEFFDD" style="stroke:#181818;stroke-width:0.5;"/><text fill="#000000" font-family="sans-serif" font-size="13" font-weight="bold" lengthAdjust="spacing" textLength="92.5171" x="128" y="104.3638">Investigador</text><text fill="#000000" font-family="sans-serif" font-size="13" lengthAdjust="spacing" textLength="191.9404" x="224.6494" y="104.3638">solicita abrir carga de trabajo</text></g><!--link MostrandoEntregable to FiltrandoEntregable--><g class="link" data-entity-1="MostrandoEntregable" data-entity-2="FiltrandoEntregable" data-source-line="13" data-uid="lnk4" id="link_MostrandoEntregable_FiltrandoEntregable"><path d="M117,185.4969 C117,216.5869 117,264.2469 117,295.2669" fill="none" id="MostrandoEntregable-to-FiltrandoEntregable" style="stroke:#008000;stroke-width:1;"/><polygon fill="#008000" points="117,301.2669,121,292.2669,117,296.2669,113,292.2669,117,301.2669" style="stroke:#008000;stroke-width:1;"/><path d="M122,208.2969 L122,278.2969 L507,278.2969 L507,218.2969 L497,208.2969 L122,208.2969" fill="#FEFFDD" style="stroke:#181818;stroke-width:0.5;"/><path d="M497,208.2969 L497,218.2969 L507,218.2969 L497,208.2969" fill="#FEFFDD" style="stroke:#181818;stroke-width:0.5;"/><text fill="#000000" font-family="sans-serif" font-size="13" font-weight="bold" lengthAdjust="spacing" textLength="58.9063" x="128" y="225.3638">Sistema</text><text fill="#000000" font-family="sans-serif" font-size="13" lengthAdjust="spacing" textLength="251.6274" x="191.0386" y="225.3638">presenta opciones de carga de trabajo</text><text fill="#000000" font-family="sans-serif" font-size="13" lengthAdjust="spacing" textLength="7.668" x="128" y="240.4966">&#8226;</text><text fill="#000000" font-family="sans-serif" font-size="13" font-weight="bold" lengthAdjust="spacing" textLength="58.9063" x="135.668" y="240.4966">Sistema</text><text fill="#000000" font-family="sans-serif" font-size="13" lengthAdjust="spacing" textLength="293.814" x="198.7065" y="240.4966">presenta la carga de trabajo del investigador</text><text fill="#000000" font-family="sans-serif" font-size="13" lengthAdjust="spacing" textLength="271.521" x="128" y="255.6294">&#8226; Permite solicitar editar carga de trabajo</text><text fill="#000000" font-family="sans-serif" font-size="13" lengthAdjust="spacing" textLength="268.3662" x="128" y="270.7622">&#8226; Permite solicitar abrir el panel principal</text></g><!--link FiltrandoEntregable to *end*abrirOpcionesCargaTrabajo--><g class="link" data-entity-1="FiltrandoEntregable" data-entity-2=".end.abrirOpcionesCargaTrabajo" data-source-line="21" data-uid="lnk6" id="link_FiltrandoEntregable_.end.abrirOpcionesCargaTrabajo"><path d="M117,351.3869 C117,373.7869 117,400.0669 117,416.2469" fill="none" id="FiltrandoEntregable-to-*end*abrirOpcionesCargaTrabajo" style="stroke:#008000;stroke-width:1;"/><polygon fill="#008000" points="117,422.2469,121,413.2469,117,417.2469,113,413.2469,117,422.2469" style="stroke:#008000;stroke-width:1;"/><path d="M122,374.2969 L122,399.2969 L418,399.2969 L418,384.2969 L408,374.2969 L122,374.2969" fill="#FEFFDD" style="stroke:#181818;stroke-width:0.5;"/><path d="M408,374.2969 L408,384.2969 L418,384.2969 L408,374.2969" fill="#FEFFDD" style="stroke:#181818;stroke-width:0.5;"/><text fill="#000000" font-family="sans-serif" font-size="13" font-weight="bold" lengthAdjust="spacing" textLength="92.5171" x="128" y="391.3638">Investigador</text><text fill="#000000" font-family="sans-serif" font-size="13" lengthAdjust="spacing" textLength="179.2769" x="224.6494" y="391.3638">solicita una de las opciones</text></g><g id="OPCIONES_CARGA_TRABAJO_ABIERTAS"><rect fill="#F1F1F1" height="50" rx="12.5" ry="12.5" style="stroke:#181818;stroke-width:0.5;" width="294.1826" x="7" y="549"/><line style="stroke:#181818;stroke-width:0.5;" x1="7" x2="301.1826" y1="575.2969" y2="575.2969"/><text fill="#000000" font-family="sans-serif" font-size="14" lengthAdjust="spacing" textLength="274.1826" x="17" y="566.9951">OPCIONES_CARGA_TRABAJO_ABIERTAS</text></g><g id="PANEL_PRINCIPAL_ABIERTO"><rect fill="#F1F1F1" height="50" rx="12.5" ry="12.5" style="stroke:#181818;stroke-width:0.5;" width="213.0879" x="336.5" y="549"/><line style="stroke:#181818;stroke-width:0.5;" x1="336.5" x2="549.5879" y1="575.2969" y2="575.2969"/><text fill="#000000" font-family="sans-serif" font-size="14" lengthAdjust="spacing" textLength="193.0879" x="346.5" y="566.9951">PANEL_PRINCIPAL_ABIERTO</text></g><!--link abrirOpcionesCargaTrabajo to OPCIONES_CARGA_TRABAJO_ABIERTAS--><g class="link" data-entity-1="abrirOpcionesCargaTrabajo" data-entity-2="OPCIONES_CARGA_TRABAJO_ABIERTAS" data-source-line="27" data-uid="lnk8" id="link_abrirOpcionesCargaTrabajo_OPCIONES_CARGA_TRABAJO_ABIERTAS"><path d="M204.16,454.04 C187.99,492.39 175.7826,521.352 166.5626,543.202" fill="none" id="abrirOpcionesCargaTrabajo-to-OPCIONES_CARGA_TRABAJO_ABIERTAS" style="stroke:#008000;stroke-width:1;"/><polygon fill="#008000" points="164.23,548.73,171.4143,541.9931,166.1739,544.1233,164.0436,538.8829,164.23,548.73" style="stroke:#008000;stroke-width:1;"/><path d="M194,489 L194,514 L351,514 L351,499 L341,489 L194,489" fill="#FEFFDD" style="stroke:#181818;stroke-width:0.5;"/><path d="M341,489 L341,499 L351,499 L341,489" fill="#FEFFDD" style="stroke:#181818;stroke-width:0.5;"/><text fill="#000000" font-family="sans-serif" font-size="13" lengthAdjust="spacing" textLength="136.0557" x="200" y="506.0669">editarCargaTrabajo()</text></g><!--link abrirOpcionesCargaTrabajo to PANEL_PRINCIPAL_ABIERTO--><g class="link" data-entity-1="abrirOpcionesCargaTrabajo" data-entity-2="PANEL_PRINCIPAL_ABIERTO" data-source-line="32" data-uid="lnk10" id="link_abrirOpcionesCargaTrabajo_PANEL_PRINCIPAL_ABIERTO"><path d="M392.49,454.04 C408.77,492.39 421.0745,521.3574 430.3545,543.2074" fill="none" id="abrirOpcionesCargaTrabajo-to-PANEL_PRINCIPAL_ABIERTO" style="stroke:#008000;stroke-width:1;"/><polygon fill="#008000" points="432.7,548.73,432.8634,538.8825,430.7454,544.1279,425.5,542.0098,432.7,548.73" style="stroke:#008000;stroke-width:1;"/><path d="M423,489 L423,514 L575,514 L575,499 L565,489 L423,489" fill="#FEFFDD" style="stroke:#181818;stroke-width:0.5;"/><path d="M565,489 L565,499 L575,499 L565,489" fill="#FEFFDD" style="stroke:#181818;stroke-width:0.5;"/><text fill="#000000" font-family="sans-serif" font-size="13" lengthAdjust="spacing" textLength="131.9424" x="429" y="506.0669">abrirPanelPrincipal()</text></g><!--SRC=[dLBTIiCm5BxFKuHveyBm1SOWArKgSotTxiOef-kXn6L9IQ8mHF1PV3IVn3HTjMKjY2caV-VxEL-EEN1PWOOZ5LoYFLL8AoLEzGiXne952hdcEgxsN4aq0UWIDXfoU5OK39sC_hs-cT0tGgXR3S_4NGxnf8pL80iLIgknX5pWPT4z5nT5lcfxkwFJxLMf4ULkEXzYexvGAiUcPDtMmN-OvVD8lgAnl8H2wTbTFgT62Rxd5feUwRwsJmkajcd1ur0M3PbRv6SRqktw6cfWpDQQ6uj7y8ugZGQbSwJEaTPs1drzVNoEOGLSGDoZeBpJVyj14zH7xaorMMYAXR-DgGuWclYSGWMotZMNUrw1w0Nu6zv0EBtmt27_umnVf7ShtFYquVNrtmaPd-MkVfm4KRmArrd0qWUMRLAsO8znnXPHc6xOclHyDMdr9v_yQFvHCM6hS9abQRGAeeGjpr9nNybJ9NN2IHjmH-eR]--></g></svg>