<svg xmlns="http://www.w3.org/2000/svg" xmlns:xlink="http://www.w3.org/1999/xlink" contentStyleType="text/css" data-diagram-type="STATE" height="707px" preserveAspectRatio="none" style="width:748px;height:707px;background:#FFFFFF;" version="1.1" viewBox="0 0 748 707" width="748px" zoomAndPan="magnify"><defs/><g><ellipse cx="329.05" cy="16" fill="#222222" rx="10" ry="10" style="stroke:#222222;stroke-width:1;"/><rect fill="#F1F1F1" height="40" rx="12.5" ry="12.5" style="stroke:#181818;stroke-width:0.5;" width="80.4854" x="289.05" y="87"/><text fill="#000000" font-family="sans-serif" font-size="14" lengthAdjust="spacing" textLength="70.4854" x="294.05" y="111.8467">Propuesto</text><rect fill="#F1F1F1" height="40" rx="12.5" ry="12.5" style="stroke:#181818;stroke-width:0.5;" width="77.7031" x="290.05" y="204"/><text fill="#000000" font-family="sans-serif" font-size="14" lengthAdjust="spacing" textLength="67.7031" x="295.05" y="228.8467">Aprobado</text><rect fill="#F1F1F1" height="40" rx="12.5" ry="12.5" style="stroke:#181818;stroke-width:0.5;" width="94.6631" x="281.55" y="321"/><text fill="#000000" font-family="sans-serif" font-size="14" lengthAdjust="spacing" textLength="84.6631" x="286.55" y="345.8467">EnEjecucion</text><rect fill="#F1F1F1" height="40" rx="12.5" ry="12.5" style="stroke:#181818;stroke-width:0.5;" width="182.6826" x="168.55" y="438"/><text fill="#000000" font-family="sans-serif" font-size="14" lengthAdjust="spacing" textLength="172.6826" x="173.55" y="462.8467">EnRevisionDeEntregable</text><rect fill="#F1F1F1" height="40" rx="12.5" ry="12.5" style="stroke:#181818;stroke-width:0.5;" width="80.5537" x="288.55" y="578"/><text fill="#000000" font-family="sans-serif" font-size="14" lengthAdjust="spacing" textLength="70.5537" x="293.55" y="602.8467">Finalizado</text><rect fill="#F1F1F1" height="40" rx="12.5" ry="12.5" style="stroke:#181818;stroke-width:0.5;" width="83.459" x="450.55" y="508"/><text fill="#000000" font-family="sans-serif" font-size="14" lengthAdjust="spacing" textLength="73.459" x="455.55" y="532.8467">Cancelado</text><ellipse cx="410.05" cy="690" fill="none" rx="11" ry="11" style="stroke:#222222;stroke-width:1;"/><ellipse cx="410.05" cy="690" fill="#222222" rx="6" ry="6" style="stroke:#222222;stroke-width:1;"/><!--link *start* to Propuesto--><g class="link" data-entity-1=".start." data-entity-2="Propuesto" data-source-line="3" data-uid="lnk4" id="link_.start._Propuesto"><path d="M329.05,26.19 C329.05,40.4 329.05,62.02 329.05,80.74" fill="none" id="*start*-to-Propuesto" style="stroke:#181818;stroke-width:1;"/><polygon fill="#181818" points="329.05,86.74,333.05,77.74,329.05,81.74,325.05,77.74,329.05,86.74" style="stroke:#181818;stroke-width:1;"/></g><!--link Propuesto to Aprobado--><g class="link" data-entity-1="Propuesto" data-entity-2="Aprobado" data-source-line="5" data-uid="lnk6" id="link_Propuesto_Aprobado"><path d="M329.05,127.25 C329.05,148.48 329.05,176.44 329.05,197.69" fill="none" id="Propuesto-to-Aprobado" style="stroke:#181818;stroke-width:1;"/><polygon fill="#181818" points="329.05,203.69,333.05,194.69,329.05,198.69,325.05,194.69,329.05,203.69" style="stroke:#181818;stroke-width:1;"/><text fill="#000000" font-family="sans-serif" font-size="13" lengthAdjust="spacing" textLength="342.9575" x="330.05" y="170.0669">Propuesta aceptada por Departamento de Proyectos</text></g><!--link Aprobado to EnEjecucion--><g class="link" data-entity-1="Aprobado" data-entity-2="EnEjecucion" data-source-line="7" data-uid="lnk8" id="link_Aprobado_EnEjecucion"><path d="M329.05,244.25 C329.05,265.48 329.05,293.44 329.05,314.69" fill="none" id="Aprobado-to-EnEjecucion" style="stroke:#181818;stroke-width:1;"/><polygon fill="#181818" points="329.05,320.69,333.05,311.69,329.05,315.69,325.05,311.69,329.05,320.69" style="stroke:#181818;stroke-width:1;"/><text fill="#000000" font-family="sans-serif" font-size="13" lengthAdjust="spacing" textLength="227.7476" x="330.05" y="287.0669">Equipo de investigadores asignado</text></g><!--link EnEjecucion to EnRevisionDeEntregable--><g class="link" data-entity-1="EnEjecucion" data-entity-2="EnRevisionDeEntregable" data-source-line="9" data-uid="lnk10" id="link_EnEjecucion_EnRevisionDeEntregable"><path d="M281.33,343.09 C208.44,345.88 74.7,355.79 45.05,391 C6,437.36 87.3992,451.4378 162.2292,455.5878" fill="none" id="EnEjecucion-to-EnRevisionDeEntregable" style="stroke:#181818;stroke-width:1;"/><polygon fill="#181818" points="168.22,455.92,159.4553,451.4278,163.2277,455.6431,159.0123,459.4155,168.22,455.92" style="stroke:#181818;stroke-width:1;"/><text fill="#000000" font-family="sans-serif" font-size="13" lengthAdjust="spacing" textLength="239.5098" x="46.05" y="404.0669">Entregable generado (parcial o final)</text></g><!--link EnRevisionDeEntregable to EnEjecucion--><g class="link" data-entity-1="EnRevisionDeEntregable" data-entity-2="EnEjecucion" data-source-line="11" data-uid="lnk11" id="link_EnRevisionDeEntregable_EnEjecucion"><path d="M271.8,437.96 C277.37,428.91 284.09,417.92 290.05,408 C299.52,392.26 307.0692,379.4824 314.8292,366.2824" fill="none" id="EnRevisionDeEntregable-to-EnEjecucion" style="stroke:#181818;stroke-width:1;"/><polygon fill="#181818" points="317.87,361.11,309.8606,366.8414,315.336,365.4203,316.7571,370.8958,317.87,361.11" style="stroke:#181818;stroke-width:1;"/><text fill="#000000" font-family="sans-serif" font-size="13" lengthAdjust="spacing" textLength="121.2847" x="301.05" y="404.0669">Ajustes requeridos</text></g><!--link EnRevisionDeEntregable to Finalizado--><g class="link" data-entity-1="EnRevisionDeEntregable" data-entity-2="Finalizado" data-source-line="13" data-uid="lnk13" id="link_EnRevisionDeEntregable_Finalizado"><path d="M250.94,478.35 C243.45,497.3 235.88,526.41 248.05,548 C256.85,563.61 267.472,572.1195 282.932,579.8395" fill="none" id="EnRevisionDeEntregable-to-Finalizado" style="stroke:#181818;stroke-width:1;"/><polygon fill="#181818" points="288.3,582.52,282.0351,574.9206,283.8267,580.2862,278.4611,582.0779,288.3,582.52" style="stroke:#181818;stroke-width:1;"/><text fill="#000000" font-family="sans-serif" font-size="13" lengthAdjust="spacing" textLength="183.4155" x="249.05" y="532.5669">&#218;ltimo entregable aprobado</text></g><!--link EnEjecucion to Cancelado--><g class="link" data-entity-1="EnEjecucion" data-entity-2="Cancelado" data-source-line="15" data-uid="lnk15" id="link_EnEjecucion_Cancelado"><path d="M376.8,356.85 C395.59,364.6 416.18,375.73 431.05,391 C463.91,424.74 479.4468,473.4137 486.5068,502.1137" fill="none" id="EnEjecucion-to-Cancelado" style="stroke:#181818;stroke-width:1;"/><polygon fill="#181818" points="487.94,507.94,489.6744,498.2451,486.7456,503.0847,481.9059,500.156,487.94,507.94" style="stroke:#181818;stroke-width:1;"/><text fill="#000000" font-family="sans-serif" font-size="13" lengthAdjust="spacing" textLength="296.0229" x="444.05" y="404.0669">Incumplimiento grave o abandono del equipo</text></g><!--link Finalizado to *end*--><g class="link" data-entity-1="Finalizado" data-entity-2=".end." data-source-line="17" data-uid="lnk17" id="link_Finalizado_.end."><path d="M346.23,618.09 C363.88,637.69 386.4655,662.8009 399.0155,676.7409" fill="none" id="Finalizado-to-*end*" style="stroke:#181818;stroke-width:1;"/><polygon fill="#181818" points="403.03,681.2,399.981,671.835,399.6846,677.4841,394.0355,677.1876,403.03,681.2" style="stroke:#181818;stroke-width:1;"/></g><!--link Cancelado to *end*--><g class="link" data-entity-1="Cancelado" data-entity-2=".end." data-source-line="18" data-uid="lnk18" id="link_Cancelado_.end."><path d="M482.16,548.3 C464.44,582.88 430.6459,648.8101 417.5759,674.3201" fill="none" id="Cancelado-to-*end*" style="stroke:#181818;stroke-width:1;"/><polygon fill="#181818" points="414.84,679.66,422.5038,673.474,417.1199,675.2101,415.3839,669.8262,414.84,679.66" style="stroke:#181818;stroke-width:1;"/></g><!--SRC=[VP5DJWCn38NtEOMNWDGBi42gw22nGsmH2qzY1bSP9ytFIEKeN8UBuSnKqqf5xEBalS_sooSx0XfZEOAZR1F7ma6CURjxXytc0LvIY9Lo2SQin_bX6rFeqGMuNpK8Q2aMT0Wn9DXHn5Hm956BTb7PaMm9sPZLt4YTT7korMfVXNM7od7MiqmAvK5rYJ9Wva7qRCobOG6yqiHPonrrKX8Ds7jgh7Cna51g7MzqACle8S072_hRnllJVptRTbzpqL4I7IebTcsLVynFZSzVIqW_txxm683E6ZobSBtH8ueblnYVnTOnUXvv3d98E94EZpsA2zAIya1pQCPST6mO_KHpHfrkVW40]--></g></svg>