<svg xmlns="http://www.w3.org/2000/svg" xmlns:xlink="http://www.w3.org/1999/xlink" contentStyleType="text/css" data-diagram-type="STATE" height="695px" preserveAspectRatio="none" style="width:472px;height:695px;background:#FFFFFF;" version="1.1" viewBox="0 0 472 695" width="472px" zoomAndPan="magnify"><defs/><g><path d="M19.5,7 L436.5,7 A12.5,12.5 0 0 1 449,19.5 L449,33.2969 L7,33.2969 L7,19.5 A12.5,12.5 0 0 1 19.5,7" fill="#F1F1F1"/><rect fill="none" height="537.2969" rx="12.5" ry="12.5" style="stroke:#181818;stroke-width:0.5;" width="442" x="7" y="7"/><line style="stroke:#181818;stroke-width:0.5;" x1="7" x2="449" y1="33.2969" y2="33.2969"/><text fill="#000000" font-family="sans-serif" font-size="14" lengthAdjust="spacing" textLength="144.4844" x="155.7578" y="24.9951">eliminarEntregable()</text><g id="eliminarEntregable.MostrandoEntregable"><rect fill="#F1F1F1" height="50" rx="12.5" ry="12.5" style="stroke:#181818;stroke-width:0.5;" width="50" x="19" y="150.2969"/><line style="stroke:#181818;stroke-width:0.5;" x1="19" x2="69" y1="176.5938" y2="176.5938"/><text fill="#000000" font-family="sans-serif" font-size="14" lengthAdjust="spacing" textLength="4.4502" x="41.7749" y="168.292">&#160;</text></g><g id="eliminarEntregable.ConfirmandoEliminacion"><rect fill="#F1F1F1" height="50" rx="12.5" ry="12.5" style="stroke:#181818;stroke-width:0.5;" width="50" x="19" y="316.2969"/><line style="stroke:#181818;stroke-width:0.5;" x1="19" x2="69" y1="342.5938" y2="342.5938"/><text fill="#000000" font-family="sans-serif" font-size="14" lengthAdjust="spacing" textLength="4.4502" x="41.7749" y="334.292">&#160;</text></g><ellipse cx="44" cy="54.2969" fill="#222222" rx="10" ry="10" style="stroke:#222222;stroke-width:1;"/><ellipse cx="44" cy="523.2969" fill="none" rx="11" ry="11" style="stroke:#222222;stroke-width:1;"/><ellipse cx="44" cy="523.2969" fill="#222222" rx="6" ry="6" style="stroke:#222222;stroke-width:1;"/><!--link *start*eliminarEntregable to MostrandoEntregable--><g class="link" data-entity-1=".start.eliminarEntregable" data-entity-2="MostrandoEntregable" data-source-line="8" data-uid="lnk3" id="link_.start.eliminarEntregable_MostrandoEntregable"><path d="M44,64.6369 C44,82.8269 44,117.5369 44,143.9069" fill="none" id="*start*eliminarEntregable-to-MostrandoEntregable" style="stroke:#008000;stroke-width:1;"/><polygon fill="#008000" points="44,149.9069,48,140.9069,44,144.9069,40,140.9069,44,149.9069" style="stroke:#008000;stroke-width:1;"/><path d="M49,87.2969 L49,127.2969 L345,127.2969 L345,97.2969 L335,87.2969 L49,87.2969" fill="#FEFFDD" style="stroke:#181818;stroke-width:0.5;"/><path d="M335,87.2969 L335,97.2969 L345,97.2969 L335,87.2969" fill="#FEFFDD" style="stroke:#181818;stroke-width:0.5;"/><text fill="#000000" font-family="sans-serif" font-size="13" font-weight="bold" lengthAdjust="spacing" textLength="92.5171" x="55" y="104.3638">Investigador</text><text fill="#000000" font-family="sans-serif" font-size="13" lengthAdjust="spacing" textLength="178.8008" x="151.6494" y="104.3638">tiene un entregable abierto</text><text fill="#000000" font-family="sans-serif" font-size="13" font-weight="bold" lengthAdjust="spacing" textLength="92.5171" x="55" y="119.4966">Investigador</text><text fill="#000000" font-family="sans-serif" font-size="13" lengthAdjust="spacing" textLength="177.8423" x="151.6494" y="119.4966">solicita eliminar entregable</text></g><!--link MostrandoEntregable to ConfirmandoEliminacion--><g class="link" data-entity-1="MostrandoEntregable" data-entity-2="ConfirmandoEliminacion" data-source-line="14" data-uid="lnk4" id="link_MostrandoEntregable_ConfirmandoEliminacion"><path d="M44,200.4969 C44,231.5869 44,279.2469 44,310.2669" fill="none" id="MostrandoEntregable-to-ConfirmandoEliminacion" style="stroke:#008000;stroke-width:1;"/><polygon fill="#008000" points="44,316.2669,48,307.2669,44,311.2669,40,307.2669,44,316.2669" style="stroke:#008000;stroke-width:1;"/><path d="M49,223.2969 L49,293.2969 L440,293.2969 L440,233.2969 L430,223.2969 L49,223.2969" fill="#FEFFDD" style="stroke:#181818;stroke-width:0.5;"/><path d="M430,223.2969 L430,233.2969 L440,233.2969 L430,223.2969" fill="#FEFFDD" style="stroke:#181818;stroke-width:0.5;"/><text fill="#000000" font-family="sans-serif" font-size="13" font-weight="bold" lengthAdjust="spacing" textLength="58.9063" x="55" y="240.3638">Sistema</text><text fill="#000000" font-family="sans-serif" font-size="13" lengthAdjust="spacing" textLength="307.271" x="118.0386" y="240.3638">presenta informaci&#243;n del entregable a eliminar</text><text fill="#000000" font-family="sans-serif" font-size="13" lengthAdjust="spacing" textLength="249.6724" x="55" y="255.4966">&#8226; Presenta advertencia de eliminaci&#243;n</text><text fill="#000000" font-family="sans-serif" font-size="13" lengthAdjust="spacing" textLength="263.3706" x="55" y="270.6294">&#8226; Permite solicitar confirmar eliminaci&#243;n</text><text fill="#000000" font-family="sans-serif" font-size="13" lengthAdjust="spacing" textLength="255.9438" x="55" y="285.7622">&#8226; Permite solicitar cancelar eliminaci&#243;n</text></g><!--link ConfirmandoEliminacion to *end*eliminarEntregable--><g class="link" data-entity-1="ConfirmandoEliminacion" data-entity-2=".end.eliminarEntregable" data-source-line="22" data-uid="lnk6" id="link_ConfirmandoEliminacion_.end.eliminarEntregable"><path d="M44,366.5769 C44,406.4969 44,478.3469 44,506.1369" fill="none" id="ConfirmandoEliminacion-to-*end*eliminarEntregable" style="stroke:#008000;stroke-width:1;"/><polygon fill="#008000" points="44,512.1369,48,503.1369,44,507.1369,40,503.1369,44,512.1369" style="stroke:#008000;stroke-width:1;"/><path d="M49,389.2969 L49,489.2969 L373,489.2969 L373,399.2969 L363,389.2969 L49,389.2969" fill="#FEFFDD" style="stroke:#181818;stroke-width:0.5;"/><path d="M363,389.2969 L363,399.2969 L373,399.2969 L363,389.2969" fill="#FEFFDD" style="stroke:#181818;stroke-width:0.5;"/><text fill="#000000" font-family="sans-serif" font-size="13" font-weight="bold" lengthAdjust="spacing" textLength="58.9063" x="55" y="406.3638">Sistema</text><text fill="#000000" font-family="sans-serif" font-size="13" lengthAdjust="spacing" textLength="196.7329" x="118.0386" y="406.3638">permite confirmar eliminaci&#243;n</text><text fill="#000000" font-family="sans-serif" font-size="13" font-weight="bold" lengthAdjust="spacing" textLength="92.5171" x="55" y="421.4966">Investigador</text><text fill="#000000" font-family="sans-serif" font-size="13" lengthAdjust="spacing" textLength="207.251" x="151.6494" y="421.4966">solicita confirmar la eliminaci&#243;n</text><text fill="#000000" font-family="sans-serif" font-size="13" font-weight="bold" lengthAdjust="spacing" textLength="58.9063" x="55" y="436.6294">Sistema</text><text fill="#000000" font-family="sans-serif" font-size="13" lengthAdjust="spacing" textLength="138.3345" x="118.0386" y="436.6294">elimina el entregable</text><text fill="#000000" font-family="sans-serif" font-size="13" lengthAdjust="spacing" textLength="209.9106" x="55" y="451.7622">&#8226; Elimina entregables asociados</text><text fill="#000000" font-family="sans-serif" font-size="13" lengthAdjust="spacing" textLength="261.3901" x="55" y="466.895">&#8226; Quita asociaciones con investigadores</text><text fill="#000000" font-family="sans-serif" font-size="13" lengthAdjust="spacing" textLength="255.2456" x="55" y="482.0278">&#8226; Actualiza vista general de entregable</text></g><g id="PROYECTO_ABIERTO"><rect fill="#F1F1F1" height="50" rx="12.5" ry="12.5" style="stroke:#181818;stroke-width:0.5;" width="164.3887" x="146" y="639"/><line style="stroke:#181818;stroke-width:0.5;" x1="146" x2="310.3887" y1="665.2969" y2="665.2969"/><text fill="#000000" font-family="sans-serif" font-size="14" lengthAdjust="spacing" textLength="144.3887" x="156" y="656.9951">PROYECTO_ABIERTO</text></g><!--link eliminarEntregable to PROYECTO_ABIERTO--><g class="link" data-entity-1="eliminarEntregable" data-entity-2="PROYECTO_ABIERTO" data-source-line="33" data-uid="lnk8" id="link_eliminarEntregable_PROYECTO_ABIERTO"><path d="M131.75,544.11 C125.12,562.54 121,574 121,574 C121,574 121,609 121,609 C121,609 146.2829,621.7679 174.7729,636.1379" fill="none" id="eliminarEntregable-to-PROYECTO_ABIERTO" style="stroke:#008000;stroke-width:1;"/><polygon fill="#008000" points="180.13,638.84,173.8957,631.2155,175.6657,636.5883,170.2929,638.3583,180.13,638.84" style="stroke:#008000;stroke-width:1;"/><path d="M126,579 L126,604 L285,604 L285,589 L275,579 L126,579" fill="#FEFFDD" style="stroke:#181818;stroke-width:0.5;"/><path d="M275,579 L275,589 L285,589 L275,579" fill="#FEFFDD" style="stroke:#181818;stroke-width:0.5;"/><text fill="#000000" font-family="sans-serif" font-size="13" lengthAdjust="spacing" textLength="138.7979" x="132" y="596.0669">entregable eliminado</text></g><!--link eliminarEntregable to PROYECTO_ABIERTO--><g class="link" data-entity-1="eliminarEntregable" data-entity-2="PROYECTO_ABIERTO" data-source-line="38" data-uid="lnk9" id="link_eliminarEntregable_PROYECTO_ABIERTO"><path d="M287.37,544.11 C291.46,562.54 294,574 294,574 C294,574 294,609 294,609 C294,609 279.7445,620.6714 262.1745,635.0414" fill="none" id="eliminarEntregable-to-PROYECTO_ABIERTO-1" style="stroke:#0000FF;stroke-width:1;"/><polygon fill="#0000FF" points="257.53,638.84,267.0291,636.2385,261.4004,635.6745,261.9643,630.0459,257.53,638.84" style="stroke:#0000FF;stroke-width:1;"/><path d="M299,579 L299,604 L465,604 L465,589 L455,579 L299,579" fill="#FEFFDD" style="stroke:#181818;stroke-width:0.5;"/><path d="M455,579 L455,589 L465,589 L455,579" fill="#FEFFDD" style="stroke:#181818;stroke-width:0.5;"/><text fill="#000000" font-family="sans-serif" font-size="13" lengthAdjust="spacing" textLength="145.082" x="305" y="596.0669">eliminacion cancelada</text></g><!--SRC=[ZLDBJiD03Dtd55RP01BY0bMbKdN10hLyDgYga9EubSN4KyrCAm52uYnSWIDm4qw2cwJvY0GrMMNclUVdPyS_ispGOGQ6XSBBXc1ZpSl-8ufym410XZCMT5C9ZjOO6mBqCFXxV7esWBSe0dqAva1VXTvO7nnAQcleNz34oefTbiCAvOIj56gByoLSB4xMZaYM5wDUGR6gPsNVodD-C8n7rx8Z7tYDgNN3otW4WKa8jWBKw2TcSi7sShmrd730Aei6EIUHf7drmc-7lvR_dbxxMhXd7oZ3tCd6aTVQ22mhgn89Vty9f6HQxLG-SucVZq-O7tYOxhHLaeHHQGTWBbE3oMMiFWvjEqXAn-ve0af2fWlVZgexYbPQEltZeYbD_EFrtzdMF8ETr6QnyXvQmLTvJ0-trPNN7RUQUMfzXRhTxiiMv_kk5QGUTBArGwhHuoHiqV0hmavz8AnrZHsQV8Wzo_WUHHq_RpFR-TtiSJfvc3sDhwwdTm-pg1LoOwLAdTH6zVowjMEpfIEa6yCkToN5IliN]--></g></svg>