<svg xmlns="http://www.w3.org/2000/svg" xmlns:xlink="http://www.w3.org/1999/xlink" contentStyleType="text/css" data-diagram-type="STATE" height="695px" preserveAspectRatio="none" style="width:674px;height:695px;background:#FFFFFF;" version="1.1" viewBox="0 0 674 695" width="674px" zoomAndPan="magnify"><defs/><g><path d="M19.5,7 L436.5,7 A12.5,12.5 0 0 1 449,19.5 L449,33.2969 L7,33.2969 L7,19.5 A12.5,12.5 0 0 1 19.5,7" fill="#F1F1F1"/><rect fill="none" height="537.2969" rx="12.5" ry="12.5" style="stroke:#181818;stroke-width:0.5;" width="442" x="7" y="7"/><line style="stroke:#181818;stroke-width:0.5;" x1="7" x2="449" y1="33.2969" y2="33.2969"/><text fill="#000000" font-family="sans-serif" font-size="14" lengthAdjust="spacing" textLength="144.4844" x="155.7578" y="24.9951">eliminarEntregable()</text><g id="eliminarEntregable.MostrandoEntregable"><rect fill="#F1F1F1" height="50" rx="12.5" ry="12.5" style="stroke:#181818;stroke-width:0.5;" width="50" x="19" y="150.2969"/><line style="stroke:#181818;stroke-width:0.5;" x1="19" x2="69" y1="176.5938" y2="176.5938"/><text fill="#000000" font-family="sans-serif" font-size="14" lengthAdjust="spacing" textLength="4.4502" x="41.7749" y="168.292">&#160;</text></g><g id="eliminarEntregable.ConfirmandoEliminacion"><rect fill="#F1F1F1" height="50" rx="12.5" ry="12.5" style="stroke:#181818;stroke-width:0.5;" width="50" x="19" y="316.2969"/><line style="stroke:#181818;stroke-width:0.5;" x1="19" x2="69" y1="342.5938" y2="342.5938"/><text fill="#000000" font-family="sans-serif" font-size="14" lengthAdjust="spacing" textLength="4.4502" x="41.7749" y="334.292">&#160;</text></g><ellipse cx="44" cy="54.2969" fill="#222222" rx="10" ry="10" style="stroke:#222222;stroke-width:1;"/><ellipse cx="44" cy="523.2969" fill="none" rx="11" ry="11" style="stroke:#222222;stroke-width:1;"/><ellipse cx="44" cy="523.2969" fill="#222222" rx="6" ry="6" style="stroke:#222222;stroke-width:1;"/><!--link *start*eliminarEntregable to MostrandoEntregable--><g class="link" data-entity-1=".start.eliminarEntregable" data-entity-2="MostrandoEntregable" data-source-line="8" data-uid="lnk3" id="link_.start.eliminarEntregable_MostrandoEntregable"><path d="M44,64.6369 C44,82.8269 44,117.5369 44,143.9069" fill="none" id="*start*eliminarEntregable-to-MostrandoEntregable" style="stroke:#008000;stroke-width:1;"/><polygon fill="#008000" points="44,149.9069,48,140.9069,44,144.9069,40,140.9069,44,149.9069" style="stroke:#008000;stroke-width:1;"/><path d="M49,87.2969 L49,127.2969 L345,127.2969 L345,97.2969 L335,87.2969 L49,87.2969" fill="#FEFFDD" style="stroke:#181818;stroke-width:0.5;"/><path d="M335,87.2969 L335,97.2969 L345,97.2969 L335,87.2969" fill="#FEFFDD" style="stroke:#181818;stroke-width:0.5;"/><text fill="#000000" font-family="sans-serif" font-size="13" font-weight="bold" lengthAdjust="spacing" textLength="92.5171" x="55" y="104.3638">Investigador</text><text fill="#000000" font-family="sans-serif" font-size="13" lengthAdjust="spacing" textLength="178.8008" x="151.6494" y="104.3638">tiene un entregable abierto</text><text fill="#000000" font-family="sans-serif" font-size="13" font-weight="bold" lengthAdjust="spacing" textLength="92.5171" x="55" y="119.4966">Investigador</text><text fill="#000000" font-family="sans-serif" font-size="13" lengthAdjust="spacing" textLength="177.8423" x="151.6494" y="119.4966">solicita eliminar entregable</text></g><!--link MostrandoEntregable to ConfirmandoEliminacion--><g class="link" data-entity-1="MostrandoEntregable" data-entity-2="ConfirmandoEliminacion" data-source-line="14" data-uid="lnk4" id="link_MostrandoEntregable_ConfirmandoEliminacion"><path d="M44,200.4969 C44,231.5869 44,279.2469 44,310.2669" fill="none" id="MostrandoEntregable-to-ConfirmandoEliminacion" style="stroke:#008000;stroke-width:1;"/><polygon fill="#008000" points="44,316.2669,48,307.2669,44,311.2669,40,307.2669,44,316.2669" style="stroke:#008000;stroke-width:1;"/><path d="M49,223.2969 L49,293.2969 L440,293.2969 L440,233.2969 L430,223.2969 L49,223.2969" fill="#FEFFDD" style="stroke:#181818;stroke-width:0.5;"/><path d="M430,223.2969 L430,233.2969 L440,233.2969 L430,223.2969" fill="#FEFFDD" style="stroke:#181818;stroke-width:0.5;"/><text fill="#000000" font-family="sans-serif" font-size="13" font-weight="bold" lengthAdjust="spacing" textLength="58.9063" x="55" y="240.3638">Sistema</text><text fill="#000000" font-family="sans-serif" font-size="13" lengthAdjust="spacing" textLength="307.271" x="118.0386" y="240.3638">presenta informaci&#243;n del entregable a eliminar</text><text fill="#000000" font-family="sans-serif" font-size="13" lengthAdjust="spacing" textLength="249.6724" x="55" y="255.4966">&#8226; Presenta advertencia de eliminaci&#243;n</text><text fill="#000000" font-family="sans-serif" font-size="13" lengthAdjust="spacing" textLength="263.3706" x="55" y="270.6294">&#8226; Permite solicitar confirmar eliminaci&#243;n</text><text fill="#000000" font-family="sans-serif" font-size="13" lengthAdjust="spacing" textLength="255.9438" x="55" y="285.7622">&#8226; Permite solicitar cancelar eliminaci&#243;n</text></g><!--link ConfirmandoEliminacion to *end*eliminarEntregable--><g class="link" data-entity-1="ConfirmandoEliminacion" data-entity-2=".end.eliminarEntregable" data-source-line="22" data-uid="lnk6" id="link_ConfirmandoEliminacion_.end.eliminarEntregable"><path d="M44,366.5769 C44,406.4969 44,478.3469 44,506.1369" fill="none" id="ConfirmandoEliminacion-to-*end*eliminarEntregable" style="stroke:#008000;stroke-width:1;"/><polygon fill="#008000" points="44,512.1369,48,503.1369,44,507.1369,40,503.1369,44,512.1369" style="stroke:#008000;stroke-width:1;"/><path d="M49,389.2969 L49,489.2969 L373,489.2969 L373,399.2969 L363,389.2969 L49,389.2969" fill="#FEFFDD" style="stroke:#181818;stroke-width:0.5;"/><path d="M363,389.2969 L363,399.2969 L373,399.2969 L363,389.2969" fill="#FEFFDD" style="stroke:#181818;stroke-width:0.5;"/><text fill="#000000" font-family="sans-serif" font-size="13" font-weight="bold" lengthAdjust="spacing" textLength="58.9063" x="55" y="406.3638">Sistema</text><text fill="#000000" font-family="sans-serif" font-size="13" lengthAdjust="spacing" textLength="196.7329" x="118.0386" y="406.3638">permite confirmar eliminaci&#243;n</text><text fill="#000000" font-family="sans-serif" font-size="13" font-weight="bold" lengthAdjust="spacing" textLength="92.5171" x="55" y="421.4966">Investigador</text><text fill="#000000" font-family="sans-serif" font-size="13" lengthAdjust="spacing" textLength="207.251" x="151.6494" y="421.4966">solicita confirmar la eliminaci&#243;n</text><text fill="#000000" font-family="sans-serif" font-size="13" font-weight="bold" lengthAdjust="spacing" textLength="58.9063" x="55" y="436.6294">Sistema</text><text fill="#000000" font-family="sans-serif" font-size="13" lengthAdjust="spacing" textLength="138.3345" x="118.0386" y="436.6294">elimina el entregable</text><text fill="#000000" font-family="sans-serif" font-size="13" lengthAdjust="spacing" textLength="209.9106" x="55" y="451.7622">&#8226; Elimina entregables asociados</text><text fill="#000000" font-family="sans-serif" font-size="13" lengthAdjust="spacing" textLength="261.3901" x="55" y="466.895">&#8226; Quita asociaciones con investigadores</text><text fill="#000000" font-family="sans-serif" font-size="13" lengthAdjust="spacing" textLength="255.2456" x="55" y="482.0278">&#8226; Actualiza vista general de entregable</text></g><g id="PROYECTOS_ABIERTOS"><rect fill="#F1F1F1" height="50" rx="12.5" ry="12.5" style="stroke:#181818;stroke-width:0.5;" width="182.1621" x="137" y="639"/><line style="stroke:#181818;stroke-width:0.5;" x1="137" x2="319.1621" y1="665.2969" y2="665.2969"/><text fill="#000000" font-family="sans-serif" font-size="14" lengthAdjust="spacing" textLength="162.1621" x="147" y="656.9951">PROYECTOS_ABIERTOS</text></g><!--link eliminarEntregable to PROYECTOS_ABIERTOS--><g class="link" data-entity-1="eliminarEntregable" data-entity-2="PROYECTOS_ABIERTOS" data-source-line="33" data-uid="lnk8" id="link_eliminarEntregable_PROYECTOS_ABIERTOS"><path d="M67.88,544.11 C56.86,562.54 50,574 50,574 C50,574 50,609 50,609 C50,609 95.4184,622.7783 142.8884,637.1783" fill="none" id="eliminarEntregable-to-PROYECTOS_ABIERTOS" style="stroke:#008000;stroke-width:1;"/><polygon fill="#008000" points="148.63,638.92,141.1787,632.4797,143.8453,637.4686,138.8564,640.1352,148.63,638.92" style="stroke:#008000;stroke-width:1;"/><path d="M55,579 L55,604 L356,604 L356,589 L346,579 L55,579" fill="#FEFFDD" style="stroke:#181818;stroke-width:0.5;"/><path d="M346,579 L346,589 L356,589 L346,579" fill="#FEFFDD" style="stroke:#181818;stroke-width:0.5;"/><text fill="#000000" font-family="sans-serif" font-size="13" lengthAdjust="spacing" textLength="280.8901" x="61" y="596.0669">abrirEntregables() - entregable actualizado</text></g><!--link eliminarEntregable to PROYECTOS_ABIERTOS--><g class="link" data-entity-1="eliminarEntregable" data-entity-2="PROYECTOS_ABIERTOS" data-source-line="38" data-uid="lnk9" id="link_eliminarEntregable_PROYECTOS_ABIERTOS"><path d="M351.24,544.11 C359.72,562.54 365,574 365,574 C365,574 365,609 365,609 C365,609 331.3423,622.2705 294.8723,636.6405" fill="none" id="eliminarEntregable-to-PROYECTOS_ABIERTOS-1" style="stroke:#0000FF;stroke-width:1;"/><polygon fill="#0000FF" points="289.29,638.84,299.1298,639.2622,293.9419,637.007,296.1971,631.8191,289.29,638.84" style="stroke:#0000FF;stroke-width:1;"/><path d="M370,579 L370,604 L667,604 L667,589 L657,579 L370,579" fill="#FEFFDD" style="stroke:#181818;stroke-width:0.5;"/><path d="M657,579 L657,589 L667,589 L657,579" fill="#FEFFDD" style="stroke:#181818;stroke-width:0.5;"/><text fill="#000000" font-family="sans-serif" font-size="13" lengthAdjust="spacing" textLength="276.4468" x="376" y="596.0669">abrirEntregables() - eliminacion cancelada</text></g><!--SRC=[dLDTIiD047xFAORweaBn0gMWqWSVfBNrHKHaaapBu6Qsx6uBAe9dyGeUmPju4gT9yuU95DENTFVxPhxlcub_ObcZmmmC2uNdDS7QckVTdoZo0GC16SvOq4qaE5fXR0ZGm-3tyV7905wZ2FGfc0FzAVJQ-k1GKbj3VuCkhIpPPJcig9ombQBQ_Ua33E-FLev87eRZte9YjPwLdPMd_60KZwzaIpxm2bFhHcVn60AJ46m4gE4dPdB1zdAyDPnmm2gB1ZadaQHvzq9lXxwM_XwlVHOMx0Dbc2jPE_BQ6u5bQRL4mb-V0YcPbfrAPrxY-_q3PYKFqwrQ9KaObLO2yp8rc5p6ggEqxI3PAtO74r0ICbtuTbJTKRJIqkaV5irUn1zQ_vnjpJFOIMqsszz3A_WgZqbvMrrvtN6hcQVMLwYRpQvjSRvphI3Le9Ej5LADFa_21Ws_86nL1y9ArzYXoOVOiunlKTJnyJQpdSsdTvFBs-dYyVpYQZBNbwWLCyQE6rn_V0B3rgQLeb8RrOFjRXgR3Vs_PsCvzhkLOjNo1m00]--></g></svg>