<svg xmlns="http://www.w3.org/2000/svg" xmlns:xlink="http://www.w3.org/1999/xlink" contentStyleType="text/css" data-diagram-type="STATE" height="795px" preserveAspectRatio="none" style="width:528px;height:795px;background:#FFFFFF;" version="1.1" viewBox="0 0 528 795" width="528px" zoomAndPan="magnify"><defs/><g><path d="M39.04,152 L426.04,152 A12.5,12.5 0 0 1 438.54,164.5 L438.54,178.2969 L26.54,178.2969 L26.54,164.5 A12.5,12.5 0 0 1 39.04,152" fill="#F1F1F1"/><rect fill="none" height="492.2969" rx="12.5" ry="12.5" style="stroke:#181818;stroke-width:0.5;" width="412" x="26.54" y="152"/><line style="stroke:#181818;stroke-width:0.5;" x1="26.54" x2="438.54" y1="178.2969" y2="178.2969"/><text fill="#000000" font-family="sans-serif" font-size="14" lengthAdjust="spacing" textLength="144.1494" x="160.4653" y="169.9951">abrirOpcionesPerfil()</text><g><rect fill="#F1F1F1" height="50" rx="12.5" ry="12.5" style="stroke:#181818;stroke-width:0.5;" width="50" x="38.54" y="280.2969"/><line style="stroke:#181818;stroke-width:0.5;" x1="38.54" x2="88.54" y1="306.5938" y2="306.5938"/><text fill="#000000" font-family="sans-serif" font-size="14" lengthAdjust="spacing" textLength="4.4502" x="61.3149" y="298.292">&#160;</text></g><g><rect fill="#F1F1F1" height="50" rx="12.5" ry="12.5" style="stroke:#181818;stroke-width:0.5;" width="50" x="38.54" y="491.2969"/><line style="stroke:#181818;stroke-width:0.5;" x1="38.54" x2="88.54" y1="517.5938" y2="517.5938"/><text fill="#000000" font-family="sans-serif" font-size="14" lengthAdjust="spacing" textLength="4.4502" x="61.3149" y="509.292">&#160;</text></g><ellipse cx="63.54" cy="199.2969" fill="#222222" rx="10" ry="10" style="stroke:#222222;stroke-width:1;"/><ellipse cx="63.54" cy="623.2969" fill="none" rx="11" ry="11" style="stroke:#222222;stroke-width:1;"/><ellipse cx="63.54" cy="623.2969" fill="#222222" rx="6" ry="6" style="stroke:#222222;stroke-width:1;"/><!--link *start*abrirOpcionesPerfil to MostrandoLista--><g class="link" data-entity-1="ent0002" data-entity-2="ent0003" data-link-type="dependency" data-source-line="8" id="lnk3"><path d="M63.54,209.5269 C63.54,225.2369 63.54,251.6569 63.54,274.1669" fill="none" id="*start*abrirOpcionesPerfil-to-MostrandoLista" style="stroke:#008000;stroke-width:1;"/><polygon fill="#008000" points="63.54,280.1669,67.54,271.1669,63.54,275.1669,59.54,271.1669,63.54,280.1669" style="stroke:#008000;stroke-width:1;"/><path d="M68.54,232.2969 L68.54,257.2969 L363.54,257.2969 L363.54,242.2969 L353.54,232.2969 L68.54,232.2969" fill="#FEFFDD" style="stroke:#181818;stroke-width:0.5;"/><path d="M353.54,232.2969 L353.54,242.2969 L363.54,242.2969 L353.54,232.2969" fill="#FEFFDD" style="stroke:#181818;stroke-width:0.5;"/><text fill="#000000" font-family="sans-serif" font-size="13" font-weight="bold" lengthAdjust="spacing" textLength="90.251" x="74.54" y="249.3638">Coordinador</text><text fill="#000000" font-family="sans-serif" font-size="13" lengthAdjust="spacing" textLength="180.0132" x="168.9233" y="249.3638">solicita abrir opciones perfil</text></g><!--link MostrandoLista to FiltrandoLista--><g class="link" data-entity-1="ent0003" data-entity-2="ent0004" data-link-type="dependency" data-source-line="13" id="lnk4"><path d="M63.54,330.6769 C63.54,370.9569 63.54,444.8969 63.54,485.0669" fill="none" id="MostrandoLista-to-FiltrandoLista" style="stroke:#008000;stroke-width:1;"/><polygon fill="#008000" points="63.54,491.0669,67.54,482.0669,63.54,486.0669,59.54,482.0669,63.54,491.0669" style="stroke:#008000;stroke-width:1;"/><path d="M68.54,353.2969 L68.54,468.2969 L429.54,468.2969 L429.54,363.2969 L419.54,353.2969 L68.54,353.2969" fill="#FEFFDD" style="stroke:#181818;stroke-width:0.5;"/><path d="M419.54,353.2969 L419.54,363.2969 L429.54,363.2969 L419.54,353.2969" fill="#FEFFDD" style="stroke:#181818;stroke-width:0.5;"/><text fill="#000000" font-family="sans-serif" font-size="13" font-weight="bold" lengthAdjust="spacing" textLength="58.9063" x="74.54" y="370.3638">Sistema</text><text fill="#000000" font-family="sans-serif" font-size="13" lengthAdjust="spacing" textLength="277.5703" x="137.5786" y="370.3638">presenta las opciones disponibles en perfil</text><text fill="#000000" font-family="sans-serif" font-size="13" lengthAdjust="spacing" textLength="277.3799" x="74.54" y="385.4966">&#8226; ID, nombre, campo de cada investigador</text><text fill="#000000" font-family="sans-serif" font-size="13" lengthAdjust="spacing" textLength="197.5327" x="74.54" y="400.6294">&#8226; Permite solicitar editar perfil</text><text fill="#000000" font-family="sans-serif" font-size="13" lengthAdjust="spacing" textLength="311.6699" x="74.54" y="415.7622">&#8226; Permite solicitar resolver solicitud eliminacion</text><text fill="#000000" font-family="sans-serif" font-size="13" lengthAdjust="spacing" textLength="4.1323" x="74.54" y="430.895">&#160;</text><text fill="#000000" font-family="sans-serif" font-size="13" lengthAdjust="spacing" textLength="4.1323" x="74.54" y="446.0278">&#160;</text><text fill="#000000" font-family="sans-serif" font-size="13" lengthAdjust="spacing" textLength="4.1323" x="74.54" y="461.1606">&#160;</text></g><!--link FiltrandoLista to *end*abrirOpcionesPerfil--><g class="link" data-entity-1="ent0004" data-entity-2="ent0005" data-link-type="dependency" data-source-line="24" id="lnk6"><path d="M63.54,541.6469 C63.54,563.9469 63.54,589.8569 63.54,606.0369" fill="none" id="FiltrandoLista-to-*end*abrirOpcionesPerfil" style="stroke:#008000;stroke-width:1;"/><polygon fill="#008000" points="63.54,612.0369,67.54,603.0369,63.54,607.0369,59.54,603.0369,63.54,612.0369" style="stroke:#008000;stroke-width:1;"/><path d="M68.54,564.2969 L68.54,589.2969 L362.54,589.2969 L362.54,574.2969 L352.54,564.2969 L68.54,564.2969" fill="#FEFFDD" style="stroke:#181818;stroke-width:0.5;"/><path d="M352.54,564.2969 L352.54,574.2969 L362.54,574.2969 L352.54,564.2969" fill="#FEFFDD" style="stroke:#181818;stroke-width:0.5;"/><text fill="#000000" font-family="sans-serif" font-size="13" font-weight="bold" lengthAdjust="spacing" textLength="90.251" x="74.54" y="581.3638">Coordinador</text><text fill="#000000" font-family="sans-serif" font-size="13" lengthAdjust="spacing" textLength="179.2769" x="168.9233" y="581.3638">solicita una de las opciones</text></g><g><rect fill="#F1F1F1" height="50" rx="12.5" ry="12.5" style="stroke:#181818;stroke-width:0.5;" width="213.0879" x="7" y="7"/><line style="stroke:#181818;stroke-width:0.5;" x1="7" x2="220.0879" y1="33.2969" y2="33.2969"/><text fill="#000000" font-family="sans-serif" font-size="14" lengthAdjust="spacing" textLength="193.0879" x="17" y="24.9951">PANEL_PRINCIPAL_ABIERTO</text></g><g><rect fill="#F1F1F1" height="50" rx="12.5" ry="12.5" style="stroke:#181818;stroke-width:0.5;" width="195" x="255.04" y="7"/><line style="stroke:#181818;stroke-width:0.5;" x1="255.04" x2="450.04" y1="33.2969" y2="33.2969"/><text fill="#000000" font-family="sans-serif" font-size="14" lengthAdjust="spacing" textLength="175" x="265.04" y="24.9951">INVESTIGADOR_ABIERTO</text></g><g><rect fill="#F1F1F1" height="50" rx="12.5" ry="12.5" style="stroke:#181818;stroke-width:0.5;" width="215.043" x="125.02" y="739.3"/><line style="stroke:#181818;stroke-width:0.5;" x1="125.02" x2="340.063" y1="765.5969" y2="765.5969"/><text fill="#000000" font-family="sans-serif" font-size="14" lengthAdjust="spacing" textLength="195.043" x="135.02" y="757.2951">OPCIONES_PERFIL_ABIERTO</text></g><!--link PANEL_PRINCIPAL_ABIERTO to abrirOpcionesPerfil--><g class="link" data-entity-1="ent0007" data-entity-2="ent0002" data-link-type="dependency" data-source-line="30" id="lnk8"><path d="M121.54,57.46 C128.62,79.15 137.9165,107.5767 150.4765,146.0167" fill="none" id="PANEL_PRINCIPAL_ABIERTO-to-abrirOpcionesPerfil" style="stroke:#008000;stroke-width:1;"/><polygon fill="#008000" points="152.34,151.72,153.3469,141.9228,150.7871,146.9673,145.7426,144.4074,152.34,151.72" style="stroke:#008000;stroke-width:1;"/><path d="M147.54,92 L147.54,117 L301.54,117 L301.54,102 L291.54,92 L147.54,92" fill="#FEFFDD" style="stroke:#181818;stroke-width:0.5;"/><path d="M291.54,92 L291.54,102 L301.54,102 L291.54,92" fill="#FEFFDD" style="stroke:#181818;stroke-width:0.5;"/><text fill="#000000" font-family="sans-serif" font-size="13" lengthAdjust="spacing" textLength="133.853" x="153.54" y="109.0669">abrirOpcionesPerfil()</text></g><!--link INVESTIGADOR_ABIERTO to abrirOpcionesPerfil--><g class="link" data-entity-1="ent0009" data-entity-2="ent0002" data-link-type="dependency" data-source-line="36" id="lnk10"><path d="M344.48,57.46 C337.34,79.15 327.9682,107.5816 315.2982,146.0216" fill="none" id="INVESTIGADOR_ABIERTO-to-abrirOpcionesPerfil" style="stroke:#008000;stroke-width:1;"/><polygon fill="#008000" points="313.42,151.72,320.0363,144.4245,314.9852,146.9713,312.4384,141.9202,313.42,151.72" style="stroke:#008000;stroke-width:1;"/><path d="M336.54,92 L336.54,117 L490.54,117 L490.54,102 L480.54,92 L336.54,92" fill="#FEFFDD" style="stroke:#181818;stroke-width:0.5;"/><path d="M480.54,92 L480.54,102 L490.54,102 L480.54,92" fill="#FEFFDD" style="stroke:#181818;stroke-width:0.5;"/><text fill="#000000" font-family="sans-serif" font-size="13" lengthAdjust="spacing" textLength="133.853" x="342.54" y="109.0669">abrirOpcionesPerfil()</text></g><!--link abrirOpcionesPerfil to OPCIONES_PERFIL_ABIERTO--><g class="link" data-entity-1="ent0002" data-entity-2="ent0011" data-link-type="dependency" data-source-line="41" id="lnk12"><path d="M162.07,644.59 C156.83,662.84 153.54,674.3 153.54,674.3 C153.54,674.3 153.54,709.3 153.54,709.3 C153.54,709.3 170.8871,721.1535 191.7871,735.4435" fill="none" id="abrirOpcionesPerfil-to-OPCIONES_PERFIL_ABIERTO" style="stroke:#008000;stroke-width:1;"/><polygon fill="#008000" points="196.74,738.83,191.5682,730.4483,192.6125,736.0079,187.0529,737.0522,196.74,738.83" style="stroke:#008000;stroke-width:1;"/><path d="M158.54,679.3 L158.54,704.3 L260.54,704.3 L260.54,689.3 L250.54,679.3 L158.54,679.3" fill="#FEFFDD" style="stroke:#181818;stroke-width:0.5;"/><path d="M250.54,679.3 L250.54,689.3 L260.54,689.3 L250.54,679.3" fill="#FEFFDD" style="stroke:#181818;stroke-width:0.5;"/><text fill="#000000" font-family="sans-serif" font-size="13" lengthAdjust="spacing" textLength="81.396" x="164.54" y="696.3669">editarPerfil()</text></g><!--link abrirOpcionesPerfil to OPCIONES_PERFIL_ABIERTO--><g class="link" data-entity-1="ent0002" data-entity-2="ent0011" data-link-type="dependency" data-source-line="47" id="lnk13"><path d="M265.55,644.59 C268,662.84 269.54,674.3 269.54,674.3 C269.54,674.3 269.54,709.3 269.54,709.3 C269.54,709.3 262.4911,719.5902 252.7011,733.8802" fill="none" id="abrirOpcionesPerfil-to-OPCIONES_PERFIL_ABIERTO-1" style="stroke:#008000;stroke-width:1;"/><polygon fill="#008000" points="249.31,738.83,257.6965,733.666,252.1359,734.7052,251.0968,729.1446,249.31,738.83" style="stroke:#008000;stroke-width:1;"/><path d="M274.54,679.3 L274.54,704.3 L521.54,704.3 L521.54,689.3 L511.54,679.3 L274.54,679.3" fill="#FEFFDD" style="stroke:#181818;stroke-width:0.5;"/><path d="M511.54,679.3 L511.54,689.3 L521.54,689.3 L511.54,679.3" fill="#FEFFDD" style="stroke:#181818;stroke-width:0.5;"/><text fill="#000000" font-family="sans-serif" font-size="13" lengthAdjust="spacing" textLength="226.4907" x="280.54" y="696.3669">resolverSolicitudEliminacionPerfil()</text></g><!--SRC=[jPDTQi904CVVznI3VMcBqWk8a6ei0Mj2bBv8aOqxbSNDRjYDWfH2pzAZzIITn1eJJHyARGB9PdPs_h_vYDj8dN7BKr1IOxxF43AZziK7OoxdEG9FhBHXjf96eulGlaW5t46dnNvzqu5Nne2kmzaEtUJxQ5nkkHPc8ib-kJ-MghvVEYnkdw6tk5fRHFtS6vp5WD976ufXTC6-AGtzP30qnWgfkJ2sVvSCm1abLv9EbBnWle4XAudBKwZ58HHTh7gS2TPPpdX_GfdHBgQynCWiEjGKHr6-5OIGBZDQ9ehMgEjCd-yV48ow53TDB7PXnTFCW41Q20vIxz3bSbraMRbJ3r995CUCBQ0eNsTXB_s8pQWTsgDfAm2LJAcA1IThbALHiPEbMP96jQYJl-_MLlCYstgrciflZ4NUr9yiepYO3eF8cooz-y2Fvs53l6LAMGEaTOnP9SDOC7toP_FWmHk5yVz8jFrXTO4m6WRXr9yj8pyU1rMUJP53hziI-9Fmnn6P7IV4Fmt8XUWN]--></g></svg>