<svg xmlns="http://www.w3.org/2000/svg" xmlns:xlink="http://www.w3.org/1999/xlink" contentStyleType="text/css" data-diagram-type="STATE" height="780px" preserveAspectRatio="none" style="width:835px;height:780px;background:#FFFFFF;" version="1.1" viewBox="0 0 835 780" width="835px" zoomAndPan="magnify"><defs/><g><g><rect fill="#F1F1F1" height="50" rx="12.5" ry="12.5" style="stroke:#181818;stroke-width:0.5;" width="195" x="122.02" y="7"/><line style="stroke:#181818;stroke-width:0.5;" x1="122.02" x2="317.02" y1="33.2969" y2="33.2969"/><text fill="#000000" font-family="sans-serif" font-size="14" lengthAdjust="spacing" textLength="175" x="132.02" y="24.9951">INVESTIGADOR_ABIERTO</text></g><g><rect fill="#F1F1F1" height="50" rx="12.5" ry="12.5" style="stroke:#181818;stroke-width:0.5;" width="213.0879" x="351.98" y="7"/><line style="stroke:#181818;stroke-width:0.5;" x1="351.98" x2="565.0679" y1="33.2969" y2="33.2969"/><text fill="#000000" font-family="sans-serif" font-size="14" lengthAdjust="spacing" textLength="193.0879" x="361.98" y="24.9951">PANEL_PRINCIPAL_ABIERTO</text></g><path d="M145.02,152 L532.02,152 A12.5,12.5 0 0 1 544.52,164.5 L544.52,178.2969 L132.52,178.2969 L132.52,164.5 A12.5,12.5 0 0 1 145.02,152" fill="#F1F1F1"/><rect fill="none" height="477.2969" rx="12.5" ry="12.5" style="stroke:#181818;stroke-width:0.5;" width="412" x="132.52" y="152"/><line style="stroke:#181818;stroke-width:0.5;" x1="132.52" x2="544.52" y1="178.2969" y2="178.2969"/><text fill="#000000" font-family="sans-serif" font-size="14" lengthAdjust="spacing" textLength="144.1494" x="266.4453" y="169.9951">abrirOpcionesPerfil()</text><g><rect fill="#F1F1F1" height="50" rx="12.5" ry="12.5" style="stroke:#181818;stroke-width:0.5;" width="50" x="144.52" y="280.2969"/><line style="stroke:#181818;stroke-width:0.5;" x1="144.52" x2="194.52" y1="306.5938" y2="306.5938"/><text fill="#000000" font-family="sans-serif" font-size="14" lengthAdjust="spacing" textLength="4.4502" x="167.2949" y="298.292">&#160;</text></g><g><rect fill="#F1F1F1" height="50" rx="12.5" ry="12.5" style="stroke:#181818;stroke-width:0.5;" width="50" x="144.52" y="476.2969"/><line style="stroke:#181818;stroke-width:0.5;" x1="144.52" x2="194.52" y1="502.5938" y2="502.5938"/><text fill="#000000" font-family="sans-serif" font-size="14" lengthAdjust="spacing" textLength="4.4502" x="167.2949" y="494.292">&#160;</text></g><ellipse cx="169.52" cy="199.2969" fill="#222222" rx="10" ry="10" style="stroke:#222222;stroke-width:1;"/><ellipse cx="169.52" cy="608.2969" fill="none" rx="11" ry="11" style="stroke:#222222;stroke-width:1;"/><ellipse cx="169.52" cy="608.2969" fill="#222222" rx="6" ry="6" style="stroke:#222222;stroke-width:1;"/><!--link *start*abrirOpcionesPerfil to MostrandoLista--><g class="link" data-entity-1="ent0004" data-entity-2="ent0005" data-link-type="dependency" data-source-line="23" id="lnk5"><path d="M169.52,209.5269 C169.52,225.2369 169.52,251.6569 169.52,274.1669" fill="none" id="*start*abrirOpcionesPerfil-to-MostrandoLista" style="stroke:#008000;stroke-width:1;"/><polygon fill="#008000" points="169.52,280.1669,173.52,271.1669,169.52,275.1669,165.52,271.1669,169.52,280.1669" style="stroke:#008000;stroke-width:1;"/><path d="M174.52,232.2969 L174.52,257.2969 L469.52,257.2969 L469.52,242.2969 L459.52,232.2969 L174.52,232.2969" fill="#FEFFDD" style="stroke:#181818;stroke-width:0.5;"/><path d="M459.52,232.2969 L459.52,242.2969 L469.52,242.2969 L459.52,232.2969" fill="#FEFFDD" style="stroke:#181818;stroke-width:0.5;"/><text fill="#000000" font-family="sans-serif" font-size="13" font-weight="bold" lengthAdjust="spacing" textLength="90.251" x="180.52" y="249.3638">Coordinador</text><text fill="#000000" font-family="sans-serif" font-size="13" lengthAdjust="spacing" textLength="180.0132" x="274.9033" y="249.3638">solicita abrir opciones perfil</text></g><!--link MostrandoLista to FiltrandoLista--><g class="link" data-entity-1="ent0005" data-entity-2="ent0006" data-link-type="dependency" data-source-line="28" id="lnk6"><path d="M169.52,330.4769 C169.52,367.6469 169.52,432.4569 169.52,469.8169" fill="none" id="MostrandoLista-to-FiltrandoLista" style="stroke:#008000;stroke-width:1;"/><polygon fill="#008000" points="169.52,475.8169,173.52,466.8169,169.52,470.8169,165.52,466.8169,169.52,475.8169" style="stroke:#008000;stroke-width:1;"/><path d="M174.52,353.2969 L174.52,453.2969 L535.52,453.2969 L535.52,363.2969 L525.52,353.2969 L174.52,353.2969" fill="#FEFFDD" style="stroke:#181818;stroke-width:0.5;"/><path d="M525.52,353.2969 L525.52,363.2969 L535.52,363.2969 L525.52,353.2969" fill="#FEFFDD" style="stroke:#181818;stroke-width:0.5;"/><text fill="#000000" font-family="sans-serif" font-size="13" font-weight="bold" lengthAdjust="spacing" textLength="58.9063" x="180.52" y="370.3638">Sistema</text><text fill="#000000" font-family="sans-serif" font-size="13" lengthAdjust="spacing" textLength="277.5703" x="243.5586" y="370.3638">presenta las opciones disponibles en perfil</text><text fill="#000000" font-family="sans-serif" font-size="13" lengthAdjust="spacing" textLength="277.3799" x="180.52" y="385.4966">&#8226; ID, nombre, campo de cada investigador</text><text fill="#000000" font-family="sans-serif" font-size="13" lengthAdjust="spacing" textLength="197.5327" x="180.52" y="400.6294">&#8226; Permite solicitar editar perfil</text><text fill="#000000" font-family="sans-serif" font-size="13" lengthAdjust="spacing" textLength="311.6699" x="180.52" y="415.7622">&#8226; Permite solicitar resolver solicitud eliminacion</text><text fill="#000000" font-family="sans-serif" font-size="13" lengthAdjust="spacing" textLength="278.1099" x="180.52" y="430.895">&#8226; Permite solicitar volver al panel principal</text><text fill="#000000" font-family="sans-serif" font-size="13" lengthAdjust="spacing" textLength="262.666" x="180.52" y="446.0278">&#8226; Permite solicitar volver al investigador</text></g><!--link FiltrandoLista to *end*abrirOpcionesPerfil--><g class="link" data-entity-1="ent0006" data-entity-2="ent0007" data-link-type="dependency" data-source-line="38" id="lnk8"><path d="M169.52,526.6469 C169.52,548.9469 169.52,574.8569 169.52,591.0369" fill="none" id="FiltrandoLista-to-*end*abrirOpcionesPerfil" style="stroke:#008000;stroke-width:1;"/><polygon fill="#008000" points="169.52,597.0369,173.52,588.0369,169.52,592.0369,165.52,588.0369,169.52,597.0369" style="stroke:#008000;stroke-width:1;"/><path d="M174.52,549.2969 L174.52,574.2969 L468.52,574.2969 L468.52,559.2969 L458.52,549.2969 L174.52,549.2969" fill="#FEFFDD" style="stroke:#181818;stroke-width:0.5;"/><path d="M458.52,549.2969 L458.52,559.2969 L468.52,559.2969 L458.52,549.2969" fill="#FEFFDD" style="stroke:#181818;stroke-width:0.5;"/><text fill="#000000" font-family="sans-serif" font-size="13" font-weight="bold" lengthAdjust="spacing" textLength="90.251" x="180.52" y="566.3638">Coordinador</text><text fill="#000000" font-family="sans-serif" font-size="13" lengthAdjust="spacing" textLength="179.2769" x="274.9033" y="566.3638">solicita una de las opciones</text></g><g><rect fill="#F1F1F1" height="50" rx="12.5" ry="12.5" style="stroke:#181818;stroke-width:0.5;" width="215.043" x="7" y="724.3"/><line style="stroke:#181818;stroke-width:0.5;" x1="7" x2="222.043" y1="750.5969" y2="750.5969"/><text fill="#000000" font-family="sans-serif" font-size="14" lengthAdjust="spacing" textLength="195.043" x="17" y="742.2951">OPCIONES_PERFIL_ABIERTO</text></g><g><rect fill="#F1F1F1" height="50" rx="12.5" ry="12.5" style="stroke:#181818;stroke-width:0.5;" width="213.0879" x="380.98" y="724.3"/><line style="stroke:#181818;stroke-width:0.5;" x1="380.98" x2="594.0679" y1="750.5969" y2="750.5969"/><text fill="#000000" font-family="sans-serif" font-size="14" lengthAdjust="spacing" textLength="193.0879" x="390.98" y="742.2951">PANEL_PRINCIPAL_ABIERTO</text></g><g><rect fill="#F1F1F1" height="50" rx="12.5" ry="12.5" style="stroke:#181818;stroke-width:0.5;" width="195" x="629.02" y="724.3"/><line style="stroke:#181818;stroke-width:0.5;" x1="629.02" x2="824.02" y1="750.5969" y2="750.5969"/><text fill="#000000" font-family="sans-serif" font-size="14" lengthAdjust="spacing" textLength="175" x="639.02" y="742.2951">INVESTIGADOR_ABIERTO</text></g><!--link in1 to abrirOpcionesPerfil--><g class="link" data-entity-1="ent0002" data-entity-2="ent0004" data-link-type="dependency" data-source-line="4" id="lnk2"><path d="M224.44,57.32 C229.77,83.67 237.52,122 237.52,122 C237.52,122 239.7301,127.867 246.6001,146.057" fill="none" id="in1-to-abrirOpcionesPerfil" style="stroke:#0000FF;stroke-width:1;"/><polygon fill="#0000FF" points="248.72,151.67,249.2821,141.8372,246.9534,146.9925,241.7981,144.6638,248.72,151.67" style="stroke:#0000FF;stroke-width:1;"/><path d="M242.52,92 L242.52,117 L410.52,117 L410.52,102 L400.52,92 L242.52,92" fill="#FEFFDD" style="stroke:#181818;stroke-width:0.5;"/><path d="M400.52,92 L400.52,102 L410.52,102 L400.52,92" fill="#FEFFDD" style="stroke:#181818;stroke-width:0.5;"/><text fill="#000000" font-family="sans-serif" font-size="13" lengthAdjust="spacing" textLength="147.6973" x="248.52" y="109.0669">abrirOpcionesPerfil(ID)</text></g><!--link in2 to abrirOpcionesPerfil--><g class="link" data-entity-1="ent0003" data-entity-2="ent0004" data-link-type="dependency" data-source-line="11" id="lnk3"><path d="M450.37,57.24 C443.06,78.95 433.4324,107.5529 420.4924,146.0329" fill="none" id="in2-to-abrirOpcionesPerfil" style="stroke:#008000;stroke-width:1;"/><polygon fill="#008000" points="418.58,151.72,425.24,144.4644,420.1737,146.9808,417.6573,141.9145,418.58,151.72" style="stroke:#008000;stroke-width:1;"/><path d="M442.52,92 L442.52,117 L596.52,117 L596.52,102 L586.52,92 L442.52,92" fill="#FEFFDD" style="stroke:#181818;stroke-width:0.5;"/><path d="M586.52,92 L586.52,102 L596.52,102 L586.52,92" fill="#FEFFDD" style="stroke:#181818;stroke-width:0.5;"/><text fill="#000000" font-family="sans-serif" font-size="13" lengthAdjust="spacing" textLength="133.853" x="448.52" y="109.0669">abrirOpcionesPerfil()</text></g><!--link abrirOpcionesPerfil to OPCIONES_PERFIL_ABIERTO--><g class="link" data-entity-1="ent0004" data-entity-2="ent0009" data-link-type="dependency" data-source-line="44" id="lnk10"><path d="M132.23,573.88 C78.58,621.27 35.52,659.3 35.52,659.3 C35.52,659.3 35.52,694.3 35.52,694.3 C35.52,694.3 52.8671,706.1535 73.7671,720.4435" fill="none" id="abrirOpcionesPerfil-to-OPCIONES_PERFIL_ABIERTO" style="stroke:#008000;stroke-width:1;"/><polygon fill="#008000" points="78.72,723.83,73.5482,715.4483,74.5925,721.0079,69.0329,722.0522,78.72,723.83" style="stroke:#008000;stroke-width:1;"/><path d="M40.52,664.3 L40.52,689.3 L142.52,689.3 L142.52,674.3 L132.52,664.3 L40.52,664.3" fill="#FEFFDD" style="stroke:#181818;stroke-width:0.5;"/><path d="M132.52,664.3 L132.52,674.3 L142.52,674.3 L132.52,664.3" fill="#FEFFDD" style="stroke:#181818;stroke-width:0.5;"/><text fill="#000000" font-family="sans-serif" font-size="13" lengthAdjust="spacing" textLength="81.396" x="46.52" y="681.3669">editarPerfil()</text></g><!--link abrirOpcionesPerfil to OPCIONES_PERFIL_ABIERTO--><g class="link" data-entity-1="ent0004" data-entity-2="ent0009" data-link-type="dependency" data-source-line="50" id="lnk11"><path d="M191.41,629.75 C168.11,667.45 151.52,694.3 151.52,694.3 C151.52,694.3 144.4711,704.5902 134.6811,718.8802" fill="none" id="abrirOpcionesPerfil-to-OPCIONES_PERFIL_ABIERTO-1" style="stroke:#008000;stroke-width:1;"/><polygon fill="#008000" points="131.29,723.83,139.6765,718.666,134.1159,719.7052,133.0768,714.1446,131.29,723.83" style="stroke:#008000;stroke-width:1;"/><path d="M176.52,664.3 L176.52,689.3 L423.52,689.3 L423.52,674.3 L413.52,664.3 L176.52,664.3" fill="#FEFFDD" style="stroke:#181818;stroke-width:0.5;"/><path d="M413.52,664.3 L413.52,674.3 L423.52,674.3 L413.52,664.3" fill="#FEFFDD" style="stroke:#181818;stroke-width:0.5;"/><text fill="#000000" font-family="sans-serif" font-size="13" lengthAdjust="spacing" textLength="226.4907" x="182.52" y="681.3669">resolverSolicitudEliminacionPerfil()</text></g><!--link abrirOpcionesPerfil to PANEL_PRINCIPAL_ABIERTO--><g class="link" data-entity-1="ent0004" data-entity-2="ent0012" data-link-type="dependency" data-source-line="57" id="lnk13"><path d="M437.91,629.54 C454.03,668.13 466.078,696.9734 475.148,718.6934" fill="none" id="abrirOpcionesPerfil-to-PANEL_PRINCIPAL_ABIERTO" style="stroke:#008000;stroke-width:1;"/><polygon fill="#008000" points="477.46,724.23,477.683,714.3837,475.5333,719.6161,470.3008,717.4664,477.46,724.23" style="stroke:#008000;stroke-width:1;"/><path d="M467.52,664.3 L467.52,689.3 L619.52,689.3 L619.52,674.3 L609.52,664.3 L467.52,664.3" fill="#FEFFDD" style="stroke:#181818;stroke-width:0.5;"/><path d="M609.52,664.3 L609.52,674.3 L619.52,674.3 L609.52,664.3" fill="#FEFFDD" style="stroke:#181818;stroke-width:0.5;"/><text fill="#000000" font-family="sans-serif" font-size="13" lengthAdjust="spacing" textLength="131.9424" x="473.52" y="681.3669">abrirPanelPrincipal()</text></g><!--link abrirOpcionesPerfil to INVESTIGADOR_ABIERTO--><g class="link" data-entity-1="ent0004" data-entity-2="ent0014" data-link-type="dependency" data-source-line="62" id="lnk15"><path d="M544.71,579.36 C593.93,624.17 632.52,659.3 632.52,659.3 C632.52,659.3 668.6424,693.5056 696.4824,719.8556" fill="none" id="abrirOpcionesPerfil-to-INVESTIGADOR_ABIERTO" style="stroke:#0000FF;stroke-width:1;"/><polygon fill="#0000FF" points="700.84,723.98,697.0531,714.8883,697.2086,720.543,691.5539,720.6985,700.84,723.98" style="stroke:#0000FF;stroke-width:1;"/><path d="M672.52,664.3 L672.52,689.3 L828.52,689.3 L828.52,674.3 L818.52,664.3 L672.52,664.3" fill="#FEFFDD" style="stroke:#181818;stroke-width:0.5;"/><path d="M818.52,664.3 L818.52,674.3 L828.52,674.3 L818.52,664.3" fill="#FEFFDD" style="stroke:#181818;stroke-width:0.5;"/><text fill="#000000" font-family="sans-serif" font-size="13" lengthAdjust="spacing" textLength="135.5225" x="678.52" y="681.3669">abrirInvestigador(ID)</text></g><!--SRC=[hLJTQjim5BxNKnoocssqZFMw1DB47O8iDadPJIb1ZiwAg2m9sGcKCTYpxD7s93joQjTAb6qjiq6MfNFEzvtV-a4P9xoeG2k3pQD3S5O_XX_6waOq2Cfy1573Y2- -PAiR_caoovVhoHNFbZVvY8NRyzitfTxYtVaOHEcLpzr6MODrWVwhqinOic9DG7XW2O6tVFQEeP4G1Dapx4KBMqmMsNnTBFbYoel9V8Xy4P3lFQ9vDNG4_8ISa6kP9FL7y8qne6UlEwANP3_Rkl72I3jNT7vyVwtqyBuLk7r_5_aJsu1M9l8d75oMuwcrNYeZfFMN7yenr5QhZIADbY_O9yBWzY49MftFOS_wvG1moEM0xoagAxh5IhGqdCSQ3TdHv6zFGghQMQDAJNiqGqw_Vlm4FZiZkrNfyGmsed8M9D962gg67TQDkWzUzkAKWqeHYyvZ3oZRpu7POpdYPlKEVNUqbO1QLHJ5mFCFYhkzcj3WX45QlJ8RvOJ-9vqZB_hYwvCGHpfA0XN8oujWQqG8uZ09CV9tbcgC23WlfZnVPAjraIslUT-2SNVjGvzgg_zYlilOgajOzfolP2__3VN4N4cCZ29akkWI7S6S0EccOMfa9W3ue2oYOVWR]--></g></svg>