<svg xmlns="http://www.w3.org/2000/svg" xmlns:xlink="http://www.w3.org/1999/xlink" contentStyleType="text/css" data-diagram-type="STATE" height="677px" preserveAspectRatio="none" style="width:723px;height:677px;background:#FFFFFF;" version="1.1" viewBox="0 0 723 677" width="723px" zoomAndPan="magnify"><defs/><g><path d="M19.5,7 L697.5,7 A12.5,12.5 0 0 1 710,19.5 L710,33.2969 L7,33.2969 L7,19.5 A12.5,12.5 0 0 1 19.5,7" fill="#F1F1F1"/><rect fill="none" height="519.2969" rx="12.5" ry="12.5" style="stroke:#181818;stroke-width:0.5;" width="703" x="7" y="7"/><line style="stroke:#181818;stroke-width:0.5;" x1="7" x2="710" y1="33.2969" y2="33.2969"/><text fill="#000000" font-family="sans-serif" font-size="14" lengthAdjust="spacing" textLength="243.9131" x="236.5435" y="24.9951">resolverSolicitudEliminacionPerfil()</text><g><rect fill="#F1F1F1" height="50" rx="12.5" ry="12.5" style="stroke:#181818;stroke-width:0.5;" width="50" x="218" y="135.2969"/><line style="stroke:#181818;stroke-width:0.5;" x1="218" x2="268" y1="161.5938" y2="161.5938"/><text fill="#000000" font-family="sans-serif" font-size="14" lengthAdjust="spacing" textLength="4.4502" x="240.7749" y="153.292">&#160;</text></g><g><rect fill="#F1F1F1" height="50" rx="12.5" ry="12.5" style="stroke:#181818;stroke-width:0.5;" width="50" x="218" y="271.2969"/><line style="stroke:#181818;stroke-width:0.5;" x1="218" x2="268" y1="297.5938" y2="297.5938"/><text fill="#000000" font-family="sans-serif" font-size="14" lengthAdjust="spacing" textLength="4.4502" x="240.7749" y="289.292">&#160;</text></g><g><rect fill="#F1F1F1" height="50" rx="12.5" ry="12.5" style="stroke:#181818;stroke-width:0.5;" width="50" x="218" y="407.2969"/><line style="stroke:#181818;stroke-width:0.5;" x1="218" x2="268" y1="433.5938" y2="433.5938"/><text fill="#000000" font-family="sans-serif" font-size="14" lengthAdjust="spacing" textLength="4.4502" x="240.7749" y="425.292">&#160;</text></g><ellipse cx="243" cy="54.2969" fill="#222222" rx="10" ry="10" style="stroke:#222222;stroke-width:1;"/><ellipse cx="243" cy="505.2969" fill="none" rx="11" ry="11" style="stroke:#222222;stroke-width:1;"/><ellipse cx="243" cy="505.2969" fill="#222222" rx="6" ry="6" style="stroke:#222222;stroke-width:1;"/><!--link *start*resolverSolicitudEliminacionPerfil to ListandoSolicitudes--><g class="link" data-entity-1="ent0002" data-entity-2="ent0003" data-link-type="dependency" data-source-line="9" id="lnk3"><path d="M243,64.5269 C243,80.2369 243,106.6569 243,129.1669" fill="none" id="*start*resolverSolicitudEliminacionPerfil-to-ListandoSolicitudes" style="stroke:#008000;stroke-width:1;"/><polygon fill="#008000" points="243,135.1669,247,126.1669,243,130.1669,239,126.1669,243,135.1669" style="stroke:#008000;stroke-width:1;"/><path d="M248,87.2969 L248,112.2969 L593,112.2969 L593,97.2969 L583,87.2969 L248,87.2969" fill="#FEFFDD" style="stroke:#181818;stroke-width:0.5;"/><path d="M583,87.2969 L583,97.2969 L593,97.2969 L583,87.2969" fill="#FEFFDD" style="stroke:#181818;stroke-width:0.5;"/><text fill="#000000" font-family="sans-serif" font-size="13" font-weight="bold" lengthAdjust="spacing" textLength="90.251" x="254" y="104.3638">Coordinador</text><text fill="#000000" font-family="sans-serif" font-size="13" lengthAdjust="spacing" textLength="230.2168" x="348.3833" y="104.3638">solicita abrir solicitudes pendientes</text></g><!--link ListandoSolicitudes to EvaluandoSolicitud--><g class="link" data-entity-1="ent0003" data-entity-2="ent0004" data-link-type="dependency" data-source-line="14" id="lnk4"><path d="M217.63,166.0369 C158.78,177.0169 18,203.2969 18,203.2969 C18,203.2969 18,253.2969 18,253.2969 C18,253.2969 152.8818,278.4764 211.7318,289.4564" fill="none" id="ListandoSolicitudes-to-EvaluandoSolicitud" style="stroke:#008000;stroke-width:1;"/><polygon fill="#008000" points="217.63,290.5569,209.5163,284.974,212.7148,289.6398,208.049,292.8383,217.63,290.5569" style="stroke:#008000;stroke-width:1;"/><path d="M23,208.2969 L23,248.2969 L442,248.2969 L442,218.2969 L432,208.2969 L23,208.2969" fill="#FEFFDD" style="stroke:#181818;stroke-width:0.5;"/><path d="M432,208.2969 L432,218.2969 L442,218.2969 L432,208.2969" fill="#FEFFDD" style="stroke:#181818;stroke-width:0.5;"/><text fill="#000000" font-family="sans-serif" font-size="13" font-weight="bold" lengthAdjust="spacing" textLength="58.9063" x="29" y="225.3638">Sistema</text><text fill="#000000" font-family="sans-serif" font-size="13" lengthAdjust="spacing" textLength="335.937" x="92.0386" y="225.3638">muestra lista de solicitudes de eliminaci&#243;n de perfil</text><text fill="#000000" font-family="sans-serif" font-size="13" lengthAdjust="spacing" textLength="84.3604" x="29" y="240.4966">&#8226; ID, nombre</text></g><!--link EvaluandoSolicitud to Resultado--><g class="link" data-entity-1="ent0004" data-entity-2="ent0005" data-link-type="dependency" data-source-line="20" id="lnk5"><path d="M243,321.5669 C243,345.8469 243,376.9869 243,401.2069" fill="none" id="EvaluandoSolicitud-to-Resultado" style="stroke:#008000;stroke-width:1;"/><polygon fill="#008000" points="243,407.2069,247,398.2069,243,402.2069,239,398.2069,243,407.2069" style="stroke:#008000;stroke-width:1;"/><path d="M248,344.2969 L248,384.2969 L595,384.2969 L595,354.2969 L585,344.2969 L248,344.2969" fill="#FEFFDD" style="stroke:#181818;stroke-width:0.5;"/><path d="M585,344.2969 L585,354.2969 L595,354.2969 L585,344.2969" fill="#FEFFDD" style="stroke:#181818;stroke-width:0.5;"/><text fill="#000000" font-family="sans-serif" font-size="13" font-weight="bold" lengthAdjust="spacing" textLength="90.251" x="254" y="361.3638">Coordinador</text><text fill="#000000" font-family="sans-serif" font-size="13" lengthAdjust="spacing" textLength="232.4639" x="348.3833" y="361.3638">solicita aprobar o rechazar solicitud</text><text fill="#000000" font-family="sans-serif" font-size="13" font-weight="bold" lengthAdjust="spacing" textLength="58.9063" x="254" y="376.4966">Sistema</text><text fill="#000000" font-family="sans-serif" font-size="13" lengthAdjust="spacing" textLength="167.3623" x="317.0386" y="376.4966">presenta estado del perfil</text></g><!--link EvaluandoSolicitud to ListandoSolicitudes--><g class="link" data-entity-1="ent0004" data-entity-2="ent0003" data-link-type="dependency" data-source-line="26" id="lnk6"><path d="M268.42,290.0669 C323.11,278.8069 447,253.2969 447,253.2969 C447,253.2969 447,203.2969 447,203.2969 C447,203.2969 328.9867,178.9968 274.2967,167.7368" fill="none" id="EvaluandoSolicitud-to-ListandoSolicitudes" style="stroke:#FF0000;stroke-width:1;"/><polygon fill="#FF0000" points="268.42,166.5269,276.4285,172.2596,273.3173,167.5352,278.0417,164.424,268.42,166.5269" style="stroke:#FF0000;stroke-width:1;"/><path d="M452,215.7969 L452,240.7969 L701,240.7969 L701,225.7969 L691,215.7969 L452,215.7969" fill="#FEFFDD" style="stroke:#181818;stroke-width:0.5;"/><path d="M691,215.7969 L691,225.7969 L701,225.7969 L691,215.7969" fill="#FEFFDD" style="stroke:#181818;stroke-width:0.5;"/><text fill="#000000" font-family="sans-serif" font-size="13" font-weight="bold" lengthAdjust="spacing" textLength="90.251" x="458" y="232.8638">Coordinador</text><text fill="#000000" font-family="sans-serif" font-size="13" lengthAdjust="spacing" textLength="134.3862" x="552.3833" y="232.8638">cancela la operaci&#243;n</text></g><!--link Resultado to *end*resolverSolicitudEliminacionPerfil--><g class="link" data-entity-1="ent0005" data-entity-2="ent0007" data-link-type="dependency" data-source-line="31" id="lnk8"><path d="M243,457.7269 C243,470.0869 243,478.4269 243,487.8969" fill="none" id="Resultado-to-*end*resolverSolicitudEliminacionPerfil" style="stroke:#008000;stroke-width:1;"/><polygon fill="#008000" points="243,493.8969,247,484.8969,243,488.8969,239,484.8969,243,493.8969" style="stroke:#008000;stroke-width:1;"/></g><g><rect fill="#F1F1F1" height="50" rx="12.5" ry="12.5" style="stroke:#181818;stroke-width:0.5;" width="215.043" x="250.98" y="621.3"/><line style="stroke:#181818;stroke-width:0.5;" x1="250.98" x2="466.023" y1="647.5969" y2="647.5969"/><text fill="#000000" font-family="sans-serif" font-size="14" lengthAdjust="spacing" textLength="195.043" x="260.98" y="639.2951">OPCIONES_PERFIL_ABIERTO</text></g><!--link OPCIONES_PERFIL_ABIERTO to resolverSolicitudEliminacionPerfil--><g class="link" data-entity-1="ent0009" data-entity-2="ent0002" data-link-type="dependency" data-source-line="36" id="lnk10"><path d="M387.05,620.83 C403.72,606.54 421.5,591.3 421.5,591.3 C421.5,591.3 421.5,556.3 421.5,556.3 C421.5,556.3 420.2994,550.822 416.3294,532.632" fill="none" id="OPCIONES_PERFIL_ABIERTO-to-resolverSolicitudEliminacionPerfil" style="stroke:#008000;stroke-width:1;"/><polygon fill="#008000" points="415.05,526.77,413.0611,536.4159,416.1162,531.655,420.8771,534.7101,415.05,526.77" style="stroke:#008000;stroke-width:1;"/><path d="M426.5,561.3 L426.5,586.3 L673.5,586.3 L673.5,571.3 L663.5,561.3 L426.5,561.3" fill="#FEFFDD" style="stroke:#181818;stroke-width:0.5;"/><path d="M663.5,561.3 L663.5,571.3 L673.5,571.3 L663.5,561.3" fill="#FEFFDD" style="stroke:#181818;stroke-width:0.5;"/><text fill="#000000" font-family="sans-serif" font-size="13" lengthAdjust="spacing" textLength="226.4907" x="432.5" y="578.3669">resolverSolicitudEliminacionPerfil()</text></g><!--link resolverSolicitudEliminacionPerfil to OPCIONES_PERFIL_ABIERTO--><g class="link" data-entity-1="ent0002" data-entity-2="ent0009" data-link-type="dependency" data-source-line="41" id="lnk11"><path d="M260.65,526.77 C253.78,544.96 249.5,556.3 249.5,556.3 C249.5,556.3 249.5,591.3 249.5,591.3 C249.5,591.3 274.8838,603.8761 303.7238,618.1661" fill="none" id="resolverSolicitudEliminacionPerfil-to-OPCIONES_PERFIL_ABIERTO" style="stroke:#008000;stroke-width:1;"/><polygon fill="#008000" points="309.1,620.83,302.8116,613.25,304.6198,618.6101,299.2597,620.4183,309.1,620.83" style="stroke:#008000;stroke-width:1;"/><path d="M254.5,561.3 L254.5,586.3 L408.5,586.3 L408.5,571.3 L398.5,561.3 L254.5,561.3" fill="#FEFFDD" style="stroke:#181818;stroke-width:0.5;"/><path d="M398.5,561.3 L398.5,571.3 L408.5,571.3 L398.5,561.3" fill="#FEFFDD" style="stroke:#181818;stroke-width:0.5;"/><text fill="#000000" font-family="sans-serif" font-size="13" lengthAdjust="spacing" textLength="133.853" x="260.5" y="578.3669">abrirOpcionesPerfil()</text></g><!--SRC=[fPDTIiD04CVVznHBVL6nU85Iy2D2e9ZI-bPAcMH7NRhPNNRJGXN1itW5Z-1DF8cJn7uiIMd5v6coC__vpJyxVYwr1GSvLr9ZiRB8hL6hCc3C5r0WT-YDMg8R6oKpMIn4f6GkDMJIw26wHwauUDuvd7Pwrk6lZ75wQkKElLGwa1HgOJQLw9j9qHBK8iXgvepGBrG1mjHD9kTJtfsSF3b4FUtsz_RHXYICBXsOLnzwQV_662U8NXZNkqpxtDSrm25rqgt3Ke9Rr4AYBdxLAAeKQuQMdW7Jdh7QaCOaXJbKEFa2VU60pacU2mo0ACIrzr-VkenjzGCgfU_t3nxVNb2BF7NOWjn42eYt9l_TE-jC2euRkbFPCxp0Zf5jKrgwKsGiS1gMr6WGjJl9CTWEnNz_VGOwGqLU0pVKlJQr1M1ZJ60NNSBgbBqnnfBXJPpSH-FPC1hTnOFPrNKSZHwIeE3m7h60-fYzOrlI8xPvbsOFSOXGxKHYImdqZPu_]--></g></svg>