<svg xmlns="http://www.w3.org/2000/svg" xmlns:xlink="http://www.w3.org/1999/xlink" contentStyleType="text/css" data-diagram-type="STATE" height="908px" preserveAspectRatio="none" style="width:2238px;height:908px;background:#FFFFFF;" version="1.1" viewBox="0 0 2238 908" width="2238px" zoomAndPan="magnify"><title>Diagrama de contexto del Investigador/Docente</title><defs/><g><g class="title" data-source-line="1"><text fill="#000000" font-family="sans-serif" font-size="14" font-weight="bold" lengthAdjust="spacing" textLength="378.9502" x="922.9014" y="22.9951">Diagrama de contexto del Investigador/Docente</text></g><ellipse cx="16" cy="455.2969" fill="#222222" rx="10" ry="10" style="stroke:#222222;stroke-width:1;"/><g id="SESION_CERRADA"><rect fill="#F1F1F1" height="50" rx="12.5" ry="12.5" style="stroke:#181818;stroke-width:0.5;" width="147.251" x="87" y="430.2969"/><line style="stroke:#181818;stroke-width:0.5;" x1="87" x2="234.251" y1="456.5938" y2="456.5938"/><text fill="#000000" font-family="sans-serif" font-size="14" lengthAdjust="spacing" textLength="127.251" x="97" y="448.292">SESION_CERRADA</text></g><g id="PERFIL"><rect fill="#F1F1F1" height="50" rx="12.5" ry="12.5" style="stroke:#181818;stroke-width:0.5;" width="66.9971" x="388" y="430.2969"/><line style="stroke:#181818;stroke-width:0.5;" x1="388" x2="454.9971" y1="456.5938" y2="456.5938"/><text fill="#000000" font-family="sans-serif" font-size="14" lengthAdjust="spacing" textLength="46.9971" x="398" y="448.292">PERFIL</text></g><g id="OPCIONES_PERFIL_ABIERTO"><rect fill="#F1F1F1" height="50" rx="12.5" ry="12.5" style="stroke:#181818;stroke-width:0.5;" width="215.043" x="702" y="105.2969"/><line style="stroke:#181818;stroke-width:0.5;" x1="702" x2="917.043" y1="131.5938" y2="131.5938"/><text fill="#000000" font-family="sans-serif" font-size="14" lengthAdjust="spacing" textLength="195.043" x="712" y="123.292">OPCIONES_PERFIL_ABIERTO</text></g><g id="MI_CARGA_TRABAJO"><rect fill="#F1F1F1" height="50" rx="12.5" ry="12.5" style="stroke:#181818;stroke-width:0.5;" width="161.9004" x="728.5" y="253.2969"/><line style="stroke:#181818;stroke-width:0.5;" x1="728.5" x2="890.4004" y1="279.5938" y2="279.5938"/><text fill="#000000" font-family="sans-serif" font-size="14" lengthAdjust="spacing" textLength="141.9004" x="738.5" y="271.292">MI_CARGA_TRABAJO</text></g><g id="PROYECTOS_ABIERTOS"><rect fill="#F1F1F1" height="50" rx="12.5" ry="12.5" style="stroke:#181818;stroke-width:0.5;" width="182.1621" x="718.5" y="340.2969"/><line style="stroke:#181818;stroke-width:0.5;" x1="718.5" x2="900.6621" y1="366.5938" y2="366.5938"/><text fill="#000000" font-family="sans-serif" font-size="14" lengthAdjust="spacing" textLength="162.1621" x="728.5" y="358.292">PROYECTOS_ABIERTOS</text></g><g id="CONVOCATORIAS_ABIERTAS"><rect fill="#F1F1F1" height="50" rx="12.5" ry="12.5" style="stroke:#181818;stroke-width:0.5;" width="219.0078" x="700" y="527.2969"/><line style="stroke:#181818;stroke-width:0.5;" x1="700" x2="919.0078" y1="553.5938" y2="553.5938"/><text fill="#000000" font-family="sans-serif" font-size="14" lengthAdjust="spacing" textLength="199.0078" x="710" y="545.292">CONVOCATORIAS_ABIERTAS</text></g><g id="MIS_PUBLICACIONES_ABIERTAS"><rect fill="#F1F1F1" height="50" rx="12.5" ry="12.5" style="stroke:#181818;stroke-width:0.5;" width="240.6982" x="689" y="641.2969"/><line style="stroke:#181818;stroke-width:0.5;" x1="689" x2="929.6982" y1="667.5938" y2="667.5938"/><text fill="#000000" font-family="sans-serif" font-size="14" lengthAdjust="spacing" textLength="220.6982" x="699" y="659.292">MIS_PUBLICACIONES_ABIERTAS</text></g><g id="PUBLICACIONES_ABIERTAS"><rect fill="#F1F1F1" height="50" rx="12.5" ry="12.5" style="stroke:#181818;stroke-width:0.5;" width="208.6035" x="705" y="780.2969"/><line style="stroke:#181818;stroke-width:0.5;" x1="705" x2="913.6035" y1="806.5938" y2="806.5938"/><text fill="#000000" font-family="sans-serif" font-size="14" lengthAdjust="spacing" textLength="188.6035" x="715" y="798.292">PUBLICACIONES_ABIERTAS</text></g><g id="PUBLICACION_ABIERTA"><rect fill="#F1F1F1" height="50" rx="12.5" ry="12.5" style="stroke:#181818;stroke-width:0.5;" width="181.9844" x="1159.5" y="849.2969"/><line style="stroke:#181818;stroke-width:0.5;" x1="1159.5" x2="1341.4844" y1="875.5938" y2="875.5938"/><text fill="#000000" font-family="sans-serif" font-size="14" lengthAdjust="spacing" textLength="161.9844" x="1169.5" y="867.292">PUBLICACION_ABIERTA</text></g><g id="MI_PUBLICACION_ABIERTA"><rect fill="#F1F1F1" height="50" rx="12.5" ry="12.5" style="stroke:#181818;stroke-width:0.5;" width="205.1924" x="1148" y="712.2969"/><line style="stroke:#181818;stroke-width:0.5;" x1="1148" x2="1353.1924" y1="738.5938" y2="738.5938"/><text fill="#000000" font-family="sans-serif" font-size="14" lengthAdjust="spacing" textLength="185.1924" x="1158" y="730.292">MI_PUBLICACION_ABIERTA</text></g><g id="PROYECTO_ABIERTO"><rect fill="#F1F1F1" height="50" rx="12.5" ry="12.5" style="stroke:#181818;stroke-width:0.5;" width="164.3887" x="1168.5" y="315.2969"/><line style="stroke:#181818;stroke-width:0.5;" x1="1168.5" x2="1332.8887" y1="341.5938" y2="341.5938"/><text fill="#000000" font-family="sans-serif" font-size="14" lengthAdjust="spacing" textLength="144.3887" x="1178.5" y="333.292">PROYECTO_ABIERTO</text></g><g id="CONVOCATORIA_ABIERTA"><rect fill="#F1F1F1" height="50" rx="12.5" ry="12.5" style="stroke:#181818;stroke-width:0.5;" width="201.2344" x="1150" y="495.2969"/><line style="stroke:#181818;stroke-width:0.5;" x1="1150" x2="1351.2344" y1="521.5938" y2="521.5938"/><text fill="#000000" font-family="sans-serif" font-size="14" lengthAdjust="spacing" textLength="181.2344" x="1160" y="513.292">CONVOCATORIA_ABIERTA</text></g><g id="PROPUESTAS_ABIERTAS"><rect fill="#F1F1F1" height="50" rx="12.5" ry="12.5" style="stroke:#181818;stroke-width:0.5;" width="188.5264" x="1682" y="474.2969"/><line style="stroke:#181818;stroke-width:0.5;" x1="1682" x2="1870.5264" y1="500.5938" y2="500.5938"/><text fill="#000000" font-family="sans-serif" font-size="14" lengthAdjust="spacing" textLength="168.5264" x="1692" y="492.292">PROPUESTAS_ABIERTAS</text></g><g id="PROPUESTA_ABIERTA"><rect fill="#F1F1F1" height="50" rx="12.5" ry="12.5" style="stroke:#181818;stroke-width:0.5;" width="170.7529" x="2061" y="503.2969"/><line style="stroke:#181818;stroke-width:0.5;" x1="2061" x2="2231.7529" y1="529.5938" y2="529.5938"/><text fill="#000000" font-family="sans-serif" font-size="14" lengthAdjust="spacing" textLength="150.7529" x="2071" y="521.292">PROPUESTA_ABIERTA</text></g><!--link *start* to SESION_CERRADA--><g class="link" data-entity-1=".start." data-entity-2="SESION_CERRADA" data-source-line="5" data-uid="lnk4" id="link_.start._SESION_CERRADA"><path d="M26.35,455.2969 C39.04,455.2969 56.92,455.2969 80.98,455.2969" fill="none" id="*start*-to-SESION_CERRADA" style="stroke:#181818;stroke-width:1;"/><polygon fill="#181818" points="86.98,455.2969,77.98,451.2969,81.98,455.2969,77.98,459.2969,86.98,455.2969" style="stroke:#181818;stroke-width:1;"/></g><!--link SESION_CERRADA to SESION_CERRADA--><g class="link" data-entity-1="SESION_CERRADA" data-entity-2="SESION_CERRADA" data-source-line="6" data-uid="lnk5" id="link_SESION_CERRADA_SESION_CERRADA"><path d="M142.9,430.0169 C137.57,412.5269 143.44,395.2969 160.5,395.2969 C177.56,395.2969 185.1791,406.7875 179.8491,424.2775" fill="none" id="SESION_CERRADA-to-SESION_CERRADA" style="stroke:#181818;stroke-width:1;"/><polygon fill="#181818" points="178.1,430.0169,184.5499,422.5738,179.5575,425.234,176.8973,420.2417,178.1,430.0169" style="stroke:#181818;stroke-width:1;"/><text fill="#000000" font-family="sans-serif" font-size="13" lengthAdjust="spacing" textLength="141.4194" x="90" y="386.3638">denegarInicioSesion()</text></g><!--link SESION_CERRADA to PERFIL--><g class="link" data-entity-1="SESION_CERRADA" data-entity-2="PERFIL" data-source-line="7" data-uid="lnk7" id="link_SESION_CERRADA_PERFIL"><path d="M234.34,455.2969 C284.76,455.2969 343.46,455.2969 381.79,455.2969" fill="none" id="SESION_CERRADA-to-PERFIL" style="stroke:#181818;stroke-width:1;"/><polygon fill="#181818" points="387.79,455.2969,378.79,451.2969,382.79,455.2969,378.79,459.2969,387.79,455.2969" style="stroke:#181818;stroke-width:1;"/><text fill="#000000" font-family="sans-serif" font-size="13" lengthAdjust="spacing" textLength="92.5044" x="265" y="451.3638">iniciarSesion()</text></g><!--link PERFIL to SESION_CERRADA--><g class="link" data-entity-1="PERFIL" data-entity-2="SESION_CERRADA" data-source-line="9" data-uid="lnk8" id="link_PERFIL_SESION_CERRADA"><path d="M387.8,471.0869 C378.4,474.8669 367.98,478.3769 358,480.2969 C317.31,488.1369 277.2693,484.2545 240.0593,476.6745" fill="none" id="PERFIL-to-SESION_CERRADA" style="stroke:#181818;stroke-width:1;"/><polygon fill="#181818" points="234.18,475.4769,242.2004,481.1929,239.0794,476.4749,243.7973,473.3539,234.18,475.4769" style="stroke:#181818;stroke-width:1;"/><text fill="#000000" font-family="sans-serif" font-size="13" lengthAdjust="spacing" textLength="92.1172" x="265" y="476.3638">cerrarSesion()</text></g><!--link PERFIL to OPCIONES_PERFIL_ABIERTO--><g class="link" data-entity-1="PERFIL" data-entity-2="OPCIONES_PERFIL_ABIERTO" data-source-line="10" data-uid="lnk10" id="link_PERFIL_OPCIONES_PERFIL_ABIERTO"><path d="M425.47,430.2469 C432.67,373.7769 452.88,239.0369 485,208.2969 C542.05,153.6969 582.27,190.9869 659,172.2969 C679.95,167.1969 696.6312,162.791 717.6112,156.931" fill="none" id="PERFIL-to-OPCIONES_PERFIL_ABIERTO" style="stroke:#181818;stroke-width:1;"/><polygon fill="#181818" points="723.39,155.3169,713.6457,153.8855,718.5743,156.662,715.7978,161.5906,723.39,155.3169" style="stroke:#181818;stroke-width:1;"/><text fill="#000000" font-family="sans-serif" font-size="13" lengthAdjust="spacing" textLength="133.853" x="505.5" y="168.3638">abrirOpcionesPerfil()</text></g><!--link OPCIONES_PERFIL_ABIERTO to PERFIL--><g class="link" data-entity-1="OPCIONES_PERFIL_ABIERTO" data-entity-2="PERFIL" data-source-line="29" data-uid="lnk31" id="link_OPCIONES_PERFIL_ABIERTO_PERFIL"><path d="M701.86,106.9169 C632.03,98.1969 543.26,100.5669 485,151.2969 C442.94,187.9169 428.4178,358.0888 424.2478,424.1888" fill="none" id="OPCIONES_PERFIL_ABIERTO-to-PERFIL" style="stroke:#181818;stroke-width:1;"/><polygon fill="#181818" points="423.87,430.1769,428.4287,421.4466,424.1848,425.1868,420.4446,420.9429,423.87,430.1769" style="stroke:#181818;stroke-width:1;"/><text fill="#000000" font-family="sans-serif" font-size="13" lengthAdjust="spacing" textLength="95.9258" x="524.5" y="99.3638">volverAlPerfil()</text></g><!--link PERFIL to MI_CARGA_TRABAJO--><g class="link" data-entity-1="PERFIL" data-entity-2="MI_CARGA_TRABAJO" data-source-line="11" data-uid="lnk12" id="link_PERFIL_MI_CARGA_TRABAJO"><path d="M426.85,430.1269 C433.57,399.3769 449.63,348.2669 485,322.2969 C504.3,308.1269 633.1258,294.0422 722.5258,285.7322" fill="none" id="PERFIL-to-MI_CARGA_TRABAJO" style="stroke:#181818;stroke-width:1;"/><polygon fill="#181818" points="728.5,285.1769,719.1684,282.027,723.5215,285.6396,719.9088,289.9927,728.5,285.1769" style="stroke:#181818;stroke-width:1;"/><text fill="#000000" font-family="sans-serif" font-size="13" lengthAdjust="spacing" textLength="172.9863" x="486" y="287.3638">consultarMiCargaTrabajo()</text></g><!--link MI_CARGA_TRABAJO to PERFIL--><g class="link" data-entity-1="MI_CARGA_TRABAJO" data-entity-2="PERFIL" data-source-line="32" data-uid="lnk33" id="link_MI_CARGA_TRABAJO_PERFIL"><path d="M740.19,253.2569 C669.42,232.0569 559.03,212.8069 485,266.2969 C432.48,304.2469 423.5181,381.999 422.4081,424.099" fill="none" id="MI_CARGA_TRABAJO-to-PERFIL" style="stroke:#181818;stroke-width:1;"/><polygon fill="#181818" points="422.25,430.0969,426.4858,421.2054,422.3818,425.0986,418.4886,420.9946,422.25,430.0969" style="stroke:#181818;stroke-width:1;"/><text fill="#000000" font-family="sans-serif" font-size="13" lengthAdjust="spacing" textLength="95.9258" x="524.5" y="227.3638">volverAlPerfil()</text></g><!--link PERFIL to PROYECTOS_ABIERTOS--><g class="link" data-entity-1="PERFIL" data-entity-2="PROYECTOS_ABIERTOS" data-source-line="12" data-uid="lnk14" id="link_PERFIL_PROYECTOS_ABIERTOS"><path d="M455.1,444.7769 C464.69,441.8469 475.22,438.7869 485,436.2969 C561.52,416.7969 581.88,417.2969 659,400.2969 C678.26,396.0469 693.0364,392.6978 712.6164,388.1378" fill="none" id="PERFIL-to-PROYECTOS_ABIERTOS" style="stroke:#181818;stroke-width:1;"/><polygon fill="#181818" points="718.46,386.7769,708.7873,384.9225,713.5903,387.911,710.6019,392.714,718.46,386.7769" style="stroke:#181818;stroke-width:1;"/><text fill="#000000" font-family="sans-serif" font-size="13" lengthAdjust="spacing" textLength="155.9175" x="494.5" y="396.3638">consultarMisProyectos()</text></g><!--link PROYECTOS_ABIERTOS to PERFIL--><g class="link" data-entity-1="PROYECTOS_ABIERTOS" data-entity-2="PERFIL" data-source-line="55" data-uid="lnk51" id="link_PROYECTOS_ABIERTOS_PERFIL"><path d="M718.16,350.1969 C650.41,343.2369 557.31,343.2069 485,379.2969 C463.3,390.1269 449.5565,407.1997 438.8465,424.8197" fill="none" id="PROYECTOS_ABIERTOS-to-PERFIL" style="stroke:#181818;stroke-width:1;"/><polygon fill="#181818" points="435.73,429.9469,443.8228,424.3338,438.327,425.6742,436.9866,420.1785,435.73,429.9469" style="stroke:#181818;stroke-width:1;"/><text fill="#000000" font-family="sans-serif" font-size="13" lengthAdjust="spacing" textLength="95.9258" x="524.5" y="342.3638">volverAlPerfil()</text></g><!--link PERFIL to CONVOCATORIAS_ABIERTAS--><g class="link" data-entity-1="PERFIL" data-entity-2="CONVOCATORIAS_ABIERTAS" data-source-line="13" data-uid="lnk16" id="link_PERFIL_CONVOCATORIAS_ABIERTAS"><path d="M453.39,480.4869 C463.02,487.2269 474.01,493.8569 485,498.2969 C523.21,513.7369 615.6916,528.1917 694.0216,538.5317" fill="none" id="PERFIL-to-CONVOCATORIAS_ABIERTAS" style="stroke:#181818;stroke-width:1;"/><polygon fill="#181818" points="699.97,539.3169,691.5709,534.1734,695.013,538.6625,690.5239,542.1046,699.97,539.3169" style="stroke:#181818;stroke-width:1;"/><text fill="#000000" font-family="sans-serif" font-size="13" lengthAdjust="spacing" textLength="163.2935" x="490.5" y="494.3638">consultarConvocatorias()</text></g><!--link CONVOCATORIAS_ABIERTAS to PERFIL--><g class="link" data-entity-1="CONVOCATORIAS_ABIERTAS" data-entity-2="PERFIL" data-source-line="56" data-uid="lnk52" id="link_CONVOCATORIAS_ABIERTAS_PERFIL"><path d="M716.02,577.2969 C647.81,590.3869 555.08,596.5469 485,557.2969 C456.01,541.0569 440.8638,510.9252 432.0638,486.3652" fill="none" id="CONVOCATORIAS_ABIERTAS-to-PERFIL" style="stroke:#181818;stroke-width:1;"/><polygon fill="#181818" points="430.04,480.7169,429.3102,490.5387,431.7265,485.4238,436.8413,487.8402,430.04,480.7169" style="stroke:#181818;stroke-width:1;"/><text fill="#000000" font-family="sans-serif" font-size="13" lengthAdjust="spacing" textLength="95.9258" x="524.5" y="553.3638">volverAlPerfil()</text></g><!--link PERFIL to MIS_PUBLICACIONES_ABIERTAS--><g class="link" data-entity-1="PERFIL" data-entity-2="MIS_PUBLICACIONES_ABIERTAS" data-source-line="14" data-uid="lnk18" id="link_PERFIL_MIS_PUBLICACIONES_ABIERTAS"><path d="M425.07,480.5369 C430.08,515.6469 444.47,578.5869 485,611.2969 C501.13,624.3169 597.4727,639.5035 682.7827,650.8835" fill="none" id="PERFIL-to-MIS_PUBLICACIONES_ABIERTAS" style="stroke:#181818;stroke-width:1;"/><polygon fill="#181818" points="688.73,651.6769,680.3379,646.522,683.7739,651.0158,679.2801,654.4517,688.73,651.6769" style="stroke:#181818;stroke-width:1;"/><text fill="#000000" font-family="sans-serif" font-size="13" lengthAdjust="spacing" textLength="150.6553" x="497" y="607.3638">abrirMisPublicaciones()</text></g><!--link MIS_PUBLICACIONES_ABIERTAS to PERFIL--><g class="link" data-entity-1="MIS_PUBLICACIONES_ABIERTAS" data-entity-2="PERFIL" data-source-line="54" data-uid="lnk50" id="link_MIS_PUBLICACIONES_ABIERTAS_PERFIL"><path d="M688.78,683.4369 C610.22,691.9269 516.42,695.9469 485,672.2969 C454.07,649.0169 434.5395,538.4321 426.8295,486.4021" fill="none" id="MIS_PUBLICACIONES_ABIERTAS-to-PERFIL" style="stroke:#181818;stroke-width:1;"/><polygon fill="#181818" points="425.95,480.4669,423.3125,489.956,426.6829,485.4129,431.226,488.7833,425.95,480.4669" style="stroke:#181818;stroke-width:1;"/><text fill="#000000" font-family="sans-serif" font-size="13" lengthAdjust="spacing" textLength="95.9258" x="524.5" y="668.3638">volverAlPerfil()</text></g><!--link PERFIL to PUBLICACIONES_ABIERTAS--><g class="link" data-entity-1="PERFIL" data-entity-2="PUBLICACIONES_ABIERTAS" data-source-line="15" data-uid="lnk20" id="link_PERFIL_PUBLICACIONES_ABIERTAS"><path d="M425.34,480.5169 C432.41,538.8469 452.59,680.6469 485,714.2969 C500.71,730.6069 610.5032,759.2072 699.0832,780.2972" fill="none" id="PERFIL-to-PUBLICACIONES_ABIERTAS" style="stroke:#181818;stroke-width:1;"/><polygon fill="#181818" points="704.92,781.6869,697.0912,775.7111,700.056,780.5288,695.2383,783.4936,704.92,781.6869" style="stroke:#181818;stroke-width:1;"/><text fill="#000000" font-family="sans-serif" font-size="13" lengthAdjust="spacing" textLength="129.0542" x="507.5" y="710.3638">abrirPublicaciones()</text></g><!--link PUBLICACIONES_ABIERTAS to PERFIL--><g class="link" data-entity-1="PUBLICACIONES_ABIERTAS" data-entity-2="PERFIL" data-source-line="53" data-uid="lnk49" id="link_PUBLICACIONES_ABIERTAS_PERFIL"><path d="M716.54,830.3369 C644.96,843.8469 547.58,848.2169 485,794.2969 C437.45,753.3269 426.0807,557.9128 423.4507,486.4728" fill="none" id="PUBLICACIONES_ABIERTAS-to-PERFIL" style="stroke:#181818;stroke-width:1;"/><polygon fill="#181818" points="423.23,480.4769,419.5638,489.6179,423.4139,485.4735,427.5584,489.3236,423.23,480.4769" style="stroke:#181818;stroke-width:1;"/><text fill="#000000" font-family="sans-serif" font-size="13" lengthAdjust="spacing" textLength="95.9258" x="524.5" y="790.3638">volverAlPerfil()</text></g><!--link PUBLICACIONES_ABIERTAS to PUBLICACION_ABIERTA--><g class="link" data-entity-1="PUBLICACIONES_ABIERTAS" data-entity-2="PUBLICACION_ABIERTA" data-source-line="18" data-uid="lnk22" id="link_PUBLICACIONES_ABIERTAS_PUBLICACION_ABIERTA"><path d="M845.31,830.3369 C874.38,849.6169 917.74,874.6969 960,885.2969 C1025.37,901.6869 1095.6776,898.6613 1153.5076,891.3313" fill="none" id="PUBLICACIONES_ABIERTAS-to-PUBLICACION_ABIERTA" style="stroke:#181818;stroke-width:1;"/><polygon fill="#181818" points="1159.46,890.5769,1150.0285,887.7403,1154.4997,891.2056,1151.0344,895.6768,1159.46,890.5769" style="stroke:#181818;stroke-width:1;"/><text fill="#000000" font-family="sans-serif" font-size="13" lengthAdjust="spacing" textLength="114.2832" x="982" y="881.3638">abrirPublicacion()</text></g><!--link PUBLICACION_ABIERTA to PUBLICACIONES_ABIERTAS--><g class="link" data-entity-1="PUBLICACION_ABIERTA" data-entity-2="PUBLICACIONES_ABIERTAS" data-source-line="20" data-uid="lnk24" id="link_PUBLICACION_ABIERTA_PUBLICACIONES_ABIERTAS"><path d="M1159.46,860.1469 C1088.27,848.9569 994.7173,834.2482 920.1873,822.5382" fill="none" id="PUBLICACION_ABIERTA-to-PUBLICACIONES_ABIERTAS" style="stroke:#181818;stroke-width:1;"/><polygon fill="#181818" points="914.26,821.6069,922.5301,826.9553,919.1994,822.3829,923.7718,819.0523,914.26,821.6069" style="stroke:#181818;stroke-width:1;"/><text fill="#000000" font-family="sans-serif" font-size="13" lengthAdjust="spacing" textLength="147.7227" x="965.5" y="825.3638">volverAPublicaciones()</text></g><!--link PUBLICACION_ABIERTA to PUBLICACION_ABIERTA--><g class="link" data-entity-1="PUBLICACION_ABIERTA" data-entity-2="PUBLICACION_ABIERTA" data-source-line="19" data-uid="lnk23" id="link_PUBLICACION_ABIERTA_PUBLICACION_ABIERTA"><path d="M1214.97,849.0169 C1204.2,831.5269 1216.05,814.2969 1250.5,814.2969 C1284.95,814.2969 1299.9461,826.4178 1289.1761,843.9078" fill="none" id="PUBLICACION_ABIERTA-to-PUBLICACION_ABIERTA" style="stroke:#181818;stroke-width:1;"/><polygon fill="#181818" points="1286.03,849.0169,1294.1551,843.4507,1288.6517,844.7593,1287.343,839.2559,1286.03,849.0169" style="stroke:#181818;stroke-width:1;"/><text fill="#000000" font-family="sans-serif" font-size="13" lengthAdjust="spacing" textLength="149.9189" x="1176" y="805.3638">responderPublicacion()</text></g><!--link MIS_PUBLICACIONES_ABIERTAS to MI_PUBLICACION_ABIERTA--><g class="link" data-entity-1="MIS_PUBLICACIONES_ABIERTAS" data-entity-2="MI_PUBLICACION_ABIERTA" data-source-line="22" data-uid="lnk26" id="link_MIS_PUBLICACIONES_ABIERTAS_MI_PUBLICACION_ABIERTA"><path d="M930.1,670.2569 C987.41,673.8069 1056.75,680.5469 1118,693.2969 C1140.15,697.9069 1158.0949,703.1193 1179.1049,710.3293" fill="none" id="MIS_PUBLICACIONES_ABIERTAS-to-MI_PUBLICACION_ABIERTA" style="stroke:#181818;stroke-width:1;"/><polygon fill="#181818" points="1184.78,712.2769,1177.5657,705.5722,1180.0507,710.6539,1174.9689,713.139,1184.78,712.2769" style="stroke:#181818;stroke-width:1;"/><text fill="#000000" font-family="sans-serif" font-size="13" lengthAdjust="spacing" textLength="129.1113" x="974.5" y="668.3638">abrirMiPublicacion()</text></g><!--link MIS_PUBLICACIONES_ABIERTAS to MI_PUBLICACION_ABIERTA--><g class="link" data-entity-1="MIS_PUBLICACIONES_ABIERTAS" data-entity-2="MI_PUBLICACION_ABIERTA" data-source-line="23" data-uid="lnk27" id="link_MIS_PUBLICACIONES_ABIERTAS_MI_PUBLICACION_ABIERTA"><path d="M870.56,691.3369 C897.45,701.4569 929.84,712.1769 960,718.2969 C1021.58,730.7869 1085.8927,735.4377 1141.8027,737.1077" fill="none" id="MIS_PUBLICACIONES_ABIERTAS-to-MI_PUBLICACION_ABIERTA-1" style="stroke:#181818;stroke-width:1;"/><polygon fill="#181818" points="1147.8,737.2869,1138.9234,733.02,1142.8022,737.1376,1138.6846,741.0164,1147.8,737.2869" style="stroke:#181818;stroke-width:1;"/><text fill="#000000" font-family="sans-serif" font-size="13" lengthAdjust="spacing" textLength="117.5649" x="980.5" y="714.3638">crearPublicacion()</text></g><!--link MI_PUBLICACION_ABIERTA to MIS_PUBLICACIONES_ABIERTAS--><g class="link" data-entity-1="MI_PUBLICACION_ABIERTA" data-entity-2="MIS_PUBLICACIONES_ABIERTAS" data-source-line="25" data-uid="lnk29" id="link_MI_PUBLICACION_ABIERTA_MIS_PUBLICACIONES_ABIERTAS"><path d="M1150.59,762.3269 C1093.82,772.4669 1021.77,778.1069 960,760.2969 C913.6,746.9269 872.3735,718.202 843.9235,695.172" fill="none" id="MI_PUBLICACION_ABIERTA-to-MIS_PUBLICACIONES_ABIERTAS" style="stroke:#181818;stroke-width:1;"/><polygon fill="#181818" points="839.26,691.3969,843.7386,700.1685,843.1463,694.5428,848.772,693.9505,839.26,691.3969" style="stroke:#181818;stroke-width:1;"/><text fill="#000000" font-family="sans-serif" font-size="13" lengthAdjust="spacing" textLength="136.811" x="971" y="756.3638">eliminarPublicacion()</text></g><!--link MI_PUBLICACION_ABIERTA to MI_PUBLICACION_ABIERTA--><g class="link" data-entity-1="MI_PUBLICACION_ABIERTA" data-entity-2="MI_PUBLICACION_ABIERTA" data-source-line="24" data-uid="lnk28" id="link_MI_PUBLICACION_ABIERTA_MI_PUBLICACION_ABIERTA"><path d="M1214.97,712.0169 C1204.2,694.5269 1216.05,677.2969 1250.5,677.2969 C1284.95,677.2969 1299.9461,689.4178 1289.1761,706.9078" fill="none" id="MI_PUBLICACION_ABIERTA-to-MI_PUBLICACION_ABIERTA" style="stroke:#181818;stroke-width:1;"/><polygon fill="#181818" points="1286.03,712.0169,1294.1551,706.4507,1288.6517,707.7593,1287.343,702.2559,1286.03,712.0169" style="stroke:#181818;stroke-width:1;"/><text fill="#000000" font-family="sans-serif" font-size="13" lengthAdjust="spacing" textLength="147.5386" x="1177" y="668.3638">actualizarPublicacion()</text></g><!--link OPCIONES_PERFIL_ABIERTO to OPCIONES_PERFIL_ABIERTO--><g class="link" data-entity-1="OPCIONES_PERFIL_ABIERTO" data-entity-2="OPCIONES_PERFIL_ABIERTO" data-source-line="28" data-uid="lnk30" id="link_OPCIONES_PERFIL_ABIERTO_OPCIONES_PERFIL_ABIERTO"><path d="M770.92,105.0169 C759.24,87.5269 772.09,70.2969 809.5,70.2969 C846.91,70.2969 863.0922,82.5372 851.4122,100.0272" fill="none" id="OPCIONES_PERFIL_ABIERTO-to-OPCIONES_PERFIL_ABIERTO" style="stroke:#181818;stroke-width:1;"/><polygon fill="#181818" points="848.08,105.0169,856.4047,99.7538,850.8568,100.8588,849.7518,95.3109,848.08,105.0169" style="stroke:#181818;stroke-width:1;"/><text fill="#000000" font-family="sans-serif" font-size="13" lengthAdjust="spacing" textLength="106.9009" x="756.5" y="61.3638">actualizarPerfil()</text></g><!--link MI_CARGA_TRABAJO to MI_CARGA_TRABAJO--><g class="link" data-entity-1="MI_CARGA_TRABAJO" data-entity-2="MI_CARGA_TRABAJO" data-source-line="31" data-uid="lnk32" id="link_MI_CARGA_TRABAJO_MI_CARGA_TRABAJO"><path d="M770.92,253.0169 C759.24,235.5269 772.09,218.2969 809.5,218.2969 C846.91,218.2969 863.0922,230.5372 851.4122,248.0272" fill="none" id="MI_CARGA_TRABAJO-to-MI_CARGA_TRABAJO" style="stroke:#181818;stroke-width:1;"/><polygon fill="#181818" points="848.08,253.0169,856.4047,247.7538,850.8568,248.8588,849.7518,243.3109,848.08,253.0169" style="stroke:#181818;stroke-width:1;"/><text fill="#000000" font-family="sans-serif" font-size="13" lengthAdjust="spacing" textLength="333.3281" x="643" y="209.3638">solicitarCompensacion() ' Genera una Recompensa</text></g><!--link PROYECTOS_ABIERTOS to PROYECTO_ABIERTO--><g class="link" data-entity-1="PROYECTOS_ABIERTOS" data-entity-2="PROYECTO_ABIERTO" data-source-line="35" data-uid="lnk35" id="link_PROYECTOS_ABIERTOS_PROYECTO_ABIERTO"><path d="M900.61,359.0469 C920.19,357.7569 940.78,356.4369 960,355.2969 C1030.34,351.1269 1104.3272,347.3211 1162.3772,344.4711" fill="none" id="PROYECTOS_ABIERTOS-to-PROYECTO_ABIERTO" style="stroke:#181818;stroke-width:1;"/><polygon fill="#181818" points="1168.37,344.1769,1159.1847,340.623,1163.376,344.4221,1159.577,348.6134,1168.37,344.1769" style="stroke:#181818;stroke-width:1;"/><text fill="#000000" font-family="sans-serif" font-size="13" lengthAdjust="spacing" textLength="97.6904" x="990.5" y="342.3638">abrirProyecto()</text></g><!--link PROYECTO_ABIERTO to PROYECTOS_ABIERTOS--><g class="link" data-entity-1="PROYECTO_ABIERTO" data-entity-2="PROYECTOS_ABIERTOS" data-source-line="37" data-uid="lnk37" id="link_PROYECTO_ABIERTO_PROYECTOS_ABIERTOS"><path d="M1180.77,365.3769 C1160.8,371.5169 1138.77,377.2069 1118,380.2969 C1045.44,391.0869 968.261,386.6799 906.731,379.6299" fill="none" id="PROYECTO_ABIERTO-to-PROYECTOS_ABIERTOS" style="stroke:#181818;stroke-width:1;"/><polygon fill="#181818" points="900.77,378.9469,909.2562,383.9454,905.7375,379.516,910.1668,375.9974,900.77,378.9469" style="stroke:#181818;stroke-width:1;"/><text fill="#000000" font-family="sans-serif" font-size="13" lengthAdjust="spacing" textLength="144.7329" x="967" y="376.3638">volverAMisProyectos()</text></g><!--link PROYECTO_ABIERTO to PROYECTO_ABIERTO--><g class="link" data-entity-1="PROYECTO_ABIERTO" data-entity-2="PROYECTO_ABIERTO" data-source-line="36" data-uid="lnk36" id="link_PROYECTO_ABIERTO_PROYECTO_ABIERTO"><path d="M1214.97,315.0169 C1204.2,297.5269 1216.05,280.2969 1250.5,280.2969 C1284.95,280.2969 1299.9461,292.4178 1289.1761,309.9078" fill="none" id="PROYECTO_ABIERTO-to-PROYECTO_ABIERTO" style="stroke:#181818;stroke-width:1;"/><polygon fill="#181818" points="1286.03,315.0169,1294.1551,309.4507,1288.6517,310.7593,1287.343,305.2559,1286.03,315.0169" style="stroke:#181818;stroke-width:1;"/><text fill="#000000" font-family="sans-serif" font-size="13" lengthAdjust="spacing" textLength="260.8315" x="1120.5" y="271.3638">subirEntregable() ' Afecta a Entregables</text></g><!--link CONVOCATORIAS_ABIERTAS to CONVOCATORIA_ABIERTA--><g class="link" data-entity-1="CONVOCATORIAS_ABIERTAS" data-entity-2="CONVOCATORIA_ABIERTA" data-source-line="40" data-uid="lnk39" id="link_CONVOCATORIAS_ABIERTAS_CONVOCATORIA_ABIERTA"><path d="M919.19,563.5469 C978.28,567.4669 1052.47,568.8069 1118,559.2969 C1138.03,556.3869 1153.5077,552.823 1172.9277,547.063" fill="none" id="CONVOCATORIAS_ABIERTAS-to-CONVOCATORIA_ABIERTA" style="stroke:#181818;stroke-width:1;"/><polygon fill="#181818" points="1178.68,545.3569,1168.9141,544.0812,1173.8864,546.7787,1171.189,551.751,1178.68,545.3569" style="stroke:#181818;stroke-width:1;"/><text fill="#000000" font-family="sans-serif" font-size="13" lengthAdjust="spacing" textLength="156.5205" x="961" y="555.3638">consultarConvocatoria()</text></g><!--link CONVOCATORIA_ABIERTA to CONVOCATORIAS_ABIERTAS--><g class="link" data-entity-1="CONVOCATORIA_ABIERTA" data-entity-2="CONVOCATORIAS_ABIERTAS" data-source-line="41" data-uid="lnk40" id="link_CONVOCATORIA_ABIERTA_CONVOCATORIAS_ABIERTAS"><path d="M1149.96,525.7169 C1094.1,528.9469 1023.13,533.3769 960,538.2969 C946.75,539.3269 938.8166,539.9774 925.0466,541.1974" fill="none" id="CONVOCATORIA_ABIERTA-to-CONVOCATORIAS_ABIERTAS" style="stroke:#181818;stroke-width:1;"/><polygon fill="#181818" points="919.07,541.7269,928.3879,544.917,924.0505,541.2856,927.6819,536.9482,919.07,541.7269" style="stroke:#181818;stroke-width:1;"/><text fill="#000000" font-family="sans-serif" font-size="13" lengthAdjust="spacing" textLength="152.1089" x="963" y="523.3638">volverAConvocatorias()</text></g><!--link CONVOCATORIA_ABIERTA to PROPUESTAS_ABIERTAS--><g class="link" data-entity-1="CONVOCATORIA_ABIERTA" data-entity-2="PROPUESTAS_ABIERTAS" data-source-line="42" data-uid="lnk42" id="link_CONVOCATORIA_ABIERTA_PROPUESTAS_ABIERTAS"><path d="M1351.29,516.2969 C1446.46,512.4869 1582.7148,507.0271 1675.8048,503.2971" fill="none" id="CONVOCATORIA_ABIERTA-to-PROPUESTAS_ABIERTAS" style="stroke:#181818;stroke-width:1;"/><polygon fill="#181818" points="1681.8,503.0569,1672.6471,499.4204,1676.804,503.2571,1672.9674,507.414,1681.8,503.0569" style="stroke:#181818;stroke-width:1;"/><text fill="#000000" font-family="sans-serif" font-size="13" lengthAdjust="spacing" textLength="267.0396" x="1384" y="500.3638">crearPropuesta() ' Genera una Propuesta</text></g><!--link PROPUESTAS_ABIERTAS to PROPUESTA_ABIERTA--><g class="link" data-entity-1="PROPUESTAS_ABIERTAS" data-entity-2="PROPUESTA_ABIERTA" data-source-line="45" data-uid="lnk44" id="link_PROPUESTAS_ABIERTAS_PROPUESTA_ABIERTA"><path d="M1871.31,506.6869 C1929.77,511.2969 1998.3785,516.7057 2054.9985,521.1657" fill="none" id="PROPUESTAS_ABIERTAS-to-PROPUESTA_ABIERTA" style="stroke:#181818;stroke-width:1;"/><polygon fill="#181818" points="2060.98,521.6369,2052.3219,516.9425,2055.9954,521.2442,2051.6937,524.9178,2060.98,521.6369" style="stroke:#181818;stroke-width:1;"/><text fill="#000000" font-family="sans-serif" font-size="13" lengthAdjust="spacing" textLength="106.1265" x="1913" y="505.3638">abrirPropuesta()</text></g><!--link PROPUESTAS_ABIERTAS to PROPUESTA_ABIERTA--><g class="link" data-entity-1="PROPUESTAS_ABIERTAS" data-entity-2="PROPUESTA_ABIERTA" data-source-line="46" data-uid="lnk45" id="link_PROPUESTAS_ABIERTAS_PROPUESTA_ABIERTA"><path d="M1834.82,524.3169 C1855.3,532.0069 1878.8,539.4569 1901,543.2969 C1953.7,552.4069 2007.6658,549.6866 2054.9958,543.8066" fill="none" id="PROPUESTAS_ABIERTAS-to-PROPUESTA_ABIERTA-1" style="stroke:#181818;stroke-width:1;"/><polygon fill="#181818" points="2060.95,543.0669,2051.5255,540.207,2055.9881,543.6833,2052.5118,548.1459,2060.95,543.0669" style="stroke:#181818;stroke-width:1;"/><text fill="#000000" font-family="sans-serif" font-size="13" lengthAdjust="spacing" textLength="109.4082" x="1911.5" y="539.3638">crearPropuesta()</text></g><!--link PROPUESTA_ABIERTA to PROPUESTAS_ABIERTAS--><g class="link" data-entity-1="PROPUESTA_ABIERTA" data-entity-2="PROPUESTAS_ABIERTAS" data-source-line="49" data-uid="lnk47" id="link_PROPUESTA_ABIERTA_PROPUESTAS_ABIERTAS"><path d="M2092.52,503.2869 C2073.55,495.5969 2051.73,488.1469 2031,484.2969 C1978.66,474.5869 1925.249,476.677 1877.139,482.327" fill="none" id="PROPUESTA_ABIERTA-to-PROPUESTAS_ABIERTAS" style="stroke:#181818;stroke-width:1;"/><polygon fill="#181818" points="1871.18,483.0269,1880.5851,485.9498,1876.1459,482.4437,1879.652,478.0044,1871.18,483.0269" style="stroke:#181818;stroke-width:1;"/><text fill="#000000" font-family="sans-serif" font-size="13" lengthAdjust="spacing" textLength="128.6543" x="1902" y="473.3638">eliminarPropuesta()</text></g><!--link PROPUESTA_ABIERTA to PROPUESTA_ABIERTA--><g class="link" data-entity-1="PROPUESTA_ABIERTA" data-entity-2="PROPUESTA_ABIERTA" data-source-line="48" data-uid="lnk46" id="link_PROPUESTA_ABIERTA_PROPUESTA_ABIERTA"><path d="M2116.05,503.0169 C2106.82,485.5269 2116.97,468.2969 2146.5,468.2969 C2176.03,468.2969 2188.9804,480.2205 2179.7504,497.7105" fill="none" id="PROPUESTA_ABIERTA-to-PROPUESTA_ABIERTA" style="stroke:#181818;stroke-width:1;"/><polygon fill="#181818" points="2176.95,503.0169,2184.6881,496.9242,2179.2836,498.5949,2177.6129,493.1904,2176.95,503.0169" style="stroke:#181818;stroke-width:1;"/><text fill="#000000" font-family="sans-serif" font-size="13" lengthAdjust="spacing" textLength="139.3818" x="2077" y="459.3638">actualizarPropuesta()</text></g><!--link PROPUESTA_ABIERTA to CONVOCATORIAS_ABIERTAS--><g class="link" data-entity-1="PROPUESTA_ABIERTA" data-entity-2="CONVOCATORIAS_ABIERTAS" data-source-line="50" data-uid="lnk48" id="link_PROPUESTA_ABIERTA_CONVOCATORIAS_ABIERTAS"><path d="M2060.86,551.1969 C2050.85,553.2469 2040.74,555.0269 2031,556.2969 C1628.56,608.8169 1523.84,570.2969 1118,574.2969 C1047.78,574.9869 1030.03,579.4269 960,574.2969 C946.79,573.3269 938.9247,572.623 925.2547,570.933" fill="none" id="PROPUESTA_ABIERTA-to-CONVOCATORIAS_ABIERTAS" style="stroke:#181818;stroke-width:1;"/><polygon fill="#181818" points="919.3,570.1969,927.7412,575.2709,924.2622,570.8103,928.7228,567.3313,919.3,570.1969" style="stroke:#181818;stroke-width:1;"/><text fill="#000000" font-family="sans-serif" font-size="13" lengthAdjust="spacing" textLength="152.1089" x="1441.5" y="573.3638">volverAConvocatorias()</text></g><!--link PROPUESTAS_ABIERTAS to PERFIL--><g class="link" data-entity-1="PROPUESTAS_ABIERTAS" data-entity-2="PERFIL" data-source-line="57" data-uid="lnk53" id="link_PROPUESTAS_ABIERTAS_PERFIL"><path d="M1681.95,482.7269 C1671.86,481.3669 1661.73,480.1769 1652,479.2969 C1178.36,436.5369 604.1074,449.8391 461.3674,454.0691" fill="none" id="PROPUESTAS_ABIERTAS-to-PERFIL" style="stroke:#181818;stroke-width:1;"/><polygon fill="#181818" points="455.37,454.2469,464.4845,457.9785,460.3678,454.0988,464.2476,449.982,455.37,454.2469" style="stroke:#181818;stroke-width:1;"/><text fill="#000000" font-family="sans-serif" font-size="13" lengthAdjust="spacing" textLength="95.9258" x="991.5" y="445.3638">volverAlPerfil()</text></g><!--SRC=[dLN1Zfim4Btp5RxjRgLLxprKSWXTKMqM1DbALRL23d6eAs97OuYQ_bO_eJ_MWK0IZ4sQtX8yxysymUzHYQhaP2vO0MpBo9gJNCcA_wmK_Yv9AFTSLw9WQmNlvohdUEPv9TzK12j05DyhiXR0yqeewNdVthsHnyUF90tIC7h9_219w9nwmx-M2l81kqbUC0Ybo8LAkKQ- -mSRCWwIJ-4p8aHJok1KwtKdLlgS0rpKNfH6iO-bGPeTdsLq5WR9Ca8CMu60Q8VpIAvZ3XjH3g6BCFDfyaIpPK9dz7E3mUtfkgmOB8JFe61BO2lsGmrnSH9z3VnbbFRDqY5Inw0Ek5EbXpW_UlaI-NGP9I7jiNI0zPNSgvnL2WJJvh0eyNNs7Fgq4tn1q4fj6jUhKkJiADaOUX9h0hqx13sIf-Rs_FajcuirA6bEFGUbqQq_iBHg9hGKkWc0wvsIQtuxoL3pNfLx3dIaUcB9tOMP4BOGmwd-bom7pi2aobmQtJFbLSrAyUicheaxnakn5T9airsKrchaG5e7DKyw5xMNnkNNAru-Y-cDF4Lq2fdkHPSdb3SolIC9j4ALelNaTiUbxWIJEzGgEJ1IIqOIddUdTjw9EInxwrE3t6DpHKhyKsEZ0z6yg77vcDxguUYySG9T1fCPWZrpOnMpn87JzKf082l0L5-Ll1LEDqZ222FdvtgQS92GtGwCVBGiOf22hLv7SfgXUcaYMwHYEslvP3XtOvlHx2H2xV5ha2wDY6zD3MfNer1ctgFJWUDU70zr_-v7_8E-ey0zTxq9R8xiUUCgP-EpNstT_s5XfxYvYh_rpNKhnb2IMdIVCrmpSAoGwkgNpMdfAtdl1hhSx0HCs66oY_tLkn1_0G00]--></g></svg>