<svg xmlns="http://www.w3.org/2000/svg" xmlns:xlink="http://www.w3.org/1999/xlink" contentStyleType="text/css" data-diagram-type="STATE" height="908px" preserveAspectRatio="none" style="width:2212px;height:908px;background:#FFFFFF;" version="1.1" viewBox="0 0 2212 908" width="2212px" zoomAndPan="magnify"><title>Diagrama de contexto del Investigador/Docente</title><defs/><g><g class="title" data-source-line="1"><text fill="#000000" font-family="sans-serif" font-size="14" font-weight="bold" lengthAdjust="spacing" textLength="378.9502" x="909.9014" y="22.9951">Diagrama de contexto del Investigador/Docente</text></g><ellipse cx="16" cy="455.2969" fill="#222222" rx="10" ry="10" style="stroke:#222222;stroke-width:1;"/><g id="SESION_CERRADA"><rect fill="#F1F1F1" height="50" rx="12.5" ry="12.5" style="stroke:#181818;stroke-width:0.5;" width="147.251" x="87" y="430.2969"/><line style="stroke:#181818;stroke-width:0.5;" x1="87" x2="234.251" y1="456.5938" y2="456.5938"/><text fill="#000000" font-family="sans-serif" font-size="14" lengthAdjust="spacing" textLength="127.251" x="97" y="448.292">SESION_CERRADA</text></g><g id="PERFIL"><rect fill="#F1F1F1" height="50" rx="12.5" ry="12.5" style="stroke:#181818;stroke-width:0.5;" width="66.9971" x="388" y="430.2969"/><line style="stroke:#181818;stroke-width:0.5;" x1="388" x2="454.9971" y1="456.5938" y2="456.5938"/><text fill="#000000" font-family="sans-serif" font-size="14" lengthAdjust="spacing" textLength="46.9971" x="398" y="448.292">PERFIL</text></g><g id="OPCIONES_PERFIL_ABIERTO"><rect fill="#F1F1F1" height="50" rx="12.5" ry="12.5" style="stroke:#181818;stroke-width:0.5;" width="215.043" x="680" y="105.2969"/><line style="stroke:#181818;stroke-width:0.5;" x1="680" x2="895.043" y1="131.5938" y2="131.5938"/><text fill="#000000" font-family="sans-serif" font-size="14" lengthAdjust="spacing" textLength="195.043" x="690" y="123.292">OPCIONES_PERFIL_ABIERTO</text></g><g id="MI_CARGA_TRABAJO"><rect fill="#F1F1F1" height="50" rx="12.5" ry="12.5" style="stroke:#181818;stroke-width:0.5;" width="161.9004" x="706.5" y="253.2969"/><line style="stroke:#181818;stroke-width:0.5;" x1="706.5" x2="868.4004" y1="279.5938" y2="279.5938"/><text fill="#000000" font-family="sans-serif" font-size="14" lengthAdjust="spacing" textLength="141.9004" x="716.5" y="271.292">MI_CARGA_TRABAJO</text></g><g id="PROYECTOS_ABIERTOS"><rect fill="#F1F1F1" height="50" rx="12.5" ry="12.5" style="stroke:#181818;stroke-width:0.5;" width="182.1621" x="696.5" y="340.2969"/><line style="stroke:#181818;stroke-width:0.5;" x1="696.5" x2="878.6621" y1="366.5938" y2="366.5938"/><text fill="#000000" font-family="sans-serif" font-size="14" lengthAdjust="spacing" textLength="162.1621" x="706.5" y="358.292">PROYECTOS_ABIERTOS</text></g><g id="CONVOCATORIAS_ABIERTAS"><rect fill="#F1F1F1" height="50" rx="12.5" ry="12.5" style="stroke:#181818;stroke-width:0.5;" width="219.0078" x="678" y="527.2969"/><line style="stroke:#181818;stroke-width:0.5;" x1="678" x2="897.0078" y1="553.5938" y2="553.5938"/><text fill="#000000" font-family="sans-serif" font-size="14" lengthAdjust="spacing" textLength="199.0078" x="688" y="545.292">CONVOCATORIAS_ABIERTAS</text></g><g id="MIS_PUBLICACIONES_ABIERTAS"><rect fill="#F1F1F1" height="50" rx="12.5" ry="12.5" style="stroke:#181818;stroke-width:0.5;" width="240.6982" x="667" y="641.2969"/><line style="stroke:#181818;stroke-width:0.5;" x1="667" x2="907.6982" y1="667.5938" y2="667.5938"/><text fill="#000000" font-family="sans-serif" font-size="14" lengthAdjust="spacing" textLength="220.6982" x="677" y="659.292">MIS_PUBLICACIONES_ABIERTAS</text></g><g id="PUBLICACIONES_ABIERTAS"><rect fill="#F1F1F1" height="50" rx="12.5" ry="12.5" style="stroke:#181818;stroke-width:0.5;" width="208.6035" x="683" y="780.2969"/><line style="stroke:#181818;stroke-width:0.5;" x1="683" x2="891.6035" y1="806.5938" y2="806.5938"/><text fill="#000000" font-family="sans-serif" font-size="14" lengthAdjust="spacing" textLength="188.6035" x="693" y="798.292">PUBLICACIONES_ABIERTAS</text></g><g id="PUBLICACION_ABIERTA"><rect fill="#F1F1F1" height="50" rx="12.5" ry="12.5" style="stroke:#181818;stroke-width:0.5;" width="181.9844" x="1133.5" y="849.2969"/><line style="stroke:#181818;stroke-width:0.5;" x1="1133.5" x2="1315.4844" y1="875.5938" y2="875.5938"/><text fill="#000000" font-family="sans-serif" font-size="14" lengthAdjust="spacing" textLength="161.9844" x="1143.5" y="867.292">PUBLICACION_ABIERTA</text></g><g id="MI_PUBLICACION_ABIERTA"><rect fill="#F1F1F1" height="50" rx="12.5" ry="12.5" style="stroke:#181818;stroke-width:0.5;" width="205.1924" x="1122" y="712.2969"/><line style="stroke:#181818;stroke-width:0.5;" x1="1122" x2="1327.1924" y1="738.5938" y2="738.5938"/><text fill="#000000" font-family="sans-serif" font-size="14" lengthAdjust="spacing" textLength="185.1924" x="1132" y="730.292">MI_PUBLICACION_ABIERTA</text></g><g id="PROYECTO_ABIERTO"><rect fill="#F1F1F1" height="50" rx="12.5" ry="12.5" style="stroke:#181818;stroke-width:0.5;" width="164.3887" x="1142.5" y="315.2969"/><line style="stroke:#181818;stroke-width:0.5;" x1="1142.5" x2="1306.8887" y1="341.5938" y2="341.5938"/><text fill="#000000" font-family="sans-serif" font-size="14" lengthAdjust="spacing" textLength="144.3887" x="1152.5" y="333.292">PROYECTO_ABIERTO</text></g><g id="CONVOCATORIA_ABIERTA"><rect fill="#F1F1F1" height="50" rx="12.5" ry="12.5" style="stroke:#181818;stroke-width:0.5;" width="201.2344" x="1124" y="495.2969"/><line style="stroke:#181818;stroke-width:0.5;" x1="1124" x2="1325.2344" y1="521.5938" y2="521.5938"/><text fill="#000000" font-family="sans-serif" font-size="14" lengthAdjust="spacing" textLength="181.2344" x="1134" y="513.292">CONVOCATORIA_ABIERTA</text></g><g id="PROPUESTAS_ABIERTAS"><rect fill="#F1F1F1" height="50" rx="12.5" ry="12.5" style="stroke:#181818;stroke-width:0.5;" width="188.5264" x="1656" y="474.2969"/><line style="stroke:#181818;stroke-width:0.5;" x1="1656" x2="1844.5264" y1="500.5938" y2="500.5938"/><text fill="#000000" font-family="sans-serif" font-size="14" lengthAdjust="spacing" textLength="168.5264" x="1666" y="492.292">PROPUESTAS_ABIERTAS</text></g><g id="PROPUESTA_ABIERTA"><rect fill="#F1F1F1" height="50" rx="12.5" ry="12.5" style="stroke:#181818;stroke-width:0.5;" width="170.7529" x="2035" y="503.2969"/><line style="stroke:#181818;stroke-width:0.5;" x1="2035" x2="2205.7529" y1="529.5938" y2="529.5938"/><text fill="#000000" font-family="sans-serif" font-size="14" lengthAdjust="spacing" textLength="150.7529" x="2045" y="521.292">PROPUESTA_ABIERTA</text></g><!--link *start* to SESION_CERRADA--><g class="link" data-entity-1=".start." data-entity-2="SESION_CERRADA" data-source-line="5" data-uid="lnk4" id="link_.start._SESION_CERRADA"><path d="M26.35,455.2969 C39.04,455.2969 56.92,455.2969 80.98,455.2969" fill="none" id="*start*-to-SESION_CERRADA" style="stroke:#181818;stroke-width:1;"/><polygon fill="#181818" points="86.98,455.2969,77.98,451.2969,81.98,455.2969,77.98,459.2969,86.98,455.2969" style="stroke:#181818;stroke-width:1;"/></g><!--link SESION_CERRADA to SESION_CERRADA--><g class="link" data-entity-1="SESION_CERRADA" data-entity-2="SESION_CERRADA" data-source-line="6" data-uid="lnk5" id="link_SESION_CERRADA_SESION_CERRADA"><path d="M142.9,430.0169 C137.57,412.5269 143.44,395.2969 160.5,395.2969 C177.56,395.2969 185.1791,406.7875 179.8491,424.2775" fill="none" id="SESION_CERRADA-to-SESION_CERRADA" style="stroke:#181818;stroke-width:1;"/><polygon fill="#181818" points="178.1,430.0169,184.5499,422.5738,179.5575,425.234,176.8973,420.2417,178.1,430.0169" style="stroke:#181818;stroke-width:1;"/><text fill="#000000" font-family="sans-serif" font-size="13" lengthAdjust="spacing" textLength="141.4194" x="90" y="386.3638">denegarInicioSesion()</text></g><!--link SESION_CERRADA to PERFIL--><g class="link" data-entity-1="SESION_CERRADA" data-entity-2="PERFIL" data-source-line="7" data-uid="lnk7" id="link_SESION_CERRADA_PERFIL"><path d="M234.34,455.2969 C284.76,455.2969 343.46,455.2969 381.79,455.2969" fill="none" id="SESION_CERRADA-to-PERFIL" style="stroke:#181818;stroke-width:1;"/><polygon fill="#181818" points="387.79,455.2969,378.79,451.2969,382.79,455.2969,378.79,459.2969,387.79,455.2969" style="stroke:#181818;stroke-width:1;"/><text fill="#000000" font-family="sans-serif" font-size="13" lengthAdjust="spacing" textLength="92.5044" x="265" y="451.3638">iniciarSesion()</text></g><!--link PERFIL to SESION_CERRADA--><g class="link" data-entity-1="PERFIL" data-entity-2="SESION_CERRADA" data-source-line="9" data-uid="lnk8" id="link_PERFIL_SESION_CERRADA"><path d="M387.8,471.0869 C378.4,474.8669 367.98,478.3769 358,480.2969 C317.31,488.1369 277.2693,484.2545 240.0593,476.6745" fill="none" id="PERFIL-to-SESION_CERRADA" style="stroke:#181818;stroke-width:1;"/><polygon fill="#181818" points="234.18,475.4769,242.2004,481.1929,239.0794,476.4749,243.7973,473.3539,234.18,475.4769" style="stroke:#181818;stroke-width:1;"/><text fill="#000000" font-family="sans-serif" font-size="13" lengthAdjust="spacing" textLength="92.1172" x="265" y="476.3638">cerrarSesion()</text></g><!--link PERFIL to OPCIONES_PERFIL_ABIERTO--><g class="link" data-entity-1="PERFIL" data-entity-2="OPCIONES_PERFIL_ABIERTO" data-source-line="10" data-uid="lnk10" id="link_PERFIL_OPCIONES_PERFIL_ABIERTO"><path d="M425.58,429.8869 C432.96,373.2969 453.41,239.4169 485,208.2969 C534.46,159.5869 569.79,189.6869 637,172.2969 C657.36,167.0269 673.4118,162.6932 693.9318,156.9532" fill="none" id="PERFIL-to-OPCIONES_PERFIL_ABIERTO" style="stroke:#181818;stroke-width:1;"/><polygon fill="#181818" points="699.71,155.3369,689.9652,153.9092,694.8948,156.6838,692.1203,161.6135,699.71,155.3369" style="stroke:#181818;stroke-width:1;"/><text fill="#000000" font-family="sans-serif" font-size="13" lengthAdjust="spacing" textLength="133.853" x="494.5" y="168.3638">abrirOpcionesPerfil()</text></g><!--link OPCIONES_PERFIL_ABIERTO to PERFIL--><g class="link" data-entity-1="OPCIONES_PERFIL_ABIERTO" data-entity-2="PERFIL" data-source-line="29" data-uid="lnk31" id="link_OPCIONES_PERFIL_ABIERTO_PERFIL"><path d="M679.87,108.2469 C615.95,101.5169 537.23,105.6069 485,151.2969 C443.03,188.0169 428.4497,358.1289 424.2597,424.1989" fill="none" id="OPCIONES_PERFIL_ABIERTO-to-PERFIL" style="stroke:#181818;stroke-width:1;"/><polygon fill="#181818" points="423.88,430.1869,428.4416,421.4581,424.1965,425.1969,420.4576,420.9518,423.88,430.1869" style="stroke:#181818;stroke-width:1;"/><text fill="#000000" font-family="sans-serif" font-size="13" lengthAdjust="spacing" textLength="95.9258" x="513.5" y="102.3638">volverAlPerfil()</text></g><!--link PERFIL to MI_CARGA_TRABAJO--><g class="link" data-entity-1="PERFIL" data-entity-2="MI_CARGA_TRABAJO" data-source-line="11" data-uid="lnk12" id="link_PERFIL_MI_CARGA_TRABAJO"><path d="M427.02,430.1169 C433.9,399.6469 450.08,349.2069 485,323.2969 C519.11,297.9869 622.9719,287.1053 700.1819,282.2253" fill="none" id="PERFIL-to-MI_CARGA_TRABAJO" style="stroke:#181818;stroke-width:1;"/><polygon fill="#181818" points="706.17,281.8469,696.9356,278.4225,701.18,282.1623,697.4402,286.4066,706.17,281.8469" style="stroke:#181818;stroke-width:1;"/><text fill="#000000" font-family="sans-serif" font-size="13" lengthAdjust="spacing" textLength="133.6499" x="494.5" y="283.3638">verMiCargaTrabajo()</text></g><!--link MI_CARGA_TRABAJO to PERFIL--><g class="link" data-entity-1="MI_CARGA_TRABAJO" data-entity-2="PERFIL" data-source-line="32" data-uid="lnk33" id="link_MI_CARGA_TRABAJO_PERFIL"><path d="M719.13,253.2669 C653.07,233.4069 552.7,216.2969 485,265.2969 C432.26,303.4669 423.3988,381.6487 422.3488,423.9687" fill="none" id="MI_CARGA_TRABAJO-to-PERFIL" style="stroke:#181818;stroke-width:1;"/><polygon fill="#181818" points="422.2,429.9669,426.422,421.0689,422.324,424.9684,418.4245,420.8704,422.2,429.9669" style="stroke:#181818;stroke-width:1;"/><text fill="#000000" font-family="sans-serif" font-size="13" lengthAdjust="spacing" textLength="95.9258" x="513.5" y="229.3638">volverAlPerfil()</text></g><!--link PERFIL to PROYECTOS_ABIERTOS--><g class="link" data-entity-1="PERFIL" data-entity-2="PROYECTOS_ABIERTOS" data-source-line="12" data-uid="lnk14" id="link_PERFIL_PROYECTOS_ABIERTOS"><path d="M455.15,444.9469 C464.73,442.0169 475.25,438.9269 485,436.2969 C490.25,434.8869 603.3888,408.2781 690.2888,387.8781" fill="none" id="PERFIL-to-PROYECTOS_ABIERTOS" style="stroke:#181818;stroke-width:1;"/><polygon fill="#181818" points="696.13,386.5069,686.454,384.6696,691.2623,387.6496,688.2823,392.4579,696.13,386.5069" style="stroke:#181818;stroke-width:1;"/><text fill="#000000" font-family="sans-serif" font-size="13" lengthAdjust="spacing" textLength="116.5811" x="503" y="397.3638">verMisProyectos()</text></g><!--link PROYECTOS_ABIERTOS to PERFIL--><g class="link" data-entity-1="PROYECTOS_ABIERTOS" data-entity-2="PERFIL" data-source-line="55" data-uid="lnk51" id="link_PROYECTOS_ABIERTOS_PERFIL"><path d="M696.28,350.9769 C633.71,345.3369 550.24,346.6069 485,379.2969 C463.31,390.1669 449.5677,407.2305 438.8577,424.8405" fill="none" id="PROYECTOS_ABIERTOS-to-PERFIL" style="stroke:#181818;stroke-width:1;"/><polygon fill="#181818" points="435.74,429.9669,443.8342,424.3558,438.3381,425.6949,436.999,420.1988,435.74,429.9669" style="stroke:#181818;stroke-width:1;"/><text fill="#000000" font-family="sans-serif" font-size="13" lengthAdjust="spacing" textLength="95.9258" x="513.5" y="344.3638">volverAlPerfil()</text></g><!--link PERFIL to CONVOCATORIAS_ABIERTAS--><g class="link" data-entity-1="PERFIL" data-entity-2="CONVOCATORIAS_ABIERTAS" data-source-line="13" data-uid="lnk16" id="link_PERFIL_CONVOCATORIAS_ABIERTAS"><path d="M453.43,480.4069 C463.06,487.1369 474.04,493.7869 485,498.2969 C519.37,512.4169 600.1236,526.3453 671.7736,536.8653" fill="none" id="PERFIL-to-CONVOCATORIAS_ABIERTAS" style="stroke:#181818;stroke-width:1;"/><polygon fill="#181818" points="677.71,537.7369,669.3865,532.4719,672.763,537.0105,668.2244,540.387,677.71,537.7369" style="stroke:#181818;stroke-width:1;"/><text fill="#000000" font-family="sans-serif" font-size="13" lengthAdjust="spacing" textLength="123.957" x="499.5" y="494.3638">verConvocatorias()</text></g><!--link CONVOCATORIAS_ABIERTAS to PERFIL--><g class="link" data-entity-1="CONVOCATORIAS_ABIERTAS" data-entity-2="PERFIL" data-source-line="56" data-uid="lnk52" id="link_CONVOCATORIAS_ABIERTAS_PERFIL"><path d="M685.35,577.3069 C623.71,586.9469 545.44,588.7969 485,555.2969 C456.53,539.5169 441.4004,510.391 432.4504,486.311" fill="none" id="CONVOCATORIAS_ABIERTAS-to-PERFIL" style="stroke:#181818;stroke-width:1;"/><polygon fill="#181818" points="430.36,480.6869,429.7461,490.5166,432.102,485.3736,437.2449,487.7294,430.36,480.6869" style="stroke:#181818;stroke-width:1;"/><text fill="#000000" font-family="sans-serif" font-size="13" lengthAdjust="spacing" textLength="95.9258" x="513.5" y="551.3638">volverAlPerfil()</text></g><!--link PERFIL to MIS_PUBLICACIONES_ABIERTAS--><g class="link" data-entity-1="PERFIL" data-entity-2="MIS_PUBLICACIONES_ABIERTAS" data-source-line="14" data-uid="lnk18" id="link_PERFIL_MIS_PUBLICACIONES_ABIERTAS"><path d="M425.41,480.5269 C430.79,514.9469 445.61,576.0169 485,608.2969 C499.48,620.1669 582.9537,635.5391 660.6837,647.8391" fill="none" id="PERFIL-to-MIS_PUBLICACIONES_ABIERTAS" style="stroke:#181818;stroke-width:1;"/><polygon fill="#181818" points="666.61,648.7769,658.3458,643.4194,661.6714,647.9954,657.0954,651.3211,666.61,648.7769" style="stroke:#181818;stroke-width:1;"/><text fill="#000000" font-family="sans-serif" font-size="13" lengthAdjust="spacing" textLength="150.6553" x="486" y="604.3638">abrirMisPublicaciones()</text></g><!--link MIS_PUBLICACIONES_ABIERTAS to PERFIL--><g class="link" data-entity-1="MIS_PUBLICACIONES_ABIERTAS" data-entity-2="PERFIL" data-source-line="54" data-uid="lnk50" id="link_MIS_PUBLICACIONES_ABIERTAS_PERFIL"><path d="M706.23,691.3269 C640.25,706.6069 547.75,715.2769 485,668.2969 C454.61,645.5469 434.8924,537.6071 427.0024,486.3271" fill="none" id="MIS_PUBLICACIONES_ABIERTAS-to-PERFIL" style="stroke:#181818;stroke-width:1;"/><polygon fill="#181818" points="426.09,480.3969,423.5052,489.9005,426.8504,485.3387,431.4121,488.6839,426.09,480.3969" style="stroke:#181818;stroke-width:1;"/><text fill="#000000" font-family="sans-serif" font-size="13" lengthAdjust="spacing" textLength="95.9258" x="513.5" y="664.3638">volverAlPerfil()</text></g><!--link PERFIL to PUBLICACIONES_ABIERTAS--><g class="link" data-entity-1="PERFIL" data-entity-2="PUBLICACIONES_ABIERTAS" data-source-line="15" data-uid="lnk20" id="link_PERFIL_PUBLICACIONES_ABIERTAS"><path d="M424.95,480.5669 C431.34,541.2569 450.46,692.8769 485,728.2969 C492.21,735.6969 592.6583,760.3879 677.0183,780.1579" fill="none" id="PERFIL-to-PUBLICACIONES_ABIERTAS" style="stroke:#181818;stroke-width:1;"/><polygon fill="#181818" points="682.86,781.5269,675.0101,775.5789,677.9919,780.386,673.1847,783.3678,682.86,781.5269" style="stroke:#181818;stroke-width:1;"/><text fill="#000000" font-family="sans-serif" font-size="13" lengthAdjust="spacing" textLength="129.0542" x="496.5" y="724.3638">abrirPublicaciones()</text></g><!--link PUBLICACIONES_ABIERTAS to PERFIL--><g class="link" data-entity-1="PUBLICACIONES_ABIERTAS" data-entity-2="PERFIL" data-source-line="53" data-uid="lnk49" id="link_PUBLICACIONES_ABIERTAS_PERFIL"><path d="M689.66,830.3269 C624.25,841.0469 540.1,841.8869 485,794.2969 C437.5,753.2669 426.1025,557.8927 423.4525,486.4727" fill="none" id="PUBLICACIONES_ABIERTAS-to-PERFIL" style="stroke:#181818;stroke-width:1;"/><polygon fill="#181818" points="423.23,480.4769,419.5665,489.619,423.4154,485.4734,427.561,489.3224,423.23,480.4769" style="stroke:#181818;stroke-width:1;"/><text fill="#000000" font-family="sans-serif" font-size="13" lengthAdjust="spacing" textLength="95.9258" x="513.5" y="790.3638">volverAlPerfil()</text></g><!--link PUBLICACIONES_ABIERTAS to PUBLICACION_ABIERTA--><g class="link" data-entity-1="PUBLICACIONES_ABIERTAS" data-entity-2="PUBLICACION_ABIERTA" data-source-line="18" data-uid="lnk22" id="link_PUBLICACIONES_ABIERTAS_PUBLICACION_ABIERTA"><path d="M823.31,830.3369 C852.38,849.6169 895.74,874.6969 938,885.2969 C1001.99,901.3369 1070.597,898.4962 1127.477,891.3362" fill="none" id="PUBLICACIONES_ABIERTAS-to-PUBLICACION_ABIERTA" style="stroke:#181818;stroke-width:1;"/><polygon fill="#181818" points="1133.43,890.5869,1124.0009,887.7422,1128.4691,891.2113,1125,895.6796,1133.43,890.5869" style="stroke:#181818;stroke-width:1;"/><text fill="#000000" font-family="sans-serif" font-size="13" lengthAdjust="spacing" textLength="114.2832" x="958" y="881.3638">abrirPublicacion()</text></g><!--link PUBLICACION_ABIERTA to PUBLICACIONES_ABIERTAS--><g class="link" data-entity-1="PUBLICACION_ABIERTA" data-entity-2="PUBLICACIONES_ABIERTAS" data-source-line="20" data-uid="lnk24" id="link_PUBLICACION_ABIERTA_PUBLICACIONES_ABIERTAS"><path d="M1133.18,859.9669 C1062.98,848.8369 971.4459,834.3169 898.0659,822.6769" fill="none" id="PUBLICACION_ABIERTA-to-PUBLICACIONES_ABIERTAS" style="stroke:#181818;stroke-width:1;"/><polygon fill="#181818" points="892.14,821.7369,900.4022,827.0975,897.0783,822.5202,901.6555,819.1963,892.14,821.7369" style="stroke:#181818;stroke-width:1;"/><text fill="#000000" font-family="sans-serif" font-size="13" lengthAdjust="spacing" textLength="147.7227" x="941.5" y="825.3638">volverAPublicaciones()</text></g><!--link PUBLICACION_ABIERTA to PUBLICACION_ABIERTA--><g class="link" data-entity-1="PUBLICACION_ABIERTA" data-entity-2="PUBLICACION_ABIERTA" data-source-line="19" data-uid="lnk23" id="link_PUBLICACION_ABIERTA_PUBLICACION_ABIERTA"><path d="M1189.31,849.0169 C1178.64,831.5269 1190.38,814.2969 1224.5,814.2969 C1258.62,814.2969 1273.4848,826.4048 1262.8148,843.8948" fill="none" id="PUBLICACION_ABIERTA-to-PUBLICACION_ABIERTA" style="stroke:#181818;stroke-width:1;"/><polygon fill="#181818" points="1259.69,849.0169,1267.7919,843.417,1262.294,844.7485,1260.9625,839.2506,1259.69,849.0169" style="stroke:#181818;stroke-width:1;"/><text fill="#000000" font-family="sans-serif" font-size="13" lengthAdjust="spacing" textLength="149.9189" x="1150" y="805.3638">responderPublicacion()</text></g><!--link MIS_PUBLICACIONES_ABIERTAS to MI_PUBLICACION_ABIERTA--><g class="link" data-entity-1="MIS_PUBLICACIONES_ABIERTAS" data-entity-2="MI_PUBLICACION_ABIERTA" data-source-line="22" data-uid="lnk26" id="link_MIS_PUBLICACIONES_ABIERTAS_MI_PUBLICACION_ABIERTA"><path d="M908.36,670.4869 C964.57,674.0969 1032.19,680.8069 1092,693.2969 C1114.15,697.9169 1132.0949,703.1393 1153.1049,710.3493" fill="none" id="MIS_PUBLICACIONES_ABIERTAS-to-MI_PUBLICACION_ABIERTA" style="stroke:#181818;stroke-width:1;"/><polygon fill="#181818" points="1158.78,712.2969,1151.5657,705.5922,1154.0507,710.6739,1148.9689,713.159,1158.78,712.2969" style="stroke:#181818;stroke-width:1;"/><text fill="#000000" font-family="sans-serif" font-size="13" lengthAdjust="spacing" textLength="129.1113" x="950.5" y="668.3638">abrirMiPublicacion()</text></g><!--link MIS_PUBLICACIONES_ABIERTAS to MI_PUBLICACION_ABIERTA--><g class="link" data-entity-1="MIS_PUBLICACIONES_ABIERTAS" data-entity-2="MI_PUBLICACION_ABIERTA" data-source-line="23" data-uid="lnk27" id="link_MIS_PUBLICACIONES_ABIERTAS_MI_PUBLICACION_ABIERTA"><path d="M848.56,691.3269 C875.45,701.4469 907.84,712.1669 938,718.2969 C998.24,730.5469 1060.963,735.2079 1115.873,736.9379" fill="none" id="MIS_PUBLICACIONES_ABIERTAS-to-MI_PUBLICACION_ABIERTA-1" style="stroke:#181818;stroke-width:1;"/><polygon fill="#181818" points="1121.87,737.1269,1113.0004,732.8454,1116.8725,736.9694,1112.7485,740.8415,1121.87,737.1269" style="stroke:#181818;stroke-width:1;"/><text fill="#000000" font-family="sans-serif" font-size="13" lengthAdjust="spacing" textLength="117.5649" x="956.5" y="714.3638">crearPublicacion()</text></g><!--link MI_PUBLICACION_ABIERTA to MIS_PUBLICACIONES_ABIERTAS--><g class="link" data-entity-1="MI_PUBLICACION_ABIERTA" data-entity-2="MIS_PUBLICACIONES_ABIERTAS" data-source-line="25" data-uid="lnk29" id="link_MI_PUBLICACION_ABIERTA_MIS_PUBLICACIONES_ABIERTAS"><path d="M1124.97,762.3169 C1069.14,772.2869 998.56,777.7569 938,760.2969 C891.6,746.9269 850.3735,718.202 821.9235,695.172" fill="none" id="MI_PUBLICACION_ABIERTA-to-MIS_PUBLICACIONES_ABIERTAS" style="stroke:#181818;stroke-width:1;"/><polygon fill="#181818" points="817.26,691.3969,821.7386,700.1685,821.1463,694.5428,826.772,693.9505,817.26,691.3969" style="stroke:#181818;stroke-width:1;"/><text fill="#000000" font-family="sans-serif" font-size="13" lengthAdjust="spacing" textLength="136.811" x="947" y="756.3638">eliminarPublicacion()</text></g><!--link MI_PUBLICACION_ABIERTA to MI_PUBLICACION_ABIERTA--><g class="link" data-entity-1="MI_PUBLICACION_ABIERTA" data-entity-2="MI_PUBLICACION_ABIERTA" data-source-line="24" data-uid="lnk28" id="link_MI_PUBLICACION_ABIERTA_MI_PUBLICACION_ABIERTA"><path d="M1189.31,712.0169 C1178.64,694.5269 1190.38,677.2969 1224.5,677.2969 C1258.62,677.2969 1273.4848,689.4048 1262.8148,706.8948" fill="none" id="MI_PUBLICACION_ABIERTA-to-MI_PUBLICACION_ABIERTA" style="stroke:#181818;stroke-width:1;"/><polygon fill="#181818" points="1259.69,712.0169,1267.7919,706.417,1262.294,707.7485,1260.9625,702.2506,1259.69,712.0169" style="stroke:#181818;stroke-width:1;"/><text fill="#000000" font-family="sans-serif" font-size="13" lengthAdjust="spacing" textLength="122.0337" x="1163.5" y="668.3638">editarPublicacion()</text></g><!--link OPCIONES_PERFIL_ABIERTO to OPCIONES_PERFIL_ABIERTO--><g class="link" data-entity-1="OPCIONES_PERFIL_ABIERTO" data-entity-2="OPCIONES_PERFIL_ABIERTO" data-source-line="28" data-uid="lnk30" id="link_OPCIONES_PERFIL_ABIERTO_OPCIONES_PERFIL_ABIERTO"><path d="M749.26,105.0169 C737.68,87.5269 750.42,70.2969 787.5,70.2969 C824.58,70.2969 840.6323,82.524 829.0523,100.014" fill="none" id="OPCIONES_PERFIL_ABIERTO-to-OPCIONES_PERFIL_ABIERTO" style="stroke:#181818;stroke-width:1;"/><polygon fill="#181818" points="825.74,105.0169,834.0437,99.7208,828.5003,100.8478,827.3733,95.3044,825.74,105.0169" style="stroke:#181818;stroke-width:1;"/><text fill="#000000" font-family="sans-serif" font-size="13" lengthAdjust="spacing" textLength="81.396" x="747" y="61.3638">editarPerfil()</text></g><!--link MI_CARGA_TRABAJO to MI_CARGA_TRABAJO--><g class="link" data-entity-1="MI_CARGA_TRABAJO" data-entity-2="MI_CARGA_TRABAJO" data-source-line="31" data-uid="lnk32" id="link_MI_CARGA_TRABAJO_MI_CARGA_TRABAJO"><path d="M749.26,253.0169 C737.68,235.5269 750.42,218.2969 787.5,218.2969 C824.58,218.2969 840.6323,230.524 829.0523,248.014" fill="none" id="MI_CARGA_TRABAJO-to-MI_CARGA_TRABAJO" style="stroke:#181818;stroke-width:1;"/><polygon fill="#181818" points="825.74,253.0169,834.0437,247.7208,828.5003,248.8478,827.3733,243.3044,825.74,253.0169" style="stroke:#181818;stroke-width:1;"/><text fill="#000000" font-family="sans-serif" font-size="13" lengthAdjust="spacing" textLength="333.3281" x="621" y="209.3638">solicitarCompensacion() ' Genera una Recompensa</text></g><!--link PROYECTOS_ABIERTOS to PROYECTO_ABIERTO--><g class="link" data-entity-1="PROYECTOS_ABIERTOS" data-entity-2="PROYECTO_ABIERTO" data-source-line="35" data-uid="lnk35" id="link_PROYECTOS_ABIERTOS_PROYECTO_ABIERTO"><path d="M878.61,359.0569 C898.19,357.7669 918.78,356.4469 938,355.2969 C1006.87,351.1869 1079.1275,347.4168 1136.2675,344.5568" fill="none" id="PROYECTOS_ABIERTOS-to-PROYECTO_ABIERTO" style="stroke:#181818;stroke-width:1;"/><polygon fill="#181818" points="1142.26,344.2569,1133.0713,340.7118,1137.2663,344.5068,1133.4712,348.7018,1142.26,344.2569" style="stroke:#181818;stroke-width:1;"/><text fill="#000000" font-family="sans-serif" font-size="13" lengthAdjust="spacing" textLength="97.6904" x="966.5" y="342.3638">abrirProyecto()</text></g><!--link PROYECTO_ABIERTO to PROYECTOS_ABIERTOS--><g class="link" data-entity-1="PROYECTO_ABIERTO" data-entity-2="PROYECTOS_ABIERTOS" data-source-line="37" data-uid="lnk37" id="link_PROYECTO_ABIERTO_PROYECTOS_ABIERTOS"><path d="M1154.77,365.3769 C1134.8,371.5169 1112.77,377.2069 1092,380.2969 C1020.77,390.8869 945.181,386.6103 884.561,379.6603" fill="none" id="PROYECTO_ABIERTO-to-PROYECTOS_ABIERTOS" style="stroke:#181818;stroke-width:1;"/><polygon fill="#181818" points="878.6,378.9769,887.0858,383.976,883.5675,379.5464,887.997,376.028,878.6,378.9769" style="stroke:#181818;stroke-width:1;"/><text fill="#000000" font-family="sans-serif" font-size="13" lengthAdjust="spacing" textLength="144.7329" x="943" y="376.3638">volverAMisProyectos()</text></g><!--link PROYECTO_ABIERTO to PROYECTO_ABIERTO--><g class="link" data-entity-1="PROYECTO_ABIERTO" data-entity-2="PROYECTO_ABIERTO" data-source-line="36" data-uid="lnk36" id="link_PROYECTO_ABIERTO_PROYECTO_ABIERTO"><path d="M1189.31,315.0169 C1178.64,297.5269 1190.38,280.2969 1224.5,280.2969 C1258.62,280.2969 1273.4848,292.4048 1262.8148,309.8948" fill="none" id="PROYECTO_ABIERTO-to-PROYECTO_ABIERTO" style="stroke:#181818;stroke-width:1;"/><polygon fill="#181818" points="1259.69,315.0169,1267.7919,309.417,1262.294,310.7485,1260.9625,305.2506,1259.69,315.0169" style="stroke:#181818;stroke-width:1;"/><text fill="#000000" font-family="sans-serif" font-size="13" lengthAdjust="spacing" textLength="260.8315" x="1094.5" y="271.3638">subirEntregable() ' Afecta a Entregables</text></g><!--link CONVOCATORIAS_ABIERTAS to CONVOCATORIA_ABIERTA--><g class="link" data-entity-1="CONVOCATORIAS_ABIERTAS" data-entity-2="CONVOCATORIA_ABIERTA" data-source-line="40" data-uid="lnk39" id="link_CONVOCATORIAS_ABIERTAS_CONVOCATORIA_ABIERTA"><path d="M897.19,563.5469 C955.28,567.3569 1027.85,568.6069 1092,559.2969 C1112.03,556.3869 1127.5077,552.823 1146.9277,547.063" fill="none" id="CONVOCATORIAS_ABIERTAS-to-CONVOCATORIA_ABIERTA" style="stroke:#181818;stroke-width:1;"/><polygon fill="#181818" points="1152.68,545.3569,1142.9141,544.0812,1147.8864,546.7787,1145.189,551.751,1152.68,545.3569" style="stroke:#181818;stroke-width:1;"/><text fill="#000000" font-family="sans-serif" font-size="13" lengthAdjust="spacing" textLength="117.1841" x="956.5" y="555.3638">verConvocatoria()</text></g><!--link CONVOCATORIA_ABIERTA to CONVOCATORIAS_ABIERTAS--><g class="link" data-entity-1="CONVOCATORIA_ABIERTA" data-entity-2="CONVOCATORIAS_ABIERTAS" data-source-line="41" data-uid="lnk40" id="link_CONVOCATORIA_ABIERTA_CONVOCATORIAS_ABIERTAS"><path d="M1123.69,525.8469 C1068.85,529.0769 999.64,533.4669 938,538.2969 C924.75,539.3369 916.8166,539.9874 903.0466,541.2074" fill="none" id="CONVOCATORIA_ABIERTA-to-CONVOCATORIAS_ABIERTAS" style="stroke:#181818;stroke-width:1;"/><polygon fill="#181818" points="897.07,541.7369,906.3879,544.927,902.0505,541.2956,905.6819,536.9582,897.07,541.7369" style="stroke:#181818;stroke-width:1;"/><text fill="#000000" font-family="sans-serif" font-size="13" lengthAdjust="spacing" textLength="152.1089" x="939" y="523.3638">volverAConvocatorias()</text></g><!--link CONVOCATORIA_ABIERTA to PROPUESTAS_ABIERTAS--><g class="link" data-entity-1="CONVOCATORIA_ABIERTA" data-entity-2="PROPUESTAS_ABIERTAS" data-source-line="42" data-uid="lnk42" id="link_CONVOCATORIA_ABIERTA_PROPUESTAS_ABIERTAS"><path d="M1325.29,516.2969 C1420.46,512.4869 1556.7148,507.0271 1649.8048,503.2971" fill="none" id="CONVOCATORIA_ABIERTA-to-PROPUESTAS_ABIERTAS" style="stroke:#181818;stroke-width:1;"/><polygon fill="#181818" points="1655.8,503.0569,1646.6471,499.4204,1650.804,503.2571,1646.9674,507.414,1655.8,503.0569" style="stroke:#181818;stroke-width:1;"/><text fill="#000000" font-family="sans-serif" font-size="13" lengthAdjust="spacing" textLength="267.0396" x="1358" y="500.3638">crearPropuesta() ' Genera una Propuesta</text></g><!--link PROPUESTAS_ABIERTAS to PROPUESTA_ABIERTA--><g class="link" data-entity-1="PROPUESTAS_ABIERTAS" data-entity-2="PROPUESTA_ABIERTA" data-source-line="45" data-uid="lnk44" id="link_PROPUESTAS_ABIERTAS_PROPUESTA_ABIERTA"><path d="M1845.31,506.6869 C1903.77,511.2969 1972.3785,516.7057 2028.9985,521.1657" fill="none" id="PROPUESTAS_ABIERTAS-to-PROPUESTA_ABIERTA" style="stroke:#181818;stroke-width:1;"/><polygon fill="#181818" points="2034.98,521.6369,2026.3219,516.9425,2029.9954,521.2442,2025.6937,524.9178,2034.98,521.6369" style="stroke:#181818;stroke-width:1;"/><text fill="#000000" font-family="sans-serif" font-size="13" lengthAdjust="spacing" textLength="106.1265" x="1887" y="505.3638">abrirPropuesta()</text></g><!--link PROPUESTAS_ABIERTAS to PROPUESTA_ABIERTA--><g class="link" data-entity-1="PROPUESTAS_ABIERTAS" data-entity-2="PROPUESTA_ABIERTA" data-source-line="46" data-uid="lnk45" id="link_PROPUESTAS_ABIERTAS_PROPUESTA_ABIERTA"><path d="M1808.82,524.3169 C1829.3,532.0069 1852.8,539.4569 1875,543.2969 C1927.7,552.4069 1981.6658,549.6866 2028.9958,543.8066" fill="none" id="PROPUESTAS_ABIERTAS-to-PROPUESTA_ABIERTA-1" style="stroke:#181818;stroke-width:1;"/><polygon fill="#181818" points="2034.95,543.0669,2025.5255,540.207,2029.9881,543.6833,2026.5118,548.1459,2034.95,543.0669" style="stroke:#181818;stroke-width:1;"/><text fill="#000000" font-family="sans-serif" font-size="13" lengthAdjust="spacing" textLength="109.4082" x="1885.5" y="539.3638">crearPropuesta()</text></g><!--link PROPUESTA_ABIERTA to PROPUESTAS_ABIERTAS--><g class="link" data-entity-1="PROPUESTA_ABIERTA" data-entity-2="PROPUESTAS_ABIERTAS" data-source-line="49" data-uid="lnk47" id="link_PROPUESTA_ABIERTA_PROPUESTAS_ABIERTAS"><path d="M2066.52,503.2869 C2047.55,495.5969 2025.73,488.1469 2005,484.2969 C1952.66,474.5869 1899.249,476.677 1851.139,482.327" fill="none" id="PROPUESTA_ABIERTA-to-PROPUESTAS_ABIERTAS" style="stroke:#181818;stroke-width:1;"/><polygon fill="#181818" points="1845.18,483.0269,1854.5851,485.9498,1850.1459,482.4437,1853.652,478.0044,1845.18,483.0269" style="stroke:#181818;stroke-width:1;"/><text fill="#000000" font-family="sans-serif" font-size="13" lengthAdjust="spacing" textLength="128.6543" x="1876" y="473.3638">eliminarPropuesta()</text></g><!--link PROPUESTA_ABIERTA to PROPUESTA_ABIERTA--><g class="link" data-entity-1="PROPUESTA_ABIERTA" data-entity-2="PROPUESTA_ABIERTA" data-source-line="48" data-uid="lnk46" id="link_PROPUESTA_ABIERTA_PROPUESTA_ABIERTA"><path d="M2090.05,503.0169 C2080.82,485.5269 2090.97,468.2969 2120.5,468.2969 C2150.03,468.2969 2162.9804,480.2205 2153.7504,497.7105" fill="none" id="PROPUESTA_ABIERTA-to-PROPUESTA_ABIERTA" style="stroke:#181818;stroke-width:1;"/><polygon fill="#181818" points="2150.95,503.0169,2158.6881,496.9242,2153.2836,498.5949,2151.6129,493.1904,2150.95,503.0169" style="stroke:#181818;stroke-width:1;"/><text fill="#000000" font-family="sans-serif" font-size="13" lengthAdjust="spacing" textLength="113.877" x="2064" y="459.3638">editarPropuesta()</text></g><!--link PROPUESTA_ABIERTA to CONVOCATORIAS_ABIERTAS--><g class="link" data-entity-1="PROPUESTA_ABIERTA" data-entity-2="CONVOCATORIAS_ABIERTAS" data-source-line="50" data-uid="lnk48" id="link_PROPUESTA_ABIERTA_CONVOCATORIAS_ABIERTAS"><path d="M2034.86,551.1969 C2024.85,553.2469 2014.74,555.0269 2005,556.2969 C1602.56,608.8169 1497.84,570.2969 1092,574.2969 C1023.56,574.9669 1006.26,579.2969 938,574.2969 C924.79,573.3269 916.9247,572.623 903.2547,570.933" fill="none" id="PROPUESTA_ABIERTA-to-CONVOCATORIAS_ABIERTAS" style="stroke:#181818;stroke-width:1;"/><polygon fill="#181818" points="897.3,570.1969,905.7412,575.2709,902.2622,570.8103,906.7228,567.3313,897.3,570.1969" style="stroke:#181818;stroke-width:1;"/><text fill="#000000" font-family="sans-serif" font-size="13" lengthAdjust="spacing" textLength="152.1089" x="1415.5" y="573.3638">volverAConvocatorias()</text></g><!--link PROPUESTAS_ABIERTAS to PERFIL--><g class="link" data-entity-1="PROPUESTAS_ABIERTAS" data-entity-2="PERFIL" data-source-line="57" data-uid="lnk53" id="link_PROPUESTAS_ABIERTAS_PERFIL"><path d="M1655.95,482.7269 C1645.86,481.3669 1635.73,480.1769 1626,479.2969 C1162.91,437.3869 601.6675,450.0232 461.1375,454.0932" fill="none" id="PROPUESTAS_ABIERTAS-to-PERFIL" style="stroke:#181818;stroke-width:1;"/><polygon fill="#181818" points="455.14,454.2669,464.252,458.0047,460.1379,454.1221,464.0204,450.008,455.14,454.2669" style="stroke:#181818;stroke-width:1;"/><text fill="#000000" font-family="sans-serif" font-size="13" lengthAdjust="spacing" textLength="95.9258" x="967.5" y="445.3638">volverAlPerfil()</text></g><!--SRC=[dLN1Zfim4Btp5RxjRgLLxprKSWXTKMqM16obgggGGoRK5R4Z6wBck_e9_R4EmMI3mQJf3V2yD_F6Cu-QrnMG9MUbOZj6Da0AAMhuLKjyhaWe3g1hNhADLE-NiW0yyxmAjZN12CNB7pNPS0L5pQNml6_llfF7nuya3T8mUidz84deadh3rua8yW6p2IYP2WKlk4n18z_zmnGo3f9FuJCYU1lAr3dMCoUJz0KeTH5x4Hh5FeO6QTvzo-aY398iGWnRAwwYFTOZGCUWjhmQGbTXxjFaYUPPGXVqSuivW5fndwcIPOgjsKyvHCH9z3NmioZjqwGzHiTA7h6FKWyHVlJo9V9f5YKXxL7Ke7mf3h9WjLISQRiq5FIwU0vzQkHTG4_2sfJDkk85wmHQXSvYRQ1tXw17yjJEof_VeXsZGKXxwZaehMpzmKIgjiA9G3U10hsNOWEtammr7sI5tQOZrJDDDkCn8sp5XrNzBrcXW2cRAdTfTDB0XjStySpC5rHynuNDDZKafwKYHtBQcFQBsPhJmBWsStvhZP1-NUT8pbPYBhWwexpHQZlsNKjKs2RqvMuFGXknv0vr2b2CD8AH10fpEiqxKyT4ptgV8FUON98ANnfCT2GQoWORZnuj7xgD6xlDfGdPLjSpjojYXpXmkbbp5OXQeNUlApW9friaOOIHj-zwdd3eXbqFB4USQCJ0_Kvw7Lvfs-Z5r5icYeac0-UDk2lODcCd4QgENuCq6x9qQwpala69p9wWyu5Z8hf3tT_wY7-GTsInRrbl0jibUzuuoeKrMpgL-H-QTJQOg_XRRysq5sr8Q6v-NjXY1HWXvDN_c7EHhxYx6-ZQOITWPWbciqnVkmln5m00]--></g></svg>