<?xml version="1.0" encoding="us-ascii" standalone="no"?><svg xmlns="http://www.w3.org/2000/svg" xmlns:xlink="http://www.w3.org/1999/xlink" contentStyleType="text/css" height="677px" preserveAspectRatio="none" style="width:989px;height:677px;background:#FFFFFF;" version="1.1" viewBox="0 0 989 677" width="989px" zoomAndPan="magnify"><defs/><g><path d="M19.5,7 L963.5,7 A12.5,12.5 0 0 1 976,19.5 L976,34.6094 L7,34.6094 L7,19.5 A12.5,12.5 0 0 1 19.5,7 " fill="#F1F1F1" style="stroke:#F1F1F1;stroke-width:1.0;"/><rect fill="none" height="517.6094" rx="12.5" ry="12.5" style="stroke:#181818;stroke-width:0.5;" width="969" x="7" y="7"/><line style="stroke:#181818;stroke-width:0.5;" x1="7" x2="976" y1="34.6094" y2="34.6094"/><text fill="#000000" font-family="sans-serif" font-size="14" lengthAdjust="spacing" textLength="134" x="424.5" y="26.5332">editarCargaTrabajo()</text><g id="editarCargaTrabajo.MostrandoCarga"><rect fill="#F1F1F1" height="50" rx="12.5" ry="12.5" style="stroke:#181818;stroke-width:0.5;" width="50" x="351" y="137.6094"/><line style="stroke:#181818;stroke-width:0.5;" x1="351" x2="401" y1="165.2188" y2="165.2188"/><text fill="#000000" font-family="sans-serif" font-size="14" lengthAdjust="spacing" textLength="4" x="374" y="157.1426">&#160;</text></g><g id="editarCargaTrabajo.EditandoCarga"><rect fill="#F1F1F1" height="50" rx="12.5" ry="12.5" style="stroke:#181818;stroke-width:0.5;" width="50" x="108" y="301.1094"/><line style="stroke:#181818;stroke-width:0.5;" x1="108" x2="158" y1="328.7188" y2="328.7188"/><text fill="#000000" font-family="sans-serif" font-size="14" lengthAdjust="spacing" textLength="4" x="131" y="320.6426">&#160;</text></g><g id="editarCargaTrabajo.Validando"><rect fill="#F1F1F1" height="50" rx="12.5" ry="12.5" style="stroke:#181818;stroke-width:0.5;" width="50" x="223" y="464.6094"/><line style="stroke:#181818;stroke-width:0.5;" x1="223" x2="273" y1="492.2188" y2="492.2188"/><text fill="#000000" font-family="sans-serif" font-size="14" lengthAdjust="spacing" textLength="4" x="246" y="484.1426">&#160;</text></g><ellipse cx="376" cy="55.6094" fill="#222222" rx="10" ry="10" style="stroke:#222222;stroke-width:1.0;"/><!--link *start*editarCargaTrabajo to MostrandoCarga--><g id="link_*start*editarCargaTrabajo_MostrandoCarga"><path d="M376,65.9294 C376,81.7894 376,108.5194 376,131.2494 " fill="none" id="*start*editarCargaTrabajo-to-MostrandoCarga" style="stroke:#008000;stroke-width:1.0;"/><polygon fill="#008000" points="376,137.2494,380,128.2494,376,132.2494,372,128.2494,376,137.2494" style="stroke:#008000;stroke-width:1.0;"/><path d="M381,88.6094 L381,114.6094 L633,114.6094 L633,98.6094 L623,88.6094 L381,88.6094 " fill="#FEFFDD" style="stroke:#181818;stroke-width:0.5;"/><path d="M623,88.6094 L623,98.6094 L633,98.6094 L623,88.6094 " fill="#FEFFDD" style="stroke:#181818;stroke-width:0.5;"/><text fill="#000000" font-family="sans-serif" font-size="13" font-weight="bold" lengthAdjust="spacing" textLength="79" x="387" y="107.1045">Coordinador</text><text fill="#000000" font-family="sans-serif" font-size="13" lengthAdjust="spacing" textLength="148" x="470" y="107.1045">selecciona a una persona</text></g><!--link MostrandoCarga to EditandoCarga--><g id="link_MostrandoCarga_EditandoCarga"><path d="M350.83,166.5594 C269.34,176.1194 18,205.6094 18,205.6094 C18,205.6094 18,257.6094 18,257.6094 C18,257.6094 68.7356,287.392 102.5856,307.262 " fill="none" id="MostrandoCarga-to-EditandoCarga" style="stroke:#008000;stroke-width:1.0;"/><polygon fill="#008000" points="107.76,310.2994,102.0233,302.2937,103.448,307.7682,97.9735,309.1929,107.76,310.2994" style="stroke:#008000;stroke-width:1.0;"/><path d="M23,210.6094 L23,252.6094 L349,252.6094 L349,220.6094 L339,210.6094 L23,210.6094 " fill="#FEFFDD" style="stroke:#181818;stroke-width:0.5;"/><path d="M339,210.6094 L339,220.6094 L349,220.6094 L339,210.6094 " fill="#FEFFDD" style="stroke:#181818;stroke-width:0.5;"/><text fill="#000000" font-family="sans-serif" font-size="13" font-weight="bold" lengthAdjust="spacing" textLength="79" x="29" y="229.1045">Coordinador</text><text fill="#000000" font-family="sans-serif" font-size="13" lengthAdjust="spacing" textLength="176" x="112" y="229.1045">pulsa "Editar carga de trabajo"</text><text fill="#000000" font-family="sans-serif" font-size="13" font-weight="bold" lengthAdjust="spacing" textLength="51" x="29" y="245.4561">Sistema</text><text fill="#000000" font-family="sans-serif" font-size="13" lengthAdjust="spacing" textLength="250" x="84" y="245.4561">habilita el formulario con los datos actuales</text></g><!--link EditandoCarga to Validando--><g id="link_EditandoCarga_Validando"><path d="M107.92,342.0894 C74.63,361.9794 20,394.6094 20,394.6094 C20,394.6094 20,446.6094 20,446.6094 C20,446.6094 157.4692,471.9329 216.8292,482.8629 " fill="none" id="EditandoCarga-to-Validando" style="stroke:#008000;stroke-width:1.0;"/><polygon fill="#008000" points="222.73,483.9494,214.6031,478.3857,217.8127,483.0439,213.1544,486.2535,222.73,483.9494" style="stroke:#008000;stroke-width:1.0;"/><path d="M25,407.6094 L25,433.6094 L221,433.6094 L221,417.6094 L211,407.6094 L25,407.6094 " fill="#FEFFDD" style="stroke:#181818;stroke-width:0.5;"/><path d="M211,407.6094 L211,417.6094 L221,417.6094 L211,407.6094 " fill="#FEFFDD" style="stroke:#181818;stroke-width:0.5;"/><text fill="#000000" font-family="sans-serif" font-size="13" font-weight="bold" lengthAdjust="spacing" textLength="79" x="31" y="426.1045">Coordinador</text><text fill="#000000" font-family="sans-serif" font-size="13" lengthAdjust="spacing" textLength="92" x="114" y="426.1045">guarda cambios</text></g><!--link Validando to MostrandoCarga--><g id="link_Validando_MostrandoCarga"><path d="M273,485.5194 C351.52,475.8194 588,446.6094 588,446.6094 C588,446.6094 588,205.6094 588,205.6094 C588,205.6094 463.1955,180.8858 407.0355,169.7558 " fill="none" id="Validando-to-MostrandoCarga" style="stroke:#008000;stroke-width:1.0;"/><polygon fill="#008000" points="401.15,168.5894,409.2007,174.2627,406.0546,169.5614,410.7559,166.4153,401.15,168.5894" style="stroke:#008000;stroke-width:1.0;"/><path d="M593,280.6094 L593,371.6094 L967,371.6094 L967,290.6094 L957,280.6094 L593,280.6094 " fill="#FEFFDD" style="stroke:#181818;stroke-width:0.5;"/><path d="M957,280.6094 L957,290.6094 L967,290.6094 L957,280.6094 " fill="#FEFFDD" style="stroke:#181818;stroke-width:0.5;"/><text fill="#000000" font-family="sans-serif" font-size="13" font-weight="bold" lengthAdjust="spacing" textLength="51" x="599" y="299.1045">Sistema</text><text fill="#000000" font-family="sans-serif" font-size="13" lengthAdjust="spacing" textLength="153" x="654" y="299.1045">valida y actualiza la carga:</text><text fill="#000000" font-family="sans-serif" font-size="13" lengthAdjust="spacing" textLength="155" x="599" y="315.4561">&#8226; Docencia &#8804; 16 h/semana</text><text fill="#000000" font-family="sans-serif" font-size="13" lengthAdjust="spacing" textLength="174" x="599" y="331.8076">&#8226; No permite valores negativos</text><text fill="#000000" font-family="sans-serif" font-size="13" lengthAdjust="spacing" textLength="203" x="599" y="348.1592">&#8226; Recalcula total y margen docente</text><text fill="#000000" font-family="sans-serif" font-size="13" font-weight="bold" lengthAdjust="spacing" textLength="51" x="599" y="364.5107">Sistema</text><text fill="#000000" font-family="sans-serif" font-size="13" lengthAdjust="spacing" textLength="298" x="654" y="364.5107">muestra confirmaci&#243;n y mantiene la pantalla abierta</text></g><!--link Validando to EditandoCarga--><g id="link_Validando_EditandoCarga"><path d="M242.33,464.3994 C235.82,436.5494 226,394.6094 226,394.6094 C226,394.6094 190.8057,369.0639 163.2657,349.0739 " fill="none" id="Validando-to-EditandoCarga" style="stroke:#FF0000;stroke-width:1.0;"/><polygon fill="#FF0000" points="158.41,345.5494,163.3439,354.0733,162.4564,348.4865,168.0432,347.599,158.41,345.5494" style="stroke:#FF0000;stroke-width:1.0;"/><path d="M243,399.6094 L243,441.6094 L579,441.6094 L579,409.6094 L569,399.6094 L243,399.6094 " fill="#FEFFDD" style="stroke:#181818;stroke-width:0.5;"/><path d="M569,399.6094 L569,409.6094 L579,409.6094 L569,399.6094 " fill="#FEFFDD" style="stroke:#181818;stroke-width:0.5;"/><text fill="#000000" font-family="sans-serif" font-size="13" font-weight="bold" lengthAdjust="spacing" textLength="51" x="249" y="418.1045">Sistema</text><text fill="#000000" font-family="sans-serif" font-size="13" lengthAdjust="spacing" textLength="210" x="304" y="418.1045">detecta errores (p.ej. docencia &gt; 16)</text><text fill="#000000" font-family="sans-serif" font-size="13" font-weight="bold" lengthAdjust="spacing" textLength="51" x="249" y="434.4561">Sistema</text><text fill="#000000" font-family="sans-serif" font-size="13" lengthAdjust="spacing" textLength="260" x="304" y="434.4561">informa y mantiene el formulario para corregir</text></g><!--link EditandoCarga to MostrandoCarga--><g id="link_EditandoCarga_MostrandoCarga"><path d="M158.35,317.3694 C216.4,299.6394 354,257.6094 354,257.6094 C354,257.6094 362.4543,221.5119 368.9643,193.6619 " fill="none" id="EditandoCarga-to-MostrandoCarga" style="stroke:#FF0000;stroke-width:1.0;"/><polygon fill="#FF0000" points="370.33,187.8194,364.3864,195.6727,369.1919,192.6881,372.1765,197.4936,370.33,187.8194" style="stroke:#FF0000;stroke-width:1.0;"/><path d="M371,210.6094 L371,252.6094 L579,252.6094 L579,220.6094 L569,210.6094 L371,210.6094 " fill="#FEFFDD" style="stroke:#181818;stroke-width:0.5;"/><path d="M569,210.6094 L569,220.6094 L579,220.6094 L569,210.6094 " fill="#FEFFDD" style="stroke:#181818;stroke-width:0.5;"/><text fill="#000000" font-family="sans-serif" font-size="13" font-weight="bold" lengthAdjust="spacing" textLength="79" x="377" y="229.1045">Coordinador</text><text fill="#000000" font-family="sans-serif" font-size="13" lengthAdjust="spacing" textLength="104" x="460" y="229.1045">cancela la edici&#243;n</text><text fill="#000000" font-family="sans-serif" font-size="13" font-weight="bold" lengthAdjust="spacing" textLength="51" x="377" y="245.4561">Sistema</text><text fill="#000000" font-family="sans-serif" font-size="13" lengthAdjust="spacing" textLength="103" x="432" y="245.4561">descarta cambios</text></g><g id="OPCIONES_CARGA_TRABAJO_ABIERTAS"><rect fill="#F1F1F1" height="50" rx="12.5" ry="12.5" style="stroke:#181818;stroke-width:0.5;" width="294" x="344.5" y="621"/><line style="stroke:#181818;stroke-width:0.5;" x1="344.5" x2="638.5" y1="648.6094" y2="648.6094"/><text fill="#000000" font-family="sans-serif" font-size="14" lengthAdjust="spacing" textLength="274" x="354.5" y="640.5332">OPCIONES_CARGA_TRABAJO_ABIERTAS</text></g><!--link OPCIONES_CARGA_TRABAJO_ABIERTAS to editarCargaTrabajo--><g id="link_OPCIONES_CARGA_TRABAJO_ABIERTAS_editarCargaTrabajo"><path d="M526.84,620.84 C547.88,606.47 570.5,591 570.5,591 C570.5,591 570.5,555 570.5,555 C570.5,555 568.9465,549.3565 563.9265,531.0465 " fill="none" id="OPCIONES_CARGA_TRABAJO_ABIERTAS-to-editarCargaTrabajo" style="stroke:#008000;stroke-width:1.0;"/><polygon fill="#008000" points="562.34,525.26,560.862,534.9973,563.662,530.0821,568.5773,532.8821,562.34,525.26" style="stroke:#008000;stroke-width:1.0;"/><path d="M575.5,560 L575.5,586 L712.5,586 L712.5,570 L702.5,560 L575.5,560 " fill="#FEFFDD" style="stroke:#181818;stroke-width:0.5;"/><path d="M702.5,560 L702.5,570 L712.5,570 L702.5,560 " fill="#FEFFDD" style="stroke:#181818;stroke-width:0.5;"/><text fill="#000000" font-family="sans-serif" font-size="13" lengthAdjust="spacing" textLength="116" x="581.5" y="578.4951">editarCargaTrabajo()</text></g><!--link editarCargaTrabajo to OPCIONES_CARGA_TRABAJO_ABIERTAS--><g id="link_editarCargaTrabajo_OPCIONES_CARGA_TRABAJO_ABIERTAS"><path d="M379.41,525.26 C371.46,543.57 366.5,555 366.5,555 C366.5,555 366.5,591 366.5,591 C366.5,591 396.7916,604.0915 430.0716,618.4615 " fill="none" id="editarCargaTrabajo-to-OPCIONES_CARGA_TRABAJO_ABIERTAS" style="stroke:#008000;stroke-width:1.0;"/><polygon fill="#008000" points="435.58,620.84,428.903,613.6,430.9896,618.8579,425.7317,620.9446,435.58,620.84" style="stroke:#008000;stroke-width:1.0;"/><path d="M371.5,560 L371.5,586 L557.5,586 L557.5,570 L547.5,560 L371.5,560 " fill="#FEFFDD" style="stroke:#181818;stroke-width:0.5;"/><path d="M547.5,560 L547.5,570 L557.5,570 L547.5,560 " fill="#FEFFDD" style="stroke:#181818;stroke-width:0.5;"/><text fill="#000000" font-family="sans-serif" font-size="13" lengthAdjust="spacing" textLength="165" x="377.5" y="578.4951">Carga de trabajo actualizada</text></g><!--SRC=[dLJDQjj04BxhAGRtaXIIq4iF9HWKrvGK6XVRz1A26UzEd4rMks9s7N1BeTU-HkaRz17w9dcIpgxSsgeLOcA3aBGpty_CQCATSJKoLc2DexYg2MflL-cXA4B4I43QHEG1yWAdZ7EyzO01Uhkl3mvxyAKeG7vDPa_-4lh1XyZejC_1k-V3XFJuyIUqHgVp1lhovHKSNRvOC96xEkfteJilsTubItVvnUcyF_2UjN6eFP-UpFiGo99InZi4XALSQ-8WJpcUdCuW3MEReKM-AtqVxdff0q8l9pEeZAe9ObF6tj-qYGcHAimfDpWtLiA1B5nxhfOMsNXGYSa7q1ZbYYekqLBeyD0IshAmAU- -yXTBP8sYkveRtqNs3_8vZTfsVP-1OBLsPZuZM6mAzYR7Ftpx0M-z8gSCmiFtd_3gDToS1CbVTp85NFZKtCe8bm1wfW2E5XZD_Lfz2XgJGgkah11zH2kSbT2G0vtWnLc7l6f9oLBgmhNX2fNv_SlbJ1SDEKfYQxb7ApVIGEA8JvMBIUy_MDjYD4LIQK2OiyM3-fXkZnlvgJfzgSrXLw9nQQ1mMtTxoD9-48_Cj32ypsojFJpporJe5DdSQTankQRTVeCCGdna3hyMnUZZu7nqCPpC1kNuNJcRZikpylreLfwT3yVJSjAQpTrbLhIaTYsxObE5ZXMvZVw4aZRLuBzri9bzZHlAFm00]--></g></svg>