<?xml version="1.0" encoding="us-ascii" standalone="no"?><svg xmlns="http://www.w3.org/2000/svg" xmlns:xlink="http://www.w3.org/1999/xlink" contentStyleType="text/css" height="788px" preserveAspectRatio="none" style="width:989px;height:788px;background:#FFFFFF;" version="1.1" viewBox="0 0 989 788" width="989px" zoomAndPan="magnify"><defs/><g><g id="in1"><rect fill="#F1F1F1" height="50" rx="12.5" ry="12.5" style="stroke:#181818;stroke-width:0.5;" width="294" x="344.5" y="7"/><line style="stroke:#181818;stroke-width:0.5;" x1="344.5" x2="638.5" y1="34.6094" y2="34.6094"/><text fill="#000000" font-family="sans-serif" font-size="14" lengthAdjust="spacing" textLength="274" x="354.5" y="26.5332">OPCIONES_CARGA_TRABAJO_ABIERTAS</text></g><path d="M19.5,118 L963.5,118 A12.5,12.5 0 0 1 976,130.5 L976,145.6094 L7,145.6094 L7,130.5 A12.5,12.5 0 0 1 19.5,118 " fill="#F1F1F1" style="stroke:#F1F1F1;stroke-width:1.0;"/><rect fill="none" height="517.6094" rx="12.5" ry="12.5" style="stroke:#181818;stroke-width:0.5;" width="969" x="7" y="118"/><line style="stroke:#181818;stroke-width:0.5;" x1="7" x2="976" y1="145.6094" y2="145.6094"/><text fill="#000000" font-family="sans-serif" font-size="14" lengthAdjust="spacing" textLength="134" x="424.5" y="137.5332">editarCargaTrabajo()</text><g id="editarCargaTrabajo.MostrandoCarga"><rect fill="#F1F1F1" height="50" rx="12.5" ry="12.5" style="stroke:#181818;stroke-width:0.5;" width="50" x="351" y="248.6094"/><line style="stroke:#181818;stroke-width:0.5;" x1="351" x2="401" y1="276.2188" y2="276.2188"/><text fill="#000000" font-family="sans-serif" font-size="14" lengthAdjust="spacing" textLength="4" x="374" y="268.1426">&#160;</text></g><g id="editarCargaTrabajo.EditandoCarga"><rect fill="#F1F1F1" height="50" rx="12.5" ry="12.5" style="stroke:#181818;stroke-width:0.5;" width="50" x="108" y="412.1094"/><line style="stroke:#181818;stroke-width:0.5;" x1="108" x2="158" y1="439.7188" y2="439.7188"/><text fill="#000000" font-family="sans-serif" font-size="14" lengthAdjust="spacing" textLength="4" x="131" y="431.6426">&#160;</text></g><g id="editarCargaTrabajo.Validando"><rect fill="#F1F1F1" height="50" rx="12.5" ry="12.5" style="stroke:#181818;stroke-width:0.5;" width="50" x="223" y="575.6094"/><line style="stroke:#181818;stroke-width:0.5;" x1="223" x2="273" y1="603.2188" y2="603.2188"/><text fill="#000000" font-family="sans-serif" font-size="14" lengthAdjust="spacing" textLength="4" x="246" y="595.1426">&#160;</text></g><ellipse cx="376" cy="166.6094" fill="#222222" rx="10" ry="10" style="stroke:#222222;stroke-width:1.0;"/><!--link *start*editarCargaTrabajo to MostrandoCarga--><g id="link_*start*editarCargaTrabajo_MostrandoCarga"><path d="M376,176.9294 C376,192.7894 376,219.5194 376,242.2494 " fill="none" id="*start*editarCargaTrabajo-to-MostrandoCarga" style="stroke:#008000;stroke-width:1.0;"/><polygon fill="#008000" points="376,248.2494,380,239.2494,376,243.2494,372,239.2494,376,248.2494" style="stroke:#008000;stroke-width:1.0;"/><path d="M381,199.6094 L381,225.6094 L648,225.6094 L648,209.6094 L638,199.6094 L381,199.6094 " fill="#FEFFDD" style="stroke:#181818;stroke-width:0.5;"/><path d="M638,199.6094 L638,209.6094 L648,209.6094 L638,199.6094 " fill="#FEFFDD" style="stroke:#181818;stroke-width:0.5;"/><text fill="#000000" font-family="sans-serif" font-size="13" font-weight="bold" lengthAdjust="spacing" textLength="79" x="387" y="218.1045">Coordinador</text><text fill="#000000" font-family="sans-serif" font-size="13" lengthAdjust="spacing" textLength="163" x="470" y="218.1045">selecciona a un investigador</text></g><!--link MostrandoCarga to EditandoCarga--><g id="link_MostrandoCarga_EditandoCarga"><path d="M350.83,277.5594 C269.34,287.1194 18,316.6094 18,316.6094 C18,316.6094 18,368.6094 18,368.6094 C18,368.6094 68.7356,398.392 102.5856,418.262 " fill="none" id="MostrandoCarga-to-EditandoCarga" style="stroke:#008000;stroke-width:1.0;"/><polygon fill="#008000" points="107.76,421.2994,102.0233,413.2937,103.448,418.7682,97.9735,420.1929,107.76,421.2994" style="stroke:#008000;stroke-width:1.0;"/><path d="M23,321.6094 L23,363.6094 L349,363.6094 L349,331.6094 L339,321.6094 L23,321.6094 " fill="#FEFFDD" style="stroke:#181818;stroke-width:0.5;"/><path d="M339,321.6094 L339,331.6094 L349,331.6094 L339,321.6094 " fill="#FEFFDD" style="stroke:#181818;stroke-width:0.5;"/><text fill="#000000" font-family="sans-serif" font-size="13" font-weight="bold" lengthAdjust="spacing" textLength="79" x="29" y="340.1045">Coordinador</text><text fill="#000000" font-family="sans-serif" font-size="13" lengthAdjust="spacing" textLength="176" x="112" y="340.1045">pulsa "Editar carga de trabajo"</text><text fill="#000000" font-family="sans-serif" font-size="13" font-weight="bold" lengthAdjust="spacing" textLength="51" x="29" y="356.4561">Sistema</text><text fill="#000000" font-family="sans-serif" font-size="13" lengthAdjust="spacing" textLength="250" x="84" y="356.4561">habilita el formulario con los datos actuales</text></g><!--link EditandoCarga to Validando--><g id="link_EditandoCarga_Validando"><path d="M107.92,453.0894 C74.63,472.9794 20,505.6094 20,505.6094 C20,505.6094 20,557.6094 20,557.6094 C20,557.6094 157.4692,582.9329 216.8292,593.8629 " fill="none" id="EditandoCarga-to-Validando" style="stroke:#008000;stroke-width:1.0;"/><polygon fill="#008000" points="222.73,594.9494,214.6031,589.3857,217.8127,594.0439,213.1544,597.2535,222.73,594.9494" style="stroke:#008000;stroke-width:1.0;"/><path d="M25,518.6094 L25,544.6094 L221,544.6094 L221,528.6094 L211,518.6094 L25,518.6094 " fill="#FEFFDD" style="stroke:#181818;stroke-width:0.5;"/><path d="M211,518.6094 L211,528.6094 L221,528.6094 L211,518.6094 " fill="#FEFFDD" style="stroke:#181818;stroke-width:0.5;"/><text fill="#000000" font-family="sans-serif" font-size="13" font-weight="bold" lengthAdjust="spacing" textLength="79" x="31" y="537.1045">Coordinador</text><text fill="#000000" font-family="sans-serif" font-size="13" lengthAdjust="spacing" textLength="92" x="114" y="537.1045">guarda cambios</text></g><!--link Validando to MostrandoCarga--><g id="link_Validando_MostrandoCarga"><path d="M273,596.5194 C351.52,586.8194 588,557.6094 588,557.6094 C588,557.6094 588,316.6094 588,316.6094 C588,316.6094 463.1955,291.8858 407.0355,280.7558 " fill="none" id="Validando-to-MostrandoCarga" style="stroke:#008000;stroke-width:1.0;"/><polygon fill="#008000" points="401.15,279.5894,409.2007,285.2627,406.0546,280.5614,410.7559,277.4153,401.15,279.5894" style="stroke:#008000;stroke-width:1.0;"/><path d="M593,391.6094 L593,482.6094 L967,482.6094 L967,401.6094 L957,391.6094 L593,391.6094 " fill="#FEFFDD" style="stroke:#181818;stroke-width:0.5;"/><path d="M957,391.6094 L957,401.6094 L967,401.6094 L957,391.6094 " fill="#FEFFDD" style="stroke:#181818;stroke-width:0.5;"/><text fill="#000000" font-family="sans-serif" font-size="13" font-weight="bold" lengthAdjust="spacing" textLength="51" x="599" y="410.1045">Sistema</text><text fill="#000000" font-family="sans-serif" font-size="13" lengthAdjust="spacing" textLength="153" x="654" y="410.1045">valida y actualiza la carga:</text><text fill="#000000" font-family="sans-serif" font-size="13" lengthAdjust="spacing" textLength="155" x="599" y="426.4561">&#8226; Docencia &#8804; 16 h/semana</text><text fill="#000000" font-family="sans-serif" font-size="13" lengthAdjust="spacing" textLength="174" x="599" y="442.8076">&#8226; No permite valores negativos</text><text fill="#000000" font-family="sans-serif" font-size="13" lengthAdjust="spacing" textLength="203" x="599" y="459.1592">&#8226; Recalcula total y margen docente</text><text fill="#000000" font-family="sans-serif" font-size="13" font-weight="bold" lengthAdjust="spacing" textLength="51" x="599" y="475.5107">Sistema</text><text fill="#000000" font-family="sans-serif" font-size="13" lengthAdjust="spacing" textLength="298" x="654" y="475.5107">muestra confirmaci&#243;n y mantiene la pantalla abierta</text></g><!--link Validando to EditandoCarga--><g id="link_Validando_EditandoCarga"><path d="M242.33,575.3994 C235.82,547.5494 226,505.6094 226,505.6094 C226,505.6094 190.8057,480.0639 163.2657,460.0739 " fill="none" id="Validando-to-EditandoCarga" style="stroke:#FF0000;stroke-width:1.0;"/><polygon fill="#FF0000" points="158.41,456.5494,163.3439,465.0733,162.4564,459.4865,168.0432,458.599,158.41,456.5494" style="stroke:#FF0000;stroke-width:1.0;"/><path d="M243,510.6094 L243,552.6094 L579,552.6094 L579,520.6094 L569,510.6094 L243,510.6094 " fill="#FEFFDD" style="stroke:#181818;stroke-width:0.5;"/><path d="M569,510.6094 L569,520.6094 L579,520.6094 L569,510.6094 " fill="#FEFFDD" style="stroke:#181818;stroke-width:0.5;"/><text fill="#000000" font-family="sans-serif" font-size="13" font-weight="bold" lengthAdjust="spacing" textLength="51" x="249" y="529.1045">Sistema</text><text fill="#000000" font-family="sans-serif" font-size="13" lengthAdjust="spacing" textLength="210" x="304" y="529.1045">detecta errores (p.ej. docencia &gt; 16)</text><text fill="#000000" font-family="sans-serif" font-size="13" font-weight="bold" lengthAdjust="spacing" textLength="51" x="249" y="545.4561">Sistema</text><text fill="#000000" font-family="sans-serif" font-size="13" lengthAdjust="spacing" textLength="260" x="304" y="545.4561">informa y mantiene el formulario para corregir</text></g><!--link EditandoCarga to MostrandoCarga--><g id="link_EditandoCarga_MostrandoCarga"><path d="M158.35,428.3694 C216.4,410.6394 354,368.6094 354,368.6094 C354,368.6094 362.4543,332.5119 368.9643,304.6619 " fill="none" id="EditandoCarga-to-MostrandoCarga" style="stroke:#FF0000;stroke-width:1.0;"/><polygon fill="#FF0000" points="370.33,298.8194,364.3864,306.6727,369.1919,303.6881,372.1765,308.4936,370.33,298.8194" style="stroke:#FF0000;stroke-width:1.0;"/><path d="M371,321.6094 L371,363.6094 L579,363.6094 L579,331.6094 L569,321.6094 L371,321.6094 " fill="#FEFFDD" style="stroke:#181818;stroke-width:0.5;"/><path d="M569,321.6094 L569,331.6094 L579,331.6094 L569,321.6094 " fill="#FEFFDD" style="stroke:#181818;stroke-width:0.5;"/><text fill="#000000" font-family="sans-serif" font-size="13" font-weight="bold" lengthAdjust="spacing" textLength="79" x="377" y="340.1045">Coordinador</text><text fill="#000000" font-family="sans-serif" font-size="13" lengthAdjust="spacing" textLength="104" x="460" y="340.1045">cancela la edici&#243;n</text><text fill="#000000" font-family="sans-serif" font-size="13" font-weight="bold" lengthAdjust="spacing" textLength="51" x="377" y="356.4561">Sistema</text><text fill="#000000" font-family="sans-serif" font-size="13" lengthAdjust="spacing" textLength="103" x="432" y="356.4561">descarta cambios</text></g><g id="OPCIONES_CARGA_TRABAJO_ABIERTAS"><rect fill="#F1F1F1" height="50" rx="12.5" ry="12.5" style="stroke:#181818;stroke-width:0.5;" width="294" x="256.5" y="732"/><line style="stroke:#181818;stroke-width:0.5;" x1="256.5" x2="550.5" y1="759.6094" y2="759.6094"/><text fill="#000000" font-family="sans-serif" font-size="14" lengthAdjust="spacing" textLength="274" x="266.5" y="751.5332">OPCIONES_CARGA_TRABAJO_ABIERTAS</text></g><g id="PANEL_PRINCIPAL_ABIERTO"><rect fill="#F1F1F1" height="50" rx="12.5" ry="12.5" style="stroke:#181818;stroke-width:0.5;" width="210" x="662.5" y="732"/><line style="stroke:#181818;stroke-width:0.5;" x1="662.5" x2="872.5" y1="759.6094" y2="759.6094"/><text fill="#000000" font-family="sans-serif" font-size="14" lengthAdjust="spacing" textLength="190" x="672.5" y="751.5332">PANEL_PRINCIPAL_ABIERTO</text></g><!--link in1 to editarCargaTrabajo--><g id="link_in1_editarCargaTrabajo"><path d="M491.5,57.12 C491.5,72.22 491.5,87.4 491.5,111.74 " fill="none" id="in1-to-editarCargaTrabajo" style="stroke:#008000;stroke-width:1.0;"/><polygon fill="#008000" points="491.5,117.74,495.5,108.74,491.5,112.74,487.5,108.74,491.5,117.74" style="stroke:#008000;stroke-width:1.0;"/></g><!--link editarCargaTrabajo to OPCIONES_CARGA_TRABAJO_ABIERTAS--><g id="link_editarCargaTrabajo_OPCIONES_CARGA_TRABAJO_ABIERTAS"><path d="M198.26,636.26 C177.48,654.57 164.5,666 164.5,666 C164.5,666 164.5,702 164.5,702 C164.5,702 227.3475,716.1976 291.0775,730.5976 " fill="none" id="editarCargaTrabajo-to-OPCIONES_CARGA_TRABAJO_ABIERTAS" style="stroke:#008000;stroke-width:1.0;"/><polygon fill="#008000" points="296.93,731.92,289.0329,726.0348,292.0529,730.818,287.2697,733.8381,296.93,731.92" style="stroke:#008000;stroke-width:1.0;"/><path d="M169.5,671 L169.5,697 L355.5,697 L355.5,681 L345.5,671 L169.5,671 " fill="#FEFFDD" style="stroke:#181818;stroke-width:0.5;"/><path d="M345.5,671 L345.5,681 L355.5,681 L345.5,671 " fill="#FEFFDD" style="stroke:#181818;stroke-width:0.5;"/><text fill="#000000" font-family="sans-serif" font-size="13" lengthAdjust="spacing" textLength="165" x="175.5" y="689.4951">Carga de trabajo actualizada</text></g><!--link editarCargaTrabajo to OPCIONES_CARGA_TRABAJO_ABIERTAS--><g id="link_editarCargaTrabajo_OPCIONES_CARGA_TRABAJO_ABIERTAS"><path d="M409.9,636.26 C404.11,654.57 400.5,666 400.5,666 C400.5,666 400.5,702 400.5,702 C400.5,702 401.0265,711.4793 401.8265,725.8493 " fill="none" id="editarCargaTrabajo-to-OPCIONES_CARGA_TRABAJO_ABIERTAS-1" style="stroke:#FF0000;stroke-width:1.0;"/><polygon fill="#FF0000" points="402.16,731.84,405.6535,722.6316,401.8821,726.8477,397.6659,723.0763,402.16,731.84" style="stroke:#FF0000;stroke-width:1.0;"/><path d="M405.5,671 L405.5,697 L532.5,697 L532.5,681 L522.5,671 L405.5,671 " fill="#FEFFDD" style="stroke:#181818;stroke-width:0.5;"/><path d="M522.5,671 L522.5,681 L532.5,681 L522.5,671 " fill="#FEFFDD" style="stroke:#181818;stroke-width:0.5;"/><text fill="#000000" font-family="sans-serif" font-size="13" lengthAdjust="spacing" textLength="106" x="411.5" y="689.4951">Edici&#243;n cancelada</text></g><!--link editarCargaTrabajo to OPCIONES_CARGA_TRABAJO_ABIERTAS--><g id="link_editarCargaTrabajo_OPCIONES_CARGA_TRABAJO_ABIERTAS"><path d="M536.34,636.26 C539.52,654.57 541.5,666 541.5,666 C541.5,666 541.5,702 541.5,702 C541.5,702 507.568,715.285 470.818,729.655 " fill="none" id="editarCargaTrabajo-to-OPCIONES_CARGA_TRABAJO_ABIERTAS-2" style="stroke:#008000;stroke-width:1.0;"/><polygon fill="#008000" points="465.23,731.84,475.0687,732.2878,469.8867,730.0191,472.1553,724.8371,465.23,731.84" style="stroke:#008000;stroke-width:1.0;"/><path d="M546.5,671 L546.5,697 L683.5,697 L683.5,681 L673.5,671 L546.5,671 " fill="#FEFFDD" style="stroke:#181818;stroke-width:0.5;"/><path d="M673.5,671 L673.5,681 L683.5,681 L673.5,671 " fill="#FEFFDD" style="stroke:#181818;stroke-width:0.5;"/><text fill="#000000" font-family="sans-serif" font-size="13" lengthAdjust="spacing" textLength="116" x="552.5" y="689.4951">editarCargaTrabajo()</text></g><!--link editarCargaTrabajo to PANEL_PRINCIPAL_ABIERTO--><g id="link_editarCargaTrabajo_PANEL_PRINCIPAL_ABIERTO"><path d="M679.98,636.14 C708.65,675.4 730.4111,705.2048 746.3411,727.0148 " fill="none" id="editarCargaTrabajo-to-PANEL_PRINCIPAL_ABIERTO" style="stroke:#008000;stroke-width:1.0;"/><polygon fill="#008000" points="749.88,731.86,747.8017,722.2329,746.9309,727.8223,741.3415,726.9515,749.88,731.86" style="stroke:#008000;stroke-width:1.0;"/><path d="M731.5,671 L731.5,697 L868.5,697 L868.5,681 L858.5,671 L731.5,671 " fill="#FEFFDD" style="stroke:#181818;stroke-width:0.5;"/><path d="M858.5,671 L858.5,681 L868.5,681 L858.5,671 " fill="#FEFFDD" style="stroke:#181818;stroke-width:0.5;"/><text fill="#000000" font-family="sans-serif" font-size="13" lengthAdjust="spacing" textLength="116" x="737.5" y="689.4951">abrirPanelPrincipal()</text></g><!--SRC=[dLJDQXin4BxlKmpk9Iaa8PSUIZ1iN5DSKjlOffSGp5YQE4gqqZAI3MufzDhNA7c3FaBV94zIIRPZRxqXhjUmh5Spy_teMxa7PKfaB40hGtvH4fHMB-AVB7CUFO4ovu0E6hr-gzFhjeVZLZxuc8z7W_mo_zGRvvUTzc2K3njPB3ovVZDb8dDpqWIIoYEtaASuOfpWlLsFt5r92BklZuuRy2tB85pBpaRuXTBFrdb68sqgtbrlnqalBtz1hMHSNuw-VdjJ8LuptTZGRKrqwI6zk9WqMzQoL0QbvOkpIHCSQH92MOE0C3F1k3avhwQn8FMGaMdG4hMAKY6mItyV_7Ac7K8ZDJE8D5KI-AMLZNNRK3bF1QQMEvme7Sg1DDnQBcOQMLaG4SawaEZ37OMVeIPNew52j29XO_6-zASpP8c1Tp5HjWxiUUGXcxMjUfu6mMAbJ7r5qBWqx7sgV_hn2pvOGKOeXAUVZt3-3kxENEWt-5pGjL0I5ofWXO6MoO6XANerNx6FHGCIg4Mm5Rprg0Dc4M38W8pZWx8QUiMCegIu2xUA2nJgps-JEerNP2YIBSCpwl0GDf3OusjsCSdzWxLDHf8d4GF2d2GUbQTqVxga7zrf1c-EwngLYO72RTxLaCLZ9sXafgdYVRArqd3WrodG2D9ffyCvapojr-j24FmBEVoUPJLdrtOSNpabimhLrZ_Vw2QG4hED6_MGApl-2x2zKhvsOm-OmvJL7UNxG_NpRljgt1zqkgrEFxzQOVIg43XXnNqqfFkiGXPBrDiOVm40]--></g></svg>