<?xml version="1.0" encoding="us-ascii" standalone="no"?><svg xmlns="http://www.w3.org/2000/svg" xmlns:xlink="http://www.w3.org/1999/xlink" contentStyleType="text/css" height="555px" preserveAspectRatio="none" style="width:1804px;height:555px;background:#FFFFFF;" version="1.1" viewBox="0 0 1804 555" width="1804px" zoomAndPan="magnify"><defs/><g><g id="INVESTIGADORES_ABIERTOS"><rect fill="#F1F1F1" height="50" rx="12.5" ry="12.5" style="stroke:#181818;stroke-width:0.5;" width="217" x="7" y="7"/><line style="stroke:#181818;stroke-width:0.5;" x1="7" x2="224" y1="34.6094" y2="34.6094"/><text fill="#000000" font-family="sans-serif" font-size="14" lengthAdjust="spacing" textLength="197" x="17" y="26.5332">INVESTIGADORES_ABIERTOS</text></g><path d="M806,118 L1107,118 A12.5,12.5 0 0 1 1119.5,130.5 L1119.5,145.6094 L793.5,145.6094 L793.5,130.5 A12.5,12.5 0 0 1 806,118 " fill="#F1F1F1" style="stroke:#F1F1F1;stroke-width:1.0;"/><rect fill="none" height="284.6094" rx="12.5" ry="12.5" style="stroke:#181818;stroke-width:0.5;" width="326" x="793.5" y="118"/><line style="stroke:#181818;stroke-width:0.5;" x1="793.5" x2="1119.5" y1="145.6094" y2="145.6094"/><text fill="#000000" font-family="sans-serif" font-size="14" lengthAdjust="spacing" textLength="129" x="892" y="137.5332">abrirPanelPrincipal()</text><g id="abrirPanelPrincipal.MostrandoPanel"><rect fill="#F1F1F1" height="50" rx="12.5" ry="12.5" style="stroke:#181818;stroke-width:0.5;" width="50" x="805.5" y="248.6094"/><line style="stroke:#181818;stroke-width:0.5;" x1="805.5" x2="855.5" y1="276.2188" y2="276.2188"/><text fill="#000000" font-family="sans-serif" font-size="14" lengthAdjust="spacing" textLength="4" x="828.5" y="268.1426">&#160;</text></g><ellipse cx="830.5" cy="166.6094" fill="#222222" rx="10" ry="10" style="stroke:#222222;stroke-width:1.0;"/><ellipse cx="830.5" cy="381.6094" fill="none" rx="11" ry="11" style="stroke:#222222;stroke-width:1.0;"/><ellipse cx="830.5" cy="381.6094" fill="#222222" rx="6" ry="6" style="stroke:#222222;stroke-width:1.0;"/><!--link *start*abrirPanelPrincipal to MostrandoPanel--><g id="link_*start*abrirPanelPrincipal_MostrandoPanel"><path d="M830.5,176.9294 C830.5,192.7894 830.5,219.5194 830.5,242.2494 " fill="none" id="*start*abrirPanelPrincipal-to-MostrandoPanel" style="stroke:#008000;stroke-width:1.0;"/><polygon fill="#008000" points="830.5,248.2494,834.5,239.2494,830.5,243.2494,826.5,239.2494,830.5,248.2494" style="stroke:#008000;stroke-width:1.0;"/><path d="M835.5,199.6094 L835.5,225.6094 L1110.5,225.6094 L1110.5,209.6094 L1100.5,199.6094 L835.5,199.6094 " fill="#FEFFDD" style="stroke:#181818;stroke-width:0.5;"/><path d="M1100.5,199.6094 L1100.5,209.6094 L1110.5,209.6094 L1100.5,199.6094 " fill="#FEFFDD" style="stroke:#181818;stroke-width:0.5;"/><text fill="#000000" font-family="sans-serif" font-size="13" font-weight="bold" lengthAdjust="spacing" textLength="79" x="841.5" y="218.1045">Coordinador</text><text fill="#000000" font-family="sans-serif" font-size="13" lengthAdjust="spacing" textLength="171" x="924.5" y="218.1045">solicita abrir el panel principal</text></g><!--link MostrandoPanel to *end*abrirPanelPrincipal--><g id="link_MostrandoPanel_*end*abrirPanelPrincipal"><path d="M830.5,298.6594 C830.5,321.2594 830.5,347.9894 830.5,364.4094 " fill="none" id="MostrandoPanel-to-*end*abrirPanelPrincipal" style="stroke:#008000;stroke-width:1.0;"/><polygon fill="#008000" points="830.5,370.4094,834.5,361.4094,830.5,365.4094,826.5,361.4094,830.5,370.4094" style="stroke:#008000;stroke-width:1.0;"/><path d="M835.5,321.6094 L835.5,347.6094 L1059.5,347.6094 L1059.5,331.6094 L1049.5,321.6094 L835.5,321.6094 " fill="#FEFFDD" style="stroke:#181818;stroke-width:0.5;"/><path d="M1049.5,321.6094 L1049.5,331.6094 L1059.5,331.6094 L1049.5,321.6094 " fill="#FEFFDD" style="stroke:#181818;stroke-width:0.5;"/><text fill="#000000" font-family="sans-serif" font-size="13" font-weight="bold" lengthAdjust="spacing" textLength="51" x="841.5" y="340.1045">Sistema</text><text fill="#000000" font-family="sans-serif" font-size="13" lengthAdjust="spacing" textLength="148" x="896.5" y="340.1045">muestra el panel principal</text></g><g id="OPCIONES_CARGA_TRABAJO_ABIERTAS"><rect fill="#F1F1F1" height="50" rx="12.5" ry="12.5" style="stroke:#181818;stroke-width:0.5;" width="294" x="259.5" y="7"/><line style="stroke:#181818;stroke-width:0.5;" x1="259.5" x2="553.5" y1="34.6094" y2="34.6094"/><text fill="#000000" font-family="sans-serif" font-size="14" lengthAdjust="spacing" textLength="274" x="269.5" y="26.5332">OPCIONES_CARGA_TRABAJO_ABIERTAS</text></g><g id="OPCIONES_PERFIL_ABIERTO"><rect fill="#F1F1F1" height="50" rx="12.5" ry="12.5" style="stroke:#181818;stroke-width:0.5;" width="215" x="589" y="7"/><line style="stroke:#181818;stroke-width:0.5;" x1="589" x2="804" y1="34.6094" y2="34.6094"/><text fill="#000000" font-family="sans-serif" font-size="14" lengthAdjust="spacing" textLength="195" x="599" y="26.5332">OPCIONES_PERFIL_ABIERTO</text></g><g id="MIS_PUBLICACIONES_ABIERTAS"><rect fill="#F1F1F1" height="50" rx="12.5" ry="12.5" style="stroke:#181818;stroke-width:0.5;" width="234" x="839.5" y="7"/><line style="stroke:#181818;stroke-width:0.5;" x1="839.5" x2="1073.5" y1="34.6094" y2="34.6094"/><text fill="#000000" font-family="sans-serif" font-size="14" lengthAdjust="spacing" textLength="214" x="849.5" y="26.5332">MIS_PUBLICACIONES_ABIERTAS</text></g><g id="PUBLICACIONES_ABIERTAS"><rect fill="#F1F1F1" height="50" rx="12.5" ry="12.5" style="stroke:#181818;stroke-width:0.5;" width="203" x="1109" y="7"/><line style="stroke:#181818;stroke-width:0.5;" x1="1109" x2="1312" y1="34.6094" y2="34.6094"/><text fill="#000000" font-family="sans-serif" font-size="14" lengthAdjust="spacing" textLength="183" x="1119" y="26.5332">PUBLICACIONES_ABIERTAS</text></g><g id="CONVOCATORIAS_ABIERTAS"><rect fill="#F1F1F1" height="50" rx="12.5" ry="12.5" style="stroke:#181818;stroke-width:0.5;" width="215" x="1347" y="7"/><line style="stroke:#181818;stroke-width:0.5;" x1="1347" x2="1562" y1="34.6094" y2="34.6094"/><text fill="#000000" font-family="sans-serif" font-size="14" lengthAdjust="spacing" textLength="195" x="1357" y="26.5332">CONVOCATORIAS_ABIERTAS</text></g><g id="RECOMPENSAS_ABIERTAS"><rect fill="#F1F1F1" height="50" rx="12.5" ry="12.5" style="stroke:#181818;stroke-width:0.5;" width="200" x="1597.5" y="7"/><line style="stroke:#181818;stroke-width:0.5;" x1="1597.5" x2="1797.5" y1="34.6094" y2="34.6094"/><text fill="#000000" font-family="sans-serif" font-size="14" lengthAdjust="spacing" textLength="180" x="1607.5" y="26.5332">RECOMPENSAS_ABIERTAS</text></g><g id="PANEL_PRINCIPAL_ABIERTO"><rect fill="#F1F1F1" height="50" rx="12.5" ry="12.5" style="stroke:#181818;stroke-width:0.5;" width="210" x="851.5" y="499"/><line style="stroke:#181818;stroke-width:0.5;" x1="851.5" x2="1061.5" y1="526.6094" y2="526.6094"/><text fill="#000000" font-family="sans-serif" font-size="14" lengthAdjust="spacing" textLength="190" x="861.5" y="518.5332">PANEL_PRINCIPAL_ABIERTO</text></g><!--link INVESTIGADORES_ABIERTOS to abrirPanelPrincipal--><g id="link_INVESTIGADORES_ABIERTOS_abrirPanelPrincipal"><path d="M204.71,57.03 C344.53,94.68 611.6364,166.6197 787.3364,213.9397 " fill="none" id="INVESTIGADORES_ABIERTOS-to-abrirPanelPrincipal" style="stroke:#008000;stroke-width:1.0;"/><polygon fill="#008000" points="793.13,215.5,785.4799,209.2971,788.302,214.1997,783.3994,217.0219,793.13,215.5" style="stroke:#008000;stroke-width:1.0;"/></g><!--link OPCIONES_CARGA_TRABAJO_ABIERTAS to abrirPanelPrincipal--><g id="link_OPCIONES_CARGA_TRABAJO_ABIERTAS_abrirPanelPrincipal"><path d="M464.84,57.03 C542.39,88.96 676.982,144.3954 787.862,190.0554 " fill="none" id="OPCIONES_CARGA_TRABAJO_ABIERTAS-to-abrirPanelPrincipal" style="stroke:#008000;stroke-width:1.0;"/><polygon fill="#008000" points="793.41,192.34,786.6111,185.2144,788.7867,190.4361,783.5649,192.6117,793.41,192.34" style="stroke:#008000;stroke-width:1.0;"/></g><!--link OPCIONES_PERFIL_ABIERTO to abrirPanelPrincipal--><g id="link_OPCIONES_PERFIL_ABIERTO_abrirPanelPrincipal"><path d="M724.32,57.24 C742.21,72.82 762.5365,90.5182 789.3665,113.8982 " fill="none" id="OPCIONES_PERFIL_ABIERTO-to-abrirPanelPrincipal" style="stroke:#008000;stroke-width:1.0;"/><polygon fill="#008000" points="793.89,117.84,789.7326,108.9116,790.1204,114.5551,784.4769,114.9429,793.89,117.84" style="stroke:#008000;stroke-width:1.0;"/></g><!--link MIS_PUBLICACIONES_ABIERTAS to abrirPanelPrincipal--><g id="link_MIS_PUBLICACIONES_ABIERTAS_abrirPanelPrincipal"><path d="M956.5,57.24 C956.5,72.82 956.5,88.46 956.5,111.84 " fill="none" id="MIS_PUBLICACIONES_ABIERTAS-to-abrirPanelPrincipal" style="stroke:#008000;stroke-width:1.0;"/><polygon fill="#008000" points="956.5,117.84,960.5,108.84,956.5,112.84,952.5,108.84,956.5,117.84" style="stroke:#008000;stroke-width:1.0;"/></g><!--link PUBLICACIONES_ABIERTAS to abrirPanelPrincipal--><g id="link_PUBLICACIONES_ABIERTAS_abrirPanelPrincipal"><path d="M1183.32,57.24 C1165.85,72.82 1146.0475,90.466 1119.8375,113.846 " fill="none" id="PUBLICACIONES_ABIERTAS-to-abrirPanelPrincipal" style="stroke:#008000;stroke-width:1.0;"/><polygon fill="#008000" points="1115.36,117.84,1124.7389,114.8339,1119.0912,114.5116,1119.4135,108.864,1115.36,117.84" style="stroke:#008000;stroke-width:1.0;"/></g><!--link CONVOCATORIAS_ABIERTAS to abrirPanelPrincipal--><g id="link_CONVOCATORIAS_ABIERTAS_abrirPanelPrincipal"><path d="M1401.68,57.03 C1335.03,87.34 1222.7717,138.3961 1125.1217,182.8061 " fill="none" id="CONVOCATORIAS_ABIERTAS-to-abrirPanelPrincipal" style="stroke:#008000;stroke-width:1.0;"/><polygon fill="#008000" points="1119.66,185.29,1129.5085,185.2053,1124.2114,183.2201,1126.1966,177.923,1119.66,185.29" style="stroke:#008000;stroke-width:1.0;"/></g><!--link RECOMPENSAS_ABIERTAS to abrirPanelPrincipal--><g id="link_RECOMPENSAS_ABIERTAS_abrirPanelPrincipal"><path d="M1618.9,57.03 C1500.74,93.14 1280.4179,160.486 1125.5579,207.826 " fill="none" id="RECOMPENSAS_ABIERTAS-to-abrirPanelPrincipal" style="stroke:#008000;stroke-width:1.0;"/><polygon fill="#008000" points="1119.82,209.58,1129.5962,210.7742,1124.6016,208.1183,1127.2575,203.1237,1119.82,209.58" style="stroke:#008000;stroke-width:1.0;"/></g><!--link abrirPanelPrincipal to PANEL_PRINCIPAL_ABIERTO--><g id="link_abrirPanelPrincipal_PANEL_PRINCIPAL_ABIERTO"><path d="M956.5,403.35 C956.5,440.33 956.5,470.12 956.5,492.76 " fill="none" id="abrirPanelPrincipal-to-PANEL_PRINCIPAL_ABIERTO" style="stroke:#008000;stroke-width:1.0;"/><polygon fill="#008000" points="956.5,498.76,960.5,489.76,956.5,493.76,952.5,489.76,956.5,498.76" style="stroke:#008000;stroke-width:1.0;"/><path d="M961.5,438 L961.5,464 L1104.5,464 L1104.5,448 L1094.5,438 L961.5,438 " fill="#FEFFDD" style="stroke:#181818;stroke-width:0.5;"/><path d="M1094.5,438 L1094.5,448 L1104.5,448 L1094.5,438 " fill="#FEFFDD" style="stroke:#181818;stroke-width:0.5;"/><text fill="#000000" font-family="sans-serif" font-size="13" lengthAdjust="spacing" textLength="122" x="967.5" y="456.4951">panel principal visible</text></g><!--SRC=[dPBHQiCW64RlVGhfRhP1sGkKWdMkED8e9kjDASKqCgH6WsQ3ClRkCqbNbjBHTV4gvZl_-IA6dRQrzBA2HblLx6i5QsVsxGi0D5sIBATpzCW4oJPeHed8MGR7gvjNhvHTZwTG5bvxBgqot6kxrRKqW75CMHe9ZCGSRNA1PkYP7NXq1S-9UAB9j_WYjw0HUPab5AF3W3yh_ubXbYuPHZaJ55s12OBPWfCqkmO2eP6DElS9oW17P_PlxqRm0m0OdvuTnHMp2nSQBstfkdWVMDsl1mrECct4kZZ2sVQcxBgDIJ75plbIMrawFtaefZ0uexUwaNrDg0oiMnxMnzzeGMNBRbgl7ge6BMAhNzMP3esgPAUjtbGxuwBl4u1pv_TJoL5AaWqNDCMKe-Fb0uCA9nBuheCkZ097qHS0]--></g></svg>