<?xml version="1.0" encoding="us-ascii" standalone="no"?><svg xmlns="http://www.w3.org/2000/svg" xmlns:xlink="http://www.w3.org/1999/xlink" contentStyleType="text/css" height="555px" preserveAspectRatio="none" style="width:2449px;height:555px;background:#FFFFFF;" version="1.1" viewBox="0 0 2449 555" width="2449px" zoomAndPan="magnify"><defs/><g><g id="in1"><rect fill="#F1F1F1" height="50" rx="12.5" ry="12.5" style="stroke:#181818;stroke-width:0.5;" width="217" x="213.5" y="7"/><line style="stroke:#181818;stroke-width:0.5;" x1="213.5" x2="430.5" y1="34.6094" y2="34.6094"/><text fill="#000000" font-family="sans-serif" font-size="14" lengthAdjust="spacing" textLength="197" x="223.5" y="26.5332">INVESTIGADORES_ABIERTOS</text></g><path d="M1079.5,118 L1500.5,118 A12.5,12.5 0 0 1 1513,130.5 L1513,145.6094 L1067,145.6094 L1067,130.5 A12.5,12.5 0 0 1 1079.5,118 " fill="#F1F1F1" style="stroke:#F1F1F1;stroke-width:1.0;"/><rect fill="none" height="284.6094" rx="12.5" ry="12.5" style="stroke:#181818;stroke-width:0.5;" width="446" x="1067" y="118"/><line style="stroke:#181818;stroke-width:0.5;" x1="1067" x2="1513" y1="145.6094" y2="145.6094"/><text fill="#000000" font-family="sans-serif" font-size="14" lengthAdjust="spacing" textLength="129" x="1225.5" y="137.5332">abrirPanelPrincipal()</text><g id="abrirPanelPrincipal.MostrandoPanel"><rect fill="#F1F1F1" height="50" rx="12.5" ry="12.5" style="stroke:#181818;stroke-width:0.5;" width="50" x="1079" y="248.6094"/><line style="stroke:#181818;stroke-width:0.5;" x1="1079" x2="1129" y1="276.2188" y2="276.2188"/><text fill="#000000" font-family="sans-serif" font-size="14" lengthAdjust="spacing" textLength="4" x="1102" y="268.1426">&#160;</text></g><ellipse cx="1104" cy="166.6094" fill="#222222" rx="10" ry="10" style="stroke:#222222;stroke-width:1.0;"/><ellipse cx="1104" cy="381.6094" fill="none" rx="11" ry="11" style="stroke:#222222;stroke-width:1.0;"/><ellipse cx="1104" cy="381.6094" fill="#222222" rx="6" ry="6" style="stroke:#222222;stroke-width:1.0;"/><!--link *start*abrirPanelPrincipal to MostrandoPanel--><g id="link_*start*abrirPanelPrincipal_MostrandoPanel"><path d="M1104,176.9294 C1104,192.7894 1104,219.5194 1104,242.2494 " fill="none" id="*start*abrirPanelPrincipal-to-MostrandoPanel" style="stroke:#008000;stroke-width:1.0;"/><polygon fill="#008000" points="1104,248.2494,1108,239.2494,1104,243.2494,1100,239.2494,1104,248.2494" style="stroke:#008000;stroke-width:1.0;"/><path d="M1109,199.6094 L1109,225.6094 L1384,225.6094 L1384,209.6094 L1374,199.6094 L1109,199.6094 " fill="#FEFFDD" style="stroke:#181818;stroke-width:0.5;"/><path d="M1374,199.6094 L1374,209.6094 L1384,209.6094 L1374,199.6094 " fill="#FEFFDD" style="stroke:#181818;stroke-width:0.5;"/><text fill="#000000" font-family="sans-serif" font-size="13" font-weight="bold" lengthAdjust="spacing" textLength="79" x="1115" y="218.1045">Coordinador</text><text fill="#000000" font-family="sans-serif" font-size="13" lengthAdjust="spacing" textLength="171" x="1198" y="218.1045">solicita abrir el panel principal</text></g><!--link MostrandoPanel to *end*abrirPanelPrincipal--><g id="link_MostrandoPanel_*end*abrirPanelPrincipal"><path d="M1104,298.6594 C1104,321.2594 1104,347.9894 1104,364.4094 " fill="none" id="MostrandoPanel-to-*end*abrirPanelPrincipal" style="stroke:#008000;stroke-width:1.0;"/><polygon fill="#008000" points="1104,370.4094,1108,361.4094,1104,365.4094,1100,361.4094,1104,370.4094" style="stroke:#008000;stroke-width:1.0;"/><path d="M1109,321.6094 L1109,347.6094 L1504,347.6094 L1504,331.6094 L1494,321.6094 L1109,321.6094 " fill="#FEFFDD" style="stroke:#181818;stroke-width:0.5;"/><path d="M1494,321.6094 L1494,331.6094 L1504,331.6094 L1494,321.6094 " fill="#FEFFDD" style="stroke:#181818;stroke-width:0.5;"/><text fill="#000000" font-family="sans-serif" font-size="13" font-weight="bold" lengthAdjust="spacing" textLength="51" x="1115" y="340.1045">Sistema</text><text fill="#000000" font-family="sans-serif" font-size="13" lengthAdjust="spacing" textLength="319" x="1170" y="340.1045">muestra el panel principal con las opciones disponibles</text></g><g id="in2"><rect fill="#F1F1F1" height="50" rx="12.5" ry="12.5" style="stroke:#181818;stroke-width:0.5;" width="294" x="466" y="7"/><line style="stroke:#181818;stroke-width:0.5;" x1="466" x2="760" y1="34.6094" y2="34.6094"/><text fill="#000000" font-family="sans-serif" font-size="14" lengthAdjust="spacing" textLength="274" x="476" y="26.5332">OPCIONES_CARGA_TRABAJO_ABIERTAS</text></g><g id="in3"><rect fill="#F1F1F1" height="50" rx="12.5" ry="12.5" style="stroke:#181818;stroke-width:0.5;" width="215" x="795.5" y="7"/><line style="stroke:#181818;stroke-width:0.5;" x1="795.5" x2="1010.5" y1="34.6094" y2="34.6094"/><text fill="#000000" font-family="sans-serif" font-size="14" lengthAdjust="spacing" textLength="195" x="805.5" y="26.5332">OPCIONES_PERFIL_ABIERTO</text></g><g id="in4"><rect fill="#F1F1F1" height="50" rx="12.5" ry="12.5" style="stroke:#181818;stroke-width:0.5;" width="234" x="1046" y="7"/><line style="stroke:#181818;stroke-width:0.5;" x1="1046" x2="1280" y1="34.6094" y2="34.6094"/><text fill="#000000" font-family="sans-serif" font-size="14" lengthAdjust="spacing" textLength="214" x="1056" y="26.5332">MIS_PUBLICACIONES_ABIERTAS</text></g><g id="in5"><rect fill="#F1F1F1" height="50" rx="12.5" ry="12.5" style="stroke:#181818;stroke-width:0.5;" width="203" x="1315.5" y="7"/><line style="stroke:#181818;stroke-width:0.5;" x1="1315.5" x2="1518.5" y1="34.6094" y2="34.6094"/><text fill="#000000" font-family="sans-serif" font-size="14" lengthAdjust="spacing" textLength="183" x="1325.5" y="26.5332">PUBLICACIONES_ABIERTAS</text></g><g id="in6"><rect fill="#F1F1F1" height="50" rx="12.5" ry="12.5" style="stroke:#181818;stroke-width:0.5;" width="215" x="1553.5" y="7"/><line style="stroke:#181818;stroke-width:0.5;" x1="1553.5" x2="1768.5" y1="34.6094" y2="34.6094"/><text fill="#000000" font-family="sans-serif" font-size="14" lengthAdjust="spacing" textLength="195" x="1563.5" y="26.5332">CONVOCATORIAS_ABIERTAS</text></g><g id="in7"><rect fill="#F1F1F1" height="50" rx="12.5" ry="12.5" style="stroke:#181818;stroke-width:0.5;" width="200" x="1804" y="7"/><line style="stroke:#181818;stroke-width:0.5;" x1="1804" x2="2004" y1="34.6094" y2="34.6094"/><text fill="#000000" font-family="sans-serif" font-size="14" lengthAdjust="spacing" textLength="180" x="1814" y="26.5332">RECOMPENSAS_ABIERTAS</text></g><g id="in8"><rect fill="#F1F1F1" height="50" rx="12.5" ry="12.5" style="stroke:#181818;stroke-width:0.5;" width="184" x="2039" y="7"/><line style="stroke:#181818;stroke-width:0.5;" x1="2039" x2="2223" y1="34.6094" y2="34.6094"/><text fill="#000000" font-family="sans-serif" font-size="14" lengthAdjust="spacing" textLength="164" x="2049" y="26.5332">PROYECTOS_ABIERTOS</text></g><g id="PANEL_PRINCIPAL_ABIERTO"><rect fill="#F1F1F1" height="50" rx="12.5" ry="12.5" style="stroke:#181818;stroke-width:0.5;" width="210" x="7" y="499"/><line style="stroke:#181818;stroke-width:0.5;" x1="7" x2="217" y1="526.6094" y2="526.6094"/><text fill="#000000" font-family="sans-serif" font-size="14" lengthAdjust="spacing" textLength="190" x="17" y="518.5332">PANEL_PRINCIPAL_ABIERTO</text></g><g id="OPCIONES_PERFIL_ABIERTO"><rect fill="#F1F1F1" height="50" rx="12.5" ry="12.5" style="stroke:#181818;stroke-width:0.5;" width="215" x="252.5" y="499"/><line style="stroke:#181818;stroke-width:0.5;" x1="252.5" x2="467.5" y1="526.6094" y2="526.6094"/><text fill="#000000" font-family="sans-serif" font-size="14" lengthAdjust="spacing" textLength="195" x="262.5" y="518.5332">OPCIONES_PERFIL_ABIERTO</text></g><g id="OPCIONES_CARGA_TRABAJO_ABIERTAS"><rect fill="#F1F1F1" height="50" rx="12.5" ry="12.5" style="stroke:#181818;stroke-width:0.5;" width="294" x="503" y="499"/><line style="stroke:#181818;stroke-width:0.5;" x1="503" x2="797" y1="526.6094" y2="526.6094"/><text fill="#000000" font-family="sans-serif" font-size="14" lengthAdjust="spacing" textLength="274" x="513" y="518.5332">OPCIONES_CARGA_TRABAJO_ABIERTAS</text></g><g id="PROYECTOS_ABIERTOS"><rect fill="#F1F1F1" height="50" rx="12.5" ry="12.5" style="stroke:#181818;stroke-width:0.5;" width="184" x="832" y="499"/><line style="stroke:#181818;stroke-width:0.5;" x1="832" x2="1016" y1="526.6094" y2="526.6094"/><text fill="#000000" font-family="sans-serif" font-size="14" lengthAdjust="spacing" textLength="164" x="842" y="518.5332">PROYECTOS_ABIERTOS</text></g><g id="INVESTIGADORES_ABIERTOS"><rect fill="#F1F1F1" height="50" rx="12.5" ry="12.5" style="stroke:#181818;stroke-width:0.5;" width="217" x="1051.5" y="499"/><line style="stroke:#181818;stroke-width:0.5;" x1="1051.5" x2="1268.5" y1="526.6094" y2="526.6094"/><text fill="#000000" font-family="sans-serif" font-size="14" lengthAdjust="spacing" textLength="197" x="1061.5" y="518.5332">INVESTIGADORES_ABIERTOS</text></g><g id="MIS_PUBLICACIONES_ABIERTAS"><rect fill="#F1F1F1" height="50" rx="12.5" ry="12.5" style="stroke:#181818;stroke-width:0.5;" width="234" x="1304" y="499"/><line style="stroke:#181818;stroke-width:0.5;" x1="1304" x2="1538" y1="526.6094" y2="526.6094"/><text fill="#000000" font-family="sans-serif" font-size="14" lengthAdjust="spacing" textLength="214" x="1314" y="518.5332">MIS_PUBLICACIONES_ABIERTAS</text></g><g id="PUBLICACIONES_ABIERTAS"><rect fill="#F1F1F1" height="50" rx="12.5" ry="12.5" style="stroke:#181818;stroke-width:0.5;" width="203" x="1573.5" y="499"/><line style="stroke:#181818;stroke-width:0.5;" x1="1573.5" x2="1776.5" y1="526.6094" y2="526.6094"/><text fill="#000000" font-family="sans-serif" font-size="14" lengthAdjust="spacing" textLength="183" x="1583.5" y="518.5332">PUBLICACIONES_ABIERTAS</text></g><g id="CONVOCATORIAS_ABIERTAS"><rect fill="#F1F1F1" height="50" rx="12.5" ry="12.5" style="stroke:#181818;stroke-width:0.5;" width="215" x="1811.5" y="499"/><line style="stroke:#181818;stroke-width:0.5;" x1="1811.5" x2="2026.5" y1="526.6094" y2="526.6094"/><text fill="#000000" font-family="sans-serif" font-size="14" lengthAdjust="spacing" textLength="195" x="1821.5" y="518.5332">CONVOCATORIAS_ABIERTAS</text></g><g id="RECOMPENSAS_ABIERTAS"><rect fill="#F1F1F1" height="50" rx="12.5" ry="12.5" style="stroke:#181818;stroke-width:0.5;" width="200" x="2062" y="499"/><line style="stroke:#181818;stroke-width:0.5;" x1="2062" x2="2262" y1="526.6094" y2="526.6094"/><text fill="#000000" font-family="sans-serif" font-size="14" lengthAdjust="spacing" textLength="180" x="2072" y="518.5332">RECOMPENSAS_ABIERTAS</text></g><g id="SESION_CERRADA"><rect fill="#F1F1F1" height="50" rx="12.5" ry="12.5" style="stroke:#181818;stroke-width:0.5;" width="145" x="2297.5" y="499"/><line style="stroke:#181818;stroke-width:0.5;" x1="2297.5" x2="2442.5" y1="526.6094" y2="526.6094"/><text fill="#000000" font-family="sans-serif" font-size="14" lengthAdjust="spacing" textLength="125" x="2307.5" y="518.5332">SESION_CERRADA</text></g><!--link in1 to abrirPanelPrincipal--><g id="link_in1_abrirPanelPrincipal"><path d="M424.68,57.03 C576.49,92.55 858.7678,158.5929 1060.6878,205.8429 " fill="none" id="in1-to-abrirPanelPrincipal" style="stroke:#008000;stroke-width:1.0;"/><polygon fill="#008000" points="1066.53,207.21,1058.6781,201.2646,1061.6615,206.0708,1056.8553,209.0542,1066.53,207.21" style="stroke:#008000;stroke-width:1.0;"/></g><!--link in2 to abrirPanelPrincipal--><g id="link_in2_abrirPanelPrincipal"><path d="M684.81,57.03 C775.07,87.22 928.55,138.5764 1061,182.8864 " fill="none" id="in2-to-abrirPanelPrincipal" style="stroke:#008000;stroke-width:1.0;"/><polygon fill="#008000" points="1066.69,184.79,1059.424,178.1413,1061.9483,183.2037,1056.8859,185.728,1066.69,184.79" style="stroke:#008000;stroke-width:1.0;"/></g><!--link in3 to abrirPanelPrincipal--><g id="link_in3_abrirPanelPrincipal"><path d="M944.05,57.03 C974.79,75.01 1014.322,98.1488 1061.452,125.7388 " fill="none" id="in3-to-abrirPanelPrincipal" style="stroke:#008000;stroke-width:1.0;"/><polygon fill="#008000" points="1066.63,128.77,1060.8838,120.7712,1062.315,126.244,1056.8422,127.6752,1066.63,128.77" style="stroke:#008000;stroke-width:1.0;"/></g><!--link in4 to abrirPanelPrincipal--><g id="link_in4_abrirPanelPrincipal"><path d="M1176.59,57.24 C1185.33,72.82 1194.5254,89.2266 1207.6354,112.6066 " fill="none" id="in4-to-abrirPanelPrincipal" style="stroke:#008000;stroke-width:1.0;"/><polygon fill="#008000" points="1210.57,117.84,1209.6571,108.0335,1208.1245,113.4788,1202.6792,111.9463,1210.57,117.84" style="stroke:#008000;stroke-width:1.0;"/></g><!--link in5 to abrirPanelPrincipal--><g id="link_in5_abrirPanelPrincipal"><path d="M1403.41,57.24 C1394.67,72.82 1385.4746,89.2266 1372.3646,112.6066 " fill="none" id="in5-to-abrirPanelPrincipal" style="stroke:#008000;stroke-width:1.0;"/><polygon fill="#008000" points="1369.43,117.84,1377.3208,111.9463,1371.8755,113.4788,1370.3429,108.0335,1369.43,117.84" style="stroke:#008000;stroke-width:1.0;"/></g><!--link in6 to abrirPanelPrincipal--><g id="link_in6_abrirPanelPrincipal"><path d="M1621.65,57.03 C1594.14,73.82 1560.0811,94.6135 1518.2311,120.1635 " fill="none" id="in6-to-abrirPanelPrincipal" style="stroke:#008000;stroke-width:1.0;"/><polygon fill="#008000" points="1513.11,123.29,1522.8759,122.0143,1517.3775,120.6846,1518.7073,115.1863,1513.11,123.29" style="stroke:#008000;stroke-width:1.0;"/></g><!--link in7 to abrirPanelPrincipal--><g id="link_in7_abrirPanelPrincipal"><path d="M1838.87,57.03 C1761.64,85.52 1634.4093,132.4537 1518.7493,175.1137 " fill="none" id="in7-to-abrirPanelPrincipal" style="stroke:#008000;stroke-width:1.0;"/><polygon fill="#008000" points="1513.12,177.19,1522.9481,177.8284,1517.8111,175.4597,1520.1797,170.3227,1513.12,177.19" style="stroke:#008000;stroke-width:1.0;"/></g><!--link in8 to abrirPanelPrincipal--><g id="link_in8_abrirPanelPrincipal"><path d="M2041.79,57.03 C1916.98,90.64 1691.9136,151.2597 1518.8136,197.8797 " fill="none" id="in8-to-abrirPanelPrincipal" style="stroke:#008000;stroke-width:1.0;"/><polygon fill="#008000" points="1513.02,199.44,1522.7506,200.9619,1517.848,198.1397,1520.6701,193.2371,1513.02,199.44" style="stroke:#008000;stroke-width:1.0;"/></g><!--link abrirPanelPrincipal to PANEL_PRINCIPAL_ABIERTO--><g id="link_abrirPanelPrincipal_PANEL_PRINCIPAL_ABIERTO"><path d="M1066.73,301.76 C785.63,352.46 339,433 339,433 C339,433 245.3577,470.1288 178.1077,496.7888 " fill="none" id="abrirPanelPrincipal-to-PANEL_PRINCIPAL_ABIERTO" style="stroke:#008000;stroke-width:1.0;"/><polygon fill="#008000" points="172.53,499,182.3707,499.4017,177.1781,497.1574,179.4224,491.9648,172.53,499" style="stroke:#008000;stroke-width:1.0;"/><path d="M344,438 L344,464 L489,464 L489,448 L479,438 L344,438 " fill="#FEFFDD" style="stroke:#181818;stroke-width:0.5;"/><path d="M479,438 L479,448 L489,448 L479,438 " fill="#FEFFDD" style="stroke:#181818;stroke-width:0.5;"/><text fill="#000000" font-family="sans-serif" font-size="13" lengthAdjust="spacing" textLength="124" x="350" y="456.4951">Panel principal visible</text></g><!--link abrirPanelPrincipal to OPCIONES_PERFIL_ABIERTO--><g id="link_abrirPanelPrincipal_OPCIONES_PERFIL_ABIERTO"><path d="M1066.92,316 C861.36,366.22 588,433 588,433 C588,433 493.9209,470.137 426.3809,496.797 " fill="none" id="abrirPanelPrincipal-to-OPCIONES_PERFIL_ABIERTO" style="stroke:#008000;stroke-width:1.0;"/><polygon fill="#008000" points="420.8,499,430.6401,499.4162,425.4508,497.1642,427.7028,491.9749,420.8,499" style="stroke:#008000;stroke-width:1.0;"/><path d="M593,438 L593,464 L731,464 L731,448 L721,438 L593,438 " fill="#FEFFDD" style="stroke:#181818;stroke-width:0.5;"/><path d="M721,438 L721,448 L731,448 L721,438 " fill="#FEFFDD" style="stroke:#181818;stroke-width:0.5;"/><text fill="#000000" font-family="sans-serif" font-size="13" lengthAdjust="spacing" textLength="117" x="599" y="456.4951">abrirOpcionesPerfil()</text></g><!--link abrirPanelPrincipal to OPCIONES_CARGA_TRABAJO_ABIERTAS--><g id="link_abrirPanelPrincipal_OPCIONES_CARGA_TRABAJO_ABIERTAS"><path d="M1066.96,339.72 C938,384.95 801,433 801,433 C801,433 740.3437,469.1476 695.6237,495.8076 " fill="none" id="abrirPanelPrincipal-to-OPCIONES_CARGA_TRABAJO_ABIERTAS" style="stroke:#008000;stroke-width:1.0;"/><polygon fill="#008000" points="690.47,498.88,700.2488,497.7072,694.7647,496.3197,696.1523,490.8356,690.47,498.88" style="stroke:#008000;stroke-width:1.0;"/><path d="M806,438 L806,464 L991,464 L991,448 L981,438 L806,438 " fill="#FEFFDD" style="stroke:#181818;stroke-width:0.5;"/><path d="M981,438 L981,448 L991,448 L981,438 " fill="#FEFFDD" style="stroke:#181818;stroke-width:0.5;"/><text fill="#000000" font-family="sans-serif" font-size="13" lengthAdjust="spacing" textLength="164" x="812" y="456.4951">abrirOpcionesCargaTrabajo()</text></g><!--link abrirPanelPrincipal to PROYECTOS_ABIERTOS--><g id="link_abrirPanelPrincipal_PROYECTOS_ABIERTOS"><path d="M1091.74,403.16 C1039.75,440.3 994.3018,472.7717 962.5618,495.4517 " fill="none" id="abrirPanelPrincipal-to-PROYECTOS_ABIERTOS" style="stroke:#008000;stroke-width:1.0;"/><polygon fill="#008000" points="957.68,498.94,967.3282,496.9621,961.7481,496.0331,962.6771,490.453,957.68,498.94" style="stroke:#008000;stroke-width:1.0;"/><path d="M1048,438 L1048,464 L1161,464 L1161,448 L1151,438 L1048,438 " fill="#FEFFDD" style="stroke:#181818;stroke-width:0.5;"/><path d="M1151,438 L1151,448 L1161,448 L1151,438 " fill="#FEFFDD" style="stroke:#181818;stroke-width:0.5;"/><text fill="#000000" font-family="sans-serif" font-size="13" lengthAdjust="spacing" textLength="92" x="1054" y="456.4951">abrirProyectos()</text></g><!--link abrirPanelPrincipal to INVESTIGADORES_ABIERTOS--><g id="link_abrirPanelPrincipal_INVESTIGADORES_ABIERTOS"><path d="M1219.48,403.35 C1201.1,440.33 1185.9819,470.7478 1174.7219,493.3878 " fill="none" id="abrirPanelPrincipal-to-INVESTIGADORES_ABIERTOS" style="stroke:#008000;stroke-width:1.0;"/><polygon fill="#008000" points="1172.05,498.76,1179.6393,492.4829,1174.2766,494.2831,1172.4763,488.9204,1172.05,498.76" style="stroke:#008000;stroke-width:1.0;"/><path d="M1208,438 L1208,464 L1344,464 L1344,448 L1334,438 L1208,438 " fill="#FEFFDD" style="stroke:#181818;stroke-width:0.5;"/><path d="M1334,438 L1334,448 L1344,448 L1334,438 " fill="#FEFFDD" style="stroke:#181818;stroke-width:0.5;"/><text fill="#000000" font-family="sans-serif" font-size="13" lengthAdjust="spacing" textLength="115" x="1214" y="456.4951">abrirInvestigadores()</text></g><!--link abrirPanelPrincipal to MIS_PUBLICACIONES_ABIERTAS--><g id="link_abrirPanelPrincipal_MIS_PUBLICACIONES_ABIERTAS"><path d="M1361.06,403.35 C1379.58,440.33 1394.821,470.7563 1406.171,493.3963 " fill="none" id="abrirPanelPrincipal-to-MIS_PUBLICACIONES_ABIERTAS" style="stroke:#008000;stroke-width:1.0;"/><polygon fill="#008000" points="1408.86,498.76,1408.4024,488.9218,1406.6192,494.2902,1401.2507,492.5071,1408.86,498.76" style="stroke:#008000;stroke-width:1.0;"/><path d="M1398,438 L1398,464 L1554,464 L1554,448 L1544,438 L1398,438 " fill="#FEFFDD" style="stroke:#181818;stroke-width:0.5;"/><path d="M1544,438 L1544,448 L1554,448 L1544,438 " fill="#FEFFDD" style="stroke:#181818;stroke-width:0.5;"/><text fill="#000000" font-family="sans-serif" font-size="13" lengthAdjust="spacing" textLength="135" x="1404" y="456.4951">abrirMisPublicaciones()</text></g><!--link abrirPanelPrincipal to PUBLICACIONES_ABIERTAS--><g id="link_abrirPanelPrincipal_PUBLICACIONES_ABIERTAS"><path d="M1513.26,399.73 C1544.94,419.34 1567,433 1567,433 C1567,433 1609.4608,468.3788 1641.4508,495.0388 " fill="none" id="abrirPanelPrincipal-to-PUBLICACIONES_ABIERTAS" style="stroke:#008000;stroke-width:1.0;"/><polygon fill="#008000" points="1646.06,498.88,1641.707,490.0453,1642.219,495.679,1636.5854,496.1909,1646.06,498.88" style="stroke:#008000;stroke-width:1.0;"/><path d="M1614,438 L1614,464 L1749,464 L1749,448 L1739,438 L1614,438 " fill="#FEFFDD" style="stroke:#181818;stroke-width:0.5;"/><path d="M1739,438 L1739,448 L1749,448 L1739,438 " fill="#FEFFDD" style="stroke:#181818;stroke-width:0.5;"/><text fill="#000000" font-family="sans-serif" font-size="13" lengthAdjust="spacing" textLength="114" x="1620" y="456.4951">abrirPublicaciones()</text></g><!--link abrirPanelPrincipal to CONVOCATORIAS_ABIERTAS--><g id="link_abrirPanelPrincipal_CONVOCATORIAS_ABIERTAS"><path d="M1513.21,342.6 C1635.32,386.97 1762,433 1762,433 C1762,433 1825.2145,469.2362 1871.7245,495.8962 " fill="none" id="abrirPanelPrincipal-to-CONVOCATORIAS_ABIERTAS" style="stroke:#008000;stroke-width:1.0;"/><polygon fill="#008000" points="1876.93,498.88,1871.111,490.934,1872.5921,496.3935,1867.1326,497.8746,1876.93,498.88" style="stroke:#008000;stroke-width:1.0;"/><path d="M1827,438 L1827,464 L1962,464 L1962,448 L1952,438 L1827,438 " fill="#FEFFDD" style="stroke:#181818;stroke-width:0.5;"/><path d="M1952,438 L1952,448 L1962,448 L1952,438 " fill="#FEFFDD" style="stroke:#181818;stroke-width:0.5;"/><text fill="#000000" font-family="sans-serif" font-size="13" lengthAdjust="spacing" textLength="114" x="1833" y="456.4951">abrirConvocatorias()</text></g><!--link abrirPanelPrincipal to RECOMPENSAS_ABIERTAS--><g id="link_abrirPanelPrincipal_RECOMPENSAS_ABIERTAS"><path d="M1513.35,317.42 C1713.24,367.47 1975,433 1975,433 C1975,433 2051.0936,469.6178 2106.4836,496.2778 " fill="none" id="abrirPanelPrincipal-to-RECOMPENSAS_ABIERTAS" style="stroke:#008000;stroke-width:1.0;"/><polygon fill="#008000" points="2111.89,498.88,2105.5152,491.3725,2107.3847,496.7115,2102.0457,498.581,2111.89,498.88" style="stroke:#008000;stroke-width:1.0;"/><path d="M2051,438 L2051,464 L2188,464 L2188,448 L2178,438 L2051,438 " fill="#FEFFDD" style="stroke:#181818;stroke-width:0.5;"/><path d="M2178,438 L2178,448 L2188,448 L2178,438 " fill="#FEFFDD" style="stroke:#181818;stroke-width:0.5;"/><text fill="#000000" font-family="sans-serif" font-size="13" lengthAdjust="spacing" textLength="116" x="2057" y="456.4951">abrirRecompensas()</text></g><!--link abrirPanelPrincipal to SESION_CERRADA--><g id="link_abrirPanelPrincipal_SESION_CERRADA"><path d="M1513.15,303.51 C1782.86,354.28 2201,433 2201,433 C2201,433 2269.3542,469.3997 2319.4142,496.0597 " fill="none" id="abrirPanelPrincipal-to-SESION_CERRADA" style="stroke:#008000;stroke-width:1.0;"/><polygon fill="#008000" points="2324.71,498.88,2318.6465,491.1189,2320.2968,496.5297,2314.886,498.18,2324.71,498.88" style="stroke:#008000;stroke-width:1.0;"/><path d="M2270,438 L2270,464 L2372,464 L2372,448 L2362,438 L2270,438 " fill="#FEFFDD" style="stroke:#181818;stroke-width:0.5;"/><path d="M2362,438 L2362,448 L2372,448 L2362,438 " fill="#FEFFDD" style="stroke:#181818;stroke-width:0.5;"/><text fill="#000000" font-family="sans-serif" font-size="13" lengthAdjust="spacing" textLength="81" x="2276" y="456.4951">cerrarSesion()</text></g><!--SRC=[dPJVQzim483V_LU8x6KRbB7-VYW1HVMAHc89EIkCKeBiQ46h8nd93PIn_tsIdBLnfgnsawVOf- -xkvpEFaXLSyFNe99AD4-r0BMkdloF9B4DRmIGwZFW5enmTflcStm3hmbBymMSu9JDIJvAVC3HtRkL4KBT7uq1Bumqb2jHKIDLAMjUlR2E0ujGX4dcA0Yo6xYOCpY1NycM2GFpk3_pfCkaAVk2ftyJzAoJ_gpJm9fXX_ascM84jz3Tr4xxuyu2xZ3gh3_gFA0GoMu9WdF2CEoYplkZBWAAfOZCQ9hbUw2B_g3BjZn6lgV8pK9dA2vVnsmvaNU16td-_iC8_4eIu3xjsP7xkjYPjetXQgb3U1jmz_6-ay9UZ0zHsY6qyiF_41vS5MEajLbAnPVQN7qgni3gIfQouMsQG5IWzkT1_Lo7FoZKCj1QTLVLoS9bTL2TIzk8DG_QzQFmZ8WFbFwOArhNfTHAMB2KjjPA5fMmtMH-9qcikRlvK9YbqmLbE4EOmkThatJoetiPRAJrjkIbwjSq1svdLnCWP5iL5UQ7T7_uMoJnjV8V6U9cnUU65_od7gJyT_OZ5chqaoWRRGUX3opS21-hZHiMkV8pAuP93c-wY6ScBNqit7NWRTU6TQglvUsA-7ACA91M6rtoHXl9XobYIpCYOABKwreeEn2VfxdhpmAbZC5hs0MNmXXkSc5TOtQXVm00]--></g></svg>