<svg xmlns="http://www.w3.org/2000/svg" xmlns:xlink="http://www.w3.org/1999/xlink" contentStyleType="text/css" data-diagram-type="STATE" height="650px" preserveAspectRatio="none" style="width:509px;height:650px;background:#FFFFFF;" version="1.1" viewBox="0 0 509 650" width="509px" zoomAndPan="magnify"><defs/><g><path d="M19.5,7 L406.5,7 A12.5,12.5 0 0 1 419,19.5 L419,33.2969 L7,33.2969 L7,19.5 A12.5,12.5 0 0 1 19.5,7" fill="#F1F1F1"/><rect fill="none" height="492.2969" rx="12.5" ry="12.5" style="stroke:#181818;stroke-width:0.5;" width="412" x="7" y="7"/><line style="stroke:#181818;stroke-width:0.5;" x1="7" x2="419" y1="33.2969" y2="33.2969"/><text fill="#000000" font-family="sans-serif" font-size="14" lengthAdjust="spacing" textLength="144.1494" x="140.9253" y="24.9951">abrirOpcionesPerfil()</text><g><rect fill="#F1F1F1" height="50" rx="12.5" ry="12.5" style="stroke:#181818;stroke-width:0.5;" width="50" x="19" y="135.2969"/><line style="stroke:#181818;stroke-width:0.5;" x1="19" x2="69" y1="161.5938" y2="161.5938"/><text fill="#000000" font-family="sans-serif" font-size="14" lengthAdjust="spacing" textLength="4.4502" x="41.7749" y="153.292">&#160;</text></g><g><rect fill="#F1F1F1" height="50" rx="12.5" ry="12.5" style="stroke:#181818;stroke-width:0.5;" width="50" x="19" y="346.2969"/><line style="stroke:#181818;stroke-width:0.5;" x1="19" x2="69" y1="372.5938" y2="372.5938"/><text fill="#000000" font-family="sans-serif" font-size="14" lengthAdjust="spacing" textLength="4.4502" x="41.7749" y="364.292">&#160;</text></g><ellipse cx="44" cy="54.2969" fill="#222222" rx="10" ry="10" style="stroke:#222222;stroke-width:1;"/><ellipse cx="44" cy="478.2969" fill="none" rx="11" ry="11" style="stroke:#222222;stroke-width:1;"/><ellipse cx="44" cy="478.2969" fill="#222222" rx="6" ry="6" style="stroke:#222222;stroke-width:1;"/><!--link *start*abrirOpcionesPerfil to MostrandoLista--><g class="link" data-entity-1="ent0002" data-entity-2="ent0003" data-link-type="dependency" data-source-line="8" id="lnk3"><path d="M44,64.5269 C44,80.2369 44,106.6569 44,129.1669" fill="none" id="*start*abrirOpcionesPerfil-to-MostrandoLista" style="stroke:#008000;stroke-width:1;"/><polygon fill="#008000" points="44,135.1669,48,126.1669,44,130.1669,40,126.1669,44,135.1669" style="stroke:#008000;stroke-width:1;"/><path d="M49,87.2969 L49,112.2969 L344,112.2969 L344,97.2969 L334,87.2969 L49,87.2969" fill="#FEFFDD" style="stroke:#181818;stroke-width:0.5;"/><path d="M334,87.2969 L334,97.2969 L344,97.2969 L334,87.2969" fill="#FEFFDD" style="stroke:#181818;stroke-width:0.5;"/><text fill="#000000" font-family="sans-serif" font-size="13" font-weight="bold" lengthAdjust="spacing" textLength="90.251" x="55" y="104.3638">Coordinador</text><text fill="#000000" font-family="sans-serif" font-size="13" lengthAdjust="spacing" textLength="180.0132" x="149.3833" y="104.3638">solicita abrir opciones perfil</text></g><!--link MostrandoLista to FiltrandoLista--><g class="link" data-entity-1="ent0003" data-entity-2="ent0004" data-link-type="dependency" data-source-line="13" id="lnk4"><path d="M44,185.6769 C44,225.9569 44,299.8969 44,340.0669" fill="none" id="MostrandoLista-to-FiltrandoLista" style="stroke:#008000;stroke-width:1;"/><polygon fill="#008000" points="44,346.0669,48,337.0669,44,341.0669,40,337.0669,44,346.0669" style="stroke:#008000;stroke-width:1;"/><path d="M49,208.2969 L49,323.2969 L410,323.2969 L410,218.2969 L400,208.2969 L49,208.2969" fill="#FEFFDD" style="stroke:#181818;stroke-width:0.5;"/><path d="M400,208.2969 L400,218.2969 L410,218.2969 L400,208.2969" fill="#FEFFDD" style="stroke:#181818;stroke-width:0.5;"/><text fill="#000000" font-family="sans-serif" font-size="13" font-weight="bold" lengthAdjust="spacing" textLength="58.9063" x="55" y="225.3638">Sistema</text><text fill="#000000" font-family="sans-serif" font-size="13" lengthAdjust="spacing" textLength="277.5703" x="118.0386" y="225.3638">presenta las opciones disponibles en perfil</text><text fill="#000000" font-family="sans-serif" font-size="13" lengthAdjust="spacing" textLength="277.3799" x="55" y="240.4966">&#8226; ID, nombre, campo de cada investigador</text><text fill="#000000" font-family="sans-serif" font-size="13" lengthAdjust="spacing" textLength="197.5327" x="55" y="255.6294">&#8226; Permite solicitar editar perfil</text><text fill="#000000" font-family="sans-serif" font-size="13" lengthAdjust="spacing" textLength="311.6699" x="55" y="270.7622">&#8226; Permite solicitar resolver solicitud eliminacion</text><text fill="#000000" font-family="sans-serif" font-size="13" lengthAdjust="spacing" textLength="4.1323" x="55" y="285.895">&#160;</text><text fill="#000000" font-family="sans-serif" font-size="13" lengthAdjust="spacing" textLength="4.1323" x="55" y="301.0278">&#160;</text><text fill="#000000" font-family="sans-serif" font-size="13" lengthAdjust="spacing" textLength="4.1323" x="55" y="316.1606">&#160;</text></g><!--link FiltrandoLista to *end*abrirOpcionesPerfil--><g class="link" data-entity-1="ent0004" data-entity-2="ent0005" data-link-type="dependency" data-source-line="24" id="lnk6"><path d="M44,396.6469 C44,418.9469 44,444.8569 44,461.0369" fill="none" id="FiltrandoLista-to-*end*abrirOpcionesPerfil" style="stroke:#008000;stroke-width:1;"/><polygon fill="#008000" points="44,467.0369,48,458.0369,44,462.0369,40,458.0369,44,467.0369" style="stroke:#008000;stroke-width:1;"/><path d="M49,419.2969 L49,444.2969 L343,444.2969 L343,429.2969 L333,419.2969 L49,419.2969" fill="#FEFFDD" style="stroke:#181818;stroke-width:0.5;"/><path d="M333,419.2969 L333,429.2969 L343,429.2969 L333,419.2969" fill="#FEFFDD" style="stroke:#181818;stroke-width:0.5;"/><text fill="#000000" font-family="sans-serif" font-size="13" font-weight="bold" lengthAdjust="spacing" textLength="90.251" x="55" y="436.3638">Coordinador</text><text fill="#000000" font-family="sans-serif" font-size="13" lengthAdjust="spacing" textLength="179.2769" x="149.3833" y="436.3638">solicita una de las opciones</text></g><g><rect fill="#F1F1F1" height="50" rx="12.5" ry="12.5" style="stroke:#181818;stroke-width:0.5;" width="215.043" x="105.48" y="594.3"/><line style="stroke:#181818;stroke-width:0.5;" x1="105.48" x2="320.523" y1="620.5969" y2="620.5969"/><text fill="#000000" font-family="sans-serif" font-size="14" lengthAdjust="spacing" textLength="195.043" x="115.48" y="612.2951">OPCIONES_PERFIL_ABIERTO</text></g><!--link abrirOpcionesPerfil to OPCIONES_PERFIL_ABIERTO--><g class="link" data-entity-1="ent0002" data-entity-2="ent0007" data-link-type="dependency" data-source-line="30" id="lnk8"><path d="M142.53,499.59 C137.29,517.84 134,529.3 134,529.3 C134,529.3 134,564.3 134,564.3 C134,564.3 151.3471,576.1535 172.2471,590.4435" fill="none" id="abrirOpcionesPerfil-to-OPCIONES_PERFIL_ABIERTO" style="stroke:#008000;stroke-width:1;"/><polygon fill="#008000" points="177.2,593.83,172.0282,585.4483,173.0725,591.0079,167.5129,592.0522,177.2,593.83" style="stroke:#008000;stroke-width:1;"/><path d="M139,534.3 L139,559.3 L241,559.3 L241,544.3 L231,534.3 L139,534.3" fill="#FEFFDD" style="stroke:#181818;stroke-width:0.5;"/><path d="M231,534.3 L231,544.3 L241,544.3 L231,534.3" fill="#FEFFDD" style="stroke:#181818;stroke-width:0.5;"/><text fill="#000000" font-family="sans-serif" font-size="13" lengthAdjust="spacing" textLength="81.396" x="145" y="551.3669">editarPerfil()</text></g><!--link abrirOpcionesPerfil to OPCIONES_PERFIL_ABIERTO--><g class="link" data-entity-1="ent0002" data-entity-2="ent0007" data-link-type="dependency" data-source-line="36" id="lnk9"><path d="M246.01,499.59 C248.46,517.84 250,529.3 250,529.3 C250,529.3 250,564.3 250,564.3 C250,564.3 242.9511,574.5902 233.1611,588.8802" fill="none" id="abrirOpcionesPerfil-to-OPCIONES_PERFIL_ABIERTO-1" style="stroke:#008000;stroke-width:1;"/><polygon fill="#008000" points="229.77,593.83,238.1565,588.666,232.5959,589.7052,231.5568,584.1446,229.77,593.83" style="stroke:#008000;stroke-width:1;"/><path d="M255,534.3 L255,559.3 L502,559.3 L502,544.3 L492,534.3 L255,534.3" fill="#FEFFDD" style="stroke:#181818;stroke-width:0.5;"/><path d="M492,534.3 L492,544.3 L502,544.3 L492,534.3" fill="#FEFFDD" style="stroke:#181818;stroke-width:0.5;"/><text fill="#000000" font-family="sans-serif" font-size="13" lengthAdjust="spacing" textLength="226.4907" x="261" y="551.3669">resolverSolicitudEliminacionPerfil()</text></g><!--SRC=[hPBXQi8m4CU_voaEzsKRobv0XCrLABXLTDz493KtEKoJabH1nc3FiaVRa-mQLssh-p1O2crwkVplT__4RyZaqiaCD1aizZb2RlM-_1725x90aAaZb-GhiWRz1DqhQP0UEXVYrpSTU1C2U1psTlZXt2Vh2oUDicFY-FdwY7HzFIJCRnVGcr-j7Q9Pz0Oj3GWvnhA6DINx9WJwwM1ehLDafBAkVvSEm5jDA-8TWHVi3p3aWJZiGgCEKZp4yTKgM6TfyVw6CkDLp6J0o1rwDAoZkTyZX2AVMqEfvZcQEjFNnoV4ZrtMpLA7NLZ9BBUWa2TA0faT-eBMPPV7T3w3Z9YYwjW1gl1foPxdCPlLEtHLQAi0DMNiOiaf6hOq73j5cfOqtEAJ_FjfROqikwsxrQpyBiIbcrald4o6SV8SpPQJQ3gAnylxXpYQlYIY0NBmgBg_ugZ_J_ALjRFAsUXax5dHRm00]--></g></svg>