<svg xmlns="http://www.w3.org/2000/svg" xmlns:xlink="http://www.w3.org/1999/xlink" contentStyleType="text/css" data-diagram-type="STATE" height="795px" preserveAspectRatio="none" style="width:379px;height:795px;background:#FFFFFF;" version="1.1" viewBox="0 0 379 795" width="379px" zoomAndPan="magnify"><defs/><g><path d="M19.5,152 L353.5,152 A12.5,12.5 0 0 1 366,164.5 L366,178.2969 L7,178.2969 L7,164.5 A12.5,12.5 0 0 1 19.5,152" fill="#F1F1F1"/><rect fill="none" height="492.2969" rx="12.5" ry="12.5" style="stroke:#181818;stroke-width:0.5;" width="359" x="7" y="152"/><line style="stroke:#181818;stroke-width:0.5;" x1="7" x2="366" y1="178.2969" y2="178.2969"/><text fill="#000000" font-family="sans-serif" font-size="14" lengthAdjust="spacing" textLength="138.9814" x="117.0093" y="169.9951">abrirPublicaciones()</text><g><rect fill="#F1F1F1" height="50" rx="12.5" ry="12.5" style="stroke:#181818;stroke-width:0.5;" width="50" x="19" y="280.2969"/><line style="stroke:#181818;stroke-width:0.5;" x1="19" x2="69" y1="306.5938" y2="306.5938"/><text fill="#000000" font-family="sans-serif" font-size="14" lengthAdjust="spacing" textLength="4.4502" x="41.7749" y="298.292">&#160;</text></g><g><rect fill="#F1F1F1" height="50" rx="12.5" ry="12.5" style="stroke:#181818;stroke-width:0.5;" width="50" x="19" y="491.2969"/><line style="stroke:#181818;stroke-width:0.5;" x1="19" x2="69" y1="517.5938" y2="517.5938"/><text fill="#000000" font-family="sans-serif" font-size="14" lengthAdjust="spacing" textLength="4.4502" x="41.7749" y="509.292">&#160;</text></g><ellipse cx="44" cy="199.2969" fill="#222222" rx="10" ry="10" style="stroke:#222222;stroke-width:1;"/><ellipse cx="44" cy="623.2969" fill="none" rx="11" ry="11" style="stroke:#222222;stroke-width:1;"/><ellipse cx="44" cy="623.2969" fill="#222222" rx="6" ry="6" style="stroke:#222222;stroke-width:1;"/><!--link *start*abrirPublicaciones to MostrandoListado--><g class="link" data-entity-1="ent0002" data-entity-2="ent0003" data-link-type="dependency" data-source-line="8" id="lnk3"><path d="M44,209.5269 C44,225.2369 44,251.6569 44,274.1669" fill="none" id="*start*abrirPublicaciones-to-MostrandoListado" style="stroke:#008000;stroke-width:1;"/><polygon fill="#008000" points="44,280.1669,48,271.1669,44,275.1669,40,271.1669,44,280.1669" style="stroke:#008000;stroke-width:1;"/><path d="M49,232.2969 L49,257.2969 L337,257.2969 L337,242.2969 L327,232.2969 L49,232.2969" fill="#FEFFDD" style="stroke:#181818;stroke-width:0.5;"/><path d="M327,232.2969 L327,242.2969 L337,242.2969 L327,232.2969" fill="#FEFFDD" style="stroke:#181818;stroke-width:0.5;"/><text fill="#000000" font-family="sans-serif" font-size="13" font-weight="bold" lengthAdjust="spacing" textLength="90.251" x="55" y="249.3638">Coordinador</text><text fill="#000000" font-family="sans-serif" font-size="13" lengthAdjust="spacing" textLength="173.3608" x="149.3833" y="249.3638">solicita abrir publicaciones</text></g><!--link MostrandoListado to FiltrandoListado--><g class="link" data-entity-1="ent0003" data-entity-2="ent0004" data-link-type="dependency" data-source-line="13" id="lnk4"><path d="M44,330.6769 C44,370.9569 44,444.8969 44,485.0669" fill="none" id="MostrandoListado-to-FiltrandoListado" style="stroke:#008000;stroke-width:1;"/><polygon fill="#008000" points="44,491.0669,48,482.0669,44,486.0669,40,482.0669,44,491.0669" style="stroke:#008000;stroke-width:1;"/><path d="M49,353.2969 L49,468.2969 L351,468.2969 L351,363.2969 L341,353.2969 L49,353.2969" fill="#FEFFDD" style="stroke:#181818;stroke-width:0.5;"/><path d="M341,353.2969 L341,363.2969 L351,363.2969 L341,353.2969" fill="#FEFFDD" style="stroke:#181818;stroke-width:0.5;"/><text fill="#000000" font-family="sans-serif" font-size="13" font-weight="bold" lengthAdjust="spacing" textLength="58.9063" x="55" y="370.3638">Sistema</text><text fill="#000000" font-family="sans-serif" font-size="13" lengthAdjust="spacing" textLength="218.3848" x="118.0386" y="370.3638">presenta listado de publicaciones</text><text fill="#000000" font-family="sans-serif" font-size="13" lengthAdjust="spacing" textLength="48.2549" x="55" y="385.4966">&#8226; T&#237;tulo</text><text fill="#000000" font-family="sans-serif" font-size="13" lengthAdjust="spacing" textLength="47.3281" x="55" y="400.6294">&#8226; Autor</text><text fill="#000000" font-family="sans-serif" font-size="13" lengthAdjust="spacing" textLength="50.6289" x="55" y="415.7622">&#8226; Fecha</text><text fill="#000000" font-family="sans-serif" font-size="13" font-weight="bold" lengthAdjust="spacing" textLength="58.9063" x="55" y="430.895">Sistema</text><text fill="#000000" font-family="sans-serif" font-size="13" lengthAdjust="spacing" textLength="110.5952" x="118.0386" y="430.895">permite solicitar:</text><text fill="#000000" font-family="sans-serif" font-size="13" lengthAdjust="spacing" textLength="120.4849" x="55" y="446.0278">&#8226; abrir publicaci&#243;n</text><text fill="#000000" font-family="sans-serif" font-size="13" lengthAdjust="spacing" textLength="94.7515" x="55" y="461.1606">&#8226; filtrar listado</text></g><!--link FiltrandoListado to *end*abrirPublicaciones--><g class="link" data-entity-1="ent0004" data-entity-2="ent0005" data-link-type="dependency" data-source-line="24" id="lnk6"><path d="M44,541.6469 C44,563.9469 44,589.8569 44,606.0369" fill="none" id="FiltrandoListado-to-*end*abrirPublicaciones" style="stroke:#008000;stroke-width:1;"/><polygon fill="#008000" points="44,612.0369,48,603.0369,44,607.0369,40,603.0369,44,612.0369" style="stroke:#008000;stroke-width:1;"/><path d="M49,564.2969 L49,589.2969 L357,589.2969 L357,574.2969 L347,564.2969 L49,564.2969" fill="#FEFFDD" style="stroke:#181818;stroke-width:0.5;"/><path d="M347,564.2969 L347,574.2969 L357,574.2969 L347,564.2969" fill="#FEFFDD" style="stroke:#181818;stroke-width:0.5;"/><text fill="#000000" font-family="sans-serif" font-size="13" font-weight="bold" lengthAdjust="spacing" textLength="90.251" x="55" y="581.3638">Coordinador</text><text fill="#000000" font-family="sans-serif" font-size="13" lengthAdjust="spacing" textLength="193.0322" x="149.3833" y="581.3638">solicita una opci&#243;n del listado</text></g><g><rect fill="#F1F1F1" height="50" rx="12.5" ry="12.5" style="stroke:#181818;stroke-width:0.5;" width="213.0879" x="79.96" y="7"/><line style="stroke:#181818;stroke-width:0.5;" x1="79.96" x2="293.0479" y1="33.2969" y2="33.2969"/><text fill="#000000" font-family="sans-serif" font-size="14" lengthAdjust="spacing" textLength="193.0879" x="89.96" y="24.9951">PANEL_PRINCIPAL_ABIERTO</text></g><g><rect fill="#F1F1F1" height="50" rx="12.5" ry="12.5" style="stroke:#181818;stroke-width:0.5;" width="208.6035" x="82.2" y="739.3"/><line style="stroke:#181818;stroke-width:0.5;" x1="82.2" x2="290.8035" y1="765.5969" y2="765.5969"/><text fill="#000000" font-family="sans-serif" font-size="14" lengthAdjust="spacing" textLength="188.6035" x="92.2" y="757.2951">PUBLICACIONES_ABIERTAS</text></g><!--link PANEL_PRINCIPAL_ABIERTO to abrirPublicaciones--><g class="link" data-entity-1="ent0007" data-entity-2="ent0002" data-link-type="dependency" data-source-line="31" id="lnk8"><path d="M186.5,57.46 C186.5,79.15 186.5,107.28 186.5,145.72" fill="none" id="PANEL_PRINCIPAL_ABIERTO-to-abrirPublicaciones" style="stroke:#008000;stroke-width:1;"/><polygon fill="#008000" points="186.5,151.72,190.5,142.72,186.5,146.72,182.5,142.72,186.5,151.72" style="stroke:#008000;stroke-width:1;"/><path d="M191.5,92 L191.5,117 L341.5,117 L341.5,102 L331.5,92 L191.5,92" fill="#FEFFDD" style="stroke:#181818;stroke-width:0.5;"/><path d="M331.5,92 L331.5,102 L341.5,102 L331.5,92" fill="#FEFFDD" style="stroke:#181818;stroke-width:0.5;"/><text fill="#000000" font-family="sans-serif" font-size="13" lengthAdjust="spacing" textLength="129.0542" x="197.5" y="109.0669">abrirPublicaciones()</text></g><!--link abrirPublicaciones to PUBLICACIONES_ABIERTAS--><g class="link" data-entity-1="ent0002" data-entity-2="ent0009" data-link-type="dependency" data-source-line="36" id="lnk10"><path d="M186.5,644.57 C186.5,683.03 186.5,711.18 186.5,732.87" fill="none" id="abrirPublicaciones-to-PUBLICACIONES_ABIERTAS" style="stroke:#008000;stroke-width:1;"/><polygon fill="#008000" points="186.5,738.87,190.5,729.87,186.5,733.87,182.5,729.87,186.5,738.87" style="stroke:#008000;stroke-width:1;"/><path d="M191.5,679.3 L191.5,704.3 L326.5,704.3 L326.5,689.3 L316.5,679.3 L191.5,679.3" fill="#FEFFDD" style="stroke:#181818;stroke-width:0.5;"/><path d="M316.5,679.3 L316.5,689.3 L326.5,689.3 L316.5,679.3" fill="#FEFFDD" style="stroke:#181818;stroke-width:0.5;"/><text fill="#000000" font-family="sans-serif" font-size="13" lengthAdjust="spacing" textLength="114.2832" x="197.5" y="696.3669">abrirPublicacion()</text></g><!--SRC=[bPB1Qi9048Rl-nIBlRG5wRs848D288r1xKb4DcRQBcvsmkxc8ANGP-czfpw2Rz8dwRfgD6PRQ7AQsPd__sPtz9hBaYbMKC4bc4q9j4InsGM4QCCCK9Ofhj8g4tp5LXmbQCeqxRJJrpST-ae8jT- -isD_M_g0sYWcSuovpUVOhXXnqQnm9VFR1UtEhvuLW5nq-tuTYLO6vGv_xHAzh1yYgfnBMw9wTrcVQhIGtB3zABGyXtOz87CdjFUzz6b0j51_WvZQSoYO0oWLQ90MG1mKS_1GVBz_qDdsqrG2wpYe3Aew6i7gXNaDG1NSCXmdLVTrpyNCsozP7psvMTIHodCLbzCshiA-p_-Ve9ACOkaux2q8l_SR8IGDac6yJ2TH4aPf42-3GJISpCODWlOEaWQCRqV9QKBFPf-hfu-3E0g3C1edm-d1FvZ-xN2c_mC0]--></g></svg>