<svg xmlns="http://www.w3.org/2000/svg" xmlns:xlink="http://www.w3.org/1999/xlink" contentStyleType="text/css" data-diagram-type="STATE" height="560px" preserveAspectRatio="none" style="width:758px;height:560px;background:#FFFFFF;" version="1.1" viewBox="0 0 758 560" width="758px" zoomAndPan="magnify"><defs/><g><path d="M154.3,7 L504.3,7 A12.5,12.5 0 0 1 516.8,19.5 L516.8,33.2969 L141.8,33.2969 L141.8,19.5 A12.5,12.5 0 0 1 154.3,7" fill="#F1F1F1"/><rect fill="none" height="402.2969" rx="12.5" ry="12.5" style="stroke:#181818;stroke-width:0.5;" width="375" x="141.8" y="7"/><line style="stroke:#181818;stroke-width:0.5;" x1="141.8" x2="516.8" y1="33.2969" y2="33.2969"/><text fill="#000000" font-family="sans-serif" font-size="14" lengthAdjust="spacing" textLength="123.0742" x="267.7629" y="24.9951">abrirPublicacion()</text><g><rect fill="#F1F1F1" height="50" rx="12.5" ry="12.5" style="stroke:#181818;stroke-width:0.5;" width="50" x="153.8" y="135.2969"/><line style="stroke:#181818;stroke-width:0.5;" x1="153.8" x2="203.8" y1="161.5938" y2="161.5938"/><text fill="#000000" font-family="sans-serif" font-size="14" lengthAdjust="spacing" textLength="4.4502" x="176.5749" y="153.292">&#160;</text></g><ellipse cx="178.8" cy="54.2969" fill="#222222" rx="10" ry="10" style="stroke:#222222;stroke-width:1;"/><ellipse cx="178.8" cy="388.2969" fill="none" rx="11" ry="11" style="stroke:#222222;stroke-width:1;"/><ellipse cx="178.8" cy="388.2969" fill="#222222" rx="6" ry="6" style="stroke:#222222;stroke-width:1;"/><!--link *start*abrirPublicacion to MostrandoPublicacion--><g class="link" data-entity-1="ent0002" data-entity-2="ent0003" data-link-type="dependency" data-source-line="7" id="lnk3"><path d="M178.8,64.5269 C178.8,80.2369 178.8,106.6569 178.8,129.1669" fill="none" id="*start*abrirPublicacion-to-MostrandoPublicacion" style="stroke:#008000;stroke-width:1;"/><polygon fill="#008000" points="178.8,135.1669,182.8,126.1669,178.8,130.1669,174.8,126.1669,178.8,135.1669" style="stroke:#008000;stroke-width:1;"/><path d="M183.8,87.2969 L183.8,112.2969 L485.8,112.2969 L485.8,97.2969 L475.8,87.2969 L183.8,87.2969" fill="#FEFFDD" style="stroke:#181818;stroke-width:0.5;"/><path d="M475.8,87.2969 L475.8,97.2969 L485.8,97.2969 L475.8,87.2969" fill="#FEFFDD" style="stroke:#181818;stroke-width:0.5;"/><text fill="#000000" font-family="sans-serif" font-size="13" font-weight="bold" lengthAdjust="spacing" textLength="90.251" x="189.8" y="104.3638">Coordinador</text><text fill="#000000" font-family="sans-serif" font-size="13" lengthAdjust="spacing" textLength="187.167" x="284.1833" y="104.3638">solicita abrir una publicaci&#243;n</text></g><!--link MostrandoPublicacion to *end*abrirPublicacion--><g class="link" data-entity-1="ent0003" data-entity-2="ent0004" data-link-type="dependency" data-source-line="12" id="lnk5"><path d="M178.8,185.4869 C178.8,234.4469 178.8,337.5169 178.8,371.1969" fill="none" id="MostrandoPublicacion-to-*end*abrirPublicacion" style="stroke:#008000;stroke-width:1;"/><polygon fill="#008000" points="178.8,377.1969,182.8,368.1969,178.8,372.1969,174.8,368.1969,178.8,377.1969" style="stroke:#008000;stroke-width:1;"/><path d="M183.8,208.2969 L183.8,354.2969 L507.8,354.2969 L507.8,218.2969 L497.8,208.2969 L183.8,208.2969" fill="#FEFFDD" style="stroke:#181818;stroke-width:0.5;"/><path d="M497.8,208.2969 L497.8,218.2969 L507.8,218.2969 L497.8,208.2969" fill="#FEFFDD" style="stroke:#181818;stroke-width:0.5;"/><text fill="#000000" font-family="sans-serif" font-size="13" font-weight="bold" lengthAdjust="spacing" textLength="58.9063" x="189.8" y="225.3638">Sistema</text><text fill="#000000" font-family="sans-serif" font-size="13" lengthAdjust="spacing" textLength="240.5508" x="252.8386" y="225.3638">presenta contenido de la publicaci&#243;n</text><text fill="#000000" font-family="sans-serif" font-size="13" lengthAdjust="spacing" textLength="48.2549" x="189.8" y="240.4966">&#8226; T&#237;tulo</text><text fill="#000000" font-family="sans-serif" font-size="13" lengthAdjust="spacing" textLength="48.4834" x="189.8" y="255.6294">&#8226; Texto</text><text fill="#000000" font-family="sans-serif" font-size="13" lengthAdjust="spacing" textLength="47.3281" x="189.8" y="270.7622">&#8226; Autor</text><text fill="#000000" font-family="sans-serif" font-size="13" lengthAdjust="spacing" textLength="155.2446" x="189.8" y="285.895">&#8226; Respuestas asociadas</text><text fill="#000000" font-family="sans-serif" font-size="13" font-weight="bold" lengthAdjust="spacing" textLength="58.9063" x="189.8" y="301.0278">Sistema</text><text fill="#000000" font-family="sans-serif" font-size="13" lengthAdjust="spacing" textLength="110.5952" x="252.8386" y="301.0278">permite solicitar:</text><text fill="#000000" font-family="sans-serif" font-size="13" lengthAdjust="spacing" textLength="77.9556" x="189.8" y="316.1606">&#8226; responder</text><text fill="#000000" font-family="sans-serif" font-size="13" lengthAdjust="spacing" textLength="50.0703" x="189.8" y="331.2935">&#8226; editar</text><text fill="#000000" font-family="sans-serif" font-size="13" lengthAdjust="spacing" textLength="64.8477" x="189.8" y="346.4263">&#8226; eliminar</text></g><g><rect fill="#F1F1F1" height="50" rx="12.5" ry="12.5" style="stroke:#181818;stroke-width:0.5;" width="208.6035" x="7" y="504.3"/><line style="stroke:#181818;stroke-width:0.5;" x1="7" x2="215.6035" y1="530.5969" y2="530.5969"/><text fill="#000000" font-family="sans-serif" font-size="14" lengthAdjust="spacing" textLength="188.6035" x="17" y="522.2951">PUBLICACIONES_ABIERTAS</text></g><g><rect fill="#F1F1F1" height="50" rx="12.5" ry="12.5" style="stroke:#181818;stroke-width:0.5;" width="181.9844" x="441.31" y="504.3"/><line style="stroke:#181818;stroke-width:0.5;" x1="441.31" x2="623.2944" y1="530.5969" y2="530.5969"/><text fill="#000000" font-family="sans-serif" font-size="14" lengthAdjust="spacing" textLength="161.9844" x="451.31" y="522.2951">PUBLICACION_ABIERTA</text></g><!--link PUBLICACIONES_ABIERTAS to abrirPublicacion--><g class="link" data-entity-1="ent0006" data-entity-2="ent0002" data-link-type="dependency" data-source-line="27" id="lnk7"><path d="M150.73,503.83 C173.75,489.54 198.3,474.3 198.3,474.3 C198.3,474.3 209.1617,452.309 227.5217,415.159" fill="none" id="PUBLICACIONES_ABIERTAS-to-abrirPublicacion" style="stroke:#008000;stroke-width:1;"/><polygon fill="#008000" points="230.18,409.78,222.6065,416.0762,227.9647,414.2625,229.7784,419.6207,230.18,409.78" style="stroke:#008000;stroke-width:1;"/><path d="M220.3,444.3 L220.3,469.3 L355.3,469.3 L355.3,454.3 L345.3,444.3 L220.3,444.3" fill="#FEFFDD" style="stroke:#181818;stroke-width:0.5;"/><path d="M345.3,444.3 L345.3,454.3 L355.3,454.3 L345.3,444.3" fill="#FEFFDD" style="stroke:#181818;stroke-width:0.5;"/><text fill="#000000" font-family="sans-serif" font-size="13" lengthAdjust="spacing" textLength="114.2832" x="226.3" y="461.3669">abrirPublicacion()</text></g><!--link abrirPublicacion to PUBLICACIONES_ABIERTAS--><g class="link" data-entity-1="ent0002" data-entity-2="ent0006" data-link-type="dependency" data-source-line="42" id="lnk11"><path d="M141.61,350.32 C78.27,397.96 23.3,439.3 23.3,439.3 C23.3,439.3 23.3,474.3 23.3,474.3 C23.3,474.3 43.0265,486.4012 66.3065,500.6912" fill="none" id="abrirPublicacion-to-PUBLICACIONES_ABIERTAS" style="stroke:#008000;stroke-width:1;"/><polygon fill="#008000" points="71.42,503.83,65.8423,495.7128,67.1588,501.2143,61.6572,502.5308,71.42,503.83" style="stroke:#008000;stroke-width:1;"/><path d="M28.3,444.3 L28.3,469.3 L185.3,469.3 L185.3,454.3 L175.3,444.3 L28.3,444.3" fill="#FEFFDD" style="stroke:#181818;stroke-width:0.5;"/><path d="M175.3,444.3 L175.3,454.3 L185.3,454.3 L175.3,444.3" fill="#FEFFDD" style="stroke:#181818;stroke-width:0.5;"/><text fill="#000000" font-family="sans-serif" font-size="13" lengthAdjust="spacing" textLength="136.811" x="34.3" y="461.3669">eliminarPublicacion()</text></g><!--link abrirPublicacion to PUBLICACION_ABIERTA--><g class="link" data-entity-1="ent0002" data-entity-2="ent0008" data-link-type="dependency" data-source-line="32" id="lnk9"><path d="M397.4,409.78 C410.01,446.93 419.3,474.3 419.3,474.3 C419.3,474.3 445.7765,486.9527 475.6765,501.2427" fill="none" id="abrirPublicacion-to-PUBLICACION_ABIERTA" style="stroke:#008000;stroke-width:1;"/><polygon fill="#008000" points="481.09,503.83,474.6946,496.3401,476.5787,501.674,471.2449,503.5581,481.09,503.83" style="stroke:#008000;stroke-width:1;"/><path d="M424.3,444.3 L424.3,469.3 L594.3,469.3 L594.3,454.3 L584.3,444.3 L424.3,444.3" fill="#FEFFDD" style="stroke:#181818;stroke-width:0.5;"/><path d="M584.3,444.3 L584.3,454.3 L594.3,454.3 L584.3,444.3" fill="#FEFFDD" style="stroke:#181818;stroke-width:0.5;"/><text fill="#000000" font-family="sans-serif" font-size="13" lengthAdjust="spacing" textLength="149.9189" x="430.3" y="461.3669">responderPublicacion()</text></g><!--link abrirPublicacion to PUBLICACION_ABIERTA--><g class="link" data-entity-1="ent0002" data-entity-2="ent0008" data-link-type="dependency" data-source-line="37" id="lnk10"><path d="M516.98,366.8 C564.97,407.1 603.3,439.3 603.3,439.3 C603.3,439.3 603.3,474.3 603.3,474.3 C603.3,474.3 588.0349,485.9067 569.2549,500.1967" fill="none" id="abrirPublicacion-to-PUBLICACION_ABIERTA-1" style="stroke:#008000;stroke-width:1;"/><polygon fill="#008000" points="564.48,503.83,574.0645,501.5633,568.4591,500.8023,569.2201,495.1968,564.48,503.83" style="stroke:#008000;stroke-width:1;"/><path d="M608.3,444.3 L608.3,469.3 L751.3,469.3 L751.3,454.3 L741.3,444.3 L608.3,444.3" fill="#FEFFDD" style="stroke:#181818;stroke-width:0.5;"/><path d="M741.3,444.3 L741.3,454.3 L751.3,454.3 L741.3,444.3" fill="#FEFFDD" style="stroke:#181818;stroke-width:0.5;"/><text fill="#000000" font-family="sans-serif" font-size="13" lengthAdjust="spacing" textLength="122.0337" x="614.3" y="461.3669">editarPublicacion()</text></g><!--SRC=[jPBDIiD058NtynINkb6Xk9TII4iN1NzAMrUbo2HpaQ79t65c0XOHV1Rthdo4lebFuarYcwIDAp5PtU7CTqvEhjzeOwMJ6QJQODXQ14lfjXY4y44611axxMPvdEf49feCI0-zuyFpYnwy207yLBTw_BBmbdnmqYXgQ2lPwd8D_TNPaqCqw_wmMra83J6ERJdJfZmOnCCnaLFQI4LkS1KFmHDVqK5MOI4t4kmUi_kiE6XKoQhik-nQUJZVh_OBxGDcihIs3ZqQjax813HQ4IY4j2F0rzixB7SV8K-fdl4vr5EK1tA7QOxUviXrUcwI4YsLz9q9q6MQG-vBSDS716UpP1JMK5I5eXvJdN6FhjtGgn1YzZ2wcOwZyVJ-Rh9uZ4RJoNmPBLeL7I-1Q7LrkYAY_WKdIzNaDgptnctquRF-1rzrz5TsexKZ_4_dtGRV]--></g></svg>