<svg xmlns="http://www.w3.org/2000/svg" xmlns:xlink="http://www.w3.org/1999/xlink" contentStyleType="text/css" data-diagram-type="STATE" height="620px" preserveAspectRatio="none" style="width:720px;height:620px;background:#FFFFFF;" version="1.1" viewBox="0 0 720 620" width="720px" zoomAndPan="magnify"><defs/><g><path d="M19.5,7 L694.5,7 A12.5,12.5 0 0 1 707,19.5 L707,33.2969 L7,33.2969 L7,19.5 A12.5,12.5 0 0 1 19.5,7" fill="#F1F1F1"/><rect fill="none" height="462.2969" rx="12.5" ry="12.5" style="stroke:#181818;stroke-width:0.5;" width="700" x="7" y="7"/><line style="stroke:#181818;stroke-width:0.5;" x1="7" x2="707" y1="33.2969" y2="33.2969"/><text fill="#000000" font-family="sans-serif" font-size="14" lengthAdjust="spacing" textLength="131.4209" x="291.2896" y="24.9951">editarPublicacion()</text><g><rect fill="#F1F1F1" height="50" rx="12.5" ry="12.5" style="stroke:#181818;stroke-width:0.5;" width="50" x="215" y="135.2969"/><line style="stroke:#181818;stroke-width:0.5;" x1="215" x2="265" y1="161.5938" y2="161.5938"/><text fill="#000000" font-family="sans-serif" font-size="14" lengthAdjust="spacing" textLength="4.4502" x="237.7749" y="153.292">&#160;</text></g><g><rect fill="#F1F1F1" height="50" rx="12.5" ry="12.5" style="stroke:#181818;stroke-width:0.5;" width="50" x="19" y="316.2969"/><line style="stroke:#181818;stroke-width:0.5;" x1="19" x2="69" y1="342.5938" y2="342.5938"/><text fill="#000000" font-family="sans-serif" font-size="14" lengthAdjust="spacing" textLength="4.4502" x="41.7749" y="334.292">&#160;</text></g><ellipse cx="240" cy="54.2969" fill="#222222" rx="10" ry="10" style="stroke:#222222;stroke-width:1;"/><ellipse cx="232" cy="448.2969" fill="none" rx="11" ry="11" style="stroke:#222222;stroke-width:1;"/><ellipse cx="232" cy="448.2969" fill="#222222" rx="6" ry="6" style="stroke:#222222;stroke-width:1;"/><!--link *start*editarPublicacion to EditandoContenido--><g class="link" data-entity-1="ent0002" data-entity-2="ent0003" data-link-type="dependency" data-source-line="8" id="lnk3"><path d="M240,64.5269 C240,80.2369 240,106.6569 240,129.1669" fill="none" id="*start*editarPublicacion-to-EditandoContenido" style="stroke:#008000;stroke-width:1;"/><polygon fill="#008000" points="240,135.1669,244,126.1669,240,130.1669,236,126.1669,240,135.1669" style="stroke:#008000;stroke-width:1;"/><path d="M245,87.2969 L245,112.2969 L526,112.2969 L526,97.2969 L516,87.2969 L245,87.2969" fill="#FEFFDD" style="stroke:#181818;stroke-width:0.5;"/><path d="M516,87.2969 L516,97.2969 L526,97.2969 L516,87.2969" fill="#FEFFDD" style="stroke:#181818;stroke-width:0.5;"/><text fill="#000000" font-family="sans-serif" font-size="13" font-weight="bold" lengthAdjust="spacing" textLength="90.251" x="251" y="104.3638">Coordinador</text><text fill="#000000" font-family="sans-serif" font-size="13" lengthAdjust="spacing" textLength="166.3403" x="345.3833" y="104.3638">solicita editar publicaci&#243;n</text></g><!--link EditandoContenido to CambiosGuardados--><g class="link" data-entity-1="ent0003" data-entity-2="ent0004" data-link-type="dependency" data-source-line="13" id="lnk4"><path d="M214.59,167.2269 C164.98,178.8069 60,203.2969 60,203.2969 C60,203.2969 52.1556,270.4373 47.5556,309.8473" fill="none" id="EditandoContenido-to-CambiosGuardados" style="stroke:#008000;stroke-width:1;"/><polygon fill="#008000" points="46.86,315.8069,51.8764,307.3313,47.4397,310.8406,43.9304,306.4038,46.86,315.8069" style="stroke:#008000;stroke-width:1;"/><path d="M65,208.2969 L65,293.2969 L417,293.2969 L417,218.2969 L407,208.2969 L65,208.2969" fill="#FEFFDD" style="stroke:#181818;stroke-width:0.5;"/><path d="M407,208.2969 L407,218.2969 L417,218.2969 L407,208.2969" fill="#FEFFDD" style="stroke:#181818;stroke-width:0.5;"/><text fill="#000000" font-family="sans-serif" font-size="13" font-weight="bold" lengthAdjust="spacing" textLength="58.9063" x="71" y="225.3638">Sistema</text><text fill="#000000" font-family="sans-serif" font-size="13" lengthAdjust="spacing" textLength="183.2124" x="134.0386" y="225.3638">presenta contenido editable</text><text fill="#000000" font-family="sans-serif" font-size="13" lengthAdjust="spacing" textLength="48.2549" x="71" y="240.4966">&#8226; T&#237;tulo</text><text fill="#000000" font-family="sans-serif" font-size="13" lengthAdjust="spacing" textLength="48.4834" x="71" y="255.6294">&#8226; Texto</text><text fill="#000000" font-family="sans-serif" font-size="13" font-weight="bold" lengthAdjust="spacing" textLength="58.9063" x="71" y="270.7622">Sistema</text><text fill="#000000" font-family="sans-serif" font-size="13" lengthAdjust="spacing" textLength="219.5781" x="134.0386" y="270.7622">permite introducir modificaciones</text><text fill="#000000" font-family="sans-serif" font-size="13" font-weight="bold" lengthAdjust="spacing" textLength="90.251" x="71" y="285.895">Coordinador</text><text fill="#000000" font-family="sans-serif" font-size="13" lengthAdjust="spacing" textLength="237.6118" x="165.3833" y="285.895">introduce cambios y solicita guardar</text></g><!--link EditandoContenido to *end*editarPublicacion--><g class="link" data-entity-1="ent0003" data-entity-2="ent0005" data-link-type="dependency" data-source-line="22" id="lnk6"><path d="M265.31,167.1369 C315.31,178.6769 422,203.2969 422,203.2969 C422,203.2969 422,419.2969 422,419.2969 C422,419.2969 289.526,438.8229 248.976,444.7929" fill="none" id="EditandoContenido-to-*end*editarPublicacion" style="stroke:#FF0000;stroke-width:1;"/><polygon fill="#FF0000" points="243.04,445.6669,252.5266,448.3133,247.9867,444.9386,251.3614,440.3986,243.04,445.6669" style="stroke:#FF0000;stroke-width:1;"/><path d="M427,328.7969 L427,353.7969 L698,353.7969 L698,338.7969 L688,328.7969 L427,328.7969" fill="#FEFFDD" style="stroke:#181818;stroke-width:0.5;"/><path d="M688,328.7969 L688,338.7969 L698,338.7969 L688,328.7969" fill="#FEFFDD" style="stroke:#181818;stroke-width:0.5;"/><text fill="#000000" font-family="sans-serif" font-size="13" font-weight="bold" lengthAdjust="spacing" textLength="90.251" x="433" y="345.8638">Coordinador</text><text fill="#000000" font-family="sans-serif" font-size="13" lengthAdjust="spacing" textLength="156.2729" x="527.3833" y="345.8638">solicita cancelar edici&#243;n</text></g><!--link CambiosGuardados to *end*editarPublicacion--><g class="link" data-entity-1="ent0004" data-entity-2="ent0005" data-link-type="dependency" data-source-line="27" id="lnk7"><path d="M35.86,366.7269 C32.78,375.9669 30,384.2969 30,384.2969 C30,384.2969 30,419.2969 30,419.2969 C30,419.2969 172.5568,439.0531 214.9068,444.9231" fill="none" id="CambiosGuardados-to-*end*editarPublicacion" style="stroke:#008000;stroke-width:1;"/><polygon fill="#008000" points="220.85,445.7469,212.4844,440.5491,215.8973,445.0604,211.3861,448.4733,220.85,445.7469" style="stroke:#008000;stroke-width:1;"/><path d="M35,389.2969 L35,414.2969 L417,414.2969 L417,399.2969 L407,389.2969 L35,389.2969" fill="#FEFFDD" style="stroke:#181818;stroke-width:0.5;"/><path d="M407,389.2969 L407,399.2969 L417,399.2969 L407,389.2969" fill="#FEFFDD" style="stroke:#181818;stroke-width:0.5;"/><text fill="#000000" font-family="sans-serif" font-size="13" font-weight="bold" lengthAdjust="spacing" textLength="58.9063" x="41" y="406.3638">Sistema</text><text fill="#000000" font-family="sans-serif" font-size="13" lengthAdjust="spacing" textLength="298.27" x="104.0386" y="406.3638">presenta confirmaci&#243;n de cambios guardados</text></g><g><rect fill="#F1F1F1" height="50" rx="12.5" ry="12.5" style="stroke:#181818;stroke-width:0.5;" width="181.9844" x="266.01" y="564.3"/><line style="stroke:#181818;stroke-width:0.5;" x1="266.01" x2="447.9944" y1="590.5969" y2="590.5969"/><text fill="#000000" font-family="sans-serif" font-size="14" lengthAdjust="spacing" textLength="161.9844" x="276.01" y="582.2951">PUBLICACION_ABIERTA</text></g><!--link PUBLICACION_ABIERTA to editarPublicacion--><g class="link" data-entity-1="ent0008" data-entity-2="ent0002" data-link-type="dependency" data-source-line="34" id="lnk9"><path d="M381.47,563.83 C395.76,549.54 411,534.3 411,534.3 C411,534.3 411,499.3 411,499.3 C411,499.3 409.8391,493.7049 406.0791,475.5849" fill="none" id="PUBLICACION_ABIERTA-to-editarPublicacion" style="stroke:#008000;stroke-width:1;"/><polygon fill="#008000" points="404.86,469.71,402.772,479.335,405.8759,474.6057,410.6052,477.7096,404.86,469.71" style="stroke:#008000;stroke-width:1;"/><path d="M416,504.3 L416,529.3 L551,529.3 L551,514.3 L541,504.3 L416,504.3" fill="#FEFFDD" style="stroke:#181818;stroke-width:0.5;"/><path d="M541,504.3 L541,514.3 L551,514.3 L541,504.3" fill="#FEFFDD" style="stroke:#181818;stroke-width:0.5;"/><text fill="#000000" font-family="sans-serif" font-size="13" lengthAdjust="spacing" textLength="114.2832" x="422" y="521.3669">abrirPublicacion()</text></g><!--link editarPublicacion to PUBLICACION_ABIERTA--><g class="link" data-entity-1="ent0002" data-entity-2="ent0008" data-link-type="dependency" data-source-line="39" id="lnk10"><path d="M269.26,469.71 C262.36,487.83 258,499.3 258,499.3 C258,499.3 258,534.3 258,534.3 C258,534.3 280.673,546.6662 306.863,560.9562" fill="none" id="editarPublicacion-to-PUBLICACION_ABIERTA" style="stroke:#008000;stroke-width:1;"/><polygon fill="#008000" points="312.13,563.83,306.1454,556.0079,307.7408,561.4352,302.3136,563.0306,312.13,563.83" style="stroke:#008000;stroke-width:1;"/><path d="M263,504.3 L263,529.3 L398,529.3 L398,514.3 L388,504.3 L263,504.3" fill="#FEFFDD" style="stroke:#181818;stroke-width:0.5;"/><path d="M388,504.3 L388,514.3 L398,514.3 L388,504.3" fill="#FEFFDD" style="stroke:#181818;stroke-width:0.5;"/><text fill="#000000" font-family="sans-serif" font-size="13" lengthAdjust="spacing" textLength="114.2832" x="269" y="521.3669">abrirPublicacion()</text></g><!--SRC=[bPF1IiD048Rl-nH3lQXGV85IQ4EHWcZHUYf5DhlJCZJP2RiRi8ZWitZtv2FqJNmIjqdR6DD8JKwxpFpppV-pRaKcarQca911lyuGCaxMsuCGpakFW9gyj9CyJaX9HMn0EkWqRiylEl0Y18IlxEk4FrIEjeL6SyJ6eo7DpP98fZ6nkywbrLApArLcbtFepiwM5j7Ck_qM8SD19p05ubLnqOlx4RFLP8AKxLt5VN0S84FpRXN8zjIRJrFqeD65K3cuCQY6qO1jetWWvp6L1K5cqQ491EgWMR342HRbNs_lCDry-3pXwepFde-AeKqfp2FZBUjSaOMKDIrsGQ1hys7VWA3A9M1TURCi5hAd-c5HRzq88Vq_1YMDmYG44Jne2-6tpRKC_fhQPlk2R5f63heoO5cByO3mAeIOF0vlnj4W6j_TFWs6uz7zT523QBm0KSEHiQNw-n3LXiqtzLFvoEIJjRy1]--></g></svg>