<svg xmlns="http://www.w3.org/2000/svg" xmlns:xlink="http://www.w3.org/1999/xlink" contentStyleType="text/css" data-diagram-type="STATE" height="590px" preserveAspectRatio="none" style="width:941px;height:590px;background:#FFFFFF;" version="1.1" viewBox="0 0 941 590" width="941px" zoomAndPan="magnify"><defs/><g><path d="M19.5,7 L705.5,7 A12.5,12.5 0 0 1 718,19.5 L718,33.2969 L7,33.2969 L7,19.5 A12.5,12.5 0 0 1 19.5,7" fill="#F1F1F1"/><rect fill="none" height="432.2969" rx="12.5" ry="12.5" style="stroke:#181818;stroke-width:0.5;" width="711" x="7" y="7"/><line style="stroke:#181818;stroke-width:0.5;" x1="7" x2="718" y1="33.2969" y2="33.2969"/><text fill="#000000" font-family="sans-serif" font-size="14" lengthAdjust="spacing" textLength="147.335" x="288.8325" y="24.9951">eliminarPublicacion()</text><g><rect fill="#F1F1F1" height="50" rx="12.5" ry="12.5" style="stroke:#181818;stroke-width:0.5;" width="50" x="200" y="135.2969"/><line style="stroke:#181818;stroke-width:0.5;" x1="200" x2="250" y1="161.5938" y2="161.5938"/><text fill="#000000" font-family="sans-serif" font-size="14" lengthAdjust="spacing" textLength="4.4502" x="222.7749" y="153.292">&#160;</text></g><g><rect fill="#F1F1F1" height="50" rx="12.5" ry="12.5" style="stroke:#181818;stroke-width:0.5;" width="50" x="19" y="286.2969"/><line style="stroke:#181818;stroke-width:0.5;" x1="19" x2="69" y1="312.5938" y2="312.5938"/><text fill="#000000" font-family="sans-serif" font-size="14" lengthAdjust="spacing" textLength="4.4502" x="41.7749" y="304.292">&#160;</text></g><ellipse cx="225" cy="54.2969" fill="#222222" rx="10" ry="10" style="stroke:#222222;stroke-width:1;"/><ellipse cx="231" cy="418.2969" fill="none" rx="11" ry="11" style="stroke:#222222;stroke-width:1;"/><ellipse cx="231" cy="418.2969" fill="#222222" rx="6" ry="6" style="stroke:#222222;stroke-width:1;"/><!--link *start*eliminarPublicacion to ConfirmandoEliminacion--><g class="link" data-entity-1="ent0002" data-entity-2="ent0003" data-link-type="dependency" data-source-line="8" id="lnk3"><path d="M225,64.5269 C225,80.2369 225,106.6569 225,129.1669" fill="none" id="*start*eliminarPublicacion-to-ConfirmandoEliminacion" style="stroke:#008000;stroke-width:1;"/><polygon fill="#008000" points="225,135.1669,229,126.1669,225,130.1669,221,126.1669,225,135.1669" style="stroke:#008000;stroke-width:1;"/><path d="M230,87.2969 L230,112.2969 L526,112.2969 L526,97.2969 L516,87.2969 L230,87.2969" fill="#FEFFDD" style="stroke:#181818;stroke-width:0.5;"/><path d="M516,87.2969 L516,97.2969 L526,97.2969 L516,87.2969" fill="#FEFFDD" style="stroke:#181818;stroke-width:0.5;"/><text fill="#000000" font-family="sans-serif" font-size="13" font-weight="bold" lengthAdjust="spacing" textLength="90.251" x="236" y="104.3638">Coordinador</text><text fill="#000000" font-family="sans-serif" font-size="13" lengthAdjust="spacing" textLength="181.1177" x="330.3833" y="104.3638">solicita eliminar publicaci&#243;n</text></g><!--link ConfirmandoEliminacion to PublicacionEliminada--><g class="link" data-entity-1="ent0003" data-entity-2="ent0004" data-link-type="dependency" data-source-line="13" id="lnk4"><path d="M199.53,167.0469 C148.59,178.5469 39,203.2969 39,203.2969 C39,203.2969 39,268.2969 39,268.2969 C39,268.2969 39.2807,270.6689 40.3807,279.9089" fill="none" id="ConfirmandoEliminacion-to-PublicacionEliminada" style="stroke:#008000;stroke-width:1;"/><polygon fill="#008000" points="41.09,285.8669,43.998,276.4571,40.4989,280.9019,36.0541,277.4028,41.09,285.8669" style="stroke:#008000;stroke-width:1;"/><path d="M44,208.2969 L44,263.2969 L394,263.2969 L394,218.2969 L384,208.2969 L44,208.2969" fill="#FEFFDD" style="stroke:#181818;stroke-width:0.5;"/><path d="M384,208.2969 L384,218.2969 L394,218.2969 L384,208.2969" fill="#FEFFDD" style="stroke:#181818;stroke-width:0.5;"/><text fill="#000000" font-family="sans-serif" font-size="13" font-weight="bold" lengthAdjust="spacing" textLength="58.9063" x="50" y="225.3638">Sistema</text><text fill="#000000" font-family="sans-serif" font-size="13" lengthAdjust="spacing" textLength="245.4258" x="113.0386" y="225.3638">presenta confirmaci&#243;n de eliminaci&#243;n</text><text fill="#000000" font-family="sans-serif" font-size="13" font-weight="bold" lengthAdjust="spacing" textLength="90.251" x="50" y="240.4966">Coordinador</text><text fill="#000000" font-family="sans-serif" font-size="13" lengthAdjust="spacing" textLength="191.5405" x="144.3833" y="240.4966">solicita confirmar eliminaci&#243;n</text><text fill="#000000" font-family="sans-serif" font-size="13" font-weight="bold" lengthAdjust="spacing" textLength="58.9063" x="50" y="255.6294">Sistema</text><text fill="#000000" font-family="sans-serif" font-size="13" lengthAdjust="spacing" textLength="266.4238" x="113.0386" y="255.6294">presenta la eliminaci&#243;n de la publicaci&#243;n</text></g><!--link ConfirmandoEliminacion to *end*eliminarPublicacion--><g class="link" data-entity-1="ent0003" data-entity-2="ent0005" data-link-type="dependency" data-source-line="20" id="lnk6"><path d="M250.3,167.4069 C298.56,179.0569 399,203.2969 399,203.2969 C399,203.2969 399,389.2969 399,389.2969 C399,389.2969 285.3184,408.2405 247.9384,414.4705" fill="none" id="ConfirmandoEliminacion-to-*end*eliminarPublicacion" style="stroke:#FF0000;stroke-width:1;"/><polygon fill="#FF0000" points="242.02,415.4569,251.5551,417.9229,246.952,414.6349,250.2399,410.0317,242.02,415.4569" style="stroke:#FF0000;stroke-width:1;"/><path d="M404,298.7969 L404,323.7969 L709,323.7969 L709,308.7969 L699,298.7969 L404,298.7969" fill="#FEFFDD" style="stroke:#181818;stroke-width:0.5;"/><path d="M699,298.7969 L699,308.7969 L709,308.7969 L699,298.7969" fill="#FEFFDD" style="stroke:#181818;stroke-width:0.5;"/><text fill="#000000" font-family="sans-serif" font-size="13" font-weight="bold" lengthAdjust="spacing" textLength="90.251" x="410" y="315.8638">Coordinador</text><text fill="#000000" font-family="sans-serif" font-size="13" lengthAdjust="spacing" textLength="189.6362" x="504.3833" y="315.8638">solicita cancelar la operaci&#243;n</text></g><!--link PublicacionEliminada to *end*eliminarPublicacion--><g class="link" data-entity-1="ent0004" data-entity-2="ent0005" data-link-type="dependency" data-source-line="25" id="lnk7"><path d="M49.06,336.6569 C53.75,359.2169 60,389.2969 60,389.2969 C60,389.2969 176.3789,408.3573 214.1189,414.5373" fill="none" id="PublicacionEliminada-to-*end*eliminarPublicacion" style="stroke:#008000;stroke-width:1;"/><polygon fill="#008000" points="220.04,415.5069,211.8047,410.1051,215.1057,414.6989,210.5119,417.9999,220.04,415.5069" style="stroke:#008000;stroke-width:1;"/><path d="M65,359.2969 L65,384.2969 L394,384.2969 L394,369.2969 L384,359.2969 L65,359.2969" fill="#FEFFDD" style="stroke:#181818;stroke-width:0.5;"/><path d="M384,359.2969 L384,369.2969 L394,369.2969 L384,359.2969" fill="#FEFFDD" style="stroke:#181818;stroke-width:0.5;"/><text fill="#000000" font-family="sans-serif" font-size="13" font-weight="bold" lengthAdjust="spacing" textLength="58.9063" x="71" y="376.3638">Sistema</text><text fill="#000000" font-family="sans-serif" font-size="13" lengthAdjust="spacing" textLength="245.4258" x="134.0386" y="376.3638">presenta confirmaci&#243;n de eliminaci&#243;n</text></g><g><rect fill="#F1F1F1" height="50" rx="12.5" ry="12.5" style="stroke:#181818;stroke-width:0.5;" width="181.9844" x="752.51" y="198.15"/><line style="stroke:#181818;stroke-width:0.5;" x1="752.51" x2="934.4944" y1="224.4469" y2="224.4469"/><text fill="#000000" font-family="sans-serif" font-size="14" lengthAdjust="spacing" textLength="161.9844" x="762.51" y="216.1451">PUBLICACION_ABIERTA</text></g><g><rect fill="#F1F1F1" height="50" rx="12.5" ry="12.5" style="stroke:#181818;stroke-width:0.5;" width="208.6035" x="498.2" y="534.3"/><line style="stroke:#181818;stroke-width:0.5;" x1="498.2" x2="706.8035" y1="560.5969" y2="560.5969"/><text fill="#000000" font-family="sans-serif" font-size="14" lengthAdjust="spacing" textLength="188.6035" x="508.2" y="552.2951">PUBLICACIONES_ABIERTAS</text></g><!--link PUBLICACION_ABIERTA to PUBLICACIONES_ABIERTAS--><g class="link" data-entity-1="ent0008" data-entity-2="ent0009" data-link-type="dependency" data-source-line="31" id="lnk10"><path d="M833.67,248.52 C806.18,316.68 730.5,504.3 730.5,504.3 C730.5,504.3 699.9081,517.2076 666.0381,531.4976" fill="none" id="PUBLICACION_ABIERTA-to-PUBLICACIONES_ABIERTAS" style="stroke:#008000;stroke-width:1;"/><polygon fill="#008000" points="660.51,533.83,670.3571,534.0169,665.1168,531.8864,667.2473,526.6461,660.51,533.83" style="stroke:#008000;stroke-width:1;"/><path d="M749.5,474.3 L749.5,499.3 L906.5,499.3 L906.5,484.3 L896.5,474.3 L749.5,474.3" fill="#FEFFDD" style="stroke:#181818;stroke-width:0.5;"/><path d="M896.5,474.3 L896.5,484.3 L906.5,484.3 L896.5,474.3" fill="#FEFFDD" style="stroke:#181818;stroke-width:0.5;"/><text fill="#000000" font-family="sans-serif" font-size="13" lengthAdjust="spacing" textLength="136.811" x="755.5" y="491.3669">eliminarPublicacion()</text></g><!--link eliminarPublicacion to PUBLICACIONES_ABIERTAS--><g class="link" data-entity-1="ent0002" data-entity-2="ent0009" data-link-type="dependency" data-source-line="36" id="lnk11"><path d="M517.21,439.55 C544.6,477.69 565.8489,507.2774 581.5489,529.1274" fill="none" id="eliminarPublicacion-to-PUBLICACIONES_ABIERTAS" style="stroke:#008000;stroke-width:1;"/><polygon fill="#008000" points="585.05,534,583.0467,524.357,582.1324,529.9395,576.5499,529.0252,585.05,534" style="stroke:#008000;stroke-width:1;"/><path d="M567.5,474.3 L567.5,499.3 L717.5,499.3 L717.5,484.3 L707.5,474.3 L567.5,474.3" fill="#FEFFDD" style="stroke:#181818;stroke-width:0.5;"/><path d="M707.5,474.3 L707.5,484.3 L717.5,484.3 L707.5,474.3" fill="#FEFFDD" style="stroke:#181818;stroke-width:0.5;"/><text fill="#000000" font-family="sans-serif" font-size="13" lengthAdjust="spacing" textLength="129.0542" x="573.5" y="491.3669">abrirPublicaciones()</text></g><!--SRC=[dPDDQiCm48NtEeL8DsqXz0B1u1Wl3AKDTRiAeOpjIH6H9I6vYr1wgXwX5-lOZl-eOaZibKSpxtqpOxc3K0Oib5mAXTNH83TQ7kiFnbm55NAKeXGAxEOpaoA7N6Z5mV659tvxj-1VZ75wsje5lPGRQRKNjWHLwBYjghF_vusaJda5j7BR-nrVRcy-BABQBOCvHQL9a1YfXqCJM6L1fBKjQZbjLmzPm9qc7r51tnmtdVNlJok3gcYaMd-_tmJ92tyEA1MkmX8Q66FHeIAO_6JIGF2Y7_q0DTTALsszPLv32PFSsf92Lu_2Ob4FWdPr-I9oK3bAWYS0RT2UjVUDURA7EVihnzuJV3EsULi_9b4O9SzFx-4wYLzUm-blC9p7QPUHiWcDz-gmeK_VbRlK0p8hnWBeHXP_]--></g></svg>