<svg xmlns="http://www.w3.org/2000/svg" xmlns:xlink="http://www.w3.org/1999/xlink" contentStyleType="text/css" data-diagram-type="CLASS" height="599px" preserveAspectRatio="none" style="width:445px;height:599px;background:#FFFFFF;" version="1.1" viewBox="0 0 445 599" width="445px" zoomAndPan="magnify"><title>Diagrama de clases - Plataforma FUNIBER</title><defs/><g><g class="title" data-source-line="1"><text fill="#000000" font-family="sans-serif" font-size="14" font-weight="bold" lengthAdjust="spacing" textLength="330.8457" x="50.4795" y="22.9951">Diagrama de clases - Plataforma FUNIBER</text></g><!--class Usuario--><g class="entity" data-entity="Usuario" data-source-line="3" data-uid="ent0002" id="entity_Usuario"><rect fill="#F1F1F1" height="48" rx="2.5" ry="2.5" style="stroke:#181818;stroke-width:0.5;" width="85.2041" x="32.5" y="169.2969"/><ellipse cx="47.5" cy="185.2969" fill="#ADD1B2" rx="11" ry="11" style="stroke:#181818;stroke-width:1;"/><path d="M50.4688,190.9375 Q49.8906,191.2344 49.25,191.375 Q48.6094,191.5313 47.9063,191.5313 Q45.4063,191.5313 44.0781,189.8906 Q42.7656,188.2344 42.7656,185.1094 Q42.7656,181.9844 44.0781,180.3281 Q45.4063,178.6719 47.9063,178.6719 Q48.6094,178.6719 49.25,178.8281 Q49.9063,178.9844 50.4688,179.2813 L50.4688,182 Q49.8438,181.4219 49.25,181.1563 Q48.6563,180.875 48.0313,180.875 Q46.6875,180.875 46,181.9531 Q45.3125,183.0156 45.3125,185.1094 Q45.3125,187.2031 46,188.2813 Q46.6875,189.3438 48.0313,189.3438 Q48.6563,189.3438 49.25,189.0781 Q49.8438,188.7969 50.4688,188.2188 L50.4688,190.9375 Z " fill="#000000"/><text fill="#000000" font-family="sans-serif" font-size="14" lengthAdjust="spacing" textLength="53.2041" x="61.5" y="190.1436">Usuario</text><line style="stroke:#181818;stroke-width:0.5;" x1="33.5" x2="116.7041" y1="201.2969" y2="201.2969"/><line style="stroke:#181818;stroke-width:0.5;" x1="33.5" x2="116.7041" y1="209.2969" y2="209.2969"/></g><!--class Convocatoria--><g class="entity" data-entity="Convocatoria" data-source-line="4" data-uid="ent0003" id="entity_Convocatoria"><rect fill="#F1F1F1" height="48" rx="2.5" ry="2.5" style="stroke:#181818;stroke-width:0.5;" width="124.6201" x="164.5" y="169.2969"/><ellipse cx="179.5" cy="185.2969" fill="#ADD1B2" rx="11" ry="11" style="stroke:#181818;stroke-width:1;"/><path d="M182.4688,190.9375 Q181.8906,191.2344 181.25,191.375 Q180.6094,191.5313 179.9063,191.5313 Q177.4063,191.5313 176.0781,189.8906 Q174.7656,188.2344 174.7656,185.1094 Q174.7656,181.9844 176.0781,180.3281 Q177.4063,178.6719 179.9063,178.6719 Q180.6094,178.6719 181.25,178.8281 Q181.9063,178.9844 182.4688,179.2813 L182.4688,182 Q181.8438,181.4219 181.25,181.1563 Q180.6563,180.875 180.0313,180.875 Q178.6875,180.875 178,181.9531 Q177.3125,183.0156 177.3125,185.1094 Q177.3125,187.2031 178,188.2813 Q178.6875,189.3438 180.0313,189.3438 Q180.6563,189.3438 181.25,189.0781 Q181.8438,188.7969 182.4688,188.2188 L182.4688,190.9375 Z " fill="#000000"/><text fill="#000000" font-family="sans-serif" font-size="14" lengthAdjust="spacing" textLength="92.6201" x="193.5" y="190.1436">Convocatoria</text><line style="stroke:#181818;stroke-width:0.5;" x1="165.5" x2="288.1201" y1="201.2969" y2="201.2969"/><line style="stroke:#181818;stroke-width:0.5;" x1="165.5" x2="288.1201" y1="209.2969" y2="209.2969"/></g><!--class Propuesta--><g class="entity" data-entity="Propuesta" data-source-line="5" data-uid="ent0004" id="entity_Propuesta"><rect fill="#F1F1F1" height="48" rx="2.5" ry="2.5" style="stroke:#181818;stroke-width:0.5;" width="102.499" x="176" y="294.2969"/><ellipse cx="191" cy="310.2969" fill="#ADD1B2" rx="11" ry="11" style="stroke:#181818;stroke-width:1;"/><path d="M193.9688,315.9375 Q193.3906,316.2344 192.75,316.375 Q192.1094,316.5313 191.4063,316.5313 Q188.9063,316.5313 187.5781,314.8906 Q186.2656,313.2344 186.2656,310.1094 Q186.2656,306.9844 187.5781,305.3281 Q188.9063,303.6719 191.4063,303.6719 Q192.1094,303.6719 192.75,303.8281 Q193.4063,303.9844 193.9688,304.2813 L193.9688,307 Q193.3438,306.4219 192.75,306.1563 Q192.1563,305.875 191.5313,305.875 Q190.1875,305.875 189.5,306.9531 Q188.8125,308.0156 188.8125,310.1094 Q188.8125,312.2031 189.5,313.2813 Q190.1875,314.3438 191.5313,314.3438 Q192.1563,314.3438 192.75,314.0781 Q193.3438,313.7969 193.9688,313.2188 L193.9688,315.9375 Z " fill="#000000"/><text fill="#000000" font-family="sans-serif" font-size="14" lengthAdjust="spacing" textLength="70.499" x="205" y="315.1436">Propuesta</text><line style="stroke:#181818;stroke-width:0.5;" x1="177" x2="277.499" y1="326.2969" y2="326.2969"/><line style="stroke:#181818;stroke-width:0.5;" x1="177" x2="277.499" y1="334.2969" y2="334.2969"/></g><!--class Proyecto--><g class="entity" data-entity="Proyecto" data-source-line="6" data-uid="ent0005" id="entity_Proyecto"><rect fill="#F1F1F1" height="48" rx="2.5" ry="2.5" style="stroke:#181818;stroke-width:0.5;" width="93.4141" x="171.5" y="419.2969"/><ellipse cx="186.5" cy="435.2969" fill="#ADD1B2" rx="11" ry="11" style="stroke:#181818;stroke-width:1;"/><path d="M189.4688,440.9375 Q188.8906,441.2344 188.25,441.375 Q187.6094,441.5313 186.9063,441.5313 Q184.4063,441.5313 183.0781,439.8906 Q181.7656,438.2344 181.7656,435.1094 Q181.7656,431.9844 183.0781,430.3281 Q184.4063,428.6719 186.9063,428.6719 Q187.6094,428.6719 188.25,428.8281 Q188.9063,428.9844 189.4688,429.2813 L189.4688,432 Q188.8438,431.4219 188.25,431.1563 Q187.6563,430.875 187.0313,430.875 Q185.6875,430.875 185,431.9531 Q184.3125,433.0156 184.3125,435.1094 Q184.3125,437.2031 185,438.2813 Q185.6875,439.3438 187.0313,439.3438 Q187.6563,439.3438 188.25,439.0781 Q188.8438,438.7969 189.4688,438.2188 L189.4688,440.9375 Z " fill="#000000"/><text fill="#000000" font-family="sans-serif" font-size="14" lengthAdjust="spacing" textLength="61.4141" x="200.5" y="440.1436">Proyecto</text><line style="stroke:#181818;stroke-width:0.5;" x1="172.5" x2="263.9141" y1="451.2969" y2="451.2969"/><line style="stroke:#181818;stroke-width:0.5;" x1="172.5" x2="263.9141" y1="459.2969" y2="459.2969"/></g><!--class Entregable--><g class="entity" data-entity="Entregable" data-source-line="7" data-uid="ent0006" id="entity_Entregable"><rect fill="#F1F1F1" height="48" rx="2.5" ry="2.5" style="stroke:#181818;stroke-width:0.5;" width="108.4326" x="7" y="544.2969"/><ellipse cx="22" cy="560.2969" fill="#ADD1B2" rx="11" ry="11" style="stroke:#181818;stroke-width:1;"/><path d="M24.9688,565.9375 Q24.3906,566.2344 23.75,566.375 Q23.1094,566.5313 22.4063,566.5313 Q19.9063,566.5313 18.5781,564.8906 Q17.2656,563.2344 17.2656,560.1094 Q17.2656,556.9844 18.5781,555.3281 Q19.9063,553.6719 22.4063,553.6719 Q23.1094,553.6719 23.75,553.8281 Q24.4063,553.9844 24.9688,554.2813 L24.9688,557 Q24.3438,556.4219 23.75,556.1563 Q23.1563,555.875 22.5313,555.875 Q21.1875,555.875 20.5,556.9531 Q19.8125,558.0156 19.8125,560.1094 Q19.8125,562.2031 20.5,563.2813 Q21.1875,564.3438 22.5313,564.3438 Q23.1563,564.3438 23.75,564.0781 Q24.3438,563.7969 24.9688,563.2188 L24.9688,565.9375 Z " fill="#000000"/><text fill="#000000" font-family="sans-serif" font-size="14" lengthAdjust="spacing" textLength="76.4326" x="36" y="565.1436">Entregable</text><line style="stroke:#181818;stroke-width:0.5;" x1="8" x2="114.4326" y1="576.2969" y2="576.2969"/><line style="stroke:#181818;stroke-width:0.5;" x1="8" x2="114.4326" y1="584.2969" y2="584.2969"/></g><!--class Compensacion--><g class="entity" data-entity="Compensacion" data-source-line="8" data-uid="ent0007" id="entity_Compensacion"><rect fill="#F1F1F1" height="48" rx="2.5" ry="2.5" style="stroke:#181818;stroke-width:0.5;" width="135.25" x="150.5" y="544.2969"/><ellipse cx="165.5" cy="560.2969" fill="#ADD1B2" rx="11" ry="11" style="stroke:#181818;stroke-width:1;"/><path d="M168.4688,565.9375 Q167.8906,566.2344 167.25,566.375 Q166.6094,566.5313 165.9063,566.5313 Q163.4063,566.5313 162.0781,564.8906 Q160.7656,563.2344 160.7656,560.1094 Q160.7656,556.9844 162.0781,555.3281 Q163.4063,553.6719 165.9063,553.6719 Q166.6094,553.6719 167.25,553.8281 Q167.9063,553.9844 168.4688,554.2813 L168.4688,557 Q167.8438,556.4219 167.25,556.1563 Q166.6563,555.875 166.0313,555.875 Q164.6875,555.875 164,556.9531 Q163.3125,558.0156 163.3125,560.1094 Q163.3125,562.2031 164,563.2813 Q164.6875,564.3438 166.0313,564.3438 Q166.6563,564.3438 167.25,564.0781 Q167.8438,563.7969 168.4688,563.2188 L168.4688,565.9375 Z " fill="#000000"/><text fill="#000000" font-family="sans-serif" font-size="14" lengthAdjust="spacing" textLength="103.25" x="179.5" y="565.1436">Compensacion</text><line style="stroke:#181818;stroke-width:0.5;" x1="151.5" x2="284.75" y1="576.2969" y2="576.2969"/><line style="stroke:#181818;stroke-width:0.5;" x1="151.5" x2="284.75" y1="584.2969" y2="584.2969"/></g><!--class Colaborador--><g class="entity" data-entity="Colaborador" data-source-line="9" data-uid="ent0008" id="entity_Colaborador"><rect fill="#F1F1F1" height="48" rx="2.5" ry="2.5" style="stroke:#181818;stroke-width:0.5;" width="117.8047" x="321" y="544.2969"/><ellipse cx="336" cy="560.2969" fill="#ADD1B2" rx="11" ry="11" style="stroke:#181818;stroke-width:1;"/><path d="M338.9688,565.9375 Q338.3906,566.2344 337.75,566.375 Q337.1094,566.5313 336.4063,566.5313 Q333.9063,566.5313 332.5781,564.8906 Q331.2656,563.2344 331.2656,560.1094 Q331.2656,556.9844 332.5781,555.3281 Q333.9063,553.6719 336.4063,553.6719 Q337.1094,553.6719 337.75,553.8281 Q338.4063,553.9844 338.9688,554.2813 L338.9688,557 Q338.3438,556.4219 337.75,556.1563 Q337.1563,555.875 336.5313,555.875 Q335.1875,555.875 334.5,556.9531 Q333.8125,558.0156 333.8125,560.1094 Q333.8125,562.2031 334.5,563.2813 Q335.1875,564.3438 336.5313,564.3438 Q337.1563,564.3438 337.75,564.0781 Q338.3438,563.7969 338.9688,563.2188 L338.9688,565.9375 Z " fill="#000000"/><text fill="#000000" font-family="sans-serif" font-size="14" lengthAdjust="spacing" textLength="85.8047" x="350" y="565.1436">Colaborador</text><line style="stroke:#181818;stroke-width:0.5;" x1="322" x2="437.8047" y1="576.2969" y2="576.2969"/><line style="stroke:#181818;stroke-width:0.5;" x1="322" x2="437.8047" y1="584.2969" y2="584.2969"/></g><!--class DepartamentoProyectos--><g class="entity" data-entity="DepartamentoProyectos" data-source-line="10" data-uid="ent0009" id="entity_DepartamentoProyectos"><rect fill="#F1F1F1" height="48" rx="2.5" ry="2.5" style="stroke:#181818;stroke-width:0.5;" width="202.5703" x="183.5" y="44.2969"/><ellipse cx="198.5" cy="60.2969" fill="#ADD1B2" rx="11" ry="11" style="stroke:#181818;stroke-width:1;"/><path d="M201.4688,65.9375 Q200.8906,66.2344 200.25,66.375 Q199.6094,66.5313 198.9063,66.5313 Q196.4063,66.5313 195.0781,64.8906 Q193.7656,63.2344 193.7656,60.1094 Q193.7656,56.9844 195.0781,55.3281 Q196.4063,53.6719 198.9063,53.6719 Q199.6094,53.6719 200.25,53.8281 Q200.9063,53.9844 201.4688,54.2813 L201.4688,57 Q200.8438,56.4219 200.25,56.1563 Q199.6563,55.875 199.0313,55.875 Q197.6875,55.875 197,56.9531 Q196.3125,58.0156 196.3125,60.1094 Q196.3125,62.2031 197,63.2813 Q197.6875,64.3438 199.0313,64.3438 Q199.6563,64.3438 200.25,64.0781 Q200.8438,63.7969 201.4688,63.2188 L201.4688,65.9375 Z " fill="#000000"/><text fill="#000000" font-family="sans-serif" font-size="14" lengthAdjust="spacing" textLength="170.5703" x="212.5" y="65.1436">DepartamentoProyectos</text><line style="stroke:#181818;stroke-width:0.5;" x1="184.5" x2="385.0703" y1="76.2969" y2="76.2969"/><line style="stroke:#181818;stroke-width:0.5;" x1="184.5" x2="385.0703" y1="84.2969" y2="84.2969"/></g><!--link Usuario to Propuesta--><g class="link" data-entity-1="Usuario" data-entity-2="Propuesta" data-source-line="12" data-uid="lnk10" id="link_Usuario_Propuesta"><path codeLine="12" d="M102.83,217.4469 C119.38,231.1569 140.81,248.8069 160,264.2969 C172.23,274.1669 181.1086,281.2416 192.8386,290.4916" fill="none" id="Usuario-to-Propuesta" style="stroke:#181818;stroke-width:1;"/><polygon fill="#181818" points="197.55,294.2069,192.9598,285.4931,193.6239,291.1108,188.0061,291.7749,197.55,294.2069" style="stroke:#181818;stroke-width:1;"/><text fill="#000000" font-family="sans-serif" font-size="13" lengthAdjust="spacing" textLength="57.6685" x="161" y="260.3638">presenta</text></g><!--link Convocatoria to Propuesta--><g class="link" data-entity-1="Convocatoria" data-entity-2="Propuesta" data-source-line="13" data-uid="lnk11" id="link_Convocatoria_Propuesta"><path codeLine="13" d="M227,217.4369 C227,239.4269 227,266.3069 227,288.2669" fill="none" id="Convocatoria-to-Propuesta" style="stroke:#181818;stroke-width:1;"/><polygon fill="#181818" points="227,294.2669,231,285.2669,227,289.2669,223,285.2669,227,294.2669" style="stroke:#181818;stroke-width:1;"/><text fill="#000000" font-family="sans-serif" font-size="13" lengthAdjust="spacing" textLength="44.9795" x="228" y="260.3638">origina</text></g><!--link Propuesta to Proyecto--><g class="link" data-entity-1="Propuesta" data-entity-2="Proyecto" data-source-line="14" data-uid="lnk12" id="link_Propuesta_Proyecto"><path codeLine="14" d="M220.61,342.3269 C218.36,351.5669 216.11,362.3569 215,372.2969 C213.26,387.8869 213.5053,399.5699 214.7053,413.2399" fill="none" id="Propuesta-to-Proyecto" style="stroke:#181818;stroke-width:1;"/><polygon fill="#181818" points="215.23,419.2169,218.4277,409.9016,214.7928,414.236,210.4583,410.6011,215.23,419.2169" style="stroke:#181818;stroke-width:1;"/><text fill="#000000" font-family="sans-serif" font-size="13" lengthAdjust="spacing" textLength="100.3564" x="216" y="385.3638">se convierte en</text></g><!--link Proyecto to Entregable--><g class="link" data-entity-1="Proyecto" data-entity-2="Entregable" data-source-line="15" data-uid="lnk13" id="link_Proyecto_Entregable"><path codeLine="15" d="M188.47,467.4369 C160.4,489.4269 123.1425,518.6058 95.1225,540.5658" fill="none" id="Proyecto-to-Entregable" style="stroke:#181818;stroke-width:1;"/><polygon fill="#181818" points="90.4,544.2669,99.9511,541.8635,94.3354,541.1826,95.0163,535.5669,90.4,544.2669" style="stroke:#181818;stroke-width:1;"/><text fill="#000000" font-family="sans-serif" font-size="13" lengthAdjust="spacing" textLength="32.9443" x="150" y="510.3638">tiene</text></g><!--link Proyecto to Compensacion--><g class="link" data-entity-1="Proyecto" data-entity-2="Compensacion" data-source-line="16" data-uid="lnk14" id="link_Proyecto_Compensacion"><path codeLine="16" d="M218,467.4369 C218,489.4269 218,516.3069 218,538.2669" fill="none" id="Proyecto-to-Compensacion" style="stroke:#181818;stroke-width:1;"/><polygon fill="#181818" points="218,544.2669,222,535.2669,218,539.2669,214,535.2669,218,544.2669" style="stroke:#181818;stroke-width:1;"/><text fill="#000000" font-family="sans-serif" font-size="13" lengthAdjust="spacing" textLength="45.7983" x="219" y="510.3638">genera</text></g><!--link Proyecto to Colaborador--><g class="link" data-entity-1="Proyecto" data-entity-2="Colaborador" data-source-line="17" data-uid="lnk15" id="link_Proyecto_Colaborador"><path codeLine="17" d="M248.47,467.4369 C277.43,489.4269 315.9715,518.6784 344.8915,540.6384" fill="none" id="Proyecto-to-Colaborador" style="stroke:#181818;stroke-width:1;"/><polygon fill="#181818" points="349.67,544.2669,344.9212,535.6385,345.6879,541.2431,340.0833,542.0098,349.67,544.2669" style="stroke:#181818;stroke-width:1;"/><text fill="#000000" font-family="sans-serif" font-size="13" lengthAdjust="spacing" textLength="46.541" x="309" y="510.3638">incluye</text></g><!--link DepartamentoProyectos to Convocatoria--><g class="link" data-entity-1="DepartamentoProyectos" data-entity-2="Convocatoria" data-source-line="18" data-uid="lnk16" id="link_DepartamentoProyectos_Convocatoria"><path codeLine="18" d="M274.09,92.4369 C263.72,114.4269 250.768,141.8795 240.418,163.8395" fill="none" id="DepartamentoProyectos-to-Convocatoria" style="stroke:#181818;stroke-width:1;"/><polygon fill="#181818" points="237.86,169.2669,245.3153,162.8311,239.9917,164.744,238.0787,159.4204,237.86,169.2669" style="stroke:#181818;stroke-width:1;"/><text fill="#000000" font-family="sans-serif" font-size="13" lengthAdjust="spacing" textLength="55.8911" x="260" y="135.3638">gestiona</text></g><!--link DepartamentoProyectos to Proyecto--><g class="link" data-entity-1="DepartamentoProyectos" data-entity-2="Proyecto" data-source-line="19" data-uid="lnk17" id="link_DepartamentoProyectos_Proyecto"><path codeLine="19" d="M305.17,92.5069 C311.52,101.2569 317.73,111.6669 321,122.2969 C355.88,235.7169 382.8,287.9969 321,389.2969 C308.64,409.5569 291.4018,420.2738 270.3618,428.2338" fill="none" id="DepartamentoProyectos-to-Proyecto" style="stroke:#181818;stroke-width:1;"/><polygon fill="#181818" points="264.75,430.3569,274.5831,430.9134,269.4265,428.5876,271.7523,423.431,264.75,430.3569" style="stroke:#181818;stroke-width:1;"/><text fill="#000000" font-family="sans-serif" font-size="13" lengthAdjust="spacing" textLength="62.6514" x="358" y="260.3638">supervisa</text></g><!--link Usuario to Proyecto--><g class="link" data-entity-1="Usuario" data-entity-2="Proyecto" data-source-line="20" data-uid="lnk18" id="link_Usuario_Proyecto"><path codeLine="20" d="M69.84,217.4369 C64.3,247.9969 58.88,302.5769 80,342.2969 C99.59,379.1269 134.129,402.9736 165.999,419.4336" fill="none" id="Usuario-to-Proyecto" style="stroke:#181818;stroke-width:1;"/><polygon fill="#181818" points="171.33,422.1869,165.1691,414.5029,166.8875,419.8925,161.498,421.6109,171.33,422.1869" style="stroke:#181818;stroke-width:1;"/><text fill="#000000" font-family="sans-serif" font-size="13" lengthAdjust="spacing" textLength="77.6191" x="81" y="322.8638">participa en</text></g><!--SRC=[VP11QWCn34NtFeKkC1VmeeisANHJGY47K1nr4CpOHj84GkdTOvDCnZEKRj__-lmlOni8Teozu8Xm9WW3AYbqS1ZGy3j9mU_7pu_N_PTpLLGuweJ22Nv-7-0jnKiAQ4aO5tgGb2TIMwCh1MjEzz64UZoL5atSc2ag1awnfGEUak0voG9tb54CHugMvd2jifjBTjrBqyH35jBYHhSglNKLs7D4jx27urxVWvPFbG0cCGAAxYbLNpFAWp55MkkhWHxwOX3SMfQr7ZY6ORgI-tlktT-igP5g9Hp_kMZ7J9damehRhys6ci61CvQfDm00]--></g></svg>