<svg xmlns="http://www.w3.org/2000/svg" xmlns:xlink="http://www.w3.org/1999/xlink" contentStyleType="text/css" data-diagram-type="CLASS" height="933px" preserveAspectRatio="none" style="width:1189px;height:933px;background:#FFFFFF;" version="1.1" viewBox="0 0 1189 933" width="1189px" zoomAndPan="magnify"><title>Instancia del sistema de red de investigadores</title><defs/><g><g class="title" data-source-line="1"><text fill="#000000" font-family="sans-serif" font-size="14" font-weight="bold" lengthAdjust="spacing" textLength="369.9131" x="402.7072" y="22.9951">Instancia del sistema de red de investigadores</text></g><!--class Mar--><g class="entity" data-entity="Mar" data-source-line="4" data-uid="ent0002" id="entity_Mar"><rect fill="#F1F1F1" height="105.1563" rx="2.5" ry="2.5" style="stroke:#181818;stroke-width:0.5;" width="184.9971" x="654.96" y="44.2969"/><ellipse cx="700.9673" cy="64.4297" fill="#ADD1B2" rx="11" ry="11" style="stroke:#181818;stroke-width:1;"/><path d="M703.9361,70.0703 Q703.3579,70.3672 702.7173,70.5078 Q702.0767,70.6641 701.3736,70.6641 Q698.8736,70.6641 697.5454,69.0234 Q696.2329,67.3672 696.2329,64.2422 Q696.2329,61.1172 697.5454,59.4609 Q698.8736,57.8047 701.3736,57.8047 Q702.0767,57.8047 702.7173,57.9609 Q703.3736,58.1172 703.9361,58.4141 L703.9361,61.1328 Q703.3111,60.5547 702.7173,60.2891 Q702.1236,60.0078 701.4986,60.0078 Q700.1548,60.0078 699.4673,61.0859 Q698.7798,62.1484 698.7798,64.2422 Q698.7798,66.3359 699.4673,67.4141 Q700.1548,68.4766 701.4986,68.4766 Q702.1236,68.4766 702.7173,68.2109 Q703.3111,67.9297 703.9361,67.3516 L703.9361,70.0703 Z " fill="#000000"/><text fill="#000000" font-family="sans-serif" font-size="12" font-style="italic" lengthAdjust="spacing" textLength="88.4824" x="719.4673" y="60.4355">&#171;Coordinador&#187;</text><text fill="#000000" font-family="sans-serif" font-size="14" lengthAdjust="spacing" textLength="26.4141" x="750.5015" y="76.2607">Mar</text><line style="stroke:#181818;stroke-width:0.5;" x1="655.96" x2="838.9571" y1="84.5625" y2="84.5625"/><text fill="#000000" font-family="sans-serif" font-size="14" lengthAdjust="spacing" textLength="114.2559" x="660.96" y="101.5576">nombre = "Mar"</text><text fill="#000000" font-family="sans-serif" font-size="14" lengthAdjust="spacing" textLength="172.9971" x="660.96" y="117.8545">ubicacion = "Santander"</text><text fill="#000000" font-family="sans-serif" font-size="14" lengthAdjust="spacing" textLength="73.4932" x="660.96" y="134.1514">id= 12345</text><line style="stroke:#181818;stroke-width:0.5;" x1="655.96" x2="838.9571" y1="141.4531" y2="141.4531"/></g><!--class Manuel--><g class="entity" data-entity="Manuel" data-source-line="11" data-uid="ent0003" id="entity_Manuel"><rect fill="#FFAAAA" height="105.1563" rx="2.5" ry="2.5" style="stroke:#181818;stroke-width:0.5;" width="168.5498" x="484.18" y="226.4469"/><ellipse cx="499.5522" cy="246.5797" fill="#ADD1B2" rx="11" ry="11" style="stroke:#181818;stroke-width:1;"/><path d="M502.521,252.2203 Q501.9428,252.5172 501.3022,252.6578 Q500.6616,252.8141 499.9585,252.8141 Q497.4585,252.8141 496.1303,251.1734 Q494.8178,249.5172 494.8178,246.3922 Q494.8178,243.2672 496.1303,241.6109 Q497.4585,239.9547 499.9585,239.9547 Q500.6616,239.9547 501.3022,240.1109 Q501.9585,240.2672 502.521,240.5641 L502.521,243.2828 Q501.896,242.7047 501.3022,242.4391 Q500.7085,242.1578 500.0835,242.1578 Q498.7397,242.1578 498.0522,243.2359 Q497.3647,244.2984 497.3647,246.3922 Q497.3647,248.4859 498.0522,249.5641 Q498.7397,250.6266 500.0835,250.6266 Q500.7085,250.6266 501.3022,250.3609 Q501.896,250.0797 502.521,249.5016 L502.521,252.2203 Z " fill="#000000"/><text fill="#000000" font-family="sans-serif" font-size="12" font-style="italic" lengthAdjust="spacing" textLength="139.7227" x="511.6349" y="242.5855">&#171;InvestigadorDocente&#187;</text><text fill="#000000" font-family="sans-serif" font-size="14" lengthAdjust="spacing" textLength="50.9072" x="556.0426" y="258.4107">Manuel</text><line style="stroke:#181818;stroke-width:0.5;" x1="485.18" x2="651.7298" y1="266.7125" y2="266.7125"/><text fill="#000000" font-family="sans-serif" font-size="14" lengthAdjust="spacing" textLength="134.2988" x="490.18" y="283.7076">nombre= "Manuel"</text><text fill="#000000" font-family="sans-serif" font-size="14" lengthAdjust="spacing" textLength="86.8574" x="490.18" y="300.0045">id=1234567</text><text fill="#000000" font-family="sans-serif" font-size="14" lengthAdjust="spacing" textLength="156.5498" x="490.18" y="316.3014">campo= "Inform&#225;tica"</text><line style="stroke:#181818;stroke-width:0.5;" x1="485.18" x2="651.7298" y1="323.6031" y2="323.6031"/></g><!--class PerfilManuel--><g class="entity" data-entity="PerfilManuel" data-source-line="17" data-uid="ent0004" id="entity_PerfilManuel"><rect fill="#F1F1F1" height="137.75" rx="2.5" ry="2.5" style="stroke:#181818;stroke-width:0.5;" width="294.9189" x="7" y="408.6069"/><ellipse cx="92.2534" cy="428.7397" fill="#ADD1B2" rx="11" ry="11" style="stroke:#181818;stroke-width:1;"/><path d="M95.2222,434.3803 Q94.644,434.6772 94.0034,434.8178 Q93.3628,434.9741 92.6597,434.9741 Q90.1597,434.9741 88.8315,433.3334 Q87.519,431.6772 87.519,428.5522 Q87.519,425.4272 88.8315,423.7709 Q90.1597,422.1147 92.6597,422.1147 Q93.3628,422.1147 94.0034,422.2709 Q94.6597,422.4272 95.2222,422.7241 L95.2222,425.4428 Q94.5972,424.8647 94.0034,424.5991 Q93.4097,424.3178 92.7847,424.3178 Q91.4409,424.3178 90.7534,425.3959 Q90.0659,426.4584 90.0659,428.5522 Q90.0659,430.6459 90.7534,431.7241 Q91.4409,432.7866 92.7847,432.7866 Q93.4097,432.7866 94.0034,432.5209 Q94.5972,432.2397 95.2222,431.6616 L95.2222,434.3803 Z " fill="#000000"/><text fill="#000000" font-family="sans-serif" font-size="12" font-style="italic" lengthAdjust="spacing" textLength="119.9121" x="110.7534" y="424.7455">&#171;PerfilInvestigador&#187;</text><text fill="#000000" font-family="sans-serif" font-size="14" lengthAdjust="spacing" textLength="86.4268" x="127.4961" y="440.5707">PerfilManuel</text><line style="stroke:#181818;stroke-width:0.5;" x1="8" x2="300.9189" y1="448.8725" y2="448.8725"/><text fill="#000000" font-family="sans-serif" font-size="14" lengthAdjust="spacing" textLength="134.2988" x="13" y="465.8676">nombre= "Manuel"</text><text fill="#000000" font-family="sans-serif" font-size="14" lengthAdjust="spacing" textLength="127.5244" x="13" y="482.1645">apellido="Masias"</text><text fill="#000000" font-family="sans-serif" font-size="14" lengthAdjust="spacing" textLength="33.3799" x="13" y="498.4614">dni=</text><text fill="#000000" font-family="sans-serif" font-size="14" font-weight="bold" lengthAdjust="spacing" textLength="7.3213" x="46.3799" y="498.4614">*</text><text fill="#000000" font-family="sans-serif" font-size="14" lengthAdjust="spacing" textLength="28" x="53.7012" y="498.4614">****</text><text fill="#000000" font-family="sans-serif" font-size="14" lengthAdjust="spacing" textLength="190.709" x="13" y="514.7582">carrera= "Ing. Inform&#225;tica"</text><text fill="#000000" font-family="sans-serif" font-size="14" lengthAdjust="spacing" textLength="282.9189" x="13" y="531.0551">master= "Direcci&#243;n proyectos software"</text><line style="stroke:#181818;stroke-width:0.5;" x1="8" x2="300.9189" y1="538.3569" y2="538.3569"/></g><!--class CargaTrabajoManuel--><g class="entity" data-entity="CargaTrabajoManuel" data-source-line="25" data-uid="ent0005" id="entity_CargaTrabajoManuel"><rect fill="#F1F1F1" height="88.8594" rx="2.5" ry="2.5" style="stroke:#181818;stroke-width:0.5;" width="178.127" x="373.4" y="838.1069"/><ellipse cx="388.7762" cy="858.2397" fill="#ADD1B2" rx="11" ry="11" style="stroke:#181818;stroke-width:1;"/><path d="M391.7449,863.8803 Q391.1668,864.1772 390.5262,864.3178 Q389.8855,864.4741 389.1824,864.4741 Q386.6824,864.4741 385.3543,862.8334 Q384.0418,861.1772 384.0418,858.0522 Q384.0418,854.9272 385.3543,853.2709 Q386.6824,851.6147 389.1824,851.6147 Q389.8855,851.6147 390.5262,851.7709 Q391.1824,851.9272 391.7449,852.2241 L391.7449,854.9428 Q391.1199,854.3647 390.5262,854.0991 Q389.9324,853.8178 389.3074,853.8178 Q387.9637,853.8178 387.2762,854.8959 Q386.5887,855.9584 386.5887,858.0522 Q386.5887,860.1459 387.2762,861.2241 Q387.9637,862.2866 389.3074,862.2866 Q389.9324,862.2866 390.5262,862.0209 Q391.1199,861.7397 391.7449,861.1616 L391.7449,863.8803 Z " fill="#000000"/><text fill="#000000" font-family="sans-serif" font-size="12" font-style="italic" lengthAdjust="spacing" textLength="95.584" x="427.7133" y="854.2455">&#171;CargaTrabajo&#187;</text><text fill="#000000" font-family="sans-serif" font-size="14" lengthAdjust="spacing" textLength="145.291" x="402.8598" y="870.0707">CargaTrabajoManuel</text><line style="stroke:#181818;stroke-width:0.5;" x1="374.4" x2="550.527" y1="878.3725" y2="878.3725"/><text fill="#000000" font-family="sans-serif" font-size="14" lengthAdjust="spacing" textLength="111.2139" x="379.4" y="895.3676">horasClase= 40</text><text fill="#000000" font-family="sans-serif" font-size="14" lengthAdjust="spacing" textLength="166.127" x="379.4" y="911.6645">horasInvestigacion= 10</text><line style="stroke:#181818;stroke-width:0.5;" x1="374.4" x2="550.527" y1="918.9663" y2="918.9663"/></g><!--class Lazaro--><g class="entity" data-entity="Lazaro" data-source-line="31" data-uid="ent0006" id="entity_Lazaro"><rect fill="#FFAAAA" height="105.1563" rx="2.5" ry="2.5" style="stroke:#181818;stroke-width:0.5;" width="167.7227" x="749.6" y="424.9069"/><ellipse cx="764.6" cy="445.0397" fill="#ADD1B2" rx="11" ry="11" style="stroke:#181818;stroke-width:1;"/><path d="M767.5688,450.6803 Q766.9906,450.9772 766.35,451.1178 Q765.7094,451.2741 765.0063,451.2741 Q762.5063,451.2741 761.1781,449.6334 Q759.8656,447.9772 759.8656,444.8522 Q759.8656,441.7272 761.1781,440.0709 Q762.5063,438.4147 765.0063,438.4147 Q765.7094,438.4147 766.35,438.5709 Q767.0063,438.7272 767.5688,439.0241 L767.5688,441.7428 Q766.9438,441.1647 766.35,440.8991 Q765.7563,440.6178 765.1313,440.6178 Q763.7875,440.6178 763.1,441.6959 Q762.4125,442.7584 762.4125,444.8522 Q762.4125,446.9459 763.1,448.0241 Q763.7875,449.0866 765.1313,449.0866 Q765.7563,449.0866 766.35,448.8209 Q766.9438,448.5397 767.5688,447.9616 L767.5688,450.6803 Z " fill="#000000"/><text fill="#000000" font-family="sans-serif" font-size="12" font-style="italic" lengthAdjust="spacing" textLength="139.7227" x="776.6" y="441.0455">&#171;InvestigadorDocente&#187;</text><text fill="#000000" font-family="sans-serif" font-size="14" lengthAdjust="spacing" textLength="46.6279" x="823.1474" y="456.8707">Lazaro</text><line style="stroke:#181818;stroke-width:0.5;" x1="750.6" x2="916.3227" y1="465.1725" y2="465.1725"/><text fill="#000000" font-family="sans-serif" font-size="14" lengthAdjust="spacing" textLength="130.0195" x="755.6" y="482.1676">nombre= "Lazaro"</text><text fill="#000000" font-family="sans-serif" font-size="14" lengthAdjust="spacing" textLength="95.7646" x="755.6" y="498.4645">id=12345678</text><text fill="#000000" font-family="sans-serif" font-size="14" lengthAdjust="spacing" textLength="140.1094" x="755.6" y="514.7614">campo= "Sistemas"</text><line style="stroke:#181818;stroke-width:0.5;" x1="750.6" x2="916.3227" y1="522.0631" y2="522.0631"/></g><!--class PerfilLazaro--><g class="entity" data-entity="PerfilLazaro" data-source-line="37" data-uid="ent0007" id="entity_PerfilLazaro"><rect fill="#F1F1F1" height="137.75" rx="2.5" ry="2.5" style="stroke:#181818;stroke-width:0.5;" width="245.7275" x="936.6" y="623.3569"/><ellipse cx="997.2577" cy="643.4897" fill="#ADD1B2" rx="11" ry="11" style="stroke:#181818;stroke-width:1;"/><path d="M1000.2265,649.1303 Q999.6483,649.4272 999.0077,649.5678 Q998.3671,649.7241 997.664,649.7241 Q995.164,649.7241 993.8358,648.0834 Q992.5233,646.4272 992.5233,643.3022 Q992.5233,640.1772 993.8358,638.5209 Q995.164,636.8647 997.664,636.8647 Q998.3671,636.8647 999.0077,637.0209 Q999.664,637.1772 1000.2265,637.4741 L1000.2265,640.1928 Q999.6015,639.6147 999.0077,639.3491 Q998.414,639.0678 997.789,639.0678 Q996.4452,639.0678 995.7577,640.1459 Q995.0702,641.2084 995.0702,643.3022 Q995.0702,645.3959 995.7577,646.4741 Q996.4452,647.5366 997.789,647.5366 Q998.414,647.5366 999.0077,647.2709 Q999.6015,646.9897 1000.2265,646.4116 L1000.2265,649.1303 Z " fill="#000000"/><text fill="#000000" font-family="sans-serif" font-size="12" font-style="italic" lengthAdjust="spacing" textLength="119.9121" x="1015.7577" y="639.4955">&#171;PerfilInvestigador&#187;</text><text fill="#000000" font-family="sans-serif" font-size="14" lengthAdjust="spacing" textLength="82.1475" x="1034.64" y="655.3207">PerfilLazaro</text><line style="stroke:#181818;stroke-width:0.5;" x1="937.6" x2="1181.3275" y1="663.6225" y2="663.6225"/><text fill="#000000" font-family="sans-serif" font-size="14" lengthAdjust="spacing" textLength="130.0195" x="942.6" y="680.6176">nombre= "Lazaro"</text><text fill="#000000" font-family="sans-serif" font-size="14" lengthAdjust="spacing" textLength="155.8799" x="942.6" y="696.9145">apellido="Hernandez"</text><text fill="#000000" font-family="sans-serif" font-size="14" lengthAdjust="spacing" textLength="33.3799" x="942.6" y="713.2114">dni=</text><text fill="#000000" font-family="sans-serif" font-size="14" font-weight="bold" lengthAdjust="spacing" textLength="7.3213" x="975.9799" y="713.2114">*</text><text fill="#000000" font-family="sans-serif" font-size="14" lengthAdjust="spacing" textLength="28" x="983.3012" y="713.2114">****</text><text fill="#000000" font-family="sans-serif" font-size="14" lengthAdjust="spacing" textLength="190.709" x="942.6" y="729.5082">carrera= "Ing. Inform&#225;tica"</text><text fill="#000000" font-family="sans-serif" font-size="14" lengthAdjust="spacing" textLength="233.7275" x="942.6" y="745.8051">master= "Sistemas inform&#225;ticos"</text><line style="stroke:#181818;stroke-width:0.5;" x1="937.6" x2="1181.3275" y1="753.1069" y2="753.1069"/></g><!--class CargaTrabajoLazaro--><g class="entity" data-entity="CargaTrabajoLazaro" data-source-line="45" data-uid="ent0008" id="entity_CargaTrabajoLazaro"><rect fill="#F1F1F1" height="88.8594" rx="2.5" ry="2.5" style="stroke:#181818;stroke-width:0.5;" width="178.127" x="635.4" y="838.1069"/><ellipse cx="652.7019" cy="858.2397" fill="#ADD1B2" rx="11" ry="11" style="stroke:#181818;stroke-width:1;"/><path d="M655.6706,863.8803 Q655.0925,864.1772 654.4519,864.3178 Q653.8112,864.4741 653.1081,864.4741 Q650.6081,864.4741 649.28,862.8334 Q647.9675,861.1772 647.9675,858.0522 Q647.9675,854.9272 649.28,853.2709 Q650.6081,851.6147 653.1081,851.6147 Q653.8112,851.6147 654.4519,851.7709 Q655.1081,851.9272 655.6706,852.2241 L655.6706,854.9428 Q655.0456,854.3647 654.4519,854.0991 Q653.8581,853.8178 653.2331,853.8178 Q651.8894,853.8178 651.2019,854.8959 Q650.5144,855.9584 650.5144,858.0522 Q650.5144,860.1459 651.2019,861.2241 Q651.8894,862.2866 653.2331,862.2866 Q653.8581,862.2866 654.4519,862.0209 Q655.0456,861.7397 655.6706,861.1616 L655.6706,863.8803 Z " fill="#000000"/><text fill="#000000" font-family="sans-serif" font-size="12" font-style="italic" lengthAdjust="spacing" textLength="95.584" x="689.9272" y="854.2455">&#171;CargaTrabajo&#187;</text><text fill="#000000" font-family="sans-serif" font-size="14" lengthAdjust="spacing" textLength="141.0117" x="667.2134" y="870.0707">CargaTrabajoLazaro</text><line style="stroke:#181818;stroke-width:0.5;" x1="636.4" x2="812.527" y1="878.3725" y2="878.3725"/><text fill="#000000" font-family="sans-serif" font-size="14" lengthAdjust="spacing" textLength="111.2139" x="641.4" y="895.3676">horasClase= 30</text><text fill="#000000" font-family="sans-serif" font-size="14" lengthAdjust="spacing" textLength="166.127" x="641.4" y="911.6645">horasInvestigacion= 20</text><line style="stroke:#181818;stroke-width:0.5;" x1="636.4" x2="812.527" y1="918.9663" y2="918.9663"/></g><!--class ProyectoIA--><g class="entity" data-entity="ProyectoIA" data-source-line="50" data-uid="ent0009" id="entity_ProyectoIA"><rect fill="#F1F1F1" height="88.8594" rx="2.5" ry="2.5" style="stroke:#181818;stroke-width:0.5;" width="389.9863" x="407.47" y="647.8069"/><ellipse cx="560.6531" cy="667.9397" fill="#ADD1B2" rx="11" ry="11" style="stroke:#181818;stroke-width:1;"/><path d="M563.6219,673.5803 Q563.0437,673.8772 562.4031,674.0178 Q561.7625,674.1741 561.0594,674.1741 Q558.5594,674.1741 557.2312,672.5334 Q555.9187,670.8772 555.9187,667.7522 Q555.9187,664.6272 557.2312,662.9709 Q558.5594,661.3147 561.0594,661.3147 Q561.7625,661.3147 562.4031,661.4709 Q563.0594,661.6272 563.6219,661.9241 L563.6219,664.6428 Q562.9969,664.0647 562.4031,663.7991 Q561.8094,663.5178 561.1844,663.5178 Q559.8406,663.5178 559.1531,664.5959 Q558.4656,665.6584 558.4656,667.7522 Q558.4656,669.8459 559.1531,670.9241 Q559.8406,671.9866 561.1844,671.9866 Q561.8094,671.9866 562.4031,671.7209 Q562.9969,671.4397 563.6219,670.8616 L563.6219,673.5803 Z " fill="#000000"/><text fill="#000000" font-family="sans-serif" font-size="12" font-style="italic" lengthAdjust="spacing" textLength="67.3242" x="585.0511" y="663.9455">&#171;Proyecto&#187;</text><text fill="#000000" font-family="sans-serif" font-size="14" lengthAdjust="spacing" textLength="75.1201" x="581.1531" y="679.7707">ProyectoIA</text><line style="stroke:#181818;stroke-width:0.5;" x1="408.47" x2="796.4563" y1="688.0725" y2="688.0725"/><text fill="#000000" font-family="sans-serif" font-size="14" lengthAdjust="spacing" textLength="377.9863" x="413.47" y="705.0676">descripcion= "Implementar un modelo de lenguaje..."</text><text fill="#000000" font-family="sans-serif" font-size="14" lengthAdjust="spacing" textLength="171.8691" x="413.47" y="721.3645">fechaLimite: 31/12/2026</text><line style="stroke:#181818;stroke-width:0.5;" x1="408.47" x2="796.4563" y1="728.6662" y2="728.6662"/></g><!--link Mar to Manuel--><g class="link" data-entity-1="Mar" data-entity-2="Manuel" data-source-line="56" data-uid="lnk10" id="link_Mar_Manuel"><path codeLine="56" d="M696.17,149.4969 C672.3,173.5169 648.2094,197.771 624.2994,221.831" fill="none" id="Mar-to-Manuel" style="stroke:#181818;stroke-width:1;"/><polygon fill="#181818" points="620.07,226.0869,629.2513,222.5226,623.5945,222.5403,623.5768,216.8835,620.07,226.0869" style="stroke:#181818;stroke-width:1;"/><text fill="#000000" font-family="sans-serif" font-size="13" lengthAdjust="spacing" textLength="45.4048" x="664.46" y="192.5138">recluta</text></g><!--link Mar to Lazaro--><g class="link" data-entity-1="Mar" data-entity-2="Lazaro" data-source-line="57" data-uid="lnk11" id="link_Mar_Lazaro"><path codeLine="57" d="M777.76,149.7769 C806.06,201.4769 846.3,284.1069 862.46,361.6069 C866.78,382.3469 864.7187,399.2697 858.5787,418.9297" fill="none" id="Mar-to-Lazaro" style="stroke:#181818;stroke-width:1;"/><polygon fill="#181818" points="856.79,424.6569,863.2911,417.2585,858.2805,419.8842,855.6549,414.8737,856.79,424.6569" style="stroke:#181818;stroke-width:1;"/><text fill="#000000" font-family="sans-serif" font-size="13" lengthAdjust="spacing" textLength="45.4048" x="854.46" y="283.5938">recluta</text></g><!--link Manuel to Lazaro--><g class="link" data-entity-1="Manuel" data-entity-2="Lazaro" data-source-line="60" data-uid="lnk12" id="link_Manuel_Lazaro"><path codeLine="60" d="M572.99,331.9369 C576.66,348.4169 583.14,365.6969 594.46,378.6069 C600.06,384.9869 677.14,415.917 743.71,441.877" fill="none" id="Manuel-to-Lazaro" style="stroke:#181818;stroke-width:1;"/><polygon fill="#181818" points="749.3,444.0569,742.3683,437.0604,744.6417,442.2403,739.4617,444.5137,749.3,444.0569" style="stroke:#181818;stroke-width:1;"/><text fill="#000000" font-family="sans-serif" font-size="13" lengthAdjust="spacing" textLength="116.9238" x="595.46" y="374.6738">puede interactuar</text></g><!--link Lazaro to Manuel--><g class="link" data-entity-1="Lazaro" data-entity-2="Manuel" data-source-line="66" data-uid="lnk17" id="link_Lazaro_Manuel"><path codeLine="66" d="M786.65,424.6769 C766.25,403.7169 741.35,380.1369 716.46,361.6069 C696.93,347.0669 679.7468,336.2874 658.3668,324.4274" fill="none" id="Lazaro-to-Manuel" style="stroke:#181818;stroke-width:1;"/><polygon fill="#181818" points="653.12,321.5169,659.0498,329.3805,657.4923,323.9423,662.9305,322.3848,653.12,321.5169" style="stroke:#181818;stroke-width:1;"/><text fill="#000000" font-family="sans-serif" font-size="13" lengthAdjust="spacing" textLength="116.9238" x="737.46" y="374.6738">puede interactuar</text></g><!--link Manuel to ProyectoIA--><g class="link" data-entity-1="Manuel" data-entity-2="ProyectoIA" data-source-line="61" data-uid="lnk13" id="link_Manuel_ProyectoIA"><path codeLine="61" d="M572.65,331.9569 C573.88,347.0069 575.22,363.4669 576.46,378.6069 C584.34,474.5469 592.729,575.0787 597.789,635.5287" fill="none" id="Manuel-to-ProyectoIA" style="stroke:#181818;stroke-width:1;"/><polygon fill="none" points="598.79,647.4869,602.2756,641.1741,597.789,635.5287,594.3035,641.8414,598.79,647.4869" style="stroke:#181818;stroke-width:1;"/><text fill="#000000" font-family="sans-serif" font-size="13" lengthAdjust="spacing" textLength="107.4658" x="591.46" y="482.0538">puede participar</text></g><!--link ProyectoIA to CargaTrabajoManuel--><g class="link" data-entity-1="ProyectoIA" data-entity-2="CargaTrabajoManuel" data-source-line="62" data-uid="lnk14" id="link_ProyectoIA_CargaTrabajoManuel"><path codeLine="62" d="M569.99,736.9069 C547.45,767.2169 521.1299,802.6319 498.5799,832.9619" fill="none" id="ProyectoIA-to-CargaTrabajoManuel" style="stroke:#181818;stroke-width:1;"/><polygon fill="#181818" points="495,837.7769,503.5799,832.941,497.9833,833.7644,497.1598,828.1678,495,837.7769" style="stroke:#181818;stroke-width:1;"/><text fill="#000000" font-family="sans-serif" font-size="13" lengthAdjust="spacing" textLength="45.7983" x="529.46" y="804.1738">genera</text></g><!--link Manuel to PerfilManuel--><g class="link" data-entity-1="Manuel" data-entity-2="PerfilManuel" data-source-line="63" data-uid="lnk15" id="link_Manuel_PerfilManuel"><path codeLine="63" d="M483.89,296.0569 C427.95,308.8269 354.18,329.8869 294.46,361.6069 C270.72,374.2169 256.4951,383.603 235.7251,400.653" fill="none" id="Manuel-to-PerfilManuel" style="stroke:#181818;stroke-width:1;"/><polygon fill="#181818" points="226.45,408.2669,233.6255,407.5516,235.7251,400.653,228.5496,401.3682,226.45,408.2669" style="stroke:#181818;stroke-width:1;"/><text fill="#000000" font-family="sans-serif" font-size="13" lengthAdjust="spacing" textLength="32.9443" x="295.46" y="374.6738">tiene</text></g><!--link Manuel to CargaTrabajoManuel--><g class="link" data-entity-1="Manuel" data-entity-2="CargaTrabajoManuel" data-source-line="64" data-uid="lnk16" id="link_Manuel_CargaTrabajoManuel"><path codeLine="64" d="M531.42,331.8369 C487.73,396.4369 417.62,511.9769 390.46,623.3569 C375.96,682.8369 374.16,702.0969 390.46,761.1069 C398.05,788.5769 406.9955,806.1716 421.7955,827.9516" fill="none" id="Manuel-to-CargaTrabajoManuel" style="stroke:#181818;stroke-width:1;"/><polygon fill="none" points="428.54,837.8769,428.4762,830.6661,421.7955,827.9516,421.8593,835.1624,428.54,837.8769" style="stroke:#181818;stroke-width:1;"/><text fill="#000000" font-family="sans-serif" font-size="13" lengthAdjust="spacing" textLength="32.9443" x="405.46" y="589.4238">tiene</text></g><!--link Lazaro to ProyectoIA--><g class="link" data-entity-1="Lazaro" data-entity-2="ProyectoIA" data-source-line="67" data-uid="lnk18" id="link_Lazaro_ProyectoIA"><path codeLine="67" d="M776.95,530.5269 C737.95,566.4469 695.5065,605.5372 658.6465,639.4872" fill="none" id="Lazaro-to-ProyectoIA" style="stroke:#181818;stroke-width:1;"/><polygon fill="none" points="649.82,647.6169,656.9432,646.4942,658.6465,639.4872,651.5234,640.6098,649.82,647.6169" style="stroke:#181818;stroke-width:1;"/><text fill="#000000" font-family="sans-serif" font-size="13" lengthAdjust="spacing" textLength="107.4658" x="725.46" y="589.4238">puede participar</text></g><!--link Lazaro to CargaTrabajoLazaro--><g class="link" data-entity-1="Lazaro" data-entity-2="CargaTrabajoLazaro" data-source-line="68" data-uid="lnk19" id="link_Lazaro_CargaTrabajoLazaro"><path codeLine="68" d="M839.83,530.3169 C844.83,588.8369 846.4,685.7169 814.46,761.1069 C802.7,788.8669 790.8839,806.8447 773.0539,828.3747" fill="none" id="Lazaro-to-CargaTrabajoLazaro" style="stroke:#181818;stroke-width:1;"/><polygon fill="none" points="765.4,837.6169,772.3077,835.5471,773.0539,828.3747,766.1462,830.4445,765.4,837.6169" style="stroke:#181818;stroke-width:1;"/><text fill="#000000" font-family="sans-serif" font-size="13" lengthAdjust="spacing" textLength="32.9443" x="842.46" y="696.8038">tiene</text></g><!--link Lazaro to PerfilLazaro--><g class="link" data-entity-1="Lazaro" data-entity-2="PerfilLazaro" data-source-line="69" data-uid="lnk20" id="link_Lazaro_PerfilLazaro"><path codeLine="69" d="M888.75,530.5269 C918.41,558.4469 946.5925,584.9816 978.4925,615.0116" fill="none" id="Lazaro-to-PerfilLazaro" style="stroke:#181818;stroke-width:1;"/><polygon fill="#181818" points="987.23,623.2369,985.603,616.2117,978.4925,615.0116,980.1195,622.0367,987.23,623.2369" style="stroke:#181818;stroke-width:1;"/><text fill="#000000" font-family="sans-serif" font-size="13" lengthAdjust="spacing" textLength="32.9443" x="953.46" y="589.4238">tiene</text></g><!--link ProyectoIA to CargaTrabajoLazaro--><g class="link" data-entity-1="ProyectoIA" data-entity-2="CargaTrabajoLazaro" data-source-line="70" data-uid="lnk21" id="link_ProyectoIA_CargaTrabajoLazaro"><path codeLine="70" d="M630.76,736.9069 C650.39,767.2169 673.1864,802.4121 692.8464,832.7421" fill="none" id="ProyectoIA-to-CargaTrabajoLazaro" style="stroke:#181818;stroke-width:1;"/><polygon fill="#181818" points="696.11,837.7769,694.5712,828.049,693.3904,833.5812,687.8581,832.4004,696.11,837.7769" style="stroke:#181818;stroke-width:1;"/><text fill="#000000" font-family="sans-serif" font-size="13" lengthAdjust="spacing" textLength="45.7983" x="675.46" y="804.1738">genera</text></g><!--SRC=[fLHRRjim4FpNAGZtpq0SFzAqC6m1WOEW0bAWG7A1DRLs64YaiAHQD4KFqpFq2BbObw8UTDsyKFx8N0vtPdUuTieLA39j7MYfGEHO2AkimzB_5eIv_oZz5QrJUyWDeKsIH1PWhVWC95QhZJ6KA-tFqlH78dXfKsu9nLgC639gGlLMIP3AQ1-z0SryERPdAb-BsNnnzZxv6UNMDMjPhRA8-z98r0xJLBoxkhhW5TCrRFvIdxJ9UVwXsKeeAyEGJEyCbO-_7CiPURv0zmLffugUD6nZQkPyXWmgB0gLcpL7hG8RehbMwt6tMXL4ID3es4_4eHWFA85xJtn-gGYbL8-_jQZ8V4VfZ1NMxDmt88o4Ru3sS4kmXNlJou-3dITtXi1k-0vhFviEeRv8RmxxC8rCk8O78FD64yAblqtuUE32JNXYziY1dl4r3iHCWmEVaBH_N0__Rq8damUWnnZxHFTxwIzrV_5qz-VJg26jxTc5RqUxQPeGwa8hILNXtYWhgm9BzeL7ijQYD3p8nezkWNfVmprE9fDGt0xb7LohKZbSYiNiT3O_dK_dvvxNp_F9IThEtfAdNnQrWpuUAXpY_aRpukB3giRc7uCx2DBLG0F8H3Lrm0g8cwhuaqG5-uJ7BtifzgWvxP1nV32uI-4K0sB2VoK9eAJrAoxuM7iFUa5xX3j-4nrb3neVlFRk-9dwEs2e_my0]--></g></svg>