<svg xmlns="http://www.w3.org/2000/svg" xmlns:xlink="http://www.w3.org/1999/xlink" contentStyleType="text/css" data-diagram-type="CLASS" height="1151px" preserveAspectRatio="none" style="width:1869px;height:1151px;background:#FFFFFF;" version="1.1" viewBox="0 0 1869 1151" width="1869px" zoomAndPan="magnify"><title>Instancias del sistema de gesti&#243;n de proyectos</title><defs/><g><g class="title" data-source-line="1"><text fill="#000000" font-family="sans-serif" font-size="14" font-weight="bold" lengthAdjust="spacing" textLength="371.8066" x="741.7958" y="22.9951">Instancias del sistema de gesti&#243;n de proyectos</text></g><!--class ID2025--><g class="entity" data-entity="ID2025" data-source-line="4" data-uid="ent0002" id="entity_ID2025"><rect fill="#F1F1F1" height="72.5625" rx="2.5" ry="2.5" style="stroke:#181818;stroke-width:0.5;" width="433.8457" x="491.68" y="226.4469"/><ellipse cx="659.3167" cy="246.5797" fill="#ADD1B2" rx="11" ry="11" style="stroke:#181818;stroke-width:1;"/><path d="M662.2855,252.2203 Q661.7073,252.5172 661.0667,252.6578 Q660.4261,252.8141 659.723,252.8141 Q657.223,252.8141 655.8948,251.1734 Q654.5823,249.5172 654.5823,246.3922 Q654.5823,243.2672 655.8948,241.6109 Q657.223,239.9547 659.723,239.9547 Q660.4261,239.9547 661.0667,240.1109 Q661.723,240.2672 662.2855,240.5641 L662.2855,243.2828 Q661.6605,242.7047 661.0667,242.4391 Q660.473,242.1578 659.848,242.1578 Q658.5042,242.1578 657.8167,243.2359 Q657.1292,244.2984 657.1292,246.3922 Q657.1292,248.4859 657.8167,249.5641 Q658.5042,250.6266 659.848,250.6266 Q660.473,250.6266 661.0667,250.3609 Q661.6605,250.0797 662.2855,249.5016 L662.2855,252.2203 Z " fill="#000000"/><text fill="#000000" font-family="sans-serif" font-size="12" font-style="italic" lengthAdjust="spacing" textLength="94.0723" x="677.8167" y="242.5855">&#171;Convocatoria&#187;</text><text fill="#000000" font-family="sans-serif" font-size="14" lengthAdjust="spacing" textLength="50.5381" x="699.5838" y="258.4107">ID2025</text><line style="stroke:#181818;stroke-width:0.5;" x1="492.68" x2="924.5257" y1="266.7125" y2="266.7125"/><text fill="#000000" font-family="sans-serif" font-size="14" lengthAdjust="spacing" textLength="421.8457" x="497.68" y="283.7076">descripcion = "Convocatoria de investigaci&#243;n sobre la IA... "</text><line style="stroke:#181818;stroke-width:0.5;" x1="492.68" x2="924.5257" y1="291.0094" y2="291.0094"/></g><!--class DeepVision--><g class="entity" data-entity="DeepVision" data-source-line="9" data-uid="ent0003" id="entity_DeepVision"><rect fill="#F1F1F1" height="72.5625" rx="2.5" ry="2.5" style="stroke:#181818;stroke-width:0.5;" width="498.9033" x="435.15" y="392.3069"/><ellipse cx="640.8604" cy="412.4397" fill="#ADD1B2" rx="11" ry="11" style="stroke:#181818;stroke-width:1;"/><path d="M643.8292,418.0803 Q643.2511,418.3772 642.6104,418.5178 Q641.9698,418.6741 641.2667,418.6741 Q638.7667,418.6741 637.4386,417.0334 Q636.1261,415.3772 636.1261,412.2522 Q636.1261,409.1272 637.4386,407.4709 Q638.7667,405.8147 641.2667,405.8147 Q641.9698,405.8147 642.6104,405.9709 Q643.2667,406.1272 643.8292,406.4241 L643.8292,409.1428 Q643.2042,408.5647 642.6104,408.2991 Q642.0167,408.0178 641.3917,408.0178 Q640.0479,408.0178 639.3604,409.0959 Q638.6729,410.1584 638.6729,412.2522 Q638.6729,414.3459 639.3604,415.4241 Q640.0479,416.4866 641.3917,416.4866 Q642.0167,416.4866 642.6104,416.2209 Q643.2042,415.9397 643.8292,415.3616 L643.8292,418.0803 Z " fill="#000000"/><text fill="#000000" font-family="sans-serif" font-size="12" font-style="italic" lengthAdjust="spacing" textLength="75.1113" x="663.296" y="408.4455">&#171;Propuesta&#187;</text><text fill="#000000" font-family="sans-serif" font-size="14" lengthAdjust="spacing" textLength="78.9824" x="661.3604" y="424.2707">DeepVision</text><line style="stroke:#181818;stroke-width:0.5;" x1="436.15" x2="933.0533" y1="432.5725" y2="432.5725"/><text fill="#000000" font-family="sans-serif" font-size="14" lengthAdjust="spacing" textLength="486.9033" x="441.15" y="449.5676">descripcion = "Un sistema capaz de realizar mediante el uso de IA..."</text><line style="stroke:#181818;stroke-width:0.5;" x1="436.15" x2="933.0533" y1="456.8694" y2="456.8694"/></g><!--class ProyectoIA--><g class="entity" data-entity="ProyectoIA" data-source-line="14" data-uid="ent0004" id="entity_ProyectoIA"><rect fill="#FFAAAA" height="88.8594" rx="2.5" ry="2.5" style="stroke:#181818;stroke-width:0.5;" width="398.8867" x="787.16" y="558.1669"/><ellipse cx="944.7933" cy="578.2997" fill="#ADD1B2" rx="11" ry="11" style="stroke:#181818;stroke-width:1;"/><path d="M947.7621,583.9403 Q947.1839,584.2372 946.5433,584.3778 Q945.9027,584.5341 945.1996,584.5341 Q942.6996,584.5341 941.3714,582.8934 Q940.0589,581.2372 940.0589,578.1122 Q940.0589,574.9872 941.3714,573.3309 Q942.6996,571.6747 945.1996,571.6747 Q945.9027,571.6747 946.5433,571.8309 Q947.1996,571.9872 947.7621,572.2841 L947.7621,575.0028 Q947.1371,574.4247 946.5433,574.1591 Q945.9496,573.8778 945.3246,573.8778 Q943.9808,573.8778 943.2933,574.9559 Q942.6058,576.0184 942.6058,578.1122 Q942.6058,580.2059 943.2933,581.2841 Q943.9808,582.3466 945.3246,582.3466 Q945.9496,582.3466 946.5433,582.0809 Q947.1371,581.7997 947.7621,581.2216 L947.7621,583.9403 Z " fill="#000000"/><text fill="#000000" font-family="sans-serif" font-size="12" font-style="italic" lengthAdjust="spacing" textLength="67.3242" x="969.1913" y="574.3055">&#171;Proyecto&#187;</text><text fill="#000000" font-family="sans-serif" font-size="14" lengthAdjust="spacing" textLength="75.1201" x="965.2933" y="590.1307">ProyectoIA</text><line style="stroke:#181818;stroke-width:0.5;" x1="788.16" x2="1185.0467" y1="598.4325" y2="598.4325"/><text fill="#000000" font-family="sans-serif" font-size="14" lengthAdjust="spacing" textLength="386.8867" x="793.16" y="615.4276">descripci&#243;n = "Implementar un modelo de lenguaje... "</text><text fill="#000000" font-family="sans-serif" font-size="14" lengthAdjust="spacing" textLength="183.333" x="793.16" y="631.7245">fechaLimite = 31/12/2026</text><line style="stroke:#181818;stroke-width:0.5;" x1="788.16" x2="1185.0467" y1="639.0262" y2="639.0262"/></g><!--class Manuel--><g class="entity" data-entity="Manuel" data-source-line="20" data-uid="ent0005" id="entity_Manuel"><rect fill="#F1F1F1" height="105.1563" rx="2.5" ry="2.5" style="stroke:#181818;stroke-width:0.5;" width="173" x="670.1" y="873.5869"/><ellipse cx="687.4748" cy="893.7197" fill="#ADD1B2" rx="11" ry="11" style="stroke:#181818;stroke-width:1;"/><path d="M690.4436,899.3603 Q689.8654,899.6572 689.2248,899.7978 Q688.5842,899.9541 687.8811,899.9541 Q685.3811,899.9541 684.0529,898.3134 Q682.7404,896.6572 682.7404,893.5322 Q682.7404,890.4072 684.0529,888.7509 Q685.3811,887.0947 687.8811,887.0947 Q688.5842,887.0947 689.2248,887.2509 Q689.8811,887.4072 690.4436,887.7041 L690.4436,890.4228 Q689.8186,889.8447 689.2248,889.5791 Q688.6311,889.2978 688.0061,889.2978 Q686.6623,889.2978 685.9748,890.3759 Q685.2873,891.4384 685.2873,893.5322 Q685.2873,895.6259 685.9748,896.7041 Q686.6623,897.7666 688.0061,897.7666 Q688.6311,897.7666 689.2248,897.5009 Q689.8186,897.2197 690.4436,896.6416 L690.4436,899.3603 Z " fill="#000000"/><text fill="#000000" font-family="sans-serif" font-size="12" font-style="italic" lengthAdjust="spacing" textLength="139.7227" x="700.0025" y="889.7255">&#171;InvestigadorDocente&#187;</text><text fill="#000000" font-family="sans-serif" font-size="14" lengthAdjust="spacing" textLength="50.9072" x="744.4103" y="905.5507">Manuel</text><line style="stroke:#181818;stroke-width:0.5;" x1="671.1" x2="842.1" y1="913.8525" y2="913.8525"/><text fill="#000000" font-family="sans-serif" font-size="14" lengthAdjust="spacing" textLength="122.5684" x="676.1" y="930.8476">nombre "Manuel"</text><text fill="#000000" font-family="sans-serif" font-size="14" lengthAdjust="spacing" textLength="95.7578" x="676.1" y="947.1445">id = 1234567</text><text fill="#000000" font-family="sans-serif" font-size="14" lengthAdjust="spacing" textLength="161" x="676.1" y="963.4414">campo = "Inform&#225;tica"</text><line style="stroke:#181818;stroke-width:0.5;" x1="671.1" x2="842.1" y1="970.7431" y2="970.7431"/></g><!--class L?zaro--><g class="entity" data-entity="L.zaro" data-source-line="26" data-uid="ent0006" id="entity_L.zaro"><rect fill="#F1F1F1" height="105.1563" rx="2.5" ry="2.5" style="stroke:#181818;stroke-width:0.5;" width="167.7227" x="1471.74" y="873.5869"/><ellipse cx="1486.74" cy="893.7197" fill="#ADD1B2" rx="11" ry="11" style="stroke:#181818;stroke-width:1;"/><path d="M1489.7088,899.3603 Q1489.1306,899.6572 1488.49,899.7978 Q1487.8494,899.9541 1487.1463,899.9541 Q1484.6463,899.9541 1483.3181,898.3134 Q1482.0056,896.6572 1482.0056,893.5322 Q1482.0056,890.4072 1483.3181,888.7509 Q1484.6463,887.0947 1487.1463,887.0947 Q1487.8494,887.0947 1488.49,887.2509 Q1489.1463,887.4072 1489.7088,887.7041 L1489.7088,890.4228 Q1489.0838,889.8447 1488.49,889.5791 Q1487.8963,889.2978 1487.2713,889.2978 Q1485.9275,889.2978 1485.24,890.3759 Q1484.5525,891.4384 1484.5525,893.5322 Q1484.5525,895.6259 1485.24,896.7041 Q1485.9275,897.7666 1487.2713,897.7666 Q1487.8963,897.7666 1488.49,897.5009 Q1489.0838,897.2197 1489.7088,896.6416 L1489.7088,899.3603 Z " fill="#000000"/><text fill="#000000" font-family="sans-serif" font-size="12" font-style="italic" lengthAdjust="spacing" textLength="139.7227" x="1498.74" y="889.7255">&#171;InvestigadorDocente&#187;</text><text fill="#000000" font-family="sans-serif" font-size="14" lengthAdjust="spacing" textLength="46.6279" x="1545.2874" y="905.5507">L&#225;zaro</text><line style="stroke:#181818;stroke-width:0.5;" x1="1472.74" x2="1638.4627" y1="913.8525" y2="913.8525"/><text fill="#000000" font-family="sans-serif" font-size="14" lengthAdjust="spacing" textLength="134.4697" x="1477.74" y="930.8476">nombre = "L&#225;zaro"</text><text fill="#000000" font-family="sans-serif" font-size="14" lengthAdjust="spacing" textLength="104.665" x="1477.74" y="947.1445">id = 12345678</text><text fill="#000000" font-family="sans-serif" font-size="14" lengthAdjust="spacing" textLength="144.5596" x="1477.74" y="963.4414">campo = "Sistemas"</text><line style="stroke:#181818;stroke-width:0.5;" x1="1472.74" x2="1638.4627" y1="970.7431" y2="970.7431"/></g><!--class Mar--><g class="entity" data-entity="Mar" data-source-line="32" data-uid="ent0007" id="entity_Mar"><rect fill="#F1F1F1" height="105.1563" rx="2.5" ry="2.5" style="stroke:#181818;stroke-width:0.5;" width="184.9971" x="759.1" y="44.2969"/><ellipse cx="805.1073" cy="64.4297" fill="#ADD1B2" rx="11" ry="11" style="stroke:#181818;stroke-width:1;"/><path d="M808.0761,70.0703 Q807.4979,70.3672 806.8573,70.5078 Q806.2167,70.6641 805.5136,70.6641 Q803.0136,70.6641 801.6854,69.0234 Q800.3729,67.3672 800.3729,64.2422 Q800.3729,61.1172 801.6854,59.4609 Q803.0136,57.8047 805.5136,57.8047 Q806.2167,57.8047 806.8573,57.9609 Q807.5136,58.1172 808.0761,58.4141 L808.0761,61.1328 Q807.4511,60.5547 806.8573,60.2891 Q806.2636,60.0078 805.6386,60.0078 Q804.2948,60.0078 803.6073,61.0859 Q802.9198,62.1484 802.9198,64.2422 Q802.9198,66.3359 803.6073,67.4141 Q804.2948,68.4766 805.6386,68.4766 Q806.2636,68.4766 806.8573,68.2109 Q807.4511,67.9297 808.0761,67.3516 L808.0761,70.0703 Z " fill="#000000"/><text fill="#000000" font-family="sans-serif" font-size="12" font-style="italic" lengthAdjust="spacing" textLength="88.4824" x="823.6073" y="60.4355">&#171;Coordinador&#187;</text><text fill="#000000" font-family="sans-serif" font-size="14" lengthAdjust="spacing" textLength="26.4141" x="854.6415" y="76.2607">Mar</text><line style="stroke:#181818;stroke-width:0.5;" x1="760.1" x2="943.0971" y1="84.5625" y2="84.5625"/><text fill="#000000" font-family="sans-serif" font-size="14" lengthAdjust="spacing" textLength="114.2559" x="765.1" y="101.5576">nombre = "Mar"</text><text fill="#000000" font-family="sans-serif" font-size="14" lengthAdjust="spacing" textLength="172.9971" x="765.1" y="117.8545">ubicaci&#243;n = "Santander"</text><text fill="#000000" font-family="sans-serif" font-size="14" lengthAdjust="spacing" textLength="77.9434" x="765.1" y="134.1514">id = 12345</text><line style="stroke:#181818;stroke-width:0.5;" x1="760.1" x2="943.0971" y1="141.4531" y2="141.4531"/></g><!--class Mariano--><g class="entity" data-entity="Mariano" data-source-line="38" data-uid="ent0008" id="entity_Mariano"><rect fill="#F1F1F1" height="105.1563" rx="2.5" ry="2.5" style="stroke:#181818;stroke-width:0.5;" width="295.0693" x="1040.06" y="376.0169"/><ellipse cx="1141.2294" cy="396.1497" fill="#ADD1B2" rx="11" ry="11" style="stroke:#181818;stroke-width:1;"/><path d="M1144.1982,401.7903 Q1143.6201,402.0872 1142.9794,402.2278 Q1142.3388,402.3841 1141.6357,402.3841 Q1139.1357,402.3841 1137.8076,400.7434 Q1136.4951,399.0872 1136.4951,395.9622 Q1136.4951,392.8372 1137.8076,391.1809 Q1139.1357,389.5247 1141.6357,389.5247 Q1142.3388,389.5247 1142.9794,389.6809 Q1143.6357,389.8372 1144.1982,390.1341 L1144.1982,392.8528 Q1143.5732,392.2747 1142.9794,392.0091 Q1142.3857,391.7278 1141.7607,391.7278 Q1140.4169,391.7278 1139.7294,392.8059 Q1139.0419,393.8684 1139.0419,395.9622 Q1139.0419,398.0559 1139.7294,399.1341 Q1140.4169,400.1966 1141.7607,400.1966 Q1142.3857,400.1966 1142.9794,399.9309 Q1143.5732,399.6497 1144.1982,399.0716 L1144.1982,401.7903 Z " fill="#000000"/><text fill="#000000" font-family="sans-serif" font-size="12" font-style="italic" lengthAdjust="spacing" textLength="88.2305" x="1159.7294" y="392.1555">&#171;Colaborador&#187;</text><text fill="#000000" font-family="sans-serif" font-size="14" lengthAdjust="spacing" textLength="56.3213" x="1175.684" y="407.9807">Mariano</text><line style="stroke:#181818;stroke-width:0.5;" x1="1041.06" x2="1334.1293" y1="416.2825" y2="416.2825"/><text fill="#000000" font-family="sans-serif" font-size="14" lengthAdjust="spacing" textLength="144.1631" x="1046.06" y="433.2776">nombre = "Mariano"</text><text fill="#000000" font-family="sans-serif" font-size="14" lengthAdjust="spacing" textLength="86.8506" x="1046.06" y="449.5745">id = 123456</text><text fill="#000000" font-family="sans-serif" font-size="14" lengthAdjust="spacing" textLength="283.0693" x="1046.06" y="465.8714">asociaci&#243;n = "Universidad de cantabria"</text><line style="stroke:#181818;stroke-width:0.5;" x1="1041.06" x2="1334.1293" y1="473.1731" y2="473.1731"/></g><!--class Entregable01Manuel--><g class="entity" data-entity="Entregable01Manuel" data-source-line="45" data-uid="ent0009" id="entity_Entregable01Manuel"><rect fill="#F1F1F1" height="72.5625" rx="2.5" ry="2.5" style="stroke:#181818;stroke-width:0.5;" width="225.2197" x="237.99" y="724.0269"/><ellipse cx="274.6194" cy="744.1597" fill="#ADD1B2" rx="11" ry="11" style="stroke:#181818;stroke-width:1;"/><path d="M277.5882,749.8003 Q277.0101,750.0972 276.3694,750.2378 Q275.7288,750.3941 275.0257,750.3941 Q272.5257,750.3941 271.1976,748.7534 Q269.8851,747.0972 269.8851,743.9722 Q269.8851,740.8472 271.1976,739.1909 Q272.5257,737.5347 275.0257,737.5347 Q275.7288,737.5347 276.3694,737.6909 Q277.0257,737.8472 277.5882,738.1441 L277.5882,740.8628 Q276.9632,740.2847 276.3694,740.0191 Q275.7757,739.7378 275.1507,739.7378 Q273.8069,739.7378 273.1194,740.8159 Q272.4319,741.8784 272.4319,743.9722 Q272.4319,746.0659 273.1194,747.1441 Q273.8069,748.2066 275.1507,748.2066 Q275.7757,748.2066 276.3694,747.9409 Q276.9632,747.6597 277.5882,747.0816 L277.5882,749.8003 Z " fill="#000000"/><text fill="#000000" font-family="sans-serif" font-size="12" font-style="italic" lengthAdjust="spacing" textLength="86.4492" x="322.7785" y="740.1655">&#171;Entregables&#187;</text><text fill="#000000" font-family="sans-serif" font-size="14" lengthAdjust="spacing" textLength="145.1543" x="293.426" y="755.9907">Entregable01Manuel</text><line style="stroke:#181818;stroke-width:0.5;" x1="238.99" x2="462.2097" y1="764.2925" y2="764.2925"/><text fill="#000000" font-family="sans-serif" font-size="14" lengthAdjust="spacing" textLength="213.2197" x="243.99" y="781.2876">descripcion = "Informe inicial"</text><line style="stroke:#181818;stroke-width:0.5;" x1="238.99" x2="462.2097" y1="788.5894" y2="788.5894"/></g><!--class Entregable02L?zaro--><g class="entity" data-entity="Entregable02L.zaro" data-source-line="49" data-uid="ent0010" id="entity_Entregable02L.zaro"><rect fill="#F1F1F1" height="72.5625" rx="2.5" ry="2.5" style="stroke:#181818;stroke-width:0.5;" width="298.2617" x="498.47" y="724.0269"/><ellipse cx="572.9134" cy="744.1597" fill="#ADD1B2" rx="11" ry="11" style="stroke:#181818;stroke-width:1;"/><path d="M575.8821,749.8003 Q575.304,750.0972 574.6634,750.2378 Q574.0227,750.3941 573.3196,750.3941 Q570.8196,750.3941 569.4915,748.7534 Q568.179,747.0972 568.179,743.9722 Q568.179,740.8472 569.4915,739.1909 Q570.8196,737.5347 573.3196,737.5347 Q574.0227,737.5347 574.6634,737.6909 Q575.3196,737.8472 575.8821,738.1441 L575.8821,740.8628 Q575.2571,740.2847 574.6634,740.0191 Q574.0696,739.7378 573.4446,739.7378 Q572.1009,739.7378 571.4134,740.8159 Q570.7259,741.8784 570.7259,743.9722 Q570.7259,746.0659 571.4134,747.1441 Q572.1009,748.2066 573.4446,748.2066 Q574.0696,748.2066 574.6634,747.9409 Q575.2571,747.6597 575.8821,747.0816 L575.8821,749.8003 Z " fill="#000000"/><text fill="#000000" font-family="sans-serif" font-size="12" font-style="italic" lengthAdjust="spacing" textLength="86.4492" x="620.6263" y="740.1655">&#171;Entregables&#187;</text><text fill="#000000" font-family="sans-serif" font-size="14" lengthAdjust="spacing" textLength="140.875" x="593.4134" y="755.9907">Entregable02L&#225;zaro</text><line style="stroke:#181818;stroke-width:0.5;" x1="499.47" x2="795.7317" y1="764.2925" y2="764.2925"/><text fill="#000000" font-family="sans-serif" font-size="14" lengthAdjust="spacing" textLength="286.2617" x="504.47" y="781.2876">descripcion = "primera implementaci&#243;n"</text><line style="stroke:#181818;stroke-width:0.5;" x1="499.47" x2="795.7317" y1="788.5894" y2="788.5894"/></g><!--class Remuneraci?nManuel--><g class="entity" data-entity="Remuneraci.nManuel" data-source-line="54" data-uid="ent0011" id="entity_Remuneraci.nManuel"><rect fill="#F1F1F1" height="72.5625" rx="2.5" ry="2.5" style="stroke:#181818;stroke-width:0.5;" width="184.6055" x="1015.3" y="724.0269"/><ellipse cx="1030.3" cy="744.1597" fill="#ADD1B2" rx="11" ry="11" style="stroke:#181818;stroke-width:1;"/><path d="M1033.2688,749.8003 Q1032.6906,750.0972 1032.05,750.2378 Q1031.4094,750.3941 1030.7063,750.3941 Q1028.2063,750.3941 1026.8781,748.7534 Q1025.5656,747.0972 1025.5656,743.9722 Q1025.5656,740.8472 1026.8781,739.1909 Q1028.2063,737.5347 1030.7063,737.5347 Q1031.4094,737.5347 1032.05,737.6909 Q1032.7063,737.8472 1033.2688,738.1441 L1033.2688,740.8628 Q1032.6438,740.2847 1032.05,740.0191 Q1031.4563,739.7378 1030.8313,739.7378 Q1029.4875,739.7378 1028.8,740.8159 Q1028.1125,741.8784 1028.1125,743.9722 Q1028.1125,746.0659 1028.8,747.1441 Q1029.4875,748.2066 1030.8313,748.2066 Q1031.4563,748.2066 1032.05,747.9409 Q1032.6438,747.6597 1033.2688,747.0816 L1033.2688,749.8003 Z " fill="#000000"/><text fill="#000000" font-family="sans-serif" font-size="12" font-style="italic" lengthAdjust="spacing" textLength="92.2441" x="1074.4807" y="740.1655">&#171;Recompensa&#187;</text><text fill="#000000" font-family="sans-serif" font-size="14" lengthAdjust="spacing" textLength="152.6055" x="1044.3" y="755.9907">Remuneraci&#243;nManuel</text><line style="stroke:#181818;stroke-width:0.5;" x1="1016.3" x2="1198.9055" y1="764.2925" y2="764.2925"/><text fill="#000000" font-family="sans-serif" font-size="14" lengthAdjust="spacing" textLength="126.0479" x="1021.3" y="781.2876">cantidad = 20000</text><line style="stroke:#181818;stroke-width:0.5;" x1="1016.3" x2="1198.9055" y1="788.5894" y2="788.5894"/></g><!--class Reducci?nHorarioL?zaro--><g class="entity" data-entity="Reducci.nHorarioL.zaro" data-source-line="58" data-uid="ent0012" id="entity_Reducci.nHorarioL.zaro"><rect fill="#F1F1F1" height="72.5625" rx="2.5" ry="2.5" style="stroke:#181818;stroke-width:0.5;" width="203.0898" x="1557.05" y="724.0269"/><ellipse cx="1572.05" cy="744.1597" fill="#ADD1B2" rx="11" ry="11" style="stroke:#181818;stroke-width:1;"/><path d="M1575.0188,749.8003 Q1574.4406,750.0972 1573.8,750.2378 Q1573.1594,750.3941 1572.4563,750.3941 Q1569.9563,750.3941 1568.6281,748.7534 Q1567.3156,747.0972 1567.3156,743.9722 Q1567.3156,740.8472 1568.6281,739.1909 Q1569.9563,737.5347 1572.4563,737.5347 Q1573.1594,737.5347 1573.8,737.6909 Q1574.4563,737.8472 1575.0188,738.1441 L1575.0188,740.8628 Q1574.3938,740.2847 1573.8,740.0191 Q1573.2063,739.7378 1572.5813,739.7378 Q1571.2375,739.7378 1570.55,740.8159 Q1569.8625,741.8784 1569.8625,743.9722 Q1569.8625,746.0659 1570.55,747.1441 Q1571.2375,748.2066 1572.5813,748.2066 Q1573.2063,748.2066 1573.8,747.9409 Q1574.3938,747.6597 1575.0188,747.0816 L1575.0188,749.8003 Z " fill="#000000"/><text fill="#000000" font-family="sans-serif" font-size="12" font-style="italic" lengthAdjust="spacing" textLength="92.2441" x="1625.4729" y="740.1655">&#171;Recompensa&#187;</text><text fill="#000000" font-family="sans-serif" font-size="14" lengthAdjust="spacing" textLength="171.0898" x="1586.05" y="755.9907">Reducci&#243;nHorarioL&#225;zaro</text><line style="stroke:#181818;stroke-width:0.5;" x1="1558.05" x2="1759.1398" y1="764.2925" y2="764.2925"/><text fill="#000000" font-family="sans-serif" font-size="14" lengthAdjust="spacing" textLength="103.4414" x="1563.05" y="781.2876">reducci&#243;n = -4</text><line style="stroke:#181818;stroke-width:0.5;" x1="1558.05" x2="1759.1398" y1="788.5894" y2="788.5894"/></g><!--class CargaTrabajoManuel--><g class="entity" data-entity="CargaTrabajoManuel" data-source-line="62" data-uid="ent0013" id="entity_CargaTrabajoManuel"><rect fill="#F1F1F1" height="88.8594" rx="2.5" ry="2.5" style="stroke:#181818;stroke-width:0.5;" width="182.5771" x="65.31" y="1055.7469"/><ellipse cx="82.6888" cy="1075.8797" fill="#ADD1B2" rx="11" ry="11" style="stroke:#181818;stroke-width:1;"/><path d="M85.6575,1081.5203 Q85.0794,1081.8172 84.4388,1081.9578 Q83.7981,1082.1141 83.095,1082.1141 Q80.595,1082.1141 79.2669,1080.4734 Q77.9544,1078.8172 77.9544,1075.6922 Q77.9544,1072.5672 79.2669,1070.9109 Q80.595,1069.2547 83.095,1069.2547 Q83.7981,1069.2547 84.4388,1069.4109 Q85.095,1069.5672 85.6575,1069.8641 L85.6575,1072.5828 Q85.0325,1072.0047 84.4388,1071.7391 Q83.845,1071.4578 83.22,1071.4578 Q81.8763,1071.4578 81.1888,1072.5359 Q80.5013,1073.5984 80.5013,1075.6922 Q80.5013,1077.7859 81.1888,1078.8641 Q81.8763,1079.9266 83.22,1079.9266 Q83.845,1079.9266 84.4388,1079.6609 Q85.0325,1079.3797 85.6575,1078.8016 L85.6575,1081.5203 Z " fill="#000000"/><text fill="#000000" font-family="sans-serif" font-size="12" font-style="italic" lengthAdjust="spacing" textLength="95.584" x="122.0709" y="1071.8855">&#171;CargaTrabajo&#187;</text><text fill="#000000" font-family="sans-serif" font-size="14" lengthAdjust="spacing" textLength="145.291" x="97.2174" y="1087.7107">CargaTrabajoManuel</text><line style="stroke:#181818;stroke-width:0.5;" x1="66.31" x2="246.8871" y1="1096.0125" y2="1096.0125"/><text fill="#000000" font-family="sans-serif" font-size="14" lengthAdjust="spacing" textLength="115.6641" x="71.31" y="1113.0076">horasClase = 40</text><text fill="#000000" font-family="sans-serif" font-size="14" lengthAdjust="spacing" textLength="170.5771" x="71.31" y="1129.3045">horasInvestigacion = 10</text><line style="stroke:#181818;stroke-width:0.5;" x1="66.31" x2="246.8871" y1="1136.6062" y2="1136.6062"/></g><!--class CargaTrabajoLazaro--><g class="entity" data-entity="CargaTrabajoLazaro" data-source-line="67" data-uid="ent0014" id="entity_CargaTrabajoLazaro"><rect fill="#F1F1F1" height="88.8594" rx="2.5" ry="2.5" style="stroke:#181818;stroke-width:0.5;" width="182.5771" x="1643.31" y="1055.7469"/><ellipse cx="1662.6144" cy="1075.8797" fill="#ADD1B2" rx="11" ry="11" style="stroke:#181818;stroke-width:1;"/><path d="M1665.5832,1081.5203 Q1665.0051,1081.8172 1664.3644,1081.9578 Q1663.7238,1082.1141 1663.0207,1082.1141 Q1660.5207,1082.1141 1659.1926,1080.4734 Q1657.8801,1078.8172 1657.8801,1075.6922 Q1657.8801,1072.5672 1659.1926,1070.9109 Q1660.5207,1069.2547 1663.0207,1069.2547 Q1663.7238,1069.2547 1664.3644,1069.4109 Q1665.0207,1069.5672 1665.5832,1069.8641 L1665.5832,1072.5828 Q1664.9582,1072.0047 1664.3644,1071.7391 Q1663.7707,1071.4578 1663.1457,1071.4578 Q1661.8019,1071.4578 1661.1144,1072.5359 Q1660.4269,1073.5984 1660.4269,1075.6922 Q1660.4269,1077.7859 1661.1144,1078.8641 Q1661.8019,1079.9266 1663.1457,1079.9266 Q1663.7707,1079.9266 1664.3644,1079.6609 Q1664.9582,1079.3797 1665.5832,1078.8016 L1665.5832,1081.5203 Z " fill="#000000"/><text fill="#000000" font-family="sans-serif" font-size="12" font-style="italic" lengthAdjust="spacing" textLength="95.584" x="1700.2849" y="1071.8855">&#171;CargaTrabajo&#187;</text><text fill="#000000" font-family="sans-serif" font-size="14" lengthAdjust="spacing" textLength="141.0117" x="1677.571" y="1087.7107">CargaTrabajoLazaro</text><line style="stroke:#181818;stroke-width:0.5;" x1="1644.31" x2="1824.8871" y1="1096.0125" y2="1096.0125"/><text fill="#000000" font-family="sans-serif" font-size="14" lengthAdjust="spacing" textLength="115.6641" x="1649.31" y="1113.0076">horasClase = 30</text><text fill="#000000" font-family="sans-serif" font-size="14" lengthAdjust="spacing" textLength="170.5771" x="1649.31" y="1129.3045">horasInvestigacion = 20</text><line style="stroke:#181818;stroke-width:0.5;" x1="1644.31" x2="1824.8871" y1="1136.6062" y2="1136.6062"/></g><!--link ID2025 to DeepVision--><g class="link" data-entity-1="ID2025" data-entity-2="DeepVision" data-source-line="73" data-uid="lnk15" id="link_ID2025_DeepVision"><path codeLine="73" d="M703.39,299.2869 C699.38,326.6769 694.7294,358.4402 690.7094,385.8902" fill="none" id="ID2025-to-DeepVision" style="stroke:#181818;stroke-width:1;"/><polygon fill="#181818" points="689.84,391.8269,695.1019,383.5015,690.5645,386.8796,687.1863,382.3423,689.84,391.8269" style="stroke:#181818;stroke-width:1;"/><text fill="#000000" font-family="sans-serif" font-size="13" lengthAdjust="spacing" textLength="45.7983" x="700.6" y="342.0838">genera</text></g><!--link DeepVision to ProyectoIA--><g class="link" data-entity-1="DeepVision" data-entity-2="ProyectoIA" data-source-line="74" data-uid="lnk16" id="link_DeepVision_ProyectoIA"><path codeLine="74" d="M747.17,465.2269 C794.34,492.0969 854.0665,526.1072 904.4165,554.7872" fill="none" id="DeepVision-to-ProyectoIA" style="stroke:#181818;stroke-width:1;"/><polygon fill="#181818" points="909.63,557.7569,903.7895,549.8266,905.2854,555.2821,899.8299,556.778,909.63,557.7569" style="stroke:#181818;stroke-width:1;"/><text fill="#000000" font-family="sans-serif" font-size="13" lengthAdjust="spacing" textLength="45.7983" x="855.6" y="524.2338">genera</text></g><!--link ProyectoIA to Manuel--><g class="link" data-entity-1="ProyectoIA" data-entity-2="Manuel" data-source-line="77" data-uid="lnk17" id="link_ProyectoIA_Manuel"><path codeLine="77" d="M946.37,647.5169 C926.65,669.8069 903.03,697.6769 883.6,724.0269 C847.57,772.8869 817.16,821.6348 792.59,863.0748" fill="none" id="ProyectoIA-to-Manuel" style="stroke:#181818;stroke-width:1;"/><polygon fill="none" points="786.47,873.3969,792.9707,870.2758,792.59,863.0748,786.0893,866.1958,786.47,873.3969" style="stroke:#181818;stroke-width:1;"/><text fill="#000000" font-family="sans-serif" font-size="13" lengthAdjust="spacing" textLength="112.3599" x="884.6" y="764.8738">est&#225; formado por</text></g><!--link Manuel to ProyectoIA--><g class="link" data-entity-1="Manuel" data-entity-2="ProyectoIA" data-source-line="94" data-uid="lnk28" id="link_Manuel_ProyectoIA"><path codeLine="94" d="M669.66,924.6669 C469.86,920.6369 6,893.3169 152.6,724.0269 C193.63,676.6469 541.5233,639.7557 774.9433,619.8657" fill="none" id="Manuel-to-ProyectoIA" style="stroke:#181818;stroke-width:1;"/><polygon fill="none" points="786.9,618.8469,780.5821,615.3707,774.9433,619.8657,781.2613,623.3419,786.9,618.8469" style="stroke:#181818;stroke-width:1;"/><text fill="#000000" font-family="sans-serif" font-size="13" lengthAdjust="spacing" textLength="66.5742" x="153.6" y="764.8738">trabaja en</text></g><!--link ProyectoIA to L?zaro--><g class="link" data-entity-1="ProyectoIA" data-entity-2="L.zaro" data-source-line="78" data-uid="lnk18" id="link_ProyectoIA_L.zaro"><path codeLine="78" d="M1084.28,647.4269 C1126.73,668.2469 1176.13,694.9369 1217.6,724.0269 C1256.63,751.4069 1257.3,769.5969 1296.6,796.5869 C1351.53,834.3269 1408.1687,862.6357 1460.5287,885.8357" fill="none" id="ProyectoIA-to-L&#225;zaro" style="stroke:#181818;stroke-width:1;"/><polygon fill="none" points="1471.5,890.6969,1467.6348,884.6092,1460.5287,885.8357,1464.394,891.9234,1471.5,890.6969" style="stroke:#181818;stroke-width:1;"/><text fill="#000000" font-family="sans-serif" font-size="13" lengthAdjust="spacing" textLength="112.3599" x="1297.6" y="764.8738">est&#225; formado por</text></g><!--link L?zaro to ProyectoIA--><g class="link" data-entity-1="L.zaro" data-entity-2="ProyectoIA" data-source-line="95" data-uid="lnk29" id="link_L.zaro_ProyectoIA"><path codeLine="95" d="M1521.75,873.1269 C1484.87,817.0369 1429.14,734.3469 1414.6,724.0269 C1347.86,676.6969 1274.6986,650.5893 1198.1786,633.1093" fill="none" id="L&#225;zaro-to-ProyectoIA" style="stroke:#181818;stroke-width:1;"/><polygon fill="none" points="1186.48,630.4369,1191.4385,635.6726,1198.1786,633.1093,1193.2201,627.8735,1186.48,630.4369" style="stroke:#181818;stroke-width:1;"/><text fill="#000000" font-family="sans-serif" font-size="13" lengthAdjust="spacing" textLength="66.5742" x="1469.6" y="764.8738">trabaja en</text></g><!--link ProyectoIA to Entregable01Manuel--><g class="link" data-entity-1="ProyectoIA" data-entity-2="Entregable01Manuel" data-source-line="79" data-uid="lnk19" id="link_ProyectoIA_Entregable01Manuel"><path codeLine="79" d="M795.83,647.5169 C700.9,669.7469 584.52,697.5669 480.6,724.0269 C475.05,725.4469 480.9801,723.8729 475.2401,725.3729" fill="none" id="ProyectoIA-to-Entregable01Manuel" style="stroke:#181818;stroke-width:1;"/><polygon fill="#181818" points="463.63,728.4069,470.4464,730.7599,475.2401,725.3729,468.4237,723.0198,463.63,728.4069" style="stroke:#181818;stroke-width:1;"/><text fill="#000000" font-family="sans-serif" font-size="13" lengthAdjust="spacing" textLength="32.9443" x="662.6" y="690.0938">tiene</text></g><!--link ProyectoIA to Remuneraci?nManuel--><g class="link" data-entity-1="ProyectoIA" data-entity-2="Remuneraci.nManuel" data-source-line="80" data-uid="lnk20" id="link_ProyectoIA_Remuneraci.nManuel"><path codeLine="80" d="M1020.63,647.3869 C1039.36,671.4969 1054.9479,691.5506 1072.5679,714.2306" fill="none" id="ProyectoIA-to-Remuneraci&#243;nManuel" style="stroke:#181818;stroke-width:1;"/><polygon fill="#181818" points="1079.93,723.7069,1079.4077,716.5147,1072.5679,714.2306,1073.0902,721.4228,1079.93,723.7069" style="stroke:#181818;stroke-width:1;"/><text fill="#000000" font-family="sans-serif" font-size="13" lengthAdjust="spacing" textLength="45.7983" x="1055.6" y="690.0938">genera</text></g><!--link ProyectoIA to Reducci?nHorarioL?zaro--><g class="link" data-entity-1="ProyectoIA" data-entity-2="Reducci.nHorarioL.zaro" data-source-line="81" data-uid="lnk21" id="link_ProyectoIA_Reducci.nHorarioL.zaro"><path codeLine="81" d="M1186.41,620.3669 C1277.18,631.2769 1385.15,648.9069 1479.6,677.0269 C1518.44,688.5969 1548.9436,701.7268 1582.0336,718.2468" fill="none" id="ProyectoIA-to-Reducci&#243;nHorarioL&#225;zaro" style="stroke:#181818;stroke-width:1;"/><polygon fill="#181818" points="1592.77,723.6069,1589.1885,717.348,1582.0336,718.2468,1585.6151,724.5056,1592.77,723.6069" style="stroke:#181818;stroke-width:1;"/><text fill="#000000" font-family="sans-serif" font-size="13" lengthAdjust="spacing" textLength="45.7983" x="1525.6" y="690.0938">genera</text></g><!--link ProyectoIA to Entregable02L?zaro--><g class="link" data-entity-1="ProyectoIA" data-entity-2="Entregable02L.zaro" data-source-line="82" data-uid="lnk22" id="link_ProyectoIA_Entregable02L.zaro"><path codeLine="82" d="M874.54,647.4869 C851.89,656.8669 828.36,666.9869 806.6,677.0269 C775.56,691.3569 752.4438,702.968 724.0838,717.928" fill="none" id="ProyectoIA-to-Entregable02L&#225;zaro" style="stroke:#181818;stroke-width:1;"/><polygon fill="#181818" points="713.47,723.5269,720.6432,724.2654,724.0838,717.928,716.9106,717.1895,713.47,723.5269" style="stroke:#181818;stroke-width:1;"/><text fill="#000000" font-family="sans-serif" font-size="13" lengthAdjust="spacing" textLength="32.9443" x="807.6" y="690.0938">tiene</text></g><!--link ProyectoIA to CargaTrabajoLazaro--><g class="link" data-entity-1="ProyectoIA" data-entity-2="CargaTrabajoLazaro" data-source-line="83" data-uid="lnk23" id="link_ProyectoIA_CargaTrabajoLazaro"><path codeLine="83" d="M1186.07,604.2869 C1396.14,609.8969 1706.27,633.7769 1777.6,724.0269 C1854.43,821.2369 1799.591,968.5773 1762.891,1044.7073" fill="none" id="ProyectoIA-to-CargaTrabajoLazaro" style="stroke:#181818;stroke-width:1;"/><polygon fill="#181818" points="1757.68,1055.5169,1763.8887,1051.8491,1762.891,1044.7073,1756.6823,1048.3751,1757.68,1055.5169" style="stroke:#181818;stroke-width:1;"/><text fill="#000000" font-family="sans-serif" font-size="13" lengthAdjust="spacing" textLength="45.7983" x="1815.6" y="839.6538">genera</text></g><!--link ProyectoIA to CargaTrabajoManuel--><g class="link" data-entity-1="ProyectoIA" data-entity-2="CargaTrabajoManuel" data-source-line="84" data-uid="lnk24" id="link_ProyectoIA_CargaTrabajoManuel"><path codeLine="84" d="M786.74,604.6669 C630.05,609.7969 407.76,626.6169 219.6,677.0269 C170.99,690.0469 149.02,685.5469 116.6,724.0269 C36.74,818.8269 91.6297,967.6626 128.3897,1044.4726" fill="none" id="ProyectoIA-to-CargaTrabajoManuel" style="stroke:#181818;stroke-width:1;"/><polygon fill="#181818" points="133.57,1055.2969,134.5879,1048.158,128.3897,1044.4726,127.3718,1051.6115,133.57,1055.2969" style="stroke:#181818;stroke-width:1;"/><text fill="#000000" font-family="sans-serif" font-size="13" lengthAdjust="spacing" textLength="45.7983" x="79.6" y="839.6538">genera</text></g><!--link Mar to ProyectoIA--><g class="link" data-entity-1="Mar" data-entity-2="ProyectoIA" data-source-line="87" data-uid="lnk25" id="link_Mar_ProyectoIA"><path codeLine="87" d="M897.31,149.7669 C914.34,171.9369 932.07,199.0069 942.6,226.4469 C986.17,340.0269 989.9273,473.979 988.5673,545.759" fill="none" id="Mar-to-ProyectoIA" style="stroke:#181818;stroke-width:1;"/><polygon fill="none" points="988.34,557.7569,992.4529,551.8337,988.5673,545.759,984.4544,551.6822,988.34,557.7569" style="stroke:#181818;stroke-width:1;"/><text fill="#000000" font-family="sans-serif" font-size="13" lengthAdjust="spacing" textLength="56.4688" x="975.6" y="342.0838">coordina</text></g><!--link Mar to ID2025--><g class="link" data-entity-1="Mar" data-entity-2="ID2025" data-source-line="88" data-uid="lnk26" id="link_Mar_ID2025"><path codeLine="88" d="M806.35,149.7169 C784.67,174.5669 767.1286,194.6542 747.6486,216.9842" fill="none" id="Mar-to-ID2025" style="stroke:#181818;stroke-width:1;"/><polygon fill="none" points="739.76,226.0269,746.7185,224.135,747.6486,216.9842,740.6901,218.876,739.76,226.0269" style="stroke:#181818;stroke-width:1;"/><text fill="#000000" font-family="sans-serif" font-size="13" lengthAdjust="spacing" textLength="38.3779" x="781.6" y="192.5138">busca</text></g><!--link Mariano to ProyectoIA--><g class="link" data-entity-1="Mariano" data-entity-2="ProyectoIA" data-source-line="90" data-uid="lnk27" id="link_Mariano_ProyectoIA"><path codeLine="90" d="M1126.75,481.6669 C1098.32,505.9869 1073.9775,526.8249 1046.8775,550.0149" fill="none" id="Mariano-to-ProyectoIA" style="stroke:#181818;stroke-width:1;"/><polygon fill="none" points="1037.76,557.8169,1044.9194,556.955,1046.8775,550.0149,1039.7181,550.8767,1037.76,557.8169" style="stroke:#181818;stroke-width:1;"/><text fill="#000000" font-family="sans-serif" font-size="13" lengthAdjust="spacing" textLength="57.2495" x="1087.6" y="524.2338">participa</text></g><!--link Manuel to CargaTrabajoManuel--><g class="link" data-entity-1="Manuel" data-entity-2="CargaTrabajoManuel" data-source-line="96" data-uid="lnk30" id="link_Manuel_CargaTrabajoManuel"><path codeLine="96" d="M669.67,952.0869 C557.3,984.3069 368.2676,1038.4933 253.7576,1071.3233" fill="none" id="Manuel-to-CargaTrabajoManuel" style="stroke:#181818;stroke-width:1;"/><polygon fill="#181818" points="247.99,1072.9769,257.7438,1074.3416,252.7964,1071.5989,255.5391,1066.6514,247.99,1072.9769" style="stroke:#181818;stroke-width:1;"/><text fill="#000000" font-family="sans-serif" font-size="13" lengthAdjust="spacing" textLength="32.9443" x="457.6" y="1021.8138">tiene</text></g><!--link L?zaro to CargaTrabajoLazaro--><g class="link" data-entity-1="L.zaro" data-entity-2="CargaTrabajoLazaro" data-source-line="97" data-uid="lnk31" id="link_L.zaro_CargaTrabajoLazaro"><path codeLine="97" d="M1609.79,979.2469 C1635.1,1003.5669 1660.5731,1028.0502 1684.7131,1051.2402" fill="none" id="L&#225;zaro-to-CargaTrabajoLazaro" style="stroke:#181818;stroke-width:1;"/><polygon fill="#181818" points="1689.04,1055.3969,1685.3207,1046.2773,1685.4342,1051.933,1679.7785,1052.0465,1689.04,1055.3969" style="stroke:#181818;stroke-width:1;"/><text fill="#000000" font-family="sans-serif" font-size="13" lengthAdjust="spacing" textLength="32.9443" x="1656.6" y="1021.8138">tiene</text></g><!--link Remuneraci?nManuel to Manuel--><g class="link" data-entity-1="Remuneraci.nManuel" data-entity-2="Manuel" data-source-line="100" data-uid="lnk32" id="link_Remuneraci.nManuel_Manuel"><path codeLine="100" d="M1031,797.0669 C975.73,822.8669 906.4669,855.209 848.9669,882.049" fill="none" id="Remuneraci&#243;nManuel-to-Manuel" style="stroke:#181818;stroke-width:1;"/><polygon fill="#181818" points="843.53,884.5869,853.3772,884.4047,848.0607,882.472,849.9934,877.1556,843.53,884.5869" style="stroke:#181818;stroke-width:1;"/><text fill="#000000" font-family="sans-serif" font-size="13" lengthAdjust="spacing" textLength="71.5" x="964.6" y="839.6538">beneficia a</text></g><!--link Reducci?nHorarioL?zaro to L?zaro--><g class="link" data-entity-1="Reducci.nHorarioL.zaro" data-entity-2="L.zaro" data-source-line="101" data-uid="lnk33" id="link_Reducci.nHorarioL.zaro_L.zaro"><path codeLine="101" d="M1636.25,796.8669 C1622.23,819.1769 1607.1032,843.2372 1591.4632,868.1172" fill="none" id="Reducci&#243;nHorarioL&#225;zaro-to-L&#225;zaro" style="stroke:#181818;stroke-width:1;"/><polygon fill="#181818" points="1588.27,873.1969,1596.4463,867.7061,1590.931,868.9638,1589.6733,863.4485,1588.27,873.1969" style="stroke:#181818;stroke-width:1;"/><text fill="#000000" font-family="sans-serif" font-size="13" lengthAdjust="spacing" textLength="71.5" x="1616.6" y="839.6538">beneficia a</text></g><!--SRC=[ZLHHJjmm4FttAIpwLsbXTu6sMYqh8IXg990GbFvFd64nIkp8Jf1ArSDmXXvXBzQnatNC9W7obJXltfjvCvvALZakUA9i1Kf8i3p3d5jfAoo0tlaQRIKt_vHxBut-ZQBIbZF6H0xMykHyFfqVy-NoJAidBQ3IHi9gnVymJa-6LXXP2gaLF-5xCSRnIVNasDSWl8BLgK6U0qzEz_Vt-Hxx6sJE4SjVqZgUvVBQwBAcm56TEnKg4532izCo2Bby1iCBp2Ie2ZdLMLlj_dczMEwwBJGvRUJy1wbzkhWufMT7rELEgabHvbYWgaYaLhpGvAIdpr6jQtZ4fYWNUe_Y0Ivb8IcD4tuuEvZD3yZ7Br4ALw1god2vJBOcPTgSQq7y6EfMkd2MxJNWXbjcH3cR7nuTV_dg3mGKfVO9gdjjYirB9GNuQXkboyqB-Q8_9aKqBRwlzksrt6tJ0Xj9NP4rRbIqoQHoAWFqX6cewvJo3ExUKiz0PMXsTL-nKsUrLyWXrMPSmU5w1VXli9gkGP2zK_89ZPKPPAwLmcMHKdWyBTzLPN0DQOxJMMXRTsZ7nhJfXxi6aYJpoAU8STwrvmEKfP456k0opAAl9Cxs1ejQ4SR_2EdUeD15YSfsbyhLwki-uVCfFLrwDvZLmiV_89EDr5sECKz3OmAOY2P77SiPc3NyD932emvvn8TRXWSIiMSKuxftDEtEacv_-F9dqs7sIsYpUvVzy0tskMTdxSQRJ5RnLbhGedIkikZCGQ9D4Y2CHQUJYTxUzGKdlSqBTrD1eyjBRNQHMwFVXNuUcie5hoIbi8iSc8YGQmywtFan_C0WZoJHxzSOPtzk8cVTXd56lV9Tj0id_6rxkE1fRGNuAByvUf4b6DgMidJKh7Mn1wfyBi1HiMr_ti84cjLWAOqx7T5gq9e6nTZGRNOnMxQKOFTklN1WezVM1OJkH17_0G00]--></g></svg>