<?xml version="1.0" encoding="us-ascii" standalone="no"?><svg xmlns="http://www.w3.org/2000/svg" xmlns:xlink="http://www.w3.org/1999/xlink" contentStyleType="text/css" height="631px" preserveAspectRatio="none" style="width:562px;height:631px;background:#FFFFFF;" version="1.1" viewBox="0 0 562 631" width="562px" zoomAndPan="magnify"><defs/><g><path d="M19.5,7 L536.5,7 A12.5,12.5 0 0 1 549,19.5 L549,34.6094 L7,34.6094 L7,19.5 A12.5,12.5 0 0 1 19.5,7 " fill="#F1F1F1" style="stroke:#F1F1F1;stroke-width:1.0;"/><rect fill="none" height="471.6094" rx="12.5" ry="12.5" style="stroke:#181818;stroke-width:0.5;" width="542" x="7" y="7"/><line style="stroke:#181818;stroke-width:0.5;" x1="7" x2="549" y1="34.6094" y2="34.6094"/><text fill="#000000" font-family="sans-serif" font-size="14" lengthAdjust="spacing" textLength="136" x="210" y="26.5332">presentarPropuesta()</text><g id="presentarPropuesta.MostrandoPropuesta"><rect fill="#F1F1F1" height="50" rx="12.5" ry="12.5" style="stroke:#181818;stroke-width:0.5;" width="50" x="123" y="153.6094"/><line style="stroke:#181818;stroke-width:0.5;" x1="123" x2="173" y1="181.2188" y2="181.2188"/><text fill="#000000" font-family="sans-serif" font-size="14" lengthAdjust="spacing" textLength="4" x="146" y="173.1426">&#160;</text></g><g id="presentarPropuesta.ConfirmandoEnvio"><rect fill="#F1F1F1" height="50" rx="12.5" ry="12.5" style="stroke:#181818;stroke-width:0.5;" width="50" x="123" y="308.6094"/><line style="stroke:#181818;stroke-width:0.5;" x1="123" x2="173" y1="336.2188" y2="336.2188"/><text fill="#000000" font-family="sans-serif" font-size="14" lengthAdjust="spacing" textLength="4" x="146" y="328.1426">&#160;</text></g><ellipse cx="148" cy="55.6094" fill="#222222" rx="10" ry="10" style="stroke:#222222;stroke-width:1.0;"/><ellipse cx="148" cy="457.6094" fill="none" rx="11" ry="11" style="stroke:#222222;stroke-width:1.0;"/><ellipse cx="148" cy="457.6094" fill="#222222" rx="6" ry="6" style="stroke:#222222;stroke-width:1.0;"/><!--link *start*presentarPropuesta to MostrandoPropuesta--><g id="link_*start*presentarPropuesta_MostrandoPropuesta"><path d="M148,65.6994 C148,84.1694 148,120.5894 148,147.5794 " fill="none" id="*start*presentarPropuesta-to-MostrandoPropuesta" style="stroke:#008000;stroke-width:1.0;"/><polygon fill="#008000" points="148,153.5794,152,144.5794,148,148.5794,144,144.5794,148,153.5794" style="stroke:#008000;stroke-width:1.0;"/><path d="M153,88.6094 L153,130.6094 L431,130.6094 L431,98.6094 L421,88.6094 L153,88.6094 " fill="#FEFFDD" style="stroke:#181818;stroke-width:0.5;"/><path d="M421,88.6094 L421,98.6094 L431,98.6094 L421,88.6094 " fill="#FEFFDD" style="stroke:#181818;stroke-width:0.5;"/><text fill="#000000" font-family="sans-serif" font-size="13" font-weight="bold" lengthAdjust="spacing" textLength="79" x="159" y="107.1045">Coordinador</text><text fill="#000000" font-family="sans-serif" font-size="13" lengthAdjust="spacing" textLength="174" x="242" y="107.1045">tiene una propuesta elaborada</text><text fill="#000000" font-family="sans-serif" font-size="13" font-weight="bold" lengthAdjust="spacing" textLength="79" x="159" y="123.4561">Coordinador</text><text fill="#000000" font-family="sans-serif" font-size="13" lengthAdjust="spacing" textLength="160" x="242" y="123.4561">solicita presentar propuesta</text></g><!--link MostrandoPropuesta to ConfirmandoEnvio--><g id="link_MostrandoPropuesta_ConfirmandoEnvio"><path d="M122.93,187.7094 C85.16,199.9094 18,221.6094 18,221.6094 C18,221.6094 18,290.6094 18,290.6094 C18,290.6094 79.4505,310.4652 117.2205,322.6652 " fill="none" id="MostrandoPropuesta-to-ConfirmandoEnvio" style="stroke:#008000;stroke-width:1.0;"/><polygon fill="#008000" points="122.93,324.5094,115.5952,317.9367,118.1721,322.9725,113.1362,325.5494,122.93,324.5094" style="stroke:#008000;stroke-width:1.0;"/><path d="M23,226.6094 L23,285.6094 L252,285.6094 L252,236.6094 L242,226.6094 L23,226.6094 " fill="#FEFFDD" style="stroke:#181818;stroke-width:0.5;"/><path d="M242,226.6094 L242,236.6094 L252,236.6094 L242,226.6094 " fill="#FEFFDD" style="stroke:#181818;stroke-width:0.5;"/><text fill="#000000" font-family="sans-serif" font-size="13" font-weight="bold" lengthAdjust="spacing" textLength="51" x="29" y="245.1045">Sistema</text><text fill="#000000" font-family="sans-serif" font-size="13" lengthAdjust="spacing" textLength="118" x="84" y="245.1045">solicita confirmaci&#243;n</text><text fill="#000000" font-family="sans-serif" font-size="13" lengthAdjust="spacing" textLength="194" x="29" y="261.4561">&#8226; &#191;Desea presentar la propuesta?</text><text fill="#000000" font-family="sans-serif" font-size="13" lengthAdjust="spacing" textLength="208" x="29" y="277.8076">&#8226; La propuesta no podr&#225; modificarse</text></g><!--link ConfirmandoEnvio to MostrandoPropuesta--><g id="link_ConfirmandoEnvio_MostrandoPropuesta"><path d="M173.01,322.9694 C205.19,310.5694 257,290.6094 257,290.6094 C257,290.6094 257,221.6094 257,221.6094 C257,221.6094 210.7887,203.8067 178.6087,191.4067 " fill="none" id="ConfirmandoEnvio-to-MostrandoPropuesta" style="stroke:#FF0000;stroke-width:1.0;"/><polygon fill="#FF0000" points="173.01,189.2494,179.9698,196.2179,177.6756,191.0472,182.8463,188.7529,173.01,189.2494" style="stroke:#FF0000;stroke-width:1.0;"/><path d="M262,235.1094 L262,277.1094 L540,277.1094 L540,245.1094 L530,235.1094 L262,235.1094 " fill="#FEFFDD" style="stroke:#181818;stroke-width:0.5;"/><path d="M530,235.1094 L530,245.1094 L540,245.1094 L530,235.1094 " fill="#FEFFDD" style="stroke:#181818;stroke-width:0.5;"/><text fill="#000000" font-family="sans-serif" font-size="13" font-weight="bold" lengthAdjust="spacing" textLength="79" x="268" y="253.6045">Coordinador</text><text fill="#000000" font-family="sans-serif" font-size="13" lengthAdjust="spacing" textLength="137" x="351" y="253.6045">cancela la presentaci&#243;n</text><text fill="#000000" font-family="sans-serif" font-size="13" font-weight="bold" lengthAdjust="spacing" textLength="51" x="268" y="269.9561">Sistema</text><text fill="#000000" font-family="sans-serif" font-size="13" lengthAdjust="spacing" textLength="202" x="323" y="269.9561">mantiene la propuesta sin cambios</text></g><!--link ConfirmandoEnvio to *end*presentarPropuesta--><g id="link_ConfirmandoEnvio_*end*presentarPropuesta"><path d="M148,358.7094 C148,385.3794 148,421.1094 148,440.3094 " fill="none" id="ConfirmandoEnvio-to-*end*presentarPropuesta" style="stroke:#008000;stroke-width:1.0;"/><polygon fill="#008000" points="148,446.3094,152,437.3094,148,441.3094,144,437.3094,148,446.3094" style="stroke:#008000;stroke-width:1.0;"/><path d="M153,381.6094 L153,423.6094 L444,423.6094 L444,391.6094 L434,381.6094 L153,381.6094 " fill="#FEFFDD" style="stroke:#181818;stroke-width:0.5;"/><path d="M434,381.6094 L434,391.6094 L444,391.6094 L434,381.6094 " fill="#FEFFDD" style="stroke:#181818;stroke-width:0.5;"/><text fill="#000000" font-family="sans-serif" font-size="13" font-weight="bold" lengthAdjust="spacing" textLength="79" x="159" y="400.1045">Coordinador</text><text fill="#000000" font-family="sans-serif" font-size="13" lengthAdjust="spacing" textLength="127" x="242" y="400.1045">confirma presentaci&#243;n</text><text fill="#000000" font-family="sans-serif" font-size="13" font-weight="bold" lengthAdjust="spacing" textLength="51" x="159" y="416.4561">Sistema</text><text fill="#000000" font-family="sans-serif" font-size="13" lengthAdjust="spacing" textLength="215" x="214" y="416.4561">marca la propuesta como presentada</text></g><g id="PROYECTO_ABIERTO"><rect fill="#F1F1F1" height="50" rx="12.5" ry="12.5" style="stroke:#181818;stroke-width:0.5;" width="166" x="97" y="575"/><line style="stroke:#181818;stroke-width:0.5;" x1="97" x2="263" y1="602.6094" y2="602.6094"/><text fill="#000000" font-family="sans-serif" font-size="14" lengthAdjust="spacing" textLength="146" x="107" y="594.5332">PROYECTO_ABIERTO</text></g><g id="PERFIL"><rect fill="#F1F1F1" height="50" rx="12.5" ry="12.5" style="stroke:#181818;stroke-width:0.5;" width="68" x="342" y="575"/><line style="stroke:#181818;stroke-width:0.5;" x1="342" x2="410" y1="602.6094" y2="602.6094"/><text fill="#000000" font-family="sans-serif" font-size="14" lengthAdjust="spacing" textLength="48" x="352" y="594.5332">PERFIL</text></g><!--link presentarPropuesta to PROYECTO_ABIERTO--><g id="link_presentarPropuesta_PROYECTO_ABIERTO"><path d="M188.39,479.12 C181.41,497.43 177,509 177,509 C177,509 177,545 177,545 C177,545 177.5265,554.4793 178.3265,568.8493 " fill="none" id="presentarPropuesta-to-PROYECTO_ABIERTO" style="stroke:#008000;stroke-width:1.0;"/><polygon fill="#008000" points="178.66,574.84,182.1535,565.6316,178.3821,569.8477,174.1659,566.0763,178.66,574.84" style="stroke:#008000;stroke-width:1.0;"/><path d="M182,514 L182,540 L328,540 L328,524 L318,514 L182,514 " fill="#FEFFDD" style="stroke:#181818;stroke-width:0.5;"/><path d="M318,514 L318,524 L328,524 L318,514 " fill="#FEFFDD" style="stroke:#181818;stroke-width:0.5;"/><text fill="#000000" font-family="sans-serif" font-size="13" lengthAdjust="spacing" textLength="125" x="188" y="532.4951">propuesta presentada</text></g><!--link presentarPropuesta to PERFIL--><g id="link_presentarPropuesta_PERFIL"><path d="M342.96,479.31 C353.67,518.12 361.643,547.0064 367.693,568.9164 " fill="none" id="presentarPropuesta-to-PERFIL" style="stroke:#008000;stroke-width:1.0;"/><polygon fill="#008000" points="369.29,574.7,370.7502,564.96,367.9592,569.8804,363.0388,567.0893,369.29,574.7" style="stroke:#008000;stroke-width:1.0;"/><path d="M364,514 L364,540 L416,540 L416,524 L406,514 L364,514 " fill="#FEFFDD" style="stroke:#181818;stroke-width:0.5;"/><path d="M406,514 L406,524 L416,524 L406,514 " fill="#FEFFDD" style="stroke:#181818;stroke-width:0.5;"/><text fill="#000000" font-family="sans-serif" font-size="13" lengthAdjust="spacing" textLength="31" x="370" y="532.4951">volver</text></g><!--SRC=[fPDVIWCn4CRVSufGNrGeNg1KjAvGgBJKlaWfCfka4hexioHfeOZWLVGA7a2mD_4aPdVh_kcsM73pb67cczytaxKBZGaOY7caKRbredX2qJgzC6OTE7ytoYfqO4Q6agNoGGwMjvhXqxCMVsQC-o-lRFdZK-_8EWCegSXivlG8vzh4QLQ0AqsvpFHynjlJaoUZ5CxQtKDAI5w8CBMmo0ATiDiZCb8ZI3ATYx3BdLQe-1B1-_creI88oO24GqMM8YsqWt86PNLMer1ctNFS9bwDlk7n4Fkzjax5K4SGssgXDn-OPNw_llElpnjFLWMCAWulYxn1rJUINx8qcpSUazHpBS1OjSVFBd3gnYZvpqq8GE4dduFcrAMd7VU-TxwugYjkDNgLEDHaZwGkTk1VrF6WMw5ZC8s0EgEWc8f2kVDQNXZRyrTLEKVZuKFGcmmVhwxxmNWoP3NWiasbGpc5lxI3yMr_K5TSKRHIfjJu0G00]--></g></svg>