<?xml version="1.0" encoding="us-ascii" standalone="no"?><svg xmlns="http://www.w3.org/2000/svg" xmlns:xlink="http://www.w3.org/1999/xlink" contentStyleType="text/css" height="761px" preserveAspectRatio="none" style="width:878px;height:761px;background:#FFFFFF;" version="1.1" viewBox="0 0 878 761" width="878px" zoomAndPan="magnify"><defs/><g><g id="in1"><rect fill="#F1F1F1" height="50" rx="12.5" ry="12.5" style="stroke:#181818;stroke-width:0.5;" width="210" x="274" y="7"/><line style="stroke:#181818;stroke-width:0.5;" x1="274" x2="484" y1="34.6094" y2="34.6094"/><text fill="#000000" font-family="sans-serif" font-size="14" lengthAdjust="spacing" textLength="190" x="284" y="26.5332">PANEL_PRINCIPAL_ABIERTO</text></g><path d="M274.5,118 L721.5,118 A12.5,12.5 0 0 1 734,130.5 L734,145.6094 L262,145.6094 L262,130.5 A12.5,12.5 0 0 1 274.5,118 " fill="#F1F1F1" style="stroke:#F1F1F1;stroke-width:1.0;"/><rect fill="none" height="490.6094" rx="12.5" ry="12.5" style="stroke:#181818;stroke-width:0.5;" width="472" x="262" y="118"/><line style="stroke:#181818;stroke-width:0.5;" x1="262" x2="734" y1="145.6094" y2="145.6094"/><text fill="#000000" font-family="sans-serif" font-size="14" lengthAdjust="spacing" textLength="147" x="424.5" y="137.5332">abrirMisPublicaciones()</text><g id="abrirMisPublicaciones.MostrandoLista"><rect fill="#F1F1F1" height="50" rx="12.5" ry="12.5" style="stroke:#181818;stroke-width:0.5;" width="50" x="274" y="248.6094"/><line style="stroke:#181818;stroke-width:0.5;" x1="274" x2="324" y1="276.2188" y2="276.2188"/><text fill="#000000" font-family="sans-serif" font-size="14" lengthAdjust="spacing" textLength="4" x="297" y="268.1426">&#160;</text></g><g id="abrirMisPublicaciones.FiltrandoLista"><rect fill="#F1F1F1" height="50" rx="12.5" ry="12.5" style="stroke:#181818;stroke-width:0.5;" width="50" x="274" y="453.6094"/><line style="stroke:#181818;stroke-width:0.5;" x1="274" x2="324" y1="481.2188" y2="481.2188"/><text fill="#000000" font-family="sans-serif" font-size="14" lengthAdjust="spacing" textLength="4" x="297" y="473.1426">&#160;</text></g><ellipse cx="299" cy="166.6094" fill="#222222" rx="10" ry="10" style="stroke:#222222;stroke-width:1.0;"/><ellipse cx="299" cy="587.6094" fill="none" rx="11" ry="11" style="stroke:#222222;stroke-width:1.0;"/><ellipse cx="299" cy="587.6094" fill="#222222" rx="6" ry="6" style="stroke:#222222;stroke-width:1.0;"/><!--link *start*abrirMisPublicaciones to MostrandoLista--><g id="link_*start*abrirMisPublicaciones_MostrandoLista"><path d="M299,176.9294 C299,192.7894 299,219.5194 299,242.2494 " fill="none" id="*start*abrirMisPublicaciones-to-MostrandoLista" style="stroke:#008000;stroke-width:1.0;"/><polygon fill="#008000" points="299,248.2494,303,239.2494,299,243.2494,295,239.2494,299,248.2494" style="stroke:#008000;stroke-width:1.0;"/><path d="M304,199.6094 L304,225.6094 L660,225.6094 L660,209.6094 L650,199.6094 L304,199.6094 " fill="#FEFFDD" style="stroke:#181818;stroke-width:0.5;"/><path d="M650,199.6094 L650,209.6094 L660,209.6094 L650,199.6094 " fill="#FEFFDD" style="stroke:#181818;stroke-width:0.5;"/><text fill="#000000" font-family="sans-serif" font-size="13" font-weight="bold" lengthAdjust="spacing" textLength="79" x="310" y="218.1045">Coordinador</text><text fill="#000000" font-family="sans-serif" font-size="13" lengthAdjust="spacing" textLength="252" x="393" y="218.1045">solicita abrir el listado de sus publicaciones</text></g><!--link MostrandoLista to FiltrandoLista--><g id="link_MostrandoLista_FiltrandoLista"><path d="M299,298.6894 C299,337.7594 299,408.5094 299,447.5594 " fill="none" id="MostrandoLista-to-FiltrandoLista" style="stroke:#008000;stroke-width:1.0;"/><polygon fill="#008000" points="299,453.5594,303,444.5594,299,448.5594,295,444.5594,299,453.5594" style="stroke:#008000;stroke-width:1.0;"/><path d="M304,321.6094 L304,429.6094 L725,429.6094 L725,331.6094 L715,321.6094 L304,321.6094 " fill="#FEFFDD" style="stroke:#181818;stroke-width:0.5;"/><path d="M715,321.6094 L715,331.6094 L725,331.6094 L715,321.6094 " fill="#FEFFDD" style="stroke:#181818;stroke-width:0.5;"/><text fill="#000000" font-family="sans-serif" font-size="13" font-weight="bold" lengthAdjust="spacing" textLength="51" x="310" y="340.1045">Sistema</text><text fill="#000000" font-family="sans-serif" font-size="13" lengthAdjust="spacing" textLength="345" x="365" y="340.1045">presenta el listado de publicaciones propias del coordinador</text><text fill="#000000" font-family="sans-serif" font-size="13" lengthAdjust="spacing" textLength="40" x="310" y="356.4561">&#8226; T&#237;tulo</text><text fill="#000000" font-family="sans-serif" font-size="13" lengthAdjust="spacing" textLength="176" x="310" y="372.8076">&#8226; Estado (borrador / publicada)</text><text fill="#000000" font-family="sans-serif" font-size="13" lengthAdjust="spacing" textLength="196" x="310" y="389.1592">&#8226; Fecha de creaci&#243;n o publicaci&#243;n</text><text fill="#000000" font-family="sans-serif" font-size="13" lengthAdjust="spacing" textLength="77" x="310" y="405.5107">&#8226; Descripci&#243;n</text><text fill="#000000" font-family="sans-serif" font-size="13" lengthAdjust="spacing" textLength="261" x="310" y="421.8623">&#8226; Permite solicitar filtrar/buscar publicaciones</text></g><!--link FiltrandoLista to FiltrandoLista--><g id="link_FiltrandoLista_FiltrandoLista"><path d="M324.18,467.0294 C333.91,466.5194 342,470.3794 342,478.6094 C342,486.8394 339.9018,491.0134 330.1718,490.5034 " fill="none" id="FiltrandoLista-to-FiltrandoLista" style="stroke:#008000;stroke-width:1.0;"/><polygon fill="#008000" points="324.18,490.1894,332.9583,494.655,329.1731,490.4511,333.377,486.6659,324.18,490.1894" style="stroke:#008000;stroke-width:1.0;"/><path d="M347,457.6094 L347,499.6094 L700,499.6094 L700,467.6094 L690,457.6094 L347,457.6094 " fill="#FEFFDD" style="stroke:#181818;stroke-width:0.5;"/><path d="M690,457.6094 L690,467.6094 L700,467.6094 L690,457.6094 " fill="#FEFFDD" style="stroke:#181818;stroke-width:0.5;"/><text fill="#000000" font-family="sans-serif" font-size="13" font-weight="bold" lengthAdjust="spacing" textLength="79" x="353" y="476.1045">Coordinador</text><text fill="#000000" font-family="sans-serif" font-size="13" lengthAdjust="spacing" textLength="224" x="436" y="476.1045">solicita filtrar/buscar sus publicaciones</text><text fill="#000000" font-family="sans-serif" font-size="13" font-weight="bold" lengthAdjust="spacing" textLength="51" x="353" y="492.4561">Sistema</text><text fill="#000000" font-family="sans-serif" font-size="13" lengthAdjust="spacing" textLength="277" x="408" y="492.4561">actualiza el listado seg&#250;n los criterios indicados</text></g><!--link FiltrandoLista to *end*abrirMisPublicaciones--><g id="link_FiltrandoLista_*end*abrirMisPublicaciones"><path d="M299,503.6194 C299,526.5394 299,553.9694 299,570.5294 " fill="none" id="FiltrandoLista-to-*end*abrirMisPublicaciones" style="stroke:#008000;stroke-width:1.0;"/><polygon fill="#008000" points="299,576.5294,303,567.5294,299,571.5294,295,567.5294,299,576.5294" style="stroke:#008000;stroke-width:1.0;"/><path d="M304,527.6094 L304,553.6094 L689,553.6094 L689,537.6094 L679,527.6094 L304,527.6094 " fill="#FEFFDD" style="stroke:#181818;stroke-width:0.5;"/><path d="M679,527.6094 L679,537.6094 L689,537.6094 L679,527.6094 " fill="#FEFFDD" style="stroke:#181818;stroke-width:0.5;"/><text fill="#000000" font-family="sans-serif" font-size="13" font-weight="bold" lengthAdjust="spacing" textLength="51" x="310" y="546.1045">Sistema</text><text fill="#000000" font-family="sans-serif" font-size="13" lengthAdjust="spacing" textLength="309" x="365" y="546.1045">deja el listado de publicaciones listo para su consulta</text></g><g id="in2"><rect fill="#F1F1F1" height="50" rx="12.5" ry="12.5" style="stroke:#181818;stroke-width:0.5;" width="198" x="519" y="7"/><line style="stroke:#181818;stroke-width:0.5;" x1="519" x2="717" y1="34.6094" y2="34.6094"/><text fill="#000000" font-family="sans-serif" font-size="14" lengthAdjust="spacing" textLength="178" x="529" y="26.5332">MI_PUBLICACION_ABIERTA</text></g><g id="MIS_PUBLICACIONES_ABIERTAS"><rect fill="#F1F1F1" height="50" rx="12.5" ry="12.5" style="stroke:#181818;stroke-width:0.5;" width="234" x="7" y="705"/><line style="stroke:#181818;stroke-width:0.5;" x1="7" x2="241" y1="732.6094" y2="732.6094"/><text fill="#000000" font-family="sans-serif" font-size="14" lengthAdjust="spacing" textLength="214" x="17" y="724.5332">MIS_PUBLICACIONES_ABIERTAS</text></g><g id="MI_PUBLICACION_ABIERTA"><rect fill="#F1F1F1" height="50" rx="12.5" ry="12.5" style="stroke:#181818;stroke-width:0.5;" width="198" x="368" y="705"/><line style="stroke:#181818;stroke-width:0.5;" x1="368" x2="566" y1="732.6094" y2="732.6094"/><text fill="#000000" font-family="sans-serif" font-size="14" lengthAdjust="spacing" textLength="178" x="378" y="724.5332">MI_PUBLICACION_ABIERTA</text></g><g id="PANEL_PRINCIPAL_ABIERTO"><rect fill="#F1F1F1" height="50" rx="12.5" ry="12.5" style="stroke:#181818;stroke-width:0.5;" width="210" x="661" y="705"/><line style="stroke:#181818;stroke-width:0.5;" x1="661" x2="871" y1="732.6094" y2="732.6094"/><text fill="#000000" font-family="sans-serif" font-size="14" lengthAdjust="spacing" textLength="190" x="671" y="724.5332">PANEL_PRINCIPAL_ABIERTO</text></g><!--link in1 to abrirMisPublicaciones--><g id="link_in1_abrirMisPublicaciones"><path d="M387.75,57.23 C393.23,72.39 398.8504,87.9773 407.6304,112.2673 " fill="none" id="in1-to-abrirMisPublicaciones" style="stroke:#008000;stroke-width:1.0;"/><polygon fill="#008000" points="409.67,117.91,410.3723,108.0862,407.9703,113.2078,402.8488,110.8057,409.67,117.91" style="stroke:#008000;stroke-width:1.0;"/></g><!--link in2 to abrirMisPublicaciones--><g id="link_in2_abrirMisPublicaciones"><path d="M609.18,57.23 C603.66,72.39 597.9719,87.9818 589.1319,112.2718 " fill="none" id="in2-to-abrirMisPublicaciones" style="stroke:#008000;stroke-width:1.0;"/><polygon fill="#008000" points="587.08,117.91,593.9167,110.8206,588.79,113.2115,586.3991,108.0847,587.08,117.91" style="stroke:#008000;stroke-width:1.0;"/></g><!--link abrirMisPublicaciones to MIS_PUBLICACIONES_ABIERTAS--><g id="link_abrirMisPublicaciones_MIS_PUBLICACIONES_ABIERTAS"><path d="M261.69,552.52 C201.26,600.6 153,639 153,639 C153,639 142.2001,672.5091 133.6101,699.1691 " fill="none" id="abrirMisPublicaciones-to-MIS_PUBLICACIONES_ABIERTAS" style="stroke:#008000;stroke-width:1.0;"/><polygon fill="#008000" points="131.77,704.88,138.3374,697.5404,133.3034,700.1209,130.7229,695.087,131.77,704.88" style="stroke:#008000;stroke-width:1.0;"/><path d="M158,644 L158,670 L390,670 L390,654 L380,644 L158,644 " fill="#FEFFDD" style="stroke:#181818;stroke-width:0.5;"/><path d="M380,644 L380,654 L390,654 L380,644 " fill="#FEFFDD" style="stroke:#181818;stroke-width:0.5;"/><text fill="#000000" font-family="sans-serif" font-size="13" lengthAdjust="spacing" textLength="211" x="164" y="662.4951">Listado de mis publicaciones abierto</text></g><!--link abrirMisPublicaciones to MI_PUBLICACION_ABIERTA--><g id="link_abrirMisPublicaciones_MI_PUBLICACION_ABIERTA"><path d="M413.35,609.1 C407,627.46 403,639 403,639 C403,639 403,675 403,675 C403,675 416.7433,686.602 433.7833,700.972 " fill="none" id="abrirMisPublicaciones-to-MI_PUBLICACION_ABIERTA" style="stroke:#008000;stroke-width:1.0;"/><polygon fill="#008000" points="438.37,704.84,434.0686,695.9801,434.5477,701.6166,428.9112,702.0958,438.37,704.84" style="stroke:#008000;stroke-width:1.0;"/><path d="M408,644 L408,670 L543,670 L543,654 L533,644 L408,644 " fill="#FEFFDD" style="stroke:#181818;stroke-width:0.5;"/><path d="M533,644 L533,654 L543,654 L533,644 " fill="#FEFFDD" style="stroke:#181818;stroke-width:0.5;"/><text fill="#000000" font-family="sans-serif" font-size="13" lengthAdjust="spacing" textLength="114" x="414" y="662.4951">abrirMiPublicacion()</text></g><!--link abrirMisPublicaciones to MI_PUBLICACION_ABIERTA--><g id="link_abrirMisPublicaciones_MI_PUBLICACION_ABIERTA"><path d="M546.12,609.1 C549.73,627.46 552,639 552,639 C552,639 552,675 552,675 C552,675 532.7257,687.2547 510.0857,701.6247 " fill="none" id="abrirMisPublicaciones-to-MI_PUBLICACION_ABIERTA-1" style="stroke:#008000;stroke-width:1.0;"/><polygon fill="#008000" points="505.02,704.84,514.7622,703.3942,509.2415,702.1606,510.4751,696.6399,505.02,704.84" style="stroke:#008000;stroke-width:1.0;"/><path d="M557,644 L557,670 L682,670 L682,654 L672,644 L557,644 " fill="#FEFFDD" style="stroke:#181818;stroke-width:0.5;"/><path d="M672,644 L672,654 L682,654 L672,644 " fill="#FEFFDD" style="stroke:#181818;stroke-width:0.5;"/><text fill="#000000" font-family="sans-serif" font-size="13" lengthAdjust="spacing" textLength="104" x="563" y="662.4951">crearPublicacion()</text></g><!--link abrirMisPublicaciones to PANEL_PRINCIPAL_ABIERTO--><g id="link_abrirMisPublicaciones_PANEL_PRINCIPAL_ABIERTO"><path d="M677.88,609.14 C706.57,648.17 728.515,678.0266 744.615,699.9166 " fill="none" id="abrirMisPublicaciones-to-PANEL_PRINCIPAL_ABIERTO" style="stroke:#008000;stroke-width:1.0;"/><polygon fill="#008000" points="748.17,704.75,746.0598,695.1299,745.2075,700.7221,739.6152,699.8698,748.17,704.75" style="stroke:#008000;stroke-width:1.0;"/><path d="M726,644 L726,670 L863,670 L863,654 L853,644 L726,644 " fill="#FEFFDD" style="stroke:#181818;stroke-width:0.5;"/><path d="M853,644 L853,654 L863,654 L853,644 " fill="#FEFFDD" style="stroke:#181818;stroke-width:0.5;"/><text fill="#000000" font-family="sans-serif" font-size="13" lengthAdjust="spacing" textLength="116" x="732" y="662.4951">abrirPanelPrincipal()</text></g><!--SRC=[hLGzRzim4DtrAmXtiGi4HZC71XJN0GJ8ZX2dKn0Ob7XDhw59uIWDQL6WlwLxfsvT_K_wItAKFsIwSki6bHQHTthltRiZtIEQKf9S2eq6ggSIH6drarz4aQja1GBD6o6Tw6NnR98kifjaDawoE5t4bydavlQw5_c4ixjN3mHWxiz6GkQ4D4MNrRd6GXPe3RWMxRn1coQBxDrbcepZSN8zsu357kpyTB3EO0FV6UaFUk9p50b-rl_t-ENigNKLIQDiYhp_U_mAzNwyIRXxVH_exC0mbY6iySu-DXiN-MXiBIaqKbcw6EOZuIpBmqgkIn6WEPl_LrOe4AvseWpgzYXWL0EzrX7o1f8EP1-JDESeB6KZfoHmO1Wd51A8u2HR8jkYEAbewsdmVdtz9cvNtwjQszrwiiRfvvR89uhX5b39mIxh2eeFqfCL1Coq-c64RObvkSjy2wuWBCFD36Y9NDpMK1Blc_9fcDUkuENVZ0pTUecHHtjxeAIxhGUTa4LLIusVWbOuU5ZzP5Bhs2Mkbf2_q2XlfVt7edY0Jne91H__F0u-m9tYIuGhuu4mhjORbtPYlaHHzraDZb0otxyJ9lFjhJ2F0f5fgsI91rRoEKAWoaQj3wSGTzr58Ua6PG-aF_Zl97xqwUKKHsxeZa8oQK1dXAR0KkfzccS0]--></g></svg>