<?xml version="1.0" encoding="us-ascii" standalone="no"?><svg xmlns="http://www.w3.org/2000/svg" xmlns:xlink="http://www.w3.org/1999/xlink" contentStyleType="text/css" height="796px" preserveAspectRatio="none" style="width:510px;height:796px;background:#FFFFFF;" version="1.1" viewBox="0 0 510 796" width="510px" zoomAndPan="magnify"><defs/><g><path d="M19.5,153 L466.5,153 A12.5,12.5 0 0 1 479,165.5 L479,180.6094 L7,180.6094 L7,165.5 A12.5,12.5 0 0 1 19.5,153 " fill="#F1F1F1" style="stroke:#F1F1F1;stroke-width:1.0;"/><rect fill="none" height="490.6094" rx="12.5" ry="12.5" style="stroke:#181818;stroke-width:0.5;" width="472" x="7" y="153"/><line style="stroke:#181818;stroke-width:0.5;" x1="7" x2="479" y1="180.6094" y2="180.6094"/><text fill="#000000" font-family="sans-serif" font-size="14" lengthAdjust="spacing" textLength="147" x="169.5" y="172.5332">abrirMisPublicaciones()</text><g id="abrirMisPublicaciones.MostrandoLista"><rect fill="#F1F1F1" height="50" rx="12.5" ry="12.5" style="stroke:#181818;stroke-width:0.5;" width="50" x="19" y="283.6094"/><line style="stroke:#181818;stroke-width:0.5;" x1="19" x2="69" y1="311.2188" y2="311.2188"/><text fill="#000000" font-family="sans-serif" font-size="14" lengthAdjust="spacing" textLength="4" x="42" y="303.1426">&#160;</text></g><g id="abrirMisPublicaciones.FiltrandoLista"><rect fill="#F1F1F1" height="50" rx="12.5" ry="12.5" style="stroke:#181818;stroke-width:0.5;" width="50" x="19" y="488.6094"/><line style="stroke:#181818;stroke-width:0.5;" x1="19" x2="69" y1="516.2188" y2="516.2188"/><text fill="#000000" font-family="sans-serif" font-size="14" lengthAdjust="spacing" textLength="4" x="42" y="508.1426">&#160;</text></g><ellipse cx="44" cy="201.6094" fill="#222222" rx="10" ry="10" style="stroke:#222222;stroke-width:1.0;"/><ellipse cx="44" cy="622.6094" fill="none" rx="11" ry="11" style="stroke:#222222;stroke-width:1.0;"/><ellipse cx="44" cy="622.6094" fill="#222222" rx="6" ry="6" style="stroke:#222222;stroke-width:1.0;"/><!--link *start*abrirMisPublicaciones to MostrandoLista--><g id="link_*start*abrirMisPublicaciones_MostrandoLista"><path d="M44,211.9294 C44,227.7894 44,254.5194 44,277.2494 " fill="none" id="*start*abrirMisPublicaciones-to-MostrandoLista" style="stroke:#008000;stroke-width:1.0;"/><polygon fill="#008000" points="44,283.2494,48,274.2494,44,278.2494,40,274.2494,44,283.2494" style="stroke:#008000;stroke-width:1.0;"/><path d="M49,234.6094 L49,260.6094 L405,260.6094 L405,244.6094 L395,234.6094 L49,234.6094 " fill="#FEFFDD" style="stroke:#181818;stroke-width:0.5;"/><path d="M395,234.6094 L395,244.6094 L405,244.6094 L395,234.6094 " fill="#FEFFDD" style="stroke:#181818;stroke-width:0.5;"/><text fill="#000000" font-family="sans-serif" font-size="13" font-weight="bold" lengthAdjust="spacing" textLength="79" x="55" y="253.1045">Coordinador</text><text fill="#000000" font-family="sans-serif" font-size="13" lengthAdjust="spacing" textLength="252" x="138" y="253.1045">solicita abrir el listado de sus publicaciones</text></g><!--link MostrandoLista to FiltrandoLista--><g id="link_MostrandoLista_FiltrandoLista"><path d="M44,333.6894 C44,372.7594 44,443.5094 44,482.5594 " fill="none" id="MostrandoLista-to-FiltrandoLista" style="stroke:#008000;stroke-width:1.0;"/><polygon fill="#008000" points="44,488.5594,48,479.5594,44,483.5594,40,479.5594,44,488.5594" style="stroke:#008000;stroke-width:1.0;"/><path d="M49,356.6094 L49,464.6094 L470,464.6094 L470,366.6094 L460,356.6094 L49,356.6094 " fill="#FEFFDD" style="stroke:#181818;stroke-width:0.5;"/><path d="M460,356.6094 L460,366.6094 L470,366.6094 L460,356.6094 " fill="#FEFFDD" style="stroke:#181818;stroke-width:0.5;"/><text fill="#000000" font-family="sans-serif" font-size="13" font-weight="bold" lengthAdjust="spacing" textLength="51" x="55" y="375.1045">Sistema</text><text fill="#000000" font-family="sans-serif" font-size="13" lengthAdjust="spacing" textLength="345" x="110" y="375.1045">presenta el listado de publicaciones propias del coordinador</text><text fill="#000000" font-family="sans-serif" font-size="13" lengthAdjust="spacing" textLength="40" x="55" y="391.4561">&#8226; T&#237;tulo</text><text fill="#000000" font-family="sans-serif" font-size="13" lengthAdjust="spacing" textLength="176" x="55" y="407.8076">&#8226; Estado (borrador / publicada)</text><text fill="#000000" font-family="sans-serif" font-size="13" lengthAdjust="spacing" textLength="196" x="55" y="424.1592">&#8226; Fecha de creaci&#243;n o publicaci&#243;n</text><text fill="#000000" font-family="sans-serif" font-size="13" lengthAdjust="spacing" textLength="77" x="55" y="440.5107">&#8226; Descripci&#243;n</text><text fill="#000000" font-family="sans-serif" font-size="13" lengthAdjust="spacing" textLength="261" x="55" y="456.8623">&#8226; Permite solicitar filtrar/buscar publicaciones</text></g><!--link FiltrandoLista to FiltrandoLista--><g id="link_FiltrandoLista_FiltrandoLista"><path d="M69.18,502.0294 C78.91,501.5194 87,505.3794 87,513.6094 C87,521.8394 84.9018,526.0134 75.1718,525.5034 " fill="none" id="FiltrandoLista-to-FiltrandoLista" style="stroke:#008000;stroke-width:1.0;"/><polygon fill="#008000" points="69.18,525.1894,77.9583,529.655,74.1731,525.4511,78.377,521.6659,69.18,525.1894" style="stroke:#008000;stroke-width:1.0;"/><path d="M92,492.6094 L92,534.6094 L445,534.6094 L445,502.6094 L435,492.6094 L92,492.6094 " fill="#FEFFDD" style="stroke:#181818;stroke-width:0.5;"/><path d="M435,492.6094 L435,502.6094 L445,502.6094 L435,492.6094 " fill="#FEFFDD" style="stroke:#181818;stroke-width:0.5;"/><text fill="#000000" font-family="sans-serif" font-size="13" font-weight="bold" lengthAdjust="spacing" textLength="79" x="98" y="511.1045">Coordinador</text><text fill="#000000" font-family="sans-serif" font-size="13" lengthAdjust="spacing" textLength="224" x="181" y="511.1045">solicita filtrar/buscar sus publicaciones</text><text fill="#000000" font-family="sans-serif" font-size="13" font-weight="bold" lengthAdjust="spacing" textLength="51" x="98" y="527.4561">Sistema</text><text fill="#000000" font-family="sans-serif" font-size="13" lengthAdjust="spacing" textLength="277" x="153" y="527.4561">actualiza el listado seg&#250;n los criterios indicados</text></g><!--link FiltrandoLista to *end*abrirMisPublicaciones--><g id="link_FiltrandoLista_*end*abrirMisPublicaciones"><path d="M44,538.6194 C44,561.5394 44,588.9694 44,605.5294 " fill="none" id="FiltrandoLista-to-*end*abrirMisPublicaciones" style="stroke:#008000;stroke-width:1.0;"/><polygon fill="#008000" points="44,611.5294,48,602.5294,44,606.5294,40,602.5294,44,611.5294" style="stroke:#008000;stroke-width:1.0;"/><path d="M49,562.6094 L49,588.6094 L434,588.6094 L434,572.6094 L424,562.6094 L49,562.6094 " fill="#FEFFDD" style="stroke:#181818;stroke-width:0.5;"/><path d="M424,562.6094 L424,572.6094 L434,572.6094 L424,562.6094 " fill="#FEFFDD" style="stroke:#181818;stroke-width:0.5;"/><text fill="#000000" font-family="sans-serif" font-size="13" font-weight="bold" lengthAdjust="spacing" textLength="51" x="55" y="581.1045">Sistema</text><text fill="#000000" font-family="sans-serif" font-size="13" lengthAdjust="spacing" textLength="309" x="110" y="581.1045">deja el listado de publicaciones listo para su consulta</text></g><g id="PANEL_PRINCIPAL_ABIERTO"><rect fill="#F1F1F1" height="50" rx="12.5" ry="12.5" style="stroke:#181818;stroke-width:0.5;" width="210" x="19" y="7"/><line style="stroke:#181818;stroke-width:0.5;" x1="19" x2="229" y1="34.6094" y2="34.6094"/><text fill="#000000" font-family="sans-serif" font-size="14" lengthAdjust="spacing" textLength="190" x="29" y="26.5332">PANEL_PRINCIPAL_ABIERTO</text></g><g id="MI_PUBLICACION_ABIERTA"><rect fill="#F1F1F1" height="50" rx="12.5" ry="12.5" style="stroke:#181818;stroke-width:0.5;" width="198" x="264" y="7"/><line style="stroke:#181818;stroke-width:0.5;" x1="264" x2="462" y1="34.6094" y2="34.6094"/><text fill="#000000" font-family="sans-serif" font-size="14" lengthAdjust="spacing" textLength="178" x="274" y="26.5332">MI_PUBLICACION_ABIERTA</text></g><g id="MIS_PUBLICACIONES_ABIERTAS"><rect fill="#F1F1F1" height="50" rx="12.5" ry="12.5" style="stroke:#181818;stroke-width:0.5;" width="234" x="126" y="740"/><line style="stroke:#181818;stroke-width:0.5;" x1="126" x2="360" y1="767.6094" y2="767.6094"/><text fill="#000000" font-family="sans-serif" font-size="14" lengthAdjust="spacing" textLength="214" x="136" y="759.5332">MIS_PUBLICACIONES_ABIERTAS</text></g><!--link PANEL_PRINCIPAL_ABIERTO to abrirMisPublicaciones--><g id="link_PANEL_PRINCIPAL_ABIERTO_abrirMisPublicaciones"><path d="M131.9,57.2 C139.04,79.06 148.4878,108.0163 161.2278,147.0363 " fill="none" id="PANEL_PRINCIPAL_ABIERTO-to-abrirMisPublicaciones" style="stroke:#008000;stroke-width:1.0;"/><polygon fill="#008000" points="163.09,152.74,164.0991,142.943,161.5381,147.9869,156.4942,145.426,163.09,152.74" style="stroke:#008000;stroke-width:1.0;"/><path d="M158,92 L158,118 L314,118 L314,102 L304,92 L158,92 " fill="#FEFFDD" style="stroke:#181818;stroke-width:0.5;"/><path d="M304,92 L304,102 L314,102 L304,92 " fill="#FEFFDD" style="stroke:#181818;stroke-width:0.5;"/><text fill="#000000" font-family="sans-serif" font-size="13" lengthAdjust="spacing" textLength="135" x="164" y="110.4951">abrirMisPublicaciones()</text></g><!--link MI_PUBLICACION_ABIERTA to abrirMisPublicaciones--><g id="link_MI_PUBLICACION_ABIERTA_abrirMisPublicaciones"><path d="M355.03,57.2 C347.84,79.06 338.2954,108.0206 325.4554,147.0406 " fill="none" id="MI_PUBLICACION_ABIERTA-to-abrirMisPublicaciones" style="stroke:#008000;stroke-width:1.0;"/><polygon fill="#008000" points="323.58,152.74,330.1927,145.4413,325.1429,147.9905,322.5936,142.9407,323.58,152.74" style="stroke:#008000;stroke-width:1.0;"/><path d="M347,92 L347,118 L503,118 L503,102 L493,92 L347,92 " fill="#FEFFDD" style="stroke:#181818;stroke-width:0.5;"/><path d="M493,92 L493,102 L503,102 L493,92 " fill="#FEFFDD" style="stroke:#181818;stroke-width:0.5;"/><text fill="#000000" font-family="sans-serif" font-size="13" lengthAdjust="spacing" textLength="135" x="353" y="110.4951">abrirMisPublicaciones()</text></g><!--link abrirMisPublicaciones to MIS_PUBLICACIONES_ABIERTAS--><g id="link_abrirMisPublicaciones_MIS_PUBLICACIONES_ABIERTAS"><path d="M243,644.14 C243,683.17 243,711.86 243,733.75 " fill="none" id="abrirMisPublicaciones-to-MIS_PUBLICACIONES_ABIERTAS" style="stroke:#008000;stroke-width:1.0;"/><polygon fill="#008000" points="243,739.75,247,730.75,243,734.75,239,730.75,243,739.75" style="stroke:#008000;stroke-width:1.0;"/><path d="M248,679 L248,705 L480,705 L480,689 L470,679 L248,679 " fill="#FEFFDD" style="stroke:#181818;stroke-width:0.5;"/><path d="M470,679 L470,689 L480,689 L470,679 " fill="#FEFFDD" style="stroke:#181818;stroke-width:0.5;"/><text fill="#000000" font-family="sans-serif" font-size="13" lengthAdjust="spacing" textLength="211" x="254" y="697.4951">Listado de mis publicaciones abierto</text></g><!--SRC=[hLJDJjj04BxxALRX0aWeBu0YcH0aIqwm23qX5AszKphWx5YpzW4GKf-bzvwuSSsRy2IC7H9dKuVI2llYtHdFzpEpw-xG5fhrNELeeRmlG1MKtzUB872bBa7fb977w98gpJ7J6P85fxHJlSx8_a5FFGQ1acVvVqzUoHwJArbRGp7A_f_nCymtuqt2rU6rEhhQks40UtqqwAfXIKgGhUdVDHl7wM18n0QjDiJ7_NIW70azBFLIYe9SikL_Gyg0SfLJnQQ0fWfOqvHUyl1nFKfRj7THcaeKvhgXKp0ui5B79-AHa2GgK6mnafIrUffwhpz_gSl5xxBAQRqUBUlifyHS9wh-gg3H1-kiCyX-w1eiOn2anRDLr0BBSfrv2YvZBFpD17YE8cvbAAllZNpkfvNBPFat8tst_iV8dRtTOjBTrgrEwAoiT8uFNYiSt2nU19ISk2Hg6UKBhQcjf7yK9GFygP4mSFlnEDG1wPISL54c0s5TbR-xj2Rp50H9E1d5i-GYcWoZ98nduKaqkhWyzpXrdjh0OxZZO0Ujxd4qIxwTnD4m74RdatUSyEjnkYyVxqw8ffjKHjCLcQcF5RVMpd5hDeGh0fVK0hy1]--></g></svg>