<?xml version="1.0" encoding="us-ascii" standalone="no"?><svg xmlns="http://www.w3.org/2000/svg" xmlns:xlink="http://www.w3.org/1999/xlink" contentStyleType="text/css" height="617px" preserveAspectRatio="none" style="width:422px;height:617px;background:#FFFFFF;" version="1.1" viewBox="0 0 422 617" width="422px" zoomAndPan="magnify"><defs/><g><path d="M30.5,7 L396.5,7 A12.5,12.5 0 0 1 409,19.5 L409,34.6094 L18,34.6094 L18,19.5 A12.5,12.5 0 0 1 30.5,7 " fill="#F1F1F1" style="stroke:#F1F1F1;stroke-width:1.0;"/><rect fill="none" height="457.6094" rx="12.5" ry="12.5" style="stroke:#181818;stroke-width:0.5;" width="391" x="18" y="7"/><line style="stroke:#181818;stroke-width:0.5;" x1="18" x2="409" y1="34.6094" y2="34.6094"/><text fill="#000000" font-family="sans-serif" font-size="14" lengthAdjust="spacing" textLength="137" x="145" y="26.5332">buscarConvocatoria()</text><g id="buscarConvocatoria.MostrandoLista"><rect fill="#F1F1F1" height="50" rx="12.5" ry="12.5" style="stroke:#181818;stroke-width:0.5;" width="50" x="30" y="137.6094"/><line style="stroke:#181818;stroke-width:0.5;" x1="30" x2="80" y1="165.2188" y2="165.2188"/><text fill="#000000" font-family="sans-serif" font-size="14" lengthAdjust="spacing" textLength="4" x="53" y="157.1426">&#160;</text></g><g id="buscarConvocatoria.FiltrandoLista"><rect fill="#F1F1F1" height="50" rx="12.5" ry="12.5" style="stroke:#181818;stroke-width:0.5;" width="50" x="30" y="309.6094"/><line style="stroke:#181818;stroke-width:0.5;" x1="30" x2="80" y1="337.2188" y2="337.2188"/><text fill="#000000" font-family="sans-serif" font-size="14" lengthAdjust="spacing" textLength="4" x="53" y="329.1426">&#160;</text></g><ellipse cx="55" cy="55.6094" fill="#222222" rx="10" ry="10" style="stroke:#222222;stroke-width:1.0;"/><ellipse cx="55" cy="443.6094" fill="none" rx="11" ry="11" style="stroke:#222222;stroke-width:1.0;"/><ellipse cx="55" cy="443.6094" fill="#222222" rx="6" ry="6" style="stroke:#222222;stroke-width:1.0;"/><!--link *start*buscarConvocatoria to MostrandoLista--><g id="link_*start*buscarConvocatoria_MostrandoLista"><path d="M55,65.9294 C55,81.7894 55,108.5194 55,131.2494 " fill="none" id="*start*buscarConvocatoria-to-MostrandoLista" style="stroke:#008000;stroke-width:1.0;"/><polygon fill="#008000" points="55,137.2494,59,128.2494,55,132.2494,51,128.2494,55,137.2494" style="stroke:#008000;stroke-width:1.0;"/><path d="M60,88.6094 L60,114.6094 L331,114.6094 L331,98.6094 L321,88.6094 L60,88.6094 " fill="#FEFFDD" style="stroke:#181818;stroke-width:0.5;"/><path d="M321,88.6094 L321,98.6094 L331,98.6094 L321,88.6094 " fill="#FEFFDD" style="stroke:#181818;stroke-width:0.5;"/><text fill="#000000" font-family="sans-serif" font-size="13" font-weight="bold" lengthAdjust="spacing" textLength="79" x="66" y="107.1045">Coordinador</text><text fill="#000000" font-family="sans-serif" font-size="13" lengthAdjust="spacing" textLength="167" x="149" y="107.1045">solicita buscar convocatorias</text></g><!--link MostrandoLista to FiltrandoLista--><g id="link_MostrandoLista_FiltrandoLista"><path d="M55,187.9694 C55,220.3794 55,271.3294 55,303.5694 " fill="none" id="MostrandoLista-to-FiltrandoLista" style="stroke:#008000;stroke-width:1.0;"/><polygon fill="#008000" points="55,309.5694,59,300.5694,55,304.5694,51,300.5694,55,309.5694" style="stroke:#008000;stroke-width:1.0;"/><path d="M60,210.6094 L60,285.6094 L389,285.6094 L389,220.6094 L379,210.6094 L60,210.6094 " fill="#FEFFDD" style="stroke:#181818;stroke-width:0.5;"/><path d="M379,210.6094 L379,220.6094 L389,220.6094 L379,210.6094 " fill="#FEFFDD" style="stroke:#181818;stroke-width:0.5;"/><text fill="#000000" font-family="sans-serif" font-size="13" font-weight="bold" lengthAdjust="spacing" textLength="51" x="66" y="229.1045">Sistema</text><text fill="#000000" font-family="sans-serif" font-size="13" lengthAdjust="spacing" textLength="179" x="121" y="229.1045">presenta lista de convocatorias</text><text fill="#000000" font-family="sans-serif" font-size="13" lengthAdjust="spacing" textLength="186" x="66" y="245.4561">&#8226; Permite solicitar filtrar / buscar</text><text fill="#000000" font-family="sans-serif" font-size="13" lengthAdjust="spacing" textLength="225" x="66" y="261.8076">&#8226; Permite seleccionar una convocatoria</text><text fill="#000000" font-family="sans-serif" font-size="13" lengthAdjust="spacing" textLength="308" x="66" y="278.1592">&#8226; Permite solicitar analizar convocatoria seleccionada</text></g><!--link FiltrandoLista to FiltrandoLista--><g id="link_FiltrandoLista_FiltrandoLista"><path d="M80.18,323.0294 C89.91,322.5194 98,326.3794 98,334.6094 C98,342.8394 95.9018,347.0134 86.1718,346.5034 " fill="none" id="FiltrandoLista-to-FiltrandoLista" style="stroke:#008000;stroke-width:1.0;"/><polygon fill="#008000" points="80.18,346.1894,88.9583,350.655,85.1731,346.4511,89.377,342.6659,80.18,346.1894" style="stroke:#008000;stroke-width:1.0;"/><path d="M103,313.6094 L103,355.6094 L400,355.6094 L400,323.6094 L390,313.6094 L103,313.6094 " fill="#FEFFDD" style="stroke:#181818;stroke-width:0.5;"/><path d="M390,313.6094 L390,323.6094 L400,323.6094 L390,313.6094 " fill="#FEFFDD" style="stroke:#181818;stroke-width:0.5;"/><text fill="#000000" font-family="sans-serif" font-size="13" font-weight="bold" lengthAdjust="spacing" textLength="79" x="109" y="332.1045">Coordinador</text><text fill="#000000" font-family="sans-serif" font-size="13" lengthAdjust="spacing" textLength="116" x="192" y="332.1045">solicita filtrar/buscar</text><text fill="#000000" font-family="sans-serif" font-size="13" font-weight="bold" lengthAdjust="spacing" textLength="51" x="109" y="348.4561">Sistema</text><text fill="#000000" font-family="sans-serif" font-size="13" lengthAdjust="spacing" textLength="221" x="164" y="348.4561">presenta lista filtrada de convocatorias</text></g><!--link FiltrandoLista to *end*buscarConvocatoria--><g id="link_FiltrandoLista_*end*buscarConvocatoria"><path d="M55,359.6194 C55,382.5394 55,409.9694 55,426.5294 " fill="none" id="FiltrandoLista-to-*end*buscarConvocatoria" style="stroke:#008000;stroke-width:1.0;"/><polygon fill="#008000" points="55,432.5294,59,423.5294,55,427.5294,51,423.5294,55,432.5294" style="stroke:#008000;stroke-width:1.0;"/><path d="M60,383.6094 L60,409.6094 L327,409.6094 L327,393.6094 L317,383.6094 L60,383.6094 " fill="#FEFFDD" style="stroke:#181818;stroke-width:0.5;"/><path d="M317,383.6094 L317,393.6094 L327,393.6094 L317,383.6094 " fill="#FEFFDD" style="stroke:#181818;stroke-width:0.5;"/><text fill="#000000" font-family="sans-serif" font-size="13" font-weight="bold" lengthAdjust="spacing" textLength="79" x="66" y="402.1045">Coordinador</text><text fill="#000000" font-family="sans-serif" font-size="13" lengthAdjust="spacing" textLength="163" x="149" y="402.1045">selecciona una convocatoria</text></g><g id="CONVOCATORIAS_ABIERTAS"><rect fill="#F1F1F1" height="50" rx="12.5" ry="12.5" style="stroke:#181818;stroke-width:0.5;" width="215" x="7" y="561"/><line style="stroke:#181818;stroke-width:0.5;" x1="7" x2="222" y1="588.6094" y2="588.6094"/><text fill="#000000" font-family="sans-serif" font-size="14" lengthAdjust="spacing" textLength="195" x="17" y="580.5332">CONVOCATORIAS_ABIERTAS</text></g><g id="PERFIL"><rect fill="#F1F1F1" height="50" rx="12.5" ry="12.5" style="stroke:#181818;stroke-width:0.5;" width="68" x="278.5" y="561"/><line style="stroke:#181818;stroke-width:0.5;" x1="278.5" x2="346.5" y1="588.6094" y2="588.6094"/><text fill="#000000" font-family="sans-serif" font-size="14" lengthAdjust="spacing" textLength="48" x="288.5" y="580.5332">PERFIL</text></g><!--link buscarConvocatoria to CONVOCATORIAS_ABIERTAS--><g id="link_buscarConvocatoria_CONVOCATORIAS_ABIERTAS"><path d="M123.3,465.15 C116.08,483.41 111.5,495 111.5,495 C111.5,495 111.5,531 111.5,531 C111.5,531 112.0265,540.4793 112.8265,554.8493 " fill="none" id="buscarConvocatoria-to-CONVOCATORIAS_ABIERTAS" style="stroke:#008000;stroke-width:1.0;"/><polygon fill="#008000" points="113.16,560.84,116.6535,551.6316,112.8821,555.8477,108.6659,552.0763,113.16,560.84" style="stroke:#008000;stroke-width:1.0;"/><path d="M116.5,500 L116.5,526 L264.5,526 L264.5,510 L254.5,500 L116.5,500 " fill="#FEFFDD" style="stroke:#181818;stroke-width:0.5;"/><path d="M254.5,500 L254.5,510 L264.5,510 L254.5,500 " fill="#FEFFDD" style="stroke:#181818;stroke-width:0.5;"/><text fill="#000000" font-family="sans-serif" font-size="13" lengthAdjust="spacing" textLength="127" x="122.5" y="518.4951">analizarConvocatoria()</text></g><!--link buscarConvocatoria to PERFIL--><g id="link_buscarConvocatoria_PERFIL"><path d="M278.43,465.24 C289.44,503.93 297.6683,532.869 303.9183,554.839 " fill="none" id="buscarConvocatoria-to-PERFIL" style="stroke:#008000;stroke-width:1.0;"/><polygon fill="#008000" points="305.56,560.61,306.9447,550.859,304.1919,555.8008,299.2501,553.048,305.56,560.61" style="stroke:#008000;stroke-width:1.0;"/><path d="M300.5,500 L300.5,526 L383.5,526 L383.5,510 L373.5,500 L300.5,500 " fill="#FEFFDD" style="stroke:#181818;stroke-width:0.5;"/><path d="M373.5,500 L373.5,510 L383.5,510 L373.5,500 " fill="#FEFFDD" style="stroke:#181818;stroke-width:0.5;"/><text fill="#000000" font-family="sans-serif" font-size="13" lengthAdjust="spacing" textLength="62" x="306.5" y="518.4951">abrirPerfil()</text></g><!--SRC=[dLFRQW8n47tFLmpsfIs8Fo32Tb4GR1MLleYKsKrQWZ6pJDQ2BOL-Ip-jNz8OBzrTLojDdZANSywS96wXROQCIp3QgdoTASZ8h3S78LoEkO9avLBacEmhfPWJQmHqq3WENzyqu5q8y6lRsV3RbzwJoncjf87syUDyJvjYFXJCRkVGd5szi59stkpKOLZo46GtmXSXq4uwCH5BRL4Ijrj91nmPdUeSTqD0Mf3hGfEoCY1jQSiq9GKLbQSKJ7nMBJ6mPwoSiXx713IfQlY_FxzWf7YfFTHUBSDp86DexOGVbogZqbIJzKKhYoNWCxXeqUYtYX45C8arffGd_uyf9wzbDsUhCELv3xSDyeIP5-lsp-joiGTtwfq-a7u8KVDNYhJnyE5n64VJuRWVJPwYktvtF8qcegHYVqNbdoL-H_k3OzGTz_g32cR2clrhyEuLeNu0]--></g></svg>