<svg xmlns="http://www.w3.org/2000/svg" xmlns:xlink="http://www.w3.org/1999/xlink" contentStyleType="text/css" data-diagram-type="STATE" height="650px" preserveAspectRatio="none" style="width:678px;height:650px;background:#FFFFFF;" version="1.1" viewBox="0 0 678 650" width="678px" zoomAndPan="magnify"><defs/><g><path d="M19.5,7 L652.5,7 A12.5,12.5 0 0 1 665,19.5 L665,33.2969 L7,33.2969 L7,19.5 A12.5,12.5 0 0 1 19.5,7" fill="#F1F1F1"/><rect fill="none" height="492.2969" rx="12.5" ry="12.5" style="stroke:#181818;stroke-width:0.5;" width="658" x="7" y="7"/><line style="stroke:#181818;stroke-width:0.5;" x1="7" x2="665" y1="33.2969" y2="33.2969"/><text fill="#000000" font-family="sans-serif" font-size="14" lengthAdjust="spacing" textLength="126.6084" x="272.6958" y="24.9951">crearPublicacion()</text><g id="crearPublicacion.RellenandoPublicacion"><rect fill="#F1F1F1" height="50" rx="12.5" ry="12.5" style="stroke:#181818;stroke-width:0.5;" width="50" x="187" y="135.2969"/><line style="stroke:#181818;stroke-width:0.5;" x1="187" x2="237" y1="161.5938" y2="161.5938"/><text fill="#000000" font-family="sans-serif" font-size="14" lengthAdjust="spacing" textLength="4.4502" x="209.7749" y="153.292">&#160;</text></g><g id="crearPublicacion.ValidandoDatos"><rect fill="#F1F1F1" height="50" rx="12.5" ry="12.5" style="stroke:#181818;stroke-width:0.5;" width="50" x="187" y="301.2969"/><line style="stroke:#181818;stroke-width:0.5;" x1="187" x2="237" y1="327.5938" y2="327.5938"/><text fill="#000000" font-family="sans-serif" font-size="14" lengthAdjust="spacing" textLength="4.4502" x="209.7749" y="319.292">&#160;</text></g><ellipse cx="212" cy="54.2969" fill="#222222" rx="10" ry="10" style="stroke:#222222;stroke-width:1;"/><ellipse cx="212" cy="478.2969" fill="none" rx="11" ry="11" style="stroke:#222222;stroke-width:1;"/><ellipse cx="212" cy="478.2969" fill="#222222" rx="6" ry="6" style="stroke:#222222;stroke-width:1;"/><!--link *start*crearPublicacion to RellenandoPublicacion--><g class="link" data-entity-1=".start.crearPublicacion" data-entity-2="RellenandoPublicacion" data-source-line="8" data-uid="lnk3" id="link_.start.crearPublicacion_RellenandoPublicacion"><path d="M212,64.5269 C212,80.2369 212,106.6569 212,129.1669" fill="none" id="*start*crearPublicacion-to-RellenandoPublicacion" style="stroke:#008000;stroke-width:1;"/><polygon fill="#008000" points="212,135.1669,216,126.1669,212,130.1669,208,126.1669,212,135.1669" style="stroke:#008000;stroke-width:1;"/><path d="M217,87.2969 L217,112.2969 L569,112.2969 L569,97.2969 L559,87.2969 L217,87.2969" fill="#FEFFDD" style="stroke:#181818;stroke-width:0.5;"/><path d="M559,87.2969 L559,97.2969 L569,97.2969 L559,87.2969" fill="#FEFFDD" style="stroke:#181818;stroke-width:0.5;"/><text fill="#000000" font-family="sans-serif" font-size="13" font-weight="bold" lengthAdjust="spacing" textLength="92.5171" x="223" y="104.3638">Investigador</text><text fill="#000000" font-family="sans-serif" font-size="13" lengthAdjust="spacing" textLength="234.7173" x="319.6494" y="104.3638">solicita crear una nueva publicacion</text></g><!--link RellenandoPublicacion to ValidandoDatos--><g class="link" data-entity-1="RellenandoPublicacion" data-entity-2="ValidandoDatos" data-source-line="13" data-uid="lnk4" id="link_RellenandoPublicacion_ValidandoDatos"><path d="M186.64,166.7869 C134.05,178.1769 18,203.2969 18,203.2969 C18,203.2969 18,283.2969 18,283.2969 C18,283.2969 128.186,307.1468 180.776,318.5368" fill="none" id="RellenandoPublicacion-to-ValidandoDatos" style="stroke:#008000;stroke-width:1;"/><polygon fill="#008000" points="186.64,319.8069,178.6906,313.9925,181.7533,318.7485,176.9972,321.8112,186.64,319.8069" style="stroke:#008000;stroke-width:1;"/><path d="M23,223.2969 L23,263.2969 L380,263.2969 L380,233.2969 L370,223.2969 L23,223.2969" fill="#FEFFDD" style="stroke:#181818;stroke-width:0.5;"/><path d="M370,223.2969 L370,233.2969 L380,233.2969 L370,223.2969" fill="#FEFFDD" style="stroke:#181818;stroke-width:0.5;"/><text fill="#000000" font-family="sans-serif" font-size="13" font-weight="bold" lengthAdjust="spacing" textLength="92.5171" x="29" y="240.3638">Investigador</text><text fill="#000000" font-family="sans-serif" font-size="13" lengthAdjust="spacing" textLength="239.4146" x="125.6494" y="240.3638">solicita guardar la publicacion nueva</text><text fill="#000000" font-family="sans-serif" font-size="13" font-weight="bold" lengthAdjust="spacing" textLength="58.9063" x="29" y="255.4966">Sistema</text><text fill="#000000" font-family="sans-serif" font-size="13" lengthAdjust="spacing" textLength="186.3545" x="92.0386" y="255.4966">valida los datos introducidos</text></g><!--link ValidandoDatos to RellenandoPublicacion--><g class="link" data-entity-1="ValidandoDatos" data-entity-2="RellenandoPublicacion" data-source-line="19" data-uid="lnk5" id="link_ValidandoDatos_RellenandoPublicacion"><path d="M237.16,319.1869 C285.14,307.5369 385,283.2969 385,283.2969 C385,283.2969 385,203.2969 385,203.2969 C385,203.2969 290.9706,180.4726 242.9906,168.8226" fill="none" id="ValidandoDatos-to-RellenandoPublicacion" style="stroke:#FF0000;stroke-width:1;"/><polygon fill="#FF0000" points="237.16,167.4069,244.9621,173.4175,242.0188,168.5866,246.8497,165.6434,237.16,167.4069" style="stroke:#FF0000;stroke-width:1;"/><path d="M390,208.2969 L390,278.2969 L656,278.2969 L656,218.2969 L646,208.2969 L390,208.2969" fill="#FEFFDD" style="stroke:#181818;stroke-width:0.5;"/><path d="M646,208.2969 L646,218.2969 L656,218.2969 L646,208.2969" fill="#FEFFDD" style="stroke:#181818;stroke-width:0.5;"/><text fill="#000000" font-family="sans-serif" font-size="13" lengthAdjust="spacing" textLength="206.667" x="396" y="225.3638">Datos de publicacion no v&#225;lidos</text><text fill="#000000" font-family="sans-serif" font-size="13" font-weight="bold" lengthAdjust="spacing" textLength="58.9063" x="396" y="240.4966">Sistema</text><text fill="#000000" font-family="sans-serif" font-size="13" lengthAdjust="spacing" textLength="176.7378" x="459.0386" y="240.4966">muestra mensajes de error</text><text fill="#000000" font-family="sans-serif" font-size="13" lengthAdjust="spacing" textLength="190.2773" x="396" y="255.6294">&#8226; Campos obligatorios vac&#237;os</text><text fill="#000000" font-family="sans-serif" font-size="13" lengthAdjust="spacing" textLength="245.1528" x="396" y="270.7622">&#8226; Formato incorrecto en alg&#250;n campo</text></g><!--link ValidandoDatos to *end*crearPublicacion--><g class="link" data-entity-1="ValidandoDatos" data-entity-2=".end.crearPublicacion" data-source-line="27" data-uid="lnk7" id="link_ValidandoDatos_.end.crearPublicacion"><path d="M212,351.3969 C212,384.6869 212,437.3169 212,460.9669" fill="none" id="ValidandoDatos-to-*end*crearPublicacion" style="stroke:#008000;stroke-width:1;"/><polygon fill="#008000" points="212,466.9669,216,457.9669,212,461.9669,208,457.9669,212,466.9669" style="stroke:#008000;stroke-width:1;"/><path d="M217,374.2969 L217,444.2969 L429,444.2969 L429,384.2969 L419,374.2969 L217,374.2969" fill="#FEFFDD" style="stroke:#181818;stroke-width:0.5;"/><path d="M419,374.2969 L419,384.2969 L429,384.2969 L419,374.2969" fill="#FEFFDD" style="stroke:#181818;stroke-width:0.5;"/><text fill="#000000" font-family="sans-serif" font-size="13" lengthAdjust="spacing" textLength="186.3418" x="223" y="391.3638">Datos de publicacion v&#225;lidos</text><text fill="#000000" font-family="sans-serif" font-size="13" font-weight="bold" lengthAdjust="spacing" textLength="58.9063" x="223" y="406.4966">Sistema</text><text fill="#000000" font-family="sans-serif" font-size="13" lengthAdjust="spacing" textLength="122.332" x="286.0386" y="406.4966">crea la publicacion</text><text fill="#000000" font-family="sans-serif" font-size="13" lengthAdjust="spacing" textLength="181.7397" x="223" y="421.6294">&#8226; Guarda t&#237;tulo, Descripci&#243;n</text><text fill="#000000" font-family="sans-serif" font-size="13" lengthAdjust="spacing" textLength="191.3945" x="223" y="436.7622">&#8226; Muestra publicacion creado</text></g><g id="MIS_PUBLICACIONES_ABIERTAS"><rect fill="#F1F1F1" height="50" rx="12.5" ry="12.5" style="stroke:#181818;stroke-width:0.5;" width="240.6982" x="93.5" y="594"/><line style="stroke:#181818;stroke-width:0.5;" x1="93.5" x2="334.1982" y1="620.2969" y2="620.2969"/><text fill="#000000" font-family="sans-serif" font-size="14" lengthAdjust="spacing" textLength="220.6982" x="103.5" y="611.9951">MIS_PUBLICACIONES_ABIERTAS</text></g><g id="MI_PUBLICACION_ABIERTA"><rect fill="#F1F1F1" height="50" rx="12.5" ry="12.5" style="stroke:#181818;stroke-width:0.5;" width="205.1924" x="454.5" y="594"/><line style="stroke:#181818;stroke-width:0.5;" x1="454.5" x2="659.6924" y1="620.2969" y2="620.2969"/><text fill="#000000" font-family="sans-serif" font-size="14" lengthAdjust="spacing" textLength="185.1924" x="464.5" y="611.9951">MI_PUBLICACION_ABIERTA</text></g><!--link crearPublicacion to MIS_PUBLICACIONES_ABIERTAS--><g class="link" data-entity-1="crearPublicacion" data-entity-2="MIS_PUBLICACIONES_ABIERTAS" data-source-line="36" data-uid="lnk9" id="link_crearPublicacion_MIS_PUBLICACIONES_ABIERTAS"><path d="M148.87,499.05 C134.83,517.43 126,529 126,529 C126,529 126,564 126,564 C126,564 146.0853,576.3331 169.5153,590.7031" fill="none" id="crearPublicacion-to-MIS_PUBLICACIONES_ABIERTAS" style="stroke:#008000;stroke-width:1;"/><polygon fill="#008000" points="174.63,593.84,169.0493,585.7249,170.3678,591.2259,164.8667,592.5444,174.63,593.84" style="stroke:#008000;stroke-width:1;"/><path d="M131,534 L131,559 L288,559 L288,544 L278,534 L131,534" fill="#FEFFDD" style="stroke:#181818;stroke-width:0.5;"/><path d="M278,534 L278,544 L288,544 L278,534" fill="#FEFFDD" style="stroke:#181818;stroke-width:0.5;"/><text fill="#000000" font-family="sans-serif" font-size="13" lengthAdjust="spacing" textLength="136.811" x="137" y="551.0669">eliminarPublicacion()</text></g><!--link crearPublicacion to MIS_PUBLICACIONES_ABIERTAS--><g class="link" data-entity-1="crearPublicacion" data-entity-2="MIS_PUBLICACIONES_ABIERTAS" data-source-line="41" data-uid="lnk10" id="link_crearPublicacion_MIS_PUBLICACIONES_ABIERTAS"><path d="M305.18,499.01 C300.39,537.04 297,564 297,564 C297,564 278.2601,576.1993 256.1601,590.5693" fill="none" id="crearPublicacion-to-MIS_PUBLICACIONES_ABIERTAS-1" style="stroke:#008000;stroke-width:1;"/><polygon fill="#008000" points="251.13,593.84,260.8557,592.2873,255.3218,591.1144,256.4947,585.5805,251.13,593.84" style="stroke:#008000;stroke-width:1;"/><path d="M306,534 L306,559 L477,559 L477,544 L467,534 L306,534" fill="#FEFFDD" style="stroke:#181818;stroke-width:0.5;"/><path d="M467,534 L467,544 L477,544 L467,534" fill="#FEFFDD" style="stroke:#181818;stroke-width:0.5;"/><text fill="#000000" font-family="sans-serif" font-size="13" lengthAdjust="spacing" textLength="150.6553" x="312" y="551.0669">abrirMisPublicaciones()</text></g><!--link crearPublicacion to MI_PUBLICACION_ABIERTA--><g class="link" data-entity-1="crearPublicacion" data-entity-2="MI_PUBLICACION_ABIERTA" data-source-line="46" data-uid="lnk12" id="link_crearPublicacion_MI_PUBLICACION_ABIERTA"><path d="M484.79,499.06 C508.33,537.83 526.1053,567.1218 539.2853,588.8218" fill="none" id="crearPublicacion-to-MI_PUBLICACION_ABIERTA" style="stroke:#008000;stroke-width:1;"/><polygon fill="#008000" points="542.4,593.95,541.1467,584.1812,539.8044,589.6765,534.3091,588.3342,542.4,593.95" style="stroke:#008000;stroke-width:1;"/><path d="M524,534 L524,559 L667,559 L667,544 L657,534 L524,534" fill="#FEFFDD" style="stroke:#181818;stroke-width:0.5;"/><path d="M657,534 L657,544 L667,544 L657,534" fill="#FEFFDD" style="stroke:#181818;stroke-width:0.5;"/><text fill="#000000" font-family="sans-serif" font-size="13" lengthAdjust="spacing" textLength="122.0337" x="530" y="551.0669">editarPublicacion()</text></g><!--SRC=[hPDBQjn048RtEaKntiGX9XSm0-Fn0q4cCPua6sDCJNSXEcvrY-gMm0I3h-BilSekMzqa9qb96eyb-O478ctKhQh___v-X2lZ2cJCmHf7yReWABozRWP94Y960iM4V5gkh56eZ7U00IRZoNUx4_YP921FrpMHLmhFo5fowBJl5Jyj-uxMwARg4ACFdSxv-mlOEz_9cCXTx4rVaN9Ub0HCgA_QYVtLD7KLXMWor9xtFwwc4Bpqc8XT7YWTWYkfGYX6QkHqgzXHFEiwu1gnRm-KbSXQaEo0fQDxw5wQ42d7jh5g3S7w0Bgn1ECYUrqgezV-mmX3m8QTIM-vebshfY6XXwg-inlR4MTUIc16oCa5_45jEp5xRel_tlw2EUQ5o7gHpCI0ZGmgLFNzMh2fEVQSopy9gJmpAVaaEOCsg_yuK8t0co9ljakErHOHNylN7AJHfcseJzezXLZVnzBw3t18GR4fbAb_FnOjrWlKDsn4zIZIJP8ykOJzI8jqUNdwxU1JEf_Dqo-VZvQNiuFqwEphR9aCKf8rkN6ZUviyhjn_CS4L6rwOqDEXi8rDt-N1OvH3oxLv8SK_]--></g></svg>