<svg xmlns="http://www.w3.org/2000/svg" xmlns:xlink="http://www.w3.org/1999/xlink" contentStyleType="text/css" data-diagram-type="STATE" height="635px" preserveAspectRatio="none" style="width:715px;height:635px;background:#FFFFFF;" version="1.1" viewBox="0 0 715 635" width="715px" zoomAndPan="magnify"><defs/><g><path d="M19.5,7 L689.5,7 A12.5,12.5 0 0 1 702,19.5 L702,33.2969 L7,33.2969 L7,19.5 A12.5,12.5 0 0 1 19.5,7" fill="#F1F1F1"/><rect fill="none" height="477.2969" rx="12.5" ry="12.5" style="stroke:#181818;stroke-width:0.5;" width="695" x="7" y="7"/><line style="stroke:#181818;stroke-width:0.5;" x1="7" x2="702" y1="33.2969" y2="33.2969"/><text fill="#000000" font-family="sans-serif" font-size="14" lengthAdjust="spacing" textLength="137.8125" x="285.5938" y="24.9951">crearRecompensa()</text><g><rect fill="#F1F1F1" height="50" rx="12.5" ry="12.5" style="stroke:#181818;stroke-width:0.5;" width="50" x="192" y="135.2969"/><line style="stroke:#181818;stroke-width:0.5;" x1="192" x2="242" y1="161.5938" y2="161.5938"/><text fill="#000000" font-family="sans-serif" font-size="14" lengthAdjust="spacing" textLength="4.4502" x="214.7749" y="153.292">&#160;</text></g><g><rect fill="#F1F1F1" height="50" rx="12.5" ry="12.5" style="stroke:#181818;stroke-width:0.5;" width="50" x="19" y="331.2969"/><line style="stroke:#181818;stroke-width:0.5;" x1="19" x2="69" y1="357.5938" y2="357.5938"/><text fill="#000000" font-family="sans-serif" font-size="14" lengthAdjust="spacing" textLength="4.4502" x="41.7749" y="349.292">&#160;</text></g><ellipse cx="217" cy="54.2969" fill="#222222" rx="10" ry="10" style="stroke:#222222;stroke-width:1;"/><ellipse cx="223" cy="463.2969" fill="none" rx="11" ry="11" style="stroke:#222222;stroke-width:1;"/><ellipse cx="223" cy="463.2969" fill="#222222" rx="6" ry="6" style="stroke:#222222;stroke-width:1;"/><!--link *start*crearRecompensa to IntroduciendoDatos--><g class="link" data-entity-1="ent0002" data-entity-2="ent0003" data-link-type="dependency" data-source-line="8" id="lnk3"><path d="M217,64.5269 C217,80.2369 217,106.6569 217,129.1669" fill="none" id="*start*crearRecompensa-to-IntroduciendoDatos" style="stroke:#008000;stroke-width:1;"/><polygon fill="#008000" points="217,135.1669,221,126.1669,217,130.1669,213,126.1669,217,135.1669" style="stroke:#008000;stroke-width:1;"/><path d="M222,87.2969 L222,112.2969 L505,112.2969 L505,97.2969 L495,87.2969 L222,87.2969" fill="#FEFFDD" style="stroke:#181818;stroke-width:0.5;"/><path d="M495,87.2969 L495,97.2969 L505,97.2969 L495,87.2969" fill="#FEFFDD" style="stroke:#181818;stroke-width:0.5;"/><text fill="#000000" font-family="sans-serif" font-size="13" font-weight="bold" lengthAdjust="spacing" textLength="90.251" x="228" y="104.3638">Coordinador</text><text fill="#000000" font-family="sans-serif" font-size="13" lengthAdjust="spacing" textLength="168.1748" x="322.3833" y="104.3638">solicita crear recompensa</text></g><!--link IntroduciendoDatos to RecompensaCreada--><g class="link" data-entity-1="ent0003" data-entity-2="ent0004" data-link-type="dependency" data-source-line="13" id="lnk4"><path d="M191.87,167.2269 C142.81,178.8069 39,203.2969 39,203.2969 C39,203.2969 39,313.2969 39,313.2969 C39,313.2969 39.2807,315.6689 40.3807,324.9089" fill="none" id="IntroduciendoDatos-to-RecompensaCreada" style="stroke:#008000;stroke-width:1;"/><polygon fill="#008000" points="41.09,330.8669,43.998,321.4571,40.4989,325.9019,36.0541,322.4028,41.09,330.8669" style="stroke:#008000;stroke-width:1;"/><path d="M44,208.2969 L44,308.2969 L378,308.2969 L378,218.2969 L368,208.2969 L44,208.2969" fill="#FEFFDD" style="stroke:#181818;stroke-width:0.5;"/><path d="M368,208.2969 L368,218.2969 L378,218.2969 L368,208.2969" fill="#FEFFDD" style="stroke:#181818;stroke-width:0.5;"/><text fill="#000000" font-family="sans-serif" font-size="13" font-weight="bold" lengthAdjust="spacing" textLength="58.9063" x="50" y="225.3638">Sistema</text><text fill="#000000" font-family="sans-serif" font-size="13" lengthAdjust="spacing" textLength="233.9175" x="113.0386" y="225.3638">presenta formulario de recompensa</text><text fill="#000000" font-family="sans-serif" font-size="13" font-weight="bold" lengthAdjust="spacing" textLength="58.9063" x="50" y="240.4966">Sistema</text><text fill="#000000" font-family="sans-serif" font-size="13" lengthAdjust="spacing" textLength="158.1138" x="113.0386" y="240.4966">permite introducir datos</text><text fill="#000000" font-family="sans-serif" font-size="13" lengthAdjust="spacing" textLength="39.5586" x="50" y="255.6294">&#8226; Tipo</text><text fill="#000000" font-family="sans-serif" font-size="13" lengthAdjust="spacing" textLength="70.2622" x="50" y="270.7622">&#8226; Cantidad</text><text fill="#000000" font-family="sans-serif" font-size="13" font-weight="bold" lengthAdjust="spacing" textLength="90.251" x="50" y="285.895">Coordinador</text><text fill="#000000" font-family="sans-serif" font-size="13" lengthAdjust="spacing" textLength="219.2861" x="144.3833" y="285.895">introduce datos y solicita guardar</text><text fill="#000000" font-family="sans-serif" font-size="13" font-weight="bold" lengthAdjust="spacing" textLength="58.9063" x="50" y="301.0278">Sistema</text><text fill="#000000" font-family="sans-serif" font-size="13" lengthAdjust="spacing" textLength="248.479" x="113.0386" y="301.0278">presenta el registro de la recompensa</text></g><!--link IntroduciendoDatos to *end*crearRecompensa--><g class="link" data-entity-1="ent0003" data-entity-2="ent0005" data-link-type="dependency" data-source-line="23" id="lnk6"><path d="M242.21,167.6769 C288.65,179.4269 383,203.2969 383,203.2969 C383,203.2969 383,434.2969 383,434.2969 C383,434.2969 276.0601,453.012 239.9101,459.342" fill="none" id="IntroduciendoDatos-to-*end*crearRecompensa" style="stroke:#FF0000;stroke-width:1;"/><polygon fill="#FF0000" points="234,460.3769,243.555,462.7646,238.9251,459.5145,242.1752,454.8845,234,460.3769" style="stroke:#FF0000;stroke-width:1;"/><path d="M388,343.7969 L388,368.7969 L693,368.7969 L693,353.7969 L683,343.7969 L388,343.7969" fill="#FEFFDD" style="stroke:#181818;stroke-width:0.5;"/><path d="M683,343.7969 L683,353.7969 L693,353.7969 L683,343.7969" fill="#FEFFDD" style="stroke:#181818;stroke-width:0.5;"/><text fill="#000000" font-family="sans-serif" font-size="13" font-weight="bold" lengthAdjust="spacing" textLength="90.251" x="394" y="360.8638">Coordinador</text><text fill="#000000" font-family="sans-serif" font-size="13" lengthAdjust="spacing" textLength="189.6362" x="488.3833" y="360.8638">solicita cancelar la operaci&#243;n</text></g><!--link RecompensaCreada to *end*crearRecompensa--><g class="link" data-entity-1="ent0004" data-entity-2="ent0005" data-link-type="dependency" data-source-line="28" id="lnk7"><path d="M50.01,381.6569 C55.58,404.2169 63,434.2969 63,434.2969 C63,434.2969 169.9399,453.012 206.0899,459.342" fill="none" id="RecompensaCreada-to-*end*crearRecompensa" style="stroke:#008000;stroke-width:1;"/><polygon fill="#008000" points="212,460.3769,203.8248,454.8845,207.0749,459.5145,202.445,462.7646,212,460.3769" style="stroke:#008000;stroke-width:1;"/><path d="M68,404.2969 L68,429.2969 L378,429.2969 L378,414.2969 L368,404.2969 L68,404.2969" fill="#FEFFDD" style="stroke:#181818;stroke-width:0.5;"/><path d="M368,404.2969 L368,414.2969 L378,414.2969 L368,404.2969" fill="#FEFFDD" style="stroke:#181818;stroke-width:0.5;"/><text fill="#000000" font-family="sans-serif" font-size="13" font-weight="bold" lengthAdjust="spacing" textLength="58.9063" x="74" y="421.3638">Sistema</text><text fill="#000000" font-family="sans-serif" font-size="13" lengthAdjust="spacing" textLength="226.1797" x="137.0386" y="421.3638">presenta confirmaci&#243;n de creaci&#243;n</text></g><g><rect fill="#F1F1F1" height="50" rx="12.5" ry="12.5" style="stroke:#181818;stroke-width:0.5;" width="202.458" x="147.27" y="579.3"/><line style="stroke:#181818;stroke-width:0.5;" x1="147.27" x2="349.728" y1="605.5969" y2="605.5969"/><text fill="#000000" font-family="sans-serif" font-size="14" lengthAdjust="spacing" textLength="182.458" x="157.27" y="597.2951">RECOMPENSAS_ABIERTAS</text></g><g><rect fill="#F1F1F1" height="50" rx="12.5" ry="12.5" style="stroke:#181818;stroke-width:0.5;" width="184.6846" x="480.16" y="579.3"/><line style="stroke:#181818;stroke-width:0.5;" x1="480.16" x2="664.8446" y1="605.5969" y2="605.5969"/><text fill="#000000" font-family="sans-serif" font-size="14" lengthAdjust="spacing" textLength="164.6846" x="490.16" y="597.2951">RECOMPENSA_ABIERTA</text></g><!--link crearRecompensa to RECOMPENSAS_ABIERTAS--><g class="link" data-entity-1="ent0002" data-entity-2="ent0008" data-link-type="dependency" data-source-line="34" id="lnk9"><path d="M172.22,484.63 C158.29,502.83 149.5,514.3 149.5,514.3 C149.5,514.3 149.5,549.3 149.5,549.3 C149.5,549.3 172.173,561.6662 198.363,575.9562" fill="none" id="crearRecompensa-to-RECOMPENSAS_ABIERTAS" style="stroke:#008000;stroke-width:1;"/><polygon fill="#008000" points="203.63,578.83,197.6454,571.0079,199.2408,576.4352,193.8136,578.0306,203.63,578.83" style="stroke:#008000;stroke-width:1;"/><path d="M154.5,519.3 L154.5,544.3 L306.5,544.3 L306.5,529.3 L296.5,519.3 L154.5,519.3" fill="#FEFFDD" style="stroke:#181818;stroke-width:0.5;"/><path d="M296.5,519.3 L296.5,529.3 L306.5,529.3 L296.5,519.3" fill="#FEFFDD" style="stroke:#181818;stroke-width:0.5;"/><text fill="#000000" font-family="sans-serif" font-size="13" lengthAdjust="spacing" textLength="131.46" x="160.5" y="536.3669">abrirRecompensas()</text></g><!--link crearRecompensa to RECOMPENSAS_ABIERTAS--><g class="link" data-entity-1="ent0002" data-entity-2="ent0008" data-link-type="dependency" data-source-line="39" id="lnk10"><path d="M323.82,484.75 C318.96,522.45 315.5,549.3 315.5,549.3 C315.5,549.3 301.2616,560.7748 283.5316,575.0648" fill="none" id="crearRecompensa-to-RECOMPENSAS_ABIERTAS-1" style="stroke:#008000;stroke-width:1;"/><polygon fill="#008000" points="278.86,578.83,288.3775,576.2966,282.753,575.6924,283.3572,570.0679,278.86,578.83" style="stroke:#008000;stroke-width:1;"/><path d="M325.5,519.3 L325.5,544.3 L493.5,544.3 L493.5,529.3 L483.5,519.3 L325.5,519.3" fill="#FEFFDD" style="stroke:#181818;stroke-width:0.5;"/><path d="M483.5,519.3 L483.5,529.3 L493.5,529.3 L483.5,519.3" fill="#FEFFDD" style="stroke:#181818;stroke-width:0.5;"/><text fill="#000000" font-family="sans-serif" font-size="13" lengthAdjust="spacing" textLength="147.2148" x="331.5" y="536.3669">eliminarRecompensa()</text></g><!--link crearRecompensa to RECOMPENSA_ABIERTA--><g class="link" data-entity-1="ent0002" data-entity-2="ent0011" data-link-type="dependency" data-source-line="45" id="lnk12"><path d="M499.91,484.54 C523.5,523.13 541.3802,552.391 554.6602,574.111" fill="none" id="crearRecompensa-to-RECOMPENSA_ABIERTA" style="stroke:#008000;stroke-width:1;"/><polygon fill="#008000" points="557.79,579.23,556.5079,569.4649,555.1818,574.9642,549.6826,573.6381,557.79,579.23" style="stroke:#008000;stroke-width:1;"/><path d="M540.5,519.3 L540.5,544.3 L693.5,544.3 L693.5,529.3 L683.5,519.3 L540.5,519.3" fill="#FEFFDD" style="stroke:#181818;stroke-width:0.5;"/><path d="M683.5,519.3 L683.5,529.3 L693.5,529.3 L683.5,519.3" fill="#FEFFDD" style="stroke:#181818;stroke-width:0.5;"/><text fill="#000000" font-family="sans-serif" font-size="13" lengthAdjust="spacing" textLength="132.4375" x="546.5" y="536.3669">editarRecompensa()</text></g><!--SRC=[fPDDRi8m48NtFeL5Dr09zG88YL8MBFeZmWwXQeW7D2BnH6EpG5MbdgLNw15wavwaJY9-4WAgQBAou_dUcpUnMvFDG23L2LdqsmnrniasNoZbF7ZKiI3816DECxGED3ZTgksrEotzffGEJrdJ2cyuDxPUs6nYGclu0JoxqpC7oZ103PIOsUrSTsStAq6qysx_7Cbo0B7DpQ-BZTwYFsGMGnOCI-zkqTUE4uh9Gzc8bhrUKH1u1QMKFPMfk3ZnUiv3HCvZ2eL-9kZG1lqbIxf9G8YrmRgFUX5AIe5BEqEYpRxhduzFFQMCzuiXM4y6pBa8TXGi8Nfx26Mr0J4W5urZ4jokmXSfd2TmJOY29eym3FQAoO6DCIINItE81cBw_h8DqlK1LQPtIRgnxvZjaYGjrVBEyp-eGVfTgVebgVmre-7puyleAHf4huFxyMWo7KIgOW8MGaVLhjrHXxx-XyQ4qX1fvR8UmVz8ty5hR1E6qqp-1G00]--></g></svg>